#N canvas 310 85 450 300 10;
#X obj 36 18 inlet;
#X obj 36 92 phasor~;
#X obj 109 93 phasor~;
#X msg 122 54 0;
#X msg 160 55 0.5;
#X obj 50 50 *~ 1;
#X obj 72 164 +~;
#X obj 89 239 -~ 1;
#X obj 160 19 inlet;
#X obj 89 268 outlet~;
#X text 160 -3 Phase Synchronisation;
#X obj 102 123 *~ -1;
#X obj 186 94 osc~;
#X msg 200 54 0.75;
#X obj 158 122 *~ -1;
#X obj 84 50 *~ 1;
#X obj 112 166 +~;
#X obj 89 202 *~;
#X connect 0 0 1 0;
#X connect 0 0 5 0;
#X connect 0 0 15 0;
#X connect 1 0 6 0;
#X connect 2 0 11 0;
#X connect 3 0 1 1;
#X connect 4 0 2 1;
#X connect 5 0 2 0;
#X connect 6 0 17 0;
#X connect 7 0 9 0;
#X connect 8 0 4 0;
#X connect 8 0 3 0;
#X connect 8 0 13 0;
#X connect 11 0 6 1;
#X connect 11 0 16 0;
#X connect 12 0 14 0;
#X connect 13 0 12 1;
#X connect 14 0 16 1;
#X connect 15 0 12 0;
#X connect 16 0 17 1;
#X connect 17 0 7 0;
