#N canvas 0 0 879 438 10;
#X obj 156 54 + 1;
#X obj 298 54 + 2;
#X obj 447 54 + 3;
#X obj 22 37 inlet;
#X obj 22 114 setWaves;
#X obj 107 180 -~;
#X obj 206 267 -~;
#X obj 149 218 *~ 0.3;
#X obj 251 308 *~ 0.3;
#X obj 296 349 -~;
#X obj 295 393 outlet~;
#X obj 156 116 setWavesII;
#X obj 298 118 setWavesIII;
#X obj 447 117 setWavesIV;
#X obj 33 76 tgl 15 0 empty wsn1 empty 17 7 0 10 -262144 -1 -1 0 1
;
#X obj 49 76 tgl 15 0 empty wsw1 empty 17 7 0 10 -262144 -1 -1 0 1
;
#X obj 65 76 tgl 15 0 empty wtr1 empty 17 7 0 10 -262144 -1 -1 0 1
;
#X obj 81 76 tgl 15 0 empty wsq1 empty 17 7 0 10 -262144 -1 -1 0 1
;
#X obj 170 75 tgl 15 0 empty wsn2 empty 17 7 0 10 -262144 -1 -1 0 1
;
#X obj 186 75 tgl 15 0 empty wsw2 empty 17 7 0 10 -262144 -1 -1 0 1
;
#X obj 202 75 tgl 15 0 empty wtr2 empty 17 7 0 10 -262144 -1 -1 0 1
;
#X obj 218 75 tgl 15 0 empty wsq2 empty 17 7 0 10 -262144 -1 -1 0 1
;
#X obj 313 75 tgl 15 0 empty wsn3 empty 17 7 0 10 -262144 -1 -1 0 1
;
#X obj 329 75 tgl 15 0 empty wsw3 empty 17 7 0 10 -262144 -1 -1 0 1
;
#X obj 345 75 tgl 15 0 empty wtr3 empty 17 7 0 10 -262144 -1 -1 0 1
;
#X obj 361 75 tgl 15 0 empty wsq3 empty 17 7 0 10 -262144 -1 -1 0 1
;
#X obj 461 75 tgl 15 0 empty wsn4 empty 17 7 0 10 -262144 -1 -1 0 1
;
#X obj 477 75 tgl 15 0 empty wsw4 empty 17 7 0 10 -262144 -1 -1 0 1
;
#X obj 493 75 tgl 15 0 empty wtr4 empty 17 7 0 10 -262144 -1 -1 0 1
;
#X obj 509 75 tgl 15 0 empty wsq4 empty 17 7 0 10 -262144 -1 -1 0 1
;
#X connect 0 0 11 0;
#X connect 1 0 12 0;
#X connect 2 0 13 0;
#X connect 3 0 0 0;
#X connect 3 0 1 0;
#X connect 3 0 2 0;
#X connect 3 0 4 0;
#X connect 4 0 5 0;
#X connect 4 1 5 0;
#X connect 4 2 5 0;
#X connect 4 3 5 0;
#X connect 5 0 7 0;
#X connect 6 0 8 0;
#X connect 7 0 6 0;
#X connect 8 0 9 0;
#X connect 9 0 10 0;
#X connect 11 0 5 1;
#X connect 11 1 5 1;
#X connect 11 2 5 1;
#X connect 11 3 5 1;
#X connect 12 0 6 1;
#X connect 12 1 6 1;
#X connect 12 2 6 1;
#X connect 12 3 6 1;
#X connect 13 0 9 1;
#X connect 13 1 9 1;
#X connect 13 2 9 1;
#X connect 13 3 9 1;
#X connect 14 0 4 1;
#X connect 15 0 4 2;
#X connect 16 0 4 3;
#X connect 17 0 4 4;
#X connect 18 0 11 1;
#X connect 19 0 11 2;
#X connect 20 0 11 3;
#X connect 21 0 11 4;
#X connect 22 0 12 1;
#X connect 23 0 12 2;
#X connect 24 0 12 3;
#X connect 25 0 12 4;
#X connect 26 0 13 1;
#X connect 27 0 13 2;
#X connect 28 0 13 3;
#X connect 29 0 13 4;
