#N canvas 225 109 704 411 10;
#X obj 112 136 noise~;
#X obj 498 254 line~;
#X obj 498 83 inlet;
#X obj 352 321 outlet~;
#X obj 351 270 *~;
#X obj 351 207 hip~ 60;
#X obj 350 153 *~ 0.1;
#X obj 351 296 *~ 0.1;
#X obj 351 238 *~ 0.2;
#X obj 516 110 bng 15 250 50 0 empty empty empty 17 7 0 10 -262144
-1 -1;
#X obj 66 54 inlet waveNumber;
#X obj 169 54 inlet waveNumber2;
#X msg 498 186 1 \, 0 300;
#X obj 350 25 inlet waveNumber;
#X obj 453 25 inlet waveNumber2;
#X obj 66 83 ../WFormUnit/tri_wave;
#X obj 206 82 ../WFormUnit/tri_wave;
#X obj 350 54 ../WFormUnit/tri_wave;
#X obj 484 53 ../WFormUnit/tri_wave;
#X connect 0 0 5 0;
#X connect 0 0 6 0;
#X connect 1 0 4 1;
#X connect 2 0 12 0;
#X connect 2 0 9 0;
#X connect 4 0 7 0;
#X connect 5 0 8 0;
#X connect 6 0 5 0;
#X connect 7 0 3 0;
#X connect 8 0 4 0;
#X connect 10 0 15 0;
#X connect 11 0 16 0;
#X connect 12 0 1 0;
#X connect 13 0 17 0;
#X connect 14 0 18 0;
#X connect 15 0 6 0;
#X connect 16 0 6 0;
#X connect 17 0 6 0;
#X connect 18 0 6 0;
