#N canvas 0 0 450 300 10;
#X obj 242 122 t b;
#X text 69 14 State;
#X text 152 14 TSig;
#X text 113 14 Tempo;
#X text 31 14 Freq;
#X obj 73 105 ../tempo;
#X obj 73 34 r oHho;
#X obj 95 57 r tHho;
#X obj 118 78 r sHho;
#X obj 36 127 r fHho;
#X obj 36 174 hho_mod;
#X obj 36 208 s~ hho;
#X connect 0 0 10 4;
#X connect 5 0 0 0;
#X connect 6 0 5 0;
#X connect 7 0 5 1;
#X connect 8 0 5 2;
#X connect 9 0 10 0;
#X connect 9 0 10 1;
#X connect 9 0 10 2;
#X connect 9 0 10 3;
#X connect 10 0 11 0;
