#N canvas 545 192 343 238 10;
#X obj 232 112 t b;
#X text 59 4 State;
#X text 142 4 TSig;
#X text 103 4 Tempo;
#X text 21 4 Freq;
#X obj 85 47 r tK8X;
#X obj 108 68 r sK8X;
#X obj 24 130 r fK8X;
#X obj 63 24 r oK8X;
#X obj 63 95 ../tempo;
#X obj 181 147 kd808_mod;
#X obj 180 179 s~ kd808;
#X connect 0 0 10 1;
#X connect 5 0 9 1;
#X connect 6 0 9 2;
#X connect 7 0 10 0;
#X connect 8 0 9 0;
#X connect 9 0 0 0;
#X connect 10 0 11 0;
