#N canvas 31 13 328 405 10;
#X obj 236 141 line~;
#X obj 142 191 *~;
#X obj 102 354 outlet~;
#X obj 201 52 inlet;
#X obj 201 82 bng 15 250 50 0 empty empty empty 17 7 0 10 -262144 -1
-1;
#X obj 79 192 *~;
#X obj 141 235 lop~ 150;
#X obj 104 274 *~;
#X obj 78 235 lop~ 200;
#X msg 236 68 1 \, 0 180;
#X obj 46 16 inlet;
#X obj 155 144 phasor~;
#X obj 103 318 *~ 0.2;
#X obj 46 45 sel 0 1 2 3;
#X msg 46 83 80;
#X msg 73 83 160;
#X msg 102 83 240;
#X msg 129 83 320;
#X obj 20 144 ../WFormUnit/tri_wave;
#X connect 0 0 1 1;
#X connect 1 0 6 0;
#X connect 3 0 9 0;
#X connect 3 0 4 0;
#X connect 5 0 8 0;
#X connect 6 0 7 1;
#X connect 7 0 12 0;
#X connect 8 0 7 0;
#X connect 9 0 0 0;
#X connect 10 0 13 0;
#X connect 11 0 1 0;
#X connect 11 0 5 1;
#X connect 12 0 2 0;
#X connect 13 0 14 0;
#X connect 13 1 15 0;
#X connect 13 2 16 0;
#X connect 13 3 17 0;
#X connect 14 0 11 0;
#X connect 14 0 18 0;
#X connect 15 0 11 0;
#X connect 15 0 18 0;
#X connect 16 0 11 0;
#X connect 16 0 18 0;
#X connect 17 0 11 0;
#X connect 17 0 18 0;
#X connect 18 0 5 0;
