#N canvas 217 77 441 413 10;
#X obj 181 161 line~;
#X obj 116 212 *~;
#X obj 88 166 square~;
#X obj 114 334 outlet~;
#X obj 182 42 inlet;
#X obj 241 59 bng 15 250 50 0 empty empty empty 17 7 0 10 -262144 -1
-1;
#X obj 116 260 lop~ 200;
#X msg 181 122 1 \, 0 190;
#X obj 115 298 *~ 0.2;
#X obj 46 57 sel 0 1 2 3;
#X obj 46 34 inlet;
#X msg 46 95 80;
#X msg 73 95 160;
#X msg 102 95 240;
#X msg 129 95 320;
#X connect 0 0 1 1;
#X connect 1 0 6 0;
#X connect 2 0 1 0;
#X connect 4 0 7 0;
#X connect 4 0 5 0;
#X connect 6 0 8 0;
#X connect 7 0 0 0;
#X connect 8 0 3 0;
#X connect 9 0 11 0;
#X connect 9 1 12 0;
#X connect 9 2 13 0;
#X connect 9 3 14 0;
#X connect 10 0 9 0;
#X connect 11 0 2 0;
#X connect 12 0 2 0;
#X connect 13 0 2 0;
#X connect 14 0 2 0;
