#N canvas 545 192 343 238 10;
#X obj 214 112 t b;
#X text 59 4 State;
#X text 142 4 TSig;
#X text 103 4 Tempo;
#X text 21 4 Freq;
#X obj 63 95 ../tempo;
#X obj 181 147 kd_mod;
#X obj 63 24 r oKd;
#X obj 85 47 r tKd;
#X obj 108 68 r sKd;
#X obj 24 130 r fKd;
#X obj 180 179 s~ kd;
#X connect 0 0 6 1;
#X connect 5 0 0 0;
#X connect 6 0 11 0;
#X connect 7 0 5 0;
#X connect 8 0 5 1;
#X connect 9 0 5 2;
#X connect 10 0 6 0;
