#N canvas 0 0 649 367 10;
#X obj 16 82 tgl 15 0 oKd empty empty 17 7 0 10 -262144 -1 -1 0 1;
#X obj 18 43 knob 31 31 177 50 0 0 tKd empty empty 0 -8 0 8 -262144
-1 -1 0 1;
#X floatatom 60 63 5 0 0 0 - tKd -;
#X obj 32 82 hradio 15 1 0 4 sKd empty empty 0 -8 0 10 -262144 -1 -1
0;
#X text 15 16 KICK BANK 1;
#X floatatom 61 42 5 0 0 0 - tempoRounded -;
#X obj 32 99 hradio 15 1 0 4 fKd empty empty 0 -8 0 10 -262144 -1 -1
0;
#X text 102 18 KICK BANK X808X;
#X obj 107 83 tgl 15 0 oK8X empty empty 17 7 0 10 -262144 -1 -1 0 1
;
#X obj 110 44 knob 31 31 177 50 0 0 tK8X empty empty 0 -8 0 8 -262144
-1 -1 0 1;
#X floatatom 151 64 5 0 0 0 - tK8X -;
#X obj 123 83 hradio 15 1 0 4 sK8X empty empty 0 -8 0 10 -262144 -1
-1 0;
#X obj 123 100 hradio 15 1 0 4 fK8X empty empty 0 -8 0 10 -262144 -1
-1 0;
#X obj 13 190 tgl 15 0 o8Xn empty empty 17 7 0 10 -262144 -1 -1 0 1
;
#X obj 15 151 knob 31 31 177 50 0 0 t8Xn empty empty 0 -8 0 8 -262144
-1 -1 3000 1;
#X floatatom 56 171 5 0 0 0 - t8Xn -;
#X obj 29 190 hradio 15 1 0 4 s8Xn empty empty 0 -8 0 10 -262144 -1
-1 0;
#X obj 29 208 hradio 15 1 0 4 f8Xn empty empty 0 -8 0 10 -262144 -1
-1 0;
#X text 13 131 BASS SNARE BANK X808X;
#X obj 12 303 tgl 15 0 oHho empty empty 17 7 0 10 -262144 -1 -1 0 1
;
#X obj 14 264 knob 31 31 177 50 0 0 tHho empty empty 0 -8 0 8 -262144
-1 -1 3000 1;
#X floatatom 55 284 5 0 0 0 - tHho -;
#X obj 28 303 hradio 15 1 0 4 sHho empty empty 0 -8 0 10 -262144 -1
-1 0;
#X obj 28 321 hradio 15 1 0 4 fHho empty empty 0 -8 0 10 -262144 -1
-1 0;
#X text 12 243 OPEN HI HAT BANK;
