#N canvas 69 13 609 397 10;
#X obj 40 -40 tgl 15 0 empty empty empty 17 7 0 10 -262144 -1 -1 0
1;
#X obj 133 -40 tgl 15 0 empty empty empty 17 7 0 10 -262144 -1 -1 1
1;
#X text 37 -57 CHAIN A;
#X text 128 -58 CHAIN B;
#X obj 40 7 counter;
#X obj 40 -16 metro;
#X obj 40 30 mod 43;
#X obj 196 -2 counter;
#X obj 196 -25 metro;
#N canvas 309 86 667 405 humanInsulinChainA 1;
#X obj 15 -42 hradio 15 1 0 43 empty empty empty 0 -8 0 10 -262144
-1 -1 11;
#X obj 84 -26 select 0 1 2 3 4 5 6 7 8 9 10 11 12 13 14 15 16 17 18
19 20 21 22 23 24 25 26 27 28 29 30 31 32 33 34 35 36 37 38 39 40 41
42 43;
#X obj 15 -116 inlet;
#X obj 74 56 bng 15 250 50 0 empty empty empty 17 7 0 10 -262144 -1
-1;
#X obj 93 56 bng 15 250 50 0 empty empty empty 17 7 0 10 -262144 -1
-1;
#X obj 111 56 bng 15 250 50 0 empty empty empty 17 7 0 10 -262144 -1
-1;
#X obj 54 56 bng 15 250 50 0 empty empty empty 17 7 0 10 -262144 -1
-1;
#X obj 150 56 bng 15 250 50 0 empty empty empty 17 7 0 10 -262144 -1
-1;
#X obj 169 56 bng 15 250 50 0 empty empty empty 17 7 0 10 -262144 -1
-1;
#X obj 187 56 bng 15 250 50 0 empty empty empty 17 7 0 10 -262144 -1
-1;
#X obj 130 56 bng 15 250 50 0 empty empty empty 17 7 0 10 -262144 -1
-1;
#X obj 227 56 bng 15 250 50 0 empty empty empty 17 7 0 10 -262144 -1
-1;
#X obj 247 56 bng 15 250 50 0 empty empty empty 17 7 0 10 -262144 -1
-1;
#X obj 267 55 bng 15 250 50 0 empty empty empty 17 7 0 10 -262144 -1
-1;
#X obj 207 56 bng 15 250 50 0 empty empty empty 17 7 0 10 -262144 -1
-1;
#X obj 307 53 bng 15 250 50 0 empty empty empty 17 7 0 10 -262144 -1
-1;
#X obj 326 53 bng 15 250 50 0 empty empty empty 17 7 0 10 -262144 -1
-1;
#X obj 346 53 bng 15 250 50 0 empty empty empty 17 7 0 10 -262144 -1
-1;
#X obj 287 54 bng 15 250 50 0 empty empty empty 17 7 0 10 -262144 -1
-1;
#X obj 365 54 bng 15 250 50 0 empty empty empty 17 7 0 10 -262144 -1
-1;
#X obj 405 53 bng 15 250 50 0 empty empty empty 17 7 0 10 -262144 -1
-1;
#X obj 426 53 bng 15 250 50 0 empty empty empty 17 7 0 10 -262144 -1
-1;
#X obj 445 53 bng 15 250 50 0 empty empty empty 17 7 0 10 -262144 -1
-1;
#X obj 385 54 bng 15 250 50 0 empty empty empty 17 7 0 10 -262144 -1
-1;
#X obj 33 56 bng 15 250 50 0 empty empty empty 17 7 0 10 -262144 -1
-1;
#N canvas 34 120 450 300 gly 0;
#X obj -90 -11 inlet;
#X obj -39 129 tgl 15 0 empty empty empty 17 7 0 10 -262144 -1 -1 0
1;
#X obj -70 262 outlet~;
#X obj 78 154 osc~ 220;
#X obj -35 9 hradio 15 1 0 9 empty empty empty 0 -8 0 10 -262144 -1
-1 7;
#X obj -2 127 tgl 15 0 empty empty empty 17 7 0 10 -262144 -1 -1 0
1;
#X obj 34 126 tgl 15 0 empty empty empty 17 7 0 10 -262144 -1 -1 0
1;
#X obj 62 126 tgl 15 0 empty empty empty 17 7 0 10 -262144 -1 -1 1
1;
#X obj 136 153 osc~ 130.81;
#X obj 4 154 osc~ 164.81;
#X obj -114 155 osc~ 196;
#X obj 215 154 osc~ 196;
#X obj -90 34 counter;
#X obj -90 12 tgl 15 0 empty empty empty 17 7 0 10 -262144 -1 -1 0
1;
#X obj -27 94 bng 15 250 50 0 empty empty empty 17 7 0 10 -262144 -1
-1;
#X obj -1 93 bng 15 250 50 0 empty empty empty 17 7 0 10 -262144 -1
-1;
#X obj 25 93 bng 15 250 50 0 empty empty empty 17 7 0 10 -262144 -1
-1;
#X obj 49 94 bng 15 250 50 0 empty empty empty 17 7 0 10 -262144 -1
-1;
#X obj -70 222 *~ *;
#X obj -36 221 *~ *;
#X obj 2 221 *~ *;
#X obj 40 221 *~ *;
#X obj -54 154 osc~ 196;
#X obj -50 94 bng 15 250 50 0 empty empty empty 17 7 0 10 -262144 -1
-1;
#X obj -35 59 select 0 1 2 3 4 5 6 7 8 9;
#X obj -90 63 mod 9;
#X connect 0 0 13 0;
#X connect 1 0 18 1;
#X connect 3 0 20 0;
#X connect 4 0 24 0;
#X connect 5 0 19 1;
#X connect 6 0 20 1;
#X connect 7 0 21 1;
#X connect 8 0 19 0;
#X connect 9 0 18 0;
#X connect 9 0 19 0;
#X connect 10 0 18 0;
#X connect 10 0 20 0;
#X connect 10 0 21 0;
#X connect 11 0 21 0;
#X connect 12 0 25 0;
#X connect 13 0 12 0;
#X connect 14 0 1 0;
#X connect 15 0 5 0;
#X connect 16 0 6 0;
#X connect 17 0 7 0;
#X connect 18 0 2 0;
#X connect 19 0 2 0;
#X connect 20 0 2 0;
#X connect 21 0 2 0;
#X connect 22 0 18 0;
#X connect 22 0 19 0;
#X connect 22 0 20 0;
#X connect 22 0 21 0;
#X connect 24 0 23 0;
#X connect 24 1 14 0;
#X connect 24 2 14 0;
#X connect 24 3 15 0;
#X connect 24 4 15 0;
#X connect 24 5 16 0;
#X connect 24 6 16 0;
#X connect 24 7 17 0;
#X connect 24 8 17 0;
#X connect 25 0 4 0;
#X restore 14 124 pd gly;
#N canvas 522 163 450 300 ile 0;
#X obj -81 -9 inlet;
#X obj 10 115 tgl 15 0 empty empty empty 17 7 0 10 -262144 -1 -1 0
1;
#X obj -22 257 outlet~;
#X obj -22 218 *~ *;
#X obj 117 165 osc~ 220;
#X obj -23 29 hradio 15 1 0 7 empty empty empty 0 -8 0 10 -262144 -1
-1 6;
#X obj 43 114 tgl 15 0 empty empty empty 17 7 0 10 -262144 -1 -1 0
1;
#X obj 71 112 tgl 15 0 empty empty empty 17 7 0 10 -262144 -1 -1 0
1;
#X obj 41 165 osc~ 130.81;
#X obj -70 138 osc~ 164.81;
#X obj 33 218 *~ *;
#X obj 90 217 *~ *;
#X obj -34 165 osc~ 164.81;
#X obj 174 164 osc~ 220;
#X obj -81 39 counter;
#X obj -81 17 tgl 15 0 empty empty empty 17 7 0 10 -262144 -1 -1 0
1;
#X obj -19 90 bng 15 250 50 0 empty empty empty 17 7 0 10 -262144 -1
-1;
#X obj 14 89 bng 15 250 50 0 empty empty empty 17 7 0 10 -262144 -1
-1;
#X obj 42 88 bng 15 250 50 0 empty empty empty 17 7 0 10 -262144 -1
-1;
#X obj 69 87 bng 15 250 50 0 empty empty empty 17 7 0 10 -262144 -1
-1;
#X obj -81 68 mod 7;
#X obj -23 53 select 0 1 2 3 4 5 6 7;
#X connect 0 0 15 0;
#X connect 1 0 3 1;
#X connect 3 0 2 0;
#X connect 4 0 3 0;
#X connect 4 0 11 0;
#X connect 5 0 21 0;
#X connect 6 0 10 1;
#X connect 7 0 11 1;
#X connect 8 0 10 0;
#X connect 9 0 3 0;
#X connect 10 0 2 0;
#X connect 11 0 2 0;
#X connect 12 0 3 0;
#X connect 12 0 10 0;
#X connect 12 0 11 0;
#X connect 13 0 10 0;
#X connect 13 0 11 0;
#X connect 14 0 20 0;
#X connect 15 0 14 0;
#X connect 17 0 1 0;
#X connect 18 0 6 0;
#X connect 19 0 7 0;
#X connect 20 0 5 0;
#X connect 21 0 16 0;
#X connect 21 1 17 0;
#X connect 21 2 17 0;
#X connect 21 3 18 0;
#X connect 21 4 18 0;
#X connect 21 5 19 0;
#X connect 21 6 19 0;
#X restore 57 124 pd ile;
#N canvas 477 166 450 300 val 0;
#X obj -49 7 inlet;
#X obj 29 124 tgl 15 0 empty empty empty 17 7 0 10 -262144 -1 -1 0
1;
#X obj -12 267 outlet~;
#X obj -12 223 *~ *;
#X obj 9 38 hradio 15 1 0 7 empty empty empty 0 -8 0 10 -262144 -1
-1 4;
#X obj 60 124 tgl 15 0 empty empty empty 17 7 0 10 -262144 -1 -1 0
1;
#X obj 89 124 tgl 15 0 empty empty empty 17 7 0 10 -262144 -1 -1 0
1;
#X obj 51 170 osc~ 130.81;
#X obj -52 146 osc~ 164.81;
#X obj 43 223 *~ *;
#X obj 100 222 *~ *;
#X obj -24 170 osc~ 164.81;
#X obj 203 170 osc~ 220;
#X obj 127 170 osc~ 130.81;
#X obj 0 90 bng 15 250 50 0 empty empty empty 17 7 0 10 -262144 -1
-1;
#X obj 29 92 bng 15 250 50 0 empty empty empty 17 7 0 10 -262144 -1
-1;
#X obj 59 91 bng 15 250 50 0 empty empty empty 17 7 0 10 -262144 -1
-1;
#X obj -49 58 counter;
#X obj -49 36 tgl 15 0 empty empty empty 17 7 0 10 -262144 -1 -1 0
1;
#X obj 89 90 bng 15 250 50 0 empty empty empty 17 7 0 10 -262144 -1
-1;
#X obj -49 87 mod 7;
#X obj 8 62 select 0 1 2 3 4 5 6 7;
#X connect 0 0 18 0;
#X connect 1 0 3 1;
#X connect 3 0 2 0;
#X connect 4 0 21 0;
#X connect 5 0 9 1;
#X connect 6 0 10 1;
#X connect 7 0 3 0;
#X connect 7 0 9 0;
#X connect 8 0 3 0;
#X connect 9 0 2 0;
#X connect 10 0 2 0;
#X connect 11 0 3 0;
#X connect 11 0 9 0;
#X connect 11 0 10 0;
#X connect 12 0 10 0;
#X connect 13 0 9 0;
#X connect 13 0 10 0;
#X connect 15 0 1 0;
#X connect 16 0 5 0;
#X connect 17 0 20 0;
#X connect 18 0 17 0;
#X connect 19 0 6 0;
#X connect 20 0 4 0;
#X connect 21 0 14 0;
#X connect 21 1 15 0;
#X connect 21 2 15 0;
#X connect 21 3 16 0;
#X connect 21 4 16 0;
#X connect 21 5 19 0;
#X connect 21 6 19 0;
#X restore 100 123 pd val;
#N canvas 108 184 450 300 glu 0;
#X obj -90 -11 inlet;
#X obj -52 128 tgl 15 0 empty empty empty 17 7 0 10 -262144 -1 -1 0
1;
#X obj -70 262 outlet~;
#X obj 4 154 osc~ 220;
#X obj -35 11 hradio 15 1 0 5 empty empty empty 0 -8 0 10 -262144 -1
-1 4;
#X obj -15 126 tgl 15 0 empty empty empty 17 7 0 10 -262144 -1 -1 0
1;
#X obj -114 155 osc~ 196;
#X obj -90 34 counter;
#X obj -90 12 tgl 15 0 empty empty empty 17 7 0 10 -262144 -1 -1 0
1;
#X obj -50 89 bng 15 250 50 0 empty empty empty 17 7 0 10 -262144 -1
-1;
#X obj -11 90 bng 15 250 50 0 empty empty empty 17 7 0 10 -262144 -1
-1;
#X obj 28 87 bng 15 250 50 0 empty empty empty 17 7 0 10 -262144 -1
-1;
#X obj -73 216 *~ *;
#X obj -36 216 *~ *;
#X obj -54 154 osc~ 196;
#X obj 62 154 osc~ 220;
#X obj -90 63 mod 5;
#X obj -36 59 select 0 1 2 3 4 5;
#X connect 0 0 8 0;
#X connect 1 0 12 1;
#X connect 3 0 12 0;
#X connect 3 0 13 0;
#X connect 4 0 17 0;
#X connect 5 0 13 1;
#X connect 6 0 12 0;
#X connect 6 0 13 0;
#X connect 7 0 16 0;
#X connect 8 0 7 0;
#X connect 10 0 1 0;
#X connect 11 0 5 0;
#X connect 12 0 2 0;
#X connect 13 0 2 0;
#X connect 14 0 13 0;
#X connect 15 0 12 0;
#X connect 16 0 4 0;
#X connect 17 0 9 0;
#X connect 17 1 10 0;
#X connect 17 2 10 0;
#X connect 17 3 11 0;
#X connect 17 4 11 0;
#X restore 143 123 pd glu;
#N canvas 508 105 450 300 gln 0;
#X obj -81 -9 inlet;
#X obj 9 112 tgl 15 0 empty empty empty 17 7 0 10 -262144 -1 -1 0 1
;
#X obj -22 257 outlet~;
#X obj -22 218 *~ *;
#X obj 60 151 osc~ 220;
#X obj -23 29 hradio 15 1 0 5 empty empty empty 0 -8 0 10 -262144 -1
-1 4;
#X obj 38 111 tgl 15 0 empty empty empty 17 7 0 10 -262144 -1 -1 0
1;
#X obj -16 151 osc~ 130.81;
#X obj 33 218 *~ *;
#X obj 117 150 osc~ 220;
#X obj -81 39 counter;
#X obj -81 17 tgl 15 0 empty empty empty 17 7 0 10 -262144 -1 -1 0
1;
#X obj -20 83 bng 15 250 50 0 empty empty empty 17 7 0 10 -262144 -1
-1;
#X obj 8 83 bng 15 250 50 0 empty empty empty 17 7 0 10 -262144 -1
-1;
#X obj 37 83 bng 15 250 50 0 empty empty empty 17 7 0 10 -262144 -1
-1;
#X obj -75 152 osc~ 196;
#X obj -81 68 mod 5;
#X obj -23 53 select 0 1 2 3 4 5;
#X connect 0 0 11 0;
#X connect 1 0 3 1;
#X connect 3 0 2 0;
#X connect 4 0 3 0;
#X connect 4 0 8 0;
#X connect 5 0 17 0;
#X connect 6 0 8 1;
#X connect 7 0 3 0;
#X connect 7 0 8 0;
#X connect 8 0 2 0;
#X connect 9 0 3 0;
#X connect 10 0 16 0;
#X connect 11 0 10 0;
#X connect 13 0 1 0;
#X connect 14 0 6 0;
#X connect 15 0 8 0;
#X connect 16 0 5 0;
#X connect 17 0 12 0;
#X connect 17 1 13 0;
#X connect 17 2 13 0;
#X connect 17 3 14 0;
#X connect 17 4 14 0;
#X restore 186 123 pd gln;
#N canvas 6 205 450 300 cys 0;
#X obj -49 7 inlet;
#X obj 23 125 tgl 15 0 empty empty empty 17 7 0 10 -262144 -1 -1 0
1;
#X obj 2 263 outlet~;
#X obj 2 224 *~ *;
#X obj 9 38 hradio 15 1 0 5 empty empty empty 0 -8 0 10 -262144 -1
-1 0;
#X obj 50 126 tgl 15 0 empty empty empty 17 7 0 10 -262144 -1 -1 0
1;
#X obj 104 161 osc~ 130.81;
#X obj -50 163 osc~ 164.81;
#X obj 105 216 *~ *;
#X obj 29 161 osc~ 164.81;
#X obj 5 93 bng 15 250 50 0 empty empty empty 17 7 0 10 -262144 -1
-1;
#X obj 39 92 bng 15 250 50 0 empty empty empty 17 7 0 10 -262144 -1
-1;
#X obj 76 91 bng 15 250 50 0 empty empty empty 17 7 0 10 -262144 -1
-1;
#X obj -49 58 counter;
#X obj -49 36 tgl 15 0 empty empty empty 17 7 0 10 -262144 -1 -1 1
1;
#X obj 180 161 osc~ 196;
#X obj -48 87 mod 5;
#X obj 8 62 select 0 1 2 3 4 5;
#X connect 0 0 14 0;
#X connect 1 0 3 1;
#X connect 3 0 2 0;
#X connect 4 0 17 0;
#X connect 5 0 8 1;
#X connect 6 0 8 0;
#X connect 7 0 3 0;
#X connect 8 0 2 0;
#X connect 9 0 3 0;
#X connect 9 0 8 0;
#X connect 11 0 1 0;
#X connect 12 0 5 0;
#X connect 13 0 16 0;
#X connect 14 0 13 0;
#X connect 15 0 3 0;
#X connect 15 0 8 0;
#X connect 16 0 4 0;
#X connect 17 0 10 0;
#X connect 17 1 11 0;
#X connect 17 2 11 0;
#X connect 17 3 12 0;
#X connect 17 4 12 0;
#X restore 229 122 pd cys;
#N canvas 501 56 450 300 thr 0;
#X obj -80 -1 inlet;
#X obj -8 129 tgl 15 0 empty empty empty 17 7 0 10 -262144 -1 -1 0
1;
#X obj -29 272 outlet~;
#X obj 111 156 osc~ 220;
#X obj -25 21 hradio 15 1 0 9 empty empty empty 0 -8 0 10 -262144 -1
-1 5;
#X obj 29 127 tgl 15 0 empty empty empty 17 7 0 10 -262144 -1 -1 0
1;
#X obj 65 126 tgl 15 0 empty empty empty 17 7 0 10 -262144 -1 -1 1
1;
#X obj 93 126 tgl 15 0 empty empty empty 17 7 0 10 -262144 -1 -1 0
1;
#X obj 169 156 osc~ 130.81;
#X obj 37 156 osc~ 164.81;
#X obj -80 44 counter;
#X obj -80 22 tgl 15 0 empty empty empty 17 7 0 10 -262144 -1 -1 0
1;
#X obj -46 100 bng 15 250 50 0 empty empty empty 17 7 0 10 -262144
-1 -1;
#X obj -14 99 bng 15 250 50 0 empty empty empty 17 7 0 10 -262144 -1
-1;
#X obj 20 100 bng 15 250 50 0 empty empty empty 17 7 0 10 -262144 -1
-1;
#X obj 51 98 bng 15 250 50 0 empty empty empty 17 7 0 10 -262144 -1
-1;
#X obj 85 98 bng 15 250 50 0 empty empty empty 17 7 0 10 -262144 -1
-1;
#X obj -30 232 *~ *;
#X obj 4 231 *~ *;
#X obj 42 231 *~ *;
#X obj 80 231 *~ *;
#X obj -21 156 osc~ 196;
#X obj -78 156 osc~ 220;
#X obj 244 155 osc~ 130.81;
#X obj -80 73 mod 9;
#X obj -25 69 select 0 1 2 3 4 5 6 7 8 9;
#X connect 0 0 11 0;
#X connect 1 0 17 1;
#X connect 3 0 17 0;
#X connect 3 0 19 0;
#X connect 4 0 25 0;
#X connect 5 0 18 1;
#X connect 6 0 19 1;
#X connect 7 0 20 1;
#X connect 8 0 17 0;
#X connect 8 0 18 0;
#X connect 9 0 17 0;
#X connect 9 0 20 0;
#X connect 10 0 24 0;
#X connect 11 0 10 0;
#X connect 13 0 1 0;
#X connect 14 0 5 0;
#X connect 15 0 6 0;
#X connect 16 0 7 0;
#X connect 17 0 2 0;
#X connect 18 0 2 0;
#X connect 19 0 2 0;
#X connect 20 0 2 0;
#X connect 21 0 20 0;
#X connect 22 0 19 0;
#X connect 22 0 20 0;
#X connect 23 0 18 0;
#X connect 23 0 19 0;
#X connect 24 0 4 0;
#X connect 25 0 12 0;
#X connect 25 1 13 0;
#X connect 25 2 13 0;
#X connect 25 3 14 0;
#X connect 25 4 14 0;
#X connect 25 5 15 0;
#X connect 25 6 15 0;
#X connect 25 7 16 0;
#X connect 25 8 16 0;
#X restore 275 121 pd thr;
#N canvas 476 173 450 300 ser 0;
#X obj -71 1 inlet;
#X obj 19 122 tgl 15 0 empty empty empty 17 7 0 10 -262144 -1 -1 0
1;
#X obj -12 267 outlet~;
#X obj -12 228 *~ *;
#X obj 70 161 osc~ 220;
#X obj -13 39 hradio 15 1 0 5 empty empty empty 0 -8 0 10 -262144 -1
-1 2;
#X obj 48 121 tgl 15 0 empty empty empty 17 7 0 10 -262144 -1 -1 0
1;
#X obj -6 161 osc~ 130.81;
#X obj 43 228 *~ *;
#X obj -71 49 counter;
#X obj -71 27 tgl 15 0 empty empty empty 17 7 0 10 -262144 -1 -1 0
1;
#X obj -10 93 bng 15 250 50 0 empty empty empty 17 7 0 10 -262144 -1
-1;
#X obj 14 93 bng 15 250 50 0 empty empty empty 17 7 0 10 -262144 -1
-1;
#X obj 46 91 bng 15 250 50 0 empty empty empty 17 7 0 10 -262144 -1
-1;
#X obj -65 162 osc~ 196;
#X obj 127 160 osc~ 164.81;
#X obj -71 78 mod 5;
#X obj -13 63 select 0 1 2 3 4 5;
#X connect 0 0 10 0;
#X connect 1 0 3 1;
#X connect 3 0 2 0;
#X connect 4 0 3 0;
#X connect 4 0 8 0;
#X connect 5 0 17 0;
#X connect 6 0 8 1;
#X connect 7 0 8 0;
#X connect 8 0 2 0;
#X connect 9 0 16 0;
#X connect 10 0 9 0;
#X connect 12 0 1 0;
#X connect 13 0 6 0;
#X connect 14 0 3 0;
#X connect 14 0 8 0;
#X connect 15 0 3 0;
#X connect 16 0 5 0;
#X connect 17 0 11 0;
#X connect 17 1 12 0;
#X connect 17 2 12 0;
#X connect 17 3 13 0;
#X connect 17 4 13 0;
#X restore 324 122 pd ser;
#N canvas 527 136 450 300 leu 0;
#X obj -80 -1 inlet;
#X obj -29 137 tgl 15 0 empty empty empty 17 7 0 10 -262144 -1 -1 0
1;
#X obj 13 275 outlet~;
#X obj 118 163 osc~ 220;
#X obj -25 21 hradio 15 1 0 13 empty empty empty 0 -8 0 10 -262144
-1 -1 3;
#X obj 7 136 tgl 15 0 empty empty empty 17 7 0 10 -262144 -1 -1 1 1
;
#X obj 41 136 tgl 15 0 empty empty empty 17 7 0 10 -262144 -1 -1 0
1;
#X obj 74 136 tgl 15 0 empty empty empty 17 7 0 10 -262144 -1 -1 0
1;
#X obj 176 162 osc~ 130.81;
#X obj -34 163 osc~ 164.81;
#X obj -95 165 osc~ 196;
#X obj -80 44 counter;
#X obj -80 22 tgl 15 0 empty empty empty 17 7 0 10 -262144 -1 -1 0
1;
#X obj -51 101 bng 15 250 50 0 empty empty empty 17 7 0 10 -262144
-1 -1;
#X obj -29 102 bng 15 250 50 0 empty empty empty 17 7 0 10 -262144
-1 -1;
#X obj 7 102 bng 15 250 50 0 empty empty empty 17 7 0 10 -262144 -1
-1;
#X obj 41 100 bng 15 250 50 0 empty empty empty 17 7 0 10 -262144 -1
-1;
#X obj 74 101 bng 15 250 50 0 empty empty empty 17 7 0 10 -262144 -1
-1;
#X obj -62 232 *~ *;
#X obj -26 231 *~ *;
#X obj 12 231 *~ *;
#X obj 50 231 *~ *;
#X obj 106 99 bng 15 250 50 0 empty empty empty 17 7 0 10 -262144 -1
-1;
#X obj 140 99 bng 15 250 50 0 empty empty empty 17 7 0 10 -262144 -1
-1;
#X obj 106 135 tgl 15 0 empty empty empty 17 7 0 10 -262144 -1 -1 0
1;
#X obj 140 136 tgl 15 0 empty empty empty 17 7 0 10 -262144 -1 -1 0
1;
#X obj 174 186 osc~ 130.81;
#X obj 41 163 osc~ 164.81;
#X obj 90 230 *~ *;
#X obj 128 230 *~ *;
#X obj -25 69 select 0 1 2 3 4 5 6 7 8 9 10 11 12 13;
#X obj -80 73 mod 13;
#X connect 0 0 12 0;
#X connect 1 0 18 1;
#X connect 3 0 18 0;
#X connect 3 0 28 0;
#X connect 4 0 30 0;
#X connect 5 0 19 1;
#X connect 6 0 20 1;
#X connect 7 0 21 1;
#X connect 8 0 20 0;
#X connect 8 0 21 0;
#X connect 8 0 29 0;
#X connect 9 0 18 0;
#X connect 9 0 19 0;
#X connect 9 0 20 0;
#X connect 9 0 21 0;
#X connect 10 0 19 0;
#X connect 10 0 29 0;
#X connect 11 0 31 0;
#X connect 12 0 11 0;
#X connect 14 0 1 0;
#X connect 15 0 5 0;
#X connect 16 0 6 0;
#X connect 17 0 7 0;
#X connect 18 0 2 0;
#X connect 19 0 2 0;
#X connect 20 0 2 0;
#X connect 21 0 2 0;
#X connect 22 0 24 0;
#X connect 23 0 25 0;
#X connect 24 0 28 1;
#X connect 25 0 29 1;
#X connect 26 0 21 0;
#X connect 26 0 28 0;
#X connect 27 0 18 0;
#X connect 27 0 19 0;
#X connect 27 0 20 0;
#X connect 27 0 28 0;
#X connect 27 0 29 0;
#X connect 28 0 2 0;
#X connect 29 0 2 0;
#X connect 30 0 13 0;
#X connect 30 1 14 0;
#X connect 30 2 14 0;
#X connect 30 3 15 0;
#X connect 30 4 15 0;
#X connect 30 5 16 0;
#X connect 30 6 16 0;
#X connect 30 7 17 0;
#X connect 30 8 17 0;
#X connect 30 9 22 0;
#X connect 30 10 22 0;
#X connect 30 11 23 0;
#X connect 30 12 23 0;
#X connect 31 0 4 0;
#X restore 369 121 pd leu;
#N canvas 536 185 450 300 tyr 0;
#X obj -71 1 inlet;
#X obj 19 122 tgl 15 0 empty empty empty 17 7 0 10 -262144 -1 -1 0
1;
#X obj -3 267 outlet~;
#X obj -2 227 *~ *;
#X obj 86 162 osc~ 220;
#X obj -13 39 hradio 15 1 0 5 empty empty empty 0 -8 0 10 -262144 -1
-1 2;
#X obj 48 121 tgl 15 0 empty empty empty 17 7 0 10 -262144 -1 -1 0
1;
#X obj 10 162 osc~ 130.81;
#X obj 32 227 *~ *;
#X obj -71 49 counter;
#X obj -71 27 tgl 15 0 empty empty empty 17 7 0 10 -262144 -1 -1 0
1;
#X obj -10 93 bng 15 250 50 0 empty empty empty 17 7 0 10 -262144 -1
-1;
#X obj 19 92 bng 15 250 50 0 empty empty empty 17 7 0 10 -262144 -1
-1;
#X obj 48 92 bng 15 250 50 0 empty empty empty 17 7 0 10 -262144 -1
-1;
#X obj 143 161 osc~ 164.81;
#X obj -65 162 osc~ 164.81;
#X obj -71 78 mod 5;
#X obj -13 63 select 0 1 2 3 4 5;
#X connect 0 0 10 0;
#X connect 1 0 3 1;
#X connect 3 0 2 0;
#X connect 4 0 3 0;
#X connect 4 0 8 0;
#X connect 5 0 17 0;
#X connect 6 0 8 1;
#X connect 7 0 8 0;
#X connect 8 0 2 0;
#X connect 9 0 16 0;
#X connect 10 0 9 0;
#X connect 12 0 1 0;
#X connect 13 0 6 0;
#X connect 14 0 3 0;
#X connect 15 0 3 0;
#X connect 15 0 8 0;
#X connect 16 0 5 0;
#X connect 17 0 11 0;
#X connect 17 1 12 0;
#X connect 17 2 12 0;
#X connect 17 3 13 0;
#X connect 17 4 13 0;
#X restore 413 121 pd tyr;
#N canvas 473 181 450 300 asn 0;
#X obj -61 11 inlet;
#X obj 29 132 tgl 15 0 empty empty empty 17 7 0 10 -262144 -1 -1 0
1;
#X obj 7 277 outlet~;
#X obj 8 237 *~ *;
#X obj 96 172 osc~ 220;
#X obj -3 49 hradio 15 1 0 5 empty empty empty 0 -8 0 10 -262144 -1
-1 2;
#X obj 58 131 tgl 15 0 empty empty empty 17 7 0 10 -262144 -1 -1 0
1;
#X obj 20 172 osc~ 130.81;
#X obj 42 237 *~ *;
#X obj -61 59 counter;
#X obj -61 37 tgl 15 0 empty empty empty 17 7 0 10 -262144 -1 -1 0
1;
#X obj 0 103 bng 15 250 50 0 empty empty empty 17 7 0 10 -262144 -1
-1;
#X obj 28 101 bng 15 250 50 0 empty empty empty 17 7 0 10 -262144 -1
-1;
#X obj 58 101 bng 15 250 50 0 empty empty empty 17 7 0 10 -262144 -1
-1;
#X obj -55 172 osc~ 164.81;
#X obj 153 171 osc~ 220;
#X obj -3 73 select 0 1 2 3 4 5;
#X obj -61 88 mod 5;
#X connect 0 0 10 0;
#X connect 1 0 3 1;
#X connect 3 0 2 0;
#X connect 4 0 3 0;
#X connect 4 0 8 0;
#X connect 5 0 16 0;
#X connect 6 0 8 1;
#X connect 7 0 8 0;
#X connect 8 0 2 0;
#X connect 9 0 17 0;
#X connect 10 0 9 0;
#X connect 12 0 1 0;
#X connect 13 0 6 0;
#X connect 14 0 3 0;
#X connect 15 0 3 0;
#X connect 15 0 8 0;
#X connect 16 0 11 0;
#X connect 16 1 12 0;
#X connect 16 2 12 0;
#X connect 16 3 13 0;
#X connect 16 4 13 0;
#X connect 17 0 5 0;
#X restore 458 121 pd asn;
#X obj 230 241 outlet~;
#X connect 0 0 1 0;
#X connect 1 0 24 0;
#X connect 1 1 6 0;
#X connect 1 2 6 0;
#X connect 1 3 3 0;
#X connect 1 4 3 0;
#X connect 1 5 4 0;
#X connect 1 6 4 0;
#X connect 1 7 5 0;
#X connect 1 8 5 0;
#X connect 1 9 10 0;
#X connect 1 10 10 0;
#X connect 1 11 7 0;
#X connect 1 12 7 0;
#X connect 1 13 8 0;
#X connect 1 14 8 0;
#X connect 1 15 9 0;
#X connect 1 16 9 0;
#X connect 1 17 14 0;
#X connect 1 18 14 0;
#X connect 1 19 11 0;
#X connect 1 20 11 0;
#X connect 1 21 12 0;
#X connect 1 22 12 0;
#X connect 1 23 13 0;
#X connect 1 24 13 0;
#X connect 1 25 18 0;
#X connect 1 26 18 0;
#X connect 1 27 15 0;
#X connect 1 28 15 0;
#X connect 1 29 16 0;
#X connect 1 30 16 0;
#X connect 1 31 17 0;
#X connect 1 32 17 0;
#X connect 1 33 19 0;
#X connect 1 34 19 0;
#X connect 1 35 23 0;
#X connect 1 36 23 0;
#X connect 1 37 20 0;
#X connect 1 38 20 0;
#X connect 1 39 21 0;
#X connect 1 40 21 0;
#X connect 1 41 22 0;
#X connect 1 42 22 0;
#X connect 2 0 0 0;
#X connect 3 0 26 0;
#X connect 4 0 27 0;
#X connect 5 0 28 0;
#X connect 6 0 25 0;
#X connect 7 0 30 0;
#X connect 8 0 30 0;
#X connect 9 0 31 0;
#X connect 10 0 29 0;
#X connect 11 0 26 0;
#X connect 12 0 30 0;
#X connect 13 0 32 0;
#X connect 14 0 32 0;
#X connect 15 0 34 0;
#X connect 16 0 29 0;
#X connect 17 0 33 0;
#X connect 18 0 33 0;
#X connect 19 0 28 0;
#X connect 20 0 34 0;
#X connect 21 0 30 0;
#X connect 22 0 35 0;
#X connect 23 0 35 0;
#X connect 25 0 36 0;
#X connect 26 0 36 0;
#X connect 27 0 36 0;
#X connect 28 0 36 0;
#X connect 29 0 36 0;
#X connect 30 0 36 0;
#X connect 31 0 36 0;
#X connect 32 0 36 0;
#X connect 33 0 36 0;
#X connect 34 0 36 0;
#X connect 35 0 36 0;
#X restore 40 65 pd humanInsulinChainA;
#N canvas 0 0 1024 524 humanInsulinChainB 1;
#X obj 25 -65 hradio 15 1 0 63 empty empty empty 0 -8 0 10 -262144
-1 -1 22;
#X obj 25 -106 inlet;
#X obj 69 84 bng 15 250 50 0 empty empty empty 17 7 0 10 -262144 -1
-1;
#X obj 88 84 bng 15 250 50 0 empty empty empty 17 7 0 10 -262144 -1
-1;
#X obj 106 84 bng 15 250 50 0 empty empty empty 17 7 0 10 -262144 -1
-1;
#X obj 49 84 bng 15 250 50 0 empty empty empty 17 7 0 10 -262144 -1
-1;
#X obj 145 84 bng 15 250 50 0 empty empty empty 17 7 0 10 -262144 -1
-1;
#X obj 164 84 bng 15 250 50 0 empty empty empty 17 7 0 10 -262144 -1
-1;
#X obj 182 84 bng 15 250 50 0 empty empty empty 17 7 0 10 -262144 -1
-1;
#X obj 125 84 bng 15 250 50 0 empty empty empty 17 7 0 10 -262144 -1
-1;
#X obj 222 84 bng 15 250 50 0 empty empty empty 17 7 0 10 -262144 -1
-1;
#X obj 242 84 bng 15 250 50 0 empty empty empty 17 7 0 10 -262144 -1
-1;
#X obj 262 84 bng 15 250 50 0 empty empty empty 17 7 0 10 -262144 -1
-1;
#X obj 202 84 bng 15 250 50 0 empty empty empty 17 7 0 10 -262144 -1
-1;
#X obj 302 83 bng 15 250 50 0 empty empty empty 17 7 0 10 -262144 -1
-1;
#X obj 321 83 bng 15 250 50 0 empty empty empty 17 7 0 10 -262144 -1
-1;
#X obj 341 81 bng 15 250 50 0 empty empty empty 17 7 0 10 -262144 -1
-1;
#X obj 282 84 bng 15 250 50 0 empty empty empty 17 7 0 10 -262144 -1
-1;
#X obj 360 82 bng 15 250 50 0 empty empty empty 17 7 0 10 -262144 -1
-1;
#X obj 400 81 bng 15 250 50 0 empty empty empty 17 7 0 10 -262144 -1
-1;
#X obj 421 81 bng 15 250 50 0 empty empty empty 17 7 0 10 -262144 -1
-1;
#X obj 440 81 bng 15 250 50 0 empty empty empty 17 7 0 10 -262144 -1
-1;
#X obj 379 80 bng 15 250 50 0 empty empty empty 17 7 0 10 -262144 -1
-1;
#X obj 28 84 bng 15 250 50 0 empty empty empty 17 7 0 10 -262144 -1
-1;
#N canvas 34 120 450 300 gly 0;
#X obj -90 -11 inlet;
#X obj -39 129 tgl 15 0 empty empty empty 17 7 0 10 -262144 -1 -1 0
1;
#X obj -70 262 outlet~;
#X obj 78 154 osc~ 220;
#X obj -35 9 hradio 15 1 0 9 empty empty empty 0 -8 0 10 -262144 -1
-1 8;
#X obj -2 127 tgl 15 0 empty empty empty 17 7 0 10 -262144 -1 -1 0
1;
#X obj 34 126 tgl 15 0 empty empty empty 17 7 0 10 -262144 -1 -1 0
1;
#X obj 62 126 tgl 15 0 empty empty empty 17 7 0 10 -262144 -1 -1 0
1;
#X obj 136 153 osc~ 130.81;
#X obj 4 154 osc~ 164.81;
#X obj -114 155 osc~ 196;
#X obj 215 154 osc~ 196;
#X obj -90 34 counter;
#X obj -90 12 tgl 15 0 empty empty empty 17 7 0 10 -262144 -1 -1 0
1;
#X obj -27 94 bng 15 250 50 0 empty empty empty 17 7 0 10 -262144 -1
-1;
#X obj -1 93 bng 15 250 50 0 empty empty empty 17 7 0 10 -262144 -1
-1;
#X obj 25 93 bng 15 250 50 0 empty empty empty 17 7 0 10 -262144 -1
-1;
#X obj 49 94 bng 15 250 50 0 empty empty empty 17 7 0 10 -262144 -1
-1;
#X obj -70 222 *~ *;
#X obj -36 221 *~ *;
#X obj 2 221 *~ *;
#X obj 40 221 *~ *;
#X obj -54 154 osc~ 196;
#X obj -50 94 bng 15 250 50 0 empty empty empty 17 7 0 10 -262144 -1
-1;
#X obj -35 59 select 0 1 2 3 4 5 6 7 8 9;
#X obj -90 63 mod 9;
#X connect 0 0 13 0;
#X connect 1 0 18 1;
#X connect 3 0 20 0;
#X connect 4 0 24 0;
#X connect 5 0 19 1;
#X connect 6 0 20 1;
#X connect 7 0 21 1;
#X connect 8 0 19 0;
#X connect 9 0 18 0;
#X connect 9 0 19 0;
#X connect 10 0 18 0;
#X connect 10 0 20 0;
#X connect 10 0 21 0;
#X connect 11 0 21 0;
#X connect 12 0 25 0;
#X connect 13 0 12 0;
#X connect 14 0 1 0;
#X connect 15 0 5 0;
#X connect 16 0 6 0;
#X connect 17 0 7 0;
#X connect 18 0 2 0;
#X connect 19 0 2 0;
#X connect 20 0 2 0;
#X connect 21 0 2 0;
#X connect 22 0 18 0;
#X connect 22 0 19 0;
#X connect 22 0 20 0;
#X connect 22 0 21 0;
#X connect 24 0 23 0;
#X connect 24 1 14 0;
#X connect 24 2 14 0;
#X connect 24 3 15 0;
#X connect 24 4 15 0;
#X connect 24 5 16 0;
#X connect 24 6 16 0;
#X connect 24 7 17 0;
#X connect 24 8 17 0;
#X connect 25 0 4 0;
#X restore 67 182 pd gly;
#N canvas 522 163 450 300 ile 0;
#X obj -81 -9 inlet;
#X obj 10 115 tgl 15 0 empty empty empty 17 7 0 10 -262144 -1 -1 0
1;
#X obj -22 257 outlet~;
#X obj -22 218 *~ *;
#X obj 117 165 osc~ 220;
#X obj -23 29 hradio 15 1 0 7 empty empty empty 0 -8 0 10 -262144 -1
-1 0;
#X obj 43 114 tgl 15 0 empty empty empty 17 7 0 10 -262144 -1 -1 0
1;
#X obj 71 112 tgl 15 0 empty empty empty 17 7 0 10 -262144 -1 -1 0
1;
#X obj 41 165 osc~ 130.81;
#X obj -70 138 osc~ 164.81;
#X obj 33 218 *~ *;
#X obj 90 217 *~ *;
#X obj -34 165 osc~ 164.81;
#X obj 174 164 osc~ 220;
#X obj -81 39 counter;
#X obj -81 17 tgl 15 0 empty empty empty 17 7 0 10 -262144 -1 -1 0
1;
#X obj -19 90 bng 15 250 50 0 empty empty empty 17 7 0 10 -262144 -1
-1;
#X obj 14 89 bng 15 250 50 0 empty empty empty 17 7 0 10 -262144 -1
-1;
#X obj 42 88 bng 15 250 50 0 empty empty empty 17 7 0 10 -262144 -1
-1;
#X obj 69 87 bng 15 250 50 0 empty empty empty 17 7 0 10 -262144 -1
-1;
#X obj -81 68 mod 7;
#X obj -23 53 select 0 1 2 3 4 5 6 7;
#X connect 0 0 15 0;
#X connect 1 0 3 1;
#X connect 3 0 2 0;
#X connect 4 0 3 0;
#X connect 4 0 11 0;
#X connect 5 0 21 0;
#X connect 6 0 10 1;
#X connect 7 0 11 1;
#X connect 8 0 10 0;
#X connect 9 0 3 0;
#X connect 10 0 2 0;
#X connect 11 0 2 0;
#X connect 12 0 3 0;
#X connect 12 0 10 0;
#X connect 12 0 11 0;
#X connect 13 0 10 0;
#X connect 13 0 11 0;
#X connect 14 0 20 0;
#X connect 15 0 14 0;
#X connect 17 0 1 0;
#X connect 18 0 6 0;
#X connect 19 0 7 0;
#X connect 20 0 5 0;
#X connect 21 0 16 0;
#X connect 21 1 17 0;
#X connect 21 2 17 0;
#X connect 21 3 18 0;
#X connect 21 4 18 0;
#X connect 21 5 19 0;
#X connect 21 6 19 0;
#X restore 111 183 pd ile;
#N canvas 477 166 450 300 val 0;
#X obj -49 7 inlet;
#X obj 29 124 tgl 15 0 empty empty empty 17 7 0 10 -262144 -1 -1 0
1;
#X obj -12 267 outlet~;
#X obj -12 223 *~ *;
#X obj 9 38 hradio 15 1 0 7 empty empty empty 0 -8 0 10 -262144 -1
-1 4;
#X obj 60 124 tgl 15 0 empty empty empty 17 7 0 10 -262144 -1 -1 0
1;
#X obj 89 124 tgl 15 0 empty empty empty 17 7 0 10 -262144 -1 -1 0
1;
#X obj 51 170 osc~ 130.81;
#X obj -52 146 osc~ 164.81;
#X obj 43 223 *~ *;
#X obj 100 222 *~ *;
#X obj -24 170 osc~ 164.81;
#X obj 203 170 osc~ 220;
#X obj 127 170 osc~ 130.81;
#X obj 0 90 bng 15 250 50 0 empty empty empty 17 7 0 10 -262144 -1
-1;
#X obj 29 92 bng 15 250 50 0 empty empty empty 17 7 0 10 -262144 -1
-1;
#X obj 59 91 bng 15 250 50 0 empty empty empty 17 7 0 10 -262144 -1
-1;
#X obj -49 58 counter;
#X obj -49 36 tgl 15 0 empty empty empty 17 7 0 10 -262144 -1 -1 0
1;
#X obj 89 90 bng 15 250 50 0 empty empty empty 17 7 0 10 -262144 -1
-1;
#X obj -49 87 mod 7;
#X obj 8 62 select 0 1 2 3 4 5 6 7;
#X connect 0 0 18 0;
#X connect 1 0 3 1;
#X connect 3 0 2 0;
#X connect 4 0 21 0;
#X connect 5 0 9 1;
#X connect 6 0 10 1;
#X connect 7 0 3 0;
#X connect 7 0 9 0;
#X connect 8 0 3 0;
#X connect 9 0 2 0;
#X connect 10 0 2 0;
#X connect 11 0 3 0;
#X connect 11 0 9 0;
#X connect 11 0 10 0;
#X connect 12 0 10 0;
#X connect 13 0 9 0;
#X connect 13 0 10 0;
#X connect 15 0 1 0;
#X connect 16 0 5 0;
#X connect 17 0 20 0;
#X connect 18 0 17 0;
#X connect 19 0 6 0;
#X connect 20 0 4 0;
#X connect 21 0 14 0;
#X connect 21 1 15 0;
#X connect 21 2 15 0;
#X connect 21 3 16 0;
#X connect 21 4 16 0;
#X connect 21 5 19 0;
#X connect 21 6 19 0;
#X restore 154 183 pd val;
#N canvas 108 184 450 300 glu 0;
#X obj -90 -11 inlet;
#X obj -52 128 tgl 15 0 empty empty empty 17 7 0 10 -262144 -1 -1 0
1;
#X obj -70 262 outlet~;
#X obj 4 154 osc~ 220;
#X obj -35 11 hradio 15 1 0 5 empty empty empty 0 -8 0 10 -262144 -1
-1 4;
#X obj -15 126 tgl 15 0 empty empty empty 17 7 0 10 -262144 -1 -1 0
1;
#X obj -114 155 osc~ 196;
#X obj -90 34 counter;
#X obj -90 12 tgl 15 0 empty empty empty 17 7 0 10 -262144 -1 -1 0
1;
#X obj -50 89 bng 15 250 50 0 empty empty empty 17 7 0 10 -262144 -1
-1;
#X obj -11 90 bng 15 250 50 0 empty empty empty 17 7 0 10 -262144 -1
-1;
#X obj 28 87 bng 15 250 50 0 empty empty empty 17 7 0 10 -262144 -1
-1;
#X obj -73 216 *~ *;
#X obj -36 216 *~ *;
#X obj -54 154 osc~ 196;
#X obj 62 154 osc~ 220;
#X obj -90 63 mod 5;
#X obj -36 59 select 0 1 2 3 4 5;
#X connect 0 0 8 0;
#X connect 1 0 12 1;
#X connect 3 0 12 0;
#X connect 3 0 13 0;
#X connect 4 0 17 0;
#X connect 5 0 13 1;
#X connect 6 0 12 0;
#X connect 6 0 13 0;
#X connect 7 0 16 0;
#X connect 8 0 7 0;
#X connect 10 0 1 0;
#X connect 11 0 5 0;
#X connect 12 0 2 0;
#X connect 13 0 2 0;
#X connect 14 0 13 0;
#X connect 15 0 12 0;
#X connect 16 0 4 0;
#X connect 17 0 9 0;
#X connect 17 1 10 0;
#X connect 17 2 10 0;
#X connect 17 3 11 0;
#X connect 17 4 11 0;
#X restore 200 183 pd glu;
#N canvas 508 105 450 300 gln 0;
#X obj -81 -9 inlet;
#X obj 9 112 tgl 15 0 empty empty empty 17 7 0 10 -262144 -1 -1 0 1
;
#X obj -22 257 outlet~;
#X obj -22 218 *~ *;
#X obj 60 151 osc~ 220;
#X obj -23 29 hradio 15 1 0 5 empty empty empty 0 -8 0 10 -262144 -1
-1 4;
#X obj 38 111 tgl 15 0 empty empty empty 17 7 0 10 -262144 -1 -1 0
1;
#X obj -16 151 osc~ 130.81;
#X obj 33 218 *~ *;
#X obj 117 150 osc~ 220;
#X obj -81 39 counter;
#X obj -81 17 tgl 15 0 empty empty empty 17 7 0 10 -262144 -1 -1 0
1;
#X obj -20 83 bng 15 250 50 0 empty empty empty 17 7 0 10 -262144 -1
-1;
#X obj 8 83 bng 15 250 50 0 empty empty empty 17 7 0 10 -262144 -1
-1;
#X obj 37 83 bng 15 250 50 0 empty empty empty 17 7 0 10 -262144 -1
-1;
#X obj -75 152 osc~ 196;
#X obj -81 68 mod 5;
#X obj -23 53 select 0 1 2 3 4 5;
#X connect 0 0 11 0;
#X connect 1 0 3 1;
#X connect 3 0 2 0;
#X connect 4 0 3 0;
#X connect 4 0 8 0;
#X connect 5 0 17 0;
#X connect 6 0 8 1;
#X connect 7 0 3 0;
#X connect 7 0 8 0;
#X connect 8 0 2 0;
#X connect 9 0 3 0;
#X connect 10 0 16 0;
#X connect 11 0 10 0;
#X connect 13 0 1 0;
#X connect 14 0 6 0;
#X connect 15 0 8 0;
#X connect 16 0 5 0;
#X connect 17 0 12 0;
#X connect 17 1 13 0;
#X connect 17 2 13 0;
#X connect 17 3 14 0;
#X connect 17 4 14 0;
#X restore 243 183 pd gln;
#N canvas 6 205 450 300 cys 0;
#X obj -49 7 inlet;
#X obj 23 125 tgl 15 0 empty empty empty 17 7 0 10 -262144 -1 -1 1
1;
#X obj 2 263 outlet~;
#X obj 2 224 *~ *;
#X obj 9 38 hradio 15 1 0 5 empty empty empty 0 -8 0 10 -262144 -1
-1 1;
#X obj 50 126 tgl 15 0 empty empty empty 17 7 0 10 -262144 -1 -1 0
1;
#X obj 104 161 osc~ 130.81;
#X obj -50 163 osc~ 164.81;
#X obj 105 216 *~ *;
#X obj 29 161 osc~ 164.81;
#X obj 5 93 bng 15 250 50 0 empty empty empty 17 7 0 10 -262144 -1
-1;
#X obj 39 92 bng 15 250 50 0 empty empty empty 17 7 0 10 -262144 -1
-1;
#X obj 76 91 bng 15 250 50 0 empty empty empty 17 7 0 10 -262144 -1
-1;
#X obj -49 58 counter;
#X obj -49 36 tgl 15 0 empty empty empty 17 7 0 10 -262144 -1 -1 0
1;
#X obj 180 161 osc~ 196;
#X obj -48 87 mod 5;
#X obj 8 62 select 0 1 2 3 4 5;
#X connect 0 0 14 0;
#X connect 1 0 3 1;
#X connect 3 0 2 0;
#X connect 4 0 17 0;
#X connect 5 0 8 1;
#X connect 6 0 8 0;
#X connect 7 0 3 0;
#X connect 8 0 2 0;
#X connect 9 0 3 0;
#X connect 9 0 8 0;
#X connect 11 0 1 0;
#X connect 12 0 5 0;
#X connect 13 0 16 0;
#X connect 14 0 13 0;
#X connect 15 0 3 0;
#X connect 15 0 8 0;
#X connect 16 0 4 0;
#X connect 17 0 10 0;
#X connect 17 1 11 0;
#X connect 17 2 11 0;
#X connect 17 3 12 0;
#X connect 17 4 12 0;
#X restore 286 182 pd cys;
#N canvas 501 56 450 300 thr 0;
#X obj -80 -1 inlet;
#X obj -8 129 tgl 15 0 empty empty empty 17 7 0 10 -262144 -1 -1 1
1;
#X obj -29 272 outlet~;
#X obj 111 156 osc~ 220;
#X obj -25 21 hradio 15 1 0 9 empty empty empty 0 -8 0 10 -262144 -1
-1 1;
#X obj 29 127 tgl 15 0 empty empty empty 17 7 0 10 -262144 -1 -1 0
1;
#X obj 65 126 tgl 15 0 empty empty empty 17 7 0 10 -262144 -1 -1 0
1;
#X obj 93 126 tgl 15 0 empty empty empty 17 7 0 10 -262144 -1 -1 0
1;
#X obj 169 156 osc~ 130.81;
#X obj 37 156 osc~ 164.81;
#X obj -80 44 counter;
#X obj -80 22 tgl 15 0 empty empty empty 17 7 0 10 -262144 -1 -1 0
1;
#X obj -46 100 bng 15 250 50 0 empty empty empty 17 7 0 10 -262144
-1 -1;
#X obj -14 99 bng 15 250 50 0 empty empty empty 17 7 0 10 -262144 -1
-1;
#X obj 20 100 bng 15 250 50 0 empty empty empty 17 7 0 10 -262144 -1
-1;
#X obj 51 98 bng 15 250 50 0 empty empty empty 17 7 0 10 -262144 -1
-1;
#X obj 85 98 bng 15 250 50 0 empty empty empty 17 7 0 10 -262144 -1
-1;
#X obj -30 232 *~ *;
#X obj 4 231 *~ *;
#X obj 42 231 *~ *;
#X obj 80 231 *~ *;
#X obj -21 156 osc~ 196;
#X obj -78 156 osc~ 220;
#X obj 244 155 osc~ 130.81;
#X obj -80 73 mod 9;
#X obj -25 69 select 0 1 2 3 4 5 6 7 8 9;
#X connect 0 0 11 0;
#X connect 1 0 17 1;
#X connect 3 0 17 0;
#X connect 3 0 19 0;
#X connect 4 0 25 0;
#X connect 5 0 18 1;
#X connect 6 0 19 1;
#X connect 7 0 20 1;
#X connect 8 0 17 0;
#X connect 8 0 18 0;
#X connect 9 0 17 0;
#X connect 9 0 20 0;
#X connect 10 0 24 0;
#X connect 11 0 10 0;
#X connect 13 0 1 0;
#X connect 14 0 5 0;
#X connect 15 0 6 0;
#X connect 16 0 7 0;
#X connect 17 0 2 0;
#X connect 18 0 2 0;
#X connect 19 0 2 0;
#X connect 20 0 2 0;
#X connect 21 0 20 0;
#X connect 22 0 19 0;
#X connect 22 0 20 0;
#X connect 23 0 18 0;
#X connect 23 0 19 0;
#X connect 24 0 4 0;
#X connect 25 0 12 0;
#X connect 25 1 13 0;
#X connect 25 2 13 0;
#X connect 25 3 14 0;
#X connect 25 4 14 0;
#X connect 25 5 15 0;
#X connect 25 6 15 0;
#X connect 25 7 16 0;
#X connect 25 8 16 0;
#X restore 332 181 pd thr;
#N canvas 476 173 450 300 ser 0;
#X obj -71 1 inlet;
#X obj 19 122 tgl 15 0 empty empty empty 17 7 0 10 -262144 -1 -1 0
1;
#X obj -12 267 outlet~;
#X obj -12 228 *~ *;
#X obj 70 161 osc~ 220;
#X obj -13 39 hradio 15 1 0 5 empty empty empty 0 -8 0 10 -262144 -1
-1 4;
#X obj 48 121 tgl 15 0 empty empty empty 17 7 0 10 -262144 -1 -1 0
1;
#X obj -6 161 osc~ 130.81;
#X obj 43 228 *~ *;
#X obj -71 49 counter;
#X obj -71 27 tgl 15 0 empty empty empty 17 7 0 10 -262144 -1 -1 0
1;
#X obj -10 93 bng 15 250 50 0 empty empty empty 17 7 0 10 -262144 -1
-1;
#X obj 14 93 bng 15 250 50 0 empty empty empty 17 7 0 10 -262144 -1
-1;
#X obj 46 91 bng 15 250 50 0 empty empty empty 17 7 0 10 -262144 -1
-1;
#X obj -65 162 osc~ 196;
#X obj 127 160 osc~ 164.81;
#X obj -71 78 mod 5;
#X obj -13 63 select 0 1 2 3 4 5;
#X connect 0 0 10 0;
#X connect 1 0 3 1;
#X connect 3 0 2 0;
#X connect 4 0 3 0;
#X connect 4 0 8 0;
#X connect 5 0 17 0;
#X connect 6 0 8 1;
#X connect 7 0 8 0;
#X connect 8 0 2 0;
#X connect 9 0 16 0;
#X connect 10 0 9 0;
#X connect 12 0 1 0;
#X connect 13 0 6 0;
#X connect 14 0 3 0;
#X connect 14 0 8 0;
#X connect 15 0 3 0;
#X connect 16 0 5 0;
#X connect 17 0 11 0;
#X connect 17 1 12 0;
#X connect 17 2 12 0;
#X connect 17 3 13 0;
#X connect 17 4 13 0;
#X restore 381 182 pd ser;
#N canvas 527 136 450 300 leu 0;
#X obj -80 -1 inlet;
#X obj -29 137 tgl 15 0 empty empty empty 17 7 0 10 -262144 -1 -1 0
1;
#X obj 13 275 outlet~;
#X obj 118 163 osc~ 220;
#X obj -25 21 hradio 15 1 0 13 empty empty empty 0 -8 0 10 -262144
-1 -1 11;
#X obj 7 136 tgl 15 0 empty empty empty 17 7 0 10 -262144 -1 -1 0 1
;
#X obj 41 136 tgl 15 0 empty empty empty 17 7 0 10 -262144 -1 -1 0
1;
#X obj 74 136 tgl 15 0 empty empty empty 17 7 0 10 -262144 -1 -1 0
1;
#X obj 176 162 osc~ 130.81;
#X obj -34 163 osc~ 164.81;
#X obj -95 165 osc~ 196;
#X obj -80 44 counter;
#X obj -80 22 tgl 15 0 empty empty empty 17 7 0 10 -262144 -1 -1 0
1;
#X obj -51 101 bng 15 250 50 0 empty empty empty 17 7 0 10 -262144
-1 -1;
#X obj -29 102 bng 15 250 50 0 empty empty empty 17 7 0 10 -262144
-1 -1;
#X obj 7 102 bng 15 250 50 0 empty empty empty 17 7 0 10 -262144 -1
-1;
#X obj 41 100 bng 15 250 50 0 empty empty empty 17 7 0 10 -262144 -1
-1;
#X obj 74 101 bng 15 250 50 0 empty empty empty 17 7 0 10 -262144 -1
-1;
#X obj -62 232 *~ *;
#X obj -26 231 *~ *;
#X obj 12 231 *~ *;
#X obj 50 231 *~ *;
#X obj 106 99 bng 15 250 50 0 empty empty empty 17 7 0 10 -262144 -1
-1;
#X obj 140 99 bng 15 250 50 0 empty empty empty 17 7 0 10 -262144 -1
-1;
#X obj 106 135 tgl 15 0 empty empty empty 17 7 0 10 -262144 -1 -1 0
1;
#X obj 140 136 tgl 15 0 empty empty empty 17 7 0 10 -262144 -1 -1 1
1;
#X obj 174 186 osc~ 130.81;
#X obj 41 163 osc~ 164.81;
#X obj 90 230 *~ *;
#X obj 128 230 *~ *;
#X obj -25 69 select 0 1 2 3 4 5 6 7 8 9 10 11 12 13;
#X obj -80 73 mod 13;
#X connect 0 0 12 0;
#X connect 1 0 18 1;
#X connect 3 0 18 0;
#X connect 3 0 28 0;
#X connect 4 0 30 0;
#X connect 5 0 19 1;
#X connect 6 0 20 1;
#X connect 7 0 21 1;
#X connect 8 0 20 0;
#X connect 8 0 21 0;
#X connect 8 0 29 0;
#X connect 9 0 18 0;
#X connect 9 0 19 0;
#X connect 9 0 20 0;
#X connect 9 0 21 0;
#X connect 10 0 19 0;
#X connect 10 0 29 0;
#X connect 11 0 31 0;
#X connect 12 0 11 0;
#X connect 14 0 1 0;
#X connect 15 0 5 0;
#X connect 16 0 6 0;
#X connect 17 0 7 0;
#X connect 18 0 2 0;
#X connect 19 0 2 0;
#X connect 20 0 2 0;
#X connect 21 0 2 0;
#X connect 22 0 24 0;
#X connect 23 0 25 0;
#X connect 24 0 28 1;
#X connect 25 0 29 1;
#X connect 26 0 21 0;
#X connect 26 0 28 0;
#X connect 27 0 18 0;
#X connect 27 0 19 0;
#X connect 27 0 20 0;
#X connect 27 0 28 0;
#X connect 27 0 29 0;
#X connect 28 0 2 0;
#X connect 29 0 2 0;
#X connect 30 0 13 0;
#X connect 30 1 14 0;
#X connect 30 2 14 0;
#X connect 30 3 15 0;
#X connect 30 4 15 0;
#X connect 30 5 16 0;
#X connect 30 6 16 0;
#X connect 30 7 17 0;
#X connect 30 8 17 0;
#X connect 30 9 22 0;
#X connect 30 10 22 0;
#X connect 30 11 23 0;
#X connect 30 12 23 0;
#X connect 31 0 4 0;
#X restore 426 181 pd leu;
#N canvas 536 185 450 300 tyr 0;
#X obj -71 1 inlet;
#X obj 19 122 tgl 15 0 empty empty empty 17 7 0 10 -262144 -1 -1 0
1;
#X obj -3 267 outlet~;
#X obj -2 227 *~ *;
#X obj 86 162 osc~ 220;
#X obj -13 39 hradio 15 1 0 5 empty empty empty 0 -8 0 10 -262144 -1
-1 4;
#X obj 48 121 tgl 15 0 empty empty empty 17 7 0 10 -262144 -1 -1 0
1;
#X obj 10 162 osc~ 130.81;
#X obj 32 227 *~ *;
#X obj -71 49 counter;
#X obj -71 27 tgl 15 0 empty empty empty 17 7 0 10 -262144 -1 -1 0
1;
#X obj -10 93 bng 15 250 50 0 empty empty empty 17 7 0 10 -262144 -1
-1;
#X obj 19 92 bng 15 250 50 0 empty empty empty 17 7 0 10 -262144 -1
-1;
#X obj 48 92 bng 15 250 50 0 empty empty empty 17 7 0 10 -262144 -1
-1;
#X obj 143 161 osc~ 164.81;
#X obj -65 162 osc~ 164.81;
#X obj -71 78 mod 5;
#X obj -13 63 select 0 1 2 3 4 5;
#X connect 0 0 10 0;
#X connect 1 0 3 1;
#X connect 3 0 2 0;
#X connect 4 0 3 0;
#X connect 4 0 8 0;
#X connect 5 0 17 0;
#X connect 6 0 8 1;
#X connect 7 0 8 0;
#X connect 8 0 2 0;
#X connect 9 0 16 0;
#X connect 10 0 9 0;
#X connect 12 0 1 0;
#X connect 13 0 6 0;
#X connect 14 0 3 0;
#X connect 15 0 3 0;
#X connect 15 0 8 0;
#X connect 16 0 5 0;
#X connect 17 0 11 0;
#X connect 17 1 12 0;
#X connect 17 2 12 0;
#X connect 17 3 13 0;
#X connect 17 4 13 0;
#X restore 470 181 pd tyr;
#N canvas 473 181 450 300 asn 0;
#X obj -61 11 inlet;
#X obj 29 132 tgl 15 0 empty empty empty 17 7 0 10 -262144 -1 -1 0
1;
#X obj 7 277 outlet~;
#X obj 8 237 *~ *;
#X obj 96 172 osc~ 220;
#X obj -3 49 hradio 15 1 0 5 empty empty empty 0 -8 0 10 -262144 -1
-1 4;
#X obj 58 131 tgl 15 0 empty empty empty 17 7 0 10 -262144 -1 -1 0
1;
#X obj 20 172 osc~ 130.81;
#X obj 42 237 *~ *;
#X obj -61 59 counter;
#X obj -61 37 tgl 15 0 empty empty empty 17 7 0 10 -262144 -1 -1 0
1;
#X obj 0 103 bng 15 250 50 0 empty empty empty 17 7 0 10 -262144 -1
-1;
#X obj 28 101 bng 15 250 50 0 empty empty empty 17 7 0 10 -262144 -1
-1;
#X obj 58 101 bng 15 250 50 0 empty empty empty 17 7 0 10 -262144 -1
-1;
#X obj -55 172 osc~ 164.81;
#X obj 153 171 osc~ 220;
#X obj -3 73 select 0 1 2 3 4 5;
#X obj -61 88 mod 5;
#X connect 0 0 10 0;
#X connect 1 0 3 1;
#X connect 3 0 2 0;
#X connect 4 0 3 0;
#X connect 4 0 8 0;
#X connect 5 0 16 0;
#X connect 6 0 8 1;
#X connect 7 0 8 0;
#X connect 8 0 2 0;
#X connect 9 0 17 0;
#X connect 10 0 9 0;
#X connect 12 0 1 0;
#X connect 13 0 6 0;
#X connect 14 0 3 0;
#X connect 15 0 3 0;
#X connect 15 0 8 0;
#X connect 16 0 11 0;
#X connect 16 1 12 0;
#X connect 16 2 12 0;
#X connect 16 3 13 0;
#X connect 16 4 13 0;
#X connect 17 0 5 0;
#X restore 515 181 pd asn;
#X obj 462 79 bng 15 250 50 0 empty empty empty 17 7 0 10 -262144 -1
-1;
#X obj 503 80 bng 15 250 50 0 empty empty empty 17 7 0 10 -262144 -1
-1;
#X obj 521 82 bng 15 250 50 0 empty empty empty 17 7 0 10 -262144 -1
-1;
#X obj 542 83 bng 15 250 50 0 empty empty empty 17 7 0 10 -262144 -1
-1;
#X obj 482 79 bng 15 250 50 0 empty empty empty 17 7 0 10 -262144 -1
-1;
#X obj 561 79 bng 15 250 50 0 empty empty empty 17 7 0 10 -262144 -1
-1;
#X obj 601 78 bng 15 250 50 0 empty empty empty 17 7 0 10 -262144 -1
-1;
#X obj 622 78 bng 15 250 50 0 empty empty empty 17 7 0 10 -262144 -1
-1;
#X obj 641 78 bng 15 250 50 0 empty empty empty 17 7 0 10 -262144 -1
-1;
#X obj 580 77 bng 15 250 50 0 empty empty empty 17 7 0 10 -262144 -1
-1;
#X obj 192 -49 select 0 1 2 3 4 5 6 7 8 9 10 11 12 13 14 15 16 17 18
19 20 21 22 23 24 25 26 27 28 29 30 31 32 33 34 35 36 37 38 39 40 41
42 43 44 45 46 47 48 49 50 51 52 53 54 55 56 57 58 59 60 61 62 63;
#X obj 343 309 outlet~;
#N canvas 486 180 450 300 his 0;
#X obj -54 7 inlet;
#X obj 36 128 tgl 15 0 empty empty empty 17 7 0 10 -262144 -1 -1 0
1;
#X obj 14 273 outlet~;
#X obj 15 233 *~ *;
#X obj 103 168 osc~ 220;
#X obj 4 45 hradio 15 1 0 5 empty empty empty 0 -8 0 10 -262144 -1
-1 3;
#X obj 65 127 tgl 15 0 empty empty empty 17 7 0 10 -262144 -1 -1 1
1;
#X obj 27 168 osc~ 130.81;
#X obj 49 233 *~ *;
#X obj -54 55 counter;
#X obj -54 33 tgl 15 0 empty empty empty 17 7 0 10 -262144 -1 -1 0
1;
#X obj 7 99 bng 15 250 50 0 empty empty empty 17 7 0 10 -262144 -1
-1;
#X obj 36 98 bng 15 250 50 0 empty empty empty 17 7 0 10 -262144 -1
-1;
#X obj 65 98 bng 15 250 50 0 empty empty empty 17 7 0 10 -262144 -1
-1;
#X obj -48 168 osc~ 164.81;
#X obj -54 84 mod 5;
#X obj 4 69 select 0 1 2 3 4 5;
#X obj 159 167 osc~ 130.81;
#X connect 0 0 10 0;
#X connect 1 0 3 1;
#X connect 3 0 2 0;
#X connect 4 0 3 0;
#X connect 4 0 8 0;
#X connect 5 0 16 0;
#X connect 6 0 8 1;
#X connect 7 0 3 0;
#X connect 8 0 2 0;
#X connect 9 0 15 0;
#X connect 10 0 9 0;
#X connect 12 0 1 0;
#X connect 13 0 6 0;
#X connect 14 0 3 0;
#X connect 14 0 8 0;
#X connect 15 0 5 0;
#X connect 16 0 11 0;
#X connect 16 1 12 0;
#X connect 16 2 12 0;
#X connect 16 3 13 0;
#X connect 16 4 13 0;
#X connect 17 0 8 0;
#X restore 560 181 pd his;
#N canvas 251 181 450 300 ala 0;
#X obj -48 8 inlet;
#X obj 42 129 tgl 15 0 empty empty empty 17 7 0 10 -262144 -1 -1 0
1;
#X obj 74 277 outlet~;
#X obj 29 238 *~ *;
#X obj 109 169 osc~ 220;
#X obj 17 44 hradio 15 1 0 9 empty empty empty 0 -8 0 10 -262144 -1
-1 5;
#X obj 71 128 tgl 15 0 empty empty empty 17 7 0 10 -262144 -1 -1 0
1;
#X obj 33 169 osc~ 130.81;
#X obj 63 238 *~ *;
#X obj -48 56 counter;
#X obj -48 34 tgl 15 0 empty empty empty 17 7 0 10 -262144 -1 -1 0
1;
#X obj 13 100 bng 15 250 50 0 empty empty empty 17 7 0 10 -262144 -1
-1;
#X obj 42 99 bng 15 250 50 0 empty empty empty 17 7 0 10 -262144 -1
-1;
#X obj 71 99 bng 15 250 50 0 empty empty empty 17 7 0 10 -262144 -1
-1;
#X obj 166 168 osc~ 164.81;
#X obj 95 129 tgl 15 0 empty empty empty 17 7 0 10 -262144 -1 -1 1
1;
#X obj 124 128 tgl 15 0 empty empty empty 17 7 0 10 -262144 -1 -1 0
1;
#X obj 100 239 *~ *;
#X obj 134 239 *~ *;
#X obj 95 98 bng 15 250 50 0 empty empty empty 17 7 0 10 -262144 -1
-1;
#X obj 124 98 bng 15 250 50 0 empty empty empty 17 7 0 10 -262144 -1
-1;
#X obj 10 70 select 0 1 2 3 4 5 6 7 8 9;
#X obj -49 85 mod 9;
#X obj 243 168 osc~ 196;
#X obj 244 194 osc~ 196;
#X obj -42 169 osc~ 130.81;
#X connect 0 0 10 0;
#X connect 1 0 3 1;
#X connect 3 0 2 0;
#X connect 4 0 17 0;
#X connect 5 0 21 0;
#X connect 6 0 8 1;
#X connect 7 0 8 0;
#X connect 7 0 17 0;
#X connect 8 0 2 0;
#X connect 9 0 22 0;
#X connect 10 0 9 0;
#X connect 12 0 1 0;
#X connect 13 0 6 0;
#X connect 14 0 3 0;
#X connect 15 0 17 1;
#X connect 16 0 18 1;
#X connect 17 0 2 0;
#X connect 18 0 2 0;
#X connect 19 0 15 0;
#X connect 20 0 16 0;
#X connect 21 0 11 0;
#X connect 21 1 12 0;
#X connect 21 2 12 0;
#X connect 21 3 13 0;
#X connect 21 4 13 0;
#X connect 21 5 19 0;
#X connect 21 6 19 0;
#X connect 21 7 20 0;
#X connect 21 8 20 0;
#X connect 22 0 5 0;
#X connect 23 0 3 0;
#X connect 23 0 17 0;
#X connect 23 0 18 0;
#X connect 24 0 8 0;
#X connect 24 0 18 0;
#X connect 25 0 3 0;
#X connect 25 0 8 0;
#X connect 25 0 18 0;
#X restore 607 181 pd ala;
#N canvas 487 168 450 300 phe 1;
#X obj -37 8 inlet;
#X obj 53 129 tgl 15 0 empty empty empty 17 7 0 10 -262144 -1 -1 0
1;
#X obj 31 274 outlet~;
#X obj 22 222 *~ *;
#X obj 21 46 hradio 15 1 0 5 empty empty empty 0 -8 0 10 -262144 -1
-1 3;
#X obj 82 128 tgl 15 0 empty empty empty 17 7 0 10 -262144 -1 -1 1
1;
#X obj 42 161 osc~ 130.81;
#X obj 85 220 *~ *;
#X obj -37 56 counter;
#X obj -37 34 tgl 15 0 empty empty empty 17 7 0 10 -262144 -1 -1 0
1;
#X obj 24 100 bng 15 250 50 0 empty empty empty 17 7 0 10 -262144 -1
-1;
#X obj 53 99 bng 15 250 50 0 empty empty empty 17 7 0 10 -262144 -1
-1;
#X obj 82 99 bng 15 250 50 0 empty empty empty 17 7 0 10 -262144 -1
-1;
#X obj 212 161 osc~ 164.81;
#X obj -33 161 osc~ 164.81;
#X obj -37 85 mod 5;
#X obj 21 70 select 0 1 2 3 4 5;
#X obj 118 161 osc~ 164.81;
#X connect 0 0 9 0;
#X connect 1 0 3 1;
#X connect 3 0 2 0;
#X connect 4 0 16 0;
#X connect 5 0 7 1;
#X connect 6 0 7 0;
#X connect 7 0 2 0;
#X connect 8 0 15 0;
#X connect 9 0 8 0;
#X connect 11 0 1 0;
#X connect 12 0 5 0;
#X connect 13 0 3 0;
#X connect 14 0 3 0;
#X connect 14 0 7 0;
#X connect 15 0 4 0;
#X connect 16 0 10 0;
#X connect 16 1 11 0;
#X connect 16 2 11 0;
#X connect 16 3 12 0;
#X connect 16 4 12 0;
#X connect 17 0 3 0;
#X connect 17 0 7 0;
#X restore 22 182 pd phe;
#N canvas 247 178 450 300 arg 0;
#X obj -40 8 inlet;
#X obj 50 129 tgl 15 0 empty empty empty 17 7 0 10 -262144 -1 -1 0
1;
#X obj 28 274 outlet~;
#X obj 29 234 *~ *;
#X obj 101 169 osc~ 220;
#X obj 18 46 hradio 15 1 0 5 empty empty empty 0 -8 0 10 -262144 -1
-1 2;
#X obj 79 128 tgl 15 0 empty empty empty 17 7 0 10 -262144 -1 -1 0
1;
#X obj 63 234 *~ *;
#X obj -40 56 counter;
#X obj -40 34 tgl 15 0 empty empty empty 17 7 0 10 -262144 -1 -1 0
1;
#X obj 21 100 bng 15 250 50 0 empty empty empty 17 7 0 10 -262144 -1
-1;
#X obj 50 99 bng 15 250 50 0 empty empty empty 17 7 0 10 -262144 -1
-1;
#X obj 79 99 bng 15 250 50 0 empty empty empty 17 7 0 10 -262144 -1
-1;
#X obj -40 85 mod 5;
#X obj 18 70 select 0 1 2 3 4 5;
#X obj 160 169 osc~ 220;
#X obj -17 169 osc~ 196;
#X obj 41 169 osc~ 196;
#X connect 0 0 9 0;
#X connect 1 0 3 1;
#X connect 3 0 2 0;
#X connect 4 0 3 0;
#X connect 5 0 14 0;
#X connect 6 0 7 1;
#X connect 7 0 2 0;
#X connect 8 0 13 0;
#X connect 9 0 8 0;
#X connect 11 0 1 0;
#X connect 12 0 6 0;
#X connect 13 0 5 0;
#X connect 14 0 10 0;
#X connect 14 1 11 0;
#X connect 14 2 11 0;
#X connect 14 3 12 0;
#X connect 14 4 12 0;
#X connect 15 0 3 0;
#X connect 15 0 7 0;
#X connect 16 0 3 0;
#X connect 16 0 7 0;
#X connect 17 0 7 0;
#X restore 653 182 pd arg;
#N canvas 377 157 450 300 pro 0;
#X obj -38 7 inlet;
#X obj 52 128 tgl 15 0 empty empty empty 17 7 0 10 -262144 -1 -1 0
1;
#X obj 84 276 outlet~;
#X obj 39 237 *~ *;
#X obj 119 168 osc~ 220;
#X obj 27 43 hradio 15 1 0 9 empty empty empty 0 -8 0 10 -262144 -1
-1 5;
#X obj 81 127 tgl 15 0 empty empty empty 17 7 0 10 -262144 -1 -1 0
1;
#X obj 43 168 osc~ 130.81;
#X obj 73 237 *~ *;
#X obj -38 55 counter;
#X obj -38 33 tgl 15 0 empty empty empty 17 7 0 10 -262144 -1 -1 0
1;
#X obj 23 99 bng 15 250 50 0 empty empty empty 17 7 0 10 -262144 -1
-1;
#X obj 52 98 bng 15 250 50 0 empty empty empty 17 7 0 10 -262144 -1
-1;
#X obj 81 98 bng 15 250 50 0 empty empty empty 17 7 0 10 -262144 -1
-1;
#X obj 176 167 osc~ 164.81;
#X obj 105 128 tgl 15 0 empty empty empty 17 7 0 10 -262144 -1 -1 1
1;
#X obj 134 127 tgl 15 0 empty empty empty 17 7 0 10 -262144 -1 -1 0
1;
#X obj 110 238 *~ *;
#X obj 144 238 *~ *;
#X obj 105 97 bng 15 250 50 0 empty empty empty 17 7 0 10 -262144 -1
-1;
#X obj 134 97 bng 15 250 50 0 empty empty empty 17 7 0 10 -262144 -1
-1;
#X obj 20 69 select 0 1 2 3 4 5 6 7 8 9;
#X obj -39 84 mod 9;
#X obj 253 167 osc~ 196;
#X obj -32 168 osc~ 130.81;
#X obj 254 193 osc~ 130.81;
#X connect 0 0 10 0;
#X connect 1 0 3 1;
#X connect 3 0 2 0;
#X connect 4 0 17 0;
#X connect 5 0 21 0;
#X connect 6 0 8 1;
#X connect 7 0 3 0;
#X connect 7 0 8 0;
#X connect 7 0 17 0;
#X connect 7 0 18 0;
#X connect 8 0 2 0;
#X connect 9 0 22 0;
#X connect 10 0 9 0;
#X connect 12 0 1 0;
#X connect 13 0 6 0;
#X connect 14 0 3 0;
#X connect 15 0 17 1;
#X connect 16 0 18 1;
#X connect 17 0 2 0;
#X connect 18 0 2 0;
#X connect 19 0 15 0;
#X connect 20 0 16 0;
#X connect 21 0 11 0;
#X connect 21 1 12 0;
#X connect 21 2 12 0;
#X connect 21 3 13 0;
#X connect 21 4 13 0;
#X connect 21 5 19 0;
#X connect 21 6 19 0;
#X connect 21 7 20 0;
#X connect 21 8 20 0;
#X connect 22 0 5 0;
#X connect 23 0 18 0;
#X connect 24 0 3 0;
#X connect 24 0 8 0;
#X connect 24 0 17 0;
#X connect 24 0 18 0;
#X connect 25 0 8 0;
#X restore 701 181 pd pro;
#N canvas 398 147 450 300 lys 0;
#X obj -44 17 inlet;
#X obj 46 138 tgl 15 0 empty empty empty 17 7 0 10 -262144 -1 -1 0
1;
#X obj 24 283 outlet~;
#X obj 25 243 *~ *;
#X obj 113 178 osc~ 220;
#X obj 14 55 hradio 15 1 0 5 empty empty empty 0 -8 0 10 -262144 -1
-1 2;
#X obj 75 137 tgl 15 0 empty empty empty 17 7 0 10 -262144 -1 -1 0
1;
#X obj 59 243 *~ *;
#X obj -44 65 counter;
#X obj -44 43 tgl 15 0 empty empty empty 17 7 0 10 -262144 -1 -1 0
1;
#X obj 17 109 bng 15 250 50 0 empty empty empty 17 7 0 10 -262144 -1
-1;
#X obj 46 108 bng 15 250 50 0 empty empty empty 17 7 0 10 -262144 -1
-1;
#X obj 75 108 bng 15 250 50 0 empty empty empty 17 7 0 10 -262144 -1
-1;
#X obj -44 94 mod 5;
#X obj 14 79 select 0 1 2 3 4 5;
#X obj 169 177 osc~ 220;
#X obj 56 179 osc~ 220;
#X obj -9 179 osc~ 196;
#X connect 0 0 9 0;
#X connect 1 0 3 1;
#X connect 3 0 2 0;
#X connect 4 0 3 0;
#X connect 4 0 7 0;
#X connect 5 0 14 0;
#X connect 6 0 7 1;
#X connect 7 0 2 0;
#X connect 8 0 13 0;
#X connect 9 0 8 0;
#X connect 11 0 1 0;
#X connect 12 0 6 0;
#X connect 13 0 5 0;
#X connect 14 0 10 0;
#X connect 14 1 11 0;
#X connect 14 2 11 0;
#X connect 14 3 12 0;
#X connect 14 4 12 0;
#X connect 15 0 3 0;
#X connect 16 0 3 0;
#X connect 16 0 7 0;
#X connect 17 0 7 0;
#X restore 746 183 pd lys;
#X connect 0 0 45 0;
#X connect 1 0 0 0;
#X connect 2 0 26 0;
#X connect 3 0 34 0;
#X connect 4 0 28 0;
#X connect 5 0 49 0;
#X connect 6 0 32 0;
#X connect 7 0 29 0;
#X connect 8 0 24 0;
#X connect 9 0 47 0;
#X connect 10 0 47 0;
#X connect 11 0 32 0;
#X connect 12 0 26 0;
#X connect 13 0 31 0;
#X connect 14 0 48 0;
#X connect 16 0 32 0;
#X connect 17 0 27 0;
#X connect 18 0 33 0;
#X connect 19 0 26 0;
#X connect 20 0 29 0;
#X connect 21 0 24 0;
#X connect 22 0 32 0;
#X connect 24 0 46 0;
#X connect 25 0 46 0;
#X connect 26 0 46 0;
#X connect 27 0 46 0;
#X connect 28 0 46 0;
#X connect 29 0 46 0;
#X connect 30 0 46 0;
#X connect 31 0 46 0;
#X connect 32 0 46 0;
#X connect 33 0 46 0;
#X connect 34 0 46 0;
#X connect 35 0 27 0;
#X connect 36 0 24 0;
#X connect 37 0 49 0;
#X connect 38 0 49 0;
#X connect 39 0 50 0;
#X connect 40 0 33 0;
#X connect 41 0 51 0;
#X connect 42 0 52 0;
#X connect 43 0 30 0;
#X connect 44 0 30 0;
#X connect 45 0 23 0;
#X connect 45 1 5 0;
#X connect 45 2 5 0;
#X connect 45 3 2 0;
#X connect 45 4 2 0;
#X connect 45 5 3 0;
#X connect 45 6 3 0;
#X connect 45 7 4 0;
#X connect 45 8 4 0;
#X connect 45 9 9 0;
#X connect 45 10 9 0;
#X connect 45 11 6 0;
#X connect 45 12 6 0;
#X connect 45 13 7 0;
#X connect 45 14 7 0;
#X connect 45 15 8 0;
#X connect 45 16 8 0;
#X connect 45 17 13 0;
#X connect 45 18 13 0;
#X connect 45 19 10 0;
#X connect 45 20 10 0;
#X connect 45 21 11 0;
#X connect 45 22 11 0;
#X connect 45 23 12 0;
#X connect 45 24 12 0;
#X connect 45 25 17 0;
#X connect 45 26 17 0;
#X connect 45 27 14 0;
#X connect 45 28 14 0;
#X connect 45 29 15 0;
#X connect 45 30 15 0;
#X connect 45 31 16 0;
#X connect 45 32 16 0;
#X connect 45 33 18 0;
#X connect 45 34 18 0;
#X connect 45 35 22 0;
#X connect 45 36 22 0;
#X connect 45 37 19 0;
#X connect 45 38 19 0;
#X connect 45 39 20 0;
#X connect 45 40 20 0;
#X connect 45 41 21 0;
#X connect 45 42 21 0;
#X connect 45 43 35 0;
#X connect 45 44 35 0;
#X connect 45 45 39 0;
#X connect 45 46 39 0;
#X connect 45 47 36 0;
#X connect 45 48 36 0;
#X connect 45 49 37 0;
#X connect 45 50 37 0;
#X connect 45 51 38 0;
#X connect 45 52 38 0;
#X connect 45 53 40 0;
#X connect 45 54 40 0;
#X connect 45 55 44 0;
#X connect 45 56 44 0;
#X connect 45 57 41 0;
#X connect 45 58 41 0;
#X connect 45 59 42 0;
#X connect 45 60 42 0;
#X connect 45 61 43 0;
#X connect 45 62 43 0;
#X connect 47 0 46 0;
#X connect 48 0 46 0;
#X connect 49 0 46 0;
#X connect 50 0 46 0;
#X connect 51 0 46 0;
#X connect 52 0 46 0;
#X restore 199 59 pd humanInsulinChainB;
#X obj 196 25 mod 63;
#X obj 141 -95 hsl 128 15 500 100 0 0 empty empty empty -2 -8 0 10
-262144 -1 -1 11900 1;
#X floatatom 288 -80 5 0 0 0 - - -;
#X obj 123 186 dac~ 1 2;
#X obj 215 83 hsl 128 15 0 0.01 0 0 empty empty empty -2 -8 0 10 -262144
-1 -1 9800 1;
#X obj 194 111 sig~;
#X floatatom 227 111 5 0 0 0 - - -;
#X obj 144 127 *~;
#X obj 191 184 tabwrite~ array1;
#N canvas 0 0 450 300 (subpatch) 0;
#X array array1 100 float 3;
#A 0 -0.124897 -0.126156 -0.127341 -0.128451 -0.129487 -0.130445 -0.131326
-0.132129 -0.132851 -0.133494 -0.134055 -0.134536 -0.134932 -0.135246
-0.135476 -0.135622 -0.135682 -0.135659 -0.135549 -0.135355 -0.135073
-0.134707 -0.134253 -0.133715 -0.133088 -0.132378 -0.131581 -0.130698
-0.12973 -0.128678 -0.127541 -0.12632 -0.125017 -0.12363 -0.122161
-0.12061 -0.11898 -0.117269 -0.11548 -0.113614 -0.111671 -0.109652
-0.107559 -0.105393 -0.103155 -0.100846 -0.0984685 -0.0960229 -0.093512
-0.090935 -0.0882968 -0.0855962 -0.0828363 -0.0800179 -0.0771444 -0.0742162
-0.0712354 -0.0682045 -0.0651252 -0.0619995 -0.0588288 -0.0556168 -0.0523641
-0.0490734 -0.0457465 -0.0423867 -0.038995 -0.0355742 -0.0321266 -0.0286548
-0.0251602 -0.0216463 -0.0181148 -0.0145688 -0.0110094 -0.00744034
-0.00386322 -0.000281032 0.00330452 0.00689009 0.0104739 0.0140532
0.0176255 0.0211881 0.0247389 0.0282754 0.0317952 0.0352958 0.038775
0.0422301 0.0456589 0.0490591 0.0524281 0.0557638 0.0590635 0.0623252
0.0655463 0.0687253 0.0718597 0.074947;
#X coords 0 1 100 -1 200 140 1;
#X restore 350 -86 graph;
#X obj 213 153 bng 15 250 50 0 empty empty empty 17 7 0 10 -262144
-1 -1;
#X connect 0 0 5 0;
#X connect 1 0 8 0;
#X connect 4 0 6 0;
#X connect 5 0 4 0;
#X connect 6 0 9 0;
#X connect 7 0 11 0;
#X connect 8 0 7 0;
#X connect 9 0 18 0;
#X connect 10 0 18 0;
#X connect 11 0 10 0;
#X connect 12 0 13 0;
#X connect 12 0 8 1;
#X connect 12 0 5 1;
#X connect 15 0 16 0;
#X connect 15 0 17 0;
#X connect 16 0 18 1;
#X connect 18 0 14 0;
#X connect 18 0 14 1;
#X connect 18 0 19 0;
#X connect 21 0 19 0;
