#N canvas 251 77 686 401 10;
#X obj 19 -6 knob 31 31 177 50 0 0 tBs2 tBsSy empty 0 -8 0 8 -262144
-1 -1 3000 1;
#X text 464 0 Attk;
#X obj 468 22 knob 30 30 0 300 0 0 empty empty empty 0 -8 0 8 -262144
-1 -1 1600 1;
#X text 507 -1 Decay;
#X obj 511 22 knob 30 30 0 3000 0 0 empty empty empty 0 -8 0 8 -262144
-1 -1 0 1;
#X text 432 -27 WAVE TYPE;
#X obj 553 22 knob 30 30 0 7000 0 0 empty empty empty 0 -8 0 8 -262144
-1 -1 0 1;
#X obj 595 22 knob 30 30 0 3000 0 0 empty empty empty 0 -8 0 8 -262144
-1 -1 200 1;
#X text 592 0 Freq;
#X text 549 0 Range;
#X obj 122 9 tgl 15 0 wsn1_2 empty empty 17 7 0 10 -262144 -1 -1 1
1;
#X obj 144 9 tgl 15 0 wsw1_2 empty empty 17 7 0 10 -262144 -1 -1 0
1;
#X obj 167 9 tgl 15 0 wtr1_2 empty empty 17 7 0 10 -262144 -1 -1 0
1;
#X obj 190 9 tgl 15 0 wsq1_2 empty empty 17 7 0 10 -262144 -1 -1 1
1;
#X text 119 -8 Sin;
#X text 167 -8 Tri;
#X text 141 -9 Saw;
#X text 188 -9 Sqr;
#X text 121 -27 WAVE FORM;
#X text 423 95 VCO;
#X text 553 94 LFO;
#X obj 595 138 knob 30 30 0 10 0 0 empty empty empty 0 -8 0 8 -262144
-1 -1 1500 1;
#X obj 557 138 knob 30 30 0 127 0 0 empty empty empty 0 -8 0 8 -262144
-1 -1 1500 1;
#X obj 427 138 knob 30 30 0 127 0 0 empty empty empty 0 -8 0 8 -262144
-1 -1 0 1;
#X obj 501 138 knob 30 30 0 127 0 0 empty empty empty 0 -8 0 8 -262144
-1 -1 0 1;
#X obj 464 138 knob 30 30 0 127 0 0 empty empty empty 0 -8 0 8 -262144
-1 -1 0 1;
#X text 424 107 Pitch;
#X text 424 119 1;
#X text 464 117 2;
#X text 500 116 3;
#X text 554 116 Rate;
#X obj 566 256 knob 32 32 0 0.8 0 0 empty empty empty 0 -8 0 8 -262144
-1 -1 3100 1;
#X text 563 235 VOL;
#N canvas 204 181 250 202 set_tempo 1;
#X obj 40 67 ../tempo;
#X obj 40 85 hradio 10 1 0 16 empty empty empty 0 -8 0 10 -262144 -1
-1 7;
#X obj 40 132 outlet;
#X obj 22 21 inlet;
#X obj 72 21 inlet;
#X obj 121 21 inlet;
#X connect 0 0 1 0;
#X connect 1 0 2 0;
#X connect 3 0 0 0;
#X connect 4 0 0 1;
#X connect 5 0 0 2;
#X restore -8 71 pd set_tempo;
#X obj 426 216 setWaveformDynamics;
#N canvas 0 0 450 300 (subpatch) 0;
#X array mel04 16 float 3;
#A 0 -0.175001 -0.325002 -0.525002 -0.700002 -0.525002 -0.275001 -0.425002
-0.700002 -0.475002 -0.275001 -0.450002 -0.725002 -0.500002 -0.425002
-0.300002 -0.175001;
#X coords 0 1 16 -1 140 80 1 0 0;
#X restore 119 93 graph;
#N canvas 0 0 450 300 (subpatch) 0;
#X array mel05 16 float 3;
#A 0 -0.575004 -0.425004 -0.200004 -0.250004 -0.575004 -0.375004 -0.100004
-0.300004 -0.475004 -0.600004 -0.450004 -0.200004 -0.250004 -0.550004
-0.325004 -0.225004;
#X coords 0 1 16 -1 140 80 1 0 0;
#X restore 261 93 graph;
#X obj 19 31 tgl 15 0 oBs2 empty empty 17 7 0 10 -262144 -1 -1 1 1
;
#X obj 35 31 hradio 15 1 0 4 sBs2 empty empty 0 -8 0 10 -262144 -1
-1 0;
#X text 14 -26 TEMPO;
#X obj 9 235 melodyShaper;
#X obj 501 171 pulseWidthMix;
#X obj 425 55 wavAttDecFM;
#X floatatom 64 9 5 0 0 0 - tBs2 -;
#X obj 217 9 tgl 15 0 wsn2_2 empty empty 17 7 0 10 -262144 -1 -1 1
1;
#X obj 239 9 tgl 15 0 wsw2_2 empty empty 17 7 0 10 -262144 -1 -1 1
1;
#X obj 262 9 tgl 15 0 wtr2_2 empty empty 17 7 0 10 -262144 -1 -1 0
1;
#X obj 285 9 tgl 15 0 wsq2_2 empty empty 17 7 0 10 -262144 -1 -1 1
1;
#X text 214 -8 Sin;
#X text 262 -8 Tri;
#X text 236 -9 Saw;
#X text 283 -9 Sqr;
#X obj 312 9 tgl 15 0 wsn3_2 empty empty 17 7 0 10 -262144 -1 -1 1
1;
#X obj 334 9 tgl 15 0 wsw3_2 empty empty 17 7 0 10 -262144 -1 -1 0
1;
#X obj 357 9 tgl 15 0 wtr3_2 empty empty 17 7 0 10 -262144 -1 -1 0
1;
#X obj 380 9 tgl 15 0 wsq3_2 empty empty 17 7 0 10 -262144 -1 -1 1
1;
#X text 309 -8 Sin;
#X text 357 -8 Tri;
#X text 331 -9 Saw;
#X text 378 -9 Sqr;
#X obj 123 44 tgl 15 0 wsn4_2 empty empty 17 7 0 10 -262144 -1 -1 1
1;
#X obj 145 44 tgl 15 0 wsw4_2 empty empty 17 7 0 10 -262144 -1 -1 1
1;
#X obj 168 44 tgl 15 0 wtr4_2 empty empty 17 7 0 10 -262144 -1 -1 0
1;
#X obj 191 44 tgl 15 0 wsq4_2 empty empty 17 7 0 10 -262144 -1 -1 1
1;
#X text 120 27 Sin;
#X text 168 27 Tri;
#X text 142 26 Saw;
#X text 189 26 Sqr;
#X obj 425 291 setBassMix;
#X obj 308 58 tgl 15 0 siMldy2 empty empty 17 7 0 10 -262144 -1 -1
1 1;
#X obj 330 58 tgl 15 0 saMldy2 empty empty 17 7 0 10 -262144 -1 -1
1 1;
#X obj 353 58 tgl 15 0 trMldy2 empty empty 17 7 0 10 -262144 -1 -1
0 1;
#X obj 376 58 tgl 15 0 sqMldy2 empty empty 17 7 0 10 -262144 -1 -1
1 1;
#X text 305 41 Sin;
#X text 349 40 Tri;
#X text 327 40 Saw;
#X text 374 40 Sqr;
#X text 305 29 Melody;
#N canvas 0 0 450 300 (subpatch) 0;
#X array mel06 16 float 3;
#A 0 -0.424989 -0.32499 -0.174991 -0.124991 -0.24999 -0.374989 -0.27499
-0.124991 7.90134e-006 0.0250077 -0.174991 -0.374989 -0.32499 -0.124991
-0.0249919 -0.32499;
#X coords 0 1 16 -1 140 80 1 0 0;
#X restore 260 193 graph;
#X obj -8 54 r oBs2;
#X obj 33 54 r tBs2;
#X obj 73 54 r sBs2;
#X obj -8 88 s seqr2;
#X obj 9 200 r seqr2;
#X obj 92 201 r seqr2;
#X obj 175 201 r seqr2;
#X obj 9 252 s mldy2;
#X obj 425 20 r seqr2;
#X obj 425 73 s adFM2;
#X obj 501 189 s~ pw2;
#X obj 426 198 r seqr2;
#X obj 439 234 r mldy2;
#X obj 454 252 r~ pw2;
#X obj 467 271 r adFM2;
#X obj 425 309 s~ basSND2;
#X obj 9 217 tabread mel04;
#X obj 92 218 tabread mel05;
#X obj 175 218 tabread mel06;
#X connect 2 0 42 1;
#X connect 4 0 42 2;
#X connect 6 0 42 3;
#X connect 7 0 42 4;
#X connect 21 0 41 4;
#X connect 22 0 41 3;
#X connect 23 0 41 0;
#X connect 24 0 41 2;
#X connect 25 0 41 1;
#X connect 31 0 68 4;
#X connect 33 0 82 0;
#X connect 34 0 68 0;
#X connect 40 0 86 0;
#X connect 41 0 89 0;
#X connect 42 0 88 0;
#X connect 68 0 94 0;
#X connect 79 0 33 0;
#X connect 80 0 33 1;
#X connect 81 0 33 2;
#X connect 83 0 95 0;
#X connect 84 0 96 0;
#X connect 85 0 97 0;
#X connect 87 0 42 0;
#X connect 90 0 34 0;
#X connect 91 0 68 1;
#X connect 92 0 68 2;
#X connect 93 0 68 3;
#X connect 95 0 40 0;
#X connect 96 0 40 1;
#X connect 97 0 40 2;
