#N canvas 0 0 450 300 10;
#X obj 37 39 inlet;
#X obj 86 39 inlet;
#X obj 125 39 inlet;
#X obj 37 205 +~;
#X floatatom 206 78 5 0 0 0 - - -;
#X floatatom 44 139 5 0 0 0 - - -;
#X obj 207 40 inlet;
#N canvas 194 167 450 300 pulseWidthOsc 0;
#X obj 146 189 -~ 0.5;
#X obj 245 190 -~ 0.5;
#X obj 231 227 +~;
#X obj 227 19 inlet fatness;
#X obj 145 19 inlet pitch;
#X obj 244 117 +;
#X obj 145 115 -;
#X obj 145 153 phasor~ 55;
#X obj 244 151 phasor~ 55;
#X obj 227 78 t b b f f;
#X obj 231 264 outlet~;
#X obj 315 20 inlet;
#X obj 227 49 * 1;
#X connect 0 0 2 0;
#X connect 1 0 2 1;
#X connect 2 0 10 0;
#X connect 3 0 12 0;
#X connect 4 0 6 0;
#X connect 4 0 5 0;
#X connect 5 0 8 0;
#X connect 6 0 7 0;
#X connect 7 0 0 0;
#X connect 8 0 1 0;
#X connect 9 0 6 0;
#X connect 9 1 5 0;
#X connect 9 2 6 1;
#X connect 9 3 5 1;
#X connect 11 0 12 1;
#X connect 12 0 9 0;
#X restore 36 180 pd pulseWidthOsc;
#X obj 86 92 +;
#X obj 36 248 outlet~;
#X obj 249 41 inlet;
#X floatatom 249 79 5 0 0 0 - - -;
#X obj 36 113 +;
#X floatatom 102 125 5 0 0 0 - - -;
#X obj 125 72 +;
#X floatatom 144 106 5 0 0 0 - - -;
#X connect 0 0 14 0;
#X connect 1 0 8 0;
#X connect 2 0 12 0;
#X connect 3 0 9 0;
#X connect 6 0 4 0;
#X connect 6 0 7 1;
#X connect 7 0 3 0;
#X connect 8 0 13 0;
#X connect 8 0 12 1;
#X connect 8 0 7 0;
#X connect 10 0 7 2;
#X connect 10 0 11 0;
#X connect 12 0 5 0;
#X connect 12 0 7 0;
#X connect 14 0 15 0;
#X connect 14 0 8 1;
#X connect 14 0 7 0;
