#N canvas 25 32 651 360 10;
#X obj 15 204 f;
#X obj 40 203 f;
#X obj 66 203 f;
#X obj 93 203 f;
#X obj 118 202 f;
#X obj 144 202 f;
#X obj 170 203 f;
#X obj 195 202 f;
#X obj 221 202 f;
#X obj 248 202 f;
#X obj 273 201 f;
#X obj 299 201 f;
#X obj 325 202 f;
#X obj 352 202 f;
#X obj 378 202 f;
#X obj 14 71 select 0 1 2 3 4 5 6 7 8 9 10 11 12 13 14 15;
#X obj 406 202 f;
#X obj 14 23 inlet;
#X floatatom 28 48 5 0 0 0 - - -;
#X obj 182 288 mtof;
#X floatatom 115 305 5 0 0 0 - - -;
#X obj 182 325 outlet;
#X obj 302 10 vsl 20 80 0 1 0 0 empty empty empty 0 -9 0 10 -262144
-1 -1 0 1;
#X obj 323 10 vsl 20 80 0 1 0 0 empty empty empty 0 -9 0 10 -262144
-1 -1 0 1;
#X obj 344 10 vsl 20 80 0 1 0 0 empty empty empty 0 -9 0 10 -262144
-1 -1 0 1;
#X obj 365 10 vsl 20 80 0 1 0 0 empty empty empty 0 -9 0 10 -262144
-1 -1 0 1;
#X obj 386 10 vsl 20 80 0 1 0 0 empty empty empty 0 -9 0 10 -262144
-1 -1 0 1;
#X obj 407 10 vsl 20 80 0 1 0 0 empty empty empty 0 -9 0 10 -262144
-1 -1 0 1;
#X obj 428 10 vsl 20 80 0 1 0 0 empty empty empty 0 -9 0 10 -262144
-1 -1 0 1;
#X obj 449 10 vsl 20 80 0 1 0 0 empty empty empty 0 -9 0 10 -262144
-1 -1 0 1;
#X obj 470 10 vsl 20 80 0 1 0 0 empty empty empty 0 -9 0 10 -262144
-1 -1 0 1;
#X obj 491 10 vsl 20 80 0 1 0 0 empty empty empty 0 -9 0 10 -262144
-1 -1 0 1;
#X obj 512 10 vsl 20 80 0 1 0 0 empty empty empty 0 -9 0 10 -262144
-1 -1 0 1;
#X obj 533 10 vsl 20 80 0 1 0 0 empty empty empty 0 -9 0 10 -262144
-1 -1 0 1;
#X obj 554 10 vsl 20 80 0 1 0 0 empty empty empty 0 -9 0 10 -262144
-1 -1 0 1;
#X obj 575 10 vsl 20 80 0 1 0 0 empty empty empty 0 -9 0 10 -262144
-1 -1 0 1;
#X obj 596 10 vsl 20 80 0 1 0 0 empty empty empty 0 -9 0 10 -262144
-1 -1 0 1;
#X obj 617 10 vsl 20 80 0 1 0 0 empty empty empty 0 -9 0 10 -262144
-1 -1 0 1;
#X connect 0 0 19 0;
#X connect 1 0 19 0;
#X connect 2 0 19 0;
#X connect 3 0 19 0;
#X connect 4 0 19 0;
#X connect 5 0 19 0;
#X connect 6 0 19 0;
#X connect 7 0 19 0;
#X connect 8 0 19 0;
#X connect 9 0 19 0;
#X connect 10 0 19 0;
#X connect 11 0 19 0;
#X connect 12 0 19 0;
#X connect 13 0 19 0;
#X connect 14 0 19 0;
#X connect 15 0 0 0;
#X connect 15 1 1 0;
#X connect 15 2 2 0;
#X connect 15 3 3 0;
#X connect 15 4 4 0;
#X connect 15 5 5 0;
#X connect 15 6 6 0;
#X connect 15 7 7 0;
#X connect 15 8 8 0;
#X connect 15 9 9 0;
#X connect 15 10 10 0;
#X connect 15 11 11 0;
#X connect 15 12 12 0;
#X connect 15 13 13 0;
#X connect 15 14 14 0;
#X connect 15 15 16 0;
#X connect 16 0 19 0;
#X connect 17 0 15 0;
#X connect 17 0 18 0;
#X connect 19 0 20 0;
#X connect 19 0 21 0;
#X connect 22 0 0 1;
#X connect 23 0 1 1;
#X connect 24 0 2 1;
#X connect 25 0 3 1;
#X connect 26 0 4 1;
#X connect 27 0 5 1;
#X connect 28 0 6 1;
#X connect 29 0 7 1;
#X connect 30 0 8 1;
#X connect 31 0 9 1;
#X connect 32 0 10 1;
#X connect 33 0 11 1;
#X connect 34 0 12 1;
#X connect 35 0 13 1;
#X connect 36 0 14 1;
#X connect 37 0 16 1;
