#N canvas 457 133 715 458 10;
#X obj 17 266 polygon 4 ___;
#X obj 73 206 expr 1 - $f1;
#X obj 138 112 inlet count;
#X msg 98 247 0 -1 -\$1;
#X msg 34 155 \$1 1 \$1;
#X msg 54 182 -1 \$1 0;
#X msg 73 229 -2 \$1 \$1;
#X obj 174 164 pix_video;
#X obj 174 194 pix_blob 4;
#X obj 174 221 pix_film;
#X obj 239 222 f;
#X obj 174 248 pix_contrast;
#X obj 202 16 vsl 15 40 0 10 0 0 empty empty empty 0 -9 0 10 -262144
-1 -1 400 1;
#X obj 220 16 vsl 15 40 0 10 0 0 empty empty empty 0 -9 0 10 -262144
-1 -1 3400 1;
#X obj 176 336 translateXYZ;
#X obj 176 391 rotateXYZ;
#X obj 184 359 f;
#N canvas 626 401 549 300 colorCh 0;
#X obj 45 11 inlet;
#X obj 109 58 hsl 128 15 0 1 0 0 empty empty empty -2 -8 0 10 -258113
-1 -1 12700 1;
#X floatatom 106 110 5 0 0 0 - - -;
#X obj 247 57 hsl 128 15 0 1 0 0 empty empty empty -2 -8 0 10 -4034
-1 -1 0 1;
#X obj 388 57 hsl 128 15 0 1 0 0 empty empty empty -2 -8 0 10 -4160
-1 -1 12700 1;
#X obj 47 171 color;
#X obj 225 154 pack f f f;
#X obj 244 106 trigger b f;
#X obj 385 107 trigger b f;
#X obj 47 228 outlet;
#X obj 103 13 inlet;
#X obj 243 12 inlet;
#X obj 185 11 inlet;
#X obj 145 30 / 4;
#X obj 219 30 / 4;
#X obj 385 29 / 4;
#X connect 0 0 5 0;
#X connect 1 0 2 0;
#X connect 1 0 6 0;
#X connect 3 0 7 0;
#X connect 4 0 8 0;
#X connect 5 0 9 0;
#X connect 6 0 5 1;
#X connect 7 0 6 0;
#X connect 7 1 6 1;
#X connect 8 0 6 0;
#X connect 8 1 6 2;
#X connect 10 0 13 0;
#X connect 11 0 15 0;
#X connect 12 0 14 0;
#X connect 13 0 1 0;
#X connect 14 0 3 0;
#X connect 15 0 4 0;
#X restore 183 278 pd colorCh;
#X obj 175 307 pix_texture;
#X floatatom 272 245 5 0 0 0 - - -;
#X obj 205 128 expr $f1 / 360 * 1000;
#X obj 174 82 gemhead 5;
#X obj 352 381 polygon 4 ___;
#X obj 408 321 expr 1 - $f1;
#X msg 408 344 -2 \$1 \$1;
#X msg 370 270 -2 -2 \$1;
#X obj 371 38 gemhead;
#X obj 371 72 render_trigger;
#X obj 420 104 gemhead;
#X msg 478 105 snap;
#X msg 506 80 set \$1;
#X obj 372 127 pix_snap 0 0 512 512;
#X obj 372 157 pix_texture;
#X obj 372 204 rotateXYZ;
#X obj 352 243 spigot;
#X obj 183 44 tgl 15 0 empty empty empty 17 7 0 10 -262144 -1 -1 1
1;
#X msg 433 362 -1 -2 \$1;
#X msg 389 297 -2 \$1 2;
#X obj 256 39 hsl 40 15 0 10 0 0 empty empty empty -2 -8 0 10 -262144
-1 -1 800 1;
#X obj 523 213 * 4;
#X obj 552 213 * 3;
#X obj 507 326 polygon 4 3 2;
#X obj 501 213 bng 15 250 50 0 empty empty empty 17 7 0 10 -262144
-1 -1;
#X obj 579 213 * 2;
#X obj 502 264 pack f f f;
#X obj 635 281 print $f1;
#X obj 287 104 * 5;
#X msg 372 14 set \$1;
#X floatatom 75 62 5 0 0 0 - - -;
#X floatatom 35 125 5 0 0 0 - - -;
#X obj 55 95 * 90;
#X obj 213 359 * 90;
#X obj 146 175 + 1;
#X obj 598 389 rectangle 4 3;
#X obj 253 16 hsl 60 14 1 6 0 0 empty empty empty -2 -8 0 10 -262144
-1 -1 1000 1;
#X obj 626 363 * 4;
#X obj 663 366 * 3;
#X obj 442 260 cube 0.45;
#X connect 1 0 6 0;
#X connect 2 0 20 0;
#X connect 2 0 4 0;
#X connect 2 0 5 0;
#X connect 2 0 1 0;
#X connect 2 0 3 0;
#X connect 2 0 25 0;
#X connect 2 0 37 0;
#X connect 2 0 23 0;
#X connect 2 0 36 0;
#X connect 2 0 46 0;
#X connect 2 0 48 0;
#X connect 2 0 52 0;
#X connect 3 0 0 4;
#X connect 4 0 0 1;
#X connect 5 0 0 2;
#X connect 6 0 0 3;
#X connect 7 0 8 0;
#X connect 8 0 9 0;
#X connect 9 0 11 0;
#X connect 9 2 10 0;
#X connect 10 0 9 1;
#X connect 11 0 18 0;
#X connect 12 0 11 1;
#X connect 13 0 11 2;
#X connect 14 0 15 0;
#X connect 15 0 0 0;
#X connect 16 0 51 0;
#X connect 17 0 18 0;
#X connect 18 0 14 0;
#X connect 19 0 15 3;
#X connect 19 0 17 1;
#X connect 19 0 17 3;
#X connect 20 0 19 0;
#X connect 20 0 33 1;
#X connect 20 0 33 2;
#X connect 21 0 7 0;
#X connect 23 0 24 0;
#X connect 24 0 22 3;
#X connect 25 0 22 1;
#X connect 26 0 27 0;
#X connect 27 0 31 0;
#X connect 27 2 29 0;
#X connect 28 0 31 0;
#X connect 29 0 31 0;
#X connect 30 0 28 0;
#X connect 31 0 32 0;
#X connect 32 0 33 0;
#X connect 33 0 41 0;
#X connect 33 0 53 0;
#X connect 34 0 22 0;
#X connect 34 0 57 0;
#X connect 35 0 34 1;
#X connect 36 0 22 4;
#X connect 37 0 22 2;
#X connect 38 0 39 0;
#X connect 38 0 40 0;
#X connect 38 0 43 0;
#X connect 38 0 42 0;
#X connect 39 0 44 0;
#X connect 40 0 44 1;
#X connect 41 0 34 0;
#X connect 42 0 44 0;
#X connect 43 0 44 2;
#X connect 44 0 41 1;
#X connect 44 0 41 2;
#X connect 44 0 41 3;
#X connect 44 0 41 4;
#X connect 46 0 30 0;
#X connect 47 0 26 0;
#X connect 48 0 50 0;
#X connect 50 0 33 3;
#X connect 50 0 49 0;
#X connect 50 0 47 0;
#X connect 51 0 16 1;
#X connect 51 0 15 1;
#X connect 51 0 15 2;
#X connect 52 0 16 0;
#X connect 53 0 34 0;
#X connect 54 0 55 0;
#X connect 54 0 56 0;
#X connect 54 0 57 1;
#X connect 55 0 53 1;
#X connect 56 0 53 2;
#X coords 0 -1 1 1 160 60 1 180 4;
