#N canvas 226 61 575 574 10;
#X obj 14 124 repeat 20;
#X obj 14 150 t a b;
#X obj 13 199 separator;
#X obj 36 181 f;
#X obj 63 180 + 1;
#X obj 90 181 % 20;
#X obj 57 57 knob 20 20 0 20 0 0 empty empty empty 0 -8 0 8 -262144
-1 -1 1615 1;
#X obj 106 60 bng 15 250 50 0 empty empty empty 17 7 0 10 -262144 -1
-1;
#X obj 145 156 openpanel;
#X msg 146 210 thread \$1;
#X obj 88 60 tgl 15 0 empty empty empty 17 7 0 10 -262144 -1 -1 1 1
;
#X obj 13 321 translateXYZ;
#X obj 36 280 - 3;
#X obj 63 280 - 3;
#X obj 13 365 separator;
#X obj 13 412 color;
#X obj 13 453 alpha;
#X obj 13 493 pix_texture;
#X obj 13 528 cube;
#X obj 251 61 tgl 15 0 empty empty empty 17 7 0 10 -262144 -1 -1 1
1;
#X obj 269 61 tgl 15 0 empty empty empty 17 7 0 10 -262144 -1 -1 1
1;
#X msg 55 412 auto \$1;
#X obj 144 42 knob 30 30 0 360 0 0 empty empty empty 0 -8 0 8 -262144
-1 -1 2392 1;
#X obj 180 41 knob 30 30 0 360 0 0 empty empty empty 0 -8 0 8 -262144
-1 -1 2392 1;
#X obj 216 42 knob 30 30 0 360 0 0 empty empty empty 0 -8 0 8 -262144
-1 -1 0 1;
#X obj 119 263 expr if($f1<=0.41 \, 1 \, $f1);
#X obj 252 38 bng 15 250 50 0 empty empty empty 17 7 0 10 -262144 -1
-1;
#X obj 288 263 /;
#X obj 288 339 pack f f f f;
#X obj 288 396 hsv2rgb;
#X obj 313 263 unpack f f f;
#X obj 402 263 unpack f f f;
#X floatatom 269 38 5 0 0 0 - - -;
#X obj 342 54 knob 20 20 0 5 0 0 empty empty empty 0 -8 0 8 -262144
-1 -1 500 1;
#X floatatom 366 59 5 0 0 0 - - -;
#X obj 345 34 hsl 10 14 0 1 0 0 empty empty empty -2 -8 0 10 -258113
-1 -1 900 1;
#X obj 362 34 hsl 10 14 0 1 0 0 empty empty empty -2 -8 0 10 -4034
-1 -1 100 1;
#X obj 380 34 hsl 10 14 0 1 0 0 empty empty empty -2 -8 0 10 -4032
-1 -1 0 1;
#X obj 378 117 t b f;
#X obj 418 118 t b f;
#X obj 366 156 pack f f f;
#X obj 306 43 knob 30 30 0 360 0 0 empty empty empty 0 -8 0 8 -262144
-1 -1 2392 1;
#X obj 223 339 rotateXYZ;
#X floatatom 119 281 5 0 0 0 - - -;
#X obj 144 5 inlet;
#X obj 180 5 inlet;
#X obj 57 7 inlet;
#X obj 306 3 inlet;
#X msg 145 183 open \$1;
#X floatatom 146 310 5 0 0 0 - - -;
#X obj 411 190 hsl 128 15 0 10 0 0 empty empty empty -2 -8 0 10 -262144
-1 -1 0 1;
#X obj 411 207 hsl 128 15 0 10 0 0 empty empty empty -2 -8 0 10 -262144
-1 -1 0 1;
#X obj 411 225 hsl 128 15 0 10 0 0 empty empty empty -2 -8 0 10 -262144
-1 -1 0 1;
#X obj 13 227 pix_image;
#X obj 87 238 *;
#X obj 73 33 knob 20 20 0 20 0 0 empty empty empty 0 -8 0 8 -262144
-1 -1 200 1;
#X obj 96 32 knob 20 20 0 20 0 0 empty empty empty 0 -8 0 8 -262144
-1 -1 200 1;
#X obj 120 33 knob 20 20 0 20 0 0 empty empty empty 0 -8 0 8 -262144
-1 -1 600 1;
#X obj 365 381 gemhead;
#X obj 365 404 rotateXYZ 0 -120 0;
#X floatatom 454 380 5 0 0 0 - - -;
#X obj 366 468 light;
#X obj 374 447 tgl 15 0 empty empty empty 17 7 0 10 -262144 -1 -1 1
1;
#X msg 394 447 1 1 1;
#X floatatom 416 381 5 0 0 0 - - -;
#X msg 433 447 1 1 0;
#X floatatom 491 388 5 0 0 0 - - -;
#X floatatom 494 409 5 0 0 0 - - -;
#X obj 366 429 translateXYZ 1 0 0;
#X obj 14 93 gemhead;
#X connect 0 0 1 0;
#X connect 1 0 2 0;
#X connect 1 1 3 0;
#X connect 2 0 53 0;
#X connect 3 0 4 0;
#X connect 4 0 3 1;
#X connect 4 0 5 0;
#X connect 5 0 54 0;
#X connect 6 0 0 1;
#X connect 6 0 5 1;
#X connect 7 0 8 0;
#X connect 8 0 48 0;
#X connect 9 0 53 0;
#X connect 10 0 9 0;
#X connect 11 0 14 0;
#X connect 11 0 42 0;
#X connect 12 0 11 1;
#X connect 12 0 49 0;
#X connect 13 0 11 2;
#X connect 14 0 15 0;
#X connect 15 0 16 0;
#X connect 16 0 17 0;
#X connect 17 0 18 0;
#X connect 19 0 21 0;
#X connect 20 0 16 1;
#X connect 21 0 16 0;
#X connect 22 0 42 1;
#X connect 25 0 27 0;
#X connect 25 0 43 0;
#X connect 26 0 32 0;
#X connect 27 0 28 0;
#X connect 28 0 29 0;
#X connect 29 0 15 1;
#X connect 30 2 42 2;
#X connect 31 0 28 1;
#X connect 31 1 28 2;
#X connect 31 2 28 3;
#X connect 32 0 27 1;
#X connect 33 0 34 0;
#X connect 34 0 18 1;
#X connect 35 0 40 0;
#X connect 36 0 38 0;
#X connect 37 0 39 0;
#X connect 38 0 40 0;
#X connect 38 1 40 1;
#X connect 39 0 40 0;
#X connect 39 1 40 2;
#X connect 40 0 31 0;
#X connect 41 0 30 0;
#X connect 42 0 15 0;
#X connect 44 0 22 0;
#X connect 45 0 23 0;
#X connect 46 0 6 0;
#X connect 47 0 41 0;
#X connect 48 0 53 0;
#X connect 52 0 42 1;
#X connect 53 0 11 0;
#X connect 54 0 25 0;
#X connect 54 0 12 0;
#X connect 54 0 13 0;
#X connect 55 0 54 1;
#X connect 56 0 12 1;
#X connect 57 0 13 1;
#X connect 58 0 59 0;
#X connect 59 0 68 0;
#X connect 60 0 59 2;
#X connect 62 0 61 0;
#X connect 63 0 61 1;
#X connect 64 0 59 1;
#X connect 65 0 61 1;
#X connect 66 0 59 3;
#X connect 67 0 68 1;
#X connect 68 0 61 0;
#X connect 69 0 0 0;
#X coords 0 -1 1 1 350 50 1 50 30;
