#N canvas 801 236 269 184 10;
#X obj 43 -61 color;
#X obj 43 88 polygon 4 ___;
#X obj 99 28 expr 1 - $f1;
#X obj 100 -133 inlet bng;
#X obj 43 -107 gemhead;
#X obj 165 -74 inlet count;
#X msg 100 -78 0 1 0;
#X msg 60 -23 \$1 1 1;
#X msg 124 69 -1 -1 -\$1;
#X msg 99 51 \$1 1 0;
#X msg 80 4 \$1 -1 0;
#X connect 0 0 1 0;
#X connect 2 0 9 0;
#X connect 3 0 6 0;
#X connect 4 0 0 0;
#X connect 5 0 7 0;
#X connect 5 0 10 0;
#X connect 5 0 2 0;
#X connect 5 0 8 0;
#X connect 6 0 0 1;
#X connect 7 0 1 1;
#X connect 8 0 1 4;
#X connect 9 0 1 3;
#X connect 10 0 1 2;
