#N canvas 651 92 567 481 10;
#X obj 17 266 polygon 4 ___;
#X obj 73 206 expr 1 - $f1;
#X obj 174 82 gemhead;
#X obj 138 112 inlet count;
#X msg 98 247 0 -1 -\$1;
#X msg 34 155 \$1 1 \$1;
#X msg 54 182 -1 \$1 0;
#X msg 73 229 -2 \$1 \$1;
#X obj 174 164 pix_video;
#X obj 174 194 pix_blob 4;
#X obj 174 221 pix_film;
#X obj 239 222 f;
#X obj 174 248 pix_contrast;
#X obj 195 16 vsl 15 40 0 10 0 0 empty empty empty 0 -9 0 10 -262144
-1 -1 100 1;
#X obj 217 16 vsl 15 40 0 10 0 0 empty empty empty 0 -9 0 10 -262144
-1 -1 0 1;
#X obj 176 336 translateXYZ;
#X obj 177 420 rotateXYZ;
#X obj 297 352 tgl 15 0 empty empty empty 17 7 0 10 -262144 -1 -1 0
1;
#X obj 200 357 metro 10;
#X obj 198 393 f;
#X obj 227 393 + 1;
#N canvas 626 401 549 300 colorCh 0;
#X obj 45 11 inlet;
#X obj 109 58 hsl 128 15 0 1 0 0 empty empty empty -2 -8 0 10 -258113
-1 -1 12700 1;
#X floatatom 106 110 5 0 0 0 - - -;
#X obj 247 57 hsl 128 15 0 1 0 0 empty empty empty -2 -8 0 10 -4034
-1 -1 12700 1;
#X obj 388 57 hsl 128 15 0 1 0 0 empty empty empty -2 -8 0 10 -4160
-1 -1 12700 1;
#X obj 47 171 color;
#X obj 225 154 pack f f f;
#X obj 244 106 trigger b f;
#X obj 385 107 trigger b f;
#X obj 47 228 outlet;
#X obj 103 13 inlet;
#X obj 243 12 inlet;
#X obj 185 11 inlet;
#X obj 145 30 / 4;
#X obj 219 30 / 4;
#X obj 385 29 / 4;
#X connect 0 0 5 0;
#X connect 1 0 2 0;
#X connect 1 0 6 0;
#X connect 3 0 7 0;
#X connect 4 0 8 0;
#X connect 5 0 9 0;
#X connect 6 0 5 1;
#X connect 7 0 6 0;
#X connect 7 1 6 1;
#X connect 8 0 6 0;
#X connect 8 1 6 2;
#X connect 10 0 13 0;
#X connect 11 0 15 0;
#X connect 12 0 14 0;
#X connect 13 0 1 0;
#X connect 14 0 3 0;
#X connect 15 0 4 0;
#X restore 183 278 pd colorCh;
#X obj 175 307 pix_texture;
#X floatatom 339 180 5 0 0 0 - - -;
#X obj 283 129 expr $f1 / 360 * 1000;
#X obj 177 449 square;
#X connect 1 0 7 0;
#X connect 2 0 8 0;
#X connect 3 0 19 0;
#X connect 3 0 24 0;
#X connect 4 0 0 4;
#X connect 5 0 0 1;
#X connect 6 0 0 2;
#X connect 7 0 0 3;
#X connect 8 0 9 0;
#X connect 9 0 10 0;
#X connect 10 0 12 0;
#X connect 10 2 11 0;
#X connect 11 0 10 1;
#X connect 12 0 22 0;
#X connect 13 0 12 1;
#X connect 14 0 12 2;
#X connect 15 0 16 0;
#X connect 16 0 25 0;
#X connect 17 0 18 0;
#X connect 19 0 20 0;
#X connect 19 0 16 1;
#X connect 19 0 16 2;
#X connect 20 0 19 1;
#X connect 21 0 22 0;
#X connect 22 0 15 0;
#X connect 23 0 16 3;
#X connect 24 0 23 0;
#X coords 0 -1 1 1 60 60 1 180 4;
