#N canvas 152 383 342 252 10;
#X text 25 1;
#X obj 38 58 tgl 15 0 empty empty empty 17 7 0 10 -262144 -1 -1 0 1
;
#X obj 57 58 tgl 15 0 empty empty empty 17 7 0 10 -262144 -1 -1 0 1
;
#X obj 11 10 inlet~;
#X obj 10 110 outlet~;
#X obj 10 83 *~;
#X obj 37 84 *~;
#X obj 68 111 outlet~;
#X connect 1 0 5 1;
#X connect 2 0 6 1;
#X connect 3 0 5 0;
#X connect 3 0 6 0;
#X connect 5 0 4 0;
#X connect 6 0 7 0;
#X coords 0 -1 1 1 50 40 1 25 35;
