#N canvas 523 197 383 489 10;
#X obj 49 17 knob 30 30 100 300 0 0 empty empty empty 0 -8 0 8 -262144
-1 -1 2900 1;
#X obj 90 35 hsl 100 12 0 200 0 0 empty empty empty -2 -8 0 10 -262144
-1 -1 4200 1;
#X floatatom 160 16 5 0 0 0 - - -;
#X obj 23 33 tgl 15 0 empty empty empty 17 7 0 10 -262144 -1 -1 1 1
;
#X obj 39 259 osc~;
#X obj 40 284 *~;
#X obj 135 268 *~;
#X obj 110 288 osc~ 2;
#X obj 110 311 *~ 1;
#X obj 25 359 osc~;
#X obj 25 437 *~;
#X obj 166 202 bng 15 250 50 0 empty empty empty 17 7 0 10 -262144
-1 -1;
#X obj 25 159 knob 40 40 0 127 0 0 empty empty empty 0 -8 0 8 -262144
-1 -1 1720 1;
#X obj 24 94 metro 220;
#X obj 25 123 f;
#X obj 60 123 + 1;
#X obj 82 337 / 1000;
#X obj 25 216 unpack 0 0;
#X obj 82 360 / 2;
#X obj 194 217 pack f f;
#X obj 277 200 * 3;
#X msg 194 239 1 2 \, 0 \$2 2;
#X obj 166 306 pack f f;
#X msg 166 332 1 2 \, 0 \$2 2;
#X obj 82 381 + 0.5;
#X obj 94 140 % 128;
#X obj 166 358 vline~;
#X obj 194 265 vline~;
#X floatatom 81 430 5 0 0 0 - - -;
#X obj 35 464 outlet~;
#X obj 27 329 +~;
#X obj 25 398 +~;
#X floatatom 89 16 5 0 0 0 - - -;
#X obj 302 157 outlet;
#X obj 141 464 outlet;
#X connect 0 0 13 1;
#X connect 0 0 32 0;
#X connect 1 0 20 0;
#X connect 2 0 20 1;
#X connect 3 0 13 0;
#X connect 4 0 5 0;
#X connect 4 0 6 0;
#X connect 5 0 30 1;
#X connect 6 0 5 1;
#X connect 7 0 8 0;
#X connect 8 0 30 1;
#X connect 9 0 31 0;
#X connect 10 0 29 0;
#X connect 11 0 19 0;
#X connect 11 0 22 0;
#X connect 11 0 34 0;
#X connect 12 0 11 0;
#X connect 12 0 4 0;
#X connect 12 0 17 0;
#X connect 13 0 14 0;
#X connect 14 0 15 0;
#X connect 15 0 14 1;
#X connect 15 0 25 0;
#X connect 16 0 18 0;
#X connect 17 0 30 0;
#X connect 17 1 16 0;
#X connect 18 0 24 0;
#X connect 19 0 21 0;
#X connect 20 0 19 1;
#X connect 20 0 22 1;
#X connect 21 0 27 0;
#X connect 22 0 23 0;
#X connect 23 0 26 0;
#X connect 24 0 28 0;
#X connect 24 0 31 1;
#X connect 25 0 12 0;
#X connect 25 0 33 0;
#X connect 26 0 10 1;
#X connect 27 0 6 1;
#X connect 30 0 9 0;
#X connect 31 0 10 0;
#X coords 0 -1 1 1 200 45 1 5 10;
