#N canvas 872 143 294 400 10;
#X obj 193 200 line~;
#X obj 126 246 *~;
#X obj 89 364 outlet~;
#X obj 193 88 inlet;
#X obj 140 103 bng 15 250 50 0 empty empty empty 17 7 0 10 -262144
-1 -1;
#X obj 63 246 *~;
#X obj 126 278 lop~ 150;
#X obj 89 311 *~;
#X obj 63 280 lop~ 200;
#X msg 193 155 1 \, 0 180;
#X obj 100 213 phasor~;
#X obj 88 336 *~ 0.2;
#X obj 22 131 sel 0 1 2 3;
#X msg 22 159 80;
#X msg 49 159 160;
#X msg 78 159 240;
#X msg 105 159 320;
#X obj 22 210 tri_wave;
#X obj 114 43 tgl 15 0 empty empty empty 17 7 0 10 -262144 -1 -1 0
1;
#X obj 114 74 metro 210;
#X obj 165 7 knob 30 30 100 300 0 0 empty empty empty 0 -8 0 8 -262144
-1 -1 0 1;
#X floatatom 175 41 5 0 0 0 - - -;
#X obj 22 80 counter;
#X obj 22 105 % 4;
#X obj 140 181 outlet;
#X obj 213 122 outlet;
#X connect 0 0 1 1;
#X connect 1 0 6 0;
#X connect 3 0 9 0;
#X connect 4 0 9 0;
#X connect 4 0 22 0;
#X connect 4 0 24 0;
#X connect 5 0 8 0;
#X connect 6 0 7 1;
#X connect 7 0 11 0;
#X connect 8 0 7 0;
#X connect 9 0 0 0;
#X connect 10 0 1 0;
#X connect 10 0 5 1;
#X connect 11 0 2 0;
#X connect 12 0 13 0;
#X connect 12 1 14 0;
#X connect 12 2 15 0;
#X connect 12 3 16 0;
#X connect 13 0 10 0;
#X connect 13 0 17 0;
#X connect 14 0 10 0;
#X connect 14 0 17 0;
#X connect 15 0 10 0;
#X connect 15 0 17 0;
#X connect 16 0 10 0;
#X connect 16 0 17 0;
#X connect 17 0 5 0;
#X connect 18 0 19 0;
#X connect 19 0 4 0;
#X connect 20 0 19 1;
#X connect 20 0 21 0;
#X connect 22 0 23 0;
#X connect 23 0 12 0;
#X connect 23 0 25 0;
#X coords 0 -1 1 1 100 60 1 110 1;
