#N canvas 138 62 506 548 10;
#X obj 59 27 knob 30 30 100 300 0 0 empty empty empty 0 -8 0 8 -262144
-1 -1 2900 1;
#X obj 100 45 hsl 100 12 0 200 0 0 empty empty empty -2 -8 0 10 -262144
-1 -1 5600 1;
#X floatatom 170 26 5 0 0 0 - - -;
#X obj 33 43 tgl 15 0 empty empty empty 17 7 0 10 -262144 -1 -1 1 1
;
#X obj 206 264 *~;
#X obj 181 284 osc~ 2;
#X obj 181 307 *~ 1;
#X obj 232 198 bng 15 250 50 0 empty empty empty 17 7 0 10 -262144
-1 -1;
#X obj 96 155 knob 40 40 0 127 0 0 empty empty empty 0 -8 0 8 -262144
-1 -1 2917 1;
#X obj 33 99 metro 220;
#X obj 33 125 f;
#X obj 68 125 + 1;
#X obj 153 333 / 1000;
#X obj 96 212 unpack 0 0;
#X obj 153 356 / 2;
#X obj 255 213 pack f f;
#X obj 338 196 * 3;
#X msg 255 235 1 2 \, 0 \$2 2;
#X obj 232 302 pack f f;
#X msg 232 328 1 2 \, 0 \$2 2;
#X obj 153 377 + 0.5;
#X obj 96 126 % 128;
#X obj 232 354 vline~;
#X obj 255 261 vline~;
#X floatatom 99 26 5 0 0 0 - - -;
#X obj 217 403 *~;
#X obj 158 410 *~;
#X obj 217 433 lop~ 150;
#X obj 159 434 lop~ 200;
#X obj 103 247 phasor~;
#X obj 43 325 tri_wave;
#X obj 103 280 *~;
#X obj 42 394 +~;
#X obj 104 350 osc~;
#X obj 103 323 +~;
#X obj 103 387 +~;
#X obj 185 460 *~;
#X obj 186 506 outlet~;
#X obj 185 482 *~ 0.6;
#X connect 0 0 9 1;
#X connect 0 0 24 0;
#X connect 1 0 16 0;
#X connect 2 0 16 1;
#X connect 3 0 9 0;
#X connect 4 0 31 1;
#X connect 5 0 6 0;
#X connect 6 0 34 1;
#X connect 7 0 15 0;
#X connect 7 0 18 0;
#X connect 8 0 7 0;
#X connect 8 0 13 0;
#X connect 9 0 10 0;
#X connect 10 0 11 0;
#X connect 11 0 10 1;
#X connect 11 0 21 0;
#X connect 12 0 14 0;
#X connect 13 0 30 0;
#X connect 13 0 29 0;
#X connect 13 1 12 0;
#X connect 14 0 20 0;
#X connect 15 0 17 0;
#X connect 16 0 15 1;
#X connect 16 0 18 1;
#X connect 17 0 23 0;
#X connect 18 0 19 0;
#X connect 19 0 22 0;
#X connect 20 0 32 1;
#X connect 20 0 35 1;
#X connect 21 0 8 0;
#X connect 22 0 25 1;
#X connect 22 0 26 1;
#X connect 23 0 4 1;
#X connect 25 0 27 0;
#X connect 26 0 28 0;
#X connect 27 0 36 1;
#X connect 28 0 36 0;
#X connect 29 0 4 0;
#X connect 29 0 31 0;
#X connect 30 0 32 0;
#X connect 31 0 34 0;
#X connect 32 0 26 0;
#X connect 33 0 35 0;
#X connect 34 0 33 0;
#X connect 35 0 25 0;
#X connect 36 0 38 0;
#X connect 38 0 37 0;
#X coords 0 -1 1 1 200 50 1 5 15;
