#N canvas 367 17 895 472 10;
#X obj -60 -63 hradio 15 1 0 2 empty empty empty 0 -8 0 10 -262144
-1 -1 1;
#X text -63 -95 SOUND OUTPUT DEVICE;
#N canvas 569 284 266 100 sndONOFF 0;
#X text 28 6 OFF;
#X text 103 5 ON;
#X obj 22 -73 inlet;
#X obj 22 -39 sel 0 1;
#X msg 22 23 \; pd dsp 0;
#X msg 97 22 \; pd dsp 1;
#X connect 2 0 3 0;
#X connect 3 0 4 0;
#X connect 3 1 5 0;
#X restore -60 -47 pd sndONOFF;
#X text -42 -79 On;
#X text -63 -79 Off;
#X obj -60 -10 hradio 15 1 0 2 empty empty empty 0 -8 0 10 -262144
-1 -1 1;
#N canvas 192 291 450 300 setGEM 0;
#X obj 116 30 inlet load;
#X obj 194 94 gemwin;
#X obj 28 30 inlet set/del;
#X obj 194 129 outlet;
#X msg 194 55 dimen 400 300;
#X obj 194 31 r lb;
#X obj 196 155 loadbang;
#X obj 196 180 s lb;
#X obj 28 60 sel 0 1;
#X msg 67 84 create;
#X msg 65 109 destroy;
#X connect 0 0 1 0;
#X connect 1 0 3 0;
#X connect 2 0 8 0;
#X connect 4 0 1 0;
#X connect 5 0 4 0;
#X connect 6 0 7 0;
#X connect 8 0 10 0;
#X connect 8 1 9 0;
#X connect 9 0 1 0;
#X connect 10 0 1 0;
#X restore -60 6 pd setGEM;
#X obj -9 -10 tgl 15 0 empty empty empty 17 7 0 10 -262144 -1 -1 1
1;
#X text -63 -27 GEM SET;
#X obj 146 -57 kd808A;
#X obj 155 89 kd808A;
#X obj 206 4 connkb;
#X obj 215 150 connkb;
#X obj 212 23 local_delay;
#X obj 146 23 dly_router;
#X obj 144 211 mixer;
#X obj 221 170 local_delay;
#X obj 155 170 dly_router;
#X obj 258 70 melodyIII;
#X obj 257 -76 melodyII;
#X obj 182 336 dac~;
#X obj 175 255 mixr;
#X obj 323 295 kd808FM;
#X obj -65 125 fm_syn;
#X obj -66 63 fm_syn;
#X obj 35 -56 hhMODII;
#X obj -66 183 hhMODII;
#X obj 91 8 connhh;
#X obj -62 280 sn808;
#X obj -18 244 connhhII;
#X obj 43 190 sn808A;
#X obj 115 260 conn;
#X obj 46 281 sn808A;
#X obj 118 351 conn;
#X obj 544 72 melodyIV;
#X obj 536 -76 melody;
#X obj 611 173 local_delay;
#X obj 545 173 dly_router;
#X obj 603 26 local_delay;
#X obj 537 26 dly_router;
#X obj 323 253 mixer;
#X obj 95 170 connfm;
#X obj 94 108 connfm;
#X connect 0 0 2 0;
#X connect 5 0 6 0;
#X connect 7 0 6 1;
#X connect 9 0 14 0;
#X connect 9 1 11 0;
#X connect 9 2 11 1;
#X connect 10 0 17 0;
#X connect 10 1 12 0;
#X connect 10 2 12 1;
#X connect 13 0 15 0;
#X connect 14 0 15 0;
#X connect 14 1 13 0;
#X connect 15 0 20 0;
#X connect 15 0 21 0;
#X connect 15 1 20 1;
#X connect 16 0 15 1;
#X connect 17 0 15 1;
#X connect 17 1 16 0;
#X connect 18 0 17 0;
#X connect 19 0 14 0;
#X connect 21 0 20 0;
#X connect 21 1 20 1;
#X connect 22 0 20 0;
#X connect 22 0 20 1;
#X connect 23 0 17 0;
#X connect 23 1 41 0;
#X connect 23 2 41 1;
#X connect 24 0 14 0;
#X connect 24 2 42 0;
#X connect 25 0 14 0;
#X connect 25 1 27 0;
#X connect 25 2 27 1;
#X connect 26 0 17 0;
#X connect 26 1 29 0;
#X connect 26 2 29 1;
#X connect 28 0 14 0;
#X connect 30 0 15 0;
#X connect 30 1 31 0;
#X connect 30 2 31 1;
#X connect 32 0 17 0;
#X connect 32 1 33 0;
#X connect 32 2 33 1;
#X connect 34 0 37 0;
#X connect 35 0 39 0;
#X connect 37 0 40 1;
#X connect 37 1 36 0;
#X connect 39 0 40 0;
#X connect 39 1 38 0;
#X connect 40 0 20 0;
#X connect 40 1 20 1;
