#N canvas 235 284 845 382 10;
#X obj 8 -4 hradio 15 1 0 2 empty empty empty 0 -8 0 10 -262144 -1
-1 1;
#N canvas 569 284 266 127 sndONOFF 0;
#X text 28 6 OFF;
#X text 103 5 ON;
#X obj 22 -73 inlet;
#X obj 22 -39 sel 0 1;
#X msg 22 23 \; pd dsp 0;
#X msg 97 22 \; pd dsp 1;
#X connect 2 0 3 0;
#X connect 3 0 4 0;
#X connect 3 1 5 0;
#X restore 8 12 pd sndONOFF;
#X text 26 -20 On;
#X text 5 -20 Off;
#X obj 142 -6 hradio 15 1 0 2 empty empty empty 0 -8 0 10 -262144 -1
-1 0;
#N canvas 192 291 450 300 setGEM 0;
#X obj 116 30 inlet load;
#X obj 194 94 gemwin;
#X obj 28 30 inlet set/del;
#X obj 194 129 outlet;
#X msg 194 55 dimen 400 300;
#X obj 194 31 r lb;
#X obj 196 155 loadbang;
#X obj 196 180 s lb;
#X obj 28 60 sel 0 1;
#X msg 67 84 create;
#X msg 65 109 destroy;
#X connect 0 0 1 0;
#X connect 1 0 3 0;
#X connect 2 0 8 0;
#X connect 4 0 1 0;
#X connect 5 0 4 0;
#X connect 6 0 7 0;
#X connect 8 0 10 0;
#X connect 8 1 9 0;
#X connect 9 0 1 0;
#X connect 10 0 1 0;
#X restore 142 10 pd setGEM;
#X obj 193 -6 tgl 15 0 empty empty empty 17 7 0 10 -262144 -1 -1 0
1;
#X text 139 -23 GEM SET;
#X text 3 -34 SOUND OUTPUT DEVICE;
#X text 138 -35 Visual OUTPUT DEVICE;
#X obj 286 145 fft-h;
#X obj 282 -29 melodyII;
#X obj 283 78 dly_router;
#X obj 559 -28 melodyIII;
#X obj 559 78 dly_router;
#X obj 354 80 local_delay;
#X obj 632 78 local_delay;
#X obj 534 127 *~;
#X obj 132 146 mixr;
#X obj 285 297 mixer;
#X obj 132 271 dac~;
#X connect 0 0 1 0;
#X connect 4 0 5 0;
#X connect 6 0 5 1;
#X connect 10 0 19 0;
#X connect 10 0 19 1;
#X connect 11 0 12 0;
#X connect 12 1 15 0;
#X connect 13 0 14 0;
#X connect 14 1 16 0;
#X connect 15 0 17 0;
#X connect 16 0 17 1;
#X connect 17 0 10 0;
#X connect 18 0 20 0;
#X connect 18 0 20 1;
#X connect 19 0 18 0;
#X connect 19 1 18 1;
