#N canvas 23 52 806 454 10;
#X obj 9 -88 hradio 15 1 0 2 empty empty empty 0 -8 0 10 -262144 -1
-1 1;
#X text 6 -120 SOUND OUTPUT DEVICE;
#N canvas 569 284 266 100 sndONOFF 0;
#X text 28 6 OFF;
#X text 103 5 ON;
#X obj 22 -73 inlet;
#X obj 22 -39 sel 0 1;
#X msg 22 23 \; pd dsp 0;
#X msg 97 22 \; pd dsp 1;
#X connect 2 0 3 0;
#X connect 3 0 4 0;
#X connect 3 1 5 0;
#X restore 9 -72 pd sndONOFF;
#X text 27 -104 On;
#X text 6 -104 Off;
#X obj 9 -35 hradio 15 1 0 2 empty empty empty 0 -8 0 10 -262144 -1
-1 1;
#N canvas 192 291 450 300 setGEM 0;
#X obj 116 30 inlet load;
#X obj 194 94 gemwin;
#X obj 28 30 inlet set/del;
#X obj 194 129 outlet;
#X msg 194 55 dimen 400 300;
#X obj 194 31 r lb;
#X obj 196 155 loadbang;
#X obj 196 180 s lb;
#X obj 28 60 sel 0 1;
#X msg 67 84 create;
#X msg 65 109 destroy;
#X connect 0 0 1 0;
#X connect 1 0 3 0;
#X connect 2 0 8 0;
#X connect 4 0 1 0;
#X connect 5 0 4 0;
#X connect 6 0 7 0;
#X connect 8 0 10 0;
#X connect 8 1 9 0;
#X connect 9 0 1 0;
#X connect 10 0 1 0;
#X restore 9 -19 pd setGEM;
#X obj 60 -35 tgl 15 0 empty empty empty 17 7 0 10 -262144 -1 -1 1
1;
#X text 6 -52 GEM SET;
#X obj 136 -32 dac~;
#X obj 136 -102 sn808A;
#X obj 208 -32 conn;
#X obj 242 -102 sn808A;
#X obj 243 -34 dac~;
#X obj 314 -32 conn;
#X obj 13 21 sn808;
#X text 133 -122 sn8o8x Audio+Visual;
#X text 11 4 sn8o8x Audio (only);
#X obj 118 20 sn808;
#X obj 12 130 mixer;
#X obj 77 90 local_delay;
#X obj 12 90 dly_router;
#X obj 315 90 local_delay;
#X obj 251 90 dly_router;
#X obj 166 170 dac~;
#X obj 354 -103 kd808A;
#X obj 414 -42 connkb;
#X obj 683 -18 kd808A;
#X obj 743 43 connkb;
#X obj 417 -19 local_delay;
#X obj 353 -19 dly_router;
#X obj 683 43 dac~;
#X obj 220 20 mixer;
#X obj 435 61 dac~;
#X obj 460 -102 kd808A;
#X obj 520 -41 connkb;
#X obj 682 -103 kd808A;
#X obj 742 -42 connkb;
#X obj 682 -42 dac~;
#X connect 0 0 2 0;
#X connect 5 0 6 0;
#X connect 7 0 6 1;
#X connect 10 0 9 0;
#X connect 10 0 9 1;
#X connect 10 1 11 0;
#X connect 10 2 11 1;
#X connect 12 0 13 0;
#X connect 12 0 13 1;
#X connect 12 1 14 0;
#X connect 12 2 14 1;
#X connect 15 0 21 0;
#X connect 18 0 23 0;
#X connect 19 0 24 0;
#X connect 19 1 24 1;
#X connect 20 0 19 0;
#X connect 21 0 19 0;
#X connect 21 1 20 0;
#X connect 22 0 19 1;
#X connect 23 0 19 1;
#X connect 23 1 22 0;
#X connect 25 0 30 0;
#X connect 25 1 26 0;
#X connect 25 2 26 1;
#X connect 27 0 31 0;
#X connect 27 0 31 1;
#X connect 27 1 28 0;
#X connect 27 2 28 1;
#X connect 29 0 32 0;
#X connect 30 0 32 0;
#X connect 30 1 29 0;
#X connect 32 0 33 0;
#X connect 32 1 33 1;
#X connect 34 0 30 0;
#X connect 34 1 35 0;
#X connect 34 2 35 1;
#X connect 36 0 38 0;
#X connect 36 0 38 1;
#X connect 36 1 37 0;
#X connect 36 2 37 1;
