#N canvas 706 297 318 233 10;
#X obj 27 32 osc~;
#X obj 79 32 phasor~;
#X obj 144 31 tri_waveII;
#X obj 222 28 sqr_alt_wave;
#X obj 39 -28 inlet;
#X obj 103 -30 inlet;
#X obj 194 -31 inlet;
#X obj 149 -31 inlet;
#X obj 241 -30 inlet;
#X obj 45 68 *~;
#X obj 98 66 *~;
#X obj 171 63 *~;
#X obj 223 62 *~;
#X obj 209 -4 bng 15 250 50 0 empty empty empty 17 7 0 10 -262144 -1
-1;
#X obj 268 -5 bng 15 250 50 0 empty empty empty 17 7 0 10 -262144 -1
-1;
#X obj 45 98 *~ 0.3;
#X obj 99 99 *~ 0.3;
#X obj 170 98 *~ 0.3;
#X obj 222 97 *~ 0.3;
#X obj 119 126 -~;
#X obj 119 153 outlet~;
#X connect 0 0 9 0;
#X connect 1 0 10 0;
#X connect 2 0 11 0;
#X connect 3 0 12 0;
#X connect 4 0 0 0;
#X connect 4 0 1 0;
#X connect 4 0 2 0;
#X connect 4 0 3 0;
#X connect 5 0 9 1;
#X connect 6 0 11 1;
#X connect 6 0 13 0;
#X connect 7 0 10 1;
#X connect 8 0 14 0;
#X connect 8 0 12 1;
#X connect 9 0 15 0;
#X connect 10 0 16 0;
#X connect 11 0 17 0;
#X connect 12 0 18 0;
#X connect 13 0 2 1;
#X connect 14 0 3 1;
#X connect 15 0 19 0;
#X connect 16 0 19 0;
#X connect 17 0 19 1;
#X connect 18 0 19 1;
#X connect 19 0 20 0;
