#N canvas 361 241 304 361 10;
#X obj 188 221 line~;
#X obj 54 237 *~;
#X obj 54 258 lop~ 200;
#X obj 18 155 sel 0 1 2 3;
#X msg 13 181 120;
#X msg 42 181 220;
#X msg 72 180 320;
#X msg 101 180 420;
#X obj 13 221 osc~;
#X obj 54 278 *~ 0.5;
#X obj 53 299 outlet~;
#X obj 188 107 inlet;
#X obj 99 68 tgl 15 0 empty empty empty 17 7 0 10 -262144 -1 -1 0 1
;
#X obj 99 107 metro 210;
#X obj 150 31 knob 30 30 100 300 0 0 empty empty empty 0 -8 0 8 -262144
-1 -1 2900 1;
#X floatatom 160 65 5 0 0 0 - - -;
#X obj 125 132 bng 15 250 50 0 empty empty empty 17 7 0 10 -262144
-1 -1;
#X obj 18 108 counter;
#X obj 18 131 % 4;
#X msg 188 181 1 \, 0 100;
#X obj 125 201 outlet bng;
#X obj 205 148 outlet count;
#X connect 0 0 1 1;
#X connect 1 0 2 0;
#X connect 2 0 9 0;
#X connect 3 0 4 0;
#X connect 3 1 5 0;
#X connect 3 2 6 0;
#X connect 3 3 7 0;
#X connect 4 0 8 0;
#X connect 5 0 8 0;
#X connect 6 0 8 0;
#X connect 7 0 8 0;
#X connect 8 0 1 0;
#X connect 9 0 10 0;
#X connect 11 0 19 0;
#X connect 12 0 13 0;
#X connect 13 0 16 0;
#X connect 14 0 13 1;
#X connect 14 0 15 0;
#X connect 16 0 19 0;
#X connect 16 0 17 0;
#X connect 16 0 20 0;
#X connect 17 0 18 0;
#X connect 18 0 3 0;
#X connect 18 0 21 0;
#X connect 19 0 0 0;
#X coords 0 -1 1 1 100 70 1 94 20;
