#N canvas 786 7 544 515 10;
#X obj 13 -37 hradio 15 1 0 2 empty empty empty 0 -8 0 10 -262144 -1
-1 1;
#N canvas 192 291 450 300 setGEM 0;
#X obj 116 30 inlet load;
#X obj 194 94 gemwin;
#X obj 28 30 inlet set/del;
#X obj 194 129 outlet;
#X obj 194 31 r lb;
#X obj 196 155 loadbang;
#X obj 196 180 s lb;
#X obj 28 60 sel 0 1;
#X msg 67 84 create;
#X msg 65 109 destroy;
#X msg 194 55 dimen 500 300;
#X connect 0 0 1 0;
#X connect 1 0 3 0;
#X connect 2 0 7 0;
#X connect 4 0 10 0;
#X connect 5 0 6 0;
#X connect 7 0 9 0;
#X connect 7 1 8 0;
#X connect 8 0 1 0;
#X connect 9 0 1 0;
#X connect 10 0 1 0;
#X restore 13 -21 pd setGEM;
#X obj 56 -37 tgl 15 0 empty empty empty 17 7 0 10 -262144 -1 -1 1
1;
#X text 11 -58 GEM SET;
#X obj 72 -37 tgl 15 0 empty empty empty 17 7 0 10 -262144 -1 -1 1
1;
#X msg 72 -21 lighting \$1;
#X obj 91 -1 kd808A;
#X obj 9 157 connvidmodA;
#X obj 175 91 expr $f1 + 1;
#X obj 175 109 % 360;
#X obj 175 73 f;
#X obj 92 91 expr $f1 + 1;
#X obj 92 73 f;
#X obj 92 109 % 20;
#X obj 15 371 connvidmodV;
#X obj 33 89 dac~;
#X msg 153 -36 \; pd dsp 0;
#X msg 218 -36 \; pd dsp 1;
#X obj 206 0 hsl 128 15 0 1 0 0 empty empty empty -2 -8 0 10 -262144
-1 -1 0 1;
#X obj 34 60 *~;
#X obj 203 43 line~;
#X floatatom 239 20 5 0 0 0 - - -;
#X obj 203 21 \$1 50;
#X obj 12 224 connvidmodA;
#X obj 14 297 connvidmodA;
#X connect 0 0 1 0;
#X connect 2 0 1 1;
#X connect 4 0 5 0;
#X connect 5 0 1 1;
#X connect 6 0 19 0;
#X connect 6 1 10 0;
#X connect 6 1 12 0;
#X connect 8 0 9 0;
#X connect 8 0 10 1;
#X connect 9 0 7 1;
#X connect 9 0 7 4;
#X connect 9 0 7 2;
#X connect 9 0 14 1;
#X connect 9 0 14 2;
#X connect 9 0 14 4;
#X connect 9 0 23 1;
#X connect 9 0 24 1;
#X connect 9 0 23 2;
#X connect 9 0 23 4;
#X connect 9 0 24 2;
#X connect 9 0 24 4;
#X connect 10 0 8 0;
#X connect 11 0 12 1;
#X connect 11 0 13 0;
#X connect 12 0 11 0;
#X connect 13 0 7 0;
#X connect 13 0 7 3;
#X connect 13 0 14 0;
#X connect 13 0 14 3;
#X connect 13 0 23 0;
#X connect 13 0 24 0;
#X connect 13 0 24 3;
#X connect 13 0 23 3;
#X connect 18 0 21 0;
#X connect 18 0 22 0;
#X connect 19 0 15 0;
#X connect 19 0 15 1;
#X connect 20 0 19 1;
#X connect 22 0 20 0;
