#N canvas 682 42 544 616 10;
#X obj 13 -37 hradio 15 1 0 2 empty empty empty 0 -8 0 10 -262144 -1
-1 0;
#N canvas 192 291 450 300 setGEM 0;
#X obj 116 30 inlet load;
#X obj 194 94 gemwin;
#X obj 28 30 inlet set/del;
#X obj 194 129 outlet;
#X obj 194 31 r lb;
#X obj 196 155 loadbang;
#X obj 196 180 s lb;
#X obj 28 60 sel 0 1;
#X msg 67 84 create;
#X msg 65 109 destroy;
#X msg 194 55 dimen 500 300;
#X connect 0 0 1 0;
#X connect 1 0 3 0;
#X connect 2 0 7 0;
#X connect 4 0 10 0;
#X connect 5 0 6 0;
#X connect 7 0 9 0;
#X connect 7 1 8 0;
#X connect 8 0 1 0;
#X connect 9 0 1 0;
#X connect 10 0 1 0;
#X restore 13 -21 pd setGEM;
#X obj 56 -37 tgl 15 0 empty empty empty 17 7 0 10 -262144 -1 -1 0
1;
#X text 11 -58 GEM SET;
#X obj 72 -37 tgl 15 0 empty empty empty 17 7 0 10 -262144 -1 -1 0
1;
#X msg 72 -21 lighting \$1;
#X obj 91 -1 kd808A;
#X obj 9 151 connvidmodA;
#X obj 175 91 expr $f1 + 1;
#X obj 175 109 % 360;
#X obj 175 73 f;
#X obj 92 91 expr $f1 + 1;
#X obj 92 73 f;
#X obj 92 109 % 20;
#X obj 9 224 connvidmodV;
#X connect 0 0 1 0;
#X connect 2 0 1 1;
#X connect 4 0 5 0;
#X connect 5 0 1 1;
#X connect 6 1 10 0;
#X connect 6 1 12 0;
#X connect 8 0 9 0;
#X connect 8 0 10 1;
#X connect 9 0 7 1;
#X connect 9 0 7 4;
#X connect 9 0 7 2;
#X connect 9 0 14 1;
#X connect 9 0 14 2;
#X connect 9 0 14 4;
#X connect 10 0 8 0;
#X connect 11 0 12 1;
#X connect 11 0 13 0;
#X connect 12 0 11 0;
#X connect 13 0 7 0;
#X connect 13 0 7 3;
#X connect 13 0 14 0;
#X connect 13 0 14 3;
