#N canvas 707 16 517 294 10;
#X obj 184 -82 hhMOD;
#X obj 12 -72 hradio 15 1 0 2 empty empty empty 0 -8 0 10 -262144 -1
-1 0;
#N canvas 192 291 450 300 setGEM 1;
#X obj 116 30 inlet load;
#X obj 194 94 gemwin;
#X obj 28 30 inlet set/del;
#X obj 194 129 outlet;
#X obj 194 31 r lb;
#X obj 196 155 loadbang;
#X obj 196 180 s lb;
#X obj 28 60 sel 0 1;
#X msg 67 84 create;
#X msg 65 109 destroy;
#X msg 194 55 dimen 500 300;
#X connect 0 0 1 0;
#X connect 1 0 3 0;
#X connect 2 0 7 0;
#X connect 4 0 10 0;
#X connect 5 0 6 0;
#X connect 7 0 9 0;
#X connect 7 1 8 0;
#X connect 8 0 1 0;
#X connect 9 0 1 0;
#X connect 10 0 1 0;
#X restore 12 -56 pd setGEM;
#X obj 63 -72 tgl 15 0 empty empty empty 17 7 0 10 -262144 -1 -1 0
1;
#X text 9 -89 GEM SET;
#X obj 316 -19 connvid;
#X obj 315 -80 kd808A;
#X obj 245 -21 connhh;
#X obj 188 -1 kd808A;
#X obj 248 59 connkb;
#X obj 349 123 connfm;
#X obj 189 78 fm_syn;
#X connect 0 1 7 0;
#X connect 0 2 7 1;
#X connect 1 0 2 0;
#X connect 3 0 2 1;
#X connect 6 2 5 0;
#X connect 8 1 9 0;
#X connect 8 2 9 1;
#X connect 11 1 10 0;
#X connect 11 2 10 1;
