#N canvas 0 0 608 415 10;
#X obj 181 348 outlet~;
#X obj 61 105 *~ 0.3;
#X obj 133 159 -~;
#X obj 186 31 inlet melody;
#X obj 441 165 inlet mastervolume;
#X obj 441 245 line~;
#X msg 441 199 \$1 20;
#X obj 304 182 sig~;
#X obj 265 116 bp~ 100 3;
#X obj 264 154 hip~ 60;
#X obj 264 198 *~;
#X obj 428 99 inlet cfreq;
#X obj 136 253 *~;
#X obj 186 98 setWaves;
#X obj 182 216 *~;
#X obj 60 30 inlet~ wavDynamic;
#X obj 202 58 tgl 15 0 empty siMldy empty 17 7 0 10 -262144 -1 -1 1
1;
#X obj 218 58 tgl 15 0 empty saMldy empty 17 7 0 10 -262144 -1 -1 0
1;
#X obj 234 58 tgl 15 0 empty trMldy empty 17 7 0 10 -262144 -1 -1 0
1;
#X obj 250 58 tgl 15 0 empty sqMldy empty 17 7 0 10 -262144 -1 -1 1
1;
#X obj 341 32 inlet~ voicePulsetWidth;
#X obj 161 189 *~ 0.4;
#X obj 485 199 keybd;
#X obj 242 350 -~;
#X text 303 282 Temporarily removing keydb functionality.;
#X connect 1 0 2 0;
#X connect 2 0 21 0;
#X connect 3 0 13 0;
#X connect 4 0 7 0;
#X connect 6 0 5 0;
#X connect 7 0 10 1;
#X connect 8 0 9 0;
#X connect 9 0 10 0;
#X connect 10 0 14 1;
#X connect 11 0 8 1;
#X connect 13 0 2 1;
#X connect 13 1 2 1;
#X connect 13 2 2 1;
#X connect 13 3 2 1;
#X connect 14 0 0 0;
#X connect 15 0 1 0;
#X connect 16 0 13 1;
#X connect 17 0 13 2;
#X connect 18 0 13 3;
#X connect 19 0 13 4;
#X connect 20 0 8 0;
#X connect 21 0 14 0;
#X connect 22 0 5 0;
