#N canvas 0 0 495 277 10;
#X obj 66 214 outlet~;
#X obj 146 214 outlet~;
#X obj 233 214 outlet~;
#X obj 315 213 outlet~;
#X obj 34 24 inlet;
#X obj 164 23 inlet;
#X obj 201 23 inlet;
#X obj 237 23 inlet;
#X obj 274 23 inlet;
#X obj 111 88 phasor~;
#X obj 36 91 osc~;
#X obj 64 119 *~;
#X obj 148 115 *~;
#X obj 231 115 *~;
#X obj 315 111 *~;
#X obj 262 54 bng 15 250 50 0 empty empty empty 17 7 0 10 -262144 -1
-1;
#X obj 381 52 bng 15 250 50 0 empty empty empty 17 7 0 10 -262144 -1
-1;
#X obj 65 161 *~ 0.3;
#X obj 147 160 *~ 0.3;
#X obj 232 159 *~ 0.3;
#X obj 315 158 *~ 0.3;
#X obj 160 87 ../WFormUnit/tri_waveIII;
#X obj 312 87 ../WFormUnit/sqr_alt_waveII;
#X connect 4 0 10 0;
#X connect 4 0 9 0;
#X connect 4 0 21 0;
#X connect 4 0 22 0;
#X connect 5 0 11 1;
#X connect 6 0 12 1;
#X connect 7 0 13 1;
#X connect 7 0 15 0;
#X connect 8 0 14 1;
#X connect 8 0 16 0;
#X connect 9 0 12 0;
#X connect 10 0 11 0;
#X connect 11 0 17 0;
#X connect 12 0 18 0;
#X connect 13 0 19 0;
#X connect 14 0 20 0;
#X connect 15 0 21 1;
#X connect 16 0 22 1;
#X connect 17 0 0 0;
#X connect 18 0 1 0;
#X connect 19 0 2 0;
#X connect 20 0 3 0;
#X connect 21 0 13 0;
