#N canvas 228 166 594 245 10;
#X floatatom 247 62 5 0 0 0 - - -;
#X floatatom 301 60 5 0 0 0 - - -;
#N canvas 186 169 450 300 envelope 0;
#X text 187 186 Rise;
#X text 139 186 Fall;
#X obj 174 234 line;
#X msg 132 203 0 \$1;
#X msg 184 203 1 \$1;
#X obj 132 75 t b b;
#X obj 159 152 f;
#X obj 132 152 f;
#X obj 132 115 del;
#X obj 132 32 inlet;
#X obj 173 31 inlet;
#X obj 216 31 inlet;
#X obj 174 266 outlet;
#X connect 2 0 12 0;
#X connect 3 0 2 0;
#X connect 4 0 2 0;
#X connect 5 0 8 0;
#X connect 5 1 6 0;
#X connect 6 0 4 0;
#X connect 7 0 3 0;
#X connect 8 0 7 0;
#X connect 9 0 5 0;
#X connect 10 0 8 1;
#X connect 11 0 6 1;
#X restore 115 96 pd envelope;
#X floatatom 84 113 5 0 0 0 - - -;
#X obj 291 113 * 2000;
#X obj 321 144 + 100;
#X obj 347 61 t b f;
#X obj 409 62 t b f;
#X obj 321 204 outlet;
#X floatatom 337 169 5 0 0 0 - - -;
#X floatatom 423 103 5 0 0 0 - - -;
#X floatatom 461 103 5 0 0 0 - - -;
#X floatatom 264 145 5 0 0 0 - - -;
#X text 368 203 Bandpass Filter (centre frequency);
#X obj 115 21 inlet Intrvl;
#X obj 194 21 inlet att;
#X obj 255 21 inlet dec;
#X obj 347 21 inlet rng;
#X obj 409 21 inlet freq;
#X connect 2 0 3 0;
#X connect 2 0 4 0;
#X connect 4 0 5 0;
#X connect 4 0 12 0;
#X connect 5 0 8 0;
#X connect 5 0 9 0;
#X connect 6 0 4 0;
#X connect 6 1 4 1;
#X connect 6 1 10 0;
#X connect 7 0 5 0;
#X connect 7 1 5 1;
#X connect 7 1 11 0;
#X connect 14 0 2 0;
#X connect 15 0 0 0;
#X connect 15 0 2 1;
#X connect 16 0 1 0;
#X connect 16 0 2 2;
#X connect 17 0 6 0;
#X connect 18 0 7 0;
