#N canvas 198 110 704 411 10;
#X obj 251 131 noise~;
#X obj 571 249 line~;
#X obj 571 78 inlet;
#X obj 494 316 outlet~;
#X obj 493 265 *~;
#X obj 493 202 hip~ 60;
#X obj 492 148 *~ 0.1;
#X msg 571 211 1 \, 0 50;
#X obj 493 291 *~ 0.1;
#X obj 493 233 *~ 0.2;
#X obj 589 105 bng 15 250 50 0 empty empty empty 17 7 0 10 -262144
-1 -1;
#X obj 411 78 square~ 8001;
#X obj 492 78 square~ 8002;
#X obj 251 79 square~ 4000;
#X obj 331 79 square~ 5001;
#X connect 0 0 5 0;
#X connect 0 0 6 0;
#X connect 1 0 4 1;
#X connect 2 0 7 0;
#X connect 2 0 10 0;
#X connect 4 0 8 0;
#X connect 5 0 9 0;
#X connect 6 0 5 0;
#X connect 7 0 1 0;
#X connect 8 0 3 0;
#X connect 9 0 4 0;
#X connect 11 0 6 0;
#X connect 12 0 6 0;
#X connect 13 0 6 0;
#X connect 14 0 6 0;
