#N canvas 0 0 445 246 10;
#X obj 22 73 tempo;
#X obj 73 90 hradio 15 1 0 8 empty empty empty 0 -8 0 10 -262144 -1
-1 0;
#X obj 195 105 t b;
#X obj 125 134 + 1;
#X obj 154 134 + 2;
#X obj 73 117 expr 500 / $f1;
#X obj 125 176 hh2_mod;
#X obj 124 219 outlet~;
#X obj 199 74 tempo;
#X obj 250 91 hradio 15 1 0 8 empty empty empty 0 -8 0 10 -262144 -1
-1 0;
#X obj 372 106 t b;
#X obj 302 135 + 1;
#X obj 331 135 + 2;
#X obj 250 118 expr 500 / $f1;
#X obj 302 177 hh2_mod;
#X obj 301 220 outlet~;
#X obj 22 23 inlet;
#X obj 59 23 inlet;
#X obj 97 23 inlet;
#X obj 199 24 inlet;
#X obj 236 24 inlet;
#X obj 274 24 inlet;
#X connect 0 0 1 0;
#X connect 1 0 2 0;
#X connect 1 0 5 0;
#X connect 2 0 6 2;
#X connect 3 0 6 0;
#X connect 4 0 6 1;
#X connect 5 0 3 0;
#X connect 5 0 4 0;
#X connect 6 0 7 0;
#X connect 8 0 9 0;
#X connect 9 0 10 0;
#X connect 9 0 13 0;
#X connect 10 0 14 2;
#X connect 11 0 14 0;
#X connect 12 0 14 1;
#X connect 13 0 11 0;
#X connect 13 0 12 0;
#X connect 14 0 15 0;
#X connect 16 0 0 0;
#X connect 17 0 0 1;
#X connect 18 0 0 2;
#X connect 19 0 8 0;
#X connect 20 0 8 1;
#X connect 21 0 8 2;
