#N canvas 559 16 257 265 10;
#X obj 19 45 tempo;
#X obj 69 62 hradio 15 1 0 8 empty empty empty 0 -8 0 10 -262144 -1
-1 0;
#X obj 214 77 t b;
#X obj 153 192 outlet~;
#X obj 153 149 hho_mod;
#X obj 121 106 + 1;
#X obj 150 106 + 2;
#X obj 179 106 + 3;
#X obj 69 89 expr 500 / $f1;
#X obj 19 -2 inlet;
#X obj 56 -2 inlet;
#X obj 94 -2 inlet;
#X connect 0 0 1 0;
#X connect 1 0 2 0;
#X connect 1 0 8 0;
#X connect 2 0 4 4;
#X connect 4 0 3 0;
#X connect 5 0 4 1;
#X connect 6 0 4 2;
#X connect 7 0 4 3;
#X connect 8 0 5 0;
#X connect 8 0 4 0;
#X connect 8 0 6 0;
#X connect 8 0 7 0;
#X connect 9 0 0 0;
#X connect 10 0 0 1;
#X connect 11 0 0 2;
