#N canvas 112 54 411 423 10;
#X obj 267 103 line~;
#X obj 202 154 *~;
#X obj 162 317 outlet~;
#X obj 227 47 inlet;
#X obj 227 78 bng 15 250 50 0 empty empty empty 17 7 0 10 -262144 -1
-1;
#X obj 106 107 tri_wave;
#X obj 139 155 *~;
#X obj 201 198 lop~ 150;
#X obj 164 237 *~;
#X obj 138 198 lop~ 200;
#X obj 106 48 inlet;
#X obj 174 108 tri_wave;
#X obj 174 49 inlet;
#X obj 163 281 *~ 0.5;
#X msg 267 64 1 \, 0 140;
#X connect 0 0 1 1;
#X connect 1 0 7 0;
#X connect 3 0 14 0;
#X connect 3 0 4 0;
#X connect 5 0 6 0;
#X connect 6 0 9 0;
#X connect 7 0 8 1;
#X connect 8 0 13 0;
#X connect 9 0 8 0;
#X connect 10 0 5 0;
#X connect 11 0 1 0;
#X connect 11 0 6 1;
#X connect 12 0 11 0;
#X connect 13 0 2 0;
#X connect 14 0 0 0;
