#N canvas 548 25 407 197 10;
#X obj 17 81 tempo;
#X obj 68 98 hradio 15 1 0 8 empty empty empty 0 -8 0 10 -262144 -1
-1 0;
#X obj 68 114 t b;
#X obj 68 132 kick_mod;
#X obj 202 80 tempo;
#X obj 253 97 hradio 15 1 0 8 empty empty empty 0 -8 0 10 -262144 -1
-1 0;
#X obj 253 113 t b;
#X obj 67 163 outlet~;
#X obj 252 164 outlet~;
#X obj 253 131 kick_mod;
#X obj 17 9 inlet;
#X obj 58 11 inlet;
#X obj 98 11 inlet;
#X obj 202 8 inlet;
#X obj 239 8 inlet;
#X obj 277 8 inlet;
#X floatatom 85 64 5 0 0 0 - - -;
#X floatatom 122 64 5 0 0 0 - - -;
#X connect 0 0 1 0;
#X connect 1 0 2 0;
#X connect 2 0 3 0;
#X connect 3 0 7 0;
#X connect 4 0 5 0;
#X connect 5 0 6 0;
#X connect 6 0 9 0;
#X connect 9 0 8 0;
#X connect 10 0 0 0;
#X connect 11 0 0 1;
#X connect 11 0 16 0;
#X connect 12 0 0 2;
#X connect 12 0 17 0;
#X connect 13 0 4 0;
#X connect 14 0 4 1;
#X connect 15 0 4 2;
