#N canvas 57 64 353 396 10;
#X obj 219 96 line~;
#X obj 154 147 *~;
#X obj 114 310 outlet~;
#X obj 120 40 inlet;
#X obj 120 70 bng 15 250 50 0 empty empty empty 17 7 0 10 -262144 -1
-1;
#X obj 58 100 tri_wave;
#X obj 91 148 *~;
#X obj 153 191 lop~ 150;
#X obj 116 230 *~;
#X obj 90 191 lop~ 200;
#X msg 219 57 1 \, 0 180;
#X obj 58 41 inlet;
#X obj 115 274 *~ 0.3;
#X obj 126 101 phasor~;
#X connect 0 0 1 1;
#X connect 1 0 7 0;
#X connect 3 0 10 0;
#X connect 3 0 4 0;
#X connect 5 0 6 0;
#X connect 6 0 9 0;
#X connect 7 0 8 1;
#X connect 8 0 12 0;
#X connect 9 0 8 0;
#X connect 10 0 0 0;
#X connect 11 0 5 0;
#X connect 11 0 13 0;
#X connect 12 0 2 0;
#X connect 13 0 1 0;
#X connect 13 0 6 1;
