#N canvas 217 77 743 421 10;
#X obj 142 82 line~;
#X obj 77 133 *~;
#X obj 49 87 square~;
#X obj 75 255 outlet~;
#X obj 94 26 inlet;
#X obj 94 56 bng 15 250 50 0 empty empty empty 17 7 0 10 -262144 -1
-1;
#X obj 77 181 lop~ 200;
#X msg 142 43 1 \, 0 190;
#X obj 76 219 *~ 0.2;
#X connect 0 0 1 1;
#X connect 1 0 6 0;
#X connect 2 0 1 0;
#X connect 4 0 7 0;
#X connect 4 0 5 0;
#X connect 6 0 8 0;
#X connect 7 0 0 0;
#X connect 8 0 3 0;
