#N canvas 272 108 505 303 10;
#X obj 26 72 tempo;
#X obj 77 89 hradio 15 1 0 8 empty empty empty 0 -8 0 10 -262144 -1
-1 0;
#X obj 217 104 t b;
#X obj 165 197 outlet~;
#X obj 166 132 + 1;
#X obj 77 115 expr 500 / $f1;
#X obj 204 71 tempo;
#X obj 255 88 hradio 15 1 0 8 empty empty empty 0 -8 0 10 -262144 -1
-1 0;
#X obj 394 103 t b;
#X obj 342 196 outlet~;
#X obj 343 131 + 1;
#X obj 255 114 expr 500 / $f1;
#X obj 26 19 inlet;
#X obj 64 19 inlet;
#X obj 102 19 inlet;
#X obj 204 19 inlet;
#X obj 241 19 inlet;
#X obj 279 19 inlet;
#X floatatom 125 53 5 0 0 0 - - -;
#X floatatom 162 54 5 0 0 0 - - -;
#X obj 166 165 kick4_mod;
#X obj 343 165 kick4_mod;
#X connect 0 0 1 0;
#X connect 1 0 2 0;
#X connect 1 0 5 0;
#X connect 2 0 20 1;
#X connect 4 0 20 0;
#X connect 5 0 4 0;
#X connect 6 0 7 0;
#X connect 7 0 8 0;
#X connect 7 0 11 0;
#X connect 8 0 21 1;
#X connect 10 0 21 0;
#X connect 11 0 10 0;
#X connect 12 0 0 0;
#X connect 13 0 0 1;
#X connect 13 0 18 0;
#X connect 14 0 0 2;
#X connect 14 0 19 0;
#X connect 15 0 6 0;
#X connect 16 0 6 1;
#X connect 17 0 6 2;
#X connect 20 0 3 0;
#X connect 21 0 9 0;
