#N canvas 339 214 281 186 10;
#X obj 9 53 inlet;
#X obj 86 53 inlet;
#X obj 48 53 inlet;
#X text 8 36 State;
#X text 85 35 TSig;
#X text 48 35 Tempo;
#X obj 61 99 kick_mod_bank03;
#X obj 126 53 inlet;
#X obj 203 53 inlet;
#X obj 165 53 inlet;
#X text 125 36 State;
#X text 202 35 TSig;
#X text 165 35 Tempo;
#X obj 148 159 outlet~ kd3SND;
#X text 11 3 MAIN KICK UNIT 3;
#X connect 0 0 6 0;
#X connect 1 0 6 2;
#X connect 2 0 6 1;
#X connect 6 0 13 0;
#X connect 6 1 13 0;
#X connect 7 0 6 3;
#X connect 8 0 6 5;
#X connect 9 0 6 4;
