#N canvas 371 103 297 220 10;
#X obj 102 129 hh_mod_bank02;
#X obj 65 62 inlet;
#X obj 103 62 inlet;
#X obj 27 61 inlet;
#X obj 180 62 inlet;
#X obj 218 62 inlet;
#X obj 142 62 inlet;
#X text 25 42 State;
#X text 138 43 State;
#X text 217 44 TSig;
#X text 101 42 TSig;
#X text 64 42 Tempo;
#X text 177 43 Tempo;
#X text 23 6 MAIN HiHAT UNIT 2;
#X obj 177 181 outlet~ hh2SND;
#X connect 0 0 14 0;
#X connect 0 1 14 0;
#X connect 1 0 0 1;
#X connect 2 0 0 2;
#X connect 3 0 0 0;
#X connect 4 0 0 4;
#X connect 5 0 0 5;
#X connect 6 0 0 3;
