#N canvas 0 0 389 285 10;
#X obj 96 180 snare_mod_bank8X8;
#X obj 60 70 inlet;
#X obj 136 70 inlet;
#X obj 98 70 inlet;
#X text 58 50 State;
#X text 135 49 TSig;
#X text 97 49 Tempo;
#X obj 216 69 inlet;
#X obj 290 69 inlet;
#X obj 253 69 inlet;
#X text 214 48 State;
#X text 289 48 TSig;
#X text 251 48 Tempo;
#X obj 179 69 inlet;
#X obj 22 70 inlet;
#X text 22 52 Freq;
#X text 179 48 Freq;
#X text 21 16 MAIN SNARE UNIT 8X8;
#X obj 194 233 outlet~ sn8XND;
#X connect 0 0 18 0;
#X connect 0 1 18 0;
#X connect 1 0 0 1;
#X connect 2 0 0 3;
#X connect 3 0 0 2;
#X connect 7 0 0 5;
#X connect 8 0 0 7;
#X connect 9 0 0 6;
#X connect 13 0 0 4;
#X connect 14 0 0 0;
