#N canvas 250 186 281 186 10;
#X obj 61 99 kick_mod_bank02;
#X obj 148 159 outlet~ kd2SND;
#X obj 9 53 inlet;
#X obj 86 53 inlet;
#X obj 48 53 inlet;
#X text 8 36 State;
#X text 85 35 TSig;
#X text 48 35 Tempo;
#X obj 129 53 inlet;
#X obj 206 53 inlet;
#X obj 167 52 inlet;
#X text 128 35 State;
#X text 205 35 TSig;
#X text 166 35 Tempo;
#X text 11 3 MAIN KICK UNIT 2;
#X connect 0 0 1 0;
#X connect 0 1 1 0;
#X connect 2 0 0 0;
#X connect 3 0 0 2;
#X connect 4 0 0 1;
#X connect 8 0 0 3;
#X connect 9 0 0 5;
#X connect 10 0 0 4;
