#N canvas 55 103 300 219 10;
#X obj 90 126 hh_mod_bank01;
#X obj 25 60 inlet;
#X obj 99 60 inlet;
#X obj 62 60 inlet;
#X obj 141 60 inlet;
#X obj 214 60 inlet;
#X obj 177 60 inlet;
#X text 24 41 State;
#X text 140 40 State;
#X text 213 40 TSig;
#X text 97 40 TSig;
#X text 60 40 Tempo;
#X text 175 40 Tempo;
#X text 19 4 MAIN HiHAT UNIT 1;
#X obj 166 182 outlet~ hhSND;
#X connect 0 0 14 0;
#X connect 0 1 14 0;
#X connect 1 0 0 0;
#X connect 2 0 0 2;
#X connect 3 0 0 1;
#X connect 4 0 0 3;
#X connect 5 0 0 5;
#X connect 6 0 0 4;
