#N canvas 446 207 273 209 10;
#X obj 73 119 snare_mod_bank01;
#X obj 17 62 inlet;
#X obj 92 62 inlet;
#X obj 55 62 inlet;
#X obj 132 62 inlet;
#X obj 207 62 inlet;
#X obj 169 62 inlet;
#X text 16 43 State;
#X text 131 42 State;
#X text 206 42 TSig;
#X text 90 42 TSig;
#X text 53 42 Tempo;
#X text 167 42 Tempo;
#X text 13 6 MAIN SNARE UNIT 1;
#X obj 166 174 outlet~ snSND;
#X connect 0 0 14 0;
#X connect 0 1 14 0;
#X connect 1 0 0 0;
#X connect 2 0 0 2;
#X connect 3 0 0 1;
#X connect 4 0 0 3;
#X connect 5 0 0 5;
#X connect 6 0 0 4;
