#N canvas 162 210 276 206 10;
#X obj 49 106 snare_mod_bank02;
#X obj 11 47 inlet;
#X obj 87 47 inlet;
#X obj 49 47 inlet;
#X text 9 27 State;
#X text 86 26 TSig;
#X text 48 26 Tempo;
#X obj 129 47 inlet;
#X obj 203 47 inlet;
#X obj 166 47 inlet;
#X text 127 26 State;
#X text 202 26 TSig;
#X text 164 26 Tempo;
#X text 10 -7 MAIN SNARE UNIT 2;
#X obj 143 158 outlet~ sn2SND;
#X connect 0 0 14 0;
#X connect 0 1 14 0;
#X connect 1 0 0 0;
#X connect 2 0 0 2;
#X connect 3 0 0 1;
#X connect 7 0 0 3;
#X connect 8 0 0 5;
#X connect 9 0 0 4;
