#N canvas 17 160 965 224 10;
#X text 8 39 Kick;
#X text 194 39 Snare;
#X text 379 39 Hi Hat;
#X text 664 5 MASTERING;
#X obj 761 173 mix_rec;
#X obj 11 102 s~ kdSND;
#X obj 196 102 s~ snSND;
#X obj 380 102 s~ hhSND;
#X obj 657 38 r~ kdSND;
#X obj 774 43 r~ snSND;
#X obj 861 41 r~ hhSND;
#X obj 503 102 s~ hhoSND;
#X text 497 39 Open Hi Hat;
#X obj 862 95 r~ hhoSND;
#X obj 251 102 s~ sn2SND;
#X obj 788 68 r~ sn2SND;
#X obj 862 67 r~ hh2SND;
#X obj 436 102 s~ hh2SND;
#X obj 72 102 s~ kd2SND;
#X obj 686 63 r~ kd2SND;
#X obj 11 62 inlet~;
#X obj 72 62 inlet~;
#X obj 195 62 inlet~;
#X obj 251 62 inlet~;
#X obj 380 62 inlet~;
#X obj 436 62 inlet~;
#X obj 502 62 inlet~;
#X text 9 5 PERCUSSION SOUND / RYTHM BANK;
#X obj 82 134 inlet~;
#X obj 83 174 s~ kd3SND;
#X obj 710 83 r~ kd3SND;
#X obj 126 135 inlet~;
#X obj 144 174 s~ kd4SND;
#X obj 729 103 r~ kd4SND;
#X obj 312 62 inlet~;
#X obj 312 102 s~ sn8XND;
#X obj 797 89 r~ sn8XND;
#X obj 140 63 inlet~;
#X obj 133 103 s~ kd8XND;
#X obj 750 124 r~ kd8XND;
#X connect 8 0 4 0;
#X connect 9 0 4 5;
#X connect 10 0 4 8;
#X connect 13 0 4 10;
#X connect 15 0 4 6;
#X connect 16 0 4 9;
#X connect 19 0 4 1;
#X connect 20 0 5 0;
#X connect 21 0 18 0;
#X connect 22 0 6 0;
#X connect 23 0 14 0;
#X connect 24 0 7 0;
#X connect 25 0 17 0;
#X connect 26 0 11 0;
#X connect 28 0 29 0;
#X connect 30 0 4 2;
#X connect 31 0 32 0;
#X connect 33 0 4 3;
#X connect 34 0 35 0;
#X connect 36 0 4 7;
#X connect 37 0 38 0;
#X connect 39 0 4 4;
