#N canvas 593 88 295 185 10;
#X obj 84 88 kick_mod_bank01;
#X obj 171 149 outlet~ kdSND;
#X obj 17 42 inlet;
#X obj 93 42 inlet;
#X obj 55 42 inlet;
#X obj 136 42 inlet;
#X obj 214 41 inlet;
#X obj 175 42 inlet;
#X text 16 23 State;
#X text 135 22 State;
#X text 213 21 TSig;
#X text 91 23 TSig;
#X text 52 23 Tempo;
#X text 173 22 Tempo;
#X text 18 -9 MAIN KICK UNIT 1;
#X floatatom 17 120 5 0 0 0 - - -;
#X floatatom 55 121 5 0 0 0 - - -;
#X connect 0 0 1 0;
#X connect 0 1 1 0;
#X connect 2 0 0 0;
#X connect 3 0 0 2;
#X connect 3 0 16 0;
#X connect 4 0 0 1;
#X connect 4 0 15 0;
#X connect 5 0 0 3;
#X connect 6 0 0 5;
#X connect 7 0 0 4;
