#N canvas 116 86 291 223 10;
#X obj 19 63 inlet;
#X obj 96 63 inlet;
#X obj 58 63 inlet;
#X text 18 46 State;
#X text 95 45 TSig;
#X text 58 45 Tempo;
#X obj 136 63 inlet;
#X obj 213 63 inlet;
#X obj 175 63 inlet;
#X text 135 46 State;
#X text 212 45 TSig;
#X text 175 45 Tempo;
#X text 21 13 MAIN KICK UNIT 4;
#X obj 71 109 kick_mod_bank04;
#X obj 158 170 outlet~ kd4SND;
#X connect 0 0 13 0;
#X connect 1 0 13 2;
#X connect 2 0 13 1;
#X connect 6 0 13 3;
#X connect 7 0 13 5;
#X connect 8 0 13 4;
#X connect 13 0 14 0;
#X connect 13 1 14 0;
