#N canvas 112 149 497 344 10;
#X obj 46 123 phasor~;
#X msg 130 68 0;
#X msg 171 71 0.5;
#X obj 100 266 -~ 1;
#X obj 100 319 outlet~;
#X text 171 3 Phase Synchronisation;
#X obj 114 156 *~ -1;
#X obj 201 124 osc~;
#X msg 222 70 0.75;
#X obj 201 152 *~ -1;
#X obj 99 240 *~;
#X floatatom 110 36 5 0 0 0 - - -;
#X obj 58 154 *~ 1;
#X obj 113 124 osc~;
#X obj 161 107 +~ 1;
#X obj 114 193 +~;
#X obj 58 192 -~;
#X obj 94 69 *~ 1;
#X obj 57 68 +~ -1;
#X obj 170 21 inlet bang;
#X obj 46 19 inlet;
#X obj 239 124 noise~;
#X obj 200 177 lop~ 220;
#X connect 0 0 12 0;
#X connect 1 0 0 1;
#X connect 2 0 13 1;
#X connect 3 0 4 0;
#X connect 6 0 15 0;
#X connect 6 0 16 1;
#X connect 7 0 9 0;
#X connect 8 0 7 1;
#X connect 9 0 22 0;
#X connect 10 0 3 0;
#X connect 12 0 16 0;
#X connect 13 0 6 0;
#X connect 14 0 7 0;
#X connect 15 0 10 1;
#X connect 16 0 10 0;
#X connect 17 0 14 0;
#X connect 18 0 13 0;
#X connect 19 0 1 0;
#X connect 19 0 2 0;
#X connect 19 0 8 0;
#X connect 20 0 0 0;
#X connect 20 0 18 0;
#X connect 20 0 17 0;
#X connect 20 0 11 0;
#X connect 22 0 15 1;
