#N canvas 92 50 680 411 10;
#X obj 121 110 line~;
#X obj 42 110 noise~;
#X obj 56 167 *~;
#X obj 340 110 line~;
#X obj 261 110 noise~;
#X obj 275 167 *~;
#X obj 55 195 *~ 0.1;
#X obj 225 36 inlet;
#X obj 141 284 outlet~;
#X obj 274 236 lop~ 398;
#X obj 140 211 lop~ 396;
#X msg 121 67 1 \, 0 40;
#X msg 339 67 1 \, 0 60;
#X obj 141 252 *~ 0.5;
#X connect 0 0 2 1;
#X connect 1 0 2 0;
#X connect 2 0 6 0;
#X connect 3 0 5 1;
#X connect 4 0 5 0;
#X connect 5 0 9 0;
#X connect 6 0 10 0;
#X connect 7 0 11 0;
#X connect 7 0 12 0;
#X connect 9 0 13 0;
#X connect 10 0 13 0;
#X connect 11 0 0 0;
#X connect 12 0 3 0;
#X connect 13 0 8 0;
