#N canvas 104 110 426 187 10;
#X obj 28 72 tempo;
#X obj 77 89 hradio 15 1 0 8 empty empty empty 0 -8 0 10 -262144 -1
-1 0;
#X obj 77 105 t b;
#X obj 212 71 tempo;
#X obj 262 88 hradio 15 1 0 8 empty empty empty 0 -8 0 10 -262144 -1
-1 0;
#X obj 262 104 t b;
#X obj 76 154 outlet~;
#X obj 261 155 outlet~;
#X obj 77 123 sngam_mod;
#X obj 262 122 sngam_mod;
#X obj 28 27 inlet;
#X obj 65 27 inlet;
#X obj 103 27 inlet;
#X obj 212 27 inlet;
#X obj 249 27 inlet;
#X obj 287 27 inlet;
#X connect 0 0 1 0;
#X connect 1 0 2 0;
#X connect 2 0 8 0;
#X connect 3 0 4 0;
#X connect 4 0 5 0;
#X connect 5 0 9 0;
#X connect 8 0 6 0;
#X connect 9 0 7 0;
#X connect 10 0 0 0;
#X connect 11 0 0 1;
#X connect 12 0 0 2;
#X connect 13 0 3 0;
#X connect 14 0 3 1;
#X connect 15 0 3 2;
