#N canvas 317 100 625 406 10;
#X obj 81 120 noise~;
#X obj 548 238 line~;
#X obj 548 58 inlet;
#X obj 322 305 outlet~;
#X obj 321 254 *~;
#X obj 320 137 *~ 0.1;
#X obj 321 280 *~ 0.1;
#X obj 321 222 *~ 0.2;
#X obj 566 85 bng 15 250 50 0 empty empty empty 17 7 0 10 -262144 -1
-1;
#X msg 548 200 1 \, 0 70;
#X obj 321 191 hip~ 50;
#X obj 73 16 square~ 293.67;
#X obj 163 34 square~ 311.13;
#X obj 222 56 square~ 349.23;
#X obj 311 17 square~ 415.3;
#X obj 332 38 square~ 440;
#X obj 355 58 square~ 466.16;
#X obj 451 58 square~ 523.25;
#X connect 0 0 5 0;
#X connect 0 0 10 0;
#X connect 1 0 4 1;
#X connect 2 0 9 0;
#X connect 2 0 8 0;
#X connect 4 0 6 0;
#X connect 5 0 10 0;
#X connect 6 0 3 0;
#X connect 7 0 4 0;
#X connect 9 0 1 0;
#X connect 10 0 7 0;
#X connect 11 0 5 0;
#X connect 12 0 5 0;
#X connect 13 0 5 0;
#X connect 14 0 5 0;
#X connect 15 0 5 0;
#X connect 16 0 5 0;
#X connect 17 0 5 0;
