#N canvas 425 131 467 375 10;
#X obj 22 230 f;
#X obj 22 262 counter;
#X obj 22 291 mod 8;
#X obj 22 199 metro;
#X obj 22 25 inlet;
#X obj 66 24 inlet;
#X obj 22 321 outlet;
#X obj 176 16 inlet;
#X obj 22 91 tgl 15 0 empty empty empty 17 7 0 10 -262144 -1 -1 1 1
;
#X floatatom 105 70 5 0 0 0 - - tempoRounded;
#X floatatom 30 116 5 0 0 0 - - -;
#X obj 66 99 expr 60000 / $f1;
#X msg 176 100 0.25;
#X msg 215 99 0.5;
#X obj 154 151 *;
#X floatatom 154 183 5 0 0 0 - - -;
#X msg 253 99 0.75;
#X msg 292 99 1;
#X obj 176 51 sel 0 1 2 3;
#X floatatom 328 41 5 0 0 0 - - -;
#X floatatom 328 75 5 0 0 0 - - -;
#X obj 328 57 expr $f1 > 0;
#X obj 66 53 i;
#X connect 0 0 1 0;
#X connect 1 0 2 0;
#X connect 2 0 6 0;
#X connect 3 0 0 0;
#X connect 4 0 8 0;
#X connect 5 0 22 0;
#X connect 7 0 18 0;
#X connect 8 0 3 0;
#X connect 11 0 10 0;
#X connect 11 0 14 0;
#X connect 12 0 14 1;
#X connect 13 0 14 1;
#X connect 14 0 15 0;
#X connect 15 0 3 1;
#X connect 16 0 14 1;
#X connect 17 0 14 1;
#X connect 18 0 12 0;
#X connect 18 1 13 0;
#X connect 18 2 16 0;
#X connect 18 3 17 0;
#X connect 19 0 21 0;
#X connect 21 0 20 0;
#X connect 22 0 11 0;
#X connect 22 0 9 0;
