#N canvas 452 82 450 300 10;
#X obj 91 25 inlet;
#X obj 48 206 outlet;
#X obj 117 107 + 1;
#X obj 48 25 inlet;
#X obj 48 147 expr $f1 / $f2;
#X floatatom 73 179 5 0 0 0 - - -;
#X obj 90 61 select 0 1 2 3;
#X connect 0 0 6 0;
#X connect 2 0 4 0;
#X connect 3 0 4 0;
#X connect 4 0 1 0;
#X connect 4 0 5 0;
#X connect 6 0 2 0;
#X connect 6 1 2 0;
#X connect 6 2 2 0;
#X connect 6 3 2 0;
