#N canvas 0 25 487 390 10;
#X obj 30 23 inlet;
#X floatatom 30 80 5 0 0 0 - - -;
#X obj 30 137 phasor~;
#X obj 105 135 phasor~;
#X text 104 79 Phase Synchronisation;
#X obj 28 246 clip~ 0 1;
#X obj 104 247 clip~ 0 1;
#X obj 85 280 +~;
#X obj 61 106 * -1;
#X obj 31 211 -~ -1;
#X obj 104 212 -~ -1;
#X obj 31 175 *~ -2;
#X obj 105 173 *~ -2;
#X text 67 21 comment;
#X obj 85 341 outlet~;
#X msg 105 97 0;
#X connect 0 0 1 0;
#X connect 1 0 2 0;
#X connect 1 0 8 0;
#X connect 2 0 11 0;
#X connect 3 0 12 0;
#X connect 5 0 7 0;
#X connect 6 0 7 1;
#X connect 7 0 14 0;
#X connect 8 0 3 0;
#X connect 9 0 5 0;
#X connect 10 0 6 0;
#X connect 11 0 9 0;
#X connect 12 0 10 0;
#X connect 15 0 2 1;
#X connect 15 0 3 0;
