#N canvas 7 -2 670 500 10;
#X obj 340 -112 tgl 15 0 empty empty empty 17 7 0 10 -262144 -1 -1
1 1;
#X obj 340 -86 metro 125;
#X obj 340 -57 counter;
#X obj 340 -26 mod 8;
#X floatatom 338 25 5 0 0 0 - - -;
#N canvas 198 78 742 355 bpmNoteChngr 1;
#X obj 97 119 t b f;
#X obj 85 147 6000;
#X obj 112 170 /;
#X obj 119 198 int;
#X floatatom 134 225 5 0 0 0 - - -;
#X msg 183 190 1;
#X msg 170 168 0.5;
#X obj 160 251 *;
#X msg 163 148 0.25;
#X msg 190 211 1.5;
#X text 198 150 1/ 16;
#X text 204 168 1/8;
#X text 214 191 1/4;
#X text 218 214 . 1/4;
#X obj 170 39 t b f;
#X obj 167 90 sel 0 1 2 3;
#X floatatom 158 276 5 0 0 0 - - -;
#X floatatom 91 39 5 0 0 0 - - -;
#X obj 85 90 int;
#X obj 61 66 bng 15 250 50 0 empty empty empty 17 7 0 10 -262144 -1
-1;
#X obj 64 9 inlet;
#X obj 170 4 inlet;
#X text 65 -9 BPM;
#X obj 157 299 outlet;
#X msg 273 190 1;
#X msg 260 168 0.5;
#X msg 253 148 0.25;
#X msg 280 211 1.5;
#X text 284 149 1/ 16;
#X text 293 168 1/8;
#X text 301 191 1/4;
#X text 304 214 . 1/4;
#X obj 262 39 t b f;
#X obj 257 90 sel 0 1 2 3;
#X obj 262 4 inlet;
#X obj 238 252 *;
#X floatatom 238 276 5 0 0 0 - - -;
#X obj 237 299 outlet;
#X text 169 -16 BD Note;
#X text 260 -16 SD Note;
#X msg 352 191 1;
#X msg 339 169 0.5;
#X msg 332 149 0.25;
#X msg 359 212 1.5;
#X text 363 150 1/ 16;
#X text 372 169 1/8;
#X text 380 192 1/4;
#X text 383 215 . 1/4;
#X obj 341 40 t b f;
#X obj 336 91 sel 0 1 2 3;
#X obj 341 5 inlet;
#X text 337 -15 CHH Note;
#X obj 321 254 *;
#X floatatom 321 278 5 0 0 0 - - -;
#X obj 320 301 outlet;
#X msg 429 191 1;
#X msg 416 169 0.5;
#X msg 409 149 0.25;
#X msg 436 212 1.5;
#X text 440 150 1/ 16;
#X text 449 169 1/8;
#X text 457 192 1/4;
#X text 460 215 . 1/4;
#X obj 418 40 t b f;
#X obj 413 91 sel 0 1 2 3;
#X obj 418 5 inlet;
#X text 416 -15 OHH Note;
#X obj 399 247 *;
#X floatatom 399 271 5 0 0 0 - - -;
#X obj 398 294 outlet;
#X msg 504 188 1;
#X msg 491 166 0.5;
#X msg 484 146 0.25;
#X msg 511 209 1.5;
#X text 515 147 1/ 16;
#X text 524 166 1/8;
#X text 532 189 1/4;
#X text 535 212 . 1/4;
#X obj 493 37 t b f;
#X obj 488 88 sel 0 1 2 3;
#X obj 493 2 inlet;
#X obj 473 251 *;
#X floatatom 473 275 5 0 0 0 - - -;
#X obj 472 298 outlet;
#X msg 581 188 1;
#X msg 568 166 0.5;
#X msg 561 146 0.25;
#X msg 588 209 1.5;
#X text 592 147 1/ 16;
#X text 601 166 1/8;
#X text 609 189 1/4;
#X text 612 212 . 1/4;
#X obj 570 37 t b f;
#X obj 565 88 sel 0 1 2 3;
#X obj 570 2 inlet;
#X obj 551 244 *;
#X floatatom 551 268 5 0 0 0 - - -;
#X obj 550 291 outlet;
#X text 480 196;
#X text 489 -18 HC Note;
#X text 568 -19 KD Note;
#X connect 0 0 1 0;
#X connect 0 1 2 1;
#X connect 1 0 2 0;
#X connect 2 0 3 0;
#X connect 3 0 4 0;
#X connect 4 0 7 0;
#X connect 4 0 35 0;
#X connect 4 0 52 0;
#X connect 4 0 67 0;
#X connect 4 0 81 0;
#X connect 4 0 95 0;
#X connect 5 0 7 1;
#X connect 6 0 7 1;
#X connect 7 0 16 0;
#X connect 8 0 7 1;
#X connect 9 0 7 1;
#X connect 14 0 18 0;
#X connect 14 1 15 0;
#X connect 15 0 8 0;
#X connect 15 1 6 0;
#X connect 15 2 5 0;
#X connect 15 3 9 0;
#X connect 16 0 23 0;
#X connect 17 0 19 0;
#X connect 17 0 18 1;
#X connect 18 0 0 0;
#X connect 19 0 18 0;
#X connect 20 0 17 0;
#X connect 21 0 14 0;
#X connect 24 0 35 1;
#X connect 25 0 35 1;
#X connect 26 0 35 1;
#X connect 27 0 35 1;
#X connect 32 0 18 0;
#X connect 32 1 33 0;
#X connect 33 0 26 0;
#X connect 33 1 25 0;
#X connect 33 2 24 0;
#X connect 33 3 27 0;
#X connect 34 0 32 0;
#X connect 35 0 36 0;
#X connect 36 0 37 0;
#X connect 40 0 52 1;
#X connect 41 0 52 1;
#X connect 42 0 52 1;
#X connect 43 0 52 1;
#X connect 48 0 18 0;
#X connect 48 1 49 0;
#X connect 49 0 42 0;
#X connect 49 1 41 0;
#X connect 49 2 40 0;
#X connect 49 3 43 0;
#X connect 50 0 48 0;
#X connect 52 0 53 0;
#X connect 53 0 54 0;
#X connect 55 0 67 1;
#X connect 56 0 67 1;
#X connect 57 0 67 1;
#X connect 58 0 67 1;
#X connect 63 0 18 0;
#X connect 63 1 64 0;
#X connect 64 0 57 0;
#X connect 64 1 56 0;
#X connect 64 2 55 0;
#X connect 64 3 58 0;
#X connect 65 0 63 0;
#X connect 67 0 68 0;
#X connect 68 0 69 0;
#X connect 70 0 81 1;
#X connect 71 0 81 1;
#X connect 72 0 81 1;
#X connect 73 0 81 1;
#X connect 78 0 18 0;
#X connect 78 1 79 0;
#X connect 79 0 72 0;
#X connect 79 1 71 0;
#X connect 79 2 70 0;
#X connect 79 3 73 0;
#X connect 80 0 78 0;
#X connect 81 0 82 0;
#X connect 82 0 83 0;
#X connect 84 0 95 1;
#X connect 85 0 95 1;
#X connect 86 0 95 1;
#X connect 87 0 95 1;
#X connect 92 0 18 0;
#X connect 92 1 93 0;
#X connect 93 0 86 0;
#X connect 93 1 85 0;
#X connect 93 2 84 0;
#X connect 93 3 87 0;
#X connect 94 0 92 0;
#X connect 95 0 96 0;
#X connect 96 0 97 0;
#X restore 441 1 pd bpmNoteChngr;
#X obj 464 -72 vradio 15 1 0 4 empty empty empty 0 -8 0 10 -262144
-1 -1 2;
#X obj 413 -104 nbx 3 20 -1e+037 1e+037 0 0 empty empty empty 0 -8
0 10 -262144 -1 -1 4 256;
#X obj 460 69 hradio 15 1 0 8 empty empty empty 0 -8 0 10 -262144 -1
-1 1;
#X obj 373 41 bng 15 250 50 0 empty empty empty 17 7 0 10 -262144 -1
-1;
#X obj 329 1 + 70;
#X obj 227 332 dac~ 1 2;
#X floatatom 403 25 5 0 0 0 - - -;
#X obj 537 84 bng 15 250 50 0 empty empty empty 17 7 0 10 -262144 -1
-1;
#X msg 377 146 open C:/Joseph/audioTR909/BD.wav \, 1;
#X obj 388 276 readsf~;
#X obj 364 4 nbx 3 14 -1e+037 1e+037 0 0 bdPlay empty empty 0 -8 0
10 -262144 -1 -1 1 256;
#X obj 460 44 r bdPlay;
#X obj 267 -86 metro 125;
#X obj 267 -57 counter;
#X obj 267 -26 mod 8;
#X floatatom 265 25 5 0 0 0 - - -;
#X obj 300 41 bng 15 250 50 0 empty empty empty 17 7 0 10 -262144 -1
-1;
#X obj 256 1 + 70;
#X obj 267 -111 tgl 15 0 empty empty empty 17 7 0 10 -262144 -1 -1
1 1;
#X obj 289 1 nbx 3 14 -1e+037 1e+037 0 0 snPlay empty empty 0 -8 0
10 -262144 -1 -1 5 256;
#X obj 401 89 hradio 15 1 0 8 empty empty empty 0 -8 0 10 -262144 -1
-1 5;
#X obj 476 104 bng 15 250 50 0 empty empty empty 17 7 0 10 -262144
-1 -1;
#X obj 332 274 readsf~;
#X msg 323 166 open C:/Joseph/audioTR909/SD.wav \, 1;
#X obj 401 63 r snPlay;
#X obj 191 -85 metro 125;
#X obj 191 -56 counter;
#X obj 191 -25 mod 8;
#X floatatom 189 26 5 0 0 0 - - -;
#X obj 224 42 bng 15 250 50 0 empty empty empty 17 7 0 10 -262144 -1
-1;
#X obj 180 2 + 70;
#X obj 191 -110 tgl 15 0 empty empty empty 17 7 0 10 -262144 -1 -1
1 1;
#X obj 213 2 nbx 3 14 -1e+037 1e+037 0 0 chhPlay empty empty 0 -8 0
10 -262144 -1 -1 1 256;
#X obj 341 108 hradio 15 1 0 8 empty empty empty 0 -8 0 10 -262144
-1 -1 1;
#X obj 417 123 bng 15 250 50 0 empty empty empty 17 7 0 10 -262144
-1 -1;
#X obj 277 272 readsf~;
#X msg 285 187 open C:/Joseph/audioTR909/CHH.wav \, 1;
#X obj 341 84 r chhPlay;
#X obj 117 -85 metro 125;
#X obj 117 -56 counter;
#X obj 117 -25 mod 8;
#X floatatom 115 26 5 0 0 0 - - -;
#X obj 150 42 bng 15 250 50 0 empty empty empty 17 7 0 10 -262144 -1
-1;
#X obj 106 2 + 70;
#X obj 117 -109 tgl 15 0 empty empty empty 17 7 0 10 -262144 -1 -1
0 1;
#X obj 139 2 nbx 3 14 -1e+037 1e+037 0 0 ohhPlay empty empty 0 -8 0
10 -262144 -1 -1 0 256;
#X obj 281 127 hradio 15 1 0 8 empty empty empty 0 -8 0 10 -262144
-1 -1 0;
#X obj 356 142 bng 15 250 50 0 empty empty empty 17 7 0 10 -262144
-1 -1;
#X obj 220 276 readsf~;
#X obj 281 104 r ohhPlay;
#X obj 482 -72 vradio 15 1 0 4 empty empty empty 0 -8 0 10 -262144
-1 -1 2;
#X obj 518 -72 vradio 15 1 0 4 empty empty empty 0 -8 0 10 -262144
-1 -1 3;
#X obj 500 -72 vradio 15 1 0 4 empty empty empty 0 -8 0 10 -262144
-1 -1 0;
#X msg 253 207 open C:/Joseph/audioTR909/OHH.wav \, 1;
#X obj 44 -84 metro 125;
#X obj 44 -55 counter;
#X obj 44 -24 mod 8;
#X floatatom 42 27 5 0 0 0 - - -;
#X obj 77 43 bng 15 250 50 0 empty empty empty 17 7 0 10 -262144 -1
-1;
#X obj 33 3 + 70;
#X obj 44 -109 tgl 15 0 empty empty empty 17 7 0 10 -262144 -1 -1 1
1;
#X obj 66 3 nbx 3 14 -1e+037 1e+037 0 0 hcPlay empty empty 0 -8 0 10
-262144 -1 -1 1 256;
#X obj -30 -84 metro 125;
#X obj -30 -55 counter;
#X obj -30 -24 mod 8;
#X floatatom -32 27 5 0 0 0 - - -;
#X obj 3 43 bng 15 250 50 0 empty empty empty 17 7 0 10 -262144 -1
-1;
#X obj -41 3 + 70;
#X obj -30 -109 tgl 15 0 empty empty empty 17 7 0 10 -262144 -1 -1
1 1;
#X obj -8 3 nbx 3 14 -1e+037 1e+037 0 0 kdPlay empty empty 0 -8 0 10
-262144 -1 -1 0 256;
#X obj 554 -72 vradio 15 1 0 4 empty empty empty 0 -8 0 10 -262144
-1 -1 0;
#X obj 536 -72 vradio 15 1 0 4 empty empty empty 0 -8 0 10 -262144
-1 -1 3;
#X obj 221 146 hradio 15 1 0 8 empty empty empty 0 -8 0 10 -262144
-1 -1 1;
#X obj 161 166 hradio 15 1 0 8 empty empty empty 0 -8 0 10 -262144
-1 -1 0;
#X obj 237 181 bng 15 250 50 0 empty empty empty 17 7 0 10 -262144
-1 -1;
#X obj 296 161 bng 15 250 50 0 empty empty empty 17 7 0 10 -262144
-1 -1;
#X obj 168 276 readsf~;
#X obj 113 277 readsf~;
#X msg 214 228 open C:/Joseph/audioTR909/HC.wav \, 1;
#X obj 221 122 r hcPlay;
#X obj 161 141 r kdPlay;
#X msg 190 249 open C:/Joseph/audioTR909/Kick05.wav \, 1;
#X text 410 -121 SET BPM;
#X text 463 -90 BD;
#X text 356 -117 BD;
#X text 480 -91 SD;
#X text 282 -117 SD;
#X text 496 -91 CHH;
#X text 515 -91 OHH;
#X text 535 -91 HC;
#X text 551 -91 KD;
#X text 206 -116 CHH;
#X text 132 -116 OHH;
#X text 60 -114 HC;
#X text -13 -114 KD;
#X connect 0 0 1 0;
#X connect 1 0 2 0;
#X connect 2 0 3 0;
#X connect 3 0 10 0;
#X connect 3 0 16 0;
#X connect 4 0 9 0;
#X connect 5 0 1 1;
#X connect 5 0 12 0;
#X connect 5 1 18 1;
#X connect 5 2 31 1;
#X connect 5 3 44 1;
#X connect 5 4 60 1;
#X connect 5 5 68 1;
#X connect 6 0 5 1;
#X connect 7 0 5 0;
#X connect 8 0 13 0;
#X connect 10 0 4 0;
#X connect 13 0 14 0;
#X connect 14 0 15 0;
#X connect 15 0 11 0;
#X connect 15 0 11 1;
#X connect 17 0 8 0;
#X connect 18 0 19 0;
#X connect 19 0 20 0;
#X connect 20 0 23 0;
#X connect 20 0 25 0;
#X connect 21 0 22 0;
#X connect 23 0 21 0;
#X connect 24 0 18 0;
#X connect 26 0 27 0;
#X connect 27 0 29 0;
#X connect 28 0 11 0;
#X connect 28 0 11 1;
#X connect 29 0 28 0;
#X connect 30 0 26 0;
#X connect 31 0 32 0;
#X connect 32 0 33 0;
#X connect 33 0 36 0;
#X connect 33 0 38 0;
#X connect 34 0 35 0;
#X connect 36 0 34 0;
#X connect 37 0 31 0;
#X connect 39 0 40 0;
#X connect 40 0 42 0;
#X connect 41 0 11 0;
#X connect 41 0 11 1;
#X connect 42 0 41 0;
#X connect 43 0 39 0;
#X connect 44 0 45 0;
#X connect 45 0 46 0;
#X connect 46 0 49 0;
#X connect 46 0 51 0;
#X connect 47 0 48 0;
#X connect 49 0 47 0;
#X connect 50 0 44 0;
#X connect 52 0 53 0;
#X connect 53 0 59 0;
#X connect 54 0 11 0;
#X connect 54 0 11 1;
#X connect 55 0 52 0;
#X connect 56 0 5 2;
#X connect 57 0 5 4;
#X connect 58 0 5 3;
#X connect 59 0 54 0;
#X connect 60 0 61 0;
#X connect 61 0 62 0;
#X connect 62 0 65 0;
#X connect 62 0 67 0;
#X connect 63 0 64 0;
#X connect 65 0 63 0;
#X connect 66 0 60 0;
#X connect 68 0 69 0;
#X connect 69 0 70 0;
#X connect 70 0 73 0;
#X connect 70 0 75 0;
#X connect 71 0 72 0;
#X connect 73 0 71 0;
#X connect 74 0 68 0;
#X connect 76 0 5 6;
#X connect 77 0 5 5;
#X connect 78 0 81 0;
#X connect 79 0 80 0;
#X connect 80 0 87 0;
#X connect 81 0 84 0;
#X connect 82 0 11 0;
#X connect 82 0 11 1;
#X connect 83 0 11 0;
#X connect 83 0 11 1;
#X connect 84 0 82 0;
#X connect 85 0 78 0;
#X connect 86 0 79 0;
#X connect 87 0 83 0;
