#N canvas 7 0 896 500 10;
#X obj 340 -112 tgl 15 0 empty empty empty 17 7 0 10 -262144 -1 -1
0 1;
#X obj 340 -86 metro 125;
#X obj 340 -57 counter;
#X obj 340 -26 mod 8;
#X floatatom 338 25 5 0 0 0 - - -;
#N canvas 146 78 794 355 bpmNoteChngr 0;
#X obj 50 102 t b f;
#X obj 38 130 6000;
#X obj 65 153 /;
#X obj 72 181 int;
#X floatatom 72 213 5 0 0 0 - - -;
#X msg 140 160 1;
#X msg 127 138 0.5;
#X obj 111 244 *;
#X msg 120 118 0.25;
#X msg 146 181 1.5;
#X text 155 120 1/ 16;
#X text 161 138 1/8;
#X text 171 161 1/4;
#X text 170 183 . 1/4;
#X obj 116 27 t b f;
#X floatatom 111 269 5 0 0 0 - - -;
#X floatatom 44 32 5 0 0 0 - - -;
#X obj 37 73 int;
#X obj 13 48 bng 15 250 50 0 empty empty empty 17 7 0 10 -262144 -1
-1;
#X obj 17 2 inlet;
#X obj 123 -3 inlet;
#X text 18 -16 BPM;
#X obj 110 292 outlet;
#X msg 230 160 1;
#X msg 217 138 0.5;
#X msg 210 118 0.25;
#X msg 237 181 1.5;
#X text 241 119 1/ 16;
#X text 250 138 1/8;
#X text 258 161 1/4;
#X text 260 184 . 1/4;
#X obj 215 32 t b f;
#X obj 215 -3 inlet;
#X obj 191 245 *;
#X floatatom 191 269 5 0 0 0 - - -;
#X obj 190 292 outlet;
#X text 122 -23 BD Note;
#X text 213 -23 SD Note;
#X msg 309 161 1;
#X msg 296 139 0.5;
#X msg 289 119 0.25;
#X msg 316 182 1.5;
#X text 320 120 1/ 16;
#X text 329 139 1/8;
#X text 337 162 1/4;
#X text 340 185 . 1/4;
#X obj 294 33 t b f;
#X obj 294 -2 inlet;
#X text 290 -22 CHH Note;
#X obj 274 247 *;
#X floatatom 274 271 5 0 0 0 - - -;
#X obj 273 294 outlet;
#X msg 386 161 1;
#X msg 373 139 0.5;
#X msg 366 119 0.25;
#X msg 393 182 1.5;
#X text 397 120 1/ 16;
#X text 406 139 1/8;
#X text 414 162 1/4;
#X text 417 185 . 1/4;
#X obj 371 33 t b f;
#X obj 371 -2 inlet;
#X text 369 -22 OHH Note;
#X obj 352 240 *;
#X floatatom 352 264 5 0 0 0 - - -;
#X obj 351 287 outlet;
#X msg 461 158 1;
#X msg 448 136 0.5;
#X msg 441 116 0.25;
#X msg 468 179 1.5;
#X text 472 117 1/ 16;
#X text 481 136 1/8;
#X text 489 159 1/4;
#X text 492 182 . 1/4;
#X obj 446 30 t b f;
#X obj 446 -5 inlet;
#X obj 430 246 *;
#X floatatom 430 270 5 0 0 0 - - -;
#X obj 429 293 outlet;
#X msg 538 158 1;
#X msg 525 136 0.5;
#X msg 518 116 0.25;
#X msg 545 179 1.5;
#X text 549 117 1/ 16;
#X text 558 136 1/8;
#X text 566 159 1/4;
#X text 569 182 . 1/4;
#X obj 524 30 t b f;
#X obj 524 -5 inlet;
#X obj 508 241 *;
#X floatatom 508 268 5 0 0 0 - - -;
#X obj 507 291 outlet;
#X text 442 -25 HC Note;
#X text 522 -26 KD Note;
#X msg 154 202 2;
#X msg 240 202 2;
#X msg 323 204 2;
#X msg 398 203 2;
#X msg 472 201 2;
#X msg 551 201 2;
#X text 181 204 1/2;
#X text 267 205 1/2;
#X text 347 205 1/2;
#X text 423 204 1/2;
#X text 496 202 1/2;
#X text 576 203 1/2;
#X obj 86 73 sel 0 1 2 3 4;
#X obj 173 73 sel 0 1 2 3 4;
#X obj 261 73 sel 0 1 2 3 4;
#X obj 348 73 sel 0 1 2 3 4;
#X obj 435 73 sel 0 1 2 3 4;
#X obj 523 73 sel 0 1 2 3 4;
#X msg 637 158 1;
#X msg 624 136 0.5;
#X msg 617 116 0.25;
#X msg 644 179 1.5;
#X text 648 117 1/ 16;
#X text 657 136 1/8;
#X text 665 159 1/4;
#X text 668 182 . 1/4;
#X obj 609 31 t b f;
#X obj 609 -4 inlet;
#X obj 592 238 *;
#X floatatom 592 262 5 0 0 0 - - -;
#X obj 591 285 outlet;
#X msg 714 158 1;
#X msg 701 136 0.5;
#X msg 694 116 0.25;
#X msg 721 179 1.5;
#X text 725 117 1/ 16;
#X text 734 136 1/8;
#X text 742 159 1/4;
#X text 745 182 . 1/4;
#X obj 687 31 t b f;
#X obj 687 -4 inlet;
#X obj 663 231 *;
#X floatatom 663 255 5 0 0 0 - - -;
#X obj 662 278 outlet;
#X msg 648 201 2;
#X msg 727 201 2;
#X text 672 202 1/2;
#X text 752 203 1/2;
#X obj 611 73 sel 0 1 2 3 4;
#X obj 699 73 sel 0 1 2 3 4;
#X text 593 185 comment;
#X text 599 204 comment;
#X text 547 249 comment;
#X text 605 -24 CL Note;
#X text 685 -25 RS Note;
#X connect 0 0 1 0;
#X connect 0 1 2 1;
#X connect 1 0 2 0;
#X connect 2 0 3 0;
#X connect 3 0 4 0;
#X connect 4 0 7 0;
#X connect 4 0 33 0;
#X connect 4 0 49 0;
#X connect 4 0 63 0;
#X connect 4 0 76 0;
#X connect 4 0 89 0;
#X connect 4 0 122 0;
#X connect 4 0 135 0;
#X connect 5 0 7 1;
#X connect 6 0 7 1;
#X connect 7 0 15 0;
#X connect 8 0 7 1;
#X connect 9 0 7 1;
#X connect 14 0 17 0;
#X connect 14 1 106 0;
#X connect 15 0 22 0;
#X connect 16 0 18 0;
#X connect 16 0 17 1;
#X connect 17 0 0 0;
#X connect 18 0 17 0;
#X connect 19 0 16 0;
#X connect 20 0 14 0;
#X connect 23 0 33 1;
#X connect 24 0 33 1;
#X connect 25 0 33 1;
#X connect 26 0 33 1;
#X connect 31 0 17 0;
#X connect 31 1 107 0;
#X connect 32 0 31 0;
#X connect 33 0 34 0;
#X connect 34 0 35 0;
#X connect 38 0 49 1;
#X connect 39 0 49 1;
#X connect 40 0 49 1;
#X connect 41 0 49 1;
#X connect 46 0 17 0;
#X connect 46 1 108 0;
#X connect 47 0 46 0;
#X connect 49 0 50 0;
#X connect 50 0 51 0;
#X connect 52 0 63 1;
#X connect 53 0 63 1;
#X connect 54 0 63 1;
#X connect 55 0 63 1;
#X connect 60 0 17 0;
#X connect 60 1 109 0;
#X connect 61 0 60 0;
#X connect 63 0 64 0;
#X connect 64 0 65 0;
#X connect 66 0 76 1;
#X connect 67 0 76 1;
#X connect 68 0 76 1;
#X connect 69 0 76 1;
#X connect 74 0 17 0;
#X connect 74 1 110 0;
#X connect 75 0 74 0;
#X connect 76 0 77 0;
#X connect 77 0 78 0;
#X connect 79 0 89 1;
#X connect 80 0 89 1;
#X connect 81 0 89 1;
#X connect 82 0 89 1;
#X connect 87 0 17 0;
#X connect 87 1 111 0;
#X connect 88 0 87 0;
#X connect 89 0 90 0;
#X connect 90 0 91 0;
#X connect 94 0 7 1;
#X connect 95 0 33 1;
#X connect 96 0 49 1;
#X connect 97 0 63 1;
#X connect 98 0 76 1;
#X connect 99 0 89 1;
#X connect 106 0 8 0;
#X connect 106 1 6 0;
#X connect 106 2 5 0;
#X connect 106 3 9 0;
#X connect 106 4 94 0;
#X connect 107 0 25 0;
#X connect 107 1 24 0;
#X connect 107 2 23 0;
#X connect 107 3 26 0;
#X connect 107 4 95 0;
#X connect 108 0 40 0;
#X connect 108 1 39 0;
#X connect 108 2 38 0;
#X connect 108 3 41 0;
#X connect 108 4 96 0;
#X connect 109 0 54 0;
#X connect 109 1 53 0;
#X connect 109 2 52 0;
#X connect 109 3 55 0;
#X connect 109 4 97 0;
#X connect 110 0 68 0;
#X connect 110 1 67 0;
#X connect 110 2 66 0;
#X connect 110 3 69 0;
#X connect 110 4 98 0;
#X connect 111 0 81 0;
#X connect 111 1 80 0;
#X connect 111 2 79 0;
#X connect 111 3 82 0;
#X connect 111 4 99 0;
#X connect 112 0 122 1;
#X connect 113 0 122 1;
#X connect 114 0 122 1;
#X connect 115 0 122 1;
#X connect 120 0 17 0;
#X connect 120 1 142 0;
#X connect 121 0 120 0;
#X connect 122 0 123 0;
#X connect 123 0 124 0;
#X connect 125 0 135 1;
#X connect 126 0 135 1;
#X connect 127 0 135 1;
#X connect 128 0 135 1;
#X connect 133 0 17 0;
#X connect 133 1 143 0;
#X connect 134 0 133 0;
#X connect 135 0 136 0;
#X connect 136 0 137 0;
#X connect 138 0 122 1;
#X connect 139 0 135 1;
#X connect 142 0 114 0;
#X connect 142 1 113 0;
#X connect 142 2 112 0;
#X connect 142 3 115 0;
#X connect 142 4 138 0;
#X connect 143 0 127 0;
#X connect 143 1 126 0;
#X connect 143 2 125 0;
#X connect 143 3 128 0;
#X connect 143 4 139 0;
#X restore 468 1 pd bpmNoteChngr;
#X obj 464 -87 vradio 15 1 0 5 empty empty empty 0 -8 0 10 -262144
-1 -1 4;
#X obj 407 -96 nbx 3 20 -1e+037 1e+037 0 0 empty empty empty 0 -8 0
10 -262144 -1 -1 16 256;
#X obj 417 71 hradio 15 1 0 8 empty empty empty 0 -8 0 10 -262144 -1
-1 4;
#X obj 373 41 bng 15 250 50 0 empty empty empty 17 7 0 10 -262144 -1
-1;
#X obj 340 1 + 70;
#X obj 163 397 dac~ 1 2;
#X floatatom 403 25 5 0 0 0 - - -;
#X obj 507 86 bng 15 250 50 0 empty empty empty 17 7 0 10 -262144 -1
-1;
#X msg 346 146 open C:/Joseph/audioTR909/BD.wav \, 1;
#X obj 338 314 readsf~;
#X obj 375 4 nbx 3 14 -1e+037 1e+037 0 0 bdPlay empty empty 0 -8 0
10 -262144 -1 -1 4 256;
#X obj 423 49 r bdPlay;
#X obj 267 -86 metro 125;
#X obj 267 -57 counter;
#X obj 267 -26 mod 8;
#X floatatom 265 25 5 0 0 0 - - -;
#X obj 300 41 bng 15 250 50 0 empty empty empty 17 7 0 10 -262144 -1
-1;
#X obj 267 1 + 70;
#X obj 267 -111 tgl 15 0 empty empty empty 17 7 0 10 -262144 -1 -1
0 1;
#X obj 300 1 nbx 3 14 -1e+037 1e+037 0 0 snPlay empty empty 0 -8 0
10 -262144 -1 -1 0 256;
#X obj 372 89 hradio 15 1 0 8 empty empty empty 0 -8 0 10 -262144 -1
-1 0;
#X obj 438 104 bng 15 250 50 0 empty empty empty 17 7 0 10 -262144
-1 -1;
#X obj 287 314 readsf~;
#X obj 363 63 r snPlay;
#X obj 191 -85 metro 125;
#X obj 191 -56 counter;
#X obj 191 -25 mod 8;
#X floatatom 189 26 5 0 0 0 - - -;
#X obj 224 42 bng 15 250 50 0 empty empty empty 17 7 0 10 -262144 -1
-1;
#X obj 191 2 + 70;
#X obj 191 -110 tgl 15 0 empty empty empty 17 7 0 10 -262144 -1 -1
0 1;
#X obj 224 2 nbx 3 14 -1e+037 1e+037 0 0 chhPlay empty empty 0 -8 0
10 -262144 -1 -1 0 256;
#X obj 312 108 hradio 15 1 0 8 empty empty empty 0 -8 0 10 -262144
-1 -1 0;
#X obj 379 123 bng 15 250 50 0 empty empty empty 17 7 0 10 -262144
-1 -1;
#X obj 234 314 readsf~;
#X msg 247 187 open C:/Joseph/audioTR909/CHH.wav \, 1;
#X obj 308 84 r chhPlay;
#X obj 117 -85 metro 125;
#X obj 117 -56 counter;
#X obj 117 -25 mod 8;
#X floatatom 115 26 5 0 0 0 - - -;
#X obj 150 42 bng 15 250 50 0 empty empty empty 17 7 0 10 -262144 -1
-1;
#X obj 117 2 + 70;
#X obj 117 -109 tgl 15 0 empty empty empty 17 7 0 10 -262144 -1 -1
0 1;
#X obj 150 2 nbx 3 14 -1e+037 1e+037 0 0 ohhPlay empty empty 0 -8 0
10 -262144 -1 -1 0 256;
#X obj 252 127 hradio 15 1 0 8 empty empty empty 0 -8 0 10 -262144
-1 -1 0;
#X obj 327 142 bng 15 250 50 0 empty empty empty 17 7 0 10 -262144
-1 -1;
#X obj 181 314 readsf~;
#X obj 248 104 r ohhPlay;
#X obj 482 -87 vradio 15 1 0 5 empty empty empty 0 -8 0 10 -262144
-1 -1 4;
#X obj 518 -87 vradio 15 1 0 5 empty empty empty 0 -8 0 10 -262144
-1 -1 4;
#X obj 500 -87 vradio 15 1 0 5 empty empty empty 0 -8 0 10 -262144
-1 -1 4;
#X msg 215 207 open C:/Joseph/audioTR909/OHH.wav \, 1;
#X obj 44 -84 metro 125;
#X obj 44 -55 counter;
#X obj 44 -24 mod 8;
#X floatatom 42 27 5 0 0 0 - - -;
#X obj 77 43 bng 15 250 50 0 empty empty empty 17 7 0 10 -262144 -1
-1;
#X obj 44 3 + 70;
#X obj 44 -109 tgl 15 0 empty empty empty 17 7 0 10 -262144 -1 -1 0
1;
#X obj 77 3 nbx 3 14 -1e+037 1e+037 0 0 hcPlay empty empty 0 -8 0 10
-262144 -1 -1 0 256;
#X obj -30 -84 metro 125;
#X obj -30 -55 counter;
#X obj -30 -24 mod 8;
#X floatatom -32 27 5 0 0 0 - - -;
#X obj 3 43 bng 15 250 50 0 empty empty empty 17 7 0 10 -262144 -1
-1;
#X obj -30 3 + 70;
#X obj -30 -109 tgl 15 0 empty empty empty 17 7 0 10 -262144 -1 -1
0 1;
#X obj 3 3 nbx 3 14 -1e+037 1e+037 0 0 kdPlay empty empty 0 -8 0 10
-262144 -1 -1 0 256;
#X obj 553 -87 vradio 15 1 0 5 empty empty empty 0 -8 0 10 -262144
-1 -1 4;
#X obj 536 -87 vradio 15 1 0 5 empty empty empty 0 -8 0 10 -262144
-1 -1 4;
#X obj 192 146 hradio 15 1 0 8 empty empty empty 0 -8 0 10 -262144
-1 -1 0;
#X obj 144 164 hradio 15 1 0 8 empty empty empty 0 -8 0 10 -262144
-1 -1 0;
#X obj 227 179 bng 15 250 50 0 empty empty empty 17 7 0 10 -262144
-1 -1;
#X obj 267 161 bng 15 250 50 0 empty empty empty 17 7 0 10 -262144
-1 -1;
#X obj 129 314 readsf~;
#X obj 74 316 readsf~;
#X msg 176 228 open C:/Joseph/audioTR909/HC.wav \, 1;
#X obj 194 124 r hcPlay;
#X obj 136 140 r kdPlay;
#X msg 152 249 open C:/Joseph/audioTR909/Kick05.wav \, 1;
#X text 463 -102 BD;
#X text 356 -117 BD;
#X text 480 -102 SD;
#X text 282 -117 SD;
#X text 496 -102 CHH;
#X text 515 -102 OHH;
#X text 537 -102 HC;
#X text 554 -102 KD;
#X text 206 -116 CHH;
#X text 132 -116 OHH;
#X text 60 -114 HC;
#X text -13 -114 KD;
#X obj 446 210 hsl 128 15 0 1 0 0 empty empty empty -2 -8 0 10 -262144
-1 -1 2500 1;
#X floatatom 418 229 5 0 0 0 - - -;
#X obj 377 342 *~ 0;
#X obj 462 229 hsl 128 15 0 1 0 0 empty empty empty -2 -8 0 10 -262144
-1 -1 0 1;
#X floatatom 442 247 5 0 0 0 - - -;
#X obj 320 343 *~ 0;
#X obj 482 248 hsl 128 15 0 1 0 0 empty empty empty -2 -8 0 10 -262144
-1 -1 0 1;
#X floatatom 458 267 5 0 0 0 - - -;
#X obj 267 343 *~ 0;
#X obj 498 267 hsl 128 15 0 1 0 0 empty empty empty -2 -8 0 10 -262144
-1 -1 0 1;
#X floatatom 472 285 5 0 0 0 - - -;
#X obj 216 343 *~ 0;
#X obj 511 286 hsl 128 15 0 1 0 0 empty empty empty -2 -8 0 10 -262144
-1 -1 0 1;
#X floatatom 486 304 5 0 0 0 - - -;
#X obj 164 341 *~ 0;
#X obj 525 305 hsl 128 15 0 1 0 0 empty empty empty -2 -8 0 10 -262144
-1 -1 0 1;
#X floatatom 499 324 5 0 0 0 - - -;
#X obj 108 341 *~ 0;
#X obj -104 -85 metro 125;
#X obj -104 -56 counter;
#X obj -104 -24 mod 8;
#X floatatom -104 30 5 0 0 0 - - -;
#X obj -69 46 bng 15 250 50 0 empty empty empty 17 7 0 10 -262144 -1
-1;
#X obj -104 4 + 70;
#X obj -103 -109 tgl 15 0 empty empty empty 17 7 0 10 -262144 -1 -1
0 1;
#X obj -70 4 nbx 3 14 -1e+037 1e+037 0 0 clPlay empty empty 0 -8 0
10 -262144 -1 -1 0 256;
#X obj -180 -84 metro 125;
#X obj -180 -55 counter;
#X obj -180 -24 mod 8;
#X floatatom -182 27 5 0 0 0 - - -;
#X obj -148 43 bng 15 250 50 0 empty empty empty 17 7 0 10 -262144
-1 -1;
#X obj -180 3 + 70;
#X obj -180 -107 tgl 15 0 empty empty empty 17 7 0 10 -262144 -1 -1
0 1;
#X obj -144 4 nbx 3 14 -1e+037 1e+037 0 0 rsPlay empty empty 0 -8 0
10 -262144 -1 -1 5 256;
#X obj 587 -87 vradio 15 1 0 5 empty empty empty 0 -8 0 10 -262144
-1 -1 4;
#X obj 570 -87 vradio 15 1 0 5 empty empty empty 0 -8 0 10 -262144
-1 -1 4;
#X obj 538 323 hsl 128 15 0 1 0 0 empty empty empty -2 -8 0 10 -262144
-1 -1 0 1;
#X floatatom 512 342 5 0 0 0 - - -;
#X obj 552 341 hsl 128 15 0 1 0 0 empty empty empty -2 -8 0 10 -262144
-1 -1 3300 1;
#X floatatom 530 360 5 0 0 0 - - -;
#X obj 23 315 readsf~;
#X obj -32 317 readsf~;
#X obj 53 342 *~ 0;
#X obj -12 341 *~ 0;
#X obj 103 184 hradio 15 1 0 8 empty empty empty 0 -8 0 10 -262144
-1 -1 0;
#X obj 70 204 hradio 15 1 0 8 empty empty empty 0 -8 0 10 -262144 -1
-1 5;
#X obj 193 199 bng 15 250 50 0 empty empty empty 17 7 0 10 -262144
-1 -1;
#X obj 157 219 bng 15 250 50 0 empty empty empty 17 7 0 10 -262144
-1 -1;
#X obj 88 161 r clPlay;
#X obj 48 183 r rsPlay;
#X msg 107 291 open C:/Joseph/audioTR909/TOM.wav \, 1;
#X msg 134 270 open C:/Joseph/audioTR909/LowTom05.wav \, 1;
#X msg 285 166 open C:/Joseph/audioTR909/Snare05.wav \, 1;
#X text -86 -112 LT;
#X text -161 -111 TM;
#X text 571 -102 LT;
#X text 586 -102 TM;
#X text 561 195 BD;
#X text 578 212 SD;
#X text 592 232 CHH;
#X text 611 252 OHH;
#X text 628 269 HC;
#X text 641 288 KD;
#X text 655 307 LT;
#X text 668 324 TM;
#X text 607 -88 1/16;
#X text 608 -73 1/8;
#X text 609 -58 1/4;
#X text 609 -43 1/2;
#X text 610 -28 1/1;
#X text 602 -12 Time Signature;
#X text 404 -112 SET Tempo;
#X text 461 -116 Sample Instrument;
#X connect 0 0 1 0;
#X connect 1 0 2 0;
#X connect 2 0 3 0;
#X connect 3 0 10 0;
#X connect 3 0 16 0;
#X connect 4 0 9 0;
#X connect 5 0 1 1;
#X connect 5 0 12 0;
#X connect 5 1 18 1;
#X connect 5 2 30 1;
#X connect 5 3 43 1;
#X connect 5 4 59 1;
#X connect 5 5 67 1;
#X connect 5 6 117 1;
#X connect 5 7 125 1;
#X connect 6 0 5 1;
#X connect 7 0 5 0;
#X connect 8 0 13 0;
#X connect 10 0 4 0;
#X connect 13 0 14 0;
#X connect 14 0 15 0;
#X connect 15 0 101 0;
#X connect 17 0 8 0;
#X connect 18 0 19 0;
#X connect 19 0 20 0;
#X connect 20 0 23 0;
#X connect 20 0 25 0;
#X connect 21 0 22 0;
#X connect 23 0 21 0;
#X connect 24 0 18 0;
#X connect 26 0 27 0;
#X connect 27 0 151 0;
#X connect 28 0 104 0;
#X connect 29 0 26 0;
#X connect 30 0 31 0;
#X connect 31 0 32 0;
#X connect 32 0 35 0;
#X connect 32 0 37 0;
#X connect 33 0 34 0;
#X connect 35 0 33 0;
#X connect 36 0 30 0;
#X connect 38 0 39 0;
#X connect 39 0 41 0;
#X connect 40 0 107 0;
#X connect 41 0 40 0;
#X connect 42 0 38 0;
#X connect 43 0 44 0;
#X connect 44 0 45 0;
#X connect 45 0 48 0;
#X connect 45 0 50 0;
#X connect 46 0 47 0;
#X connect 48 0 46 0;
#X connect 49 0 43 0;
#X connect 51 0 52 0;
#X connect 52 0 58 0;
#X connect 53 0 110 0;
#X connect 54 0 51 0;
#X connect 55 0 5 2;
#X connect 56 0 5 4;
#X connect 57 0 5 3;
#X connect 58 0 53 0;
#X connect 59 0 60 0;
#X connect 60 0 61 0;
#X connect 61 0 64 0;
#X connect 61 0 66 0;
#X connect 62 0 63 0;
#X connect 64 0 62 0;
#X connect 65 0 59 0;
#X connect 67 0 68 0;
#X connect 68 0 69 0;
#X connect 69 0 72 0;
#X connect 69 0 74 0;
#X connect 70 0 71 0;
#X connect 72 0 70 0;
#X connect 73 0 67 0;
#X connect 75 0 5 6;
#X connect 76 0 5 5;
#X connect 77 0 80 0;
#X connect 78 0 79 0;
#X connect 79 0 86 0;
#X connect 80 0 83 0;
#X connect 81 0 113 0;
#X connect 82 0 116 0;
#X connect 83 0 81 0;
#X connect 84 0 77 0;
#X connect 85 0 78 0;
#X connect 86 0 82 0;
#X connect 99 0 100 0;
#X connect 100 0 101 1;
#X connect 101 0 11 1;
#X connect 101 0 11 0;
#X connect 102 0 103 0;
#X connect 103 0 104 1;
#X connect 104 0 11 0;
#X connect 104 0 11 1;
#X connect 105 0 106 0;
#X connect 106 0 107 1;
#X connect 107 0 11 0;
#X connect 107 0 11 1;
#X connect 108 0 109 0;
#X connect 109 0 110 1;
#X connect 110 0 11 0;
#X connect 110 0 11 1;
#X connect 111 0 112 0;
#X connect 112 0 113 1;
#X connect 113 0 11 0;
#X connect 113 0 11 1;
#X connect 114 0 115 0;
#X connect 115 0 116 1;
#X connect 116 0 11 0;
#X connect 116 0 11 1;
#X connect 117 0 118 0;
#X connect 118 0 119 0;
#X connect 119 0 122 0;
#X connect 119 0 124 0;
#X connect 120 0 121 0;
#X connect 122 0 120 0;
#X connect 123 0 117 0;
#X connect 125 0 126 0;
#X connect 126 0 127 0;
#X connect 127 0 130 0;
#X connect 127 0 132 0;
#X connect 128 0 129 0;
#X connect 130 0 128 0;
#X connect 131 0 125 0;
#X connect 133 0 5 8;
#X connect 134 0 5 7;
#X connect 135 0 136 0;
#X connect 136 0 141 1;
#X connect 137 0 138 0;
#X connect 138 0 142 1;
#X connect 139 0 141 0;
#X connect 140 0 142 0;
#X connect 141 0 11 0;
#X connect 141 0 11 1;
#X connect 142 0 11 0;
#X connect 142 0 11 1;
#X connect 143 0 145 0;
#X connect 144 0 146 0;
#X connect 145 0 150 0;
#X connect 146 0 149 0;
#X connect 147 0 143 0;
#X connect 148 0 144 0;
#X connect 149 0 140 0;
#X connect 150 0 139 0;
#X connect 151 0 28 0;
