#N canvas 193 22 644 389 10;
#X obj 101 -3 hsl 128 15 150 1000 0 0 empty empty empty -2 -8 0 10
-262144 -1 -1 1400 1;
#X obj 242 -3 hsl 128 15 150 1000 0 0 empty empty empty -2 -8 0 10
-262144 -1 -1 1400 1;
#X obj 100 149 hsl 128 15 150 1000 0 0 empty empty empty -2 -8 0 10
-262144 -1 -1 800 1;
#X obj 241 149 hsl 128 15 150 1000 0 0 empty empty empty -2 -8 0 10
-262144 -1 -1 600 1;
#X obj 481 46 line~;
#X obj 567 20 keybd;
#X obj 98 37 voiceOneII;
#X obj 239 37 voiceTwoII;
#X obj 97 189 voiceThreeII;
#X obj 238 189 voiceFourII;
#X obj 98 96 s~ syUnitOneII;
#X obj 206 257 s~ syUnitThreeII;
#X obj 260 96 s~ syUnitTwoII;
#X obj 394 257 s~ syUnitFourII;
#X obj 481 -21 knob 32 32 0 32 0 0 empty empty empty 0 -8 0 8 -262144
-1 -1 0 1;
#X msg 481 15 \$0 1;
#X floatatom 594 63 5 0 0 0 - - -;
#X floatatom 567 93 5 0 0 0 - - -;
#X obj 97 63 *~;
#X obj 239 63 *~;
#X obj 321 207 *~;
#X obj 369 207 *~;
#X obj 164 79 *~ 0.2;
#X obj 320 240 *~ 0.2;
#X obj 529 84 vsl 15 128 0 0.5 0 0 empty empty empty 0 -9 0 10 -262144
-1 -1 8000 1;
#X connect 0 0 6 1;
#X connect 1 0 7 1;
#X connect 2 0 8 1;
#X connect 3 0 9 1;
#X connect 4 0 18 1;
#X connect 4 0 19 1;
#X connect 4 0 20 1;
#X connect 4 0 21 1;
#X connect 5 0 17 0;
#X connect 5 0 6 0;
#X connect 5 0 7 0;
#X connect 5 0 8 0;
#X connect 5 0 9 0;
#X connect 5 1 16 0;
#X connect 5 1 4 0;
#X connect 6 0 18 0;
#X connect 7 0 19 0;
#X connect 8 0 20 0;
#X connect 9 0 21 0;
#X connect 14 0 15 0;
#X connect 15 0 4 0;
#X connect 18 0 22 0;
#X connect 19 0 22 0;
#X connect 20 0 23 0;
#X connect 21 0 23 0;
#X connect 22 0 10 0;
#X connect 22 0 12 0;
#X connect 23 0 11 0;
#X connect 23 0 13 0;
#X connect 24 0 23 1;
#X connect 24 0 22 1;
