#N canvas 28 92 609 398 10;
#X obj 264 144 osc~;
#X obj 99 103 + 1;
#X obj 130 103 + 1;
#X obj 163 102 + 1;
#X floatatom 49 87 5 0 0 0 - - -;
#X obj 197 102 - 50;
#X obj 232 103 - 25;
#X obj 99 144 osc~;
#X obj 30 244 * 2;
#X obj 49 144 phasor~;
#X obj 184 345 outlet~;
#X obj 166 232 *~ 0.2;
#X obj 212 232 *~ 0.2;
#X obj 231 260 lop~;
#X obj 255 232 inlet LoP;
#X obj 464 144 ../WFormUnit/tri_wave;
#X obj 265 103 + 10;
#X obj 185 261 hip~;
#X obj 430 144 osc~;
#X obj 296 144 ../WFormUnit/tri_wave;
#X obj 130 144 ../WFormUnit/tri_wave;
#X obj 184 294 *~ 0.2;
#X obj 49 28 inlet;
#X obj 49 56 expr $f1 + 20;
#X connect 1 0 2 0;
#X connect 1 0 7 0;
#X connect 2 0 3 0;
#X connect 2 0 20 0;
#X connect 3 0 0 0;
#X connect 3 0 5 0;
#X connect 3 0 6 0;
#X connect 4 0 1 0;
#X connect 4 0 9 0;
#X connect 4 0 8 0;
#X connect 5 0 19 0;
#X connect 6 0 16 0;
#X connect 6 0 18 0;
#X connect 7 0 12 0;
#X connect 8 0 17 1;
#X connect 9 0 11 0;
#X connect 11 0 17 0;
#X connect 12 0 13 0;
#X connect 13 0 21 0;
#X connect 14 0 13 1;
#X connect 15 0 12 0;
#X connect 16 0 15 0;
#X connect 17 0 21 0;
#X connect 18 0 11 0;
#X connect 19 0 11 0;
#X connect 20 0 12 0;
#X connect 21 0 10 0;
#X connect 22 0 23 0;
#X connect 23 0 4 0;
