#N canvas 53 171 356 300 10;
#X obj 169 134 osc~;
#X obj 89 93 + 1;
#X obj 139 93 + 1;
#X obj 172 92 + 1;
#X floatatom 39 77 5 0 0 0 - - -;
#X obj 123 200 lop~;
#X obj 206 92 - 50;
#X obj 241 93 - 25;
#X obj 89 134 osc~;
#X obj 120 134 phasor~;
#X obj 25 183 * 2;
#X obj 200 135 osc~;
#X obj 231 135 phasor~;
#X obj 39 134 phasor~;
#X obj 169 201 hip~;
#X obj 122 266 outlet~;
#X obj 82 172 *~ 0.2;
#X obj 148 171 *~ 0.2;
#X obj 193 171 inlet HiP;
#X obj 122 233 *~ 0.2;
#X obj 39 18 inlet;
#X obj 39 46 expr $f1 + 20;
#X connect 1 0 2 0;
#X connect 1 0 8 0;
#X connect 2 0 3 0;
#X connect 2 0 9 0;
#X connect 3 0 0 0;
#X connect 3 0 6 0;
#X connect 3 0 7 0;
#X connect 4 0 1 0;
#X connect 4 0 13 0;
#X connect 4 0 10 0;
#X connect 5 0 19 0;
#X connect 6 0 11 0;
#X connect 7 0 12 0;
#X connect 8 0 17 0;
#X connect 9 0 17 0;
#X connect 10 0 5 1;
#X connect 11 0 16 0;
#X connect 12 0 16 0;
#X connect 13 0 16 0;
#X connect 14 0 19 0;
#X connect 16 0 5 0;
#X connect 17 0 14 0;
#X connect 18 0 14 1;
#X connect 19 0 15 0;
#X connect 20 0 21 0;
#X connect 21 0 4 0;
