#N canvas 0 0 687 439 10;
#X obj 18 341 cylinder;
#X obj 17 215 rotateXYZ;
#X obj 17 264 translateXYZ;
#X obj 15 126 alpha;
#X obj 15 71 color;
#X obj 15 20 inlet;
#X obj 55 21 inlet;
#X obj 95 21 inlet;
#X obj 134 22 inlet;
#X obj 175 21 inlet rX;
#X obj 233 22 inlet rY;
#X obj 290 22 inlet rZ;
#X obj 352 21 inlet tX;
#X obj 408 21 inlet tY;
#X obj 464 21 inlet tZ;
#X obj 528 21 inlet sZ;
#X obj 585 22 inlet seg;
#X connect 1 0 2 0;
#X connect 2 0 0 0;
#X connect 3 0 1 0;
#X connect 4 0 3 0;
#X connect 5 0 4 0;
#X connect 6 0 4 1;
#X connect 7 0 3 0;
#X connect 8 0 3 1;
#X connect 9 0 1 1;
#X connect 10 0 1 2;
#X connect 11 0 1 3;
#X connect 12 0 2 1;
#X connect 13 0 2 2;
#X connect 14 0 2 3;
#X connect 15 0 0 1;
#X connect 16 0 0 2;
