#N canvas 214 190 589 289 10;
#X obj 23 177 gemwin;
#X msg 66 125 0;
#X msg 104 157 1;
#X obj 162 21 gemhead;
#X msg 26 66 create;
#X msg 46 104 destroy;
#X obj 162 99 color 1 1 0;
#X text 167 117 Set RGB tribplate;
#X msg 225 45 0 1 0;
#X msg 236 74 0.5 0.5 0.5;
#X floatatom 327 107 5 0 0 0 - - -;
#X obj 162 188 rotateXYZ;
#X obj 162 155 translateXYZ 2 2 0;
#X obj 162 220 square 0.5;
#X obj 395 107 color 1 1 0;
#X text 400 125 Set RGB tribplate;
#X msg 491 61 0 1 0;
#X msg 502 90 0.5 0.5 0.5;
#X obj 395 164 rotateXYZ;
#X obj 395 233 square 0.5;
#X obj 395 196 translateXYZ 2 -2 0;
#X obj 395 37 gemhead;
#X obj 327 15 f;
#X obj 327 46 + 1;
#X obj 307 -32 tgl 15 0 empty empty empty 17 7 0 10 -262144 -1 -1 0
1;
#X obj 375 -33 bng 15 250 50 0 empty empty empty 17 7 0 10 -262144
-1 -1;
#X obj 327 77 mod 361;
#X obj 324 -19 metro 2;
#X text 22 193 Init Win Handler;
#X text 23 48 Create GEM Win;
#X text 44 88 Purge GEM Win;
#X text 100 140 Start GEM;
#X connect 1 0 0 0;
#X connect 2 0 0 0;
#X connect 3 0 6 0;
#X connect 4 0 0 0;
#X connect 5 0 0 0;
#X connect 6 0 12 0;
#X connect 8 0 6 1;
#X connect 9 0 6 1;
#X connect 10 0 11 2;
#X connect 10 0 18 2;
#X connect 11 0 13 0;
#X connect 12 0 11 0;
#X connect 14 0 18 0;
#X connect 16 0 14 1;
#X connect 17 0 14 1;
#X connect 18 0 20 0;
#X connect 20 0 19 0;
#X connect 21 0 14 0;
#X connect 22 0 23 0;
#X connect 23 0 26 0;
#X connect 24 0 27 0;
#X connect 25 0 27 1;
#X connect 26 0 10 0;
#X connect 26 0 22 1;
#X connect 27 0 22 0;
