#N canvas 530 204 589 404 10;
#X obj 41 38 tgl 15 0 empty empty empty 17 7 0 10 -262144 -1 -1 1 1
;
#X msg 66 38 create;
#X msg 74 65 destroy;
#X obj 47 94 gemwin;
#X msg 132 74 lighting 1;
#X obj 46 144 gemhead;
#X obj 46 189 world_light;
#X obj 175 103 gemhead;
#X obj 178 140 rotateXYZ;
#X obj 180 185 translateXYZ;
#X obj 127 262 separator;
#X obj 260 254 separator;
#X obj 348 89 metro 20;
#X obj 347 66 tgl 15 0 empty empty empty 17 7 0 10 -262144 -1 -1 1
1;
#X obj 349 165 counter;
#X floatatom 348 200 5 0 0 0 - - -;
#X obj 260 298 translateXYZ;
#X obj 123 351 sphere 0.8 36;
#X msg 362 111 0;
#X floatatom 203 160 5 0 0 0 - - -;
#X msg 396 110 0;
#X msg 428 108 359;
#X floatatom 276 275 5 0 0 0 - - -;
#X msg 223 317 draw line;
#X msg 101 318 draw line;
#X msg 396 308 draw fill;
#X msg 163 289 draw fill;
#X obj 181 211 t a a;
#X obj 261 349 sphere 0.3 36;
#X connect 0 0 3 0;
#X connect 1 0 3 0;
#X connect 2 0 3 0;
#X connect 4 0 3 0;
#X connect 5 0 6 0;
#X connect 7 0 8 0;
#X connect 8 0 9 0;
#X connect 9 0 27 0;
#X connect 10 0 17 0;
#X connect 11 0 16 0;
#X connect 12 0 14 0;
#X connect 13 0 12 0;
#X connect 14 0 15 0;
#X connect 15 0 8 2;
#X connect 16 0 28 0;
#X connect 18 0 14 2;
#X connect 19 0 9 1;
#X connect 20 0 14 3;
#X connect 21 0 14 4;
#X connect 22 0 16 1;
#X connect 23 0 28 0;
#X connect 24 0 17 0;
#X connect 25 0 28 0;
#X connect 26 0 17 0;
#X connect 27 0 10 0;
#X connect 27 1 11 0;
