#N canvas 370 49 528 256 10;
#X obj 54 160 gemwin;
#X msg 97 117 0;
#X msg 142 136 1;
#X text 60 30;
#X text 75 71;
#X text 139 119;
#X text 53 176;
#X obj 262 57 gemhead;
#X msg 57 49 create;
#X msg 77 87 destroy;
#X obj 262 187 cube;
#X obj 262 108 color 1 1 0;
#X text 267 123 Set RGB tribplate;
#X msg 358 52 0 1 0;
#X msg 369 81 0.5 0.5 0.5;
#X obj 264 153 translate 0 2 1 0;
#X floatatom 399 119 5 0 0 0 - - -;
#X connect 1 0 0 0;
#X connect 2 0 0 0;
#X connect 7 0 11 0;
#X connect 8 0 0 0;
#X connect 9 0 0 0;
#X connect 11 0 15 0;
#X connect 13 0 11 1;
#X connect 14 0 11 1;
#X connect 15 0 10 0;
#X connect 16 0 15 1;
