#N canvas 513 163 450 300 10;
#X msg 33 32 create;
#X msg 51 61 destroy;
#X obj 37 123 gemwin;
#X obj 84 84 tgl 15 0 empty empty empty 17 7 0 10 -262144 -1 -1 1 1
;
#X obj 191 29 tgl 15 0 empty empty empty 17 7 0 10 -262144 -1 -1 1
1;
#X obj 191 66 gemhead;
#X obj 191 129 pix_image;
#X obj 190 204 rectangle 4 3;
#X obj 265 62 openpanel;
#X obj 264 24 bng 15 250 50 0 empty empty empty 17 7 0 10 -262144 -1
-1;
#X msg 265 100 open \$1;
#X obj 190 169 pix_texture;
#X connect 0 0 2 0;
#X connect 1 0 2 0;
#X connect 3 0 2 0;
#X connect 4 0 5 0;
#X connect 5 0 6 0;
#X connect 6 0 11 0;
#X connect 8 0 10 0;
#X connect 9 0 8 0;
#X connect 10 0 6 0;
#X connect 11 0 7 0;
