#N canvas 485 41 517 465 10;
#X msg 18 39 create;
#X msg 25 65 destroy;
#X obj 61 90 tgl 15 0 empty empty empty 17 7 0 10 -262144 -1 -1 1 1
;
#X obj 20 148 gemwin;
#X obj 154 175 tgl 15 0 empty empty empty 17 7 0 10 -262144 -1 -1 1
1;
#X obj 32 243 gemhead;
#X obj 32 323 pix_texture;
#X obj 174 175 tgl 15 0 empty empty empty 17 7 0 10 -262144 -1 -1 0
1;
#X obj 189 244 gemhead;
#X obj 189 321 pix_texture;
#X obj 32 268 pix_image rn028_02_01.jpg;
#X obj 189 269 pix_image rn028_02_02.jpg;
#X obj 132 108 hradio 15 1 0 8 empty empty empty 0 -8 0 10 -262144
-1 -1 3;
#X obj 132 36 metro 200;
#X obj 132 13 tgl 15 0 empty empty empty 17 7 0 10 -262144 -1 -1 1
1;
#X obj 132 59 counter;
#X obj 372 108 t b f;
#X obj 412 108 t b f;
#X obj 32 295 color 0 0 5 0;
#X obj 352 45 nbx 5 14 -1e+037 1e+037 0 0 empty empty empty 0 -8 0
10 -262144 -1 -1 11 256;
#X obj 372 65 nbx 5 14 -1e+037 1e+037 0 0 empty empty empty 0 -8 0
10 -262144 -1 -1 5 256;
#X obj 412 84 nbx 5 14 -1e+037 1e+037 0 0 empty empty empty 0 -8 0
10 -262144 -1 -1 5 256;
#X floatatom 88 133 5 0 0 0 - - -;
#X msg 431 144 env \$1;
#X floatatom 190 11 5 0 0 0 - - -;
#X obj 174 84 mod 16;
#X obj 222 48 bng 15 250 50 0 empty empty empty 17 7 0 10 -262144 -1
-1;
#X obj 222 90 random 16;
#X obj 194 175 tgl 15 0 empty empty empty 17 7 0 10 -262144 -1 -1 1
1;
#X obj 214 175 tgl 15 0 empty empty empty 17 7 0 10 -262144 -1 -1 1
1;
#X obj 395 19 pix_write;
#X obj 345 245 gemhead;
#X obj 345 322 pix_texture;
#X obj 345 270 pix_image rn028_03_01.jpg;
#X obj 128 315 pix_add;
#X obj 285 314 pix_add;
#X obj 32 361 rotateXYZ;
#X obj 104 152 mod 361;
#X floatatom 68 176 5 0 0 0 - - -;
#X obj 343 351 rotateXYZ;
#X obj 189 354 rotateXYZ;
#X obj 344 298 color 4 5 8 10;
#X obj 189 297 color 4 5 8 10;
#X obj 32 433 cube 3;
#X obj 189 414 cube 3;
#X obj 345 415 cube 3;
#X obj 189 386 translateXYZ 0.25 0 0.25;
#X obj 343 383 translateXYZ 0.25 0 0.25;
#X obj 32 393 translateXYZ 0.25 0 0.25;
#X obj 352 150 pack 1 0 1;
#X obj 234 175 tgl 15 0 empty empty empty 17 7 0 10 -262144 -1 -1 0
1;
#X obj 254 175 tgl 15 0 empty empty empty 17 7 0 10 -262144 -1 -1 1
1;
#X obj 274 175 tgl 15 0 empty empty empty 17 7 0 10 -262144 -1 -1 0
1;
#X obj 294 175 tgl 15 0 empty empty empty 17 7 0 10 -262144 -1 -1 1
1;
#X obj 132 86 mod 8;
#X obj 151 134 select 0 1 2 3 4 5 6 7;
#X connect 0 0 3 0;
#X connect 1 0 3 0;
#X connect 2 0 3 0;
#X connect 4 0 5 0;
#X connect 5 0 10 0;
#X connect 6 0 36 0;
#X connect 8 0 11 0;
#X connect 9 0 40 0;
#X connect 10 0 18 0;
#X connect 10 0 34 0;
#X connect 11 0 34 1;
#X connect 11 0 35 0;
#X connect 11 0 42 0;
#X connect 12 0 22 0;
#X connect 12 0 23 0;
#X connect 12 0 55 0;
#X connect 13 0 15 0;
#X connect 14 0 13 0;
#X connect 15 0 25 0;
#X connect 15 0 37 0;
#X connect 15 0 54 0;
#X connect 16 0 49 0;
#X connect 16 1 49 1;
#X connect 17 0 49 0;
#X connect 17 1 49 2;
#X connect 18 0 6 0;
#X connect 19 0 49 0;
#X connect 20 0 16 0;
#X connect 21 0 17 0;
#X connect 23 0 6 0;
#X connect 23 0 9 0;
#X connect 24 0 13 1;
#X connect 25 0 19 0;
#X connect 25 0 26 0;
#X connect 26 0 27 0;
#X connect 27 0 20 0;
#X connect 27 0 21 0;
#X connect 28 0 8 0;
#X connect 29 0 31 0;
#X connect 31 0 33 0;
#X connect 32 0 39 0;
#X connect 33 0 35 1;
#X connect 33 0 41 0;
#X connect 34 0 6 0;
#X connect 35 0 9 0;
#X connect 36 0 48 0;
#X connect 37 0 38 0;
#X connect 37 0 39 2;
#X connect 37 0 40 2;
#X connect 37 0 40 3;
#X connect 37 0 40 1;
#X connect 37 0 36 3;
#X connect 37 0 39 3;
#X connect 37 0 36 1;
#X connect 37 0 39 1;
#X connect 37 0 48 2;
#X connect 37 0 46 2;
#X connect 37 0 48 1;
#X connect 37 0 46 1;
#X connect 37 0 48 3;
#X connect 37 0 46 3;
#X connect 38 0 36 2;
#X connect 39 0 47 0;
#X connect 40 0 46 0;
#X connect 41 0 32 0;
#X connect 42 0 9 0;
#X connect 46 0 44 0;
#X connect 47 0 45 0;
#X connect 48 0 43 0;
#X connect 49 0 18 1;
#X connect 49 0 41 1;
#X connect 49 0 42 1;
#X connect 50 0 5 0;
#X connect 51 0 8 0;
#X connect 52 0 31 0;
#X connect 53 0 5 0;
#X connect 54 0 12 0;
#X connect 55 0 4 0;
#X connect 55 0 50 0;
#X connect 55 1 4 0;
#X connect 55 1 50 0;
#X connect 55 2 7 0;
#X connect 55 2 51 0;
#X connect 55 3 7 0;
#X connect 55 3 51 0;
#X connect 55 4 28 0;
#X connect 55 4 52 0;
#X connect 55 5 28 0;
#X connect 55 5 52 0;
#X connect 55 6 29 0;
#X connect 55 6 53 0;
#X connect 55 7 29 0;
#X connect 55 7 50 0;
#X connect 55 7 53 0;
#X connect 55 8 50 0;
