#N canvas 461 56 498 433 10;
#X msg 18 39 create;
#X msg 25 65 destroy;
#X obj 61 90 tgl 15 0 empty empty empty 17 7 0 10 -262144 -1 -1 1 1
;
#X obj 20 148 gemwin;
#X obj 152 167 tgl 15 0 empty empty empty 17 7 0 10 -262144 -1 -1 0
1;
#X obj 17 216 gemhead;
#X obj 17 296 pix_texture;
#X obj 172 167 tgl 15 0 empty empty empty 17 7 0 10 -262144 -1 -1 0
1;
#X obj 174 217 gemhead;
#X obj 174 294 pix_texture;
#X obj 17 241 pix_image rn028_02_01.jpg;
#X obj 174 242 pix_image rn028_02_02.jpg;
#X obj 132 108 hradio 15 1 0 4 empty empty empty 0 -8 0 10 -262144
-1 -1 1;
#X obj 132 39 metro 200;
#X obj 132 13 tgl 15 0 empty empty empty 17 7 0 10 -262144 -1 -1 1
1;
#X obj 132 63 counter;
#X obj 132 86 mod 4;
#X obj 132 130 select 0 1 2 3;
#X obj 315 108 t b f;
#X obj 355 108 t b f;
#X obj 295 150 pack 0 0 1;
#X obj 17 268 color 0 0 5 0;
#X obj 174 270 color 0 0 5 0;
#X obj 295 45 nbx 5 14 -1e+037 1e+037 0 0 empty empty empty 0 -8 0
10 -262144 -1 -1 1 256;
#X obj 315 65 nbx 5 14 -1e+037 1e+037 0 0 empty empty empty 0 -8 0
10 -262144 -1 -1 1 256;
#X obj 355 84 nbx 5 14 -1e+037 1e+037 0 0 empty empty empty 0 -8 0
10 -262144 -1 -1 1 256;
#X floatatom 258 150 5 0 0 0 - - -;
#X floatatom 88 133 5 0 0 0 - - -;
#X msg 244 123 env \$1;
#X floatatom 190 11 5 0 0 0 - - -;
#X obj 174 84 mod 16;
#X obj 222 48 bng 15 250 50 0 empty empty empty 17 7 0 10 -262144 -1
-1;
#X obj 222 90 random 16;
#X obj 192 167 tgl 15 0 empty empty empty 17 7 0 10 -262144 -1 -1 0
1;
#X obj 212 167 tgl 15 0 empty empty empty 17 7 0 10 -262144 -1 -1 1
1;
#X obj 395 19 pix_write;
#X obj 330 218 gemhead;
#X obj 330 295 pix_texture;
#X obj 330 271 color 0 0 5 0;
#X obj 330 243 pix_image rn028_03_01.jpg;
#X obj 113 288 pix_add;
#X obj 270 287 pix_add;
#X obj 17 406 cube 2;
#X obj 174 387 cube 2;
#X obj 330 388 cube 2;
#X obj 17 334 rotateXYZ;
#X obj 85 88 mod 361;
#X floatatom 68 169 5 0 0 0 - - -;
#X obj 17 366 translateXYZ 0.5 -0.5 0.5;
#X obj 328 324 rotateXYZ;
#X obj 328 356 translateXYZ 0.5 -0.5 0.5;
#X obj 174 327 rotateXYZ;
#X obj 174 359 translateXYZ -0.5 0.5 0.5;
#X connect 0 0 3 0;
#X connect 1 0 3 0;
#X connect 2 0 3 0;
#X connect 4 0 5 0;
#X connect 5 0 10 0;
#X connect 6 0 45 0;
#X connect 7 0 8 0;
#X connect 8 0 11 0;
#X connect 9 0 51 0;
#X connect 10 0 21 0;
#X connect 10 0 40 0;
#X connect 11 0 22 0;
#X connect 11 0 40 1;
#X connect 11 0 41 0;
#X connect 12 0 17 0;
#X connect 12 0 27 0;
#X connect 12 0 28 0;
#X connect 13 0 15 0;
#X connect 14 0 13 0;
#X connect 15 0 16 0;
#X connect 15 0 30 0;
#X connect 15 0 46 0;
#X connect 16 0 12 0;
#X connect 17 0 4 0;
#X connect 17 1 34 0;
#X connect 17 2 33 0;
#X connect 17 3 7 0;
#X connect 18 0 20 0;
#X connect 18 1 20 1;
#X connect 19 0 20 0;
#X connect 19 1 20 2;
#X connect 20 0 21 1;
#X connect 20 0 22 1;
#X connect 21 0 6 0;
#X connect 22 0 9 0;
#X connect 23 0 20 0;
#X connect 24 0 18 0;
#X connect 25 0 19 0;
#X connect 28 0 6 0;
#X connect 28 0 9 0;
#X connect 28 0 26 0;
#X connect 29 0 13 1;
#X connect 30 0 23 0;
#X connect 30 0 31 0;
#X connect 31 0 32 0;
#X connect 32 0 24 0;
#X connect 32 0 25 0;
#X connect 33 0 5 0;
#X connect 34 0 36 0;
#X connect 36 0 39 0;
#X connect 37 0 49 0;
#X connect 38 0 37 0;
#X connect 39 0 38 0;
#X connect 39 0 41 1;
#X connect 40 0 6 0;
#X connect 41 0 9 0;
#X connect 45 0 48 0;
#X connect 46 0 47 0;
#X connect 46 0 49 2;
#X connect 47 0 45 2;
#X connect 48 0 42 0;
#X connect 49 0 50 0;
#X connect 50 0 44 0;
#X connect 51 0 52 0;
#X connect 52 0 43 0;
