#N canvas 502 69 842 483 10;
#X obj 16 20 tgl 15 0 empty empty empty 17 7 0 10 -262144 -1 -1 1 1
;
#X obj 13 64 gemwin;
#X msg 64 34 destroy;
#X msg 55 11 create \, dimen 600 600;
#X floatatom 11 217 5 0 0 0 - - -;
#X floatatom 22 193 5 0 0 0 - - -;
#X floatatom 33 163 5 0 0 0 - - -;
#X floatatom 45 137 5 0 0 0 - - -;
#X floatatom 66 117 5 0 0 0 - - -;
#X obj 222 169 rotateXYZ;
#X obj 222 209 translateXYZ;
#X obj 222 119 color;
#X msg 107 353 draw line;
#X floatatom 33 369 5 0 0 0 - - -;
#X msg 38 339 draw fill;
#X msg 33 392 width \$1;
#X obj 34 282 pack f f;
#X obj 314 216 tgl 15 0 empty empty empty 17 7 0 10 -262144 -1 -1 0
1;
#X obj 314 243 metro 10;
#X obj 314 272 bng 15 250 50 0 empty empty empty 17 7 0 10 -262144
-1 -1;
#X floatatom 113 212 5 0 0 0 - - -;
#X floatatom 124 189 5 0 0 0 - - -;
#X floatatom 135 159 5 0 0 0 - - -;
#X floatatom 147 133 5 0 0 0 - - -;
#X floatatom 175 117 5 0 0 0 - - -;
#X obj 157 248 pack f f;
#X obj 222 280 alpha;
#X msg 239 233 0;
#X msg 271 232 1;
#X obj 267 265 tgl 15 0 empty empty empty 17 7 0 10 -262144 -1 -1 1
1;
#X msg 199 42 lighting \$1;
#X obj 203 15 tgl 15 0 empty empty empty 17 7 0 10 -262144 -1 -1 0
1;
#X obj 29 316 print \$0;
#X msg 235 304 0 2 0;
#X msg 254 331 2 1 0;
#X obj 221 432 polygon 5;
#X msg 268 356 1 -1 0;
#X msg 283 379 -1 -1 0;
#X msg 290 404 -2 1 0;
#X obj 338 213 ortho;
#X floatatom 275 120 5 0 0 0 - - -;
#X floatatom 318 120 5 0 0 0 - - -;
#X floatatom 362 118 5 0 0 0 - - -;
#X floatatom 298 172 5 0 0 0 - - -;
#X floatatom 337 170 5 0 0 0 - - -;
#X floatatom 378 169 5 0 0 0 - - -;
#X obj 289 41 hsl 100 15 0 1 0 0 empty empty empty -2 -8 0 10 -262144
-1 -1 5500 1;
#X floatatom 354 74 5 0 0 0 - - -;
#X obj 337 271 filledpolygon;
#X obj 340 434 polygon 5;
#X obj 433 156 rotateXYZ;
#X obj 433 196 translateXYZ;
#X obj 433 106 color;
#X obj 433 267 alpha;
#X msg 450 220 0;
#X msg 482 219 1;
#X obj 478 252 tgl 15 0 empty empty empty 17 7 0 10 -262144 -1 -1 1
1;
#X floatatom 486 107 5 0 0 0 - - -;
#X floatatom 529 107 5 0 0 0 - - -;
#X floatatom 573 105 5 0 0 0 - - -;
#X floatatom 509 159 5 0 0 0 - - -;
#X floatatom 548 157 5 0 0 0 - - -;
#X floatatom 589 156 5 0 0 0 - - -;
#X obj 485 35 hsl 100 15 0 1 0 0 empty empty empty -2 -8 0 10 -262144
-1 -1 8600 1;
#X floatatom 550 70 5 0 0 0 - - -;
#X msg 482 71 1 -1 0 \$1;
#X obj 111 87 gemmouse;
#X obj 6 88 gemmouse 6 6;
#X obj 628 153 rotateXYZ;
#X obj 628 193 translateXYZ;
#X obj 628 103 color;
#X obj 628 264 alpha;
#X msg 645 217 0;
#X msg 677 216 1;
#X obj 673 249 tgl 15 0 empty empty empty 17 7 0 10 -262144 -1 -1 1
1;
#X floatatom 681 104 5 0 0 0 - - -;
#X floatatom 724 104 5 0 0 0 - - -;
#X floatatom 768 102 5 0 0 0 - - -;
#X floatatom 704 156 5 0 0 0 - - -;
#X floatatom 743 154 5 0 0 0 - - -;
#X floatatom 784 153 5 0 0 0 - - -;
#X obj 680 32 hsl 100 15 0 1 0 0 empty empty empty -2 -8 0 10 -262144
-1 -1 4500 1;
#X floatatom 745 67 5 0 0 0 - - -;
#X obj 436 438 polygon 5;
#X msg 672 72 -5 2 1 \$1;
#X obj 212 76 gemhead 120;
#X msg 286 74 1 -1 \$1 \$1;
#X connect 0 0 1 0;
#X connect 2 0 1 0;
#X connect 3 0 1 0;
#X connect 4 0 16 0;
#X connect 5 0 16 1;
#X connect 9 0 10 0;
#X connect 10 0 26 0;
#X connect 11 0 9 0;
#X connect 12 0 35 0;
#X connect 13 0 15 0;
#X connect 14 0 35 0;
#X connect 15 0 35 0;
#X connect 17 0 18 0;
#X connect 18 0 19 0;
#X connect 20 0 25 0;
#X connect 21 0 25 1;
#X connect 26 0 35 0;
#X connect 27 0 26 0;
#X connect 28 0 26 0;
#X connect 29 0 26 1;
#X connect 30 0 1 0;
#X connect 31 0 30 0;
#X connect 33 0 35 1;
#X connect 33 0 49 1;
#X connect 33 0 83 1;
#X connect 34 0 35 2;
#X connect 34 0 49 2;
#X connect 34 0 83 2;
#X connect 36 0 35 3;
#X connect 36 0 49 3;
#X connect 36 0 83 3;
#X connect 37 0 35 4;
#X connect 37 0 49 4;
#X connect 37 0 83 4;
#X connect 38 0 35 5;
#X connect 38 0 49 5;
#X connect 38 0 83 5;
#X connect 40 0 9 1;
#X connect 41 0 9 2;
#X connect 42 0 9 3;
#X connect 43 0 10 1;
#X connect 44 0 10 2;
#X connect 45 0 10 3;
#X connect 46 0 86 0;
#X connect 46 0 47 0;
#X connect 50 0 51 0;
#X connect 51 0 53 0;
#X connect 52 0 50 0;
#X connect 53 0 49 0;
#X connect 54 0 53 0;
#X connect 55 0 53 0;
#X connect 56 0 53 1;
#X connect 57 0 50 1;
#X connect 58 0 50 2;
#X connect 59 0 50 3;
#X connect 60 0 51 1;
#X connect 61 0 51 2;
#X connect 62 0 51 3;
#X connect 63 0 65 0;
#X connect 63 0 64 0;
#X connect 65 0 52 1;
#X connect 66 0 20 0;
#X connect 66 1 21 0;
#X connect 66 2 22 0;
#X connect 66 3 23 0;
#X connect 66 4 24 0;
#X connect 67 0 4 0;
#X connect 67 1 5 0;
#X connect 67 2 6 0;
#X connect 67 3 7 0;
#X connect 67 4 8 0;
#X connect 68 0 69 0;
#X connect 69 0 71 0;
#X connect 70 0 68 0;
#X connect 71 0 83 0;
#X connect 72 0 71 0;
#X connect 73 0 71 0;
#X connect 74 0 71 1;
#X connect 75 0 68 1;
#X connect 76 0 68 2;
#X connect 77 0 68 3;
#X connect 78 0 69 1;
#X connect 79 0 69 2;
#X connect 80 0 69 3;
#X connect 81 0 84 0;
#X connect 81 0 82 0;
#X connect 84 0 70 1;
#X connect 85 0 11 0;
#X connect 85 0 52 0;
#X connect 85 0 70 0;
#X connect 86 0 11 1;
