#N canvas 536 33 477 433 10;
#X obj 46 139 loadbang;
#X msg 45 47 dimen 400 300;
#X obj 22 73 tgl 15 0 empty empty empty 17 7 0 10 -262144 -1 -1 1 1
;
#X msg 54 73 create;
#X msg 100 73 destroy;
#X obj 45 109 gemwin;
#X obj 46 164 s lb;
#X obj 45 23 r lb;
#X obj 210 24 gemhead;
#X obj 210 50 part_head;
#X obj 210 216 part_velocity;
#X obj 210 185 part_source 5 point;
#X msg 357 181 sphere;
#X msg 357 199 0 0.3 0 0.2;
#X obj 210 156 part_color;
#X obj 340 89 r lb;
#X msg 298 116 1 1 0;
#X obj 210 265 part_killold 20;
#X msg 340 116 1 0 1;
#X obj 209 242 part_size;
#X floatatom 299 226 5 0 1 0 - - -;
#X obj 210 296 part_render;
#X obj 210 346 square;
#X msg 130 267 draw fill;
#X msg 129 296 draw line;
#X msg 148 24 speed \$1;
#X floatatom 148 2 5 0 4 0 - - -;
#X msg 277 157 0 -3 0 4;
#X floatatom 243 320 5 0 0 0 - - -;
#X msg 397 157 0 -2 -2 0;
#X msg 335 157 0 -3 0 0;
#X obj 210 122 pix_texture;
#X obj 210 70 pix_image rn028_02_01.jpg;
#X obj 210 97 color 0 0 5 0;
#X connect 0 0 6 0;
#X connect 1 0 5 0;
#X connect 2 0 5 0;
#X connect 3 0 5 0;
#X connect 4 0 5 0;
#X connect 7 0 1 0;
#X connect 8 0 9 0;
#X connect 9 0 32 0;
#X connect 10 0 19 0;
#X connect 11 0 10 0;
#X connect 12 0 10 1;
#X connect 13 0 10 2;
#X connect 14 0 11 0;
#X connect 15 0 18 0;
#X connect 15 0 16 0;
#X connect 16 0 14 1;
#X connect 17 0 21 0;
#X connect 18 0 14 2;
#X connect 19 0 17 0;
#X connect 20 0 19 1;
#X connect 21 0 22 0;
#X connect 23 0 22 0;
#X connect 24 0 22 0;
#X connect 25 0 9 0;
#X connect 26 0 25 0;
#X connect 27 0 11 3;
#X connect 28 0 22 1;
#X connect 29 0 11 3;
#X connect 30 0 11 3;
#X connect 31 0 14 0;
#X connect 32 0 33 0;
#X connect 33 0 31 0;
