#N canvas 585 34 450 300 10;
#X obj 35 13 loadbang;
#X msg 35 37 dimen 400 300;
#X obj 12 63 tgl 15 0 empty empty empty 17 7 0 10 -262144 -1 -1 1 1
;
#X msg 44 63 create;
#X msg 90 63 destroy;
#X obj 35 99 gemwin;
#X obj 202 13 gemhead;
#X obj 202 43 part_head;
#X obj 202 203 part_damp;
#X obj 202 232 part_draw;
#X floatatom 253 155 5 0 1 0 - - -;
#X msg 253 178 \$1 \$1 \$1;
#X obj 202 72 part_source 30;
#X obj 202 126 part_killold 30;
#X obj 202 101 part_velocity;
#X msg 350 62 plane;
#X msg 349 84 0 0.2;
#X connect 0 0 1 0;
#X connect 1 0 5 0;
#X connect 2 0 5 0;
#X connect 3 0 5 0;
#X connect 4 0 5 0;
#X connect 6 0 7 0;
#X connect 7 0 12 0;
#X connect 8 0 9 0;
#X connect 10 0 11 0;
#X connect 11 0 8 1;
#X connect 12 0 14 0;
#X connect 13 0 8 0;
#X connect 14 0 13 0;
#X connect 15 0 14 1;
#X connect 16 0 14 2;
