#N canvas 529 52 477 433 10;
#X obj 38 139 loadbang;
#X msg 37 47 dimen 400 300;
#X obj 14 73 tgl 15 0 empty empty empty 17 7 0 10 -262144 -1 -1 0 1
;
#X msg 46 73 create;
#X msg 92 73 destroy;
#X obj 37 109 gemwin;
#X obj 38 164 s lb;
#X obj 37 23 r lb;
#X obj 214 64 gemhead;
#X obj 214 256 part_velocity;
#X obj 214 225 part_source 5 point;
#X msg 361 221 sphere;
#X obj 214 190 part_color;
#X obj 414 136 r lb;
#X obj 214 305 part_killold 20;
#X obj 213 282 part_size;
#X floatatom 303 283 5 0 1 0 - - -;
#X obj 214 331 part_render;
#X obj 214 386 square;
#X msg 142 261 draw fill;
#X msg 141 283 draw line;
#X msg 152 64 speed \$1;
#X floatatom 152 42 5 0 4 0 - - -;
#X msg 281 197 0 -3 0 4;
#X floatatom 268 370 5 0 0 0 - - -;
#X msg 339 197 0 -3 0 0;
#X obj 155 16 hsl 128 15 0 4 0 0 empty empty empty -2 -8 0 10 -262144
-1 -1 1400 1;
#X obj 271 351 hsl 128 15 0 20 0 0 empty empty empty -2 -8 0 10 -262144
-1 -1 5080 1;
#X obj 308 334 hsl 128 15 0 1 0 0 empty empty empty -2 -8 0 10 -262144
-1 -1 5900 1;
#X obj 214 90 part_head 200;
#X obj 97 386 sphere;
#X msg 141 306 draw point;
#X floatatom 242 114 5 -1 1 0 - - -;
#X floatatom 288 112 5 -1 1 0 - - -;
#X msg 401 197 0 -2 -3 0;
#X msg 361 244 -0.2 0.3 0.2 0.3;
#X msg 361 264 0 0.3 0 0.3;
#X msg 360 285 0.2 0.3 0.2 0.3;
#X obj 349 52 metro 200;
#X floatatom 400 28 5 0 0 0 - - -;
#X obj 349 29 tgl 15 0 empty empty empty 17 7 0 10 -262144 -1 -1 0
1;
#X obj 349 87 counter;
#X obj 349 71 bng 15 250 50 0 empty empty empty 17 7 0 10 -262144 -1
-1;
#X obj 349 111 mod 3;
#X obj 350 132 sel 0 1 2;
#X msg 242 153 0 \$1 0;
#X msg 288 153 1 \$1 1;
#X msg 341 163 0 0 \$1;
#X msg 387 163 1 1 \$1;
#X floatatom 253 135 5 -1 1 0 - - -;
#X floatatom 299 133 5 -1 1 0 - - -;
#X obj 122 159 counter;
#X obj 122 143 bng 15 250 50 0 empty empty empty 17 7 0 10 -262144
-1 -1;
#X obj 122 124 metro 3000;
#X obj 122 186 mod 10;
#X obj 34 268 pix_record;
#X obj 40 308 pix_film;
#X connect 0 0 6 0;
#X connect 1 0 5 0;
#X connect 2 0 5 0;
#X connect 3 0 5 0;
#X connect 4 0 5 0;
#X connect 7 0 1 0;
#X connect 8 0 29 0;
#X connect 9 0 15 0;
#X connect 10 0 9 0;
#X connect 11 0 9 1;
#X connect 12 0 10 0;
#X connect 13 0 45 0;
#X connect 13 0 46 0;
#X connect 14 0 17 0;
#X connect 15 0 14 0;
#X connect 16 0 15 1;
#X connect 16 0 30 1;
#X connect 17 0 30 0;
#X connect 17 0 18 0;
#X connect 19 0 18 0;
#X connect 19 0 30 0;
#X connect 20 0 18 0;
#X connect 20 0 30 0;
#X connect 21 0 29 0;
#X connect 22 0 21 0;
#X connect 23 0 10 3;
#X connect 24 0 18 1;
#X connect 24 0 30 2;
#X connect 25 0 10 3;
#X connect 26 0 22 0;
#X connect 27 0 24 0;
#X connect 28 0 16 0;
#X connect 29 0 12 0;
#X connect 31 0 18 0;
#X connect 31 0 30 0;
#X connect 32 0 45 0;
#X connect 33 0 46 0;
#X connect 34 0 10 3;
#X connect 35 0 9 2;
#X connect 36 0 9 2;
#X connect 37 0 9 2;
#X connect 38 0 42 0;
#X connect 39 0 38 1;
#X connect 40 0 38 0;
#X connect 40 0 53 0;
#X connect 41 0 43 0;
#X connect 42 0 41 0;
#X connect 43 0 44 0;
#X connect 44 0 35 0;
#X connect 44 0 23 0;
#X connect 44 1 36 0;
#X connect 44 1 25 0;
#X connect 44 2 37 0;
#X connect 44 2 34 0;
#X connect 45 0 12 1;
#X connect 46 0 12 2;
#X connect 47 0 12 1;
#X connect 48 0 12 2;
#X connect 49 0 47 0;
#X connect 50 0 48 0;
#X connect 51 0 54 0;
#X connect 52 0 51 0;
#X connect 53 0 52 0;
#X connect 54 0 27 0;
