#N canvas 151 33 781 438 10;
#X declare -lib cyclone/counter;
#X declare -lib Gem;
#X obj 205 27 import cyclone/counter;
#X obj 205 6 import Gem;
#X obj 123 12 tgl 15 0 empty empty empty 17 7 0 10 -262144 -1 -1 0
1;
#X obj 123 40 sel 0 1;
#X obj 154 73 t b b b b;
#X msg 87 87 record 0;
#X msg 206 98 auto 1;
#X msg 206 122 codec jpeg;
#X msg 204 168 record 1;
#X msg 219 199 codeclist;
#X obj 92 388 pix_record;
#X floatatom 120 412 5 0 0 0 - - -;
#X msg 205 146 file mymovie.mpg;
#X obj -27 131 loadbang;
#X msg -28 39 dimen 400 300;
#X obj -51 65 tgl 15 0 empty empty empty 17 7 0 10 -262144 -1 -1 0
1;
#X msg -19 65 create;
#X msg 27 65 destroy;
#X obj -28 101 gemwin;
#X obj -27 156 s lb;
#X obj -28 15 r lb;
#X obj 420 29 gemhead;
#X obj 420 55 part_head;
#X obj 420 221 part_velocity;
#X obj 420 190 part_source 5 point;
#X msg 567 186 sphere;
#X msg 567 204 0 0.3 0 0.2;
#X obj 420 161 part_color;
#X obj 550 94 r lb;
#X msg 508 121 1 1 0;
#X obj 420 270 part_killold 20;
#X msg 550 121 1 0 1;
#X obj 419 247 part_size;
#X floatatom 509 231 5 0 1 0 - - -;
#X obj 420 301 part_render;
#X obj 420 351 square;
#X msg 340 272 draw fill;
#X msg 339 301 draw line;
#X msg 358 29 speed \$1;
#X floatatom 358 7 5 0 4 0 - - -;
#X msg 487 162 0 -3 0 4;
#X floatatom 453 325 5 0 0 0 - - -;
#X msg 607 162 0 -2 -2 0;
#X msg 545 162 0 -3 0 0;
#X obj 420 127 pix_texture;
#X obj 420 75 pix_image rn028_02_01.jpg;
#X obj 420 102 color 0 0 5 0;
#X connect 2 0 3 0;
#X connect 3 0 5 0;
#X connect 3 1 4 0;
#X connect 4 0 8 0;
#X connect 4 1 12 0;
#X connect 4 2 7 0;
#X connect 4 3 6 0;
#X connect 5 0 10 0;
#X connect 6 0 10 0;
#X connect 7 0 10 0;
#X connect 8 0 10 0;
#X connect 9 0 10 0;
#X connect 10 1 11 0;
#X connect 12 0 10 0;
#X connect 13 0 19 0;
#X connect 14 0 18 0;
#X connect 15 0 18 0;
#X connect 16 0 18 0;
#X connect 17 0 18 0;
#X connect 20 0 14 0;
#X connect 21 0 22 0;
#X connect 22 0 45 0;
#X connect 23 0 32 0;
#X connect 24 0 23 0;
#X connect 25 0 23 1;
#X connect 26 0 23 2;
#X connect 27 0 24 0;
#X connect 28 0 31 0;
#X connect 28 0 29 0;
#X connect 29 0 27 1;
#X connect 30 0 34 0;
#X connect 31 0 27 2;
#X connect 32 0 30 0;
#X connect 33 0 32 1;
#X connect 34 0 35 0;
#X connect 35 0 10 0;
#X connect 36 0 35 0;
#X connect 37 0 35 0;
#X connect 38 0 22 0;
#X connect 39 0 38 0;
#X connect 40 0 24 3;
#X connect 41 0 35 1;
#X connect 42 0 24 3;
#X connect 43 0 24 3;
#X connect 44 0 27 0;
#X connect 45 0 46 0;
#X connect 46 0 44 0;
