#N canvas 480 6 510 504 10;
#X msg 17 14 create;
#X msg 24 40 destroy;
#X obj 43 63 tgl 15 0 empty empty empty 17 7 0 10 -262144 -1 -1 1 1
;
#X obj 17 93 gemwin;
#X obj 141 113 hradio 15 1 0 8 empty empty empty 0 -8 0 10 -262144
-1 -1 0;
#X obj 104 39 metro 200;
#X obj 104 15 tgl 15 0 empty empty empty 17 7 0 10 -262144 -1 -1 1
1;
#X obj 104 62 counter;
#X obj 375 155 t b f;
#X obj 434 158 t b f;
#X obj 363 91 nbx 5 14 -1 1 0 0 empty empty empty 0 -8 0 10 -262144
-1 -1 1 256;
#X obj 421 92 nbx 5 14 -1 1 0 0 empty empty empty 0 -8 0 10 -262144
-1 -1 1 256;
#X obj 423 127 nbx 5 14 -1 1 0 0 empty empty empty 0 -8 0 10 -262144
-1 -1 0 256;
#X msg 311 128 env \$1;
#X floatatom 155 14 5 0 0 0 - - -;
#X obj 190 79 mod 16;
#X obj 238 96 bng 15 250 50 0 empty empty empty 17 7 0 10 -262144 -1
-1;
#X obj 80 114 mod 361;
#X obj 104 89 mod 8;
#X obj 37 231 tgl 15 0 empty empty empty 17 7 0 10 -262144 -1 -1 1
1;
#X obj 75 230 tgl 15 0 empty empty empty 17 7 0 10 -262144 -1 -1 0
1;
#X msg 45 186 0;
#X msg 81 186 0;
#X obj 37 159 sel 0;
#X obj 74 159 sel 1;
#X obj 111 232 tgl 15 0 empty empty empty 17 7 0 10 -262144 -1 -1 0
1;
#X obj 147 231 tgl 15 0 empty empty empty 17 7 0 10 -262144 -1 -1 0
1;
#X msg 116 186 0;
#X msg 155 186 0;
#X obj 110 159 sel 2;
#X obj 147 159 sel 3;
#X obj 185 230 tgl 15 0 empty empty empty 17 7 0 10 -262144 -1 -1 0
1;
#X obj 223 230 tgl 15 0 empty empty empty 17 7 0 10 -262144 -1 -1 0
1;
#X msg 193 186 0;
#X msg 229 186 0;
#X obj 259 232 tgl 15 0 empty empty empty 17 7 0 10 -262144 -1 -1 0
1;
#X obj 295 231 tgl 15 0 empty empty empty 17 7 0 10 -262144 -1 -1 1
1;
#X msg 264 186 0;
#X msg 303 186 0;
#X obj 185 159 sel 4;
#X obj 222 159 sel 5;
#X obj 258 159 sel 6;
#X obj 295 159 sel 7;
#X obj 34 275 gemhead;
#X obj 34 352 pix_texture;
#X obj 191 276 gemhead;
#X obj 191 353 pix_texture;
#X obj 34 300 pix_image rn028_02_01.jpg;
#X obj 191 301 pix_image rn028_02_02.jpg;
#X obj 34 327 color 0 0 5 0;
#X obj 130 327 pix_add;
#X obj 34 385 rotateXYZ;
#X obj 191 386 rotateXYZ;
#X obj 191 329 color 0 0 5 0;
#X obj 34 413 translateXYZ 0 0 0;
#X obj 191 412 translateXYZ 0 0 0;
#X obj 62 447 cube 2;
#X obj 280 461 cube 2;
#X obj 32 126 mod 2;
#X obj 19 447 cube 1;
#X obj 236 461 cube 1;
#X obj 363 202 pack 0 0 1;
#X obj 284 49 hradio 15 1 0 8 empty empty empty 0 -8 0 10 -262144 -1
-1 5;
#X obj 196 30 * 2;
#X obj 232 30 metro 200;
#X obj 232 62 counter;
#X obj 284 111 random 7;
#X floatatom 290 14 5 0 0 0 - - -;
#X obj 105 447 cube 4;
#X obj 149 447 cube 6;
#X obj 325 461 cube 4;
#X obj 369 461 cube 6;
#X text 362 74 R;
#X text 418 74 G;
#X text 422 111 B;
#X msg 381 235 gemList;
#X obj 380 307 gemkeyboard;
#X floatatom 380 334 5 0 0 0 - - -;
#X obj 380 360 gemmouse;
#X floatatom 380 409 5 0 0 0 - - -;
#X floatatom 391 390 5 0 0 0 - - -;
#X obj 380 258 part_head;
#X connect 0 0 3 0;
#X connect 1 0 3 0;
#X connect 2 0 3 0;
#X connect 4 0 23 0;
#X connect 4 0 24 0;
#X connect 4 0 29 0;
#X connect 4 0 30 0;
#X connect 4 0 39 0;
#X connect 4 0 40 0;
#X connect 4 0 41 0;
#X connect 4 0 42 0;
#X connect 5 0 7 0;
#X connect 6 0 5 0;
#X connect 6 0 64 0;
#X connect 7 0 17 0;
#X connect 7 0 18 0;
#X connect 7 0 58 0;
#X connect 8 0 61 0;
#X connect 8 1 61 1;
#X connect 9 0 61 0;
#X connect 9 1 61 2;
#X connect 10 0 61 0;
#X connect 11 0 8 0;
#X connect 12 0 9 0;
#X connect 13 0 46 0;
#X connect 13 0 44 0;
#X connect 14 0 5 1;
#X connect 14 0 63 0;
#X connect 15 0 16 0;
#X connect 16 0 66 0;
#X connect 17 0 51 2;
#X connect 17 0 52 2;
#X connect 18 0 4 0;
#X connect 19 0 43 0;
#X connect 20 0 45 0;
#X connect 21 0 20 0;
#X connect 22 0 19 0;
#X connect 22 0 25 0;
#X connect 23 0 19 0;
#X connect 23 0 21 0;
#X connect 24 0 20 0;
#X connect 24 0 22 0;
#X connect 25 0 43 0;
#X connect 26 0 45 0;
#X connect 27 0 26 0;
#X connect 27 0 20 0;
#X connect 28 0 25 0;
#X connect 28 0 31 0;
#X connect 29 0 25 0;
#X connect 29 0 27 0;
#X connect 30 0 26 0;
#X connect 30 0 28 0;
#X connect 31 0 43 0;
#X connect 32 0 45 0;
#X connect 33 0 32 0;
#X connect 33 0 26 0;
#X connect 34 0 31 0;
#X connect 34 0 35 0;
#X connect 35 0 43 0;
#X connect 36 0 45 0;
#X connect 37 0 36 0;
#X connect 37 0 32 0;
#X connect 38 0 35 0;
#X connect 39 0 31 0;
#X connect 39 0 33 0;
#X connect 40 0 32 0;
#X connect 40 0 34 0;
#X connect 41 0 35 0;
#X connect 41 0 37 0;
#X connect 42 0 36 0;
#X connect 42 0 38 0;
#X connect 43 0 47 0;
#X connect 44 0 51 0;
#X connect 45 0 48 0;
#X connect 46 0 52 0;
#X connect 47 0 49 0;
#X connect 47 0 50 0;
#X connect 48 0 53 0;
#X connect 48 0 50 1;
#X connect 49 0 44 0;
#X connect 51 0 54 0;
#X connect 52 0 55 0;
#X connect 53 0 46 0;
#X connect 54 0 56 0;
#X connect 54 0 59 0;
#X connect 54 0 68 0;
#X connect 54 0 69 0;
#X connect 55 0 57 0;
#X connect 55 0 60 0;
#X connect 55 0 70 0;
#X connect 55 0 71 0;
#X connect 58 0 54 1;
#X connect 58 0 55 1;
#X connect 61 0 49 1;
#X connect 61 0 53 1;
#X connect 62 0 13 0;
#X connect 63 0 67 0;
#X connect 64 0 65 0;
#X connect 65 0 15 0;
#X connect 66 0 62 0;
#X connect 67 0 64 1;
#X connect 76 0 77 0;
#X connect 78 0 79 0;
#X connect 78 1 80 0;
