#N canvas 702 101 450 300 10;
#X obj 212 162 gop_locdel;
#X obj 206 26 gop_locdel;
#X obj 210 93 gop_locdel;
#X obj 214 228 gop_locdel;
#X obj 207 70 dac~;
#X obj 190 138 dac~;
#X obj 212 205 dac~;
#X obj 193 275 dac~;
#X obj 78 21 tgl 15 0 empty empty empty 17 7 0 10 -262144 -1 -1 0 1
;
#X obj 9 53 osc~ 1000;
#X obj 78 79 delay 100;
#X obj 10 151 *~;
#X msg 32 81 0.3;
#X msg 78 104 0;
#X floatatom 32 127 5 0 0 0 - - -;
#X obj 11 181 dac~;
#X obj 56 168 s~ delays;
#X obj 142 8 r~ delays;
#X obj 144 70 r~ delays;
#X obj 126 138 r~ delays;
#X obj 141 207 r~ delays;
#X msg 15 250 \; pd dsp 0;
#X msg 14 212 \; pd dsp 1;
#X obj 78 53 metro 2200;
#X connect 0 0 6 0;
#X connect 1 0 4 0;
#X connect 2 0 5 1;
#X connect 3 0 7 1;
#X connect 8 0 23 0;
#X connect 9 0 11 0;
#X connect 10 0 13 0;
#X connect 11 0 15 0;
#X connect 11 0 15 1;
#X connect 11 0 16 0;
#X connect 12 0 14 0;
#X connect 13 0 14 0;
#X connect 14 0 11 1;
#X connect 17 0 1 0;
#X connect 18 0 2 0;
#X connect 19 0 0 0;
#X connect 20 0 3 0;
#X connect 23 0 10 0;
#X connect 23 0 12 0;
#X coords 0 300 1 299 85 60 0;
