#N canvas 0 0 615 300 10;
#X obj 13 241 triangle 2;
#X obj 13 152 rotateXYZ;
#X obj 13 202 translateXYZ;
#X obj 13 56 color;
#X obj 13 98 alpha;
#X obj 13 10 inlet;
#X obj 57 12 inlet;
#X obj 97 12 inlet;
#X obj 136 13 inlet;
#X obj 177 12 inlet rX;
#X obj 235 12 inlet rY;
#X obj 292 13 inlet rZ;
#X obj 354 12 inlet tX;
#X obj 409 14 inlet tY;
#X obj 466 12 inlet tZ;
#X obj 530 12 inlet sZ;
#X obj 13 274 outlet;
#X obj 312 145 osc~;
#X obj 350 144 osc~;
#X obj 387 143 osc~;
#X obj 453 142 osc~;
#X obj 491 141 osc~;
#X obj 528 140 osc~;
#X obj 352 200 *~ 0.2;
#X obj 493 202 *~ 0.2;
#X obj 356 253 outlet~;
#X obj 490 253 outlet~;
#X obj 433 109 * 100;
#X obj 484 110 * 100;
#X obj 537 110 * 100;
#X connect 0 0 16 0;
#X connect 1 0 2 0;
#X connect 2 0 0 0;
#X connect 3 0 4 0;
#X connect 4 0 1 0;
#X connect 5 0 3 0;
#X connect 6 0 3 1;
#X connect 7 0 4 0;
#X connect 8 0 4 1;
#X connect 9 0 1 1;
#X connect 9 0 17 0;
#X connect 10 0 1 2;
#X connect 10 0 18 0;
#X connect 11 0 1 3;
#X connect 11 0 19 0;
#X connect 12 0 2 1;
#X connect 12 0 27 0;
#X connect 13 0 2 2;
#X connect 13 0 28 0;
#X connect 14 0 2 3;
#X connect 14 0 29 0;
#X connect 15 0 0 1;
#X connect 17 0 23 0;
#X connect 18 0 23 0;
#X connect 19 0 23 0;
#X connect 20 0 24 0;
#X connect 21 0 24 0;
#X connect 22 0 24 0;
#X connect 23 0 25 0;
#X connect 24 0 26 0;
#X connect 27 0 20 0;
#X connect 28 0 21 0;
#X connect 29 0 22 0;
