#N canvas 551 73 759 569 10;
#X obj 36 18 tgl 15 0 empty empty empty 17 7 0 10 -262144 -1 -1 1 1
;
#X obj 34 83 gemwin;
#X msg 61 45 destroy;
#X msg 58 20 create \, dimen 600 600;
#X msg 118 66 lighting \$1;
#X obj 118 41 tgl 15 0 empty empty empty 17 7 0 10 -262144 -1 -1 0
1;
#X obj 202 70 counter;
#X msg 265 47 359;
#X obj 202 47 metro 20;
#X obj 202 15 tgl 15 0 empty empty empty 17 7 0 10 -262144 -1 -1 0
1;
#X obj 264 30 bng 15 250 50 0 empty empty empty 17 7 0 10 -262144 -1
-1;
#X floatatom 155 87 5 0 0 0 - - -;
#X floatatom 249 11 5 0 0 0 - - -;
#X obj 418 156 hsl 10 10 0 1.5 0 0 empty empty empty -2 -8 0 10 -262144
-1 -1 900 1;
#X obj 293 143 tgl 15 0 empty empty empty 17 7 0 10 -262144 -1 -1 1
1;
#X obj 311 143 tgl 15 0 empty empty empty 17 7 0 10 -262144 -1 -1 0
1;
#X msg 34 301 1 -1 1 \$1;
#X obj 37 248 hsl 50 10 0 1 0 0 empty empty empty -2 -8 0 10 -262144
-1 -1 500 1;
#X floatatom 329 116 5 0 0 0 - - -;
#X floatatom 365 115 5 0 0 0 - - -;
#X floatatom 400 116 5 0 0 0 - - -;
#X floatatom 335 136 5 0 0 0 - - -;
#X floatatom 370 136 5 0 0 0 - - -;
#X floatatom 406 136 5 0 0 0 - - -;
#X obj 282 252 tgl 15 0 empty empty empty 17 7 0 10 -262144 -1 -1 0
1;
#X obj 312 238 tgl 15 0 empty empty empty 17 7 0 10 -262144 -1 -1 0
1;
#X floatatom 332 213 5 0 0 0 - - -;
#X floatatom 367 213 5 0 0 0 - - -;
#X floatatom 403 213 5 0 0 0 - - -;
#X floatatom 340 235 5 0 0 0 - - -;
#X floatatom 375 235 5 0 0 0 - - -;
#X floatatom 411 235 5 0 0 0 - - -;
#X obj 419 254 hsl 10 10 0 1.5 0 0 empty empty empty -2 -8 0 10 -262144
-1 -1 900 1;
#X obj 416 360 hsl 10 10 0 1.5 0 0 empty empty empty -2 -8 0 10 -262144
-1 -1 900 1;
#X obj 277 337 tgl 15 0 empty empty empty 17 7 0 10 -262144 -1 -1 0
1;
#X obj 295 337 tgl 15 0 empty empty empty 17 7 0 10 -262144 -1 -1 0
1;
#X floatatom 325 311 5 0 0 0 - - -;
#X floatatom 360 311 5 0 0 0 - - -;
#X floatatom 396 311 5 0 0 0 - - -;
#X floatatom 333 340 5 0 0 0 - - -;
#X floatatom 368 340 5 0 0 0 - - -;
#X floatatom 406 341 5 0 0 0 - - -;
#X obj 421 481 hsl 10 10 0 1.5 0 0 empty empty empty -2 -8 0 10 -262144
-1 -1 900 1;
#X obj 281 462 tgl 15 0 empty empty empty 17 7 0 10 -262144 -1 -1 0
1;
#X obj 299 462 tgl 15 0 empty empty empty 17 7 0 10 -262144 -1 -1 0
1;
#X floatatom 329 408 5 0 0 0 - - -;
#X floatatom 364 408 5 0 0 0 - - -;
#X floatatom 400 408 5 0 0 0 - - -;
#X floatatom 319 461 5 0 0 0 - - -;
#X floatatom 354 461 5 0 0 0 - - -;
#X floatatom 390 461 5 0 0 0 - - -;
#X obj 665 180 hsl 10 10 0 1.5 0 0 empty empty empty -2 -8 0 10 -262144
-1 -1 900 1;
#X obj 457 135 tgl 15 0 empty empty empty 17 7 0 10 -262144 -1 -1 0
1;
#X obj 475 135 tgl 15 0 empty empty empty 17 7 0 10 -262144 -1 -1 0
1;
#X floatatom 495 135 5 0 0 0 - - -;
#X floatatom 530 135 5 0 0 0 - - -;
#X floatatom 566 135 5 0 0 0 - - -;
#X floatatom 582 160 5 0 0 0 - - -;
#X floatatom 617 160 5 0 0 0 - - -;
#X floatatom 653 160 5 0 0 0 - - -;
#X obj 482 247 tgl 15 0 empty empty empty 17 7 0 10 -262144 -1 -1 0
1;
#X obj 500 247 tgl 15 0 empty empty empty 17 7 0 10 -262144 -1 -1 0
1;
#X floatatom 521 224 5 0 0 0 - - -;
#X floatatom 556 223 5 0 0 0 - - -;
#X floatatom 592 224 5 0 0 0 - - -;
#X floatatom 581 264 5 0 0 0 - - -;
#X floatatom 616 264 5 0 0 0 - - -;
#X floatatom 652 264 5 0 0 0 - - -;
#X obj 660 283 hsl 10 10 0 1.5 0 0 empty empty empty -2 -8 0 10 -262144
-1 -1 900 1;
#X obj 608 383 hsl 10 10 0 1.5 0 0 empty empty empty -2 -8 0 10 -262144
-1 -1 900 1;
#X obj 483 345 tgl 15 0 empty empty empty 17 7 0 10 -262144 -1 -1 0
1;
#X obj 501 345 tgl 15 0 empty empty empty 17 7 0 10 -262144 -1 -1 1
1;
#X floatatom 514 323 5 0 0 0 - - -;
#X floatatom 549 323 5 0 0 0 - - -;
#X floatatom 585 323 5 0 0 0 - - -;
#X floatatom 522 356 5 0 0 0 - - -;
#X floatatom 557 356 5 0 0 0 - - -;
#X floatatom 593 356 5 0 0 0 - - -;
#X obj 656 481 hsl 10 10 0 1.5 0 0 empty empty empty -2 -8 0 10 -262144
-1 -1 900 1;
#X obj 479 443 tgl 15 0 empty empty empty 17 7 0 10 -262144 -1 -1 0
1;
#X obj 497 443 tgl 15 0 empty empty empty 17 7 0 10 -262144 -1 -1 0
1;
#X floatatom 518 420 5 0 0 0 - - -;
#X floatatom 553 420 5 0 0 0 - - -;
#X floatatom 589 420 5 0 0 0 - - -;
#X floatatom 578 458 5 0 0 0 - - -;
#X floatatom 613 458 5 0 0 0 - - -;
#X floatatom 649 458 5 0 0 0 - - -;
#X obj 289 187 isotriangle_wrapper;
#X obj 443 199 isotriangle_wrapper;
#X obj 281 284 isotriangle_wrapper;
#X obj 282 381 isotriangle_wrapper;
#X obj 275 491 isotriangle_wrapper;
#X obj 470 296 isotriangle_wrapper;
#X obj 471 393 isotriangle_wrapper;
#X obj 466 491 isotriangle_wrapper;
#X obj 292 81 hsl 40 10 -4 4 0 0 empty empty empty -4 -8 0 10 -262144
-1 -1 1600 1;
#X obj 341 80 hsl 40 10 -4 4 0 0 empty empty empty -2 -8 0 10 -262144
-1 -1 800 1;
#X obj 255 115 gemhead 120;
#X obj 443 97 gemhead 120;
#X obj 110 218 gemhead 120;
#X obj 444 225 gemhead 120;
#X obj 171 338 gemhead 120;
#X obj 132 431 gemhead 120;
#X obj 438 320 gemhead 120;
#X obj 444 418 gemhead 120;
#X obj 390 80 hsl 40 10 -2 2 0 0 empty empty empty -4 -8 0 10 -262144
-1 -1 0 1;
#X obj 631 109 hsl 40 10 -4 8 0 0 empty empty empty -2 -8 0 10 -262144
-1 -1 1100 1;
#X obj 635 127 hsl 40 10 -4 4 0 0 empty empty empty -4 -8 0 10 -262144
-1 -1 1500 1;
#X obj 639 141 hsl 40 10 -4 4 0 0 empty empty empty -4 -8 0 10 -262144
-1 -1 0 1;
#X obj 170 407 hsl 40 10 -4 4 0 0 empty empty empty -2 -8 0 10 -262144
-1 -1 600 1;
#X obj 219 406 hsl 40 10 -4 4 0 0 empty empty empty -2 -8 0 10 -262144
-1 -1 2400 1;
#X obj 267 406 hsl 40 10 -2 2 0 0 empty empty empty -2 -8 0 10 -262144
-1 -1 0 1;
#X obj 101 178 hsl 40 10 -4 4 0 0 empty empty empty -2 -8 0 10 -262144
-1 -1 600 1;
#X obj 150 177 hsl 40 10 -4 4 0 0 empty empty empty -2 -8 0 10 -262144
-1 -1 3100 1;
#X obj 198 177 hsl 40 10 -2 2 0 0 empty empty empty -4 -8 0 10 -262144
-1 -1 0 1;
#X obj 120 273 hsl 40 10 -4 4 0 0 empty empty empty -2 -8 0 10 -262144
-1 -1 2600 1;
#X obj 169 272 hsl 40 10 -4 4 0 0 empty empty empty -2 -8 0 10 -262144
-1 -1 3100 1;
#X obj 217 272 hsl 40 10 -2 2 0 0 empty empty empty -2 -8 0 10 -262144
-1 -1 0 1;
#X obj 644 221 hsl 40 10 -4 4 0 0 empty empty empty -2 -8 0 10 -262144
-1 -1 2600 1;
#X obj 644 235 hsl 40 10 -4 4 0 0 empty empty empty -2 -8 0 10 -262144
-1 -1 2400 1;
#X obj 648 249 hsl 40 10 -2 2 0 0 empty empty empty -2 -8 0 10 -262144
-1 -1 0 1;
#X obj 648 319 hsl 40 10 -4 4 0 0 empty empty empty -2 -8 0 10 -262144
-1 -1 3500 1;
#X obj 646 333 hsl 40 10 -4 4 0 0 empty empty empty -2 -8 0 10 -262144
-1 -1 800 1;
#X obj 647 346 hsl 40 10 -2 2 0 0 empty empty empty -2 -8 0 10 -262144
-1 -1 0 1;
#X obj 647 416 hsl 40 10 -4 4 0 0 empty empty empty -2 -8 0 10 -262144
-1 -1 3500 1;
#X obj 645 430 hsl 40 10 -4 4 0 0 empty empty empty -2 -8 0 10 -262144
-1 -1 1500 1;
#X obj 646 443 hsl 40 10 -2 2 0 0 empty empty empty -2 -8 0 10 -262144
-1 -1 0 1;
#X obj 930 180 hsl 10 10 0 1.5 0 0 empty empty empty -2 -8 0 10 -262144
-1 -1 900 1;
#X obj 722 135 tgl 15 0 empty empty empty 17 7 0 10 -262144 -1 -1 0
1;
#X obj 740 135 tgl 15 0 empty empty empty 17 7 0 10 -262144 -1 -1 0
1;
#X floatatom 760 135 5 0 0 0 - - -;
#X floatatom 795 135 5 0 0 0 - - -;
#X floatatom 831 135 5 0 0 0 - - -;
#X floatatom 847 160 5 0 0 0 - - -;
#X floatatom 882 160 5 0 0 0 - - -;
#X floatatom 918 160 5 0 0 0 - - -;
#X obj 747 247 tgl 15 0 empty empty empty 17 7 0 10 -262144 -1 -1 0
1;
#X obj 765 247 tgl 15 0 empty empty empty 17 7 0 10 -262144 -1 -1 0
1;
#X floatatom 786 224 5 0 0 0 - - -;
#X floatatom 821 223 5 0 0 0 - - -;
#X floatatom 857 224 5 0 0 0 - - -;
#X floatatom 846 264 5 0 0 0 - - -;
#X floatatom 881 264 5 0 0 0 - - -;
#X floatatom 917 264 5 0 0 0 - - -;
#X obj 925 283 hsl 10 10 0 1.5 0 0 empty empty empty -2 -8 0 10 -262144
-1 -1 900 1;
#X obj 874 373 hsl 10 10 0 1.5 0 0 empty empty empty -2 -8 0 10 -262144
-1 -1 900 1;
#X obj 748 345 tgl 15 0 empty empty empty 17 7 0 10 -262144 -1 -1 0
1;
#X obj 766 345 tgl 15 0 empty empty empty 17 7 0 10 -262144 -1 -1 0
1;
#X floatatom 779 323 5 0 0 0 - - -;
#X floatatom 814 323 5 0 0 0 - - -;
#X floatatom 850 323 5 0 0 0 - - -;
#X floatatom 787 356 5 0 0 0 - - -;
#X floatatom 822 356 5 0 0 0 - - -;
#X floatatom 858 356 5 0 0 0 - - -;
#X obj 921 481 hsl 10 10 0 1.5 0 0 empty empty empty -2 -8 0 10 -262144
-1 -1 900 1;
#X obj 744 443 tgl 15 0 empty empty empty 17 7 0 10 -262144 -1 -1 0
1;
#X obj 762 443 tgl 15 0 empty empty empty 17 7 0 10 -262144 -1 -1 0
1;
#X floatatom 783 420 5 0 0 0 - - -;
#X floatatom 818 420 5 0 0 0 - - -;
#X floatatom 854 420 5 0 0 0 - - -;
#X floatatom 843 458 5 0 0 0 - - -;
#X floatatom 878 458 5 0 0 0 - - -;
#X floatatom 914 458 5 0 0 0 - - -;
#X obj 708 199 isotriangle_wrapper;
#X obj 735 296 isotriangle_wrapper;
#X obj 736 393 isotriangle_wrapper;
#X obj 731 491 isotriangle_wrapper;
#X obj 708 97 gemhead 120;
#X obj 709 225 gemhead 120;
#X obj 703 320 gemhead 120;
#X obj 709 418 gemhead 120;
#X obj 894 112 hsl 40 10 -4 8 0 0 empty empty empty -2 -8 0 10 -262144
-1 -1 0 1;
#X obj 898 126 hsl 40 10 -4 4 0 0 empty empty empty -4 -8 0 10 -262144
-1 -1 200 1;
#X obj 902 140 hsl 40 10 -4 4 0 0 empty empty empty -4 -8 0 10 -262144
-1 -1 0 1;
#X obj 909 221 hsl 40 10 -4 4 0 0 empty empty empty -2 -8 0 10 -262144
-1 -1 1700 1;
#X obj 909 235 hsl 40 10 -4 4 0 0 empty empty empty -2 -8 0 10 -262144
-1 -1 3900 1;
#X obj 913 249 hsl 40 10 -2 2 0 0 empty empty empty -2 -8 0 10 -262144
-1 -1 0 1;
#X obj 913 319 hsl 40 10 -4 4 0 0 empty empty empty -2 -8 0 10 -262144
-1 -1 0 1;
#X obj 911 333 hsl 40 10 -4 4 0 0 empty empty empty -2 -8 0 10 -262144
-1 -1 800 1;
#X obj 912 346 hsl 40 10 -2 2 0 0 empty empty empty -2 -8 0 10 -262144
-1 -1 0 1;
#X obj 912 416 hsl 40 10 -4 4 0 0 empty empty empty -2 -8 0 10 -262144
-1 -1 2600 1;
#X obj 910 430 hsl 40 10 -4 4 0 0 empty empty empty -2 -8 0 10 -262144
-1 -1 0 1;
#X obj 911 443 hsl 40 10 -2 2 0 0 empty empty empty -2 -8 0 10 -262144
-1 -1 0 1;
#X connect 0 0 1 0;
#X connect 2 0 1 0;
#X connect 3 0 1 0;
#X connect 4 0 1 0;
#X connect 5 0 4 0;
#X connect 6 0 11 0;
#X connect 6 0 19 0;
#X connect 6 0 55 0;
#X connect 6 0 27 0;
#X connect 6 0 63 0;
#X connect 6 0 37 0;
#X connect 6 0 73 0;
#X connect 6 0 46 0;
#X connect 6 0 82 0;
#X connect 6 0 131 0;
#X connect 6 0 139 0;
#X connect 6 0 149 0;
#X connect 6 0 158 0;
#X connect 7 0 6 4;
#X connect 8 0 6 0;
#X connect 9 0 8 0;
#X connect 9 0 10 0;
#X connect 10 0 7 0;
#X connect 12 0 8 1;
#X connect 13 0 87 10;
#X connect 14 0 87 2;
#X connect 15 0 87 3;
#X connect 16 0 87 1;
#X connect 16 0 88 1;
#X connect 16 0 89 1;
#X connect 16 0 90 1;
#X connect 16 0 91 1;
#X connect 16 0 92 1;
#X connect 16 0 93 1;
#X connect 16 0 94 1;
#X connect 16 0 163 1;
#X connect 16 0 164 1;
#X connect 16 0 165 1;
#X connect 16 0 166 1;
#X connect 17 0 16 0;
#X connect 18 0 87 4;
#X connect 19 0 87 5;
#X connect 20 0 87 6;
#X connect 21 0 87 7;
#X connect 22 0 87 8;
#X connect 23 0 87 9;
#X connect 24 0 89 2;
#X connect 25 0 89 3;
#X connect 26 0 89 4;
#X connect 27 0 89 5;
#X connect 28 0 89 6;
#X connect 29 0 89 7;
#X connect 30 0 89 8;
#X connect 31 0 89 9;
#X connect 32 0 89 10;
#X connect 33 0 90 10;
#X connect 34 0 90 2;
#X connect 35 0 90 3;
#X connect 36 0 90 4;
#X connect 37 0 90 5;
#X connect 38 0 90 6;
#X connect 39 0 90 7;
#X connect 40 0 90 8;
#X connect 41 0 90 9;
#X connect 42 0 91 10;
#X connect 43 0 91 2;
#X connect 44 0 91 3;
#X connect 45 0 91 4;
#X connect 46 0 91 5;
#X connect 47 0 91 6;
#X connect 48 0 91 7;
#X connect 49 0 91 8;
#X connect 50 0 91 9;
#X connect 51 0 88 10;
#X connect 52 0 88 2;
#X connect 53 0 88 3;
#X connect 54 0 88 4;
#X connect 55 0 88 5;
#X connect 56 0 88 6;
#X connect 57 0 88 7;
#X connect 58 0 88 8;
#X connect 59 0 88 9;
#X connect 60 0 92 2;
#X connect 61 0 92 3;
#X connect 62 0 92 4;
#X connect 63 0 92 5;
#X connect 64 0 92 6;
#X connect 65 0 92 7;
#X connect 66 0 92 8;
#X connect 67 0 92 9;
#X connect 68 0 92 10;
#X connect 69 0 93 10;
#X connect 70 0 93 2;
#X connect 71 0 93 3;
#X connect 72 0 93 4;
#X connect 73 0 93 5;
#X connect 74 0 93 6;
#X connect 75 0 93 7;
#X connect 76 0 93 8;
#X connect 77 0 93 9;
#X connect 78 0 94 10;
#X connect 79 0 94 2;
#X connect 80 0 94 3;
#X connect 81 0 94 4;
#X connect 82 0 94 5;
#X connect 83 0 94 6;
#X connect 84 0 94 7;
#X connect 85 0 94 8;
#X connect 86 0 94 9;
#X connect 95 0 21 0;
#X connect 96 0 22 0;
#X connect 97 0 87 0;
#X connect 98 0 88 0;
#X connect 99 0 89 0;
#X connect 100 0 92 0;
#X connect 101 0 90 0;
#X connect 102 0 91 0;
#X connect 103 0 93 0;
#X connect 104 0 94 0;
#X connect 105 0 23 0;
#X connect 106 0 57 0;
#X connect 107 0 58 0;
#X connect 108 0 59 0;
#X connect 109 0 48 0;
#X connect 110 0 49 0;
#X connect 111 0 50 0;
#X connect 112 0 29 0;
#X connect 113 0 30 0;
#X connect 114 0 31 0;
#X connect 115 0 39 0;
#X connect 116 0 40 0;
#X connect 117 0 41 0;
#X connect 118 0 65 0;
#X connect 119 0 66 0;
#X connect 120 0 67 0;
#X connect 121 0 75 0;
#X connect 122 0 76 0;
#X connect 123 0 77 0;
#X connect 124 0 84 0;
#X connect 125 0 85 0;
#X connect 126 0 86 0;
#X connect 127 0 163 10;
#X connect 128 0 163 2;
#X connect 129 0 163 3;
#X connect 130 0 163 4;
#X connect 131 0 163 5;
#X connect 132 0 163 6;
#X connect 133 0 163 7;
#X connect 134 0 163 8;
#X connect 135 0 163 9;
#X connect 136 0 164 2;
#X connect 137 0 164 3;
#X connect 138 0 164 4;
#X connect 139 0 164 5;
#X connect 140 0 164 6;
#X connect 141 0 164 7;
#X connect 142 0 164 8;
#X connect 143 0 164 9;
#X connect 144 0 164 10;
#X connect 145 0 165 10;
#X connect 146 0 165 2;
#X connect 147 0 165 3;
#X connect 148 0 165 4;
#X connect 149 0 165 5;
#X connect 150 0 165 6;
#X connect 151 0 165 7;
#X connect 152 0 165 8;
#X connect 153 0 165 9;
#X connect 154 0 166 10;
#X connect 155 0 166 2;
#X connect 156 0 166 3;
#X connect 157 0 166 4;
#X connect 158 0 166 5;
#X connect 159 0 166 6;
#X connect 160 0 166 7;
#X connect 161 0 166 8;
#X connect 162 0 166 9;
#X connect 167 0 163 0;
#X connect 168 0 164 0;
#X connect 169 0 165 0;
#X connect 170 0 166 0;
#X connect 171 0 133 0;
#X connect 172 0 134 0;
#X connect 173 0 135 0;
#X connect 174 0 141 0;
#X connect 175 0 142 0;
#X connect 176 0 143 0;
#X connect 177 0 151 0;
#X connect 178 0 152 0;
#X connect 179 0 153 0;
#X connect 180 0 160 0;
#X connect 181 0 161 0;
#X connect 182 0 162 0;
