#N canvas 459 13 716 498 10;
#X obj 29 32 tgl 15 0 empty empty empty 17 7 0 10 -262144 -1 -1 1 1
;
#X msg 52 36 create;
#X msg 61 60 destroy;
#X obj 28 81 gemwin;
#X msg 150 26 \$1;
#X obj 192 12 hsl 128 15 0 20 0 0 empty empty empty -2 -8 0 10 -262144
-1 -1 3400 1;
#X obj 150 65 gemhead;
#X obj 150 128 rotateXYZ;
#X obj 149 205 translateXYZ;
#X floatatom 158 158 5 0 0 0 - - -;
#X floatatom 247 156 5 0 0 0 - - -;
#X obj 243 206 translateXYZ;
#X floatatom 191 43 5 0 0 0 - - -;
#X obj 243 264 square;
#X obj 149 269 square;
#X obj 32 390 hradio 15 1 0 6 empty empty empty 0 -8 0 10 -262144 -1
-1 2;
#X obj 30 312 f;
#X obj 30 337 counter;
#X obj 30 285 metro;
#X floatatom 76 239 5 0 0 0 - - -;
#X obj 29 240 tgl 15 0 empty empty empty 17 7 0 10 -262144 -1 -1 1
1;
#X obj 149 239 color;
#X floatatom 193 158 5 0 0 0 - - -;
#X floatatom 286 155 5 0 0 0 - - -;
#X floatatom 336 154 5 0 0 0 - - -;
#X obj 332 204 translateXYZ;
#X obj 332 262 square;
#X floatatom 375 153 5 0 0 0 - - -;
#X obj 239 125 rotateXYZ;
#X obj 328 124 rotateXYZ;
#X obj 244 236 color;
#X obj 331 234 color;
#X floatatom 431 153 5 0 0 0 - - -;
#X obj 427 203 translateXYZ;
#X obj 427 261 square;
#X floatatom 470 152 5 0 0 0 - - -;
#X obj 423 123 rotateXYZ;
#X obj 426 233 color;
#X floatatom 528 152 5 0 0 0 - - -;
#X obj 524 202 translateXYZ;
#X obj 524 260 square;
#X floatatom 567 151 5 0 0 0 - - -;
#X obj 520 122 rotateXYZ;
#X obj 523 232 color;
#X floatatom 623 151 5 0 0 0 - - -;
#X obj 619 201 translateXYZ;
#X obj 619 259 square;
#X floatatom 662 150 5 0 0 0 - - -;
#X obj 615 121 rotateXYZ;
#X obj 618 231 color;
#X floatatom 431 331 5 0 0 0 - - -;
#X obj 427 381 translateXYZ;
#X obj 427 439 square;
#X floatatom 470 330 5 0 0 0 - - -;
#X obj 423 301 rotateXYZ;
#X obj 426 411 color;
#X floatatom 528 330 5 0 0 0 - - -;
#X obj 524 380 translateXYZ;
#X obj 524 438 square;
#X floatatom 567 329 5 0 0 0 - - -;
#X obj 520 300 rotateXYZ;
#X obj 523 410 color;
#X floatatom 623 329 5 0 0 0 - - -;
#X obj 619 379 translateXYZ;
#X obj 619 437 square;
#X floatatom 662 328 5 0 0 0 - - -;
#X obj 615 299 rotateXYZ;
#X obj 618 409 color;
#X msg 32 472 1 1 1 0;
#X msg 88 473 0 0 0 0;
#X msg 155 474 1 1 1 0;
#X msg 213 474 0 0 0 0;
#X msg 285 474 1 1 1 0;
#X msg 343 474 0 0 0 0;
#X obj 31 417 sel 0 1 2 3 4 5;
#X obj 32 363 % 6;
#X obj 34 141 hradio 15 1 0 4 empty empty empty 0 -8 0 10 -262144 -1
-1 0;
#X connect 0 0 3 0;
#X connect 1 0 3 0;
#X connect 2 0 3 0;
#X connect 4 0 6 0;
#X connect 4 0 12 0;
#X connect 5 0 4 0;
#X connect 6 0 7 0;
#X connect 6 0 28 0;
#X connect 6 0 29 0;
#X connect 6 0 36 0;
#X connect 6 0 42 0;
#X connect 6 0 48 0;
#X connect 6 0 54 0;
#X connect 6 0 60 0;
#X connect 6 0 66 0;
#X connect 7 0 8 0;
#X connect 8 0 21 0;
#X connect 9 0 8 1;
#X connect 10 0 11 1;
#X connect 11 0 30 0;
#X connect 15 0 74 0;
#X connect 16 0 17 0;
#X connect 17 0 75 0;
#X connect 18 0 16 0;
#X connect 19 0 18 1;
#X connect 20 0 18 0;
#X connect 21 0 14 0;
#X connect 22 0 8 2;
#X connect 23 0 11 2;
#X connect 24 0 25 1;
#X connect 25 0 31 0;
#X connect 27 0 25 2;
#X connect 28 0 11 0;
#X connect 29 0 25 0;
#X connect 30 0 13 0;
#X connect 31 0 26 0;
#X connect 32 0 33 1;
#X connect 33 0 37 0;
#X connect 35 0 33 2;
#X connect 36 0 33 0;
#X connect 37 0 34 0;
#X connect 38 0 39 1;
#X connect 39 0 43 0;
#X connect 41 0 39 2;
#X connect 42 0 39 0;
#X connect 43 0 40 0;
#X connect 44 0 45 1;
#X connect 45 0 49 0;
#X connect 47 0 45 2;
#X connect 48 0 45 0;
#X connect 49 0 46 0;
#X connect 50 0 51 1;
#X connect 51 0 55 0;
#X connect 53 0 51 2;
#X connect 54 0 51 0;
#X connect 55 0 52 0;
#X connect 56 0 57 1;
#X connect 57 0 61 0;
#X connect 59 0 57 2;
#X connect 60 0 57 0;
#X connect 61 0 58 0;
#X connect 62 0 63 1;
#X connect 63 0 67 0;
#X connect 65 0 63 2;
#X connect 66 0 63 0;
#X connect 67 0 64 0;
#X connect 68 0 21 1;
#X connect 68 0 30 1;
#X connect 68 0 31 1;
#X connect 69 0 21 1;
#X connect 69 0 30 1;
#X connect 69 0 31 1;
#X connect 70 0 37 1;
#X connect 70 0 55 1;
#X connect 70 0 61 1;
#X connect 71 0 37 1;
#X connect 71 0 55 1;
#X connect 71 0 61 1;
#X connect 72 0 43 1;
#X connect 72 0 49 1;
#X connect 72 0 67 1;
#X connect 73 0 43 1;
#X connect 73 0 49 1;
#X connect 73 0 67 1;
#X connect 74 0 68 0;
#X connect 74 1 69 0;
#X connect 74 2 70 0;
#X connect 74 3 71 0;
#X connect 74 4 72 0;
#X connect 74 5 73 0;
#X connect 75 0 15 0;
