#N canvas 110 194 865 445 10;
#X obj 57 155 rotateXYZ;
#X obj 57 195 translateXYZ;
#X obj 57 105 color;
#X obj 112 263 alpha;
#X msg 260 287 0 2 0;
#X msg 302 288 2 1 0;
#X obj 239 389 polygon 5;
#X msg 342 288 1 -1 0;
#X msg 390 289 -1 -1 0;
#X msg 443 290 -2 1 0;
#X floatatom 183 35 5 0 0 0 - - -;
#X obj 342 389 polygon 5;
#X obj 273 158 rotateXYZ;
#X obj 273 193 translateXYZ;
#X obj 127 92 color;
#X obj 492 288 alpha;
#X floatatom 287 35 5 0 0 0 - - -;
#X msg 221 34 1 -1 0 \$1;
#X obj 442 155 rotateXYZ;
#X obj 469 182 translateXYZ;
#X obj 208 85 color;
#X obj 593 283 alpha;
#X floatatom 395 36 5 0 0 0 - - -;
#X obj 433 389 polygon 5;
#X msg 329 36 -5 2 1 \$1;
#X msg 115 35 1 -1 \$1 \$1;
#X obj 6 195 inlet;
#X obj 71 36 inlet;
#X obj 148 7 inlet;
#X obj 260 5 inlet;
#X obj 357 5 inlet;
#X obj 434 34 inlet;
#X obj 470 34 inlet;
#X obj 507 34 inlet;
#X obj 554 34 inlet;
#X obj 590 34 inlet;
#X obj 627 34 inlet;
#X obj 729 168 inlet;
#X obj 770 169 inlet;
#X obj 682 155 inlet;
#X connect 0 0 1 0;
#X connect 1 0 3 0;
#X connect 2 0 0 0;
#X connect 3 0 6 0;
#X connect 4 0 6 1;
#X connect 4 0 11 1;
#X connect 4 0 23 1;
#X connect 5 0 6 2;
#X connect 5 0 11 2;
#X connect 5 0 23 2;
#X connect 7 0 6 3;
#X connect 7 0 11 3;
#X connect 7 0 23 3;
#X connect 8 0 6 4;
#X connect 8 0 11 4;
#X connect 8 0 23 4;
#X connect 9 0 6 5;
#X connect 9 0 11 5;
#X connect 9 0 23 5;
#X connect 12 0 13 0;
#X connect 13 0 15 0;
#X connect 14 0 12 0;
#X connect 15 0 11 0;
#X connect 17 0 14 1;
#X connect 18 0 19 0;
#X connect 19 0 21 0;
#X connect 20 0 18 0;
#X connect 21 0 23 0;
#X connect 24 0 20 1;
#X connect 25 0 2 1;
#X connect 26 0 6 0;
#X connect 27 0 2 0;
#X connect 27 0 14 0;
#X connect 27 0 20 0;
#X connect 28 0 25 0;
#X connect 28 0 10 0;
#X connect 29 0 17 0;
#X connect 29 0 16 0;
#X connect 30 0 24 0;
#X connect 30 0 22 0;
#X connect 31 0 0 1;
#X connect 31 0 12 1;
#X connect 31 0 18 1;
#X connect 32 0 0 2;
#X connect 32 0 12 2;
#X connect 32 0 18 2;
#X connect 33 0 0 3;
#X connect 33 0 12 3;
#X connect 33 0 18 3;
#X connect 34 0 1 1;
#X connect 34 0 13 1;
#X connect 34 0 19 1;
#X connect 35 0 1 2;
#X connect 35 0 13 2;
#X connect 35 0 19 2;
#X connect 36 0 1 3;
#X connect 36 0 13 3;
#X connect 36 0 19 3;
#X connect 37 0 3 0;
#X connect 37 0 15 0;
#X connect 37 0 21 0;
#X connect 38 0 3 1;
#X connect 38 0 15 1;
#X connect 38 0 21 1;
#X connect 39 0 4 0;
#X connect 39 0 5 0;
#X connect 39 0 7 0;
#X connect 39 0 8 0;
#X connect 39 0 9 0;
