#N canvas 217 39 867 617 10;
#X obj 23 23 tgl 15 0 empty empty empty 17 7 0 10 -262144 -1 -1 1 1
;
#X obj 23 74 gemwin;
#X msg 51 43 destroy;
#X msg 44 21 create \, dimen 600 600;
#X msg 103 57 lighting \$1;
#X obj 103 41 tgl 15 0 empty empty empty 17 7 0 10 -262144 -1 -1 0
1;
#X obj 282 101 hsl 40 10 0 1 0 0 empty empty empty -2 -8 0 10 -262144
-1 -1 1900 1;
#X obj 141 122 gemhead 120;
#X obj 202 79 counter;
#X msg 264 62 359;
#X obj 202 56 metro 20;
#X obj 202 24 tgl 15 0 empty empty empty 17 7 0 10 -262144 -1 -1 1
1;
#X obj 264 39 bng 15 250 50 0 empty empty empty 17 7 0 10 -262144 -1
-1;
#X floatatom 247 20 5 0 0 0 - - -;
#X obj 331 101 hsl 40 10 0 1 0 0 empty empty empty -2 -8 0 10 -262144
-1 -1 1200 1;
#X obj 380 101 hsl 40 10 0 1 0 0 empty empty empty -2 -8 0 10 -262144
-1 -1 300 1;
#X text 276 82 R;
#X text 328 81 B;
#X text 377 80 G;
#X msg 40 184 draw line;
#X msg 45 155 draw fill;
#X msg 60 124 width \$1;
#X floatatom 19 108 5 0 0 0 - - -;
#X obj 451 145 bng 15 250 50 0 empty empty empty 17 7 0 10 -262144
-1 -1;
#X obj 470 145 tgl 15 0 empty empty empty 17 7 0 10 -262144 -1 -1 1
1;
#X obj 487 145 tgl 15 0 empty empty empty 17 7 0 10 -262144 -1 -1 1
1;
#X obj 429 101 hsl 50 10 -4 4 0 0 empty empty empty -4 -8 0 10 -262144
-1 -1 2400 1;
#X obj 436 115 hsl 50 10 -4 4 0 0 empty empty empty -2 -8 0 10 -262144
-1 -1 2200 1;
#X obj 443 129 hsl 50 10 -2 2 0 0 empty empty empty -4 -8 0 10 -262144
-1 -1 1900 1;
#X obj 284 222 pentagon_core;
#X obj 270 265 pentagon_core;
#X floatatom 164 96 5 0 0 0 - - -;
#X obj 278 303 pentagon_core;
#X obj 574 103 hsl 40 10 0 1 0 0 empty empty empty -2 -8 0 10 -262144
-1 -1 1400 1;
#X obj 497 98 gemhead 120;
#X obj 623 103 hsl 40 10 0 1 0 0 empty empty empty -2 -8 0 10 -262144
-1 -1 2300 1;
#X obj 672 103 hsl 40 10 0 1 0 0 empty empty empty -2 -8 0 10 -262144
-1 -1 1100 1;
#X obj 745 146 bng 15 250 50 0 empty empty empty 17 7 0 10 -262144
-1 -1;
#X obj 764 146 tgl 15 0 empty empty empty 17 7 0 10 -262144 -1 -1 1
1;
#X obj 781 146 tgl 15 0 empty empty empty 17 7 0 10 -262144 -1 -1 1
1;
#X obj 721 103 hsl 50 10 -4 4 0 0 empty empty empty -4 -8 0 10 -262144
-1 -1 2400 1;
#X obj 728 117 hsl 50 10 -4 4 0 0 empty empty empty -2 -8 0 10 -262144
-1 -1 2700 1;
#X obj 735 131 hsl 50 10 -2 2 0 0 empty empty empty -4 -8 0 10 -262144
-1 -1 2200 1;
#X obj 517 211 pentagon_core;
#X obj 517 248 pentagon_core;
#X obj 524 289 pentagon_core;
#X obj 154 336 hsl 40 10 0 1 0 0 empty empty empty -2 -8 0 10 -262144
-1 -1 0 1;
#X obj 203 336 hsl 40 10 0 1 0 0 empty empty empty -2 -8 0 10 -262144
-1 -1 0 1;
#X obj 252 336 hsl 40 10 0 1 0 0 empty empty empty -2 -8 0 10 -262144
-1 -1 0 1;
#X text 148 317 R;
#X text 200 316 B;
#X text 249 315 G;
#X obj 323 380 bng 15 250 50 0 empty empty empty 17 7 0 10 -262144
-1 -1;
#X obj 342 380 tgl 15 0 empty empty empty 17 7 0 10 -262144 -1 -1 0
1;
#X obj 359 380 tgl 15 0 empty empty empty 17 7 0 10 -262144 -1 -1 0
1;
#X obj 301 336 hsl 50 10 -4 4 0 0 empty empty empty -4 -8 0 10 -262144
-1 -1 0 1;
#X obj 308 350 hsl 50 10 -4 4 0 0 empty empty empty -2 -8 0 10 -262144
-1 -1 0 1;
#X obj 315 364 hsl 50 10 -2 2 0 0 empty empty empty -4 -8 0 10 -262144
-1 -1 0 1;
#X obj 165 461 pentagon_core;
#X obj 163 500 pentagon_core;
#X obj 157 536 pentagon_core;
#X obj 471 339 hsl 40 10 0 1 0 0 empty empty empty -2 -8 0 10 -262144
-1 -1 0 1;
#X obj 394 334 gemhead 120;
#X obj 520 339 hsl 40 10 0 1 0 0 empty empty empty -2 -8 0 10 -262144
-1 -1 0 1;
#X obj 569 339 hsl 40 10 0 1 0 0 empty empty empty -2 -8 0 10 -262144
-1 -1 0 1;
#X obj 642 382 bng 15 250 50 0 empty empty empty 17 7 0 10 -262144
-1 -1;
#X obj 661 382 tgl 15 0 empty empty empty 17 7 0 10 -262144 -1 -1 0
1;
#X obj 678 382 tgl 15 0 empty empty empty 17 7 0 10 -262144 -1 -1 0
1;
#X obj 618 339 hsl 50 10 -4 4 0 0 empty empty empty -4 -8 0 10 -262144
-1 -1 0 1;
#X obj 625 353 hsl 50 10 -4 4 0 0 empty empty empty -2 -8 0 10 -262144
-1 -1 0 1;
#X obj 632 367 hsl 50 10 -2 2 0 0 empty empty empty -4 -8 0 10 -262144
-1 -1 0 1;
#X obj 416 458 pentagon_core;
#X obj 414 491 pentagon_core;
#X obj 421 525 pentagon_core;
#X obj 120 293 gemhead 120;
#X connect 0 0 1 0;
#X connect 2 0 1 0;
#X connect 3 0 1 0;
#X connect 4 0 1 0;
#X connect 5 0 4 0;
#X connect 6 0 30 2;
#X connect 6 0 29 2;
#X connect 6 0 32 2;
#X connect 7 0 30 1;
#X connect 7 0 29 1;
#X connect 7 0 32 1;
#X connect 8 0 29 6;
#X connect 8 0 30 6;
#X connect 8 0 31 0;
#X connect 8 0 32 6;
#X connect 8 0 45 6;
#X connect 8 0 44 6;
#X connect 8 0 43 6;
#X connect 8 0 73 6;
#X connect 8 0 72 6;
#X connect 8 0 71 6;
#X connect 8 0 60 6;
#X connect 8 0 59 6;
#X connect 8 0 58 6;
#X connect 9 0 8 4;
#X connect 10 0 8 0;
#X connect 11 0 10 0;
#X connect 11 0 12 0;
#X connect 12 0 9 0;
#X connect 13 0 10 1;
#X connect 14 0 29 3;
#X connect 14 0 30 3;
#X connect 14 0 32 3;
#X connect 15 0 29 4;
#X connect 15 0 30 4;
#X connect 15 0 32 4;
#X connect 19 0 29 0;
#X connect 19 0 30 0;
#X connect 19 0 32 0;
#X connect 19 0 43 0;
#X connect 19 0 44 0;
#X connect 19 0 45 0;
#X connect 19 0 58 0;
#X connect 19 0 60 0;
#X connect 19 0 59 0;
#X connect 19 0 71 0;
#X connect 19 0 72 0;
#X connect 19 0 73 0;
#X connect 20 0 29 0;
#X connect 20 0 30 0;
#X connect 20 0 32 0;
#X connect 20 0 43 0;
#X connect 20 0 44 0;
#X connect 20 0 45 0;
#X connect 20 0 59 0;
#X connect 20 0 60 0;
#X connect 20 0 58 0;
#X connect 20 0 71 0;
#X connect 20 0 72 0;
#X connect 20 0 73 0;
#X connect 21 0 29 0;
#X connect 21 0 30 0;
#X connect 21 0 32 0;
#X connect 21 0 43 0;
#X connect 21 0 44 0;
#X connect 21 0 45 0;
#X connect 21 0 58 0;
#X connect 21 0 59 0;
#X connect 21 0 60 0;
#X connect 21 0 71 0;
#X connect 21 0 72 0;
#X connect 21 0 73 0;
#X connect 22 0 21 0;
#X connect 23 0 29 11;
#X connect 23 0 30 11;
#X connect 23 0 32 11;
#X connect 24 0 29 12;
#X connect 24 0 30 12;
#X connect 24 0 32 12;
#X connect 25 0 29 13;
#X connect 25 0 30 13;
#X connect 25 0 32 13;
#X connect 26 0 29 8;
#X connect 26 0 30 8;
#X connect 26 0 32 8;
#X connect 27 0 29 9;
#X connect 27 0 30 9;
#X connect 27 0 32 9;
#X connect 28 0 29 10;
#X connect 28 0 30 10;
#X connect 28 0 32 10;
#X connect 33 0 44 2;
#X connect 33 0 43 2;
#X connect 33 0 45 2;
#X connect 34 0 44 1;
#X connect 34 0 43 1;
#X connect 34 0 45 1;
#X connect 35 0 43 3;
#X connect 35 0 44 3;
#X connect 35 0 45 3;
#X connect 36 0 43 4;
#X connect 36 0 44 4;
#X connect 36 0 45 4;
#X connect 37 0 43 11;
#X connect 37 0 44 11;
#X connect 37 0 45 11;
#X connect 38 0 43 12;
#X connect 38 0 44 12;
#X connect 38 0 45 12;
#X connect 39 0 43 13;
#X connect 39 0 44 13;
#X connect 39 0 45 13;
#X connect 40 0 43 8;
#X connect 40 0 44 8;
#X connect 40 0 45 8;
#X connect 41 0 43 9;
#X connect 41 0 44 9;
#X connect 41 0 45 9;
#X connect 42 0 43 10;
#X connect 42 0 44 10;
#X connect 42 0 45 10;
#X connect 46 0 59 2;
#X connect 46 0 58 2;
#X connect 46 0 60 2;
#X connect 47 0 58 3;
#X connect 47 0 59 3;
#X connect 47 0 60 3;
#X connect 48 0 58 4;
#X connect 48 0 59 4;
#X connect 48 0 60 4;
#X connect 52 0 58 11;
#X connect 52 0 59 11;
#X connect 52 0 60 11;
#X connect 53 0 58 12;
#X connect 53 0 59 12;
#X connect 53 0 60 12;
#X connect 54 0 58 13;
#X connect 54 0 59 13;
#X connect 54 0 60 13;
#X connect 55 0 58 8;
#X connect 55 0 59 8;
#X connect 55 0 60 8;
#X connect 56 0 58 9;
#X connect 56 0 59 9;
#X connect 56 0 60 9;
#X connect 57 0 58 10;
#X connect 57 0 59 10;
#X connect 57 0 60 10;
#X connect 61 0 72 2;
#X connect 61 0 71 2;
#X connect 61 0 73 2;
#X connect 62 0 72 1;
#X connect 62 0 71 1;
#X connect 62 0 73 1;
#X connect 63 0 71 3;
#X connect 63 0 72 3;
#X connect 63 0 73 3;
#X connect 64 0 71 4;
#X connect 64 0 72 4;
#X connect 64 0 73 4;
#X connect 65 0 71 11;
#X connect 65 0 72 11;
#X connect 65 0 73 11;
#X connect 66 0 71 12;
#X connect 66 0 72 12;
#X connect 66 0 73 12;
#X connect 67 0 71 13;
#X connect 67 0 72 13;
#X connect 67 0 73 13;
#X connect 68 0 71 8;
#X connect 68 0 72 8;
#X connect 68 0 73 8;
#X connect 69 0 71 9;
#X connect 69 0 72 9;
#X connect 69 0 73 9;
#X connect 70 0 71 10;
#X connect 70 0 72 10;
#X connect 70 0 73 10;
#X connect 74 0 58 1;
#X connect 74 0 59 1;
#X connect 74 0 60 1;
