#N canvas 0 0 612 485 10;
#X obj 17 129 rotateXYZ;
#X obj 17 174 translateXYZ;
#X obj 17 79 color;
#X obj 17 230 alpha;
#X msg 36 261 0 2 0;
#X msg 55 289 2 1 0;
#X obj 17 406 polygon 5;
#X msg 77 315 1 -1 0;
#X msg 111 341 -1 -1 0;
#X msg 147 372 -2 1 0;
#X obj 17 19 inlet;
#X obj 60 19 inlet;
#X obj 102 20 inlet rX;
#X obj 158 20 inlet rY;
#X obj 215 20 inlet rZ;
#X obj 273 20 inlet tX;
#X obj 329 20 inlet tY;
#X obj 386 20 inlet tZ;
#X obj 442 22 inlet;
#X obj 482 22 inlet;
#X obj 521 23 inlet;
#X connect 0 0 1 0;
#X connect 1 0 3 0;
#X connect 2 0 0 0;
#X connect 3 0 6 0;
#X connect 4 0 6 1;
#X connect 5 0 6 2;
#X connect 7 0 6 3;
#X connect 8 0 6 4;
#X connect 9 0 6 5;
#X connect 10 0 2 0;
#X connect 11 0 2 1;
#X connect 12 0 0 1;
#X connect 13 0 0 2;
#X connect 14 0 0 3;
#X connect 15 0 1 1;
#X connect 16 0 1 2;
#X connect 17 0 1 3;
#X connect 18 0 3 0;
#X connect 19 0 3 1;
#X connect 20 0 4 0;
#X connect 20 0 5 0;
#X connect 20 0 7 0;
#X connect 20 0 8 0;
#X connect 20 0 9 0;
