#N canvas 518 7 811 544 10;
#X obj 25 8 tgl 15 0 empty empty empty 17 7 0 10 -262144 -1 -1 1 1
;
#X obj 23 73 gemwin;
#X msg 50 35 destroy;
#X msg 47 10 create \, dimen 600 600;
#X msg 107 56 lighting \$1;
#X obj 107 31 tgl 15 0 empty empty empty 17 7 0 10 -262144 -1 -1 1
1;
#X obj 69 114 hsl 100 15 0 1 0 0 empty empty empty -2 -8 0 10 -262144
-1 -1 2300 1;
#X floatatom 139 130 5 0 0 0 - - -;
#X obj 61 245 hsl 100 15 0 1 0 0 empty empty empty -2 -8 0 10 -262144
-1 -1 5400 1;
#X floatatom 130 261 5 0 0 0 - - -;
#X msg 58 267 1 -1 0 \$1;
#X msg 66 138 1 -1 1 \$1;
#X obj 59 384 hsl 100 15 0 1 0 0 empty empty empty -2 -8 0 10 -262144
-1 -1 7800 1;
#X floatatom 129 400 5 0 0 0 - - -;
#X msg 56 408 -5 2 1 \$1;
#X obj 19 93 gemhead 120;
#X obj 56 222 polygon_wrapper;
#X obj 41 360 polygon_wrapper;
#X obj 42 504 polygon_wrapper;
#X floatatom 72 160 5 0 0 0 - - -;
#X floatatom 107 160 5 0 0 0 - - -;
#X floatatom 143 160 5 0 0 0 - - -;
#X floatatom 70 291 5 0 0 0 - - -;
#X floatatom 105 291 5 0 0 0 - - -;
#X floatatom 140 290 5 0 0 0 - - -;
#X floatatom 68 430 5 0 0 0 - - -;
#X floatatom 103 430 5 0 0 0 - - -;
#X floatatom 138 431 5 0 0 0 - - -;
#X floatatom 80 180 5 0 0 0 - - -;
#X floatatom 115 180 5 0 0 0 - - -;
#X floatatom 151 180 5 0 0 0 - - -;
#X floatatom 79 313 5 0 0 0 - - -;
#X floatatom 114 313 5 0 0 0 - - -;
#X floatatom 150 313 5 0 0 0 - - -;
#X floatatom 71 454 5 0 0 0 - - -;
#X floatatom 106 454 5 0 0 0 - - -;
#X floatatom 142 454 5 0 0 0 - - -;
#X obj 188 181 tgl 15 0 empty empty empty 17 7 0 10 -262144 -1 -1 1
1;
#X obj 204 204 bng 15 250 50 0 empty empty empty 17 7 0 10 -262144
-1 -1;
#X obj 206 182 tgl 15 0 empty empty empty 17 7 0 10 -262144 -1 -1 1
1;
#X obj 189 317 tgl 15 0 empty empty empty 17 7 0 10 -262144 -1 -1 1
1;
#X obj 205 340 bng 15 250 50 0 empty empty empty 17 7 0 10 -262144
-1 -1;
#X obj 207 318 tgl 15 0 empty empty empty 17 7 0 10 -262144 -1 -1 1
1;
#X obj 178 456 tgl 15 0 empty empty empty 17 7 0 10 -262144 -1 -1 1
1;
#X obj 194 479 bng 15 250 50 0 empty empty empty 17 7 0 10 -262144
-1 -1;
#X obj 196 457 tgl 15 0 empty empty empty 17 7 0 10 -262144 -1 -1 1
1;
#X obj 238 115 counter;
#X msg 285 90 359;
#X obj 238 66 metro 20;
#X obj 238 34 tgl 15 0 empty empty empty 17 7 0 10 -262144 -1 -1 0
1;
#X obj 300 49 bng 15 250 50 0 empty empty empty 17 7 0 10 -262144 -1
-1;
#X floatatom 290 142 5 0 0 0 - - -;
#X floatatom 285 30 5 0 0 0 - - -;
#X obj 408 112 hsl 100 15 0 1 0 0 empty empty empty -2 -8 0 10 -262144
-1 -1 7400 1;
#X floatatom 478 128 5 0 0 0 - - -;
#X obj 400 243 hsl 100 15 0 1 0 0 empty empty empty -2 -8 0 10 -262144
-1 -1 6100 1;
#X floatatom 469 259 5 0 0 0 - - -;
#X msg 397 265 1 -1 0 \$1;
#X msg 405 136 1 -1 1 \$1;
#X obj 398 382 hsl 100 15 0 1 0 0 empty empty empty -2 -8 0 10 -262144
-1 -1 3800 1;
#X floatatom 468 398 5 0 0 0 - - -;
#X msg 395 406 -5 2 1 \$1;
#X obj 358 91 gemhead 120;
#X obj 395 220 polygon_wrapper;
#X obj 380 358 polygon_wrapper;
#X obj 381 502 polygon_wrapper;
#X floatatom 411 158 5 0 0 0 - - -;
#X floatatom 446 158 5 0 0 0 - - -;
#X floatatom 482 158 5 0 0 0 - - -;
#X floatatom 409 289 5 0 0 0 - - -;
#X floatatom 444 289 5 0 0 0 - - -;
#X floatatom 479 288 5 0 0 0 - - -;
#X floatatom 407 428 5 0 0 0 - - -;
#X floatatom 442 428 5 0 0 0 - - -;
#X floatatom 477 429 5 0 0 0 - - -;
#X floatatom 419 178 5 0 0 0 - - -;
#X floatatom 454 178 5 0 0 0 - - -;
#X floatatom 490 178 5 0 0 0 - - -;
#X floatatom 418 311 5 0 0 0 - - -;
#X floatatom 453 311 5 0 0 0 - - -;
#X floatatom 489 311 5 0 0 0 - - -;
#X floatatom 410 452 5 0 0 0 - - -;
#X floatatom 445 452 5 0 0 0 - - -;
#X floatatom 481 452 5 0 0 0 - - -;
#X obj 527 179 tgl 15 0 empty empty empty 17 7 0 10 -262144 -1 -1 1
1;
#X obj 543 202 bng 15 250 50 0 empty empty empty 17 7 0 10 -262144
-1 -1;
#X obj 545 180 tgl 15 0 empty empty empty 17 7 0 10 -262144 -1 -1 1
1;
#X obj 528 315 tgl 15 0 empty empty empty 17 7 0 10 -262144 -1 -1 1
1;
#X obj 544 338 bng 15 250 50 0 empty empty empty 17 7 0 10 -262144
-1 -1;
#X obj 546 316 tgl 15 0 empty empty empty 17 7 0 10 -262144 -1 -1 1
1;
#X obj 517 454 tgl 15 0 empty empty empty 17 7 0 10 -262144 -1 -1 1
1;
#X obj 533 477 bng 15 250 50 0 empty empty empty 17 7 0 10 -262144
-1 -1;
#X obj 535 455 tgl 15 0 empty empty empty 17 7 0 10 -262144 -1 -1 1
1;
#X obj 556 125 hsl 128 15 10 -35 0 0 empty empty empty -2 -8 0 10 -262144
-1 -1 12700 1;
#X obj 285 519 cylinder;
#X floatatom 329 500 5 0 0 0 - - -;
#X obj 266 413 rotateXYZ;
#X obj 266 240 gemhead 20;
#X floatatom 276 354 5 0 0 0 - - -;
#X floatatom 293 374 5 0 0 0 - - -;
#X floatatom 317 393 5 0 0 0 - - -;
#X obj 266 462 translateXYZ;
#X floatatom 290 434 5 0 0 0 - - -;
#X obj 298 481 hsl 10 10 0 1 0 0 empty empty empty -2 -8 0 10 -262144
-1 -1 400 1;
#X obj 264 324 alpha;
#X obj 265 265 color;
#X obj 319 302 tgl 15 0 empty empty empty 17 7 0 10 -262144 -1 -1 1
1;
#X obj 337 302 tgl 15 0 empty empty empty 17 7 0 10 -262144 -1 -1 1
1;
#X floatatom 326 429 5 0 0 0 - - -;
#X connect 0 0 1 0;
#X connect 2 0 1 0;
#X connect 3 0 1 0;
#X connect 4 0 1 0;
#X connect 5 0 4 0;
#X connect 6 0 11 0;
#X connect 6 0 7 0;
#X connect 8 0 10 0;
#X connect 8 0 9 0;
#X connect 10 0 17 1;
#X connect 11 0 16 1;
#X connect 12 0 14 0;
#X connect 12 0 13 0;
#X connect 14 0 18 1;
#X connect 15 0 16 0;
#X connect 15 0 17 0;
#X connect 15 0 18 0;
#X connect 19 0 16 2;
#X connect 20 0 16 3;
#X connect 21 0 16 4;
#X connect 22 0 17 2;
#X connect 23 0 17 3;
#X connect 24 0 17 4;
#X connect 25 0 18 2;
#X connect 26 0 18 3;
#X connect 27 0 18 4;
#X connect 28 0 16 5;
#X connect 29 0 16 6;
#X connect 30 0 16 7;
#X connect 31 0 17 5;
#X connect 32 0 17 6;
#X connect 33 0 17 7;
#X connect 34 0 18 5;
#X connect 35 0 18 6;
#X connect 36 0 18 7;
#X connect 37 0 16 8;
#X connect 38 0 16 10;
#X connect 39 0 16 9;
#X connect 40 0 17 8;
#X connect 41 0 17 10;
#X connect 42 0 17 9;
#X connect 43 0 18 8;
#X connect 44 0 18 10;
#X connect 45 0 18 9;
#X connect 46 0 51 0;
#X connect 46 0 19 0;
#X connect 46 0 66 0;
#X connect 46 0 98 0;
#X connect 47 0 46 4;
#X connect 48 0 46 0;
#X connect 49 0 48 0;
#X connect 49 0 50 0;
#X connect 50 0 47 0;
#X connect 52 0 48 1;
#X connect 53 0 58 0;
#X connect 53 0 54 0;
#X connect 55 0 57 0;
#X connect 55 0 56 0;
#X connect 57 0 64 1;
#X connect 58 0 63 1;
#X connect 58 0 105 1;
#X connect 59 0 61 0;
#X connect 59 0 60 0;
#X connect 61 0 65 1;
#X connect 62 0 63 0;
#X connect 62 0 64 0;
#X connect 62 0 65 0;
#X connect 66 0 63 2;
#X connect 67 0 63 3;
#X connect 68 0 63 4;
#X connect 69 0 64 2;
#X connect 70 0 64 3;
#X connect 71 0 64 4;
#X connect 72 0 65 2;
#X connect 73 0 65 3;
#X connect 74 0 65 4;
#X connect 75 0 63 5;
#X connect 76 0 63 6;
#X connect 77 0 63 7;
#X connect 78 0 64 5;
#X connect 79 0 64 6;
#X connect 80 0 64 7;
#X connect 81 0 65 5;
#X connect 82 0 65 6;
#X connect 83 0 65 7;
#X connect 84 0 63 8;
#X connect 85 0 63 10;
#X connect 86 0 63 9;
#X connect 87 0 64 8;
#X connect 88 0 64 10;
#X connect 89 0 64 9;
#X connect 90 0 65 8;
#X connect 91 0 65 10;
#X connect 92 0 65 9;
#X connect 93 0 67 0;
#X connect 93 0 20 0;
#X connect 93 0 70 0;
#X connect 93 0 23 0;
#X connect 93 0 26 0;
#X connect 93 0 73 0;
#X connect 93 0 99 0;
#X connect 95 0 94 2;
#X connect 96 0 101 0;
#X connect 97 0 105 0;
#X connect 98 0 96 1;
#X connect 99 0 96 2;
#X connect 100 0 96 3;
#X connect 101 0 94 0;
#X connect 102 0 101 1;
#X connect 103 0 94 1;
#X connect 104 0 96 0;
#X connect 105 0 104 0;
#X connect 106 0 104 0;
#X connect 107 0 104 1;
#X connect 108 0 101 3;
