#N canvas 604 27 1102 583 10;
#X obj 112 24 gemhead;
#X obj 39 70 gemwin;
#X msg 52 21 create;
#X msg 59 44 destroy;
#X obj 13 37 tgl 15 0 empty empty empty 17 7 0 10 -262144 -1 -1 1 1
;
#X msg 142 46 draw fill;
#X msg 208 47 draw line;
#X obj 158 236 polygon 5 ____;
#X msg 298 234 0 \$1 0;
#X floatatom 275 27 5 0 0 0 - - -;
#X msg 274 47 width \$1;
#X text 57 254 The extra characters after the polygon number are required
!;
#X obj 510 214 hradio 15 1 0 16 empty empty empty 0 -8 0 10 -262144
-1 -1 1;
#X obj 603 43 metro 200;
#X obj 604 19 tgl 15 0 empty empty empty 17 7 0 10 -262144 -1 -1 1
1;
#X floatatom 657 20 5 0 0 0 - - -;
#X obj 605 67 bng 15 250 50 0 empty empty empty 17 7 0 10 -262144 -1
-1;
#X obj 605 91 f;
#X obj 606 115 counter;
#X floatatom 651 183 5 0 0 0 - - -;
#X obj 113 110 color 0 1 0;
#X msg 383 69 0 1 \$1;
#X obj 607 137 % 16;
#X obj 509 321 sel 0 1 2 3 4 5 6 7 8 9 10 11 12 13 14 15 16;
#X obj 853 257 line~;
#X obj 798 274 *~;
#X obj 797 191 square~;
#X obj 799 308 lop~ 200;
#X msg 853 207 1 \, 0 190;
#X obj 800 346 *~ 0.2;
#X msg 765 75 80;
#X msg 792 75 160;
#X msg 821 75 240;
#X msg 848 75 320;
#X obj 807 520 dac~ 1 2;
#X obj 843 345 *~ 0.2;
#X msg 666 74 \; pd dsp 1;
#X msg 669 116 \; pd dsp 0;
#X msg 735 75 60;
#X obj 1010 151 line~;
#X obj 928 194 *~;
#X msg 1010 73 1 \, 0 190;
#X obj 928 242 lop~ 200;
#X msg 882 74 120;
#X msg 911 74 220;
#X msg 941 74 320;
#X msg 970 74 420;
#X obj 927 150 osc~;
#X obj 927 280 *~ 0.8;
#X obj 895 344 *~ 0.4;
#X obj 942 343 *~ 0.4;
#X obj 112 81 pix_image dx.jpg;
#X obj 132 156 pix_texture;
#X floatatom 1061 116 5 0 0 0 - - -;
#X obj 1061 173 phasor~;
#X obj 1136 171 phasor~;
#X text 1099 114 Phase Synchronisation;
#X obj 1059 282 clip~ 0 1;
#X obj 1135 283 clip~ 0 1;
#X obj 1116 316 +~;
#X obj 1092 142 * -1;
#X obj 1062 247 -~ -1;
#X obj 1135 248 -~ -1;
#X obj 1062 211 *~ -2;
#X obj 1136 209 *~ -2;
#X msg 1136 133 0;
#X obj 1065 341 noise~;
#X obj 1186 460 line~;
#X obj 1118 476 *~;
#X obj 1118 413 hip~ 60;
#X obj 1117 359 *~ 0.1;
#X obj 1118 502 *~ 0.1;
#X obj 1118 444 *~ 0.2;
#X msg 1186 392 1 \, 0 300;
#X msg 1088 72 600;
#X floatatom 297 214 5 0 0 0 - - -;
#X obj 405 300 knob 32 32 3 -3 0 0 empty empty empty 0 -8 0 8 -262144
-1 -1 0 1;
#X obj 708 13 hsl 128 15 0 127 0 0 empty empty empty -2 -8 0 10 -262144
-1 -1 11300 1;
#X obj 567 92 % 128;
#X obj 98 284 gemhead;
#X msg 128 306 draw fill;
#X msg 194 307 draw line;
#X obj 144 496 polygon 5 ____;
#X obj 98 341 pix_image dx.jpg;
#X obj 118 416 pix_texture;
#X msg 290 493 0 \$1 0;
#X floatatom 289 473 5 0 0 0 - - -;
#X floatatom 278 302 5 0 0 0 - - -;
#X msg 277 322 width \$1;
#X msg 363 350 1 0 \$1;
#X obj 32 497 polygon 5 ____;
#X obj 30 231 cube 5;
#X obj 510 406 hradio 15 1 0 16 empty empty empty 0 -8 0 10 -262144
-1 -1 1;
#X obj 510 454 sel 0 1 2 3 4 5 6 7 8 9 10 11 12 13 14 15 16;
#X msg 283 94 1 -3 0;
#X msg 340 159 -1 -3 0;
#X msg 276 370 0 -3 0;
#X msg 278 392 0 -3 0;
#X msg 277 414 2 -3 0;
#X msg 283 116 2 -3 0;
#X msg 282 138 0 -3 1;
#X msg 280 162 0 -3 0;
#X msg 340 115 1 -3 0;
#X msg 340 93 1 -3 0;
#X msg 339 136 0 -2 0;
#X msg 278 433 -2 -3 0;
#X obj 564 134 % 6;
#X msg 415 350 0 0 \$1;
#X msg 464 350 1 0 \$1;
#X obj 397 377 hradio 15 1 0 6 empty empty empty 0 -8 0 10 -262144
-1 -1 3;
#X obj 431 408 sel 0 1 2;
#X obj 102 370 color;
#X connect 0 0 51 0;
#X connect 2 0 1 0;
#X connect 3 0 1 0;
#X connect 4 0 1 0;
#X connect 5 0 7 0;
#X connect 6 0 7 0;
#X connect 8 0 7 5;
#X connect 9 0 10 0;
#X connect 10 0 7 0;
#X connect 12 0 23 0;
#X connect 13 0 16 0;
#X connect 14 0 13 0;
#X connect 15 0 13 1;
#X connect 16 0 17 0;
#X connect 17 0 18 0;
#X connect 18 0 22 0;
#X connect 18 0 78 0;
#X connect 18 0 106 0;
#X connect 19 0 21 0;
#X connect 19 0 89 0;
#X connect 20 0 52 0;
#X connect 21 0 20 1;
#X connect 22 0 12 0;
#X connect 22 0 19 0;
#X connect 22 0 92 0;
#X connect 23 0 28 0;
#X connect 23 0 99 0;
#X connect 23 1 94 0;
#X connect 23 2 41 0;
#X connect 23 2 73 0;
#X connect 23 2 100 0;
#X connect 23 3 101 0;
#X connect 23 4 28 0;
#X connect 23 4 41 0;
#X connect 23 4 103 0;
#X connect 23 6 41 0;
#X connect 23 8 28 0;
#X connect 23 8 73 0;
#X connect 23 10 41 0;
#X connect 23 12 28 0;
#X connect 23 12 73 0;
#X connect 23 14 41 0;
#X connect 23 16 28 0;
#X connect 23 17 73 0;
#X connect 24 0 25 1;
#X connect 25 0 27 0;
#X connect 26 0 25 0;
#X connect 27 0 29 0;
#X connect 27 0 35 0;
#X connect 28 0 24 0;
#X connect 29 0 34 0;
#X connect 30 0 26 0;
#X connect 31 0 26 0;
#X connect 32 0 26 0;
#X connect 33 0 26 0;
#X connect 35 0 34 1;
#X connect 38 0 26 0;
#X connect 39 0 40 1;
#X connect 40 0 42 0;
#X connect 41 0 39 0;
#X connect 42 0 48 0;
#X connect 43 0 47 0;
#X connect 44 0 47 0;
#X connect 45 0 47 0;
#X connect 46 0 47 0;
#X connect 47 0 40 0;
#X connect 48 0 49 0;
#X connect 48 0 50 0;
#X connect 49 0 34 0;
#X connect 50 0 34 1;
#X connect 51 0 20 0;
#X connect 52 0 7 0;
#X connect 52 0 91 0;
#X connect 53 0 54 0;
#X connect 53 0 60 0;
#X connect 54 0 63 0;
#X connect 55 0 64 0;
#X connect 57 0 59 0;
#X connect 58 0 59 1;
#X connect 59 0 70 0;
#X connect 60 0 55 0;
#X connect 61 0 57 0;
#X connect 62 0 58 0;
#X connect 63 0 61 0;
#X connect 64 0 62 0;
#X connect 65 0 54 1;
#X connect 65 0 55 0;
#X connect 66 0 69 0;
#X connect 66 0 70 0;
#X connect 67 0 68 1;
#X connect 68 0 71 0;
#X connect 69 0 72 0;
#X connect 70 0 69 0;
#X connect 71 0 34 0;
#X connect 71 0 34 1;
#X connect 72 0 68 0;
#X connect 73 0 67 0;
#X connect 74 0 53 0;
#X connect 75 0 8 0;
#X connect 76 0 9 0;
#X connect 76 0 87 0;
#X connect 77 0 15 0;
#X connect 78 0 77 0;
#X connect 79 0 83 0;
#X connect 80 0 82 0;
#X connect 81 0 82 0;
#X connect 83 0 111 0;
#X connect 84 0 82 0;
#X connect 84 0 90 0;
#X connect 85 0 82 5;
#X connect 85 0 90 5;
#X connect 86 0 85 0;
#X connect 87 0 88 0;
#X connect 88 0 82 0;
#X connect 89 0 111 1;
#X connect 92 0 93 0;
#X connect 93 0 28 0;
#X connect 93 0 96 0;
#X connect 93 1 97 0;
#X connect 93 2 98 0;
#X connect 93 3 105 0;
#X connect 94 0 7 2;
#X connect 96 0 82 2;
#X connect 97 0 82 3;
#X connect 98 0 82 4;
#X connect 99 0 7 1;
#X connect 100 0 7 3;
#X connect 101 0 7 4;
#X connect 103 0 82 1;
#X connect 105 0 82 4;
#X connect 106 0 76 0;
#X connect 106 0 75 0;
#X connect 106 0 86 0;
#X connect 106 0 109 0;
#X connect 107 0 111 1;
#X connect 108 0 111 1;
#X connect 109 0 110 0;
#X connect 110 0 107 0;
#X connect 110 1 108 0;
#X connect 111 0 84 0;
