#N canvas 489 269 450 300 10;
#X msg 51 79 draw fill;
#X msg 70 105 draw line;
#X floatatom 295 169 5 0 0 0 - - -;
#X msg 84 127 drawlinestrip;
#X obj 120 148 gemhead;
#X msg 294 196 0 \$1 0;
#X obj 298 68 gemwin;
#X obj 298 16 tgl 15 0 empty empty empty 17 7 0 10 -262144 -1 -1 1
1;
#X msg 326 15 create;
#X msg 338 39 destroy;
#X msg 193 66 0 1 0;
#X obj 128 213 polygon 6 ___;
#X msg 202 92 2 1 0;
#X msg 209 114 -2 1 0;
#X msg 216 138 -3 -2 0;
#X msg 225 161 3 2 0;
#X connect 0 0 11 0;
#X connect 1 0 11 0;
#X connect 2 0 5 0;
#X connect 3 0 11 0;
#X connect 4 0 11 0;
#X connect 5 0 11 6;
#X connect 7 0 6 0;
#X connect 8 0 6 0;
#X connect 9 0 6 0;
#X connect 10 0 11 1;
#X connect 12 0 11 2;
#X connect 13 0 11 3;
#X connect 14 0 11 4;
#X connect 15 0 11 5;
