#N canvas 0 0 440 328 10;
#X obj 39 9 inlet;
#X obj 130 109 tgl 15 0 empty empty empty 17 7 0 10 -262144 -1 -1 0
1;
#X obj 173 306 outlet~;
#X obj 196 135 osc~ 220;
#X obj 104 45 hradio 15 1 0 9 empty empty empty 0 -8 0 10 -262144 -1
-1 0;
#X obj 159 108 tgl 15 0 empty empty empty 17 7 0 10 -262144 -1 -1 0
1;
#X obj 39 57 counter;
#X obj 39 35 tgl 15 0 empty empty empty 17 7 0 10 -262144 -1 -1 0 8
;
#X obj 100 101 bng 15 250 50 0 empty empty empty 17 7 0 10 -262144
-1 -1;
#X obj 253 134 osc~ 164.81;
#X obj 183 109 tgl 15 0 empty empty empty 17 7 0 10 -262144 -1 -1 0
1;
#X obj 212 108 tgl 15 0 empty empty empty 17 7 0 10 -262144 -1 -1 0
1;
#X obj 38 86 mod 9;
#X obj 330 134 osc~ 196;
#X obj 97 71 select 0 1 2 3 4 5 6 7 8;
#X obj 141 261 *~ 0.2;
#X obj 93 261 *~ 0.2;
#X obj 237 261 *~ 0.2;
#X obj 188 261 *~ 0.2;
#X obj 120 135 osc~ 130.81;
#X obj 114 233 *~ *;
#X obj 148 233 *~ *;
#X obj 185 234 *~ *;
#X obj 219 234 *~ *;
#X obj 331 160 phasor~ 196;
#X obj 28 135 phasor~ 130.81;
#X connect 0 0 7 0;
#X connect 1 0 20 1;
#X connect 3 0 22 0;
#X connect 4 0 14 0;
#X connect 5 0 21 1;
#X connect 6 0 12 0;
#X connect 7 0 6 0;
#X connect 9 0 20 0;
#X connect 10 0 22 1;
#X connect 11 0 23 1;
#X connect 12 0 4 0;
#X connect 13 0 20 0;
#X connect 13 0 22 0;
#X connect 13 0 23 0;
#X connect 14 0 8 0;
#X connect 14 1 1 0;
#X connect 14 2 1 0;
#X connect 14 3 5 0;
#X connect 14 4 5 0;
#X connect 14 5 10 0;
#X connect 14 6 10 0;
#X connect 14 7 11 0;
#X connect 14 8 11 0;
#X connect 15 0 2 0;
#X connect 16 0 2 0;
#X connect 17 0 2 0;
#X connect 18 0 2 0;
#X connect 19 0 21 0;
#X connect 19 0 22 0;
#X connect 20 0 16 0;
#X connect 21 0 15 0;
#X connect 22 0 18 0;
#X connect 23 0 17 0;
#X connect 24 0 21 0;
#X connect 24 0 23 0;
#X connect 25 0 20 0;
#X connect 25 0 21 0;
#X connect 25 0 23 0;
