#N canvas 0 0 366 300 10;
#X obj 18 13 inlet;
#X obj 102 98 tgl 15 0 empty empty empty 17 7 0 10 -262144 -1 -1 0
1;
#X obj 100 275 outlet~;
#X obj 39 188 *~ *;
#X obj 76 44 hradio 15 1 0 5 empty empty empty 0 -8 0 10 -262144 -1
-1 3;
#X obj 138 98 tgl 15 0 empty empty empty 17 7 0 10 -262144 -1 -1 1
1;
#X obj 177 129 osc~ 130.81;
#X obj 172 195 *~ *;
#X obj 101 129 osc~ 164.81;
#X obj 72 99 bng 15 250 50 0 empty empty empty 17 7 0 10 -262144 -1
-1;
#X obj 18 64 counter;
#X obj 18 42 tgl 15 0 empty empty empty 17 7 0 10 -262144 -1 -1 3 3
;
#X obj 253 129 osc~ 196;
#X obj 19 93 mod 5;
#X obj 75 68 select 0 1 2 3 4;
#X obj 57 232 *~ 0.4;
#X obj 157 231 *~ 0.4;
#X obj 6 129 phasor~ 164.81;
#X connect 0 0 11 0;
#X connect 1 0 3 1;
#X connect 3 0 15 0;
#X connect 4 0 14 0;
#X connect 5 0 7 1;
#X connect 6 0 7 0;
#X connect 7 0 16 0;
#X connect 8 0 3 0;
#X connect 8 0 7 0;
#X connect 10 0 13 0;
#X connect 11 0 10 0;
#X connect 12 0 3 0;
#X connect 12 0 7 0;
#X connect 13 0 4 0;
#X connect 14 0 9 0;
#X connect 14 1 1 0;
#X connect 14 2 1 0;
#X connect 14 3 5 0;
#X connect 14 4 5 0;
#X connect 15 0 2 0;
#X connect 16 0 2 0;
#X connect 17 0 3 0;
