#N canvas 0 0 430 339 10;
#X obj -41 9 inlet;
#X obj 36 110 tgl 15 0 empty empty empty 17 7 0 10 -262144 -1 -1 0
1;
#X obj 102 320 outlet~;
#X obj 184 137 osc~ 220;
#X obj 14 31 hradio 15 1 0 13 empty empty empty 0 -8 0 10 -262144 -1
-1 0;
#X obj 64 109 tgl 15 0 empty empty empty 17 7 0 10 -262144 -1 -1 0
1;
#X obj 97 107 tgl 15 0 empty empty empty 17 7 0 10 -262144 -1 -1 0
1;
#X obj 128 109 tgl 15 0 empty empty empty 17 7 0 10 -262144 -1 -1 0
1;
#X obj 239 137 osc~ 130.81;
#X obj -36 137 osc~ 196;
#X obj -41 54 counter;
#X obj -41 32 tgl 15 0 empty empty empty 17 7 0 10 -262144 -1 -1 0
12;
#X obj 14 109 bng 15 250 50 0 empty empty empty 17 7 0 10 -262144 -1
-1;
#X obj -7 228 *~ *;
#X obj 33 228 *~ *;
#X obj 70 227 *~ *;
#X obj 108 227 *~ *;
#X obj 162 108 tgl 15 0 empty empty empty 17 7 0 10 -262144 -1 -1 0
1;
#X obj 195 110 tgl 15 0 empty empty empty 17 7 0 10 -262144 -1 -1 0
1;
#X obj 111 137 osc~ 164.81;
#X obj 145 226 *~ *;
#X obj 181 225 *~ *;
#X obj -41 83 mod 13;
#X obj 14 79 select 0 1 2 3 4 5 6 7 8 9 10 11 12;
#X obj -7 261 *~ 0.1;
#X obj 39 261 *~ 0.1;
#X obj 84 261 *~ 0.1;
#X obj 130 260 *~ 0.1;
#X obj 175 260 *~ 0.1;
#X obj 221 260 *~ 0.1;
#X obj 237 162 phasor~ 130.81;
#X obj 20 137 phasor~ 164.81;
#X connect 0 0 11 0;
#X connect 1 0 13 1;
#X connect 3 0 13 0;
#X connect 3 0 20 0;
#X connect 4 0 23 0;
#X connect 5 0 14 1;
#X connect 6 0 15 1;
#X connect 7 0 16 1;
#X connect 8 0 15 0;
#X connect 8 0 16 0;
#X connect 8 0 21 0;
#X connect 9 0 14 0;
#X connect 9 0 21 0;
#X connect 10 0 22 0;
#X connect 11 0 10 0;
#X connect 13 0 24 0;
#X connect 14 0 25 0;
#X connect 15 0 26 0;
#X connect 16 0 27 0;
#X connect 17 0 20 1;
#X connect 18 0 21 1;
#X connect 19 0 13 0;
#X connect 19 0 14 0;
#X connect 19 0 15 0;
#X connect 19 0 20 0;
#X connect 19 0 21 0;
#X connect 20 0 28 0;
#X connect 21 0 29 0;
#X connect 22 0 4 0;
#X connect 23 0 12 0;
#X connect 23 1 1 0;
#X connect 23 2 1 0;
#X connect 23 3 5 0;
#X connect 23 4 5 0;
#X connect 23 5 6 0;
#X connect 23 6 6 0;
#X connect 23 7 7 0;
#X connect 23 8 7 0;
#X connect 23 9 17 0;
#X connect 23 10 17 0;
#X connect 23 11 18 0;
#X connect 23 12 18 0;
#X connect 24 0 2 0;
#X connect 25 0 2 0;
#X connect 26 0 2 0;
#X connect 27 0 2 0;
#X connect 28 0 2 0;
#X connect 29 0 2 0;
#X connect 30 0 16 0;
#X connect 30 0 20 0;
#X connect 31 0 13 0;
#X connect 31 0 14 0;
#X connect 31 0 15 0;
#X connect 31 0 16 0;
