#N canvas 136 101 834 423 10;
#X obj 99 82 f;
#X floatatom 117 145 5 0 0 0 - - -;
#X obj 99 180 asn;
#X obj 99 155 tgl 15 0 empty empty empty 17 7 0 10 -262144 -1 -1 2
2;
#X obj 99 128 mod 5;
#X obj 494 379 dac~;
#X obj 99 104 + 1;
#X obj 152 179 ala;
#X obj 152 82 f;
#X floatatom 170 145 5 0 0 0 - - -;
#X obj 152 104 + 1;
#X obj 152 128 mod 9;
#X obj 152 154 tgl 15 0 empty empty empty 17 7 0 10 -262144 -1 -1 8
8;
#X obj 98 209 *~ 0.1;
#X obj 151 208 *~ 0.1;
#X obj 197 178 gly;
#X obj 197 207 *~ 0.1;
#X obj 243 178 arg;
#X obj 243 208 *~ 0.1;
#X obj 205 82 f;
#X floatatom 223 145 5 0 0 0 - - -;
#X obj 205 104 + 1;
#X obj 205 128 mod 9;
#X obj 205 154 tgl 15 0 empty empty empty 17 7 0 10 -262144 -1 -1 8
8;
#X obj 258 80 f;
#X floatatom 276 143 5 0 0 0 - - -;
#X obj 258 153 tgl 15 0 empty empty empty 17 7 0 10 -262144 -1 -1 2
2;
#X obj 258 126 mod 5;
#X obj 258 102 + 1;
#X obj 290 177 cys;
#X obj 342 176 gln;
#X obj 391 176 glu;
#X obj 440 175 ile;
#X obj 491 175 lys;
#X obj 540 175 leu;
#X obj 592 175 ser;
#X obj 643 175 pro;
#X obj 531 377 phe;
#X obj 559 377 val;
#X obj 588 376 thr;
#X obj 615 376 tyr;
#X obj 311 79 f;
#X floatatom 329 142 5 0 0 0 - - -;
#X obj 311 152 tgl 15 0 empty empty empty 17 7 0 10 -262144 -1 -1 2
2;
#X obj 311 125 mod 5;
#X obj 311 101 + 1;
#X obj 364 79 f;
#X floatatom 382 142 5 0 0 0 - - -;
#X obj 364 101 + 1;
#X obj 364 151 tgl 15 0 empty empty empty 17 7 0 10 -262144 -1 -1 2
2;
#X obj 417 79 f;
#X floatatom 435 142 5 0 0 0 - - -;
#X obj 417 101 + 1;
#X obj 417 151 tgl 15 0 empty empty empty 17 7 0 10 -262144 -1 -1 2
2;
#X obj 470 77 f;
#X floatatom 488 140 5 0 0 0 - - -;
#X obj 470 150 tgl 15 0 empty empty empty 17 7 0 10 -262144 -1 -1 5
5;
#X obj 470 99 + 1;
#X obj 523 77 f;
#X floatatom 541 140 5 0 0 0 - - -;
#X obj 523 150 tgl 15 0 empty empty empty 17 7 0 10 -262144 -1 -1 2
2;
#X obj 523 123 mod 5;
#X obj 523 99 + 1;
#X obj 576 77 f;
#X floatatom 594 140 5 0 0 0 - - -;
#X obj 576 99 + 1;
#X obj 576 149 tgl 15 0 empty empty empty 17 7 0 10 -262144 -1 -1 12
12;
#X obj 629 77 f;
#X floatatom 647 140 5 0 0 0 - - -;
#X obj 629 99 + 1;
#X obj 629 149 tgl 15 0 empty empty empty 17 7 0 10 -262144 -1 -1 2
2;
#X obj 682 75 f;
#X floatatom 700 138 5 0 0 0 - - -;
#X obj 682 148 tgl 15 0 empty empty empty 17 7 0 10 -262144 -1 -1 2
2;
#X obj 682 121 mod 5;
#X obj 682 97 + 1;
#X obj 288 208 *~ 0.1;
#X obj 343 207 *~ 0.1;
#X obj 391 207 *~ 0.1;
#X obj 439 207 *~ 0.1;
#X obj 491 207 *~ 0.1;
#X obj 539 207 *~ 0.1;
#X obj 591 207 *~ 0.1;
#X obj 644 207 *~ 0.1;
#X obj 364 125 mod 5;
#X obj 417 125 mod 5;
#X obj 470 123 mod 7;
#X obj 576 123 mod 13;
#X obj 629 123 mod 5;
#X obj 99 -9 inlet;
#X text 531 353 TODO;
#X obj 100 312 outlet~ One;
#X obj 223 311 outlet~ Two;
#X obj 154 -8 inlet tempo;
#X obj 99 22 metro 220;
#X floatatom 182 18 5 0 0 0 - - -;
#X obj 359 311 outlet~ Three;
#X obj 482 311 outlet~ Four;
#X connect 0 0 6 0;
#X connect 2 0 13 0;
#X connect 3 0 2 0;
#X connect 4 0 1 0;
#X connect 4 0 3 0;
#X connect 4 0 0 1;
#X connect 6 0 4 0;
#X connect 7 0 14 0;
#X connect 8 0 10 0;
#X connect 10 0 11 0;
#X connect 11 0 9 0;
#X connect 11 0 8 1;
#X connect 11 0 12 0;
#X connect 12 0 7 0;
#X connect 13 0 91 0;
#X connect 14 0 92 0;
#X connect 15 0 16 0;
#X connect 16 0 96 0;
#X connect 17 0 18 0;
#X connect 18 0 97 0;
#X connect 19 0 21 0;
#X connect 21 0 22 0;
#X connect 22 0 20 0;
#X connect 22 0 19 1;
#X connect 22 0 23 0;
#X connect 23 0 15 0;
#X connect 24 0 28 0;
#X connect 26 0 17 0;
#X connect 27 0 25 0;
#X connect 27 0 26 0;
#X connect 27 0 24 1;
#X connect 28 0 27 0;
#X connect 29 0 76 0;
#X connect 30 0 77 0;
#X connect 31 0 78 0;
#X connect 32 0 79 0;
#X connect 33 0 80 0;
#X connect 34 0 81 0;
#X connect 35 0 82 0;
#X connect 36 0 83 0;
#X connect 41 0 45 0;
#X connect 43 0 29 0;
#X connect 44 0 42 0;
#X connect 44 0 43 0;
#X connect 44 0 41 1;
#X connect 45 0 44 0;
#X connect 46 0 48 0;
#X connect 48 0 84 0;
#X connect 49 0 30 0;
#X connect 50 0 52 0;
#X connect 52 0 85 0;
#X connect 53 0 31 0;
#X connect 54 0 57 0;
#X connect 56 0 32 0;
#X connect 57 0 86 0;
#X connect 58 0 62 0;
#X connect 60 0 33 0;
#X connect 61 0 59 0;
#X connect 61 0 60 0;
#X connect 61 0 58 1;
#X connect 62 0 61 0;
#X connect 63 0 65 0;
#X connect 65 0 87 0;
#X connect 66 0 34 0;
#X connect 67 0 69 0;
#X connect 69 0 88 0;
#X connect 70 0 35 0;
#X connect 71 0 75 0;
#X connect 73 0 36 0;
#X connect 74 0 72 0;
#X connect 74 0 73 0;
#X connect 74 0 71 1;
#X connect 75 0 74 0;
#X connect 76 0 91 0;
#X connect 77 0 92 0;
#X connect 78 0 96 0;
#X connect 79 0 97 0;
#X connect 80 0 91 0;
#X connect 81 0 92 0;
#X connect 82 0 96 0;
#X connect 83 0 97 0;
#X connect 84 0 47 0;
#X connect 84 0 46 1;
#X connect 84 0 49 0;
#X connect 85 0 51 0;
#X connect 85 0 50 1;
#X connect 85 0 53 0;
#X connect 86 0 55 0;
#X connect 86 0 56 0;
#X connect 86 0 54 1;
#X connect 87 0 64 0;
#X connect 87 0 63 1;
#X connect 87 0 66 0;
#X connect 88 0 68 0;
#X connect 88 0 67 1;
#X connect 88 0 70 0;
#X connect 89 0 94 0;
#X connect 93 0 94 1;
#X connect 93 0 95 0;
#X connect 94 0 0 0;
#X connect 94 0 8 0;
#X connect 94 0 19 0;
#X connect 94 0 24 0;
#X connect 94 0 41 0;
#X connect 94 0 46 0;
#X connect 94 0 50 0;
#X connect 94 0 54 0;
#X connect 94 0 58 0;
#X connect 94 0 63 0;
#X connect 94 0 67 0;
#X connect 94 0 71 0;
