#N canvas 134 79 834 423 10;
#X obj 152 -15 tgl 15 0 empty empty empty 17 7 0 10 -262144 -1 -1 1
1;
#X obj 153 59 f;
#X floatatom 171 122 5 0 0 0 - - -;
#X obj 153 157 asn;
#X obj 153 132 tgl 15 0 empty empty empty 17 7 0 10 -262144 -1 -1 2
2;
#X obj 153 105 mod 5;
#X obj 381 359 dac~;
#X obj 153 81 + 1;
#X obj 206 156 ala;
#X obj 206 59 f;
#X floatatom 224 122 5 0 0 0 - - -;
#X obj 206 81 + 1;
#X obj 206 105 mod 9;
#X obj 206 131 tgl 15 0 empty empty empty 17 7 0 10 -262144 -1 -1 4
4;
#X obj 152 186 *~ 0.1;
#X obj 205 185 *~ 0.1;
#X obj -20 357 limit 0 9 5;
#X obj -18 334 line~ 0.5;
#X obj 371 290 freeverb~;
#X msg 26 142 roomsize \$1;
#X msg 26 185 damping \$1;
#X obj 50 123 hsl 60 15 0 1 0 0 empty empty empty -2 -8 0 10 -262144
-1 -1 4200 1;
#X obj 48 165 hsl 60 15 0 1 0 0 empty empty empty -2 -8 0 10 -262144
-1 -1 5900 1;
#X obj 47 207 hsl 60 15 0 1 0 0 empty empty empty -2 -8 0 10 -262144
-1 -1 5600 1;
#X obj 47 247 hsl 60 15 0 1 0 0 empty empty empty -2 -8 0 10 -262144
-1 -1 1300 1;
#X obj 46 287 hsl 60 15 0 0.5 0 0 empty empty empty -2 -8 0 10 -262144
-1 -1 5900 1;
#X obj -17 309 / 5;
#X obj 251 155 gly;
#X obj 251 184 *~ 0.1;
#X obj 297 155 arg;
#X obj 297 185 *~ 0.1;
#X obj 259 59 f;
#X floatatom 277 122 5 0 0 0 - - -;
#X obj 259 81 + 1;
#X obj 259 105 mod 9;
#X obj 259 131 tgl 15 0 empty empty empty 17 7 0 10 -262144 -1 -1 4
4;
#X obj 312 57 f;
#X floatatom 330 120 5 0 0 0 - - -;
#X obj 312 130 tgl 15 0 empty empty empty 17 7 0 10 -262144 -1 -1 2
2;
#X obj 312 103 mod 5;
#X obj 312 79 + 1;
#X obj 344 154 cys;
#X obj 396 153 gln;
#X obj 445 153 glu;
#X obj 494 152 ile;
#X obj 545 152 lys;
#X obj 594 152 leu;
#X obj 646 152 ser;
#X obj 697 152 pro;
#X obj 678 276 phe;
#X obj 712 273 val;
#X obj 741 272 thr;
#X obj 771 255 tyr;
#X obj 365 56 f;
#X floatatom 383 119 5 0 0 0 - - -;
#X obj 365 129 tgl 15 0 empty empty empty 17 7 0 10 -262144 -1 -1 2
2;
#X obj 365 102 mod 5;
#X obj 365 78 + 1;
#X obj 418 56 f;
#X floatatom 436 119 5 0 0 0 - - -;
#X obj 418 78 + 1;
#X obj 418 128 tgl 15 0 empty empty empty 17 7 0 10 -262144 -1 -1 2
2;
#X obj 471 56 f;
#X floatatom 489 119 5 0 0 0 - - -;
#X obj 471 78 + 1;
#X obj 471 128 tgl 15 0 empty empty empty 17 7 0 10 -262144 -1 -1 2
2;
#X obj 524 54 f;
#X floatatom 542 117 5 0 0 0 - - -;
#X obj 524 127 tgl 15 0 empty empty empty 17 7 0 10 -262144 -1 -1 6
6;
#X obj 524 76 + 1;
#X obj 577 54 f;
#X floatatom 595 117 5 0 0 0 - - -;
#X obj 577 127 tgl 15 0 empty empty empty 17 7 0 10 -262144 -1 -1 2
2;
#X obj 577 100 mod 5;
#X obj 577 76 + 1;
#X obj 630 54 f;
#X floatatom 648 117 5 0 0 0 - - -;
#X obj 630 76 + 1;
#X obj 630 126 tgl 15 0 empty empty empty 17 7 0 10 -262144 -1 -1 9
9;
#X obj 683 54 f;
#X floatatom 701 117 5 0 0 0 - - -;
#X obj 683 76 + 1;
#X obj 683 126 tgl 15 0 empty empty empty 17 7 0 10 -262144 -1 -1 2
2;
#X obj 736 52 f;
#X floatatom 754 115 5 0 0 0 - - -;
#X obj 736 125 tgl 15 0 empty empty empty 17 7 0 10 -262144 -1 -1 2
2;
#X obj 736 98 mod 5;
#X obj 736 74 + 1;
#X obj 342 185 *~ 0.1;
#X obj 397 184 *~ 0.1;
#X obj 445 184 *~ 0.1;
#X obj 493 184 *~ 0.1;
#X obj 545 184 *~ 0.1;
#X obj 593 184 *~ 0.1;
#X obj 645 184 *~ 0.1;
#X obj 696 183 *~ 0.1;
#X obj 418 102 mod 5;
#X obj 471 102 mod 5;
#X obj 524 100 mod 7;
#X obj 630 100 mod 13;
#X obj 683 100 mod 5;
#X msg 23 226 width \$1;
#X msg 27 265 wet \$1;
#X msg 26 305 dry \$1;
#X obj 152 9 metro 220;
#X obj 363 321 *~ 0.4;
#X obj 421 321 *~ 0.4;
#X connect 0 0 104 0;
#X connect 1 0 7 0;
#X connect 3 0 14 0;
#X connect 4 0 3 0;
#X connect 5 0 2 0;
#X connect 5 0 4 0;
#X connect 5 0 1 1;
#X connect 7 0 5 0;
#X connect 8 0 15 0;
#X connect 9 0 11 0;
#X connect 11 0 12 0;
#X connect 12 0 10 0;
#X connect 12 0 9 1;
#X connect 12 0 13 0;
#X connect 13 0 8 0;
#X connect 14 0 18 0;
#X connect 15 0 18 1;
#X connect 18 0 105 0;
#X connect 18 1 106 0;
#X connect 19 0 18 0;
#X connect 20 0 18 0;
#X connect 21 0 19 0;
#X connect 22 0 20 0;
#X connect 23 0 101 0;
#X connect 24 0 102 0;
#X connect 25 0 103 0;
#X connect 27 0 28 0;
#X connect 28 0 18 0;
#X connect 29 0 30 0;
#X connect 30 0 18 1;
#X connect 31 0 33 0;
#X connect 33 0 34 0;
#X connect 34 0 32 0;
#X connect 34 0 31 1;
#X connect 34 0 35 0;
#X connect 35 0 27 0;
#X connect 36 0 40 0;
#X connect 38 0 29 0;
#X connect 39 0 37 0;
#X connect 39 0 38 0;
#X connect 39 0 36 1;
#X connect 40 0 39 0;
#X connect 41 0 88 0;
#X connect 42 0 89 0;
#X connect 43 0 90 0;
#X connect 44 0 91 0;
#X connect 45 0 92 0;
#X connect 46 0 93 0;
#X connect 47 0 94 0;
#X connect 48 0 95 0;
#X connect 53 0 57 0;
#X connect 55 0 41 0;
#X connect 56 0 54 0;
#X connect 56 0 55 0;
#X connect 56 0 53 1;
#X connect 57 0 56 0;
#X connect 58 0 60 0;
#X connect 60 0 96 0;
#X connect 61 0 42 0;
#X connect 62 0 64 0;
#X connect 64 0 97 0;
#X connect 65 0 43 0;
#X connect 66 0 69 0;
#X connect 68 0 44 0;
#X connect 69 0 98 0;
#X connect 70 0 74 0;
#X connect 72 0 45 0;
#X connect 73 0 71 0;
#X connect 73 0 72 0;
#X connect 73 0 70 1;
#X connect 74 0 73 0;
#X connect 75 0 77 0;
#X connect 77 0 99 0;
#X connect 78 0 46 0;
#X connect 79 0 81 0;
#X connect 81 0 100 0;
#X connect 82 0 47 0;
#X connect 83 0 87 0;
#X connect 85 0 48 0;
#X connect 86 0 84 0;
#X connect 86 0 85 0;
#X connect 86 0 83 1;
#X connect 87 0 86 0;
#X connect 88 0 18 0;
#X connect 89 0 18 1;
#X connect 90 0 18 0;
#X connect 91 0 18 1;
#X connect 92 0 18 0;
#X connect 93 0 18 1;
#X connect 94 0 18 0;
#X connect 95 0 18 1;
#X connect 96 0 59 0;
#X connect 96 0 58 1;
#X connect 96 0 61 0;
#X connect 97 0 63 0;
#X connect 97 0 62 1;
#X connect 97 0 65 0;
#X connect 98 0 67 0;
#X connect 98 0 68 0;
#X connect 98 0 66 1;
#X connect 99 0 76 0;
#X connect 99 0 75 1;
#X connect 99 0 78 0;
#X connect 100 0 80 0;
#X connect 100 0 79 1;
#X connect 100 0 82 0;
#X connect 101 0 18 0;
#X connect 102 0 18 0;
#X connect 103 0 18 0;
#X connect 104 0 1 0;
#X connect 104 0 9 0;
#X connect 104 0 31 0;
#X connect 104 0 36 0;
#X connect 104 0 53 0;
#X connect 104 0 58 0;
#X connect 104 0 62 0;
#X connect 104 0 66 0;
#X connect 104 0 70 0;
#X connect 104 0 75 0;
#X connect 104 0 79 0;
#X connect 104 0 83 0;
#X connect 105 0 6 0;
#X connect 106 0 6 1;
