#N canvas 134 79 834 423 10;
#X obj 99 82 f;
#X floatatom 117 145 5 0 0 0 - - -;
#X obj 99 180 asn;
#X obj 99 155 tgl 15 0 empty empty empty 17 7 0 10 -262144 -1 -1 1
1;
#X obj 99 128 mod 5;
#X obj 494 379 dac~;
#X obj 99 104 + 1;
#X obj 152 179 ala;
#X obj 152 82 f;
#X floatatom 170 145 5 0 0 0 - - -;
#X obj 152 104 + 1;
#X obj 152 128 mod 9;
#X obj 152 154 tgl 15 0 empty empty empty 17 7 0 10 -262144 -1 -1 7
7;
#X obj 98 209 *~ 0.1;
#X obj 151 208 *~ 0.1;
#X obj 322 303 freeverb~;
#X obj 197 178 gly;
#X obj 197 207 *~ 0.1;
#X obj 243 178 arg;
#X obj 243 208 *~ 0.1;
#X obj 205 82 f;
#X floatatom 223 145 5 0 0 0 - - -;
#X obj 205 104 + 1;
#X obj 205 128 mod 9;
#X obj 205 154 tgl 15 0 empty empty empty 17 7 0 10 -262144 -1 -1 7
7;
#X obj 258 80 f;
#X floatatom 276 143 5 0 0 0 - - -;
#X obj 258 153 tgl 15 0 empty empty empty 17 7 0 10 -262144 -1 -1 1
1;
#X obj 258 126 mod 5;
#X obj 258 102 + 1;
#X obj 290 177 cys;
#X obj 342 176 gln;
#X obj 391 176 glu;
#X obj 440 175 ile;
#X obj 491 175 lys;
#X obj 540 175 leu;
#X obj 592 175 ser;
#X obj 643 175 pro;
#X obj 531 377 phe;
#X obj 559 377 val;
#X obj 588 376 thr;
#X obj 615 376 tyr;
#X obj 311 79 f;
#X floatatom 329 142 5 0 0 0 - - -;
#X obj 311 152 tgl 15 0 empty empty empty 17 7 0 10 -262144 -1 -1 1
1;
#X obj 311 125 mod 5;
#X obj 311 101 + 1;
#X obj 364 79 f;
#X floatatom 382 142 5 0 0 0 - - -;
#X obj 364 101 + 1;
#X obj 364 151 tgl 15 0 empty empty empty 17 7 0 10 -262144 -1 -1 1
1;
#X obj 417 79 f;
#X floatatom 435 142 5 0 0 0 - - -;
#X obj 417 101 + 1;
#X obj 417 151 tgl 15 0 empty empty empty 17 7 0 10 -262144 -1 -1 1
1;
#X obj 470 77 f;
#X floatatom 488 140 5 0 0 0 - - -;
#X obj 470 150 tgl 15 0 empty empty empty 17 7 0 10 -262144 -1 -1 6
6;
#X obj 470 99 + 1;
#X obj 523 77 f;
#X floatatom 541 140 5 0 0 0 - - -;
#X obj 523 150 tgl 15 0 empty empty empty 17 7 0 10 -262144 -1 -1 1
1;
#X obj 523 123 mod 5;
#X obj 523 99 + 1;
#X obj 576 77 f;
#X floatatom 594 140 5 0 0 0 - - -;
#X obj 576 99 + 1;
#X obj 576 149 tgl 15 0 empty empty empty 17 7 0 10 -262144 -1 -1 3
3;
#X obj 629 77 f;
#X floatatom 647 140 5 0 0 0 - - -;
#X obj 629 99 + 1;
#X obj 629 149 tgl 15 0 empty empty empty 17 7 0 10 -262144 -1 -1 1
1;
#X obj 682 75 f;
#X floatatom 700 138 5 0 0 0 - - -;
#X obj 682 148 tgl 15 0 empty empty empty 17 7 0 10 -262144 -1 -1 1
1;
#X obj 682 121 mod 5;
#X obj 682 97 + 1;
#X obj 288 208 *~ 0.1;
#X obj 343 207 *~ 0.1;
#X obj 391 207 *~ 0.1;
#X obj 439 207 *~ 0.1;
#X obj 491 207 *~ 0.1;
#X obj 539 207 *~ 0.1;
#X obj 591 207 *~ 0.1;
#X obj 642 206 *~ 0.1;
#X obj 364 125 mod 5;
#X obj 417 125 mod 5;
#X obj 470 123 mod 7;
#X obj 576 123 mod 13;
#X obj 629 123 mod 5;
#X obj 322 338 *~ 0.4;
#X obj 380 338 *~ 0.4;
#X obj 350 379 outlet~;
#X obj 99 -9 inlet;
#X obj 99 22 metro;
#X text 531 353 TODO;
#X obj 154 -8 inlet tmpo;
#X obj -7 285 r rvbcntlD;
#X connect 0 0 6 0;
#X connect 2 0 13 0;
#X connect 3 0 2 0;
#X connect 4 0 1 0;
#X connect 4 0 3 0;
#X connect 4 0 0 1;
#X connect 6 0 4 0;
#X connect 7 0 14 0;
#X connect 8 0 10 0;
#X connect 10 0 11 0;
#X connect 11 0 9 0;
#X connect 11 0 8 1;
#X connect 11 0 12 0;
#X connect 12 0 7 0;
#X connect 13 0 15 0;
#X connect 14 0 15 1;
#X connect 15 0 90 0;
#X connect 15 1 91 0;
#X connect 16 0 17 0;
#X connect 17 0 15 0;
#X connect 18 0 19 0;
#X connect 19 0 15 1;
#X connect 20 0 22 0;
#X connect 22 0 23 0;
#X connect 23 0 21 0;
#X connect 23 0 20 1;
#X connect 23 0 24 0;
#X connect 24 0 16 0;
#X connect 25 0 29 0;
#X connect 27 0 18 0;
#X connect 28 0 26 0;
#X connect 28 0 27 0;
#X connect 28 0 25 1;
#X connect 29 0 28 0;
#X connect 30 0 77 0;
#X connect 31 0 78 0;
#X connect 32 0 79 0;
#X connect 33 0 80 0;
#X connect 34 0 81 0;
#X connect 35 0 82 0;
#X connect 36 0 83 0;
#X connect 37 0 84 0;
#X connect 42 0 46 0;
#X connect 44 0 30 0;
#X connect 45 0 43 0;
#X connect 45 0 44 0;
#X connect 45 0 42 1;
#X connect 46 0 45 0;
#X connect 47 0 49 0;
#X connect 49 0 85 0;
#X connect 50 0 31 0;
#X connect 51 0 53 0;
#X connect 53 0 86 0;
#X connect 54 0 32 0;
#X connect 55 0 58 0;
#X connect 57 0 33 0;
#X connect 58 0 87 0;
#X connect 59 0 63 0;
#X connect 61 0 34 0;
#X connect 62 0 60 0;
#X connect 62 0 61 0;
#X connect 62 0 59 1;
#X connect 63 0 62 0;
#X connect 64 0 66 0;
#X connect 66 0 88 0;
#X connect 67 0 35 0;
#X connect 68 0 70 0;
#X connect 70 0 89 0;
#X connect 71 0 36 0;
#X connect 72 0 76 0;
#X connect 74 0 37 0;
#X connect 75 0 73 0;
#X connect 75 0 74 0;
#X connect 75 0 72 1;
#X connect 76 0 75 0;
#X connect 77 0 15 0;
#X connect 78 0 15 1;
#X connect 79 0 15 0;
#X connect 80 0 15 1;
#X connect 81 0 15 0;
#X connect 82 0 15 1;
#X connect 83 0 15 0;
#X connect 84 0 15 1;
#X connect 85 0 48 0;
#X connect 85 0 47 1;
#X connect 85 0 50 0;
#X connect 86 0 52 0;
#X connect 86 0 51 1;
#X connect 86 0 54 0;
#X connect 87 0 56 0;
#X connect 87 0 57 0;
#X connect 87 0 55 1;
#X connect 88 0 65 0;
#X connect 88 0 64 1;
#X connect 88 0 67 0;
#X connect 89 0 69 0;
#X connect 89 0 68 1;
#X connect 89 0 71 0;
#X connect 90 0 92 0;
#X connect 91 0 92 0;
#X connect 93 0 94 0;
#X connect 94 0 0 0;
#X connect 94 0 8 0;
#X connect 94 0 20 0;
#X connect 94 0 25 0;
#X connect 94 0 42 0;
#X connect 94 0 47 0;
#X connect 94 0 51 0;
#X connect 94 0 55 0;
#X connect 94 0 59 0;
#X connect 94 0 64 0;
#X connect 94 0 68 0;
#X connect 94 0 72 0;
#X connect 96 0 94 1;
#X connect 97 0 15 0;
