#N canvas 0 0 450 300 10;
#X obj 16 7 inlet;
#X obj 106 128 tgl 15 0 empty empty empty 17 7 0 10 -262144 -1 -1 0
1;
#X obj 84 273 outlet~;
#X obj 75 221 *~ *;
#X obj 74 45 hradio 15 1 0 5 empty empty empty 0 -8 0 10 -262144 -1
-1 0;
#X obj 135 127 tgl 15 0 empty empty empty 17 7 0 10 -262144 -1 -1 0
1;
#X obj 95 160 osc~ 130.81;
#X obj 138 219 *~ *;
#X obj 16 55 counter;
#X obj 16 33 tgl 15 0 empty empty empty 17 7 0 10 -262144 -1 -1 0 1
;
#X obj 77 99 bng 15 250 50 0 empty empty empty 17 7 0 10 -262144 -1
-1;
#X obj 106 98 bng 15 250 50 0 empty empty empty 17 7 0 10 -262144 -1
-1;
#X obj 135 98 bng 15 250 50 0 empty empty empty 17 7 0 10 -262144 -1
-1;
#X obj 265 160 osc~ 164.81;
#X obj 20 160 osc~ 164.81;
#X obj 16 84 mod 5;
#X obj 171 160 osc~ 164.81;
#X obj 74 70 select 0 1 2 3 4;
#X connect 0 0 9 0;
#X connect 1 0 3 1;
#X connect 3 0 2 0;
#X connect 4 0 17 0;
#X connect 5 0 7 1;
#X connect 6 0 7 0;
#X connect 7 0 2 0;
#X connect 8 0 15 0;
#X connect 9 0 8 0;
#X connect 11 0 1 0;
#X connect 12 0 5 0;
#X connect 13 0 3 0;
#X connect 14 0 3 0;
#X connect 14 0 7 0;
#X connect 15 0 4 0;
#X connect 16 0 3 0;
#X connect 16 0 7 0;
#X connect 17 0 10 0;
#X connect 17 1 11 0;
#X connect 17 2 11 0;
#X connect 17 3 12 0;
#X connect 17 4 12 0;
