#N canvas 0 0 450 300 10;
#X obj 32 10 inlet;
#X obj 119 101 tgl 15 0 empty empty empty 17 7 0 10 -262144 -1 -1 0
1;
#X obj 154 279 outlet~;
#X obj 109 231 *~ *;
#X obj 186 127 osc~ 220;
#X obj 97 46 hradio 15 1 0 9 empty empty empty 0 -8 0 10 -262144 -1
-1 2;
#X obj 148 100 tgl 15 0 empty empty empty 17 7 0 10 -262144 -1 -1 0
1;
#X obj 110 127 osc~ 130.81;
#X obj 143 231 *~ *;
#X obj 32 58 counter;
#X obj 32 36 tgl 15 0 empty empty empty 17 7 0 10 -262144 -1 -1 0 4
;
#X obj 93 102 bng 15 250 50 0 empty empty empty 17 7 0 10 -262144 -1
-1;
#X obj 243 126 osc~ 164.81;
#X obj 172 101 tgl 15 0 empty empty empty 17 7 0 10 -262144 -1 -1 0
1;
#X obj 201 100 tgl 15 0 empty empty empty 17 7 0 10 -262144 -1 -1 0
1;
#X obj 180 232 *~ *;
#X obj 214 232 *~ *;
#X obj 31 87 mod 9;
#X obj 320 126 osc~ 196;
#X obj 90 72 select 0 1 2 3 4 5 6 7 8;
#X obj 18 127 phasor~ 130.81;
#X obj 320 149 phasor~ 130.81;
#X connect 0 0 10 0;
#X connect 1 0 3 1;
#X connect 3 0 2 0;
#X connect 4 0 15 0;
#X connect 5 0 19 0;
#X connect 6 0 8 1;
#X connect 7 0 3 0;
#X connect 7 0 8 0;
#X connect 7 0 15 0;
#X connect 7 0 16 0;
#X connect 8 0 2 0;
#X connect 9 0 17 0;
#X connect 10 0 9 0;
#X connect 12 0 3 0;
#X connect 13 0 15 1;
#X connect 14 0 16 1;
#X connect 15 0 2 0;
#X connect 16 0 2 0;
#X connect 17 0 5 0;
#X connect 18 0 16 0;
#X connect 19 0 11 0;
#X connect 19 1 1 0;
#X connect 19 2 1 0;
#X connect 19 3 6 0;
#X connect 19 4 6 0;
#X connect 19 5 13 0;
#X connect 19 6 13 0;
#X connect 19 7 14 0;
#X connect 19 8 14 0;
#X connect 20 0 3 0;
#X connect 20 0 8 0;
#X connect 20 0 15 0;
#X connect 20 0 16 0;
#X connect 21 0 8 0;
