#N canvas 35 43 551 190 10;
#X obj 212 54 tgl 15 0 empty oDs empty 17 7 0 10 -262144 -1 -1 1 1
;
#X text 252 35 Sync Tempo;
#X text 168 37 Sequence X;
#X obj 163 146 s~ dnaSND;
#X text 28 14 INSULIN DNA SEQUENCE;
#X obj 226 69 main;
#X obj 35 55 knob 31 31 177 50 0 0 tDs tDsSy empty 0 -8 0 8 -262144
-1 -1 2700 1;
#X obj 35 92 tgl 15 0 oDs empty empty 17 7 0 10 -262144 -1 -1 1 1;
#X obj 51 92 hradio 15 1 0 4 sDs empty empty 0 -8 0 10 -262144 -1 -1
0;
#X text 30 35 TEMPO;
#X floatatom 80 70 5 0 0 0 - tDs -;
#X obj 222 146 s~ dnaSND2;
#N canvas 204 181 379 311 set_tempoD 0;
#X obj 76 28 inlet;
#X obj 186 26 inlet;
#X floatatom 115 80 5 0 0 0 - - tempoRounded;
#X floatatom 40 126 5 0 0 0 - - -;
#X obj 76 109 expr 60000 / $f1;
#X msg 186 110 0.25;
#X msg 225 109 0.5;
#X obj 164 161 *;
#X floatatom 185 186 5 0 0 0 - - -;
#X msg 263 109 0.75;
#X msg 302 109 1;
#X obj 186 61 sel 0 1 2 3;
#X obj 76 63 i;
#X obj 164 240 outlet;
#X connect 0 0 12 0;
#X connect 1 0 11 0;
#X connect 4 0 3 0;
#X connect 4 0 7 0;
#X connect 5 0 7 1;
#X connect 6 0 7 1;
#X connect 7 0 8 0;
#X connect 7 0 13 0;
#X connect 9 0 7 1;
#X connect 10 0 7 1;
#X connect 11 0 5 0;
#X connect 11 1 6 0;
#X connect 11 2 9 0;
#X connect 11 3 10 0;
#X connect 12 0 4 0;
#X connect 12 0 2 0;
#X restore 34 130 pd set_tempoD;
#X obj 34 148 s stmpoD;
#X obj 34 112 r tDs;
#X obj 109 112 r sDs;
#X obj 254 52 r stmpoD;
#X obj 287 146 s~ dnaSND3;
#X obj 352 146 s~ dnaSND4;
#X obj 163 128 *~ 0.2;
#X obj 287 128 *~ 0.2;
#X obj 222 128 *~ 0.1;
#X obj 352 128 *~ 0.1;
#X connect 0 0 5 0;
#X connect 5 0 19 0;
#X connect 5 1 21 0;
#X connect 5 2 20 0;
#X connect 5 3 22 0;
#X connect 12 0 13 0;
#X connect 14 0 12 0;
#X connect 15 0 12 1;
#X connect 16 0 5 1;
#X connect 19 0 3 0;
#X connect 20 0 17 0;
#X connect 21 0 11 0;
#X connect 22 0 18 0;
