#N canvas 0 0 450 300 10;
#X obj -42 5 inlet;
#X obj 30 128 tgl 15 0 empty empty empty 17 7 0 10 -262144 -1 -1 0
1;
#X obj 9 278 outlet~;
#X obj 149 155 osc~ 220;
#X obj 13 27 hradio 15 1 0 9 empty empty empty 0 -8 0 10 -262144 -1
-1 0;
#X obj 67 126 tgl 15 0 empty empty empty 17 7 0 10 -262144 -1 -1 0
1;
#X obj 103 125 tgl 15 0 empty empty empty 17 7 0 10 -262144 -1 -1 0
1;
#X obj 131 125 tgl 15 0 empty empty empty 17 7 0 10 -262144 -1 -1 0
1;
#X obj 207 155 osc~ 130.81;
#X obj 75 155 osc~ 164.81;
#X obj -42 50 counter;
#X obj -42 28 tgl 15 0 empty empty empty 17 7 0 10 -262144 -1 -1 0
1;
#X obj -8 106 bng 15 250 50 0 empty empty empty 17 7 0 10 -262144 -1
-1;
#X obj 24 105 bng 15 250 50 0 empty empty empty 17 7 0 10 -262144 -1
-1;
#X obj 58 106 bng 15 250 50 0 empty empty empty 17 7 0 10 -262144 -1
-1;
#X obj 89 104 bng 15 250 50 0 empty empty empty 17 7 0 10 -262144 -1
-1;
#X obj 123 104 bng 15 250 50 0 empty empty empty 17 7 0 10 -262144
-1 -1;
#X obj 8 238 *~ *;
#X obj 42 237 *~ *;
#X obj 80 237 *~ *;
#X obj 118 237 *~ *;
#X obj 17 155 osc~ 196;
#X obj -40 155 osc~ 220;
#X obj 282 154 osc~ 130.81;
#X obj -42 79 mod 9;
#X obj 13 75 select 0 1 2 3 4 5 6 7 8;
#X connect 0 0 11 0;
#X connect 1 0 17 1;
#X connect 3 0 17 0;
#X connect 3 0 19 0;
#X connect 4 0 25 0;
#X connect 5 0 18 1;
#X connect 6 0 19 1;
#X connect 7 0 20 1;
#X connect 8 0 17 0;
#X connect 8 0 18 0;
#X connect 9 0 17 0;
#X connect 9 0 20 0;
#X connect 10 0 24 0;
#X connect 11 0 10 0;
#X connect 13 0 1 0;
#X connect 14 0 5 0;
#X connect 15 0 6 0;
#X connect 16 0 7 0;
#X connect 17 0 2 0;
#X connect 18 0 2 0;
#X connect 19 0 2 0;
#X connect 20 0 2 0;
#X connect 21 0 20 0;
#X connect 22 0 19 0;
#X connect 22 0 20 0;
#X connect 23 0 18 0;
#X connect 23 0 19 0;
#X connect 24 0 4 0;
#X connect 25 0 12 0;
#X connect 25 1 13 0;
#X connect 25 2 13 0;
#X connect 25 3 14 0;
#X connect 25 4 14 0;
#X connect 25 5 15 0;
#X connect 25 6 15 0;
#X connect 25 7 16 0;
#X connect 25 8 16 0;
