#N canvas 0 0 1024 524 10;
#X obj 208 212 line~;
#X obj 160 249 *~;
#X obj 97 250 *~;
#X obj 159 285 lop~ 150;
#X obj 122 323 *~;
#X obj 96 285 lop~ 200;
#X msg 152 184 1 \, 0 180;
#X obj 178 411 dac~;
#X obj 23 -51 knob 32 32 0 8 0 0 empty empty empty 0 -8 0 8 -262144
-1 -1 775 1;
#X obj 38 211 osc~;
#X msg 939 -34 \; pd dsp 0;
#X msg 938 5 \; pd dsp 1;
#X obj 23 46 hradio 15 1 0 8 empty empty empty 0 -8 0 10 -262144 -1
-1 2;
#X obj 395 24 f;
#X obj 395 49 counter;
#X obj 395 5 bng 15 250 50 0 empty empty empty 17 7 0 10 -262144 -1
-1;
#X msg 441 -66 0;
#X msg 395 -66 1;
#X obj 23 74 sel 0 1 2 3 4 5 6 7;
#X obj 395 74 mod 9;
#X floatatom 514 -65 5 0 0 0 - - -;
#X obj 939 -58 loadbang;
#X msg 669 -33 roomsize \$1;
#X msg 745 -35 damping \$1;
#X obj 672 -49 hsl 60 15 0 1 0 0 empty empty empty -2 -8 0 10 -262144
-1 -1 2700 1;
#X obj 748 -49 hsl 60 15 0 1 0 0 empty empty empty -2 -8 0 10 -262144
-1 -1 5600 1;
#X obj 822 -50 hsl 60 15 0 1 0 0 empty empty empty -2 -8 0 10 -262144
-1 -1 4900 1;
#X obj 675 -6 hsl 60 15 0 1 0 0 empty empty empty -2 -8 0 10 -262144
-1 -1 800 1;
#X obj 750 -6 hsl 60 15 0 0.5 0 0 empty empty empty -2 -8 0 10 -262144
-1 -1 2700 1;
#X msg 819 -34 width \$1;
#X msg 672 10 wet \$1;
#X msg 747 10 dry \$1;
#X text 667 -66 REVERB CNTRL;
#X obj 836 27 s thngy;
#X obj 357 394 freeverb~;
#X obj 56 339 r thngy;
#X obj 123 394 *~ 0.4;
#X obj 65 -52 knob 32 32 0 8 0 0 empty empty empty 0 -8 0 8 -262144
-1 -1 1937 1;
#X obj 104 -52 knob 32 32 0 8 0 0 empty empty empty 0 -8 0 8 -262144
-1 -1 2712 1;
#X obj 368 188 line~;
#X obj 312 256 *~;
#X obj 249 257 *~;
#X obj 271 313 *~;
#X msg 368 160 1 \, 0 180;
#X obj 250 214 osc~;
#X obj 65 22 hradio 15 1 0 8 empty empty empty 0 -8 0 10 -262144 -1
-1 4;
#X obj 152 46 sel 0 1 2 3 4 5 6 7;
#X obj 248 285 lop~ 180;
#X obj 311 284 lop~ 125;
#X obj 466 24 f;
#X obj 466 49 counter;
#X obj 466 5 bng 15 250 50 0 empty empty empty 17 7 0 10 -262144 -1
-1;
#X obj 466 73 mod 9;
#X obj 395 -17 metro 100;
#X obj 466 -18 metro 150;
#X obj 534 25 f;
#X obj 534 50 counter;
#X obj 534 6 bng 15 250 50 0 empty empty empty 17 7 0 10 -262144 -1
-1;
#X obj 534 74 mod 9;
#X obj 534 -13 metro 200;
#X obj 516 194 line~;
#X obj 472 254 *~;
#X obj 409 255 *~;
#X obj 430 302 *~;
#X msg 516 171 1 \, 0 180;
#X obj 408 191 osc~;
#X obj 104 2 hradio 15 1 0 8 empty empty empty 0 -8 0 10 -262144 -1
-1 6;
#X obj 195 21 sel 0 1 2 3 4 5 6 7;
#X obj 408 283 lop~ 210;
#X obj 471 282 lop~ 160;
#X obj 599 26 f;
#X obj 599 51 counter;
#X obj 599 7 bng 15 250 50 0 empty empty empty 17 7 0 10 -262144 -1
-1;
#X obj 599 75 mod 9;
#X obj 599 -16 metro 250;
#X obj 145 -53 knob 32 32 0 8 0 0 empty empty empty 0 -8 0 8 -262144
-1 -1 775 1;
#X obj 733 276 line~;
#X obj 640 294 *~;
#X obj 577 295 *~;
#X obj 599 351 *~;
#X msg 656 228 1 \, 0 180;
#X obj 577 251 osc~;
#X obj 168 -18 hradio 15 1 0 8 empty empty empty 0 -8 0 10 -262144
-1 -1 2;
#X obj 587 127 sel 0 1 2 3 4 5 6 7;
#X obj 576 323 lop~ 180;
#X obj 639 322 lop~ 125;
#X obj 302 212 ../WFormUnit/tri_wave;
#X obj 319 231 ../WFormUnit/sqr_alt_wave;
#X obj 52 412 s~ tThing;
#X obj 481 193 osc~;
#X obj 74 211 ../WFormUnit/tri_wave;
#X obj 332 25 f;
#X obj 332 50 counter;
#X obj 332 6 bng 15 250 50 0 empty empty empty 17 7 0 10 -262144 -1
-1;
#X obj 332 73 mod 9;
#X obj 332 -16 metro 50;
#X obj 187 -72 knob 32 32 0 8 0 0 empty empty empty 0 -8 0 8 -262144
-1 -1 1937 1;
#X obj 211 -37 hradio 15 1 0 8 empty empty empty 0 -8 0 10 -262144
-1 -1 4;
#X obj 930 244 line~;
#X obj 837 262 *~;
#X obj 774 263 *~;
#X obj 796 319 *~;
#X msg 929 191 1 \, 0 180;
#X obj 774 219 osc~;
#X obj 784 95 sel 0 1 2 3 4 5 6 7;
#X obj 813 219 ../WFormUnit/sqr_alt_wave;
#X obj 773 291 lop~ 300;
#X obj 836 290 lop~ 155;
#X obj 616 251 ../WFormUnit/tri_wave;
#X msg 63 152 150;
#X msg 118 153 210;
#X msg 148 152 150;
#X msg 202 151 90;
#X msg 171 99 100;
#X msg 574 156 120;
#X msg 339 98 140;
#X msg 630 157 220;
#X msg 685 158 320;
#X msg 742 156 220;
#X msg 35 152 320;
#X msg 90 152 280;
#X msg 175 151 220;
#X msg 199 99 220;
#X msg 253 99 360;
#X msg 366 98 220;
#X msg 429 103 250;
#X msg 484 103 320;
#X msg 542 103 420;
#X msg 596 102 250;
#X msg 602 157 270;
#X msg 657 157 370;
#X msg 715 157 470;
#X msg 771 156 370;
#X msg 799 125 190;
#X msg 854 125 210;
#X msg 911 126 410;
#X msg 965 124 490;
#X msg 771 124 280;
#X msg 827 125 300;
#X msg 882 126 320;
#X msg 939 124 200;
#X msg 7 152 190;
#X msg 226 99 140;
#X msg 282 100 280;
#X msg 312 99 360;
#X msg 401 104 410;
#X msg 457 103 590;
#X msg 512 103 660;
#X msg 569 102 490;
#X connect 0 0 1 1;
#X connect 1 0 3 0;
#X connect 2 0 5 0;
#X connect 3 0 4 1;
#X connect 4 0 34 0;
#X connect 4 0 34 1;
#X connect 5 0 4 0;
#X connect 6 0 0 0;
#X connect 8 0 12 0;
#X connect 8 0 6 0;
#X connect 9 0 2 0;
#X connect 12 0 18 0;
#X connect 13 0 14 0;
#X connect 14 0 19 0;
#X connect 15 0 13 0;
#X connect 16 0 53 0;
#X connect 16 0 54 0;
#X connect 16 0 59 0;
#X connect 16 0 74 0;
#X connect 16 0 95 0;
#X connect 17 0 53 0;
#X connect 17 0 54 0;
#X connect 17 0 59 0;
#X connect 17 0 74 0;
#X connect 17 0 95 0;
#X connect 18 0 141 0;
#X connect 18 1 119 0;
#X connect 18 2 109 0;
#X connect 18 3 120 0;
#X connect 18 4 110 0;
#X connect 18 5 111 0;
#X connect 18 6 121 0;
#X connect 18 7 112 0;
#X connect 19 0 8 0;
#X connect 20 0 53 1;
#X connect 20 0 54 1;
#X connect 20 0 74 1;
#X connect 20 0 59 1;
#X connect 20 0 95 1;
#X connect 22 0 33 0;
#X connect 23 0 33 0;
#X connect 24 0 22 0;
#X connect 25 0 23 0;
#X connect 26 0 29 0;
#X connect 27 0 30 0;
#X connect 28 0 31 0;
#X connect 29 0 33 0;
#X connect 30 0 33 0;
#X connect 31 0 33 0;
#X connect 34 0 36 0;
#X connect 34 1 36 0;
#X connect 35 0 34 0;
#X connect 36 0 88 0;
#X connect 37 0 45 0;
#X connect 37 0 43 0;
#X connect 38 0 66 0;
#X connect 38 0 64 0;
#X connect 39 0 40 1;
#X connect 40 0 48 0;
#X connect 41 0 47 0;
#X connect 42 0 34 0;
#X connect 42 0 34 1;
#X connect 43 0 39 0;
#X connect 44 0 41 0;
#X connect 45 0 46 0;
#X connect 46 0 113 0;
#X connect 46 1 122 0;
#X connect 46 2 142 0;
#X connect 46 3 123 0;
#X connect 46 4 143 0;
#X connect 46 5 144 0;
#X connect 46 6 115 0;
#X connect 46 7 124 0;
#X connect 47 0 42 0;
#X connect 48 0 42 1;
#X connect 49 0 50 0;
#X connect 50 0 52 0;
#X connect 51 0 49 0;
#X connect 51 0 87 1;
#X connect 52 0 37 0;
#X connect 53 0 15 0;
#X connect 54 0 51 0;
#X connect 55 0 56 0;
#X connect 56 0 58 0;
#X connect 57 0 55 0;
#X connect 58 0 38 0;
#X connect 59 0 57 0;
#X connect 60 0 61 1;
#X connect 61 0 69 0;
#X connect 62 0 68 0;
#X connect 63 0 34 0;
#X connect 63 0 34 1;
#X connect 64 0 60 0;
#X connect 65 0 62 0;
#X connect 66 0 67 0;
#X connect 67 0 145 0;
#X connect 67 1 125 0;
#X connect 67 2 146 0;
#X connect 67 3 126 0;
#X connect 67 4 147 0;
#X connect 67 5 127 0;
#X connect 67 6 148 0;
#X connect 67 7 128 0;
#X connect 68 0 63 0;
#X connect 69 0 63 1;
#X connect 70 0 71 0;
#X connect 71 0 73 0;
#X connect 72 0 70 0;
#X connect 72 0 105 1;
#X connect 73 0 75 0;
#X connect 74 0 72 0;
#X connect 75 0 82 0;
#X connect 75 0 80 0;
#X connect 76 0 77 1;
#X connect 77 0 85 0;
#X connect 78 0 84 0;
#X connect 79 0 34 0;
#X connect 79 0 34 1;
#X connect 80 0 76 0;
#X connect 81 0 78 0;
#X connect 82 0 83 0;
#X connect 83 0 114 0;
#X connect 83 1 129 0;
#X connect 83 2 116 0;
#X connect 83 3 130 0;
#X connect 83 4 117 0;
#X connect 83 5 131 0;
#X connect 83 6 118 0;
#X connect 83 7 132 0;
#X connect 84 0 79 0;
#X connect 85 0 79 1;
#X connect 86 0 40 0;
#X connect 86 0 41 1;
#X connect 87 0 41 1;
#X connect 87 0 40 0;
#X connect 89 0 62 1;
#X connect 89 0 61 0;
#X connect 90 0 1 0;
#X connect 90 0 2 1;
#X connect 91 0 92 0;
#X connect 92 0 94 0;
#X connect 93 0 91 0;
#X connect 94 0 96 0;
#X connect 95 0 93 0;
#X connect 96 0 97 0;
#X connect 96 0 102 0;
#X connect 97 0 104 0;
#X connect 98 0 99 1;
#X connect 99 0 107 0;
#X connect 100 0 106 0;
#X connect 101 0 34 0;
#X connect 101 0 34 1;
#X connect 102 0 98 0;
#X connect 103 0 100 0;
#X connect 104 0 137 0;
#X connect 104 1 133 0;
#X connect 104 2 138 0;
#X connect 104 3 134 0;
#X connect 104 4 139 0;
#X connect 104 5 135 0;
#X connect 104 6 140 0;
#X connect 104 7 136 0;
#X connect 105 0 99 0;
#X connect 105 0 100 1;
#X connect 106 0 101 0;
#X connect 107 0 101 1;
#X connect 108 0 77 0;
#X connect 108 0 78 1;
#X connect 109 0 9 0;
#X connect 109 0 90 0;
#X connect 110 0 9 0;
#X connect 110 0 90 0;
#X connect 111 0 9 0;
#X connect 111 0 90 0;
#X connect 112 0 9 0;
#X connect 112 0 90 0;
#X connect 113 0 44 0;
#X connect 113 0 86 0;
#X connect 113 0 87 0;
#X connect 114 0 81 0;
#X connect 114 0 108 0;
#X connect 115 0 44 0;
#X connect 115 0 86 0;
#X connect 115 0 87 0;
#X connect 116 0 81 0;
#X connect 116 0 108 0;
#X connect 117 0 81 0;
#X connect 117 0 108 0;
#X connect 118 0 81 0;
#X connect 118 0 108 0;
#X connect 119 0 9 0;
#X connect 119 0 90 0;
#X connect 120 0 9 0;
#X connect 120 0 90 0;
#X connect 121 0 9 0;
#X connect 121 0 90 0;
#X connect 122 0 44 0;
#X connect 122 0 86 0;
#X connect 122 0 87 0;
#X connect 123 0 44 0;
#X connect 123 0 86 0;
#X connect 123 0 87 0;
#X connect 124 0 44 0;
#X connect 124 0 86 0;
#X connect 124 0 87 0;
#X connect 125 0 65 0;
#X connect 125 0 89 0;
#X connect 126 0 65 0;
#X connect 126 0 89 0;
#X connect 127 0 65 0;
#X connect 127 0 89 0;
#X connect 128 0 65 0;
#X connect 128 0 89 0;
#X connect 129 0 81 0;
#X connect 129 0 108 0;
#X connect 130 0 81 0;
#X connect 130 0 108 0;
#X connect 131 0 81 0;
#X connect 131 0 108 0;
#X connect 132 0 81 0;
#X connect 132 0 108 0;
#X connect 133 0 103 0;
#X connect 133 0 105 0;
#X connect 134 0 103 0;
#X connect 134 0 105 0;
#X connect 135 0 103 0;
#X connect 135 0 105 0;
#X connect 136 0 103 0;
#X connect 136 0 105 0;
#X connect 137 0 103 0;
#X connect 137 0 105 0;
#X connect 138 0 103 0;
#X connect 138 0 105 0;
#X connect 139 0 103 0;
#X connect 139 0 105 0;
#X connect 140 0 103 0;
#X connect 140 0 105 0;
#X connect 141 0 9 0;
#X connect 141 0 90 0;
#X connect 142 0 44 0;
#X connect 142 0 86 0;
#X connect 142 0 87 0;
#X connect 143 0 44 0;
#X connect 143 0 86 0;
#X connect 143 0 87 0;
#X connect 144 0 44 0;
#X connect 144 0 86 0;
#X connect 144 0 87 0;
#X connect 145 0 65 0;
#X connect 145 0 89 0;
#X connect 146 0 65 0;
#X connect 146 0 89 0;
#X connect 147 0 65 0;
#X connect 147 0 89 0;
#X connect 148 0 65 0;
#X connect 148 0 89 0;
