#N canvas 0 0 1024 524 10;
#X obj 229 211 line~;
#X obj 160 249 *~;
#X obj 97 250 *~;
#X obj 159 285 lop~ 150;
#X obj 122 323 *~;
#X obj 96 285 lop~ 200;
#X msg 228 91 1 \, 0 180;
#X obj 178 419 dac~;
#X obj 43 31 knob 32 32 0 8 0 0 empty empty empty 0 -8 0 8 -262144
-1 -1 2712 1;
#X obj 38 211 osc~;
#X msg 782 -35 \; pd dsp 0;
#X msg 781 4 \; pd dsp 1;
#X obj 10 95 hradio 15 1 0 8 empty empty empty 0 -8 0 10 -262144 -1
-1 6;
#X obj 376 25 f;
#X obj 376 50 counter;
#X obj 376 6 bng 15 250 50 0 empty empty empty 17 7 0 10 -262144 -1
-1;
#X msg 422 -65 0;
#X msg 376 -65 1;
#X obj 42 115 sel 0 1 2 3 4 5 6 7;
#X obj 376 74 mod 9;
#X floatatom 495 -64 5 0 0 0 - - -;
#X obj 782 -59 loadbang;
#X msg 669 -33 roomsize \$1;
#X msg 670 10 damping \$1;
#X obj 672 -49 hsl 60 15 0 1 0 0 empty empty empty -2 -8 0 10 -262144
-1 -1 2900 1;
#X obj 673 -4 hsl 60 15 0 1 0 0 empty empty empty -2 -8 0 10 -262144
-1 -1 5900 1;
#X obj 674 31 hsl 60 15 0 1 0 0 empty empty empty -2 -8 0 10 -262144
-1 -1 1100 1;
#X obj 676 72 hsl 60 15 0 1 0 0 empty empty empty -2 -8 0 10 -262144
-1 -1 600 1;
#X obj 676 111 hsl 60 15 0 0.5 0 0 empty empty empty -2 -8 0 10 -262144
-1 -1 3300 1;
#X msg 671 47 width \$1;
#X msg 673 88 wet \$1;
#X msg 673 127 dry \$1;
#X text 667 -66 REVERB CNTRL;
#X obj 673 155 s thngy;
#X obj 123 356 freeverb~;
#X obj 56 339 r thngy;
#X obj 123 394 *~ 0.4;
#X obj 92 -8 knob 32 32 0 8 0 0 empty empty empty 0 -8 0 8 -262144
-1 -1 2712 1;
#X obj 155 -7 knob 32 32 0 8 0 0 empty empty empty 0 -8 0 8 -262144
-1 -1 2712 1;
#X obj 494 244 line~;
#X obj 405 281 *~;
#X obj 342 282 *~;
#X obj 364 338 *~;
#X msg 460 153 1 \, 0 180;
#X obj 283 243 osc~;
#X obj 287 128 hradio 15 1 0 8 empty empty empty 0 -8 0 10 -262144
-1 -1 6;
#X obj 287 151 sel 0 1 2 3 4 5 6 7;
#X obj 341 310 lop~ 180;
#X obj 404 309 lop~ 125;
#X obj 447 25 f;
#X obj 447 50 counter;
#X obj 447 6 bng 15 250 50 0 empty empty empty 17 7 0 10 -262144 -1
-1;
#X obj 447 74 mod 9;
#X obj 376 -16 metro 100;
#X obj 447 -17 metro 150;
#X obj 515 26 f;
#X obj 515 51 counter;
#X obj 515 7 bng 15 250 50 0 empty empty empty 17 7 0 10 -262144 -1
-1;
#X obj 515 75 mod 9;
#X obj 515 -12 metro 200;
#X obj 693 250 line~;
#X obj 658 291 *~;
#X obj 595 292 *~;
#X obj 616 339 *~;
#X msg 692 225 1 \, 0 180;
#X obj 536 253 osc~;
#X obj 540 139 hradio 15 1 0 8 empty empty empty 0 -8 0 10 -262144
-1 -1 6;
#X obj 540 161 sel 0 1 2 3 4 5 6 7;
#X obj 594 320 lop~ 210;
#X obj 657 319 lop~ 160;
#X obj 580 27 f;
#X obj 580 52 counter;
#X obj 580 8 bng 15 250 50 0 empty empty empty 17 7 0 10 -262144 -1
-1;
#X obj 580 76 mod 9;
#X obj 580 -15 metro 250;
#X obj 208 -46 knob 32 32 0 8 0 0 empty empty empty 0 -8 0 8 -262144
-1 -1 2712 1;
#X obj 953 231 line~;
#X obj 887 267 *~;
#X obj 824 268 *~;
#X obj 846 324 *~;
#X msg 942 139 1 \, 0 180;
#X obj 765 229 osc~;
#X obj 769 114 hradio 15 1 0 8 empty empty empty 0 -8 0 10 -262144
-1 -1 6;
#X obj 769 137 sel 0 1 2 3 4 5 6 7;
#X obj 823 296 lop~ 180;
#X obj 886 295 lop~ 125;
#X msg 790 170 182;
#X msg 845 171 242;
#X obj 335 241 ../WFormUnit/tri_wave;
#X obj 354 220 ../WFormUnit/sqr_alt_wave;
#X obj 53 419 s~ tThing;
#X obj 609 255 osc~;
#X obj 99 207 ../WFormUnit/tri_wave;
#X obj 820 229 ../WFormUnit/sqr_alt_wave;
#X msg 929 169 532;
#X msg 902 169 402;
#X msg 875 170 372;
#X msg 734 169 122;
#X msg 533 194 222;
#X msg 700 193 104;
#X msg 673 193 174;
#X msg 588 194 384;
#X msg 616 194 214;
#X msg 280 184 192;
#X msg 307 184 222;
#X msg 363 185 282;
#X msg 393 184 312;
#X msg 447 183 372;
#X msg 148 152 280;
#X msg 175 151 310;
#X msg 202 151 340;
#X msg 7 152 230;
#X msg 35 152 160;
#X msg 63 152 290;
#X msg 90 152 120;
#X msg 118 153 350;
#X msg 252 184 62;
#X msg 334 184 352;
#X msg 420 183 342;
#X msg 505 195 294;
#X msg 561 194 254;
#X msg 646 194 344;
#X msg 762 170 252;
#X msg 817 170 112;
#X obj 375 379 hsl 128 15 0 4 0 0 empty empty empty -2 -8 0 10 -262144
-1 -1 323 1;
#X floatatom 680 376 5 0 0 0 - - -;
#X obj 659 376 tgl 15 0 empty empty empty 17 7 0 10 -262144 -1 -1 1
1;
#X floatatom 511 377 5 -1 1 0 - - -;
#X floatatom 546 377 5 -1 1 0 - - -;
#X floatatom 581 377 5 -1 1 0 - - -;
#X floatatom 616 376 5 -1 1 0 - - -;
#X obj 722 376 hsl 128 15 0 1 0 0 empty empty empty -2 -8 0 10 -262144
-1 -1 12700 1;
#X obj 557 405 ../GEMUnit/gemParticles;
#X connect 0 0 1 1;
#X connect 1 0 3 0;
#X connect 2 0 5 0;
#X connect 3 0 4 1;
#X connect 4 0 34 0;
#X connect 4 0 34 1;
#X connect 5 0 4 0;
#X connect 6 0 0 0;
#X connect 8 0 12 0;
#X connect 8 0 6 0;
#X connect 9 0 2 0;
#X connect 12 0 18 0;
#X connect 12 0 130 0;
#X connect 13 0 14 0;
#X connect 14 0 19 0;
#X connect 15 0 13 0;
#X connect 16 0 53 0;
#X connect 16 0 54 0;
#X connect 16 0 59 0;
#X connect 16 0 74 0;
#X connect 17 0 53 0;
#X connect 17 0 54 0;
#X connect 17 0 59 0;
#X connect 17 0 74 0;
#X connect 18 0 111 0;
#X connect 18 1 112 0;
#X connect 18 2 113 0;
#X connect 18 3 114 0;
#X connect 18 4 115 0;
#X connect 18 5 108 0;
#X connect 18 6 109 0;
#X connect 18 7 110 0;
#X connect 19 0 8 0;
#X connect 20 0 53 1;
#X connect 20 0 54 1;
#X connect 20 0 74 1;
#X connect 20 0 59 1;
#X connect 22 0 33 0;
#X connect 23 0 33 0;
#X connect 24 0 22 0;
#X connect 25 0 23 0;
#X connect 26 0 29 0;
#X connect 27 0 30 0;
#X connect 27 0 124 0;
#X connect 28 0 31 0;
#X connect 29 0 33 0;
#X connect 30 0 33 0;
#X connect 31 0 33 0;
#X connect 34 0 36 0;
#X connect 34 1 36 0;
#X connect 35 0 34 0;
#X connect 36 0 90 0;
#X connect 37 0 45 0;
#X connect 37 0 43 0;
#X connect 38 0 66 0;
#X connect 38 0 64 0;
#X connect 39 0 40 1;
#X connect 40 0 48 0;
#X connect 41 0 47 0;
#X connect 42 0 34 0;
#X connect 42 0 34 1;
#X connect 43 0 39 0;
#X connect 44 0 41 0;
#X connect 45 0 46 0;
#X connect 45 0 127 0;
#X connect 46 0 116 0;
#X connect 46 1 103 0;
#X connect 46 2 104 0;
#X connect 46 3 117 0;
#X connect 46 4 105 0;
#X connect 46 5 106 0;
#X connect 46 6 118 0;
#X connect 46 7 107 0;
#X connect 47 0 42 0;
#X connect 48 0 42 1;
#X connect 49 0 50 0;
#X connect 50 0 52 0;
#X connect 51 0 49 0;
#X connect 51 0 89 1;
#X connect 52 0 37 0;
#X connect 53 0 15 0;
#X connect 54 0 51 0;
#X connect 55 0 56 0;
#X connect 56 0 58 0;
#X connect 57 0 55 0;
#X connect 58 0 38 0;
#X connect 59 0 57 0;
#X connect 60 0 61 1;
#X connect 61 0 69 0;
#X connect 62 0 68 0;
#X connect 63 0 34 0;
#X connect 63 0 34 1;
#X connect 64 0 60 0;
#X connect 65 0 62 0;
#X connect 66 0 67 0;
#X connect 66 0 128 0;
#X connect 67 0 119 0;
#X connect 67 1 98 0;
#X connect 67 2 120 0;
#X connect 67 3 101 0;
#X connect 67 4 102 0;
#X connect 67 5 121 0;
#X connect 67 6 100 0;
#X connect 67 7 99 0;
#X connect 68 0 63 0;
#X connect 69 0 63 1;
#X connect 70 0 71 0;
#X connect 71 0 73 0;
#X connect 72 0 70 0;
#X connect 73 0 75 0;
#X connect 74 0 72 0;
#X connect 75 0 82 0;
#X connect 75 0 80 0;
#X connect 76 0 77 1;
#X connect 77 0 85 0;
#X connect 78 0 84 0;
#X connect 79 0 34 0;
#X connect 79 0 34 1;
#X connect 80 0 76 0;
#X connect 81 0 78 0;
#X connect 82 0 83 0;
#X connect 82 0 131 0;
#X connect 83 0 97 0;
#X connect 83 1 122 0;
#X connect 83 2 86 0;
#X connect 83 3 123 0;
#X connect 83 4 87 0;
#X connect 83 5 96 0;
#X connect 83 6 95 0;
#X connect 83 7 94 0;
#X connect 84 0 79 0;
#X connect 85 0 79 1;
#X connect 86 0 81 0;
#X connect 86 0 93 0;
#X connect 87 0 81 0;
#X connect 87 0 93 0;
#X connect 88 0 40 0;
#X connect 88 0 41 1;
#X connect 89 0 41 1;
#X connect 89 0 40 0;
#X connect 91 0 62 1;
#X connect 91 0 61 0;
#X connect 92 0 1 0;
#X connect 92 0 2 1;
#X connect 93 0 77 0;
#X connect 93 0 78 1;
#X connect 94 0 81 0;
#X connect 94 0 93 0;
#X connect 95 0 81 0;
#X connect 95 0 93 0;
#X connect 96 0 81 0;
#X connect 96 0 93 0;
#X connect 97 0 81 0;
#X connect 97 0 93 0;
#X connect 98 0 65 0;
#X connect 98 0 91 0;
#X connect 99 0 65 0;
#X connect 99 0 91 0;
#X connect 100 0 65 0;
#X connect 100 0 91 0;
#X connect 101 0 65 0;
#X connect 101 0 91 0;
#X connect 102 0 65 0;
#X connect 102 0 91 0;
#X connect 103 0 44 0;
#X connect 103 0 88 0;
#X connect 103 0 89 0;
#X connect 104 0 44 0;
#X connect 104 0 88 0;
#X connect 104 0 89 0;
#X connect 105 0 44 0;
#X connect 105 0 88 0;
#X connect 105 0 89 0;
#X connect 106 0 44 0;
#X connect 106 0 88 0;
#X connect 106 0 89 0;
#X connect 107 0 44 0;
#X connect 107 0 88 0;
#X connect 107 0 89 0;
#X connect 108 0 9 0;
#X connect 108 0 92 0;
#X connect 109 0 9 0;
#X connect 109 0 92 0;
#X connect 110 0 9 0;
#X connect 110 0 92 0;
#X connect 111 0 9 0;
#X connect 111 0 92 0;
#X connect 112 0 9 0;
#X connect 112 0 92 0;
#X connect 113 0 9 0;
#X connect 113 0 92 0;
#X connect 114 0 9 0;
#X connect 114 0 92 0;
#X connect 115 0 9 0;
#X connect 115 0 92 0;
#X connect 116 0 44 0;
#X connect 116 0 88 0;
#X connect 116 0 89 0;
#X connect 117 0 44 0;
#X connect 117 0 88 0;
#X connect 117 0 89 0;
#X connect 118 0 44 0;
#X connect 118 0 88 0;
#X connect 118 0 89 0;
#X connect 119 0 65 0;
#X connect 119 0 91 0;
#X connect 120 0 65 0;
#X connect 120 0 91 0;
#X connect 121 0 65 0;
#X connect 121 0 91 0;
#X connect 122 0 81 0;
#X connect 122 0 93 0;
#X connect 123 0 81 0;
#X connect 123 0 93 0;
#X connect 124 0 132 0;
#X connect 125 0 132 6;
#X connect 126 0 132 5;
#X connect 127 0 132 1;
#X connect 128 0 132 2;
#X connect 129 0 132 3;
#X connect 130 0 132 4;
#X connect 131 0 132 7;
