#N canvas 227 148 718 355 10;
#X obj 26 169 knob 32 32 0 8 0 0 empty empty empty 0 -8 0 8 -262144
-1 -1 1162 1;
#X obj 97 168 knob 32 32 0 8 0 0 empty empty empty 0 -8 0 8 -262144
-1 -1 1937 1;
#X obj 165 168 knob 32 32 0 8 0 0 empty empty empty 0 -8 0 8 -262144
-1 -1 3100 1;
#X obj 230 169 knob 32 32 0 8 0 0 empty empty empty 0 -8 0 8 -262144
-1 -1 387 1;
#X obj 26 91 f;
#X obj 26 116 counter;
#X obj 26 72 bng 15 250 50 0 empty empty empty 17 7 0 10 -262144 -1
-1;
#X msg 72 1 0;
#X msg 26 1 1;
#X obj 26 140 mod 9;
#X floatatom 148 2 5 0 0 0 - - -;
#X obj 97 91 f;
#X obj 97 116 counter;
#X obj 97 72 bng 15 250 50 0 empty empty empty 17 7 0 10 -262144 -1
-1;
#X obj 97 140 mod 9;
#X obj 26 50 metro 100;
#X obj 97 49 metro 150;
#X obj 165 92 f;
#X obj 165 117 counter;
#X obj 165 73 bng 15 250 50 0 empty empty empty 17 7 0 10 -262144 -1
-1;
#X obj 165 141 mod 9;
#X obj 165 54 metro 200;
#X obj 230 93 f;
#X obj 230 118 counter;
#X obj 230 74 bng 15 250 50 0 empty empty empty 17 7 0 10 -262144 -1
-1;
#X obj 230 142 mod 9;
#X obj 230 51 metro 250;
#X msg 519 119 roomsize \$1;
#X msg 520 154 damping \$1;
#X obj 522 104 hsl 60 15 0 1 0 0 empty empty empty -2 -8 0 10 -262144
-1 -1 3400 1;
#X obj 523 139 hsl 60 15 0 1 0 0 empty empty empty -2 -8 0 10 -262144
-1 -1 5900 1;
#X obj 524 175 hsl 60 15 0 1 0 0 empty empty empty -2 -8 0 10 -262144
-1 -1 1966 1;
#X obj 524 212 hsl 60 15 0 1 0 0 empty empty empty -2 -8 0 10 -262144
-1 -1 2200 1;
#X obj 524 248 hsl 60 15 0 0.5 0 0 empty empty empty -2 -8 0 10 -262144
-1 -1 3100 1;
#X msg 521 191 width \$1;
#X msg 521 228 wet \$1;
#X text 517 87 REVERB CNTRL;
#X msg 26 272 \; pd dsp 0;
#X msg 25 305 \; pd dsp 1;
#X obj 26 252 loadbang;
#X obj 26 215 wvShape01;
#X obj 97 216 wvShape02;
#X obj 165 215 wvShape03;
#X obj 230 216 wvShape04;
#X obj 285 317 wvMixOut;
#X msg 521 264 dry \$1;
#X msg 229 2 0;
#X msg 197 2 1;
#X floatatom 259 2 5 0 0 0 - - -;
#X obj 298 50 metro;
#X obj 366 87 wvRevbMix;
#X obj 347 51 metro;
#X obj 398 50 metro;
#X obj 455 50 metro;
#X obj 510 50 metro;
#X msg 330 2 0;
#X msg 298 2 1;
#X floatatom 360 2 5 0 0 0 - - -;
#X msg 430 1 0;
#X msg 398 1 1;
#X floatatom 460 1 5 0 0 0 - - -;
#X msg 531 0 0;
#X msg 499 0 1;
#X floatatom 561 0 5 0 0 0 - - -;
#X msg 631 -1 0;
#X msg 599 -1 1;
#X floatatom 661 -1 5 0 0 0 - - -;
#X connect 0 0 40 0;
#X connect 1 0 41 0;
#X connect 2 0 42 0;
#X connect 3 0 43 0;
#X connect 4 0 5 0;
#X connect 5 0 9 0;
#X connect 6 0 4 0;
#X connect 7 0 15 0;
#X connect 7 0 16 0;
#X connect 7 0 21 0;
#X connect 7 0 26 0;
#X connect 8 0 15 0;
#X connect 8 0 16 0;
#X connect 8 0 21 0;
#X connect 8 0 26 0;
#X connect 9 0 0 0;
#X connect 10 0 15 1;
#X connect 10 0 16 1;
#X connect 10 0 26 1;
#X connect 10 0 21 1;
#X connect 11 0 12 0;
#X connect 12 0 14 0;
#X connect 13 0 11 0;
#X connect 14 0 1 0;
#X connect 15 0 6 0;
#X connect 16 0 13 0;
#X connect 17 0 18 0;
#X connect 18 0 20 0;
#X connect 19 0 17 0;
#X connect 20 0 2 0;
#X connect 21 0 19 0;
#X connect 22 0 23 0;
#X connect 23 0 25 0;
#X connect 24 0 22 0;
#X connect 25 0 3 0;
#X connect 26 0 24 0;
#X connect 27 0 44 0;
#X connect 28 0 44 0;
#X connect 29 0 27 0;
#X connect 30 0 28 0;
#X connect 31 0 34 0;
#X connect 32 0 35 0;
#X connect 33 0 45 0;
#X connect 34 0 44 0;
#X connect 35 0 44 0;
#X connect 40 0 44 1;
#X connect 41 0 44 1;
#X connect 42 0 44 1;
#X connect 43 0 44 1;
#X connect 45 0 44 0;
#X connect 46 0 49 0;
#X connect 47 0 49 0;
#X connect 48 0 49 1;
#X connect 49 0 50 0;
#X connect 50 0 33 0;
#X connect 50 1 32 0;
#X connect 50 2 31 0;
#X connect 50 3 30 0;
#X connect 50 4 29 0;
#X connect 51 0 50 1;
#X connect 52 0 50 2;
#X connect 53 0 50 3;
#X connect 54 0 50 4;
#X connect 55 0 51 0;
#X connect 56 0 51 0;
#X connect 57 0 51 1;
#X connect 58 0 52 0;
#X connect 59 0 52 0;
#X connect 60 0 52 1;
#X connect 61 0 53 0;
#X connect 62 0 53 0;
#X connect 63 0 53 1;
#X connect 64 0 54 0;
#X connect 65 0 54 0;
#X connect 66 0 54 1;
