#N canvas 147 111 300 253 10;
#X obj 95 183 dac~;
#X obj 95 97 freeverb~;
#X obj 95 135 *~ 0.4;
#X obj 95 44 inlet~;
#X obj 31 43 inlet;
#X connect 1 0 2 0;
#X connect 1 1 2 0;
#X connect 2 0 0 0;
#X connect 2 0 0 1;
#X connect 3 0 1 0;
#X connect 3 0 1 1;
#X connect 4 0 1 0;
