#N canvas 286 153 450 316 10;
#X obj 228 162 line~;
#X obj 176 199 *~;
#X obj 101 200 *~;
#X obj 132 259 *~;
#X msg 228 49 1 \, 0 180;
#X obj 42 161 osc~;
#X obj 46 47 hradio 15 1 0 8 empty empty empty 0 -8 0 10 -262144 -1
-1 0;
#X obj 46 69 sel 0 1 2 3 4 5 6 7;
#X msg 11 102 94;
#X msg 67 102 154;
#X msg 94 102 184;
#X msg 122 104 214;
#X msg 152 102 244;
#X msg 179 101 274;
#X msg 206 101 304;
#X obj 100 228 lop~ 210;
#X obj 175 227 lop~ 160;
#X obj 138 161 phasor~;
#X msg 39 102 122;
#X obj 46 13 inlet;
#X obj 133 292 outlet~;
#X connect 0 0 1 1;
#X connect 1 0 16 0;
#X connect 2 0 15 0;
#X connect 3 0 20 0;
#X connect 4 0 0 0;
#X connect 5 0 2 0;
#X connect 6 0 7 0;
#X connect 7 0 8 0;
#X connect 7 1 18 0;
#X connect 7 2 9 0;
#X connect 7 3 10 0;
#X connect 7 4 11 0;
#X connect 7 5 12 0;
#X connect 7 6 13 0;
#X connect 7 7 14 0;
#X connect 8 0 5 0;
#X connect 8 0 17 0;
#X connect 9 0 5 0;
#X connect 9 0 17 0;
#X connect 10 0 5 0;
#X connect 10 0 17 0;
#X connect 11 0 5 0;
#X connect 11 0 17 0;
#X connect 12 0 5 0;
#X connect 12 0 17 0;
#X connect 13 0 5 0;
#X connect 13 0 17 0;
#X connect 14 0 5 0;
#X connect 14 0 17 0;
#X connect 15 0 3 0;
#X connect 16 0 3 1;
#X connect 17 0 1 0;
#X connect 17 0 2 1;
#X connect 18 0 5 0;
#X connect 18 0 17 0;
#X connect 19 0 6 0;
#X connect 19 0 4 0;
