#N canvas 127 63 452 379 10;
#X obj -1537 208 line~;
#X obj -1603 244 *~;
#X obj -1685 244 *~;
#X obj -1649 307 *~;
#X msg -1537 94 1 \, 0 180;
#X obj -1725 206 osc~;
#X obj -1721 91 hradio 15 1 0 8 empty empty empty 0 -8 0 10 -262144
-1 -1 0;
#X obj -1721 114 sel 0 1 2 3 4 5 6 7;
#X obj -1686 272 lop~ 180;
#X obj -1604 272 lop~ 125;
#X msg -1756 146 122;
#X msg -1728 147 152;
#X msg -1700 147 182;
#X msg -1673 147 212;
#X msg -1645 148 242;
#X msg -1615 147 272;
#X msg -1588 146 302;
#X msg -1561 146 332;
#X obj -1721 29 inlet;
#X obj -1649 341 outlet~;
#X obj -1671 208 ../WFormUnit/tri_wave;
#X connect 0 0 1 1;
#X connect 1 0 9 0;
#X connect 2 0 8 0;
#X connect 3 0 19 0;
#X connect 4 0 0 0;
#X connect 5 0 2 0;
#X connect 6 0 7 0;
#X connect 7 0 10 0;
#X connect 7 1 11 0;
#X connect 7 2 12 0;
#X connect 7 3 13 0;
#X connect 7 4 14 0;
#X connect 7 5 15 0;
#X connect 7 6 16 0;
#X connect 7 7 17 0;
#X connect 8 0 3 0;
#X connect 9 0 3 1;
#X connect 10 0 5 0;
#X connect 10 0 20 0;
#X connect 11 0 5 0;
#X connect 11 0 20 0;
#X connect 12 0 5 0;
#X connect 12 0 20 0;
#X connect 13 0 5 0;
#X connect 13 0 20 0;
#X connect 14 0 5 0;
#X connect 14 0 20 0;
#X connect 15 0 5 0;
#X connect 15 0 20 0;
#X connect 16 0 5 0;
#X connect 16 0 20 0;
#X connect 17 0 5 0;
#X connect 17 0 20 0;
#X connect 18 0 6 0;
#X connect 18 0 4 0;
#X connect 20 0 1 0;
#X connect 20 0 2 1;
