#N canvas 36 98 392 402 10;
#X obj 239 221 line~;
#X obj 170 259 *~;
#X obj 107 260 *~;
#X obj 169 295 lop~ 150;
#X obj 132 333 *~;
#X obj 106 295 lop~ 200;
#X msg 238 101 1 \, 0 180;
#X obj 183 221 phasor~;
#X obj 48 221 osc~;
#X obj 52 90 hradio 15 1 0 8 empty empty empty 0 -8 0 10 -262144 -1
-1 0;
#X obj 52 125 sel 0 1 2 3 4 5 6 7;
#X msg 17 162 30;
#X msg 45 162 60;
#X msg 73 162 90;
#X msg 100 162 120;
#X msg 128 163 150;
#X msg 158 162 180;
#X msg 185 161 210;
#X msg 212 161 240;
#X obj 52 31 inlet;
#X obj 132 376 outlet~;
#X connect 0 0 1 1;
#X connect 1 0 3 0;
#X connect 2 0 5 0;
#X connect 3 0 4 1;
#X connect 4 0 20 0;
#X connect 5 0 4 0;
#X connect 6 0 0 0;
#X connect 7 0 1 0;
#X connect 7 0 2 1;
#X connect 8 0 2 0;
#X connect 9 0 10 0;
#X connect 10 0 11 0;
#X connect 10 1 12 0;
#X connect 10 2 13 0;
#X connect 10 3 14 0;
#X connect 10 4 15 0;
#X connect 10 5 16 0;
#X connect 10 6 17 0;
#X connect 10 7 18 0;
#X connect 11 0 8 0;
#X connect 11 0 7 0;
#X connect 12 0 7 0;
#X connect 12 0 8 0;
#X connect 13 0 8 0;
#X connect 13 0 7 0;
#X connect 14 0 7 0;
#X connect 14 0 8 0;
#X connect 15 0 8 0;
#X connect 15 0 7 0;
#X connect 16 0 7 0;
#X connect 16 0 8 0;
#X connect 17 0 8 0;
#X connect 17 0 7 0;
#X connect 18 0 7 0;
#X connect 18 0 8 0;
#X connect 19 0 9 0;
#X connect 19 0 6 0;
