#N canvas 0 0 450 390 10;
#X obj 295 196 line~;
#X obj 206 233 *~;
#X obj 139 234 *~;
#X obj 163 297 *~;
#X msg 295 80 1 \, 0 180;
#X obj 84 195 osc~;
#X obj 88 80 hradio 15 1 0 8 empty empty empty 0 -8 0 10 -262144 -1
-1 0;
#X obj 88 103 sel 0 1 2 3 4 5 6 7;
#X msg 53 136 62;
#X msg 81 136 92;
#X msg 109 136 122;
#X msg 136 136 152;
#X msg 164 137 182;
#X msg 194 136 212;
#X msg 221 135 242;
#X msg 248 135 272;
#X obj 138 262 lop~ 180;
#X obj 205 261 lop~ 125;
#X obj 88 18 inlet;
#X obj 162 338 outlet~;
#X obj 154 195 ../WFormUnit/tri_wave;
#X connect 0 0 1 1;
#X connect 1 0 17 0;
#X connect 2 0 16 0;
#X connect 3 0 19 0;
#X connect 4 0 0 0;
#X connect 5 0 2 0;
#X connect 6 0 7 0;
#X connect 7 0 8 0;
#X connect 7 1 9 0;
#X connect 7 2 10 0;
#X connect 7 3 11 0;
#X connect 7 4 12 0;
#X connect 7 5 13 0;
#X connect 7 6 14 0;
#X connect 7 7 15 0;
#X connect 8 0 5 0;
#X connect 8 0 20 0;
#X connect 9 0 5 0;
#X connect 9 0 20 0;
#X connect 10 0 5 0;
#X connect 10 0 20 0;
#X connect 11 0 5 0;
#X connect 11 0 20 0;
#X connect 12 0 5 0;
#X connect 12 0 20 0;
#X connect 13 0 5 0;
#X connect 13 0 20 0;
#X connect 14 0 5 0;
#X connect 14 0 20 0;
#X connect 15 0 5 0;
#X connect 15 0 20 0;
#X connect 16 0 3 0;
#X connect 17 0 3 1;
#X connect 18 0 6 0;
#X connect 18 0 4 0;
#X connect 20 0 1 0;
#X connect 20 0 2 1;
