#N canvas 64 7 682 465 10;
#N canvas 0 0 450 300 (subpatch) 0;
#X array bd 680597 float 2;
#X coords 0 1 680597 -1 160 100 1 0 0;
#X restore 485 -12 graph;
#X obj 23 50 soundfiler;
#X obj 23 177 phasor~;
#X obj 113 318 samphold~;
#X floatatom 22 211 5 0 0 0 - - -;
#X obj 23 274 *~ 256;
#X obj 23 303 +~;
#X obj 22 241 phasor~;
#X floatatom 23 82 5 0 0 0 - - -;
#X obj 112 195 *~;
#X obj 135 177 osc~;
#X obj 130 275 samphold~;
#X obj 170 194 *~;
#X obj 121 227 osc~;
#X obj 23 332 delay~ 100;
#N canvas 0 0 450 300 (subpatch) 0;
#X array sn 680597 float 2;
#X coords 0 1 680597 -1 160 100 1 0 0;
#X restore 485 103 graph;
#X obj 94 83 soundfiler;
#X floatatom 94 114 5 0 0 0 - - -;
#X obj 23 140 expr 44100 / $f1;
#X obj 135 130 expr 44100 / $f1;
#X obj 24 367 tabread4~ bd;
#X obj 108 367 tabread4~ sn;
#X obj 160 108 soundfiler;
#X obj 199 193 phasor~;
#X floatatom 261 125 5 0 0 0 - - -;
#X obj 199 159 expr 44100 / $f1;
#X obj 236 313 samphold~;
#X obj 236 227 *~;
#X floatatom 189 227 5 0 0 0 - - -;
#X obj 190 294 *~ 256;
#X obj 191 326 +~;
#X obj 188 255 phasor~;
#X obj 192 366 tabread4~ mc;
#N canvas 0 0 450 300 (subpatch) 0;
#X array mc 756197 float 2;
#X coords 0 1 756197 -1 160 100 1 0 0;
#X restore 485 216 graph;
#X obj 302 118 soundfiler;
#X obj 303 213 phasor~;
#X floatatom 365 145 5 0 0 0 - - -;
#X obj 303 179 expr 44100 / $f1;
#X obj 350 326 samphold~;
#X obj 350 247 *~;
#X obj 296 266 phasor~;
#X obj 298 369 delay~ 100;
#X floatatom 271 237 5 0 0 0 - - -;
#X obj 297 302 *~ 256;
#X obj 297 339 +~;
#X obj 299 399 tabread4~ chh;
#N canvas 0 0 450 300 (subpatch) 0;
#X array chh 756197 float 2;
#X coords 0 1 756197 -1 160 100 1 0 0;
#X restore 485 329 graph;
#X obj 34 412 dac~;
#X msg 94 39 read -resize C:/Joseph/MoonbowRemixPack/snares.wav sn
;
#X msg 207 87 read -resize C:/Joseph/MoonbowRemixPack/melody.wav chh
;
#X msg 160 64 read -resize C:/Joseph/MoonbowRemixPack/lead3.wav mc
;
#X msg 23 13 read -resize C:/Joseph/MoonbowRemixPack/kick.wav bd;
#X obj 119 416 s~ smpls;
#X connect 1 0 8 0;
#X connect 2 0 9 0;
#X connect 3 0 6 1;
#X connect 4 0 7 0;
#X connect 4 0 13 0;
#X connect 5 0 6 0;
#X connect 6 0 14 0;
#X connect 7 0 5 0;
#X connect 7 0 3 1;
#X connect 8 0 9 1;
#X connect 8 0 12 1;
#X connect 8 0 18 0;
#X connect 9 0 3 0;
#X connect 10 0 12 0;
#X connect 12 0 11 0;
#X connect 13 0 5 0;
#X connect 13 0 11 1;
#X connect 14 0 20 0;
#X connect 14 0 21 0;
#X connect 16 0 17 0;
#X connect 17 0 19 0;
#X connect 18 0 2 0;
#X connect 18 0 10 0;
#X connect 19 0 2 0;
#X connect 19 0 10 0;
#X connect 20 0 52 0;
#X connect 21 0 52 0;
#X connect 22 0 24 0;
#X connect 23 0 27 0;
#X connect 24 0 25 0;
#X connect 24 0 27 1;
#X connect 25 0 23 0;
#X connect 26 0 30 1;
#X connect 27 0 26 0;
#X connect 28 0 31 0;
#X connect 29 0 30 0;
#X connect 30 0 32 0;
#X connect 31 0 29 0;
#X connect 31 0 26 1;
#X connect 32 0 52 0;
#X connect 34 0 36 0;
#X connect 35 0 39 0;
#X connect 36 0 37 0;
#X connect 36 0 39 1;
#X connect 37 0 35 0;
#X connect 38 0 44 1;
#X connect 39 0 38 0;
#X connect 40 0 38 1;
#X connect 40 0 43 0;
#X connect 41 0 45 0;
#X connect 42 0 40 0;
#X connect 43 0 44 0;
#X connect 44 0 41 0;
#X connect 45 0 52 0;
#X connect 48 0 16 0;
#X connect 49 0 34 0;
#X connect 50 0 22 0;
#X connect 51 0 1 0;
