#N canvas 64 7 887 509 10;
#N canvas 0 0 450 300 (subpatch) 0;
#X array bd 302597 float 2;
#X coords 0 1 302597 -1 160 100 1 0 0;
#X restore 638 -2 graph;
#X obj 23 50 soundfiler;
#X obj 23 177 phasor~;
#X obj 113 307 samphold~;
#X floatatom 22 211 5 0 0 0 - - -;
#X obj 23 274 *~ 256;
#X obj 23 303 +~;
#X obj 22 241 phasor~;
#X floatatom 23 82 5 0 0 0 - - -;
#X obj 112 195 *~;
#X obj 135 177 osc~;
#X obj 130 275 samphold~;
#X obj 170 194 *~;
#X obj 121 227 osc~;
#X obj 23 353 delay~ 100;
#N canvas 0 0 450 300 (subpatch) 0;
#X array sn 302597 float 2;
#X coords 0 1 302597 -1 160 100 1 0 0;
#X restore 638 113 graph;
#X obj 94 83 soundfiler;
#X floatatom 94 114 5 0 0 0 - - -;
#X obj 23 140 expr 44100 / $f1;
#X obj 135 130 expr 44100 / $f1;
#X obj 24 388 tabread4~ bd;
#X obj 108 388 tabread4~ sn;
#X obj 160 108 soundfiler;
#X obj 199 193 phasor~;
#X floatatom 261 125 5 0 0 0 - - -;
#X obj 199 159 expr 44100 / $f1;
#X obj 236 313 samphold~;
#X obj 236 227 *~;
#X floatatom 188 227 5 0 0 0 - - -;
#X obj 190 294 *~ 256;
#X obj 191 329 +~;
#X obj 188 255 phasor~;
#X obj 192 387 tabread4~ mc;
#N canvas 0 0 450 300 (subpatch) 0;
#X array mc 151397 float 2;
#X coords 0 1 151397 -1 160 100 1 0 0;
#X restore 638 226 graph;
#X obj 302 118 soundfiler;
#X obj 303 213 phasor~;
#X floatatom 365 145 5 0 0 0 - - -;
#X obj 303 179 expr 44100 / $f1;
#X obj 350 314 samphold~;
#X obj 350 247 *~;
#X obj 296 266 phasor~;
#X obj 297 390 delay~ 100;
#X floatatom 271 237 5 0 0 0 - - -;
#X obj 297 302 *~ 256;
#X obj 297 330 +~;
#X obj 298 418 tabread4~ chh;
#N canvas 0 0 450 300 (subpatch) 0;
#X array chh 151397 float 2;
#X coords 0 1 151397 -1 160 100 1 0 0;
#X restore 638 339 graph;
#X obj 11 451 dac~;
#X obj 153 452 s~ smpls;
#X obj 551 4 vsl 15 128 0 256 0 0 empty empty empty 0 -9 0 10 -262144
-1 -1 500 1;
#X obj 23 330 *~ 0.3;
#X obj 578 3 vsl 15 128 0 1 0 0 empty empty empty 0 -9 0 10 -262144
-1 -1 8700 1;
#X obj 601 3 vsl 15 128 0 1 0 0 empty empty empty 0 -9 0 10 -262144
-1 -1 800 1;
#X obj 58 420 *~ 0.2;
#X msg 94 39 read -resize C:/Joseph/HIsTWayRemix/pad.wav sn;
#X obj 549 163 vsl 15 128 0 256 0 0 empty empty empty 0 -9 0 10 -262144
-1 -1 10700 1;
#X obj 576 161 vsl 15 128 0 1 0 0 empty empty empty 0 -9 0 10 -262144
-1 -1 1000 1;
#X obj 599 162 vsl 15 128 0 1 0 0 empty empty empty 0 -9 0 10 -262144
-1 -1 2600 1;
#X obj 549 306 vsl 15 128 0 256 0 0 empty empty empty 0 -9 0 10 -262144
-1 -1 8000 1;
#X obj 576 305 vsl 15 128 0 1 0 0 empty empty empty 0 -9 0 10 -262144
-1 -1 1600 1;
#X obj 599 305 vsl 15 128 0 1 0 0 empty empty empty 0 -9 0 10 -262144
-1 -1 3400 1;
#X obj 192 360 *~ 0.3;
#X obj 108 411 *~ 0.2;
#X obj 192 411 *~ 0.2;
#X obj 231 436 *~ 0.2;
#X obj 296 358 *~ 0.3;
#X msg 160 64 read -resize C:/Joseph/HIsTWayRemix/drum.wav mc;
#X msg 24 13 read -resize C:/Joseph/HIsTWayRemix/pad2.wav bd;
#X msg 212 86 read -resize C:/Joseph/HIsTWayRemix/hit.wav chh;
#X connect 1 0 8 0;
#X connect 2 0 9 0;
#X connect 3 0 6 1;
#X connect 4 0 7 0;
#X connect 4 0 13 0;
#X connect 5 0 6 0;
#X connect 6 0 50 0;
#X connect 7 0 5 0;
#X connect 7 0 3 1;
#X connect 8 0 9 1;
#X connect 8 0 12 1;
#X connect 8 0 18 0;
#X connect 9 0 3 0;
#X connect 10 0 12 0;
#X connect 12 0 11 0;
#X connect 13 0 5 0;
#X connect 13 0 11 1;
#X connect 14 0 20 0;
#X connect 14 0 21 0;
#X connect 16 0 17 0;
#X connect 17 0 19 0;
#X connect 18 0 2 0;
#X connect 18 0 10 0;
#X connect 19 0 2 0;
#X connect 19 0 10 0;
#X connect 20 0 53 0;
#X connect 21 0 62 0;
#X connect 22 0 24 0;
#X connect 23 0 27 0;
#X connect 24 0 25 0;
#X connect 24 0 27 1;
#X connect 25 0 23 0;
#X connect 26 0 30 1;
#X connect 27 0 26 0;
#X connect 28 0 31 0;
#X connect 29 0 30 0;
#X connect 30 0 61 0;
#X connect 31 0 29 0;
#X connect 31 0 26 1;
#X connect 32 0 63 0;
#X connect 34 0 36 0;
#X connect 35 0 39 0;
#X connect 36 0 37 0;
#X connect 36 0 39 1;
#X connect 37 0 35 0;
#X connect 38 0 44 1;
#X connect 39 0 38 0;
#X connect 40 0 38 1;
#X connect 40 0 43 0;
#X connect 41 0 45 0;
#X connect 42 0 40 0;
#X connect 43 0 44 0;
#X connect 44 0 65 0;
#X connect 45 0 64 0;
#X connect 49 0 5 1;
#X connect 50 0 14 0;
#X connect 51 0 50 1;
#X connect 52 0 53 1;
#X connect 53 0 48 0;
#X connect 54 0 16 0;
#X connect 55 0 29 1;
#X connect 56 0 61 1;
#X connect 57 0 63 1;
#X connect 58 0 43 1;
#X connect 59 0 65 1;
#X connect 60 0 64 1;
#X connect 61 0 32 0;
#X connect 62 0 48 0;
#X connect 63 0 48 0;
#X connect 64 0 48 0;
#X connect 65 0 41 0;
#X connect 66 0 22 0;
#X connect 67 0 1 0;
#X connect 68 0 34 0;
