#N canvas 216 98 743 361 10;
#N canvas 107 134 274 190 set_tempo 0;
#X obj 50 77 ../tempo;
#X obj 50 95 hradio 10 1 0 16 empty empty empty 0 -8 0 10 -262144 -1
-1 9;
#X obj 50 142 outlet;
#X obj 32 31 inlet;
#X obj 82 31 inlet;
#X obj 131 31 inlet;
#X connect 0 0 1 0;
#X connect 1 0 2 0;
#X connect 3 0 0 0;
#X connect 4 0 0 1;
#X connect 5 0 0 2;
#X restore 14 85 pd set_tempo;
#X obj 41 8 knob 31 31 177 50 0 0 tBsS tBsSyS empty 0 -8 0 8 -262144
-1 -1 1800 1;
#X obj 41 45 tgl 15 0 oBsS empty empty 17 7 0 10 -262144 -1 -1 1 1
;
#X obj 57 45 hradio 15 1 0 4 sBsS empty empty 0 -8 0 10 -262144 -1
-1 0;
#X text 36 -12 TEMPO;
#X floatatom 86 23 5 0 0 0 - tBsS -;
#X obj 14 68 r oBsS;
#X obj 54 68 r tBsS;
#X obj 94 68 r sBsS;
#X obj 14 103 s synseq;
#X obj 166 3 hsl 128 15 150 1000 0 0 empty empty empty -2 -8 0 10 -262144
-1 -1 0 1;
#X obj 163 29 voiceOne;
#X obj 162 143 s~ syUnitOne;
#X obj 307 3 hsl 128 15 150 1000 0 0 empty empty empty -2 -8 0 10 -262144
-1 -1 400 1;
#X obj 305 141 s~ syUnitTwo;
#X obj 304 28 voiceTwo;
#X obj 166 169 hsl 128 15 150 1000 0 0 empty empty empty -2 -8 0 10
-262144 -1 -1 0 1;
#X obj 163 195 voiceThree;
#X obj 162 308 s~ syUnitThree;
#X obj 306 169 hsl 128 15 150 1000 0 0 empty empty empty -2 -8 0 10
-262144 -1 -1 0 1;
#X obj 303 195 voiceFour;
#X obj 302 308 s~ syUnitFour;
#X obj 491 54 line~;
#X obj 491 -15 knob 32 32 0 32 0 0 empty empty empty 0 -8 0 8 -262144
-1 -1 0 1;
#X msg 491 25 \$0 1;
#X obj 305 61 +~;
#X obj 303 228 +~;
#X obj 162 228 +~;
#X obj 163 64 +~;
#X obj 163 88 *~ 0.2;
#X obj 302 253 *~ 0.2;
#X obj 162 256 *~ 0.2;
#X obj 304 82 *~ 0.2;
#X obj 566 6 vsl 15 128 0 0.5 0 0 empty empty empty 0 -9 0 10 -262144
-1 -1 3600 1;
#X connect 0 0 9 0;
#X connect 6 0 0 0;
#X connect 7 0 0 1;
#X connect 8 0 0 2;
#X connect 10 0 11 1;
#X connect 10 0 11 0;
#X connect 11 0 28 0;
#X connect 13 0 15 1;
#X connect 13 0 15 0;
#X connect 15 0 25 0;
#X connect 16 0 17 1;
#X connect 16 0 17 0;
#X connect 17 0 27 0;
#X connect 19 0 20 1;
#X connect 19 0 20 0;
#X connect 20 0 26 0;
#X connect 22 0 25 1;
#X connect 22 0 26 1;
#X connect 22 0 27 1;
#X connect 22 0 28 1;
#X connect 23 0 24 0;
#X connect 24 0 22 0;
#X connect 25 0 32 0;
#X connect 26 0 30 0;
#X connect 27 0 31 0;
#X connect 28 0 29 0;
#X connect 29 0 12 0;
#X connect 30 0 21 0;
#X connect 31 0 18 0;
#X connect 32 0 14 0;
#X connect 33 0 32 1;
#X connect 33 0 30 1;
#X connect 33 0 29 1;
#X connect 33 0 31 1;
