#N canvas 0 343 810 110 10;
#X obj 18 45 hradio 15 1 0 2 empty empty empty 0 -8 0 10 -262144 -1
-1 0;
#X text 14 13 SOUND OUTPUT DEVICE;
#N canvas 507 193 266 176 sndONOFF 0;
#X text 28 6 OFF;
#X text 103 5 ON;
#X obj 22 -73 inlet;
#X obj 22 -39 sel 0 1;
#X msg 22 23 \; pd dsp 0;
#X msg 97 22 \; pd dsp 1;
#X connect 2 0 3 0;
#X connect 3 0 4 0;
#X connect 3 1 5 0;
#X restore 18 61 pd sndONOFF;
#X text 36 29 On;
#X text 15 29 Off;
#X msg 190 59 roomsize \$1;
#X msg 276 59 damping \$1;
#X obj 193 43 hsl 60 15 0 1 0 0 empty empty empty -2 -8 0 10 -262144
-1 -1 0 1;
#X obj 279 45 hsl 60 15 0 1 0 0 empty empty empty -2 -8 0 10 -262144
-1 -1 0 1;
#X obj 366 43 hsl 60 15 0 1 0 0 empty empty empty -2 -8 0 10 -262144
-1 -1 0 1;
#X obj 449 43 hsl 60 15 0 1 0 0 empty empty empty -2 -8 0 10 -262144
-1 -1 0 1;
#X obj 533 43 hsl 60 15 0 0.5 0 0 empty empty empty -2 -8 0 10 -262144
-1 -1 0 1;
#X msg 363 59 width \$1;
#X msg 446 59 wet \$1;
#X msg 530 59 dry \$1;
#X text 188 13 REVERB CNTRL;
#X obj 530 76 s rvbctrlA;
#X obj 683 41 bng 15 250 50 0 empty empty empty 17 7 0 10 -262144 -1
-1;
#X obj 719 41 bng 15 250 50 0 empty empty empty 17 7 0 10 -262144 -1
-1;
#X obj 755 41 bng 15 250 50 0 empty empty empty 17 7 0 10 -262144 -1
-1;
#X text 681 24 On;
#X text 752 23 Playbk;
#X text 643 25 REC;
#X obj 646 41 tgl 15 0 empty empty empty 17 7 0 10 -262144 -1 -1 0
1;
#X text 715 23 Stop;
#X text 643 12 RECORDING;
#X obj 646 57 s rec;
#X obj 683 57 s ron;
#X obj 719 57 s stp;
#X obj 755 57 s pbk;
#X connect 0 0 2 0;
#X connect 5 0 16 0;
#X connect 6 0 16 0;
#X connect 7 0 5 0;
#X connect 8 0 6 0;
#X connect 9 0 12 0;
#X connect 10 0 13 0;
#X connect 11 0 14 0;
#X connect 12 0 16 0;
#X connect 13 0 16 0;
#X connect 14 0 16 0;
#X connect 17 0 27 0;
#X connect 18 0 28 0;
#X connect 19 0 29 0;
#X connect 23 0 26 0;
