#N canvas 249 88 623 379 10;
#X obj -1484 355 dac~;
#X obj -1439 178 freeverb~;
#X obj -1558 131 delay~ 100;
#X obj -1360 264 *~;
#X text -1308 203 On;
#X text -1235 202 Playbk;
#X text -1273 202 Stop;
#X obj -1439 143 r rvbctrlA;
#X obj -1575 225 *~ 0.5;
#X obj -1531 225 *~ 0.5;
#X obj -1504 193 *~ 0.5;
#X obj -1441 208 *~ 0.5;
#X obj -1391 220 *~ 0.5;
#X obj -1432 262 *~ 0.5;
#X obj -1486 263 *~ 0.5;
#X obj -1345 220 r rec;
#X obj -1307 220 r ron;
#X obj -1270 220 r stp;
#X obj -1233 220 r pbk;
#X text -1575 4 Receive connect and disconnect Object set here;
#X obj -1370 296 rec_file;
#X obj -1035 98 r~ basSND;
#X obj -1038 74 r~ basSND2;
#X obj -1572 27 r~ kd808;
#X obj -1554 46 r~ kd;
#X obj -1516 25 r~ sn808;
#X obj -1515 48 r~ hho;
#X obj -1233 34 r~ syUnitOneII;
#X obj -1234 54 r~ syUnitTwoII;
#X obj -1140 50 r~ syUnitThreeII;
#X obj -1141 71 r~ syUnitFourII;
#X obj -1412 28 r~ syUnitOne;
#X obj -1413 49 r~ syUnitTwo;
#X obj -1330 29 r~ syUnitThree;
#X obj -1331 48 r~ syUnitFour;
#X obj -1132 132 r~ smpls;
#X obj -1135 165 r~ S1out;
#X obj -1100 185 r~ S2out;
#X obj -1071 205 r~ S3out;
#X obj -1051 225 r~ S4out;
#X obj -1044 264 r~ tThing;
#X obj -1043 295 r~ tThing2;
#X connect 1 0 11 0;
#X connect 1 0 14 0;
#X connect 1 1 12 0;
#X connect 1 1 13 0;
#X connect 2 0 1 0;
#X connect 2 0 1 1;
#X connect 2 0 8 0;
#X connect 2 0 9 0;
#X connect 2 0 10 0;
#X connect 3 0 20 1;
#X connect 7 0 1 0;
#X connect 8 0 0 0;
#X connect 9 0 0 1;
#X connect 10 0 3 0;
#X connect 11 0 3 0;
#X connect 12 0 3 0;
#X connect 13 0 0 1;
#X connect 14 0 0 0;
#X connect 15 0 3 1;
#X connect 16 0 20 2;
#X connect 17 0 20 3;
#X connect 18 0 20 4;
#X connect 20 0 0 0;
#X connect 20 1 0 1;
#X connect 21 0 2 0;
#X connect 22 0 2 0;
#X connect 23 0 2 0;
#X connect 24 0 2 0;
#X connect 25 0 2 0;
#X connect 26 0 2 0;
#X connect 27 0 2 0;
#X connect 28 0 2 0;
#X connect 29 0 2 0;
#X connect 30 0 2 0;
#X connect 31 0 2 0;
#X connect 32 0 2 0;
#X connect 33 0 2 0;
#X connect 34 0 2 0;
#X connect 35 0 2 0;
#X connect 36 0 2 0;
#X connect 37 0 2 0;
#X connect 38 0 2 0;
#X connect 39 0 2 0;
#X connect 40 0 2 0;
#X connect 41 0 2 0;
