#N canvas 60 73 450 300 10;
#X obj 63 25 inlet~;
#X obj 119 27 inlet;
#X obj 268 28 inlet;
#X obj 311 28 inlet;
#X msg 119 69 open example.wav \, start;
#X msg 268 67 stop;
#X obj 62 165 writesf~ 2;
#X msg 311 136 open example.wav \, 1;
#X obj 311 162 readsf~ 2;
#X obj 290 209 outlet~;
#X obj 342 208 outlet~;
#X obj 393 208 outlet;
#X obj 8 26 inlet~;
#X connect 0 0 6 0;
#X connect 0 0 6 1;
#X connect 1 0 4 0;
#X connect 2 0 5 0;
#X connect 3 0 7 0;
#X connect 4 0 6 0;
#X connect 4 0 6 1;
#X connect 5 0 6 0;
#X connect 5 0 6 1;
#X connect 7 0 8 0;
#X connect 8 0 9 0;
#X connect 8 1 10 0;
#X connect 8 2 11 0;
#X connect 12 0 6 0;
#X connect 12 0 6 1;
