#N canvas 246 20 1062 593 10;
#X obj 131 237 hradio 15 1 0 16 empty empty empty 0 -8 0 10 -262144
-1 -1 2;
#X obj 108 63 metro 200;
#X obj 108 39 tgl 15 0 empty empty empty 17 7 0 10 -262144 -1 -1 1
1;
#X floatatom 159 36 5 0 0 0 - - -;
#X obj 108 87 bng 15 250 50 0 empty empty empty 17 7 0 10 -262144 -1
-1;
#X obj 108 111 f;
#X obj 108 138 counter;
#X floatatom 152 206 5 0 0 0 - - -;
#X obj 108 168 % 16;
#X obj 131 300 sel 0 1 2 3 4 5 6 7 8 9 10 11 12 13 14 15 16;
#X obj 475 277 line~;
#X obj 420 294 *~;
#X obj 419 211 square~;
#X obj 421 328 lop~ 200;
#X msg 475 227 1 \, 0 190;
#X obj 422 366 *~ 0.2;
#X msg 354 97 80;
#X msg 381 97 160;
#X msg 410 97 240;
#X msg 437 97 320;
#X obj 421 540 dac~ 1 2;
#X obj 465 365 *~ 0.2;
#X msg -38 28 \; pd dsp 1;
#X msg -35 70 \; pd dsp 0;
#X msg 324 97 60;
#X obj 587 198 line~;
#X obj 550 214 *~;
#X msg 586 131 1 \, 0 190;
#X obj 550 262 lop~ 200;
#X msg 495 95 120;
#X msg 524 95 220;
#X msg 554 95 320;
#X msg 583 95 420;
#X obj 549 170 osc~;
#X obj 549 300 *~ 0.8;
#X obj 517 364 *~ 0.4;
#X obj 564 363 *~ 0.4;
#X floatatom 641 95 5 0 0 0 - - -;
#X obj 641 152 phasor~;
#X text 629 5 Phase Synchronisation;
#X obj 641 263 clip~ 0 1;
#X obj 715 262 clip~ 0 1;
#X obj 696 295 +~;
#X obj 672 121 * -1;
#X obj 642 226 -~ -1;
#X obj 715 227 -~ -1;
#X obj 642 190 *~ -2;
#X obj 716 188 *~ -2;
#X msg 716 112 0;
#X obj 645 320 noise~;
#X obj 766 439 line~;
#X obj 698 455 *~;
#X obj 697 338 *~ 0.1;
#X obj 698 481 *~ 0.1;
#X obj 698 423 *~ 0.2;
#X msg 767 389 1 \, 0 300;
#X msg 641 52 600;
#X obj 5 173 knob 32 32 3 -3 0 0 empty empty empty 0 -8 0 8 -262144
-1 -1 517 1;
#X obj 235 21 hsl 150 15 0 150 0 0 empty empty empty -2 -8 0 10 -262144
-1 -1 9700 1;
#X obj 147 167 % 128;
#X msg -37 222 1 0 \$1;
#X obj 120 355 hradio 15 1 0 16 empty empty empty 0 -8 0 10 -262144
-1 -1 2;
#X obj 530 535 sel 0 1 2 3 4 5 6 7 8 9 10 11 12 13 14 15 16;
#X obj 65 154 % 6;
#X msg 15 222 0 0 \$1;
#X msg 64 223 1 0 \$1;
#X obj -3 250 hradio 15 1 0 6 empty empty empty 0 -8 0 10 -262144 -1
-1 2;
#X obj 31 281 sel 0 1 2;
#X msg 291 97 40;
#X obj 293 73 bng 15 250 50 0 empty empty empty 17 7 0 10 -262144 -1
-1;
#X obj 354 72 bng 15 250 50 0 empty empty empty 17 7 0 10 -262144 -1
-1;
#X obj 509 470 lop~;
#X floatatom 551 431 5 0 0 0 - - -;
#X obj 494 63 bng 15 250 50 0 empty empty empty 17 7 0 10 -262144 -1
-1;
#X floatatom 775 73 5 0 0 0 - - -;
#X text 813 71 Phase Synchronisation;
#X obj 775 241 clip~ 0 1;
#X obj 849 240 clip~ 0 1;
#X obj 830 273 +~;
#X obj 806 99 * -1;
#X obj 776 204 -~ -1;
#X obj 849 205 -~ -1;
#X obj 776 168 *~ -2;
#X obj 850 166 *~ -2;
#X msg 850 90 0;
#X obj 779 298 noise~;
#X obj 902 416 line~;
#X obj 832 433 *~;
#X obj 832 459 *~ 0.1;
#X obj 832 401 *~ 0.2;
#X msg 902 335 1 \, 0 300;
#X obj 830 316 *~ 0.3;
#X msg 804 40 900;
#X obj 101 449 hradio 15 1 0 16 empty empty empty 0 -8 0 10 -262144
-1 -1 2;
#X msg 740 41 2000;
#X obj 120 391 sel 0 1 2 3 4 5 6 7 8 9 10 11 12 13 14 15 16;
#X obj 643 32 bng 15 250 50 0 empty empty empty 17 7 0 10 -262144 -1
-1;
#X obj 778 15 bng 15 250 50 0 empty empty empty 17 7 0 10 -262144 -1
-1;
#X obj 805 16 bng 15 250 50 0 empty empty empty 17 7 0 10 -262144 -1
-1;
#X obj 101 479 sel 0 1 2 3 4 5 6 7 8 9 10 11 12 13 14 15 16;
#X obj 439 59 bng 15 250 50 0 empty empty empty 17 7 0 10 -262144 -1
-1;
#X obj 552 68 bng 15 250 50 0 empty empty empty 17 7 0 10 -262144 -1
-1;
#X obj 326 72 bng 15 250 50 0 empty empty empty 17 7 0 10 -262144 -1
-1;
#X obj 380 70 bng 15 250 50 0 empty empty empty 17 7 0 10 -262144 -1
-1;
#X obj 411 69 bng 15 250 50 0 empty empty empty 17 7 0 10 -262144 -1
-1;
#X obj 775 130 osc~;
#X obj 850 128 square~;
#X obj 716 150 square~;
#X obj 699 397 hip~ 50;
#X obj 832 370 lop 234;
#X obj 22 568 s o1;
#X obj 73 568 s o2;
#X obj 122 567 s o3;
#X obj 173 568 s o4;
#X obj 222 569 s o5;
#X obj 273 569 s o6;
#X connect 0 0 9 0;
#X connect 1 0 4 0;
#X connect 2 0 1 0;
#X connect 3 0 1 1;
#X connect 4 0 5 0;
#X connect 5 0 6 0;
#X connect 6 0 8 0;
#X connect 6 0 59 0;
#X connect 6 0 63 0;
#X connect 7 0 60 0;
#X connect 8 0 0 0;
#X connect 8 0 7 0;
#X connect 8 0 61 0;
#X connect 8 0 93 0;
#X connect 9 0 14 0;
#X connect 9 1 69 0;
#X connect 9 1 113 0;
#X connect 9 2 27 0;
#X connect 9 2 55 0;
#X connect 9 2 115 0;
#X connect 9 3 69 0;
#X connect 9 4 14 0;
#X connect 9 4 27 0;
#X connect 9 6 27 0;
#X connect 9 6 70 0;
#X connect 9 7 69 0;
#X connect 9 8 14 0;
#X connect 9 8 55 0;
#X connect 9 8 112 0;
#X connect 9 10 27 0;
#X connect 9 10 70 0;
#X connect 9 11 69 0;
#X connect 9 12 14 0;
#X connect 9 12 55 0;
#X connect 9 14 27 0;
#X connect 9 15 70 0;
#X connect 9 16 14 0;
#X connect 9 16 69 0;
#X connect 9 17 55 0;
#X connect 10 0 11 1;
#X connect 11 0 13 0;
#X connect 12 0 11 0;
#X connect 13 0 15 0;
#X connect 13 0 21 0;
#X connect 14 0 10 0;
#X connect 15 0 20 0;
#X connect 16 0 12 0;
#X connect 17 0 12 0;
#X connect 18 0 12 0;
#X connect 19 0 12 0;
#X connect 21 0 20 1;
#X connect 24 0 12 0;
#X connect 25 0 26 1;
#X connect 26 0 28 0;
#X connect 27 0 25 0;
#X connect 28 0 34 0;
#X connect 29 0 33 0;
#X connect 30 0 33 0;
#X connect 31 0 33 0;
#X connect 32 0 33 0;
#X connect 32 0 38 0;
#X connect 33 0 26 0;
#X connect 34 0 35 0;
#X connect 34 0 36 0;
#X connect 35 0 71 0;
#X connect 36 0 71 0;
#X connect 37 0 38 0;
#X connect 37 0 43 0;
#X connect 38 0 46 0;
#X connect 40 0 42 0;
#X connect 41 0 42 1;
#X connect 42 0 52 0;
#X connect 43 0 107 0;
#X connect 44 0 40 0;
#X connect 45 0 41 0;
#X connect 46 0 44 0;
#X connect 47 0 45 0;
#X connect 48 0 38 1;
#X connect 48 0 107 0;
#X connect 49 0 52 0;
#X connect 49 0 108 0;
#X connect 50 0 51 1;
#X connect 51 0 53 0;
#X connect 52 0 108 0;
#X connect 53 0 20 0;
#X connect 53 0 20 1;
#X connect 54 0 51 0;
#X connect 55 0 50 0;
#X connect 56 0 37 0;
#X connect 58 0 3 0;
#X connect 61 0 95 0;
#X connect 62 0 14 0;
#X connect 62 0 90 0;
#X connect 62 2 90 0;
#X connect 62 4 14 0;
#X connect 62 5 90 0;
#X connect 62 8 90 0;
#X connect 62 11 90 0;
#X connect 62 12 90 0;
#X connect 62 13 55 0;
#X connect 62 15 55 0;
#X connect 62 17 55 0;
#X connect 63 0 57 0;
#X connect 63 0 66 0;
#X connect 66 0 67 0;
#X connect 67 0 64 0;
#X connect 67 1 65 0;
#X connect 67 2 55 0;
#X connect 68 0 12 0;
#X connect 69 0 68 0;
#X connect 70 0 16 0;
#X connect 71 0 20 1;
#X connect 71 0 20 0;
#X connect 72 0 71 1;
#X connect 73 0 29 0;
#X connect 74 0 79 0;
#X connect 74 0 105 0;
#X connect 76 0 78 0;
#X connect 77 0 78 1;
#X connect 78 0 91 0;
#X connect 79 0 106 0;
#X connect 80 0 76 0;
#X connect 81 0 77 0;
#X connect 82 0 80 0;
#X connect 83 0 81 0;
#X connect 84 0 105 1;
#X connect 84 0 106 0;
#X connect 85 0 91 0;
#X connect 85 0 109 0;
#X connect 86 0 87 1;
#X connect 87 0 88 0;
#X connect 89 0 87 0;
#X connect 90 0 86 0;
#X connect 91 0 109 0;
#X connect 92 0 74 0;
#X connect 93 0 99 0;
#X connect 94 0 74 0;
#X connect 95 0 90 0;
#X connect 95 1 90 0;
#X connect 95 8 73 0;
#X connect 95 9 70 0;
#X connect 95 10 90 0;
#X connect 95 12 96 0;
#X connect 95 14 31 0;
#X connect 95 15 30 0;
#X connect 96 0 56 0;
#X connect 97 0 94 0;
#X connect 98 0 92 0;
#X connect 99 0 100 0;
#X connect 99 1 97 0;
#X connect 99 1 110 0;
#X connect 99 3 98 0;
#X connect 99 4 102 0;
#X connect 99 5 97 0;
#X connect 99 7 98 0;
#X connect 99 8 100 0;
#X connect 99 9 103 0;
#X connect 99 9 111 0;
#X connect 99 10 97 0;
#X connect 99 11 102 0;
#X connect 99 12 101 0;
#X connect 99 13 98 0;
#X connect 99 14 97 0;
#X connect 99 15 98 0;
#X connect 99 15 114 0;
#X connect 100 0 19 0;
#X connect 101 0 31 0;
#X connect 102 0 24 0;
#X connect 103 0 17 0;
#X connect 104 0 18 0;
#X connect 105 0 82 0;
#X connect 106 0 83 0;
#X connect 107 0 47 0;
#X connect 108 0 54 0;
#X connect 109 0 89 0;
