#N canvas 717 43 637 598 10;
#X msg 21 448 reset \, create \, 1;
#X obj 21 506 gemwin;
#X obj 256 80 t a b;
#X obj 283 109 f;
#X obj 256 132 separator;
#X obj 260 378 translateXYZ;
#X obj 260 504 color;
#X obj 324 107 + 1;
#X obj 556 23 vsl 15 128 0 6 0 0 empty empty empty 0 -9 0 10 -262144
-1 -1 2400 1;
#X obj 434 125 loadbang;
#X msg 309 502 draw fill;
#X msg 312 525 draw line;
#X obj 411 387 pack 0 1 1;
#X obj 411 417 hsv2rgb;
#X obj 300 158 timer;
#X obj 300 184 / 5000;
#X obj 315 240 *;
#X obj 300 271 +;
#X obj 298 296 sin;
#X obj 332 296 cos;
#X obj 365 296 tan;
#X obj 296 325 *;
#X obj 331 325 *;
#X obj 365 324 *;
#X obj 258 459 rotateXYZ;
#X obj 342 467 tgl 15 0 empty empty empty 17 7 0 10 -262144 -1 -1 1
1;
#X obj 261 482 alpha;
#X obj 342 437 loadbang;
#X obj 274 411 * 30;
#X obj 309 411 * 45;
#X obj 342 411 * 15;
#X obj 394 153 t b a;
#X obj 396 200 pix_snap2tex;
#X obj 436 151 t b b;
#X msg 435 174 0 0;
#X msg 484 174 500 500;
#X obj 398 239 alpha;
#X floatatom 524 222 5 0 0 0 - - -;
#X obj 402 301 square 4;
#X obj 290 350 * 0.5;
#X obj 327 349 * 0.5;
#X obj 364 349 * 0.5;
#X obj 178 201 knob 32 32 0 1 0 0 empty empty empty 0 -8 0 8 -262144
-1 -1 2900 1;
#X floatatom 159 350 5 0 0 0 - - -;
#X obj 86 275 knob 50 50 100 8000 0 0 empty empty empty 0 -8 0 8 -262144
-1 -1 4900 1;
#X obj 413 49 knob 32 32 10 100 0 0 empty empty empty 0 -8 0 8 -262144
-1 -1 200 1;
#X floatatom 449 81 5 0 0 0 - - -;
#X floatatom 94 378 5 0 0 0 - - -;
#X obj 400 270 colorRGB 1 0 1 0.888;
#X floatatom 521 502 5 0 0 0 - - -;
#X obj 334 209 cos;
#X obj 255 49 repeat 50;
#X obj 360 107 % 50;
#X msg 55 473 destroy \, 0;
#X obj 255 20 gemhead;
#X obj 384 -12 hsl 128 15 0 10 0 0 empty empty empty -2 -8 0 10 -262144
-1 -1 11800 1;
#X floatatom 352 38 5 0 0 0 - - -;
#X msg 328 3 set \$1;
#X obj 177 509 color;
#X obj 178 487 alpha;
#X obj 175 564 sphere 0.3;
#X obj 178 442 tgl 15 0 empty empty empty 17 7 0 10 -262144 -1 -1 1
1;
#X obj 35 24 inlet;
#X obj 107 26 inlet;
#X obj 179 28 inlet;
#X obj 260 566 sphere 0.5;
#X connect 0 0 1 0;
#X connect 2 0 4 0;
#X connect 2 1 3 0;
#X connect 2 1 14 1;
#X connect 3 0 7 0;
#X connect 4 0 5 0;
#X connect 5 0 24 0;
#X connect 6 0 65 0;
#X connect 7 0 52 0;
#X connect 8 0 37 0;
#X connect 9 0 33 0;
#X connect 10 0 60 0;
#X connect 10 0 65 0;
#X connect 11 0 60 0;
#X connect 11 0 65 0;
#X connect 12 0 13 0;
#X connect 13 0 6 1;
#X connect 13 0 58 1;
#X connect 14 0 15 0;
#X connect 15 0 17 0;
#X connect 15 0 50 0;
#X connect 16 0 17 1;
#X connect 17 0 18 0;
#X connect 17 0 19 0;
#X connect 17 0 20 0;
#X connect 18 0 21 0;
#X connect 19 0 22 0;
#X connect 20 0 23 0;
#X connect 21 0 39 0;
#X connect 22 0 40 0;
#X connect 23 0 41 0;
#X connect 24 0 26 0;
#X connect 25 0 26 0;
#X connect 26 0 6 0;
#X connect 27 0 25 0;
#X connect 28 0 24 1;
#X connect 29 0 24 2;
#X connect 30 0 24 3;
#X connect 31 0 32 0;
#X connect 31 1 32 0;
#X connect 32 0 36 0;
#X connect 33 0 34 0;
#X connect 33 1 35 0;
#X connect 34 0 32 1;
#X connect 35 0 32 2;
#X connect 36 0 48 0;
#X connect 37 0 48 4;
#X connect 39 0 12 0;
#X connect 39 0 5 1;
#X connect 39 0 28 0;
#X connect 40 0 5 2;
#X connect 40 0 29 0;
#X connect 41 0 5 3;
#X connect 41 0 30 0;
#X connect 42 0 39 1;
#X connect 42 0 40 1;
#X connect 42 0 41 1;
#X connect 42 0 43 0;
#X connect 44 0 15 1;
#X connect 44 0 47 0;
#X connect 45 0 46 0;
#X connect 45 0 52 1;
#X connect 48 0 38 0;
#X connect 49 0 30 1;
#X connect 50 0 16 1;
#X connect 51 0 2 0;
#X connect 52 0 3 1;
#X connect 52 0 16 0;
#X connect 52 0 23 1;
#X connect 52 0 22 1;
#X connect 52 0 21 1;
#X connect 53 0 1 0;
#X connect 54 0 31 0;
#X connect 54 0 51 0;
#X connect 55 0 57 0;
#X connect 57 0 54 0;
#X connect 57 0 56 0;
#X connect 58 0 60 0;
#X connect 59 0 58 0;
#X connect 61 0 59 0;
