#N canvas 490 158 699 456 10;
#X obj 21 365 tgl 15 0 empty empty empty 17 7 0 10 -262144 -1 -1 1
1;
#X msg 56 361 create;
#X msg 62 384 destroy;
#X obj 27 410 gemwin;
#X obj 230 102 pix_video;
#X obj 230 132 pix_blob 4;
#X obj 230 159 pix_film;
#X obj 295 160 f;
#X obj 230 186 pix_contrast;
#X obj 324 161 vsl 15 40 0 10 0 0 empty empty empty 0 -9 0 10 -262144
-1 -1 300 1;
#X obj 346 161 vsl 15 40 0 10 0 0 empty empty empty 0 -9 0 10 -262144
-1 -1 1400 1;
#X obj 452 107 render_trigger;
#X msg 547 141 snap;
#X obj 230 291 translateXYZ;
#X obj 231 385 rotateXYZ;
#X obj 330 413 hsl 40 15 0 1 0 0 empty empty empty -2 -8 0 10 -262144
-1 -1 3700 1;
#X obj 452 175 pix_snap 0 0 512 512;
#X obj 452 214 pix_texture;
#X obj 452 270 translateXYZ;
#X obj 452 312 rotateXYZ;
#X obj 452 357 rectangle 4 3;
#X obj 490 336 * 4;
#X obj 526 335 * 3;
#X obj 506 290 hsl 40 15 0 127 0 0 empty empty empty -2 -8 0 10 -262144
-1 -1 3501 1;
#X obj 518 314 hsl 40 15 0 1 0 0 empty empty empty -2 -8 0 10 -262144
-1 -1 2700 1;
#X obj 452 392 spigot;
#X obj 505 377 tgl 15 0 empty empty empty 17 7 0 10 -262144 -1 -1 1
1;
#X obj 250 314 tgl 15 0 empty empty empty 17 7 0 10 -262144 -1 -1 1
1;
#X obj 250 335 metro 10;
#X obj 252 358 f;
#X obj 281 358 + 1;
#X obj 379 79 metro;
#X floatatom 407 45 5 0 0 0 - - -;
#X obj 379 41 tgl 15 0 empty empty empty 17 7 0 10 -262144 -1 -1 1
1;
#X obj 381 101 f;
#X obj 383 132 counter;
#X obj 383 159 % 360;
#N canvas 626 401 549 300 colorCh 0;
#X obj 45 11 inlet;
#X obj 109 58 hsl 128 15 0 1 0 0 empty empty empty -2 -8 0 10 -258113
-1 -1 7620 1;
#X floatatom 106 110 5 0 0 0 - - -;
#X obj 247 57 hsl 128 15 0 1 0 0 empty empty empty -2 -8 0 10 -4034
-1 -1 7620 1;
#X obj 388 57 hsl 128 15 0 1 0 0 empty empty empty -2 -8 0 10 -4160
-1 -1 0 1;
#X obj 47 171 color;
#X obj 225 154 pack f f f;
#X obj 244 106 trigger b f;
#X obj 385 107 trigger b f;
#X obj 47 228 outlet;
#X obj 103 13 inlet;
#X obj 145 30 / 20;
#X obj 243 12 inlet;
#X obj 385 29 / 20;
#X obj 185 11 inlet;
#X obj 219 30 / 20;
#X connect 0 0 5 0;
#X connect 1 0 2 0;
#X connect 1 0 6 0;
#X connect 3 0 7 0;
#X connect 4 0 8 0;
#X connect 5 0 9 0;
#X connect 6 0 5 1;
#X connect 7 0 6 0;
#X connect 7 1 6 1;
#X connect 8 0 6 0;
#X connect 8 1 6 2;
#X connect 10 0 11 0;
#X connect 11 0 1 0;
#X connect 12 0 13 0;
#X connect 13 0 4 0;
#X connect 14 0 15 0;
#X connect 15 0 3 0;
#X restore 230 233 pd colorCh;
#X obj 383 187 % 20;
#X obj 229 262 pix_texture;
#X obj 231 428 cube 0.34;
#X msg 352 341 draw line;
#X msg 353 364 draw fill;
#X obj 243 40 hsl 128 15 0 10 0 0 empty empty empty -2 -8 0 10 -262144
-1 -1 0 1;
#X msg 187 55 set \$1;
#X obj 509 40 hsl 128 15 0 30 0 0 empty empty empty -2 -8 0 10 -262144
-1 -1 2963 1;
#X msg 453 55 set \$1;
#X floatatom 506 70 5 0 0 0 - - -;
#X floatatom 309 72 5 0 0 0 - - -;
#X obj 452 78 gemhead;
#X obj 559 94 hsl 128 15 0 50 0 0 empty empty empty -2 -8 0 10 -262144
-1 -1 1100 1;
#X msg 556 110 set \$1;
#X obj 480 140 gemhead;
#X obj 229 75 gemhead 5;
#X obj 451 417 cube 5;
#X obj 19 5 r o1;
#X obj 70 5 r o2;
#X obj 16 66 bng 15 250 50 0 empty empty empty 17 7 0 10 -262144 -1
-1;
#X obj 59 48 bng 15 250 50 0 empty empty empty 17 7 0 10 -262144 -1
-1;
#X obj 109 86 bng 15 250 50 0 empty empty empty 17 7 0 10 -262144 -1
-1;
#X obj 102 163 + 2;
#X obj 102 132 f;
#X obj 98 195 counter;
#X obj 120 221 % 30;
#X obj 120 6 r o3;
#X obj 156 114 bng 15 250 50 0 empty empty empty 17 7 0 10 -262144
-1 -1;
#X obj 166 143 f;
#X obj 162 206 counter;
#X obj 174 7 r o4;
#X obj 166 173 + 10;
#X obj 184 232 % 120;
#X connect 0 0 3 0;
#X connect 1 0 3 0;
#X connect 2 0 3 0;
#X connect 4 0 5 0;
#X connect 5 0 6 0;
#X connect 6 0 8 0;
#X connect 6 2 7 0;
#X connect 7 0 6 1;
#X connect 8 0 37 0;
#X connect 9 0 8 1;
#X connect 10 0 8 2;
#X connect 11 0 16 0;
#X connect 11 2 12 0;
#X connect 12 0 16 0;
#X connect 13 0 14 0;
#X connect 14 0 40 0;
#X connect 15 0 40 1;
#X connect 16 0 17 0;
#X connect 17 0 18 0;
#X connect 18 0 19 0;
#X connect 19 0 20 0;
#X connect 20 0 25 0;
#X connect 21 0 20 1;
#X connect 22 0 20 2;
#X connect 23 0 19 3;
#X connect 24 0 21 0;
#X connect 24 0 22 0;
#X connect 25 0 54 0;
#X connect 26 0 25 1;
#X connect 27 0 28 0;
#X connect 28 0 29 0;
#X connect 29 0 30 0;
#X connect 29 0 14 1;
#X connect 29 0 14 2;
#X connect 30 0 29 1;
#X connect 31 0 34 0;
#X connect 32 0 31 1;
#X connect 33 0 31 0;
#X connect 34 0 35 0;
#X connect 35 0 36 0;
#X connect 35 0 38 0;
#X connect 36 0 19 1;
#X connect 36 0 19 2;
#X connect 36 0 14 3;
#X connect 37 0 39 0;
#X connect 38 0 37 1;
#X connect 38 0 37 2;
#X connect 39 0 13 0;
#X connect 41 0 40 0;
#X connect 41 0 54 0;
#X connect 42 0 40 0;
#X connect 42 0 54 0;
#X connect 43 0 44 0;
#X connect 43 0 48 0;
#X connect 45 0 46 0;
#X connect 45 0 47 0;
#X connect 46 0 49 0;
#X connect 49 0 11 0;
#X connect 50 0 51 0;
#X connect 51 0 52 0;
#X connect 52 0 16 0;
#X connect 53 0 4 0;
#X connect 55 0 57 0;
#X connect 56 0 58 0;
#X connect 57 0 33 0;
#X connect 58 0 33 0;
#X connect 59 0 61 0;
#X connect 60 0 62 0;
#X connect 61 0 60 0;
#X connect 62 0 63 0;
#X connect 63 0 45 0;
#X connect 64 0 59 0;
#X connect 65 0 66 0;
#X connect 66 0 69 0;
#X connect 67 0 70 0;
#X connect 68 0 65 0;
#X connect 69 0 67 0;
#X connect 70 0 23 0;
