#N canvas 39 26 735 439 10;
#X obj -63 -221 bng 15 250 50 0 empty empty empty 17 7 0 10 -262144
-1 -1;
#X obj 15 -206 f;
#X floatatom 48 -222 5 0 0 0 - - -;
#X floatatom 12 -266 5 0 0 0 - - -;
#X obj -63 -250 metro 500;
#X obj -92 -264 tgl 15 0 empty empty empty 17 7 0 10 -262144 -1 -1
0 1;
#X obj 48 -250 bng 15 250 50 0 empty empty empty 17 7 0 10 -262144
-1 -1;
#N canvas 557 209 450 300 setAnlgSeq 1;
#X obj 104 -165 inlet;
#X obj 174 -167 inlet;
#X obj 253 -168 inlet;
#X obj 22 -166 inlet;
#X obj 40 -146 + 1.1;
#X floatatom 59 -123 5 0 0 0 - - -;
#X floatatom 22 -123 5 0 0 0 - - -;
#X floatatom 104 -124 5 0 0 0 - - -;
#X floatatom 141 -123 5 0 0 0 - - -;
#X floatatom 178 -124 5 0 0 0 - - -;
#X floatatom 217 -123 5 0 0 0 - - -;
#X floatatom 254 -124 5 0 0 0 - - -;
#X floatatom 292 -124 5 0 0 0 - - -;
#X obj 13 -89 outlet;
#X obj 58 -90 outlet;
#X obj 104 -90 outlet;
#X obj 149 -90 outlet;
#X obj 121 -144 + 1.1;
#X obj 195 -146 + 1.1;
#X obj 277 -148 + 1.1;
#X obj 198 -90 outlet;
#X obj 247 -90 outlet;
#X obj 297 -90 outlet;
#X obj 348 -90 outlet;
#X connect 0 0 7 0;
#X connect 0 0 17 0;
#X connect 1 0 9 0;
#X connect 1 0 18 0;
#X connect 2 0 11 0;
#X connect 2 0 19 0;
#X connect 3 0 4 0;
#X connect 3 0 6 0;
#X connect 4 0 5 0;
#X connect 5 0 14 0;
#X connect 6 0 13 0;
#X connect 7 0 15 0;
#X connect 8 0 16 0;
#X connect 9 0 20 0;
#X connect 10 0 21 0;
#X connect 11 0 22 0;
#X connect 12 0 23 0;
#X connect 17 0 8 0;
#X connect 18 0 10 0;
#X connect 19 0 12 0;
#X restore 55 -157 pd setAnlgSeq;
#X obj 55 -189 + 1;
#X obj 296 -49 osc~;
#X obj 295 -20 *~;
#X obj 442 69 dac~;
#X obj 336 -20 *~;
#X obj -71 -81 vsl 15 128 0 127 0 0 empty empty empty 0 -9 0 10 -262144
-1 -1 2300 1;
#X obj -33 -81 vsl 15 128 0 127 0 0 empty empty empty 0 -9 0 10 -262144
-1 -1 0 1;
#X obj 376 -49 osc~;
#X obj 370 -80 *~ p1;
#X obj 376 -21 *~;
#X obj 408 -80 *~ p1;
#X obj 417 -23 *~;
#X floatatom -71 118 5 0 0 0 - - -;
#X floatatom -33 117 5 0 0 0 - - -;
#X obj -71 144 sig~;
#X obj 152 -190 tgl 15 0 empty empty empty 17 7 0 10 -262144 -1 -1
1 1;
#X obj 152 -220 metro 500;
#X obj 152 -250 tgl 15 0 empty empty empty 17 7 0 10 -262144 -1 -1
0 1;
#X floatatom 173 -250 5 0 0 0 - - -;
#X floatatom -71 62 5 0 0 0 - - -;
#X floatatom -33 62 5 0 0 0 - - -;
#X obj -73 90 / 127;
#X obj -33 88 / 127;
#X obj -33 144 sig~;
#X obj 11 -83 vsl 15 128 0 127 0 0 empty empty empty 0 -9 0 10 -262144
-1 -1 0 1;
#X obj 49 -83 vsl 15 128 0 127 0 0 empty empty empty 0 -9 0 10 -262144
-1 -1 3500 1;
#X floatatom 11 116 5 0 0 0 - - -;
#X floatatom 49 115 5 0 0 0 - - -;
#X obj 11 142 sig~;
#X floatatom 11 60 5 0 0 0 - - -;
#X floatatom 49 60 5 0 0 0 - - -;
#X obj 9 88 / 127;
#X obj 49 86 / 127;
#X obj 49 142 sig~;
#X obj 296 -80 *~ p1;
#X obj 333 -80 *~ p1;
#X obj 327 -49 phasor~;
#X obj 407 -49 phasor~;
#X obj 128 -190 tgl 15 0 empty empty empty 17 7 0 10 -262144 -1 -1
1 1;
#X obj 88 -219 metro 500;
#X obj 88 -250 tgl 15 0 empty empty empty 17 7 0 10 -262144 -1 -1 1
1;
#X floatatom 109 -250 5 0 0 0 - - -;
#X obj 257 -190 tgl 15 0 empty empty empty 17 7 0 10 -262144 -1 -1
0 1;
#X obj 215 -220 metro 500;
#X obj 212 -250 tgl 15 0 empty empty empty 17 7 0 10 -262144 -1 -1
1 1;
#X floatatom 233 -250 5 0 0 0 - - -;
#X obj 278 -190 tgl 15 0 empty empty empty 17 7 0 10 -262144 -1 -1
0 1;
#X obj 278 -220 metro 500;
#X obj 278 -250 tgl 15 0 empty empty empty 17 7 0 10 -262144 -1 -1
0 1;
#X floatatom 299 -250 5 0 0 0 - - -;
#X obj 388 -191 tgl 15 0 empty empty empty 17 7 0 10 -262144 -1 -1
0 1;
#X obj 343 -221 metro 500;
#X obj 343 -251 tgl 15 0 empty empty empty 17 7 0 10 -262144 -1 -1
1 1;
#X floatatom 364 -251 5 0 0 0 - - -;
#X obj 409 -191 tgl 15 0 empty empty empty 17 7 0 10 -262144 -1 -1
1 1;
#X obj 408 -221 metro 500;
#X obj 409 -251 tgl 15 0 empty empty empty 17 7 0 10 -262144 -1 -1
1 1;
#X floatatom 430 -251 5 0 0 0 - - -;
#X obj 535 -192 tgl 15 0 empty empty empty 17 7 0 10 -262144 -1 -1
1 1;
#X obj 535 -222 metro 500;
#X obj 535 -252 tgl 15 0 empty empty empty 17 7 0 10 -262144 -1 -1
1 1;
#X floatatom 556 -252 5 0 0 0 - - -;
#X obj 514 -192 tgl 15 0 empty empty empty 17 7 0 10 -262144 -1 -1
1 1;
#X obj 471 -222 metro 500;
#X obj 471 -252 tgl 15 0 empty empty empty 17 7 0 10 -262144 -1 -1
1 1;
#X floatatom 492 -252 5 0 0 0 - - -;
#X obj 459 -50 osc~;
#X obj 458 -21 *~;
#X obj 499 -21 *~;
#X obj 539 -50 osc~;
#X obj 533 -81 *~ p1;
#X obj 539 -22 *~;
#X obj 571 -81 *~ p1;
#X obj 580 -24 *~;
#X obj 459 -81 *~ p1;
#X obj 496 -81 *~ p1;
#X obj 490 -50 phasor~;
#X obj 570 -50 phasor~;
#X obj 93 -84 vsl 15 128 0 127 0 0 empty empty empty 0 -9 0 10 -262144
-1 -1 2300 1;
#X obj 131 -84 vsl 15 128 0 127 0 0 empty empty empty 0 -9 0 10 -262144
-1 -1 5200 1;
#X floatatom 93 115 5 0 0 0 - - -;
#X floatatom 131 114 5 0 0 0 - - -;
#X obj 93 141 sig~;
#X floatatom 93 59 5 0 0 0 - - -;
#X floatatom 131 59 5 0 0 0 - - -;
#X obj 91 87 / 127;
#X obj 131 85 / 127;
#X obj 131 141 sig~;
#X obj 175 -86 vsl 15 128 0 127 0 0 empty empty empty 0 -9 0 10 -262144
-1 -1 2100 1;
#X obj 213 -86 vsl 15 128 0 127 0 0 empty empty empty 0 -9 0 10 -262144
-1 -1 3200 1;
#X floatatom 175 113 5 0 0 0 - - -;
#X floatatom 213 112 5 0 0 0 - - -;
#X obj 175 139 sig~;
#X floatatom 175 57 5 0 0 0 - - -;
#X floatatom 213 57 5 0 0 0 - - -;
#X obj 173 85 / 127;
#X obj 213 83 / 127;
#X obj 213 139 sig~;
#X connect 0 0 1 0;
#X connect 1 0 8 0;
#X connect 2 0 1 1;
#X connect 3 0 4 1;
#X connect 4 0 0 0;
#X connect 5 0 4 0;
#X connect 6 0 2 0;
#X connect 7 0 42 0;
#X connect 7 1 43 0;
#X connect 7 2 16 0;
#X connect 7 3 18 0;
#X connect 7 4 82 0;
#X connect 7 5 83 0;
#X connect 7 6 78 0;
#X connect 7 7 80 0;
#X connect 8 0 1 1;
#X connect 8 0 7 0;
#X connect 8 0 7 1;
#X connect 8 0 7 2;
#X connect 8 0 7 3;
#X connect 9 0 10 0;
#X connect 10 0 11 0;
#X connect 10 0 11 1;
#X connect 12 0 11 0;
#X connect 12 0 11 1;
#X connect 13 0 27 0;
#X connect 14 0 28 0;
#X connect 15 0 17 0;
#X connect 16 0 15 0;
#X connect 17 0 11 0;
#X connect 17 0 11 1;
#X connect 18 0 45 0;
#X connect 19 0 11 0;
#X connect 19 0 11 1;
#X connect 20 0 22 0;
#X connect 21 0 31 0;
#X connect 22 0 10 1;
#X connect 23 0 42 1;
#X connect 24 0 23 0;
#X connect 25 0 24 0;
#X connect 26 0 24 1;
#X connect 27 0 29 0;
#X connect 28 0 30 0;
#X connect 29 0 20 0;
#X connect 30 0 21 0;
#X connect 31 0 12 1;
#X connect 32 0 37 0;
#X connect 33 0 38 0;
#X connect 34 0 36 0;
#X connect 35 0 41 0;
#X connect 36 0 17 1;
#X connect 37 0 39 0;
#X connect 38 0 40 0;
#X connect 39 0 34 0;
#X connect 40 0 35 0;
#X connect 41 0 19 1;
#X connect 42 0 9 0;
#X connect 43 0 44 0;
#X connect 44 0 12 0;
#X connect 45 0 19 0;
#X connect 46 0 43 1;
#X connect 47 0 46 0;
#X connect 48 0 47 0;
#X connect 49 0 47 1;
#X connect 50 0 16 1;
#X connect 51 0 50 0;
#X connect 52 0 51 0;
#X connect 53 0 51 1;
#X connect 54 0 18 1;
#X connect 55 0 54 0;
#X connect 56 0 55 0;
#X connect 57 0 55 1;
#X connect 58 0 82 1;
#X connect 59 0 58 0;
#X connect 60 0 59 0;
#X connect 61 0 59 1;
#X connect 62 0 83 1;
#X connect 63 0 62 0;
#X connect 64 0 63 0;
#X connect 65 0 63 1;
#X connect 66 0 80 1;
#X connect 67 0 66 0;
#X connect 68 0 67 0;
#X connect 69 0 67 1;
#X connect 70 0 78 1;
#X connect 71 0 70 0;
#X connect 72 0 71 0;
#X connect 73 0 71 1;
#X connect 74 0 75 0;
#X connect 75 0 11 0;
#X connect 75 0 11 1;
#X connect 76 0 11 0;
#X connect 76 0 11 1;
#X connect 77 0 79 0;
#X connect 78 0 77 0;
#X connect 79 0 11 0;
#X connect 79 0 11 1;
#X connect 80 0 85 0;
#X connect 81 0 11 0;
#X connect 81 0 11 1;
#X connect 82 0 74 0;
#X connect 83 0 84 0;
#X connect 84 0 76 0;
#X connect 85 0 81 0;
#X connect 86 0 91 0;
#X connect 87 0 92 0;
#X connect 88 0 90 0;
#X connect 89 0 95 0;
#X connect 90 0 75 1;
#X connect 91 0 93 0;
#X connect 92 0 94 0;
#X connect 93 0 88 0;
#X connect 94 0 89 0;
#X connect 95 0 76 1;
#X connect 96 0 101 0;
#X connect 97 0 102 0;
#X connect 98 0 100 0;
#X connect 99 0 105 0;
#X connect 100 0 79 1;
#X connect 101 0 103 0;
#X connect 102 0 104 0;
#X connect 103 0 98 0;
#X connect 104 0 99 0;
#X connect 105 0 81 1;
