#N canvas 529 52 477 433 10;
#X obj 149 43 gemhead;
#X obj 149 258 part_velocity;
#X obj 149 227 part_source 5 point;
#X msg 325 224 sphere;
#X obj 149 192 part_color;
#X obj 378 148 r lb;
#X obj 149 307 part_killold 20;
#X obj 148 284 part_size;
#X floatatom 267 286 5 0 1 0 - - -;
#X obj 149 333 part_render;
#X obj 149 388 square;
#X msg 52 261 draw fill;
#X msg 51 283 draw line;
#X msg 25 66 speed \$1;
#X msg 245 200 0 -3 0 4;
#X floatatom 232 372 5 0 0 0 - - -;
#X msg 303 200 0 -3 0 0;
#X obj 235 354 hsl 128 15 0 20 0 0 empty empty empty -2 -8 0 10 -262144
-1 -1 635 1;
#X obj 149 90 part_head 200;
#X obj 11 388 sphere;
#X msg 51 306 draw point;
#X msg 365 200 0 -2 -3 0;
#X msg 325 247 -0.2 0.3 0.2 0.3;
#X msg 325 267 0 0.3 0 0.3;
#X msg 324 288 0.2 0.3 0.2 0.3;
#X obj 313 55 metro 200;
#X obj 313 90 counter;
#X obj 313 74 bng 15 250 50 0 empty empty empty 17 7 0 10 -262144 -1
-1;
#X obj 313 114 mod 3;
#X obj 314 135 sel 0 1 2;
#X msg 172 165 0 \$1 0;
#X msg 218 165 1 \$1 1;
#X msg 209 141 0 0 \$1;
#X msg 255 141 1 1 \$1;
#X obj 44 158 counter;
#X obj 44 142 bng 15 250 50 0 empty empty empty 17 7 0 10 -262144 -1
-1;
#X obj 44 123 metro 3000;
#X obj 44 185 mod 10;
#X obj 364 12 inlet;
#X obj 313 10 inlet;
#X obj 25 15 inlet speed;
#X obj 196 114 inlet;
#X obj 158 114 inlet;
#X obj 272 114 inlet;
#X obj 234 114 inlet;
#X obj 406 330 inlet;
#X connect 0 0 18 0;
#X connect 1 0 7 0;
#X connect 2 0 1 0;
#X connect 3 0 1 1;
#X connect 4 0 2 0;
#X connect 5 0 30 0;
#X connect 5 0 31 0;
#X connect 6 0 9 0;
#X connect 7 0 6 0;
#X connect 8 0 7 1;
#X connect 8 0 19 1;
#X connect 9 0 19 0;
#X connect 9 0 10 0;
#X connect 11 0 10 0;
#X connect 11 0 19 0;
#X connect 12 0 10 0;
#X connect 12 0 19 0;
#X connect 13 0 18 0;
#X connect 14 0 2 3;
#X connect 15 0 10 1;
#X connect 15 0 19 2;
#X connect 16 0 2 3;
#X connect 17 0 15 0;
#X connect 18 0 4 0;
#X connect 20 0 10 0;
#X connect 20 0 19 0;
#X connect 21 0 2 3;
#X connect 22 0 1 2;
#X connect 23 0 1 2;
#X connect 24 0 1 2;
#X connect 25 0 27 0;
#X connect 26 0 28 0;
#X connect 27 0 26 0;
#X connect 28 0 29 0;
#X connect 29 0 22 0;
#X connect 29 0 14 0;
#X connect 29 1 23 0;
#X connect 29 1 16 0;
#X connect 29 2 24 0;
#X connect 29 2 21 0;
#X connect 30 0 4 1;
#X connect 31 0 4 2;
#X connect 32 0 4 1;
#X connect 33 0 4 2;
#X connect 34 0 37 0;
#X connect 35 0 34 0;
#X connect 36 0 35 0;
#X connect 37 0 17 0;
#X connect 38 0 25 1;
#X connect 39 0 25 0;
#X connect 39 0 36 0;
#X connect 40 0 13 0;
#X connect 41 0 31 0;
#X connect 42 0 30 0;
#X connect 43 0 33 0;
#X connect 44 0 32 0;
#X connect 45 0 8 0;
