#N canvas -4 -4 1024 524 10;
#X text 88 211 VCO;
#X text 206 211 LFO;
#X text 82 -21 Tempo;
#N canvas 514 175 450 300 onoff 0;
#X obj 84 15 inlet;
#X obj 18 15 inlet;
#X msg 18 54 \; pd dsp 0;
#X msg 84 53 \; pd dsp 1;
#X connect 0 0 3 0;
#X connect 1 0 2 0;
#X restore 23 15 pd onoff;
#X obj 60 0 bng 15 250 50 0 empty empty empty 17 7 0 10 -262144 -1
-1;
#X obj 23 0 bng 15 250 50 0 empty empty empty 17 7 0 10 -262144 -1
-1;
#X obj 87 -3 knob 35 35 0 250 0 0 empty empty empty 0 -8 0 8 -262144
-1 -1 1700 1;
#X text 187 -22 Attk;
#X obj 190 -1 knob 30 30 0 300 0 0 empty empty empty 0 -8 0 8 -262144
-1 -1 0 1;
#X obj 499 -10 tgl 15 0 empty empty empty 17 7 0 10 -262144 -1 -1 1
1;
#X obj 521 -10 tgl 15 0 empty empty empty 17 7 0 10 -262144 -1 -1 1
1;
#X obj 544 -10 tgl 15 0 empty empty empty 17 7 0 10 -262144 -1 -1 0
1;
#X obj 567 -10 tgl 15 0 empty empty empty 17 7 0 10 -262144 -1 -1 1
1;
#X text 496 -25 Sin;
#X text 544 -25 Tri;
#X text 518 -26 Saw;
#X text 565 -26 Sqr;
#X text 224 -22 Decay;
#X obj 229 -2 knob 30 30 0 3000 0 0 empty empty empty 0 -8 0 8 -262144
-1 -1 0 1;
#X text 82 -40 EG;
#X obj 249 252 knob 30 30 0 10 0 0 empty empty empty 0 -8 0 8 -262144
-1 -1 2900 1;
#X obj 208 254 knob 30 30 0 127 0 0 empty empty empty 0 -8 0 8 -262144
-1 -1 2900 1;
#X obj 92 256 knob 30 30 0 127 0 0 empty empty empty 0 -8 0 8 -262144
-1 -1 0 1;
#X obj 166 254 knob 30 30 0 127 0 0 empty empty empty 0 -8 0 8 -262144
-1 -1 0 1;
#X obj 129 254 knob 30 30 0 127 0 0 empty empty empty 0 -8 0 8 -262144
-1 -1 2900 1;
#X text 89 225 Pitch;
#X text 89 237 1;
#X text 129 234 2;
#X text 165 233 3;
#N canvas 6 18 450 300 voiceMix 0;
#X obj 27 29 inlet;
#X obj 76 29 inlet;
#X obj 115 29 inlet;
#X obj 27 195 +~;
#X floatatom 196 68 5 0 0 0 - - -;
#X floatatom 34 129 5 0 0 0 - - -;
#X obj 197 30 inlet;
#N canvas 194 167 450 300 pulseWidthOsc 0;
#X obj 146 189 -~ 0.5;
#X obj 245 190 -~ 0.5;
#X obj 231 227 +~;
#X obj 227 19 inlet fatness;
#X obj 145 19 inlet pitch;
#X obj 244 117 +;
#X obj 145 115 -;
#X obj 145 153 phasor~ 55;
#X obj 244 151 phasor~ 55;
#X obj 227 78 t b b f f;
#X obj 231 264 outlet~;
#X obj 315 20 inlet;
#X obj 227 49 * 1;
#X connect 0 0 2 0;
#X connect 1 0 2 1;
#X connect 2 0 10 0;
#X connect 3 0 12 0;
#X connect 4 0 6 0;
#X connect 4 0 5 0;
#X connect 5 0 8 0;
#X connect 6 0 7 0;
#X connect 7 0 0 0;
#X connect 8 0 1 0;
#X connect 9 0 6 0;
#X connect 9 1 5 0;
#X connect 9 2 6 1;
#X connect 9 3 5 1;
#X connect 11 0 12 1;
#X connect 12 0 9 0;
#X restore 26 170 pd pulseWidthOsc;
#X obj 76 82 +;
#X obj 26 238 outlet~;
#X obj 239 31 inlet;
#X floatatom 239 69 5 0 0 0 - - -;
#X obj 26 103 +;
#X floatatom 92 115 5 0 0 0 - - -;
#X obj 115 62 +;
#X floatatom 134 96 5 0 0 0 - - -;
#X connect 0 0 14 0;
#X connect 1 0 8 0;
#X connect 2 0 12 0;
#X connect 3 0 9 0;
#X connect 6 0 4 0;
#X connect 6 0 7 1;
#X connect 7 0 3 0;
#X connect 8 0 13 0;
#X connect 8 0 12 1;
#X connect 8 0 7 0;
#X connect 10 0 7 2;
#X connect 10 0 11 0;
#X connect 12 0 5 0;
#X connect 12 0 7 0;
#X connect 14 0 15 0;
#X connect 14 0 8 1;
#X connect 14 0 7 0;
#X restore 139 303 pd voiceMix;
#X text 856 -39 CUTOFF;
#N canvas 107 168 450 300 WavFrmSet 0;
#N canvas 490 202 450 300 pls 0;
#X obj 29 21 inlet;
#X obj 29 80 phasor~;
#X floatatom 43 48 5 0 0 0 - - -;
#X obj 30 106 -~ 0.99;
#X obj 29 132 clip~ 0 1;
#X obj 29 156 *~ 100;
#X obj 70 206 tabwrite~ pulse;
#X obj 101 172 bng 15 250 50 0 empty empty empty 17 7 0 10 -262144
-1 -1;
#N canvas 0 0 450 300 (subpatch) 0;
#X array pulse 100 float 3;
#A 0 0 0 0 0 0 0 0 0 0 0 0 0 0 0 0 0 0 0 0 0.844389 0 0 0 0 0 0 0 0
0 0 0 0 0 0 0 0 0 0 0 0 0 0 0 0 0 0 0 0 0 0 0 0 0 0 0 0 0 0 0 0 0 0
0 0 0 0 0 0 0 0 0 0 0 0 0 0 0 0 0 0 0 0 0 0 0 0 0 0 0 0 0 0 0 0 0 0
0 0 0 0;
#X coords 0 1 99 -1 200 140 1;
#X restore 143 58 graph;
#X obj 30 233 outlet~;
#X connect 0 0 2 0;
#X connect 0 0 1 0;
#X connect 1 0 3 0;
#X connect 3 0 4 0;
#X connect 4 0 5 0;
#X connect 5 0 6 0;
#X connect 5 0 9 0;
#X connect 7 0 6 0;
#X restore 386 270 pd pls;
#X obj 384 228 spigot;
#X obj 76 204 outlet~;
#X obj 156 204 outlet~;
#X obj 243 204 outlet~;
#X obj 384 249 outlet~;
#X obj 325 203 outlet~;
#X obj 44 14 inlet;
#X obj 174 13 inlet;
#X obj 211 13 inlet;
#X obj 247 13 inlet;
#X obj 284 13 inlet;
#X obj 359 61 bng 15 250 50 0 empty empty empty 17 7 0 10 -262144 -1
-1;
#X obj 121 78 phasor~;
#X obj 46 81 osc~;
#X obj 74 109 *~;
#X obj 158 105 *~;
#X obj 241 105 *~;
#X obj 325 101 *~;
#X obj 75 151 *~ 0.5;
#X obj 157 150 *~ 0.5;
#X obj 242 149 *~ 0.5;
#X obj 325 148 *~ 0.5;
#N canvas 97 69 491 430 tri_ 0;
#X obj 35 37 inlet;
#X floatatom 35 94 5 0 0 0 - - -;
#X obj 35 151 phasor~;
#X obj 110 149 phasor~;
#X text 109 93 Phase Synchronisation;
#X obj 33 260 clip~ 0 1;
#X obj 109 261 clip~ 0 1;
#X obj 90 294 +~;
#N canvas 0 0 450 300 (subpatch) 0;
#X array triagraph 100 float 3;
#A 0 0.265541 0.255925 0.246309 0.236693 0.227077 0.217461 0.207845
0.198229 0.188613 0.178997 0.16938 0.159764 0.150148 0.140532 0.130916
0.1213 0.111684 0.102068 0.0924519 0.0828358 0.0732197 0.0636036 0.0539876
0.0443715 0.0347554 0.0251393 0.0155233 0.00590718 0.0037089 0.013325
0.0229411 0.0325571 0.0421732 0.0517893 0.0614054 0.0710214 0.0806375
0.0902536 0.0998697 0.109486 0.119102 0.128718 0.138334 0.14795 0.157566
0.167182 0.176798 0.186414 0.19603 0.205647 0.215263 0.224879 0.234495
0.244111 0.253727 0.263343 0.272959 0.282575 0.292191 0.301807 0.311423
0.321039 0.330656 0.340272 0.349888 0.359504 0.36912 0.378736 0.388352
0.397968 0.407584 0.4172 0.426816 0.436432 0.446048 0.455665 0.465281
0.474897 0.484513 0.494129 0.503745 0.513361 0.522977 0.532593 0.542209
0.551825 0.561441 0.571057 0.580673 0.59029 0.599906 0.609522 0.619138
0.628754 0.63837 0.647986 0.657602 0.667218 0.676834 0.68645;
#X coords 0 1 99 -1 200 140 1;
#X restore 205 160 graph;
#X obj 66 120 * -1;
#X obj 36 225 -~ -1;
#X obj 109 226 -~ -1;
#X obj 135 296 bng 15 250 50 0 empty empty empty 17 7 0 10 -262144
-1 -1;
#X text 132 278 graph;
#X obj 36 189 *~ -2;
#X obj 110 187 *~ -2;
#X text 32 71 comment;
#X obj 118 328 tabwrite~ triagraph;
#X obj 90 355 outlet~;
#X msg 110 111 0;
#X connect 0 0 1 0;
#X connect 1 0 2 0;
#X connect 1 0 9 0;
#X connect 2 0 14 0;
#X connect 3 0 15 0;
#X connect 5 0 7 0;
#X connect 6 0 7 1;
#X connect 7 0 17 0;
#X connect 7 0 18 0;
#X connect 9 0 3 0;
#X connect 10 0 5 0;
#X connect 11 0 6 0;
#X connect 12 0 17 0;
#X connect 14 0 10 0;
#X connect 15 0 11 0;
#X connect 19 0 2 1;
#X connect 19 0 3 0;
#X restore 207 78 pd tri_;
#N canvas 436 204 450 300 sqr_ 0;
#X obj 34 31 inlet;
#X obj 34 105 phasor~;
#X obj 110 106 phasor~;
#X msg 120 67 0;
#X msg 158 68 0.5;
#X obj 67 63 *~ 1;
#X obj 70 139 +~;
#X obj 70 168 -~ 1;
#X obj 107 221 tabwrite~ square;
#X obj 124 192 bng 15 250 50 0 empty empty empty 17 7 0 10 -262144
-1 -1;
#N canvas 0 0 450 300 (subpatch) 0;
#X array square 100 float 3;
#A 0 -0.934192 -0.914146 -0.894101 -0.874056 -0.85401 -0.833965 -0.81392
-0.793874 -0.773829 -0.753784 -0.733738 -0.713693 -0.693648 -0.673602
-0.653557 -0.633512 -0.613466 -0.593421 -0.573375 -0.55333 -0.533285
-0.513239 -0.493194 -0.473149 -0.453103 -0.433058 -0.413013 -0.392967
-0.372922 -0.352877 -0.332831 -0.312786 -0.292741 -0.272695 -0.25265
-0.232605 -0.212559 -0.192514 -0.172468 -0.152423 -0.132378 -0.112332
-0.092287 -0.0722417 -0.0521963 -0.032151 -0.0121056 0.0079397 0.0279851
0.0480304 0.0680758 0.0881212 0.108166 0.128212 0.148257 0.168303 0.188348
0.208393 0.228439 0.248484 0.268529 0.288575 0.30862 0.328665 0.348711
0.368756 0.388801 0.408847 0.428892 0.448937 0.468983 0.489028 0.509073
0.529119 0.549164 0.56921 0.589255 0.6093 0.629346 0.649391 0.669436
0.689482 0.709527 0.729572 0.749618 0.769663 0.789708 0.809754 0.829799
0.849844 0.86989 0.889935 0.909981 0.930026 0.950071 0.970117 0.990162
-0.989793 -0.969747 -0.949702;
#X coords 0 1 99 -1 200 140 1;
#X restore 207 63 graph;
#X obj 158 32 inlet;
#X obj 70 251 outlet~;
#X text 158 10 Phase Synchronisation;
#X connect 0 0 1 0;
#X connect 0 0 5 0;
#X connect 1 0 6 0;
#X connect 2 0 6 1;
#X connect 3 0 1 1;
#X connect 4 0 2 1;
#X connect 5 0 2 0;
#X connect 6 0 7 0;
#X connect 7 0 8 0;
#X connect 7 0 12 0;
#X connect 9 0 8 0;
#X connect 11 0 4 0;
#X connect 11 0 3 0;
#X restore 298 76 pd sqr_;
#X connect 7 0 14 0;
#X connect 7 0 13 0;
#X connect 7 0 23 0;
#X connect 7 0 24 0;
#X connect 8 0 15 1;
#X connect 9 0 16 1;
#X connect 10 0 17 1;
#X connect 11 0 18 1;
#X connect 12 0 24 1;
#X connect 13 0 16 0;
#X connect 14 0 15 0;
#X connect 15 0 19 0;
#X connect 16 0 20 0;
#X connect 17 0 21 0;
#X connect 18 0 22 0;
#X connect 19 0 2 0;
#X connect 20 0 3 0;
#X connect 21 0 4 0;
#X connect 22 0 6 0;
#X connect 23 0 17 0;
#X connect 24 0 18 0;
#X restore 471 29 pd WavFrmSet;
#X obj 412 59 s~ sin;
#X obj 457 58 s~ saw;
#X obj 501 58 s~ tri;
#X obj 546 58 s~ sqr;
#X text 206 233 Rate;
#X text 463 205 Int;
#X obj 860 43 s cff;
#X obj 459 -7 r cff;
#N canvas 505 104 450 300 TempoSet 0;
#X obj 84 32 inlet;
#X obj 46 262 outlet;
#X floatatom 129 144 5 0 0 0 - - -;
#X floatatom 84 144 5 0 0 0 - - -;
#X obj 46 169 metro;
#X obj 30 124 tgl 15 0 empty empty empty 17 7 0 10 -262144 -1 -1 1
1;
#X obj 46 201 counter;
#X obj 46 232 mod 16;
#X obj 30 32 inlet;
#X obj 84 61 expr 60000 / $f1;
#X floatatom 129 97 5 0 0 0 - - -;
#X obj 84 96 i;
#X obj 186 186 outlet;
#X text 184 168 GEM Sync;
#X connect 0 0 9 0;
#X connect 3 0 4 1;
#X connect 4 0 6 0;
#X connect 4 0 12 0;
#X connect 5 0 4 0;
#X connect 6 0 7 0;
#X connect 7 0 1 0;
#X connect 8 0 5 0;
#X connect 9 0 10 0;
#X connect 9 0 11 0;
#X connect 11 0 3 0;
#X connect 11 0 2 0;
#X restore 91 35 pd TempoSet;
#X obj 21 360 hradio 20 1 0 16 empty empty empty 0 -8 0 10 -262144
-1 -1 5;
#X obj 133 96 s seqr;
#X obj 21 327 r seqr;
#X obj 24 254 knob 32 32 0 0.8 0 0 empty empty empty 0 -8 0 8 -262144
-1 -1 2000 1;
#X text 21 210 VOL;
#X text 60 -20 On;
#X text 23 -20 Off;
#N canvas 125 202 450 300 attdec 0;
#X floatatom 108 49 5 0 0 0 - - -;
#X floatatom 147 49 5 0 0 0 - - -;
#N canvas 186 169 450 300 envelope 0;
#X text 187 186 Rise;
#X text 139 186 Fall;
#X obj 174 234 line;
#X msg 132 203 0 \$1;
#X msg 184 203 1 \$1;
#X obj 132 75 t b b;
#X obj 159 152 f;
#X obj 132 152 f;
#X obj 132 115 del;
#X obj 132 32 inlet;
#X obj 173 31 inlet;
#X obj 216 31 inlet;
#X obj 174 266 outlet;
#X connect 2 0 12 0;
#X connect 3 0 2 0;
#X connect 4 0 2 0;
#X connect 5 0 8 0;
#X connect 5 1 6 0;
#X connect 6 0 4 0;
#X connect 7 0 3 0;
#X connect 8 0 7 0;
#X connect 9 0 5 0;
#X connect 10 0 8 1;
#X connect 11 0 6 1;
#X restore 28 49 pd envelope;
#X obj 28 18 inlet;
#X obj 108 17 inlet;
#X obj 147 17 inlet;
#X obj 28 104 outlet;
#X floatatom 35 80 5 0 0 0 - - -;
#X connect 2 0 6 0;
#X connect 2 0 7 0;
#X connect 3 0 2 0;
#X connect 4 0 0 0;
#X connect 4 0 2 1;
#X connect 5 0 1 0;
#X connect 5 0 2 2;
#X restore 178 39 pd attdec;
#N canvas 228 73 709 356 seqMixr 0;
#X obj 5 194 f;
#X obj 30 193 f;
#X obj 56 193 f;
#X obj 83 193 f;
#X obj 108 192 f;
#X obj 134 192 f;
#X obj 160 193 f;
#X obj 185 192 f;
#X obj 211 192 f;
#X obj 238 192 f;
#X obj 263 191 f;
#X obj 289 191 f;
#X obj 315 192 f;
#X obj 342 192 f;
#X obj 368 192 f;
#X obj 4 61 select 0 1 2 3 4 5 6 7 8 9 10 11 12 13 14 15;
#X obj 396 192 f;
#X obj 4 13 inlet;
#X floatatom 18 38 5 0 0 0 - - -;
#X obj 172 278 mtof;
#X floatatom 105 295 5 0 0 0 - - -;
#X obj 172 315 outlet;
#X obj 292 0 vsl 20 80 0 1 0 0 empty empty empty 0 -9 0 10 -262144
-1 -1 0 1;
#X obj 313 0 vsl 20 80 0 1 0 0 empty empty empty 0 -9 0 10 -262144
-1 -1 0 1;
#X obj 334 0 vsl 20 80 0 1 0 0 empty empty empty 0 -9 0 10 -262144
-1 -1 0 1;
#X obj 355 0 vsl 20 80 0 1 0 0 empty empty empty 0 -9 0 10 -262144
-1 -1 0 1;
#X obj 376 0 vsl 20 80 0 1 0 0 empty empty empty 0 -9 0 10 -262144
-1 -1 0 1;
#X obj 397 0 vsl 20 80 0 1 0 0 empty empty empty 0 -9 0 10 -262144
-1 -1 0 1;
#X obj 418 0 vsl 20 80 0 1 0 0 empty empty empty 0 -9 0 10 -262144
-1 -1 0 1;
#X obj 439 0 vsl 20 80 0 1 0 0 empty empty empty 0 -9 0 10 -262144
-1 -1 0 1;
#X obj 460 0 vsl 20 80 0 1 0 0 empty empty empty 0 -9 0 10 -262144
-1 -1 0 1;
#X obj 481 0 vsl 20 80 0 1 0 0 empty empty empty 0 -9 0 10 -262144
-1 -1 0 1;
#X obj 502 0 vsl 20 80 0 1 0 0 empty empty empty 0 -9 0 10 -262144
-1 -1 0 1;
#X obj 523 0 vsl 20 80 0 1 0 0 empty empty empty 0 -9 0 10 -262144
-1 -1 0 1;
#X obj 544 0 vsl 20 80 0 1 0 0 empty empty empty 0 -9 0 10 -262144
-1 -1 0 1;
#X obj 565 0 vsl 20 80 0 1 0 0 empty empty empty 0 -9 0 10 -262144
-1 -1 0 1;
#X obj 586 0 vsl 20 80 0 1 0 0 empty empty empty 0 -9 0 10 -262144
-1 -1 0 1;
#X obj 607 0 vsl 20 80 0 1 0 0 empty empty empty 0 -9 0 10 -262144
-1 -1 0 1;
#X connect 0 0 19 0;
#X connect 1 0 19 0;
#X connect 2 0 19 0;
#X connect 3 0 19 0;
#X connect 4 0 19 0;
#X connect 5 0 19 0;
#X connect 6 0 19 0;
#X connect 7 0 19 0;
#X connect 8 0 19 0;
#X connect 9 0 19 0;
#X connect 10 0 19 0;
#X connect 11 0 19 0;
#X connect 12 0 19 0;
#X connect 13 0 19 0;
#X connect 14 0 19 0;
#X connect 15 0 0 0;
#X connect 15 1 1 0;
#X connect 15 2 2 0;
#X connect 15 3 3 0;
#X connect 15 4 4 0;
#X connect 15 5 5 0;
#X connect 15 6 6 0;
#X connect 15 7 7 0;
#X connect 15 8 8 0;
#X connect 15 9 9 0;
#X connect 15 10 10 0;
#X connect 15 11 11 0;
#X connect 15 12 12 0;
#X connect 15 13 13 0;
#X connect 15 14 14 0;
#X connect 15 15 16 0;
#X connect 16 0 19 0;
#X connect 17 0 15 0;
#X connect 17 0 18 0;
#X connect 19 0 20 0;
#X connect 19 0 21 0;
#X connect 22 0 0 1;
#X connect 23 0 1 1;
#X connect 24 0 2 1;
#X connect 25 0 3 1;
#X connect 26 0 4 1;
#X connect 27 0 5 1;
#X connect 28 0 6 1;
#X connect 29 0 7 1;
#X connect 30 0 8 1;
#X connect 31 0 9 1;
#X connect 32 0 10 1;
#X connect 33 0 11 1;
#X connect 34 0 12 1;
#X connect 35 0 13 1;
#X connect 36 0 14 1;
#X connect 37 0 16 1;
#X restore 21 405 pd seqMixr;
#X obj 305 -2 knob 30 30 0 7000 0 0 empty empty empty 0 -8 0 8 -262144
-1 -1 0 1;
#X obj 343 -2 knob 30 30 0 3000 0 0 empty empty empty 0 -8 0 8 -262144
-1 -1 0 1;
#X text 340 -24 Freq;
#X text 187 -40 WAV TYPE;
#X text 409 -41 WAV FORM;
#X text 411 -24 Wave Cut;
#X text 303 -24 Range;
#N canvas 466 176 450 300 frqrng 0;
#X obj 38 24 inlet;
#X obj 141 24 inlet;
#X obj 186 25 inlet;
#X obj 85 116 * 2000;
#X obj 115 147 + 100;
#X obj 141 64 t b f;
#X obj 186 65 t b f;
#X floatatom 38 116 5 0 0 0 - - -;
#X obj 115 207 outlet;
#X floatatom 131 172 5 0 0 0 - - -;
#X floatatom 200 106 5 0 0 0 - - -;
#X floatatom 238 106 5 0 0 0 - - -;
#X floatatom 58 148 5 0 0 0 - - -;
#X text 162 206 Bandpass Filter (centre frequency);
#X connect 0 0 3 0;
#X connect 0 0 7 0;
#X connect 1 0 5 0;
#X connect 2 0 6 0;
#X connect 3 0 4 0;
#X connect 3 0 12 0;
#X connect 4 0 8 0;
#X connect 4 0 9 0;
#X connect 5 0 3 0;
#X connect 5 1 3 1;
#X connect 5 1 10 0;
#X connect 6 0 4 0;
#X connect 6 1 4 1;
#X connect 6 1 11 0;
#X restore 264 39 pd frqrng;
#X obj 104 405 s intvl;
#X obj 135 -3 r intvl;
#X text 132 -21 Interval;
#X obj 178 64 s env;
#X obj 264 -4 r env;
#X text 259 -23 Envlpe;
#X obj 264 63 s cfreq;
#X obj 22 54 tgl 15 0 empty empty empty 17 7 0 10 -262144 -1 -1 1 1
;
#X text 20 -39 POWER;
#X text 19 37 AUDIO;
#X obj 38 69 s aud;
#X obj 760 162 r~ sin;
#X obj 760 118 r~ saw;
#X obj 806 99 r~ tri;
#X obj 896 99 r~ sqr;
#X obj 939 140 r cfreq;
#X obj 21 433 s sVol;
#X obj 761 139 r sVol;
#X obj 759 98 r sVol;
#X obj 852 99 r sVol;
#X obj 939 99 r sVol;
#X obj 24 303 s vol;
#X obj 937 162 r vol;
#X floatatom 187 433 5 0 0 0 - - -;
#X obj 187 403 expr 550 / $f1;
#X obj 230 431 s coff2;
#X obj 899 43 s cff2;
#X obj 415 -8 r cff2;
#X obj 942 43 s cff3;
#X obj 415 12 r cff3;
#X obj 942 20 s cff4;
#X obj 415 32 r cff4;
#N canvas 363 140 450 300 cutoff 0;
#X obj 82 149 knob 30 30 0 550 0 0 empty empty empty 0 -8 0 8 -262144
-1 -1 959 1;
#X obj 34 149 knob 30 30 0 550 0 0 empty empty empty 0 -8 0 8 -262144
-1 -1 580 1;
#X obj 82 57 expr 20000 / $f1;
#X obj 186 148 knob 30 30 0 550 0 0 empty empty empty 0 -8 0 8 -262144
-1 -1 870 1;
#X obj 287 147 knob 30 30 0 650 0 0 empty empty empty 0 -8 0 8 -262144
-1 -1 946 1;
#X obj 186 74 expr 30000 / $f1;
#X obj 287 91 expr 35000 / $f1;
#X obj 34 210 outlet;
#X obj 82 211 outlet;
#X obj 186 210 outlet;
#X obj 287 209 outlet;
#X obj 34 19 inlet;
#X connect 0 0 8 0;
#X connect 1 0 7 0;
#X connect 2 0 0 0;
#X connect 2 0 5 0;
#X connect 3 0 9 0;
#X connect 4 0 10 0;
#X connect 5 0 3 0;
#X connect 5 0 6 0;
#X connect 6 0 4 0;
#X connect 11 0 1 0;
#X connect 11 0 2 0;
#X restore 860 3 pd cutoff;
#X obj 860 -16 r coff2;
#X obj 939 118 r~ vce;
#X obj 139 327 s~ vce;
#X obj 825 205 s~ masSnd;
#N canvas 225 51 793 427 rythmUnit 0;
#X obj 361 25 hsl 128 15 0 200 0 0 empty empty empty -2 -8 0 10 -262144
-1 -1 0 1;
#X obj 500 25 hsl 128 15 1000 1500 0 0 empty empty empty -2 -8 0 10
-262144 -1 -1 0 1;
#X obj 221 25 hsl 128 15 400 800 0 0 empty empty empty -2 -8 0 10 -262144
-1 -1 0 1;
#X text 496 7 High End Percussion;
#X text 356 7 Mid End Percussion;
#X text 216 8 Low End Percussion;
#X obj 639 25 hsl 128 15 150 350 0 0 empty empty empty -2 -8 0 10 -262144
-1 -1 5700 1;
#X text 635 7 High End Percussion;
#X obj 570 82 tgl 15 0 empty empty empty 17 7 0 10 -262144 -1 -1 0
1;
#X obj 570 100 tgl 15 0 empty empty empty 17 7 0 10 -262144 -1 -1 1
1;
#N canvas 180 96 450 300 hb 0;
#X obj -2065 -275 osc~;
#X obj -2030 -276 phasor~;
#X obj -2065 -305 sig~;
#X obj -2029 -303 sig~;
#X obj -2065 -120 *~ *;
#X obj -2065 -93 *~ *;
#X obj -1975 -303 sig~;
#X obj -2066 -231 +~;
#X obj -2065 -198 *~;
#X obj -2015 -230 +~ *;
#X obj -1976 -276 noise~;
#X obj -2065 -170 hip~ 1;
#X obj -2065 -337 inlet;
#X obj -2066 -61 outlet~;
#X obj -1893 -110 inlet;
#X obj -1934 -247 inlet;
#X obj -1908 -137 inlet;
#X obj -2065 -145 *~ *;
#X obj -1918 -162 inlet;
#X connect 0 0 7 0;
#X connect 1 0 7 1;
#X connect 2 0 0 0;
#X connect 3 0 1 0;
#X connect 4 0 5 0;
#X connect 5 0 13 0;
#X connect 6 0 10 0;
#X connect 7 0 8 0;
#X connect 8 0 11 0;
#X connect 9 0 8 1;
#X connect 10 0 9 0;
#X connect 11 0 17 0;
#X connect 12 0 2 0;
#X connect 12 0 3 0;
#X connect 12 0 6 0;
#X connect 14 0 5 1;
#X connect 15 0 9 1;
#X connect 16 0 4 1;
#X connect 17 0 4 0;
#X connect 18 0 17 1;
#X restore 497 115 pd hb;
#X obj 517 46 knob 25 25 0 0.1 0 0 empty empty empty 0 -8 0 8 -262144
-1 -1 0 1;
#X text 542 41 Volume;
#X text 586 79 Sqr;
#X text 586 98 Sound;
#X obj 429 80 tgl 15 0 empty empty empty 17 7 0 10 -262144 -1 -1 0
1;
#X obj 429 98 tgl 15 0 empty empty empty 17 7 0 10 -262144 -1 -1 1
1;
#X obj 378 46 knob 25 25 0 0.5 0 0 empty empty empty 0 -8 0 8 -262144
-1 -1 0 1;
#X text 403 40 Volume;
#X text 445 77 Sqr;
#X text 445 96 Sound;
#X obj 293 81 tgl 15 0 empty empty empty 17 7 0 10 -262144 -1 -1 0
1;
#X obj 293 99 tgl 15 0 empty empty empty 17 7 0 10 -262144 -1 -1 1
1;
#X obj 238 46 knob 25 25 0 0.5 0 0 empty empty empty 0 -8 0 8 -262144
-1 -1 0 1;
#X text 262 40 Volume;
#X text 309 78 Sqr;
#X text 309 97 Sound;
#X obj 728 82 tgl 15 0 empty empty empty 17 7 0 10 -262144 -1 -1 0
1;
#X obj 728 100 tgl 15 0 empty empty empty 17 7 0 10 -262144 -1 -1 1
1;
#X obj 665 46 knob 25 25 0 0.1 0 0 empty empty empty 0 -8 0 8 -262144
-1 -1 0 1;
#X text 691 41 Volume;
#X text 744 79 Sqr;
#X text 744 98 Sound;
#N canvas 170 108 547 345 mb 0;
#X obj 21 72 osc~;
#X obj 56 71 phasor~;
#X obj 21 42 sig~;
#X obj 57 44 sig~;
#X obj 19 234 *~ *;
#X obj 19 267 *~ *;
#X obj 111 44 sig~;
#X obj 110 71 square~;
#X obj 20 109 +~;
#X obj 20 142 *~;
#X obj 71 110 +~ *;
#X obj 20 172 lop~ 200;
#X obj 18 299 outlet~;
#X obj 161 93 inlet;
#X obj 222 250 inlet;
#X obj 21 11 inlet;
#X obj 206 217 inlet;
#X obj 20 203 *~ *;
#X obj 192 186 inlet;
#X connect 0 0 8 0;
#X connect 1 0 8 1;
#X connect 2 0 0 0;
#X connect 3 0 1 0;
#X connect 4 0 5 0;
#X connect 5 0 12 0;
#X connect 6 0 7 0;
#X connect 7 0 10 0;
#X connect 8 0 9 0;
#X connect 9 0 11 0;
#X connect 10 0 9 1;
#X connect 11 0 17 0;
#X connect 13 0 10 1;
#X connect 14 0 5 1;
#X connect 15 0 2 0;
#X connect 15 0 3 0;
#X connect 15 0 6 0;
#X connect 16 0 4 1;
#X connect 17 0 4 0;
#X connect 18 0 17 1;
#X restore 358 113 pd mb;
#N canvas 169 139 450 300 lb 0;
#X obj 51 78 phasor~;
#X obj 52 48 sig~;
#X obj 105 47 sig~;
#X obj 104 78 square~;
#X obj 35 121 +~;
#X obj 36 154 *~;
#X obj 104 126 +~ *;
#X obj 16 78 osc~;
#X obj 16 48 sig~;
#X obj 156 109 inlet;
#X obj 37 234 *~ *;
#X obj 37 262 *~ *;
#X obj 36 180 lop~ 40;
#X obj 196 245 inlet;
#X obj 78 279 outlet~;
#X obj 16 16 inlet;
#X obj 181 217 inlet;
#X obj 37 206 *~ *;
#X obj 168 189 inlet;
#X connect 0 0 4 1;
#X connect 1 0 0 0;
#X connect 2 0 3 0;
#X connect 3 0 6 0;
#X connect 4 0 5 0;
#X connect 5 0 12 0;
#X connect 6 0 5 1;
#X connect 7 0 4 0;
#X connect 8 0 7 0;
#X connect 9 0 6 1;
#X connect 10 0 11 0;
#X connect 11 0 14 0;
#X connect 12 0 17 0;
#X connect 13 0 11 1;
#X connect 15 0 8 0;
#X connect 15 0 1 0;
#X connect 15 0 2 0;
#X connect 16 0 10 1;
#X connect 17 0 10 0;
#X connect 18 0 17 1;
#X restore 218 114 pd lb;
#N canvas 121 66 450 300 hbII 0;
#X obj -2055 -265 osc~;
#X obj -2020 -266 phasor~;
#X obj -2055 -295 sig~;
#X obj -2019 -293 sig~;
#X obj -2055 -111 *~ *;
#X obj -2055 -84 *~ *;
#X obj -1965 -293 sig~;
#X obj -2056 -224 +~;
#X obj -2055 -195 *~;
#X obj -2005 -223 +~ *;
#X obj -1966 -266 noise~;
#X obj -2055 -327 inlet;
#X obj -2056 -52 outlet~;
#X obj -1875 -101 inlet;
#X obj -1920 -240 inlet;
#X obj -1890 -128 inlet;
#X obj -2055 -167 hip~ 3;
#X obj -2055 -141 *~ *;
#X obj -1900 -158 inlet;
#X connect 0 0 7 0;
#X connect 1 0 7 1;
#X connect 2 0 0 0;
#X connect 3 0 1 0;
#X connect 4 0 5 0;
#X connect 5 0 12 0;
#X connect 6 0 10 0;
#X connect 7 0 8 0;
#X connect 8 0 16 0;
#X connect 9 0 8 1;
#X connect 10 0 9 0;
#X connect 11 0 2 0;
#X connect 11 0 3 0;
#X connect 11 0 6 0;
#X connect 13 0 5 1;
#X connect 14 0 9 1;
#X connect 15 0 4 1;
#X connect 16 0 17 0;
#X connect 17 0 4 0;
#X connect 18 0 17 1;
#X restore 636 115 pd hbII;
#N canvas 223 174 450 300 mbtmp 0;
#X obj 19 29 hradio 15 1 0 16 empty empty empty 0 -8 0 10 -262144 -1
-1 4;
#X floatatom 62 -12 5 0 0 0 - - -;
#X obj 140 134 tgl 15 0 empty empty empty 17 7 0 10 -262144 -1 -1 0
1;
#X obj 19 53 select 0 1 2 3 4 5 6 7 8 9 10 11 12 13 14 15 16;
#X obj 19 -29 inlet;
#X obj 140 158 outlet;
#X connect 0 0 3 0;
#X connect 2 0 5 0;
#X connect 3 0 2 0;
#X connect 3 1 2 0;
#X connect 3 2 2 0;
#X connect 3 3 2 0;
#X connect 3 4 2 0;
#X connect 3 5 2 0;
#X connect 3 6 2 0;
#X connect 3 7 2 0;
#X connect 3 8 2 0;
#X connect 3 9 2 0;
#X connect 3 10 2 0;
#X connect 3 11 2 0;
#X connect 3 12 2 0;
#X connect 3 13 2 0;
#X connect 3 14 2 0;
#X connect 3 15 2 0;
#X connect 3 16 2 0;
#X connect 4 0 1 0;
#X connect 4 0 0 0;
#X restore 100 330 pd mbtmp;
#X obj 100 222 s lbt;
#X obj 274 59 r lbt;
#X text 308 62 Tempo;
#X obj 100 352 s mbt;
#X obj 444 222 s hbt;
#X obj 443 353 s hbtII;
#X obj 218 137 s~ lba;
#X obj 410 58 r mbt;
#X text 444 61 Tempo;
#X obj 357 137 s~ mba;
#X obj 496 137 s~ hba;
#X obj 636 137 s~ hbaII;
#X text 585 62 Tempo;
#X obj 551 59 r hbt;
#X text 743 60 Tempo;
#X obj 697 57 r hbtII;
#X text 86 -3 TEMPO;
#X text 216 -3 PERC;
#X obj 7 20 tgl 15 0 empty empty empty 17 7 0 10 -262144 -1 -1 1 1
;
#X obj 664 226 knob 32 32 0 1 0 0 empty empty empty 0 -8 0 8 -262144
-1 -1 1700 1;
#X text 661 193 VOL;
#X obj 90 29 inlet;
#X text 87 11 Tempo Master;
#X text 658 205 (local volume);
#X obj 7 44 s raud;
#X obj 664 269 s rvol;
#X floatatom 156 46 5 0 0 0 - - -;
#N canvas 214 205 450 300 sndOUT 0;
#N canvas 478 180 450 300 percMix 0;
#X text 16 99 Enable Quadrophonic Sound;
#X obj 173 100 spigot~;
#X obj 173 150 outlet~;
#X obj 172 40 inlet~;
#X obj 270 83 inlet;
#X obj 234 151 outlet~;
#X connect 1 0 2 0;
#X connect 1 1 5 0;
#X connect 3 0 1 0;
#X connect 4 0 1 1;
#X restore 76 102 pd percMix;
#X obj 29 49 r~ lba;
#X obj 75 49 r~ mba;
#X obj 120 49 r~ hba;
#X obj 166 49 r~ hbaII;
#X text 27 33 MIX;
#X obj 76 144 *~ *;
#X obj 134 154 *~ *;
#X text 289 104 Volume (sound Db Level);
#X obj 75 174 outlet~;
#X text 222 29 Audio Output Type (Later Integration);
#X obj 225 50 inlet;
#X obj 289 127 inlet;
#X connect 0 0 6 0;
#X connect 0 1 7 0;
#X connect 1 0 0 0;
#X connect 2 0 0 0;
#X connect 3 0 0 0;
#X connect 4 0 0 0;
#X connect 6 0 9 0;
#X connect 11 0 0 1;
#X connect 12 0 6 1;
#X connect 12 0 7 1;
#X restore 664 375 pd sndOUT;
#X obj 663 398 outlet~;
#X text 4 0 AUDIO;
#X text 661 329 SOUND OUTPUT;
#X obj 715 348 r rvol;
#X obj 664 350 tgl 15 0 empty empty empty 17 7 0 10 -262144 -1 -1 0
1;
#X obj 11 270 hradio 16 1 0 16 empty empty empty 0 -8 0 10 -262144
-1 -1 12;
#X obj 12 224 s bseqr;
#N canvas 389 121 568 404 lbtmp 0;
#X obj 17 59 hradio 15 1 0 16 empty empty empty 0 -8 0 10 -262144 -1
-1 12;
#X floatatom 60 18 5 0 0 0 - - -;
#X obj 138 164 tgl 15 0 empty empty empty 17 7 0 10 -262144 -1 -1 0
1;
#X obj 17 83 select 0 1 2 3 4 5 6 7 8 9 10 11 12 13 14 15 16;
#X obj 17 1 inlet;
#X obj 138 188 outlet;
#X connect 0 0 3 0;
#X connect 2 0 5 0;
#X connect 3 0 2 0;
#X connect 3 1 2 0;
#X connect 3 2 2 0;
#X connect 3 3 2 0;
#X connect 3 4 2 0;
#X connect 3 5 2 0;
#X connect 3 6 2 0;
#X connect 3 7 2 0;
#X connect 3 8 2 0;
#X connect 3 9 2 0;
#X connect 3 10 2 0;
#X connect 3 11 2 0;
#X connect 3 12 2 0;
#X connect 3 13 2 0;
#X connect 3 14 2 0;
#X connect 3 15 2 0;
#X connect 3 16 2 0;
#X connect 4 0 1 0;
#X connect 4 0 0 0;
#X restore 100 199 pd lbtmp;
#X floatatom 62 223 5 0 0 0 - - -;
#X obj 6 84 s rmtempo;
#X obj 35 177 r rmtempo;
#X obj 12 169 tgl 15 0 empty empty empty 17 7 0 10 -262144 -1 -1 0
1;
#N canvas 461 142 450 300 bdTempoSet 0;
#X obj 71 25 inlet;
#X obj 38 255 outlet;
#X obj 38 162 metro;
#X obj 32 117 tgl 15 0 empty empty empty 17 7 0 10 -262144 -1 -1 0
1;
#X obj 38 194 counter;
#X obj 38 225 mod 16;
#X obj 32 25 inlet;
#X floatatom 115 134 5 0 0 0 - - -;
#X floatatom 70 134 5 0 0 0 - - -;
#X obj 70 51 expr 60000 / $f1;
#X floatatom 115 87 5 0 0 0 - - -;
#X obj 70 86 i;
#X connect 0 0 9 0;
#X connect 2 0 4 0;
#X connect 3 0 2 0;
#X connect 4 0 5 0;
#X connect 5 0 1 0;
#X connect 6 0 3 0;
#X connect 8 0 2 1;
#X connect 9 0 10 0;
#X connect 9 0 11 0;
#X connect 11 0 8 0;
#X connect 11 0 7 0;
#X restore 12 200 pd bdTempoSet;
#X obj 100 177 r bseqr;
#X obj 11 247 r bseqr;
#X obj 11 402 hradio 16 1 0 16 empty empty empty 0 -8 0 10 -262144
-1 -1 4;
#X floatatom 61 351 5 0 0 0 - - -;
#X obj 35 309 r rmtempo;
#X obj 11 299 tgl 15 0 empty empty empty 17 7 0 10 -262144 -1 -1 1
1;
#X obj 100 308 r mseqr;
#X text 32 161 Low End Perussion;
#X text 35 292 Mid End Percussion;
#X obj 11 354 s mseqr;
#N canvas 461 142 450 300 mdTempoSet 0;
#X obj 71 25 inlet;
#X obj 38 255 outlet;
#X obj 38 162 metro;
#X obj 32 117 tgl 15 0 empty empty empty 17 7 0 10 -262144 -1 -1 1
1;
#X obj 38 194 counter;
#X obj 38 225 mod 16;
#X obj 32 25 inlet;
#X floatatom 115 134 5 0 0 0 - - -;
#X floatatom 70 134 5 0 0 0 - - -;
#X obj 70 51 expr 60000 / $f1;
#X floatatom 115 87 5 0 0 0 - - -;
#X obj 70 86 i;
#X connect 0 0 9 0;
#X connect 2 0 4 0;
#X connect 3 0 2 0;
#X connect 4 0 5 0;
#X connect 5 0 1 0;
#X connect 6 0 3 0;
#X connect 8 0 2 1;
#X connect 9 0 10 0;
#X connect 9 0 11 0;
#X connect 11 0 8 0;
#X connect 11 0 7 0;
#X restore 11 332 pd mdTempoSet;
#X obj 11 378 r mseqr;
#X obj 344 402 hradio 16 1 0 16 empty empty empty 0 -8 0 10 -262144
-1 -1 7;
#X floatatom 397 353 5 0 0 0 - - -;
#X obj 343 308 tgl 15 0 empty empty empty 17 7 0 10 -262144 -1 -1 1
1;
#N canvas 461 142 450 374 hhTempoSet 0;
#X obj 63 14 inlet;
#X obj 29 350 outlet;
#X obj 29 257 metro;
#X obj 24 194 tgl 15 0 empty empty empty 17 7 0 10 -262144 -1 -1 1
1;
#X obj 29 289 counter;
#X obj 29 320 mod 16;
#X obj 24 14 inlet;
#X floatatom 108 229 5 0 0 0 - - -;
#X floatatom 63 229 5 0 0 0 - - -;
#X obj 63 143 expr 60000 / $f1;
#X floatatom 108 182 5 0 0 0 - - -;
#X obj 63 181 i;
#X floatatom 175 241 5 0 0 0 - - -;
#X floatatom 202 182 5 0 0 0 - - -;
#X obj 175 184 i;
#X floatatom 97 337 5 0 0 0 - - -;
#X obj 63 45 select 0 1;
#X obj 63 84 s rmtempo;
#X obj 64 119 r rmtempo;
#X obj 175 144 expr 60000 / $f1;
#X obj 175 118 r rmdhtempo;
#X obj 174 83 s rmdhtempo;
#X connect 0 0 16 0;
#X connect 2 0 4 0;
#X connect 3 0 2 0;
#X connect 4 0 5 0;
#X connect 5 0 1 0;
#X connect 5 0 15 0;
#X connect 6 0 3 0;
#X connect 8 0 2 1;
#X connect 9 0 10 0;
#X connect 9 0 11 0;
#X connect 11 0 8 0;
#X connect 11 0 7 0;
#X connect 12 0 2 1;
#X connect 14 0 12 0;
#X connect 16 0 17 0;
#X connect 16 1 21 0;
#X connect 18 0 9 0;
#X connect 19 0 13 0;
#X connect 19 0 14 0;
#X connect 20 0 19 0;
#X restore 343 330 pd hhTempoSet;
#X obj 342 270 hradio 16 1 0 16 empty empty empty 0 -8 0 10 -262144
-1 -1 10;
#X floatatom 392 222 5 0 0 0 - - -;
#X obj 342 178 tgl 15 0 empty empty empty 17 7 0 10 -262144 -1 -1 0
1;
#X obj 342 223 s hseqr;
#X obj 342 247 r hseqr;
#X text 339 160 High End Percussion;
#N canvas 178 99 450 300 hbtmp 0;
#X obj 17 46 hradio 15 1 0 16 empty empty empty 0 -8 0 10 -262144 -1
-1 10;
#X floatatom 60 5 5 0 0 0 - - -;
#X obj 138 151 tgl 15 0 empty empty empty 17 7 0 10 -262144 -1 -1 0
1;
#X obj 17 70 select 0 1 2 3 4 5 6 7 8 9 10 11 12 13 14 15 16;
#X obj 17 -12 inlet;
#X obj 138 175 outlet;
#X connect 0 0 3 0;
#X connect 2 0 5 0;
#X connect 3 0 2 0;
#X connect 3 1 2 0;
#X connect 3 2 2 0;
#X connect 3 3 2 0;
#X connect 3 4 2 0;
#X connect 3 5 2 0;
#X connect 3 6 2 0;
#X connect 3 7 2 0;
#X connect 3 8 2 0;
#X connect 3 9 2 0;
#X connect 3 10 2 0;
#X connect 3 11 2 0;
#X connect 3 12 2 0;
#X connect 3 13 2 0;
#X connect 3 14 2 0;
#X connect 3 15 2 0;
#X connect 3 16 2 0;
#X connect 4 0 1 0;
#X connect 4 0 0 0;
#X restore 444 200 pd hbtmp;
#X obj 444 177 r hseqr;
#X obj 443 309 r hhseqr;
#N canvas 222 123 450 300 hhbtmp 0;
#X obj 12 52 hradio 15 1 0 16 empty empty empty 0 -8 0 10 -262144 -1
-1 7;
#X floatatom 55 11 5 0 0 0 - - -;
#X obj 133 157 tgl 15 0 empty empty empty 17 7 0 10 -262144 -1 -1 1
1;
#X obj 12 76 select 0 1 2 3 4 5 6 7 8 9 10 11 12 13 14 15 16;
#X obj 12 -6 inlet;
#X obj 133 181 outlet;
#X connect 0 0 3 0;
#X connect 2 0 5 0;
#X connect 3 0 2 0;
#X connect 3 1 2 0;
#X connect 3 2 2 0;
#X connect 3 3 2 0;
#X connect 3 4 2 0;
#X connect 3 5 2 0;
#X connect 3 6 2 0;
#X connect 3 7 2 0;
#X connect 3 8 2 0;
#X connect 3 9 2 0;
#X connect 3 10 2 0;
#X connect 3 11 2 0;
#X connect 3 12 2 0;
#X connect 3 13 2 0;
#X connect 3 14 2 0;
#X connect 3 15 2 0;
#X connect 3 16 2 0;
#X connect 4 0 1 0;
#X connect 4 0 0 0;
#X restore 443 331 pd hhbtmp;
#X obj 343 354 s hhseqr;
#X obj 344 379 r hhseqr;
#N canvas 327 91 450 417 hTempoSet 0;
#X obj 71 25 inlet;
#X obj 37 361 outlet;
#X obj 37 268 metro;
#X obj 32 205 tgl 15 0 empty empty empty 17 7 0 10 -262144 -1 -1 0
1;
#X obj 37 300 counter;
#X obj 37 331 mod 16;
#X obj 32 25 inlet;
#X floatatom 116 240 5 0 0 0 - - -;
#X floatatom 71 240 5 0 0 0 - - -;
#X obj 71 154 expr 60000 / $f1;
#X floatatom 116 193 5 0 0 0 - - -;
#X obj 71 192 i;
#X floatatom 183 252 5 0 0 0 - - -;
#X floatatom 210 193 5 0 0 0 - - -;
#X obj 183 195 i;
#X floatatom 105 348 5 0 0 0 - - -;
#X obj 71 56 select 0 1;
#X obj 182 94 s rmdtempo;
#X obj 71 95 s rmtempo;
#X obj 72 130 r rmtempo;
#X obj 183 129 r rmdtempo;
#X obj 183 155 expr 60000 / $f1;
#X connect 0 0 16 0;
#X connect 2 0 4 0;
#X connect 3 0 2 0;
#X connect 4 0 5 0;
#X connect 5 0 1 0;
#X connect 5 0 15 0;
#X connect 6 0 3 0;
#X connect 8 0 2 1;
#X connect 9 0 10 0;
#X connect 9 0 11 0;
#X connect 11 0 8 0;
#X connect 11 0 7 0;
#X connect 12 0 2 1;
#X connect 14 0 12 0;
#X connect 16 0 18 0;
#X connect 16 1 17 0;
#X connect 19 0 9 0;
#X connect 20 0 21 0;
#X connect 21 0 13 0;
#X connect 21 0 14 0;
#X restore 342 199 pd hTempoSet;
#X text 340 291 High End II Percussion;
#X obj 390 177 hradio 15 1 0 2 empty empty empty 0 -8 0 10 -262144
-1 -1 1;
#X obj 79 61 * 2;
#X floatatom 156 78 5 0 0 0 - - -;
#X obj 5 107 s rmdtempo;
#X obj 395 308 hradio 15 1 0 2 empty empty empty 0 -8 0 10 -262144
-1 -1 0;
#X obj 122 56 * 2;
#X obj 5 133 s rmdhtempo;
#X floatatom 155 105 5 0 0 0 - - -;
#X connect 0 0 33 0;
#X connect 1 0 10 0;
#X connect 2 0 34 0;
#X connect 6 0 35 0;
#X connect 8 0 10 1;
#X connect 9 0 10 4;
#X connect 10 0 47 0;
#X connect 11 0 10 3;
#X connect 15 0 33 1;
#X connect 16 0 33 4;
#X connect 17 0 33 3;
#X connect 21 0 34 1;
#X connect 22 0 34 4;
#X connect 23 0 34 3;
#X connect 27 0 35 1;
#X connect 28 0 35 4;
#X connect 29 0 35 3;
#X connect 33 0 46 0;
#X connect 34 0 43 0;
#X connect 35 0 48 0;
#X connect 36 0 40 0;
#X connect 38 0 34 2;
#X connect 44 0 33 2;
#X connect 50 0 10 2;
#X connect 52 0 35 2;
#X connect 55 0 61 0;
#X connect 56 0 62 0;
#X connect 58 0 63 0;
#X connect 58 0 74 0;
#X connect 58 0 109 0;
#X connect 58 0 113 0;
#X connect 64 0 65 0;
#X connect 68 0 64 1;
#X connect 69 0 64 0;
#X connect 72 0 37 0;
#X connect 75 0 77 1;
#X connect 76 0 77 0;
#X connect 77 0 73 0;
#X connect 77 0 71 0;
#X connect 78 0 72 0;
#X connect 79 0 70 0;
#X connect 82 0 88 1;
#X connect 83 0 88 0;
#X connect 84 0 36 0;
#X connect 88 0 81 0;
#X connect 88 0 87 0;
#X connect 89 0 80 0;
#X connect 92 0 93 0;
#X connect 93 0 104 0;
#X connect 93 0 91 0;
#X connect 96 0 106 0;
#X connect 98 0 94 0;
#X connect 100 0 41 0;
#X connect 101 0 100 0;
#X connect 102 0 103 0;
#X connect 103 0 42 0;
#X connect 105 0 90 0;
#X connect 106 0 95 0;
#X connect 106 0 97 0;
#X connect 108 0 106 1;
#X connect 109 0 110 0;
#X connect 109 0 111 0;
#X connect 112 0 93 1;
#X connect 113 0 114 0;
#X connect 113 0 115 0;
#X restore 730 291 pd rythmUnit;
#X obj 802 392 *~;
#X obj 794 439 dac~;
#X obj 895 340 *~;
#N canvas 150 122 450 300 Recd 0;
#X obj 68 22 inlet~;
#X obj 124 24 inlet;
#X obj 273 25 inlet;
#X obj 316 25 inlet;
#X msg 124 66 open example.wav \, start;
#X msg 273 64 stop;
#X obj 67 162 writesf~ 2;
#X msg 316 133 open example.wav \, 1;
#X obj 316 159 readsf~ 2;
#X obj 295 206 outlet~;
#X obj 347 205 outlet~;
#X obj 398 205 outlet;
#X obj 13 23 inlet~;
#X connect 0 0 6 0;
#X connect 0 0 6 1;
#X connect 1 0 4 0;
#X connect 2 0 5 0;
#X connect 3 0 7 0;
#X connect 4 0 6 0;
#X connect 4 0 6 1;
#X connect 5 0 6 0;
#X connect 5 0 6 1;
#X connect 7 0 8 0;
#X connect 8 0 9 0;
#X connect 8 1 10 0;
#X connect 8 2 11 0;
#X connect 12 0 6 0;
#X connect 12 0 6 1;
#X restore 885 374 pd Recd;
#X obj 730 375 *~;
#X obj 788 322 *~;
#X obj 926 342 bng 15 250 50 0 empty empty empty 17 7 0 10 -262144
-1 -1;
#X obj 948 342 bng 15 250 50 0 empty empty empty 17 7 0 10 -262144
-1 -1;
#X obj 973 342 bng 15 250 50 0 empty empty empty 17 7 0 10 -262144
-1 -1;
#X text 924 325 On;
#X text 971 326 Playbk;
#X text 923 280 REC;
#X obj 837 375 r aud;
#X obj 816 239 r~ masSnd;
#X obj 926 307 tgl 15 0 empty empty empty 17 7 0 10 -262144 -1 -1 0
1;
#X text 923 291 Record;
#X text 944 325 Stop;
#X text 725 222 AUDIO;
#X obj 87 76 s rSync;
#X obj 745 346 r raud;
#X floatatom 134 77 5 0 0 0 - - -;
#N canvas 118 72 675 408 WaveFrmSet2 0;
#X obj 157 40 + 1;
#X obj 261 40 + 2;
#X obj 365 40 + 3;
#X obj 60 65 tgl 15 0 empty empty empty 17 7 0 10 -262144 -1 -1 1 1
;
#X obj 78 65 tgl 15 0 empty empty empty 17 7 0 10 -262144 -1 -1 0 1
;
#X obj 96 65 tgl 15 0 empty empty empty 17 7 0 10 -262144 -1 -1 0 1
;
#X obj 114 65 tgl 15 0 empty empty empty 17 7 0 10 -262144 -1 -1 0
1;
#X obj 172 64 tgl 15 0 empty empty empty 17 7 0 10 -262144 -1 -1 1
1;
#X obj 190 64 tgl 15 0 empty empty empty 17 7 0 10 -262144 -1 -1 0
1;
#X obj 208 64 tgl 15 0 empty empty empty 17 7 0 10 -262144 -1 -1 1
1;
#X obj 226 64 tgl 15 0 empty empty empty 17 7 0 10 -262144 -1 -1 0
1;
#X obj 277 64 tgl 15 0 empty empty empty 17 7 0 10 -262144 -1 -1 1
1;
#X obj 295 64 tgl 15 0 empty empty empty 17 7 0 10 -262144 -1 -1 0
1;
#X obj 313 64 tgl 15 0 empty empty empty 17 7 0 10 -262144 -1 -1 0
1;
#X obj 331 64 tgl 15 0 empty empty empty 17 7 0 10 -262144 -1 -1 0
1;
#N canvas 267 204 500 300 fmwave01 0;
#X obj 23 43 inlet;
#X obj 90 42 inlet;
#X obj 23 100 osc~;
#X obj 22 185 outlet~;
#X text 88 26 Sine (Osc);
#X obj 161 42 inlet;
#X obj 96 184 outlet~;
#X obj 97 99 phasor~;
#X text 159 25 Saw (Phasor);
#X text 22 26 Freq (Hz);
#X obj 62 143 *~;
#X obj 137 141 *~;
#X obj 22 125 *~ 0.4;
#X obj 98 125 *~ 0.4;
#X obj 336 80 bng 15 250 50 0 empty empty empty 17 7 0 10 -262144 -1
-1;
#X obj 247 41 inlet;
#X obj 322 42 inlet;
#X obj 192 183 outlet~;
#X obj 266 182 outlet~;
#X obj 232 141 *~;
#X obj 307 139 *~;
#X obj 192 123 *~ 0.4;
#X obj 268 123 *~ 0.4;
#X text 244 24 Triangle;
#X text 318 24 Square;
#N canvas 97 69 491 430 tri_1 0;
#X obj 35 37 inlet;
#X floatatom 35 94 5 0 0 0 - - -;
#X obj 35 151 phasor~;
#X obj 110 149 phasor~;
#X text 109 93 Phase Synchronisation;
#X obj 33 260 clip~ 0 1;
#X obj 109 261 clip~ 0 1;
#X obj 90 294 +~;
#N canvas 0 0 450 300 (subpatch) 0;
#X array triagraph 100 float 3;
#A 0 0.265541 0.255925 0.246309 0.236693 0.227077 0.217461 0.207845
0.198229 0.188613 0.178997 0.16938 0.159764 0.150148 0.140532 0.130916
0.1213 0.111684 0.102068 0.0924519 0.0828358 0.0732197 0.0636036 0.0539876
0.0443715 0.0347554 0.0251393 0.0155233 0.00590718 0.0037089 0.013325
0.0229411 0.0325571 0.0421732 0.0517893 0.0614054 0.0710214 0.0806375
0.0902536 0.0998697 0.109486 0.119102 0.128718 0.138334 0.14795 0.157566
0.167182 0.176798 0.186414 0.19603 0.205647 0.215263 0.224879 0.234495
0.244111 0.253727 0.263343 0.272959 0.282575 0.292191 0.301807 0.311423
0.321039 0.330656 0.340272 0.349888 0.359504 0.36912 0.378736 0.388352
0.397968 0.407584 0.4172 0.426816 0.436432 0.446048 0.455665 0.465281
0.474897 0.484513 0.494129 0.503745 0.513361 0.522977 0.532593 0.542209
0.551825 0.561441 0.571057 0.580673 0.59029 0.599906 0.609522 0.619138
0.628754 0.63837 0.647986 0.657602 0.667218 0.676834 0.68645;
#X coords 0 1 99 -1 200 140 1;
#X restore 205 160 graph;
#X obj 66 120 * -1;
#X obj 36 225 -~ -1;
#X obj 109 226 -~ -1;
#X obj 135 296 bng 15 250 50 0 empty empty empty 17 7 0 10 -262144
-1 -1;
#X text 132 278 graph;
#X obj 36 189 *~ -2;
#X obj 110 187 *~ -2;
#X text 32 71 comment;
#X obj 118 328 tabwrite~ triagraph;
#X obj 90 355 outlet~;
#X msg 110 111 0;
#X connect 0 0 1 0;
#X connect 1 0 2 0;
#X connect 1 0 9 0;
#X connect 2 0 14 0;
#X connect 3 0 15 0;
#X connect 5 0 7 0;
#X connect 6 0 7 1;
#X connect 7 0 17 0;
#X connect 7 0 18 0;
#X connect 9 0 3 0;
#X connect 10 0 5 0;
#X connect 11 0 6 0;
#X connect 12 0 17 0;
#X connect 14 0 10 0;
#X connect 15 0 11 0;
#X connect 19 0 2 1;
#X connect 19 0 3 0;
#X restore 192 97 pd tri_1;
#N canvas 436 204 450 300 sqr1_1 0;
#X obj 34 31 inlet;
#X obj 34 105 phasor~;
#X obj 110 106 phasor~;
#X msg 120 67 0;
#X msg 158 68 0.5;
#X obj 67 63 *~ 1;
#X obj 70 139 +~;
#X obj 70 168 -~ 1;
#X obj 107 221 tabwrite~ square;
#X obj 124 192 bng 15 250 50 0 empty empty empty 17 7 0 10 -262144
-1 -1;
#N canvas 0 0 450 300 (subpatch) 0;
#X array square 100 float 3;
#A 0 -0.934192 -0.914146 -0.894101 -0.874056 -0.85401 -0.833965 -0.81392
-0.793874 -0.773829 -0.753784 -0.733738 -0.713693 -0.693648 -0.673602
-0.653557 -0.633512 -0.613466 -0.593421 -0.573375 -0.55333 -0.533285
-0.513239 -0.493194 -0.473149 -0.453103 -0.433058 -0.413013 -0.392967
-0.372922 -0.352877 -0.332831 -0.312786 -0.292741 -0.272695 -0.25265
-0.232605 -0.212559 -0.192514 -0.172468 -0.152423 -0.132378 -0.112332
-0.092287 -0.0722417 -0.0521963 -0.032151 -0.0121056 0.0079397 0.0279851
0.0480304 0.0680758 0.0881212 0.108166 0.128212 0.148257 0.168303 0.188348
0.208393 0.228439 0.248484 0.268529 0.288575 0.30862 0.328665 0.348711
0.368756 0.388801 0.408847 0.428892 0.448937 0.468983 0.489028 0.509073
0.529119 0.549164 0.56921 0.589255 0.6093 0.629346 0.649391 0.669436
0.689482 0.709527 0.729572 0.749618 0.769663 0.789708 0.809754 0.829799
0.849844 0.86989 0.889935 0.909981 0.930026 0.950071 0.970117 0.990162
-0.989793 -0.969747 -0.949702;
#X coords 0 1 99 -1 200 140 1;
#X restore 207 63 graph;
#X obj 158 32 inlet;
#X obj 70 251 outlet~;
#X text 158 10 Phase Synchronisation;
#X connect 0 0 1 0;
#X connect 0 0 5 0;
#X connect 1 0 6 0;
#X connect 2 0 6 1;
#X connect 3 0 1 1;
#X connect 4 0 2 1;
#X connect 5 0 2 0;
#X connect 6 0 7 0;
#X connect 7 0 8 0;
#X connect 7 0 12 0;
#X connect 9 0 8 0;
#X connect 11 0 4 0;
#X connect 11 0 3 0;
#X restore 269 95 pd sqr1_1;
#X connect 0 0 2 0;
#X connect 0 0 7 0;
#X connect 1 0 10 1;
#X connect 2 0 12 0;
#X connect 5 0 11 1;
#X connect 7 0 13 0;
#X connect 10 0 3 0;
#X connect 11 0 6 0;
#X connect 12 0 10 0;
#X connect 13 0 11 0;
#X connect 14 0 26 1;
#X connect 15 0 19 1;
#X connect 16 0 20 1;
#X connect 19 0 17 0;
#X connect 20 0 18 0;
#X connect 21 0 19 0;
#X connect 22 0 20 0;
#X connect 25 0 21 0;
#X connect 26 0 22 0;
#X restore 47 102 pd fmwave01;
#N canvas 399 229 450 300 fmwave02 0;
#X obj 24 32 inlet;
#X obj 91 31 inlet;
#X obj 24 89 osc~;
#X obj 23 174 outlet~;
#X text 89 15 Sine (Osc);
#X obj 162 31 inlet;
#X obj 97 173 outlet~;
#X obj 98 88 phasor~;
#X text 160 14 Saw (Phasor);
#X text 25 15 Freq (Hz);
#X obj 63 132 *~;
#X obj 138 130 *~;
#X obj 23 114 *~ 0.1;
#X obj 99 114 *~ 0.1;
#X obj 330 69 bng 15 250 50 0 empty empty empty 17 7 0 10 -262144 -1
-1;
#X obj 241 30 inlet;
#X obj 316 31 inlet;
#X obj 186 172 outlet~;
#X obj 260 171 outlet~;
#X obj 226 130 *~;
#X obj 301 128 *~;
#X obj 186 112 *~ 0.4;
#X obj 262 112 *~ 0.4;
#X text 238 13 Triangle;
#X text 312 13 Square;
#N canvas 97 69 491 430 tri_02 0;
#X obj 35 37 inlet;
#X floatatom 35 94 5 0 0 0 - - -;
#X obj 35 151 phasor~;
#X obj 110 149 phasor~;
#X text 109 93 Phase Synchronisation;
#X obj 33 260 clip~ 0 1;
#X obj 109 261 clip~ 0 1;
#X obj 90 294 +~;
#N canvas 0 0 450 300 (subpatch) 0;
#X array triagraph 100 float 3;
#A 0 0.265541 0.255925 0.246309 0.236693 0.227077 0.217461 0.207845
0.198229 0.188613 0.178997 0.16938 0.159764 0.150148 0.140532 0.130916
0.1213 0.111684 0.102068 0.0924519 0.0828358 0.0732197 0.0636036 0.0539876
0.0443715 0.0347554 0.0251393 0.0155233 0.00590718 0.0037089 0.013325
0.0229411 0.0325571 0.0421732 0.0517893 0.0614054 0.0710214 0.0806375
0.0902536 0.0998697 0.109486 0.119102 0.128718 0.138334 0.14795 0.157566
0.167182 0.176798 0.186414 0.19603 0.205647 0.215263 0.224879 0.234495
0.244111 0.253727 0.263343 0.272959 0.282575 0.292191 0.301807 0.311423
0.321039 0.330656 0.340272 0.349888 0.359504 0.36912 0.378736 0.388352
0.397968 0.407584 0.4172 0.426816 0.436432 0.446048 0.455665 0.465281
0.474897 0.484513 0.494129 0.503745 0.513361 0.522977 0.532593 0.542209
0.551825 0.561441 0.571057 0.580673 0.59029 0.599906 0.609522 0.619138
0.628754 0.63837 0.647986 0.657602 0.667218 0.676834 0.68645;
#X coords 0 1 99 -1 200 140 1;
#X restore 205 160 graph;
#X obj 66 120 * -1;
#X obj 36 225 -~ -1;
#X obj 109 226 -~ -1;
#X obj 135 296 bng 15 250 50 0 empty empty empty 17 7 0 10 -262144
-1 -1;
#X text 132 278 graph;
#X obj 36 189 *~ -2;
#X obj 110 187 *~ -2;
#X text 32 71 comment;
#X obj 118 328 tabwrite~ triagraph;
#X obj 90 355 outlet~;
#X msg 110 111 0;
#X connect 0 0 1 0;
#X connect 1 0 2 0;
#X connect 1 0 9 0;
#X connect 2 0 14 0;
#X connect 3 0 15 0;
#X connect 5 0 7 0;
#X connect 6 0 7 1;
#X connect 7 0 17 0;
#X connect 7 0 18 0;
#X connect 9 0 3 0;
#X connect 10 0 5 0;
#X connect 11 0 6 0;
#X connect 12 0 17 0;
#X connect 14 0 10 0;
#X connect 15 0 11 0;
#X connect 19 0 2 1;
#X connect 19 0 3 0;
#X restore 186 86 pd tri_02;
#N canvas 436 204 450 300 sqr_02 0;
#X obj 34 31 inlet;
#X obj 34 105 phasor~;
#X obj 110 106 phasor~;
#X msg 120 67 0;
#X msg 158 68 0.5;
#X obj 67 63 *~ 1;
#X obj 70 139 +~;
#X obj 70 168 -~ 1;
#X obj 107 221 tabwrite~ square;
#X obj 124 192 bng 15 250 50 0 empty empty empty 17 7 0 10 -262144
-1 -1;
#N canvas 0 0 450 300 (subpatch) 0;
#X array square 100 float 3;
#A 0 -0.934192 -0.914146 -0.894101 -0.874056 -0.85401 -0.833965 -0.81392
-0.793874 -0.773829 -0.753784 -0.733738 -0.713693 -0.693648 -0.673602
-0.653557 -0.633512 -0.613466 -0.593421 -0.573375 -0.55333 -0.533285
-0.513239 -0.493194 -0.473149 -0.453103 -0.433058 -0.413013 -0.392967
-0.372922 -0.352877 -0.332831 -0.312786 -0.292741 -0.272695 -0.25265
-0.232605 -0.212559 -0.192514 -0.172468 -0.152423 -0.132378 -0.112332
-0.092287 -0.0722417 -0.0521963 -0.032151 -0.0121056 0.0079397 0.0279851
0.0480304 0.0680758 0.0881212 0.108166 0.128212 0.148257 0.168303 0.188348
0.208393 0.228439 0.248484 0.268529 0.288575 0.30862 0.328665 0.348711
0.368756 0.388801 0.408847 0.428892 0.448937 0.468983 0.489028 0.509073
0.529119 0.549164 0.56921 0.589255 0.6093 0.629346 0.649391 0.669436
0.689482 0.709527 0.729572 0.749618 0.769663 0.789708 0.809754 0.829799
0.849844 0.86989 0.889935 0.909981 0.930026 0.950071 0.970117 0.990162
-0.989793 -0.969747 -0.949702;
#X coords 0 1 99 -1 200 140 1;
#X restore 207 63 graph;
#X obj 158 32 inlet;
#X obj 70 251 outlet~;
#X text 158 10 Phase Synchronisation;
#X connect 0 0 1 0;
#X connect 0 0 5 0;
#X connect 1 0 6 0;
#X connect 2 0 6 1;
#X connect 3 0 1 1;
#X connect 4 0 2 1;
#X connect 5 0 2 0;
#X connect 6 0 7 0;
#X connect 7 0 8 0;
#X connect 7 0 12 0;
#X connect 9 0 8 0;
#X connect 11 0 4 0;
#X connect 11 0 3 0;
#X restore 263 84 pd sqr_02;
#X connect 0 0 2 0;
#X connect 0 0 7 0;
#X connect 1 0 10 1;
#X connect 2 0 12 0;
#X connect 5 0 11 1;
#X connect 7 0 13 0;
#X connect 10 0 3 0;
#X connect 11 0 6 0;
#X connect 12 0 10 0;
#X connect 13 0 11 0;
#X connect 14 0 26 1;
#X connect 15 0 19 1;
#X connect 16 0 20 1;
#X connect 19 0 17 0;
#X connect 20 0 18 0;
#X connect 21 0 19 0;
#X connect 22 0 20 0;
#X connect 25 0 21 0;
#X connect 26 0 22 0;
#X restore 157 101 pd fmwave02;
#N canvas 467 157 450 300 fmwave03 0;
#X obj 22 18 inlet;
#X obj 89 17 inlet;
#X obj 22 75 osc~;
#X obj 21 160 outlet~;
#X text 87 1 Sine (Osc);
#X obj 160 17 inlet;
#X obj 95 159 outlet~;
#X obj 96 74 phasor~;
#X text 158 0 Saw (Phasor);
#X text 23 1 Freq (Hz);
#X obj 61 118 *~;
#X obj 136 116 *~;
#X obj 21 100 *~ 0.3;
#X obj 97 100 *~ 0.3;
#X obj 334 57 bng 15 250 50 0 empty empty empty 17 7 0 10 -262144 -1
-1;
#X obj 245 18 inlet;
#X obj 320 19 inlet;
#X obj 190 160 outlet~;
#X obj 264 159 outlet~;
#X obj 230 118 *~;
#X obj 305 116 *~;
#X obj 190 100 *~ 0.4;
#X obj 266 100 *~ 0.4;
#X text 242 0 Triangle;
#X text 316 0 Square;
#N canvas 97 69 491 430 tri_03 0;
#X obj 35 37 inlet;
#X floatatom 35 94 5 0 0 0 - - -;
#X obj 35 151 phasor~;
#X obj 110 149 phasor~;
#X text 109 93 Phase Synchronisation;
#X obj 33 260 clip~ 0 1;
#X obj 109 261 clip~ 0 1;
#X obj 90 294 +~;
#N canvas 0 0 450 300 (subpatch) 0;
#X array triagraph 100 float 3;
#A 0 0.265541 0.255925 0.246309 0.236693 0.227077 0.217461 0.207845
0.198229 0.188613 0.178997 0.16938 0.159764 0.150148 0.140532 0.130916
0.1213 0.111684 0.102068 0.0924519 0.0828358 0.0732197 0.0636036 0.0539876
0.0443715 0.0347554 0.0251393 0.0155233 0.00590718 0.0037089 0.013325
0.0229411 0.0325571 0.0421732 0.0517893 0.0614054 0.0710214 0.0806375
0.0902536 0.0998697 0.109486 0.119102 0.128718 0.138334 0.14795 0.157566
0.167182 0.176798 0.186414 0.19603 0.205647 0.215263 0.224879 0.234495
0.244111 0.253727 0.263343 0.272959 0.282575 0.292191 0.301807 0.311423
0.321039 0.330656 0.340272 0.349888 0.359504 0.36912 0.378736 0.388352
0.397968 0.407584 0.4172 0.426816 0.436432 0.446048 0.455665 0.465281
0.474897 0.484513 0.494129 0.503745 0.513361 0.522977 0.532593 0.542209
0.551825 0.561441 0.571057 0.580673 0.59029 0.599906 0.609522 0.619138
0.628754 0.63837 0.647986 0.657602 0.667218 0.676834 0.68645;
#X coords 0 1 99 -1 200 140 1;
#X restore 205 160 graph;
#X obj 66 120 * -1;
#X obj 36 225 -~ -1;
#X obj 109 226 -~ -1;
#X obj 135 296 bng 15 250 50 0 empty empty empty 17 7 0 10 -262144
-1 -1;
#X text 132 278 graph;
#X obj 36 189 *~ -2;
#X obj 110 187 *~ -2;
#X text 32 71 comment;
#X obj 118 328 tabwrite~ triagraph;
#X obj 90 355 outlet~;
#X msg 110 111 0;
#X connect 0 0 1 0;
#X connect 1 0 2 0;
#X connect 1 0 9 0;
#X connect 2 0 14 0;
#X connect 3 0 15 0;
#X connect 5 0 7 0;
#X connect 6 0 7 1;
#X connect 7 0 17 0;
#X connect 7 0 18 0;
#X connect 9 0 3 0;
#X connect 10 0 5 0;
#X connect 11 0 6 0;
#X connect 12 0 17 0;
#X connect 14 0 10 0;
#X connect 15 0 11 0;
#X connect 19 0 2 1;
#X connect 19 0 3 0;
#X restore 190 74 pd tri_03;
#N canvas 436 204 450 300 sqr_03 0;
#X obj 34 31 inlet;
#X obj 34 105 phasor~;
#X obj 110 106 phasor~;
#X msg 120 67 0;
#X msg 158 68 0.5;
#X obj 67 63 *~ 1;
#X obj 70 139 +~;
#X obj 70 168 -~ 1;
#X obj 107 221 tabwrite~ square;
#X obj 124 192 bng 15 250 50 0 empty empty empty 17 7 0 10 -262144
-1 -1;
#N canvas 0 0 450 300 (subpatch) 0;
#X array square 100 float 3;
#A 0 -0.934192 -0.914146 -0.894101 -0.874056 -0.85401 -0.833965 -0.81392
-0.793874 -0.773829 -0.753784 -0.733738 -0.713693 -0.693648 -0.673602
-0.653557 -0.633512 -0.613466 -0.593421 -0.573375 -0.55333 -0.533285
-0.513239 -0.493194 -0.473149 -0.453103 -0.433058 -0.413013 -0.392967
-0.372922 -0.352877 -0.332831 -0.312786 -0.292741 -0.272695 -0.25265
-0.232605 -0.212559 -0.192514 -0.172468 -0.152423 -0.132378 -0.112332
-0.092287 -0.0722417 -0.0521963 -0.032151 -0.0121056 0.0079397 0.0279851
0.0480304 0.0680758 0.0881212 0.108166 0.128212 0.148257 0.168303 0.188348
0.208393 0.228439 0.248484 0.268529 0.288575 0.30862 0.328665 0.348711
0.368756 0.388801 0.408847 0.428892 0.448937 0.468983 0.489028 0.509073
0.529119 0.549164 0.56921 0.589255 0.6093 0.629346 0.649391 0.669436
0.689482 0.709527 0.729572 0.749618 0.769663 0.789708 0.809754 0.829799
0.849844 0.86989 0.889935 0.909981 0.930026 0.950071 0.970117 0.990162
-0.989793 -0.969747 -0.949702;
#X coords 0 1 99 -1 200 140 1;
#X restore 207 63 graph;
#X obj 158 32 inlet;
#X obj 70 251 outlet~;
#X text 158 10 Phase Synchronisation;
#X connect 0 0 1 0;
#X connect 0 0 5 0;
#X connect 1 0 6 0;
#X connect 2 0 6 1;
#X connect 3 0 1 1;
#X connect 4 0 2 1;
#X connect 5 0 2 0;
#X connect 6 0 7 0;
#X connect 7 0 8 0;
#X connect 7 0 12 0;
#X connect 9 0 8 0;
#X connect 11 0 4 0;
#X connect 11 0 3 0;
#X restore 267 72 pd sqr_03;
#X connect 0 0 2 0;
#X connect 0 0 7 0;
#X connect 1 0 10 1;
#X connect 2 0 12 0;
#X connect 5 0 11 1;
#X connect 7 0 13 0;
#X connect 10 0 3 0;
#X connect 11 0 6 0;
#X connect 12 0 10 0;
#X connect 13 0 11 0;
#X connect 14 0 26 1;
#X connect 15 0 19 1;
#X connect 16 0 20 1;
#X connect 19 0 17 0;
#X connect 20 0 18 0;
#X connect 21 0 19 0;
#X connect 22 0 20 0;
#X connect 25 0 21 0;
#X connect 26 0 22 0;
#X restore 261 98 pd fmwave03;
#X obj 387 65 tgl 15 0 empty empty empty 17 7 0 10 -262144 -1 -1 1
1;
#X obj 405 65 tgl 15 0 empty empty empty 17 7 0 10 -262144 -1 -1 0
1;
#X obj 423 65 tgl 15 0 empty empty empty 17 7 0 10 -262144 -1 -1 1
1;
#X obj 441 65 tgl 15 0 empty empty empty 17 7 0 10 -262144 -1 -1 0
1;
#N canvas 316 163 450 300 fmwave04 0;
#X obj 24 33 inlet;
#X obj 91 32 inlet;
#X obj 24 90 osc~;
#X obj 23 175 outlet~;
#X text 89 16 Sine (Osc);
#X obj 162 32 inlet;
#X obj 97 174 outlet~;
#X obj 98 89 phasor~;
#X text 160 15 Saw (Phasor);
#X text 25 16 Freq (Hz);
#X obj 63 133 *~;
#X obj 138 131 *~;
#X obj 23 115 *~ 0.1;
#X obj 99 115 *~ 0.1;
#X obj 339 71 bng 15 250 50 0 empty empty empty 17 7 0 10 -262144 -1
-1;
#X obj 250 32 inlet;
#X obj 325 33 inlet;
#X obj 195 174 outlet~;
#X obj 269 173 outlet~;
#X obj 235 132 *~;
#X obj 310 130 *~;
#X obj 195 114 *~ 0.4;
#X obj 271 114 *~ 0.4;
#X text 246 14 Triangle;
#X text 320 14 Square;
#N canvas 97 69 491 430 tri_04 0;
#X obj 35 37 inlet;
#X floatatom 35 94 5 0 0 0 - - -;
#X obj 35 151 phasor~;
#X obj 110 149 phasor~;
#X text 109 93 Phase Synchronisation;
#X obj 33 260 clip~ 0 1;
#X obj 109 261 clip~ 0 1;
#X obj 90 294 +~;
#N canvas 0 0 450 300 (subpatch) 0;
#X array triagraph 100 float 3;
#A 0 0.265541 0.255925 0.246309 0.236693 0.227077 0.217461 0.207845
0.198229 0.188613 0.178997 0.16938 0.159764 0.150148 0.140532 0.130916
0.1213 0.111684 0.102068 0.0924519 0.0828358 0.0732197 0.0636036 0.0539876
0.0443715 0.0347554 0.0251393 0.0155233 0.00590718 0.0037089 0.013325
0.0229411 0.0325571 0.0421732 0.0517893 0.0614054 0.0710214 0.0806375
0.0902536 0.0998697 0.109486 0.119102 0.128718 0.138334 0.14795 0.157566
0.167182 0.176798 0.186414 0.19603 0.205647 0.215263 0.224879 0.234495
0.244111 0.253727 0.263343 0.272959 0.282575 0.292191 0.301807 0.311423
0.321039 0.330656 0.340272 0.349888 0.359504 0.36912 0.378736 0.388352
0.397968 0.407584 0.4172 0.426816 0.436432 0.446048 0.455665 0.465281
0.474897 0.484513 0.494129 0.503745 0.513361 0.522977 0.532593 0.542209
0.551825 0.561441 0.571057 0.580673 0.59029 0.599906 0.609522 0.619138
0.628754 0.63837 0.647986 0.657602 0.667218 0.676834 0.68645;
#X coords 0 1 99 -1 200 140 1;
#X restore 205 160 graph;
#X obj 66 120 * -1;
#X obj 36 225 -~ -1;
#X obj 109 226 -~ -1;
#X obj 135 296 bng 15 250 50 0 empty empty empty 17 7 0 10 -262144
-1 -1;
#X text 132 278 graph;
#X obj 36 189 *~ -2;
#X obj 110 187 *~ -2;
#X text 32 71 comment;
#X obj 118 328 tabwrite~ triagraph;
#X obj 90 355 outlet~;
#X msg 110 111 0;
#X connect 0 0 1 0;
#X connect 1 0 2 0;
#X connect 1 0 9 0;
#X connect 2 0 14 0;
#X connect 3 0 15 0;
#X connect 5 0 7 0;
#X connect 6 0 7 1;
#X connect 7 0 17 0;
#X connect 7 0 18 0;
#X connect 9 0 3 0;
#X connect 10 0 5 0;
#X connect 11 0 6 0;
#X connect 12 0 17 0;
#X connect 14 0 10 0;
#X connect 15 0 11 0;
#X connect 19 0 2 1;
#X connect 19 0 3 0;
#X restore 195 88 pd tri_04;
#N canvas 436 204 450 300 sqr_04 0;
#X obj 34 31 inlet;
#X obj 34 105 phasor~;
#X obj 110 106 phasor~;
#X msg 120 67 0;
#X msg 158 68 0.5;
#X obj 67 63 *~ 1;
#X obj 70 139 +~;
#X obj 70 168 -~ 1;
#X obj 107 221 tabwrite~ square;
#X obj 124 192 bng 15 250 50 0 empty empty empty 17 7 0 10 -262144
-1 -1;
#N canvas 0 0 450 300 (subpatch) 0;
#X array square 100 float 3;
#A 0 -0.934192 -0.914146 -0.894101 -0.874056 -0.85401 -0.833965 -0.81392
-0.793874 -0.773829 -0.753784 -0.733738 -0.713693 -0.693648 -0.673602
-0.653557 -0.633512 -0.613466 -0.593421 -0.573375 -0.55333 -0.533285
-0.513239 -0.493194 -0.473149 -0.453103 -0.433058 -0.413013 -0.392967
-0.372922 -0.352877 -0.332831 -0.312786 -0.292741 -0.272695 -0.25265
-0.232605 -0.212559 -0.192514 -0.172468 -0.152423 -0.132378 -0.112332
-0.092287 -0.0722417 -0.0521963 -0.032151 -0.0121056 0.0079397 0.0279851
0.0480304 0.0680758 0.0881212 0.108166 0.128212 0.148257 0.168303 0.188348
0.208393 0.228439 0.248484 0.268529 0.288575 0.30862 0.328665 0.348711
0.368756 0.388801 0.408847 0.428892 0.448937 0.468983 0.489028 0.509073
0.529119 0.549164 0.56921 0.589255 0.6093 0.629346 0.649391 0.669436
0.689482 0.709527 0.729572 0.749618 0.769663 0.789708 0.809754 0.829799
0.849844 0.86989 0.889935 0.909981 0.930026 0.950071 0.970117 0.990162
-0.989793 -0.969747 -0.949702;
#X coords 0 1 99 -1 200 140 1;
#X restore 207 63 graph;
#X obj 158 32 inlet;
#X obj 70 251 outlet~;
#X text 158 10 Phase Synchronisation;
#X connect 0 0 1 0;
#X connect 0 0 5 0;
#X connect 1 0 6 0;
#X connect 2 0 6 1;
#X connect 3 0 1 1;
#X connect 4 0 2 1;
#X connect 5 0 2 0;
#X connect 6 0 7 0;
#X connect 7 0 8 0;
#X connect 7 0 12 0;
#X connect 9 0 8 0;
#X connect 11 0 4 0;
#X connect 11 0 3 0;
#X restore 272 86 pd sqr_04;
#X connect 0 0 2 0;
#X connect 0 0 7 0;
#X connect 1 0 10 1;
#X connect 2 0 12 0;
#X connect 5 0 11 1;
#X connect 7 0 13 0;
#X connect 10 0 3 0;
#X connect 11 0 6 0;
#X connect 12 0 10 0;
#X connect 13 0 11 0;
#X connect 14 0 26 1;
#X connect 15 0 19 1;
#X connect 16 0 20 1;
#X connect 19 0 17 0;
#X connect 20 0 18 0;
#X connect 21 0 19 0;
#X connect 22 0 20 0;
#X connect 25 0 21 0;
#X connect 26 0 22 0;
#X restore 365 98 pd fmwave04;
#X obj 109 157 -~;
#X obj 170 217 -~;
#X obj 138 187 *~ 0.3;
#X obj 200 243 *~ 0.3;
#X obj 227 278 -~;
#X obj 47 23 inlet;
#X obj 269 377 outlet~;
#N canvas 414 146 450 300 melWave 0;
#X obj 33 78 osc~;
#X obj 32 163 outlet~;
#X obj 119 162 outlet~;
#X obj 120 77 phasor~;
#X obj 72 121 *~;
#X obj 160 119 *~;
#X obj 33 24 inlet;
#X obj 32 103 *~ 0.4;
#X obj 121 103 *~ 0.4;
#X obj 122 24 inlet;
#X obj 198 23 inlet;
#X text 121 6 Sine;
#X text 196 3 Saw;
#X connect 0 0 7 0;
#X connect 3 0 8 0;
#X connect 4 0 1 0;
#X connect 5 0 2 0;
#X connect 6 0 0 0;
#X connect 6 0 3 0;
#X connect 7 0 4 0;
#X connect 8 0 5 0;
#X connect 9 0 4 1;
#X connect 10 0 5 1;
#X restore 483 100 pd melWave;
#X obj 511 66 tgl 15 0 empty empty empty 17 7 0 10 -262144 -1 -1 0
1;
#X obj 540 65 tgl 15 0 empty empty empty 17 7 0 10 -262144 -1 -1 1
1;
#X obj 483 25 inlet melody;
#X obj 243 307 *~ 0.3;
#X obj 270 342 -~;
#X connect 0 0 16 0;
#X connect 1 0 17 0;
#X connect 2 0 22 0;
#X connect 3 0 15 1;
#X connect 4 0 15 2;
#X connect 5 0 15 3;
#X connect 6 0 15 4;
#X connect 7 0 16 1;
#X connect 8 0 16 2;
#X connect 9 0 16 3;
#X connect 10 0 16 4;
#X connect 11 0 17 1;
#X connect 12 0 17 2;
#X connect 13 0 17 3;
#X connect 14 0 17 4;
#X connect 15 0 23 0;
#X connect 15 1 23 0;
#X connect 15 2 23 0;
#X connect 15 3 23 0;
#X connect 16 0 23 1;
#X connect 16 1 23 1;
#X connect 16 2 23 1;
#X connect 16 3 23 1;
#X connect 17 0 24 1;
#X connect 17 1 24 1;
#X connect 17 2 24 1;
#X connect 17 3 24 1;
#X connect 18 0 22 1;
#X connect 19 0 22 2;
#X connect 20 0 22 3;
#X connect 21 0 22 4;
#X connect 22 0 27 1;
#X connect 22 1 27 1;
#X connect 22 2 27 1;
#X connect 22 3 27 1;
#X connect 23 0 25 0;
#X connect 24 0 26 0;
#X connect 25 0 24 0;
#X connect 26 0 27 0;
#X connect 27 0 34 0;
#X connect 28 0 15 0;
#X connect 28 0 0 0;
#X connect 28 0 1 0;
#X connect 28 0 2 0;
#X connect 30 0 35 1;
#X connect 30 1 35 1;
#X connect 31 0 30 1;
#X connect 32 0 30 2;
#X connect 33 0 30 0;
#X connect 34 0 35 0;
#X connect 35 0 29 0;
#X restore 461 143 pd WaveFrmSet2;
#X obj 462 172 *~ *;
#X obj 461 202 s~ wv2;
#X obj 454 119 r cff;
#X text 406 102 Wave Cut;
#X obj 410 118 r cff2;
#X obj 410 138 r cff3;
#X obj 410 158 r cff4;
#N canvas 153 140 627 326 MasterMixr 0;
#X obj 455 136 inlet mastervolume;
#X obj 455 209 line~;
#X msg 455 186 \$1 20;
#X obj 233 227 *~;
#X obj 234 288 outlet~;
#X obj 11 11 inlet~;
#X obj 332 153 sig~;
#X obj 293 105 bp~ 100 3;
#X obj 292 130 hip~ 60;
#X obj 292 169 *~;
#X obj 101 11 inlet~;
#X obj 190 11 inlet~;
#X obj 280 11 inlet~;
#X obj 449 88 inlet cfreq;
#X obj 55 10 inlet;
#X obj 145 10 inlet;
#X obj 127 63 *~ *;
#X obj 234 10 inlet;
#X obj 324 10 inlet;
#X obj 182 63 *~ *;
#X obj 233 63 *~ *;
#X obj 233 186 *~;
#X obj 404 13 inlet~;
#X obj 68 63 *~ *;
#X connect 0 0 2 0;
#X connect 0 0 6 0;
#X connect 1 0 3 1;
#X connect 2 0 1 0;
#X connect 3 0 4 0;
#X connect 5 0 23 0;
#X connect 6 0 9 1;
#X connect 7 0 8 0;
#X connect 8 0 9 0;
#X connect 9 0 21 1;
#X connect 10 0 16 0;
#X connect 11 0 19 0;
#X connect 12 0 20 0;
#X connect 13 0 7 1;
#X connect 14 0 23 1;
#X connect 15 0 16 1;
#X connect 16 0 21 0;
#X connect 17 0 19 1;
#X connect 18 0 20 1;
#X connect 19 0 21 0;
#X connect 20 0 21 0;
#X connect 21 0 3 0;
#X connect 22 0 7 0;
#X connect 23 0 21 0;
#X restore 826 180 pd MasterMixr;
#X obj 881 238 r~ wv2;
#X obj 817 290 *~;
#X obj 515 183 knob 32 32 0 0.4 0 0 empty empty empty 0 -8 0 8 -262144
-1 -1 3000 1;
#X text 511 161 VOL;
#X text 406 90 WAV FORM (MOD 2);
#N canvas 245 52 608 431 WaveFrmSet3 0;
#X obj 167 50 + 1;
#X obj 271 50 + 2;
#X obj 375 50 + 3;
#X obj 70 75 tgl 15 0 empty empty empty 17 7 0 10 -262144 -1 -1 0 1
;
#X obj 88 75 tgl 15 0 empty empty empty 17 7 0 10 -262144 -1 -1 1 1
;
#X obj 106 75 tgl 15 0 empty empty empty 17 7 0 10 -262144 -1 -1 0
1;
#X obj 124 75 tgl 15 0 empty empty empty 17 7 0 10 -262144 -1 -1 0
1;
#X obj 182 74 tgl 15 0 empty empty empty 17 7 0 10 -262144 -1 -1 0
1;
#X obj 200 74 tgl 15 0 empty empty empty 17 7 0 10 -262144 -1 -1 1
1;
#X obj 218 74 tgl 15 0 empty empty empty 17 7 0 10 -262144 -1 -1 0
1;
#X obj 236 74 tgl 15 0 empty empty empty 17 7 0 10 -262144 -1 -1 0
1;
#X obj 287 74 tgl 15 0 empty empty empty 17 7 0 10 -262144 -1 -1 1
1;
#X obj 305 74 tgl 15 0 empty empty empty 17 7 0 10 -262144 -1 -1 0
1;
#X obj 323 74 tgl 15 0 empty empty empty 17 7 0 10 -262144 -1 -1 0
1;
#X obj 341 74 tgl 15 0 empty empty empty 17 7 0 10 -262144 -1 -1 0
1;
#X obj 397 75 tgl 15 0 empty empty empty 17 7 0 10 -262144 -1 -1 1
1;
#X obj 415 75 tgl 15 0 empty empty empty 17 7 0 10 -262144 -1 -1 0
1;
#X obj 433 75 tgl 15 0 empty empty empty 17 7 0 10 -262144 -1 -1 0
1;
#X obj 451 75 tgl 15 0 empty empty empty 17 7 0 10 -262144 -1 -1 0
1;
#X obj 119 167 -~;
#X obj 180 227 -~;
#X obj 148 197 *~ 0.3;
#X obj 210 253 *~ 0.3;
#X obj 237 288 -~;
#X obj 57 33 inlet;
#X obj 298 388 outlet~;
#N canvas 289 212 500 300 fmwave01_2 0;
#X obj 23 43 inlet;
#X obj 90 42 inlet;
#X obj 23 100 osc~;
#X obj 22 185 outlet~;
#X text 88 26 Sine (Osc);
#X obj 161 42 inlet;
#X obj 96 184 outlet~;
#X obj 97 99 phasor~;
#X text 159 25 Saw (Phasor);
#X text 22 26 Freq (Hz);
#X obj 62 143 *~;
#X obj 137 141 *~;
#X obj 22 125 *~ 0.4;
#X obj 98 125 *~ 0.4;
#X obj 336 80 bng 15 250 50 0 empty empty empty 17 7 0 10 -262144 -1
-1;
#X obj 247 41 inlet;
#X obj 322 42 inlet;
#X obj 192 183 outlet~;
#X obj 266 182 outlet~;
#X obj 232 141 *~;
#X obj 307 139 *~;
#X obj 192 123 *~ 0.4;
#X obj 268 123 *~ 0.4;
#X text 244 24 Triangle;
#X text 318 24 Square;
#N canvas 97 69 491 430 tri2_1 0;
#X obj 35 37 inlet;
#X floatatom 35 94 5 0 0 0 - - -;
#X obj 35 151 phasor~;
#X obj 110 149 phasor~;
#X text 109 93 Phase Synchronisation;
#X obj 33 260 clip~ 0 1;
#X obj 109 261 clip~ 0 1;
#X obj 90 294 +~;
#N canvas 0 0 450 300 (subpatch) 0;
#X array triagraph 100 float 3;
#A 0 0.265541 0.255925 0.246309 0.236693 0.227077 0.217461 0.207845
0.198229 0.188613 0.178997 0.16938 0.159764 0.150148 0.140532 0.130916
0.1213 0.111684 0.102068 0.0924519 0.0828358 0.0732197 0.0636036 0.0539876
0.0443715 0.0347554 0.0251393 0.0155233 0.00590718 0.0037089 0.013325
0.0229411 0.0325571 0.0421732 0.0517893 0.0614054 0.0710214 0.0806375
0.0902536 0.0998697 0.109486 0.119102 0.128718 0.138334 0.14795 0.157566
0.167182 0.176798 0.186414 0.19603 0.205647 0.215263 0.224879 0.234495
0.244111 0.253727 0.263343 0.272959 0.282575 0.292191 0.301807 0.311423
0.321039 0.330656 0.340272 0.349888 0.359504 0.36912 0.378736 0.388352
0.397968 0.407584 0.4172 0.426816 0.436432 0.446048 0.455665 0.465281
0.474897 0.484513 0.494129 0.503745 0.513361 0.522977 0.532593 0.542209
0.551825 0.561441 0.571057 0.580673 0.59029 0.599906 0.609522 0.619138
0.628754 0.63837 0.647986 0.657602 0.667218 0.676834 0.68645;
#X coords 0 1 99 -1 200 140 1;
#X restore 205 160 graph;
#X obj 66 120 * -1;
#X obj 36 225 -~ -1;
#X obj 109 226 -~ -1;
#X obj 135 296 bng 15 250 50 0 empty empty empty 17 7 0 10 -262144
-1 -1;
#X text 132 278 graph;
#X obj 36 189 *~ -2;
#X obj 110 187 *~ -2;
#X text 32 71 comment;
#X obj 118 328 tabwrite~ triagraph;
#X obj 90 355 outlet~;
#X msg 110 111 0;
#X connect 0 0 1 0;
#X connect 1 0 2 0;
#X connect 1 0 9 0;
#X connect 2 0 14 0;
#X connect 3 0 15 0;
#X connect 5 0 7 0;
#X connect 6 0 7 1;
#X connect 7 0 17 0;
#X connect 7 0 18 0;
#X connect 9 0 3 0;
#X connect 10 0 5 0;
#X connect 11 0 6 0;
#X connect 12 0 17 0;
#X connect 14 0 10 0;
#X connect 15 0 11 0;
#X connect 19 0 2 1;
#X connect 19 0 3 0;
#X restore 192 97 pd tri2_1;
#N canvas 436 204 450 300 sqr2_1 0;
#X obj 34 31 inlet;
#X obj 34 105 phasor~;
#X obj 110 106 phasor~;
#X msg 120 67 0;
#X msg 158 68 0.5;
#X obj 67 63 *~ 1;
#X obj 70 139 +~;
#X obj 70 168 -~ 1;
#X obj 107 221 tabwrite~ square;
#X obj 124 192 bng 15 250 50 0 empty empty empty 17 7 0 10 -262144
-1 -1;
#N canvas 0 0 450 300 (subpatch) 0;
#X array square 100 float 3;
#A 0 -0.934192 -0.914146 -0.894101 -0.874056 -0.85401 -0.833965 -0.81392
-0.793874 -0.773829 -0.753784 -0.733738 -0.713693 -0.693648 -0.673602
-0.653557 -0.633512 -0.613466 -0.593421 -0.573375 -0.55333 -0.533285
-0.513239 -0.493194 -0.473149 -0.453103 -0.433058 -0.413013 -0.392967
-0.372922 -0.352877 -0.332831 -0.312786 -0.292741 -0.272695 -0.25265
-0.232605 -0.212559 -0.192514 -0.172468 -0.152423 -0.132378 -0.112332
-0.092287 -0.0722417 -0.0521963 -0.032151 -0.0121056 0.0079397 0.0279851
0.0480304 0.0680758 0.0881212 0.108166 0.128212 0.148257 0.168303 0.188348
0.208393 0.228439 0.248484 0.268529 0.288575 0.30862 0.328665 0.348711
0.368756 0.388801 0.408847 0.428892 0.448937 0.468983 0.489028 0.509073
0.529119 0.549164 0.56921 0.589255 0.6093 0.629346 0.649391 0.669436
0.689482 0.709527 0.729572 0.749618 0.769663 0.789708 0.809754 0.829799
0.849844 0.86989 0.889935 0.909981 0.930026 0.950071 0.970117 0.990162
-0.989793 -0.969747 -0.949702;
#X coords 0 1 99 -1 200 140 1;
#X restore 207 63 graph;
#X obj 158 32 inlet;
#X obj 70 251 outlet~;
#X text 158 10 Phase Synchronisation;
#X connect 0 0 1 0;
#X connect 0 0 5 0;
#X connect 1 0 6 0;
#X connect 2 0 6 1;
#X connect 3 0 1 1;
#X connect 4 0 2 1;
#X connect 5 0 2 0;
#X connect 6 0 7 0;
#X connect 7 0 8 0;
#X connect 7 0 12 0;
#X connect 9 0 8 0;
#X connect 11 0 4 0;
#X connect 11 0 3 0;
#X restore 269 95 pd sqr2_1;
#X connect 0 0 2 0;
#X connect 0 0 7 0;
#X connect 0 0 25 0;
#X connect 0 0 26 0;
#X connect 1 0 10 1;
#X connect 2 0 12 0;
#X connect 5 0 11 1;
#X connect 7 0 13 0;
#X connect 10 0 3 0;
#X connect 11 0 6 0;
#X connect 12 0 10 0;
#X connect 13 0 11 0;
#X connect 14 0 26 1;
#X connect 15 0 19 1;
#X connect 16 0 20 1;
#X connect 19 0 17 0;
#X connect 20 0 18 0;
#X connect 21 0 19 0;
#X connect 22 0 20 0;
#X connect 25 0 21 0;
#X connect 26 0 22 0;
#X restore 57 112 pd fmwave01_2;
#N canvas 399 229 450 300 fmwave02_2 0;
#X obj 24 32 inlet;
#X obj 91 31 inlet;
#X obj 24 89 osc~;
#X obj 23 174 outlet~;
#X text 89 15 Sine (Osc);
#X obj 162 31 inlet;
#X obj 97 173 outlet~;
#X obj 98 88 phasor~;
#X text 160 14 Saw (Phasor);
#X text 25 15 Freq (Hz);
#X obj 63 132 *~;
#X obj 138 130 *~;
#X obj 23 114 *~ 0.1;
#X obj 99 114 *~ 0.1;
#X obj 330 69 bng 15 250 50 0 empty empty empty 17 7 0 10 -262144 -1
-1;
#X obj 241 30 inlet;
#X obj 316 31 inlet;
#X obj 186 172 outlet~;
#X obj 260 171 outlet~;
#X obj 226 130 *~;
#X obj 301 128 *~;
#X obj 186 112 *~ 0.4;
#X obj 262 112 *~ 0.4;
#X text 238 13 Triangle;
#X text 312 13 Square;
#N canvas 97 69 491 430 tri2_2 0;
#X obj 35 37 inlet;
#X floatatom 35 94 5 0 0 0 - - -;
#X obj 35 151 phasor~;
#X obj 110 149 phasor~;
#X text 109 93 Phase Synchronisation;
#X obj 33 260 clip~ 0 1;
#X obj 109 261 clip~ 0 1;
#X obj 90 294 +~;
#N canvas 0 0 450 300 (subpatch) 0;
#X array triagraph 100 float 3;
#A 0 0.265541 0.255925 0.246309 0.236693 0.227077 0.217461 0.207845
0.198229 0.188613 0.178997 0.16938 0.159764 0.150148 0.140532 0.130916
0.1213 0.111684 0.102068 0.0924519 0.0828358 0.0732197 0.0636036 0.0539876
0.0443715 0.0347554 0.0251393 0.0155233 0.00590718 0.0037089 0.013325
0.0229411 0.0325571 0.0421732 0.0517893 0.0614054 0.0710214 0.0806375
0.0902536 0.0998697 0.109486 0.119102 0.128718 0.138334 0.14795 0.157566
0.167182 0.176798 0.186414 0.19603 0.205647 0.215263 0.224879 0.234495
0.244111 0.253727 0.263343 0.272959 0.282575 0.292191 0.301807 0.311423
0.321039 0.330656 0.340272 0.349888 0.359504 0.36912 0.378736 0.388352
0.397968 0.407584 0.4172 0.426816 0.436432 0.446048 0.455665 0.465281
0.474897 0.484513 0.494129 0.503745 0.513361 0.522977 0.532593 0.542209
0.551825 0.561441 0.571057 0.580673 0.59029 0.599906 0.609522 0.619138
0.628754 0.63837 0.647986 0.657602 0.667218 0.676834 0.68645;
#X coords 0 1 99 -1 200 140 1;
#X restore 205 160 graph;
#X obj 66 120 * -1;
#X obj 36 225 -~ -1;
#X obj 109 226 -~ -1;
#X obj 135 296 bng 15 250 50 0 empty empty empty 17 7 0 10 -262144
-1 -1;
#X text 132 278 graph;
#X obj 36 189 *~ -2;
#X obj 110 187 *~ -2;
#X text 32 71 comment;
#X obj 118 328 tabwrite~ triagraph;
#X obj 90 355 outlet~;
#X msg 110 111 0;
#X connect 0 0 1 0;
#X connect 1 0 2 0;
#X connect 1 0 9 0;
#X connect 2 0 14 0;
#X connect 3 0 15 0;
#X connect 5 0 7 0;
#X connect 6 0 7 1;
#X connect 7 0 17 0;
#X connect 7 0 18 0;
#X connect 9 0 3 0;
#X connect 10 0 5 0;
#X connect 11 0 6 0;
#X connect 12 0 17 0;
#X connect 14 0 10 0;
#X connect 15 0 11 0;
#X connect 19 0 2 1;
#X connect 19 0 3 0;
#X restore 186 86 pd tri2_2;
#N canvas 436 204 450 300 sqr2_2 0;
#X obj 34 31 inlet;
#X obj 34 105 phasor~;
#X obj 110 106 phasor~;
#X msg 120 67 0;
#X msg 158 68 0.5;
#X obj 67 63 *~ 1;
#X obj 70 139 +~;
#X obj 70 168 -~ 1;
#X obj 107 221 tabwrite~ square;
#X obj 124 192 bng 15 250 50 0 empty empty empty 17 7 0 10 -262144
-1 -1;
#N canvas 0 0 450 300 (subpatch) 0;
#X array square 100 float 3;
#A 0 -0.934192 -0.914146 -0.894101 -0.874056 -0.85401 -0.833965 -0.81392
-0.793874 -0.773829 -0.753784 -0.733738 -0.713693 -0.693648 -0.673602
-0.653557 -0.633512 -0.613466 -0.593421 -0.573375 -0.55333 -0.533285
-0.513239 -0.493194 -0.473149 -0.453103 -0.433058 -0.413013 -0.392967
-0.372922 -0.352877 -0.332831 -0.312786 -0.292741 -0.272695 -0.25265
-0.232605 -0.212559 -0.192514 -0.172468 -0.152423 -0.132378 -0.112332
-0.092287 -0.0722417 -0.0521963 -0.032151 -0.0121056 0.0079397 0.0279851
0.0480304 0.0680758 0.0881212 0.108166 0.128212 0.148257 0.168303 0.188348
0.208393 0.228439 0.248484 0.268529 0.288575 0.30862 0.328665 0.348711
0.368756 0.388801 0.408847 0.428892 0.448937 0.468983 0.489028 0.509073
0.529119 0.549164 0.56921 0.589255 0.6093 0.629346 0.649391 0.669436
0.689482 0.709527 0.729572 0.749618 0.769663 0.789708 0.809754 0.829799
0.849844 0.86989 0.889935 0.909981 0.930026 0.950071 0.970117 0.990162
-0.989793 -0.969747 -0.949702;
#X coords 0 1 99 -1 200 140 1;
#X restore 207 63 graph;
#X obj 158 32 inlet;
#X obj 70 251 outlet~;
#X text 158 10 Phase Synchronisation;
#X connect 0 0 1 0;
#X connect 0 0 5 0;
#X connect 1 0 6 0;
#X connect 2 0 6 1;
#X connect 3 0 1 1;
#X connect 4 0 2 1;
#X connect 5 0 2 0;
#X connect 6 0 7 0;
#X connect 7 0 8 0;
#X connect 7 0 12 0;
#X connect 9 0 8 0;
#X connect 11 0 4 0;
#X connect 11 0 3 0;
#X restore 263 84 pd sqr2_2;
#X connect 0 0 2 0;
#X connect 0 0 7 0;
#X connect 0 0 25 0;
#X connect 0 0 26 0;
#X connect 1 0 10 1;
#X connect 2 0 12 0;
#X connect 5 0 11 1;
#X connect 7 0 13 0;
#X connect 10 0 3 0;
#X connect 11 0 6 0;
#X connect 12 0 10 0;
#X connect 13 0 11 0;
#X connect 14 0 26 1;
#X connect 15 0 19 1;
#X connect 16 0 20 1;
#X connect 19 0 17 0;
#X connect 20 0 18 0;
#X connect 21 0 19 0;
#X connect 22 0 20 0;
#X connect 25 0 21 0;
#X connect 26 0 22 0;
#X restore 167 112 pd fmwave02_2;
#N canvas 467 157 450 300 fmwave03_2 0;
#X obj 22 18 inlet;
#X obj 89 17 inlet;
#X obj 22 75 osc~;
#X obj 21 160 outlet~;
#X text 87 1 Sine (Osc);
#X obj 160 17 inlet;
#X obj 95 159 outlet~;
#X obj 96 74 phasor~;
#X text 158 0 Saw (Phasor);
#X text 23 1 Freq (Hz);
#X obj 61 118 *~;
#X obj 136 116 *~;
#X obj 21 100 *~ 0.3;
#X obj 97 100 *~ 0.3;
#X obj 334 57 bng 15 250 50 0 empty empty empty 17 7 0 10 -262144 -1
-1;
#X obj 245 18 inlet;
#X obj 320 19 inlet;
#X obj 190 160 outlet~;
#X obj 264 159 outlet~;
#X obj 230 118 *~;
#X obj 305 116 *~;
#X obj 190 100 *~ 0.4;
#X obj 266 100 *~ 0.4;
#X text 242 0 Triangle;
#X text 316 0 Square;
#N canvas 97 69 491 430 tri2_3 0;
#X obj 35 37 inlet;
#X floatatom 35 94 5 0 0 0 - - -;
#X obj 35 151 phasor~;
#X obj 110 149 phasor~;
#X text 109 93 Phase Synchronisation;
#X obj 33 260 clip~ 0 1;
#X obj 109 261 clip~ 0 1;
#X obj 90 294 +~;
#N canvas 0 0 450 300 (subpatch) 0;
#X array triagraph 100 float 3;
#A 0 0.265541 0.255925 0.246309 0.236693 0.227077 0.217461 0.207845
0.198229 0.188613 0.178997 0.16938 0.159764 0.150148 0.140532 0.130916
0.1213 0.111684 0.102068 0.0924519 0.0828358 0.0732197 0.0636036 0.0539876
0.0443715 0.0347554 0.0251393 0.0155233 0.00590718 0.0037089 0.013325
0.0229411 0.0325571 0.0421732 0.0517893 0.0614054 0.0710214 0.0806375
0.0902536 0.0998697 0.109486 0.119102 0.128718 0.138334 0.14795 0.157566
0.167182 0.176798 0.186414 0.19603 0.205647 0.215263 0.224879 0.234495
0.244111 0.253727 0.263343 0.272959 0.282575 0.292191 0.301807 0.311423
0.321039 0.330656 0.340272 0.349888 0.359504 0.36912 0.378736 0.388352
0.397968 0.407584 0.4172 0.426816 0.436432 0.446048 0.455665 0.465281
0.474897 0.484513 0.494129 0.503745 0.513361 0.522977 0.532593 0.542209
0.551825 0.561441 0.571057 0.580673 0.59029 0.599906 0.609522 0.619138
0.628754 0.63837 0.647986 0.657602 0.667218 0.676834 0.68645;
#X coords 0 1 99 -1 200 140 1;
#X restore 205 160 graph;
#X obj 66 120 * -1;
#X obj 36 225 -~ -1;
#X obj 109 226 -~ -1;
#X obj 135 296 bng 15 250 50 0 empty empty empty 17 7 0 10 -262144
-1 -1;
#X text 132 278 graph;
#X obj 36 189 *~ -2;
#X obj 110 187 *~ -2;
#X text 32 71 comment;
#X obj 118 328 tabwrite~ triagraph;
#X obj 90 355 outlet~;
#X msg 110 111 0;
#X connect 0 0 1 0;
#X connect 1 0 2 0;
#X connect 1 0 9 0;
#X connect 2 0 14 0;
#X connect 3 0 15 0;
#X connect 5 0 7 0;
#X connect 6 0 7 1;
#X connect 7 0 17 0;
#X connect 7 0 18 0;
#X connect 9 0 3 0;
#X connect 10 0 5 0;
#X connect 11 0 6 0;
#X connect 12 0 17 0;
#X connect 14 0 10 0;
#X connect 15 0 11 0;
#X connect 19 0 2 1;
#X connect 19 0 3 0;
#X restore 190 74 pd tri2_3;
#N canvas 436 204 450 300 sqr2_3 0;
#X obj 34 31 inlet;
#X obj 34 105 phasor~;
#X obj 110 106 phasor~;
#X msg 120 67 0;
#X msg 158 68 0.5;
#X obj 67 63 *~ 1;
#X obj 70 139 +~;
#X obj 70 168 -~ 1;
#X obj 107 221 tabwrite~ square;
#X obj 124 192 bng 15 250 50 0 empty empty empty 17 7 0 10 -262144
-1 -1;
#N canvas 0 0 450 300 (subpatch) 0;
#X array square 100 float 3;
#A 0 -0.934192 -0.914146 -0.894101 -0.874056 -0.85401 -0.833965 -0.81392
-0.793874 -0.773829 -0.753784 -0.733738 -0.713693 -0.693648 -0.673602
-0.653557 -0.633512 -0.613466 -0.593421 -0.573375 -0.55333 -0.533285
-0.513239 -0.493194 -0.473149 -0.453103 -0.433058 -0.413013 -0.392967
-0.372922 -0.352877 -0.332831 -0.312786 -0.292741 -0.272695 -0.25265
-0.232605 -0.212559 -0.192514 -0.172468 -0.152423 -0.132378 -0.112332
-0.092287 -0.0722417 -0.0521963 -0.032151 -0.0121056 0.0079397 0.0279851
0.0480304 0.0680758 0.0881212 0.108166 0.128212 0.148257 0.168303 0.188348
0.208393 0.228439 0.248484 0.268529 0.288575 0.30862 0.328665 0.348711
0.368756 0.388801 0.408847 0.428892 0.448937 0.468983 0.489028 0.509073
0.529119 0.549164 0.56921 0.589255 0.6093 0.629346 0.649391 0.669436
0.689482 0.709527 0.729572 0.749618 0.769663 0.789708 0.809754 0.829799
0.849844 0.86989 0.889935 0.909981 0.930026 0.950071 0.970117 0.990162
-0.989793 -0.969747 -0.949702;
#X coords 0 1 99 -1 200 140 1;
#X restore 207 63 graph;
#X obj 158 32 inlet;
#X obj 70 251 outlet~;
#X text 158 10 Phase Synchronisation;
#X connect 0 0 1 0;
#X connect 0 0 5 0;
#X connect 1 0 6 0;
#X connect 2 0 6 1;
#X connect 3 0 1 1;
#X connect 4 0 2 1;
#X connect 5 0 2 0;
#X connect 6 0 7 0;
#X connect 7 0 8 0;
#X connect 7 0 12 0;
#X connect 9 0 8 0;
#X connect 11 0 4 0;
#X connect 11 0 3 0;
#X restore 267 72 pd sqr2_3;
#X connect 0 0 2 0;
#X connect 0 0 7 0;
#X connect 0 0 25 0;
#X connect 0 0 26 0;
#X connect 1 0 10 1;
#X connect 2 0 12 0;
#X connect 5 0 11 1;
#X connect 7 0 13 0;
#X connect 10 0 3 0;
#X connect 11 0 6 0;
#X connect 12 0 10 0;
#X connect 13 0 11 0;
#X connect 14 0 26 1;
#X connect 15 0 19 1;
#X connect 16 0 20 1;
#X connect 19 0 17 0;
#X connect 20 0 18 0;
#X connect 21 0 19 0;
#X connect 22 0 20 0;
#X connect 25 0 21 0;
#X connect 26 0 22 0;
#X restore 271 108 pd fmwave03_2;
#N canvas 316 163 450 300 fmwave04_2 0;
#X obj 24 33 inlet;
#X obj 91 32 inlet;
#X obj 24 90 osc~;
#X obj 23 175 outlet~;
#X text 89 16 Sine (Osc);
#X obj 162 32 inlet;
#X obj 97 174 outlet~;
#X obj 98 89 phasor~;
#X text 160 15 Saw (Phasor);
#X text 25 16 Freq (Hz);
#X obj 63 133 *~;
#X obj 138 131 *~;
#X obj 23 115 *~ 0.1;
#X obj 99 115 *~ 0.1;
#X obj 339 71 bng 15 250 50 0 empty empty empty 17 7 0 10 -262144 -1
-1;
#X obj 250 32 inlet;
#X obj 325 33 inlet;
#X obj 195 174 outlet~;
#X obj 269 173 outlet~;
#X obj 235 132 *~;
#X obj 310 130 *~;
#X obj 195 114 *~ 0.4;
#X obj 271 114 *~ 0.4;
#X text 246 14 Triangle;
#X text 320 14 Square;
#N canvas 97 69 491 430 tri2_4 0;
#X obj 35 37 inlet;
#X floatatom 35 94 5 0 0 0 - - -;
#X obj 35 151 phasor~;
#X obj 110 149 phasor~;
#X text 109 93 Phase Synchronisation;
#X obj 33 260 clip~ 0 1;
#X obj 109 261 clip~ 0 1;
#X obj 90 294 +~;
#N canvas 0 0 450 300 (subpatch) 0;
#X array triagraph 100 float 3;
#A 0 0.265541 0.255925 0.246309 0.236693 0.227077 0.217461 0.207845
0.198229 0.188613 0.178997 0.16938 0.159764 0.150148 0.140532 0.130916
0.1213 0.111684 0.102068 0.0924519 0.0828358 0.0732197 0.0636036 0.0539876
0.0443715 0.0347554 0.0251393 0.0155233 0.00590718 0.0037089 0.013325
0.0229411 0.0325571 0.0421732 0.0517893 0.0614054 0.0710214 0.0806375
0.0902536 0.0998697 0.109486 0.119102 0.128718 0.138334 0.14795 0.157566
0.167182 0.176798 0.186414 0.19603 0.205647 0.215263 0.224879 0.234495
0.244111 0.253727 0.263343 0.272959 0.282575 0.292191 0.301807 0.311423
0.321039 0.330656 0.340272 0.349888 0.359504 0.36912 0.378736 0.388352
0.397968 0.407584 0.4172 0.426816 0.436432 0.446048 0.455665 0.465281
0.474897 0.484513 0.494129 0.503745 0.513361 0.522977 0.532593 0.542209
0.551825 0.561441 0.571057 0.580673 0.59029 0.599906 0.609522 0.619138
0.628754 0.63837 0.647986 0.657602 0.667218 0.676834 0.68645;
#X coords 0 1 99 -1 200 140 1;
#X restore 205 160 graph;
#X obj 66 120 * -1;
#X obj 36 225 -~ -1;
#X obj 109 226 -~ -1;
#X obj 135 296 bng 15 250 50 0 empty empty empty 17 7 0 10 -262144
-1 -1;
#X text 132 278 graph;
#X obj 36 189 *~ -2;
#X obj 110 187 *~ -2;
#X text 32 71 comment;
#X obj 118 328 tabwrite~ triagraph;
#X obj 90 355 outlet~;
#X msg 110 111 0;
#X connect 0 0 1 0;
#X connect 1 0 2 0;
#X connect 1 0 9 0;
#X connect 2 0 14 0;
#X connect 3 0 15 0;
#X connect 5 0 7 0;
#X connect 6 0 7 1;
#X connect 7 0 17 0;
#X connect 7 0 18 0;
#X connect 9 0 3 0;
#X connect 10 0 5 0;
#X connect 11 0 6 0;
#X connect 12 0 17 0;
#X connect 14 0 10 0;
#X connect 15 0 11 0;
#X connect 19 0 2 1;
#X connect 19 0 3 0;
#X restore 195 88 pd tri2_4;
#N canvas 436 204 450 300 sqr2_4 0;
#X obj 34 31 inlet;
#X obj 34 105 phasor~;
#X obj 110 106 phasor~;
#X msg 120 67 0;
#X msg 158 68 0.5;
#X obj 67 63 *~ 1;
#X obj 70 139 +~;
#X obj 70 168 -~ 1;
#X obj 107 221 tabwrite~ square;
#X obj 124 192 bng 15 250 50 0 empty empty empty 17 7 0 10 -262144
-1 -1;
#N canvas 0 0 450 300 (subpatch) 0;
#X array square 100 float 3;
#A 0 -0.934192 -0.914146 -0.894101 -0.874056 -0.85401 -0.833965 -0.81392
-0.793874 -0.773829 -0.753784 -0.733738 -0.713693 -0.693648 -0.673602
-0.653557 -0.633512 -0.613466 -0.593421 -0.573375 -0.55333 -0.533285
-0.513239 -0.493194 -0.473149 -0.453103 -0.433058 -0.413013 -0.392967
-0.372922 -0.352877 -0.332831 -0.312786 -0.292741 -0.272695 -0.25265
-0.232605 -0.212559 -0.192514 -0.172468 -0.152423 -0.132378 -0.112332
-0.092287 -0.0722417 -0.0521963 -0.032151 -0.0121056 0.0079397 0.0279851
0.0480304 0.0680758 0.0881212 0.108166 0.128212 0.148257 0.168303 0.188348
0.208393 0.228439 0.248484 0.268529 0.288575 0.30862 0.328665 0.348711
0.368756 0.388801 0.408847 0.428892 0.448937 0.468983 0.489028 0.509073
0.529119 0.549164 0.56921 0.589255 0.6093 0.629346 0.649391 0.669436
0.689482 0.709527 0.729572 0.749618 0.769663 0.789708 0.809754 0.829799
0.849844 0.86989 0.889935 0.909981 0.930026 0.950071 0.970117 0.990162
-0.989793 -0.969747 -0.949702;
#X coords 0 1 99 -1 200 140 1;
#X restore 207 63 graph;
#X obj 158 32 inlet;
#X obj 70 251 outlet~;
#X text 158 10 Phase Synchronisation;
#X connect 0 0 1 0;
#X connect 0 0 5 0;
#X connect 1 0 6 0;
#X connect 2 0 6 1;
#X connect 3 0 1 1;
#X connect 4 0 2 1;
#X connect 5 0 2 0;
#X connect 6 0 7 0;
#X connect 7 0 8 0;
#X connect 7 0 12 0;
#X connect 9 0 8 0;
#X connect 11 0 4 0;
#X connect 11 0 3 0;
#X restore 272 86 pd sqr2_4;
#X connect 0 0 2 0;
#X connect 0 0 7 0;
#X connect 0 0 25 0;
#X connect 0 0 26 0;
#X connect 1 0 10 1;
#X connect 2 0 12 0;
#X connect 5 0 11 1;
#X connect 7 0 13 0;
#X connect 10 0 3 0;
#X connect 11 0 6 0;
#X connect 12 0 10 0;
#X connect 13 0 11 0;
#X connect 14 0 26 1;
#X connect 15 0 19 1;
#X connect 16 0 20 1;
#X connect 19 0 17 0;
#X connect 20 0 18 0;
#X connect 21 0 19 0;
#X connect 22 0 20 0;
#X connect 25 0 21 0;
#X connect 26 0 22 0;
#X restore 375 108 pd fmwave04_2;
#X obj 271 320 *~ 0.3;
#X obj 299 352 -~;
#X obj 513 75 tgl 15 0 empty empty empty 17 7 0 10 -262144 -1 -1 1
1;
#X obj 542 74 tgl 15 0 empty empty empty 17 7 0 10 -262144 -1 -1 0
1;
#X obj 485 34 inlet melody;
#N canvas 414 146 450 300 melWave_2 0;
#X obj 33 78 osc~;
#X obj 32 163 outlet~;
#X obj 119 162 outlet~;
#X obj 120 77 phasor~;
#X obj 72 121 *~;
#X obj 160 119 *~;
#X obj 33 24 inlet;
#X obj 32 103 *~ 0.4;
#X obj 121 103 *~ 0.4;
#X obj 122 24 inlet;
#X obj 198 23 inlet;
#X text 121 6 Sine;
#X text 196 3 Saw;
#X connect 0 0 7 0;
#X connect 3 0 8 0;
#X connect 4 0 1 0;
#X connect 5 0 2 0;
#X connect 6 0 0 0;
#X connect 6 0 3 0;
#X connect 7 0 4 0;
#X connect 8 0 5 0;
#X connect 9 0 4 1;
#X connect 10 0 5 1;
#X restore 485 109 pd melWave_2;
#X connect 0 0 27 0;
#X connect 1 0 28 0;
#X connect 2 0 29 0;
#X connect 3 0 26 1;
#X connect 4 0 26 2;
#X connect 5 0 26 3;
#X connect 6 0 26 4;
#X connect 7 0 27 1;
#X connect 8 0 27 2;
#X connect 9 0 27 3;
#X connect 10 0 27 4;
#X connect 11 0 28 1;
#X connect 12 0 28 2;
#X connect 13 0 28 3;
#X connect 14 0 28 4;
#X connect 15 0 29 1;
#X connect 16 0 29 2;
#X connect 17 0 29 3;
#X connect 18 0 29 4;
#X connect 19 0 21 0;
#X connect 20 0 22 0;
#X connect 21 0 20 0;
#X connect 22 0 23 0;
#X connect 23 0 30 0;
#X connect 24 0 26 0;
#X connect 24 0 0 0;
#X connect 24 0 1 0;
#X connect 24 0 2 0;
#X connect 26 0 19 0;
#X connect 26 1 19 0;
#X connect 26 2 19 0;
#X connect 26 3 19 0;
#X connect 27 0 19 1;
#X connect 27 1 19 1;
#X connect 27 2 19 1;
#X connect 27 3 19 1;
#X connect 28 0 20 1;
#X connect 28 1 20 1;
#X connect 28 2 20 1;
#X connect 28 3 20 1;
#X connect 29 0 23 1;
#X connect 29 1 23 1;
#X connect 29 2 23 1;
#X connect 29 3 23 1;
#X connect 30 0 31 0;
#X connect 31 0 25 0;
#X connect 32 0 35 1;
#X connect 33 0 35 2;
#X connect 34 0 35 0;
#X connect 35 0 31 1;
#X connect 35 1 31 1;
#X restore 610 143 pd WaveFrmSet3;
#X obj 604 118 r cff;
#X obj 560 117 r cff2;
#X obj 560 137 r cff3;
#X obj 560 157 r cff4;
#X obj 610 172 *~ *;
#X obj 663 183 knob 32 32 0 0.4 0 0 empty empty empty 0 -8 0 8 -262144
-1 -1 3000 1;
#X text 659 161 VOL;
#X obj 609 202 s~ wv3;
#X obj 927 239 r~ wv3;
#X obj 886 289 *~;
#X obj 835 324 *~;
#X floatatom 91 96 5 0 0 0 - - -;
#X obj 730 241 r rSync;
#N canvas 201 116 649 388 visual 0;
#X obj 352 37 inlet;
#X obj 17 35 inlet GemCreate;
#X obj 213 36 inlet GemDestroy;
#X obj 117 36 inlet GemStart;
#X obj 48 243 gemwin;
#X msg 46 115 0;
#X msg 37 93 1;
#X obj 187 87 gemhead;
#X msg 17 71 create;
#X msg 128 87 destroy;
#X obj 187 165 color 1 1 0;
#X text 195 183 Set RGB tribplate;
#X msg 250 111 0 1 0;
#X msg 261 140 0.5 0.5 0.5;
#X floatatom 352 173 5 0 0 0 - - -;
#X obj 187 254 rotateXYZ;
#X obj 187 221 translateXYZ 2 2 0;
#X obj 187 286 square 0.5;
#X obj 420 173 color 1 1 0;
#X text 428 190 Set RGB tribplate;
#X msg 516 127 0 1 0;
#X msg 527 156 0.5 0.5 0.5;
#X obj 420 230 rotateXYZ;
#X obj 420 299 square 0.5;
#X obj 420 262 translateXYZ 2 -2 0;
#X obj 420 103 gemhead;
#X obj 352 81 f;
#X obj 352 143 mod 361;
#X text 46 263 Init Win Handler;
#X text 15 17 Create GEM Win;
#X text 212 17 Purge GEM Win;
#X text 115 17 Start GEM;
#X obj 352 111 + 10;
#X connect 0 0 26 0;
#X connect 1 0 8 0;
#X connect 2 0 9 0;
#X connect 3 0 4 0;
#X connect 7 0 10 0;
#X connect 8 0 4 0;
#X connect 9 0 4 0;
#X connect 10 0 16 0;
#X connect 12 0 10 1;
#X connect 13 0 10 1;
#X connect 14 0 15 3;
#X connect 14 0 22 3;
#X connect 15 0 17 0;
#X connect 16 0 15 0;
#X connect 18 0 22 0;
#X connect 20 0 18 1;
#X connect 21 0 18 1;
#X connect 22 0 24 0;
#X connect 24 0 23 0;
#X connect 25 0 18 0;
#X connect 26 0 32 0;
#X connect 27 0 14 0;
#X connect 27 0 26 1;
#X connect 32 0 27 0;
#X restore 724 42 pd visual;
#X obj 725 2 tgl 15 0 empty empty empty 17 7 0 10 -262144 -1 -1 0 1
;
#X obj 759 1 tgl 15 0 empty empty empty 17 7 0 10 -262144 -1 -1 0 1
;
#X obj 792 1 tgl 15 0 empty empty empty 17 7 0 10 -262144 -1 -1 0 1
;
#X obj 178 97 s gemTmp;
#X text 711 -17 Create;
#X text 789 -17 Destroy;
#X text 756 -27 Start;
#X text 756 -17 Stop;
#X text 711 -37 GEM VISUAL;
#X obj 790 25 r gemTmp;
#N canvas 0 0 450 300 (subpatch) 0;
#X array mel01 16 float 3;
#A 0 0.149998 -0.100001 -0.349999 -0.524997 -0.549997 -0.524997 0.0249984
0.199997 0.499995 -0.100001 -0.324999 0.624994 0.199997 0.299996 0.0249984
-0.0250012;
#X coords 0 1 16 -1 140 80 1 0 0;
#X restore 406 363 graph;
#N canvas 0 0 450 300 (subpatch) 0;
#X array mel02 16 float 3;
#A 0 0.249997 0.749994 0.299997 -0.499997 -0.349998 -0.0500002 0.0749988
0.224998 -0.424997 -0.474997 -0.224999 -5.32717e-007 0.249998 0.199998
-0.0500001 -0.125;
#X coords 0 1 16 -1 140 80 1 0 0;
#X restore 556 363 graph;
#X text 718 79 MASTERING MIX NODE;
#N canvas 495 99 450 300 melodyShaper 0;
#X obj 45 40 inlet;
#X obj 136 40 inlet;
#X obj 136 77 + 1;
#X obj 136 160 int;
#X obj 136 202 mtof;
#X floatatom 173 76 5 0 0 0 - - -;
#X obj 45 76 + 1;
#X obj 136 251 outlet;
#X floatatom 175 219 5 0 0 0 - - -;
#X obj 78 115 * 61;
#X obj 136 114 * 60;
#X connect 0 0 6 0;
#X connect 1 0 5 0;
#X connect 1 0 2 0;
#X connect 2 0 10 0;
#X connect 3 0 4 0;
#X connect 4 0 7 0;
#X connect 4 0 8 0;
#X connect 6 0 9 0;
#X connect 9 0 3 0;
#X connect 10 0 3 0;
#X restore 404 300 pd melodyShaper;
#X obj 404 271 tabread mel01;
#X obj 491 271 tabread mel02;
#X obj 404 242 r seqr;
#X obj 491 243 r seqr;
#X obj 404 326 s mldy;
#X obj 656 117 r mldy;
#X obj 509 117 r mldy;
#X connect 4 0 3 1;
#X connect 5 0 3 0;
#X connect 6 0 40 1;
#X connect 6 0 114 0;
#X connect 6 0 116 0;
#X connect 8 0 48 1;
#X connect 9 0 31 1;
#X connect 10 0 31 2;
#X connect 11 0 31 3;
#X connect 12 0 31 4;
#X connect 18 0 48 2;
#X connect 20 0 29 4;
#X connect 21 0 29 3;
#X connect 22 0 29 0;
#X connect 23 0 29 2;
#X connect 24 0 29 1;
#X connect 29 0 93 0;
#X connect 31 0 32 0;
#X connect 31 1 33 0;
#X connect 31 2 34 0;
#X connect 31 3 35 0;
#X connect 39 0 31 0;
#X connect 40 0 42 0;
#X connect 40 0 143 0;
#X connect 40 1 149 0;
#X connect 41 0 49 0;
#X connect 41 0 58 0;
#X connect 41 0 82 0;
#X connect 43 0 41 0;
#X connect 44 0 79 0;
#X connect 48 0 61 0;
#X connect 49 0 74 0;
#X connect 50 0 57 1;
#X connect 51 0 57 2;
#X connect 57 0 64 0;
#X connect 59 0 48 0;
#X connect 62 0 57 0;
#X connect 65 0 68 0;
#X connect 65 0 40 0;
#X connect 69 0 125 0;
#X connect 70 0 125 2;
#X connect 71 0 125 4;
#X connect 72 0 125 6;
#X connect 73 0 125 9;
#X connect 75 0 125 1;
#X connect 76 0 125 3;
#X connect 77 0 125 5;
#X connect 78 0 125 7;
#X connect 80 0 125 10;
#X connect 82 0 81 0;
#X connect 82 0 83 0;
#X connect 85 0 31 0;
#X connect 87 0 31 0;
#X connect 89 0 31 0;
#X connect 90 0 38 0;
#X connect 90 1 84 0;
#X connect 90 2 86 0;
#X connect 90 3 88 0;
#X connect 91 0 90 0;
#X connect 92 0 125 8;
#X connect 95 0 101 0;
#X connect 95 0 100 0;
#X connect 96 0 97 0;
#X connect 96 0 97 1;
#X connect 98 0 99 1;
#X connect 99 0 97 0;
#X connect 99 1 97 1;
#X connect 100 0 97 0;
#X connect 100 0 97 1;
#X connect 101 0 99 0;
#X connect 102 0 99 2;
#X connect 103 0 99 3;
#X connect 104 0 99 4;
#X connect 108 0 96 1;
#X connect 109 0 127 0;
#X connect 109 0 141 0;
#X connect 110 0 98 1;
#X connect 110 0 101 1;
#X connect 115 0 100 1;
#X connect 117 0 118 0;
#X connect 118 0 119 0;
#X connect 120 0 117 0;
#X connect 122 0 117 0;
#X connect 123 0 117 0;
#X connect 124 0 117 0;
#X connect 125 0 94 0;
#X connect 126 0 127 1;
#X connect 127 0 142 0;
#X connect 128 0 118 1;
#X connect 131 0 136 0;
#X connect 132 0 131 0;
#X connect 133 0 131 0;
#X connect 134 0 131 0;
#X connect 135 0 131 0;
#X connect 136 0 139 0;
#X connect 137 0 136 1;
#X connect 140 0 141 1;
#X connect 141 0 142 1;
#X connect 142 0 96 0;
#X connect 142 0 98 0;
#X connect 144 0 95 0;
#X connect 146 0 145 0;
#X connect 147 0 145 1;
#X connect 148 0 145 2;
#X connect 155 0 145 3;
#X connect 159 0 164 0;
#X connect 160 0 159 0;
#X connect 161 0 159 1;
#X connect 162 0 160 0;
#X connect 163 0 161 0;
#X connect 165 0 131 1;
#X connect 166 0 117 1;
