#N canvas 436 250 515 437 10;
#X obj 28 55 hradio 15 1 0 2 empty empty empty 0 -8 0 10 -262144 -1
-1 1;
#X text 24 23 SOUND OUTPUT DEVICE;
#N canvas 569 284 266 119 sndONOFF 0;
#X text 28 6 OFF;
#X text 103 5 ON;
#X obj 22 -73 inlet;
#X obj 22 -39 sel 0 1;
#X msg 22 23 \; pd dsp 0;
#X msg 97 22 \; pd dsp 1;
#X connect 2 0 3 0;
#X connect 3 0 4 0;
#X connect 3 1 5 0;
#X restore 28 71 pd sndONOFF;
#X text 46 39 On;
#X text 25 39 Off;
#X obj 27 121 hradio 15 1 0 2 empty empty empty 0 -8 0 10 -262144 -1
-1 1;
#N canvas 192 291 450 300 setGEM 0;
#X obj 116 30 inlet load;
#X obj 194 94 gemwin;
#X obj 28 30 inlet set/del;
#X obj 194 129 outlet;
#X msg 194 55 dimen 400 300;
#X obj 194 31 r lb;
#X obj 196 155 loadbang;
#X obj 196 180 s lb;
#X obj 28 60 sel 0 1;
#X msg 67 84 create;
#X msg 65 109 destroy;
#X connect 0 0 1 0;
#X connect 1 0 3 0;
#X connect 2 0 8 0;
#X connect 4 0 1 0;
#X connect 5 0 4 0;
#X connect 6 0 7 0;
#X connect 8 0 10 0;
#X connect 8 1 9 0;
#X connect 9 0 1 0;
#X connect 10 0 1 0;
#X restore 27 137 pd setGEM;
#X obj 78 121 tgl 15 0 empty empty empty 17 7 0 10 -262144 -1 -1 1
1;
#X text 24 99 GEM SET;
#X obj 346 163 line~;
#X obj 329 179 *~;
#X obj 320 16 bng 15 250 50 0 empty empty empty 17 7 0 10 -262144 -1
-1;
#X obj 329 197 lop~ 200;
#X obj 270 91 sel 0 1 2 3;
#X msg 265 117 120;
#X msg 294 117 220;
#X msg 324 116 320;
#X msg 353 116 420;
#X obj 265 162 osc~;
#X obj 239 44 counter;
#X obj 255 67 % 4;
#X obj 166 24 gemhead;
#X obj 166 97 color;
#X obj 329 215 *~ 0.5;
#X obj 318 238 dac~;
#X obj 335 53 tgl 15 0 empty empty empty 17 7 0 10 -262144 -1 -1 1
1;
#X obj 335 73 metro 210;
#X obj 360 38 knob 32 32 100 300 0 0 empty empty empty 0 -8 0 8 -262144
-1 -1 3100 1;
#X obj 222 186 expr 1 - $f1;
#X msg 346 145 1 \, 0 120;
#X floatatom 396 73 5 0 0 0 - - -;
#X obj 133 285 print \$1;
#X msg 183 135 \$1 1 \$1;
#X msg 203 162 -1 \$1 0;
#X msg 247 228 0 -1 \$1;
#X msg 222 208 -2 \$1 \$1;
#X msg 193 44 0 \$1 1;
#X obj 166 246 polygon 4 ___;
#X connect 0 0 2 0;
#X connect 5 0 6 0;
#X connect 7 0 6 1;
#X connect 9 0 10 1;
#X connect 10 0 12 0;
#X connect 11 0 29 0;
#X connect 11 0 19 0;
#X connect 12 0 23 0;
#X connect 13 0 14 0;
#X connect 13 1 15 0;
#X connect 13 2 16 0;
#X connect 13 3 17 0;
#X connect 14 0 18 0;
#X connect 15 0 18 0;
#X connect 16 0 18 0;
#X connect 17 0 18 0;
#X connect 18 0 10 0;
#X connect 19 0 20 0;
#X connect 20 0 13 0;
#X connect 20 0 32 0;
#X connect 20 0 33 0;
#X connect 20 0 28 0;
#X connect 20 0 34 0;
#X connect 20 0 36 0;
#X connect 21 0 22 0;
#X connect 22 0 37 0;
#X connect 23 0 24 0;
#X connect 23 0 24 1;
#X connect 25 0 26 0;
#X connect 26 0 11 0;
#X connect 27 0 26 1;
#X connect 27 0 30 0;
#X connect 28 0 35 0;
#X connect 29 0 9 0;
#X connect 32 0 37 1;
#X connect 33 0 37 2;
#X connect 34 0 37 4;
#X connect 35 0 31 0;
#X connect 35 0 37 3;
#X connect 36 0 22 1;
