#N canvas 416 135 872 439 10;
#X obj 35 122 loadbang;
#X msg 35 39 dimen 400 300;
#X obj 12 64 tgl 15 0 empty empty empty 17 7 0 10 -262144 -1 -1 0 1
;
#X msg 42 61 create;
#X msg 88 61 destroy;
#X obj 35 100 gemwin;
#X obj 35 147 s lb;
#X obj 35 14 r lb;
#N canvas 568 197 697 472 synth 0;
#X obj -14 9 inlet note;
#X obj 56 9 inlet note;
#X obj 127 8 inlet note;
#X obj -14 30 mtof;
#X floatatom -53 47 5 0 0 0 - - -;
#X obj 19 98 phasor~;
#X obj -50 212 clip~ 0 1;
#X obj 18 210 clip~ 0 1;
#X obj 19 63 * -1;
#X obj -51 175 -~ -1;
#X obj 18 175 -~ -1;
#X obj -51 139 *~ -2;
#X obj 19 136 *~ -2;
#X msg 90 60 0;
#X obj 122 45 bng 15 250 50 0 empty empty empty 17 7 0 10 -262144 -1
-1;
#X obj 82 210 *~ 0.2;
#X obj 71 97 osc~;
#X obj -9 294 osc~;
#X obj -126 256 + 1;
#X obj -93 255 + 1;
#X obj -90 294 osc~;
#X obj -165 294 * 2;
#X obj 22 294 osc~;
#X obj 53 294 phasor~;
#X obj -140 294 phasor~;
#X obj -23 369 lop~;
#X obj -69 370 hip~;
#X obj 4 256 *~;
#X floatatom 64 341 5 0 0 0 - - -;
#X obj 70 177 lop~ 250;
#X obj 70 136 *~ 0.4;
#X obj -52 101 osc~;
#X floatatom 149 45 5 0 0 0 - - -;
#X obj 126 102 phasor~;
#X obj 127 209 clip~ 0 1;
#X obj 191 209 clip~ 0 1;
#X obj 128 249 +~;
#X obj 208 79 * -1;
#X obj 127 176 -~ -1;
#X obj 195 175 -~ -1;
#X obj 212 257 clip~ 0 1;
#X obj 175 283 +~;
#X obj 250 61 * -2;
#X obj 251 227 -~ -1;
#X obj 251 136 *~ -1;
#X obj 194 139 *~ -1;
#X msg 194 43 1;
#X obj 127 140 *~ -1;
#X obj 11 405 -~ 0.2;
#X obj 105 293 +~;
#X obj -59 255 - 1;
#X obj -24 256 - 1;
#X obj 75 421 *~;
#X obj 159 344 +~;
#X obj -46 343 *~ 0.2;
#X obj 0 342 *~ 0.2;
#X obj -157 256 - 1;
#X obj -48 294 osc~;
#X obj 194 112 osc~;
#X obj 250 93 osc~;
#X obj 74 447 outlet~;
#X obj 317 92 square~;
#X obj 317 125 +~ -2;
#X obj 318 160 *~ 0.5;
#X obj 317 208 hip~;
#X obj 411 63 - 1;
#X obj 234 318 +;
#X connect 0 0 3 0;
#X connect 0 0 14 0;
#X connect 1 0 46 0;
#X connect 3 0 4 0;
#X connect 4 0 8 0;
#X connect 4 0 21 0;
#X connect 4 0 24 0;
#X connect 4 0 16 0;
#X connect 4 0 31 0;
#X connect 4 0 32 0;
#X connect 4 0 56 0;
#X connect 4 0 20 0;
#X connect 4 0 17 0;
#X connect 4 0 22 0;
#X connect 4 0 23 0;
#X connect 4 0 65 1;
#X connect 5 0 12 0;
#X connect 6 0 27 0;
#X connect 7 0 27 1;
#X connect 8 0 5 0;
#X connect 9 0 6 0;
#X connect 10 0 7 0;
#X connect 11 0 9 0;
#X connect 12 0 10 0;
#X connect 13 0 5 0;
#X connect 13 0 31 1;
#X connect 14 0 13 0;
#X connect 15 0 49 1;
#X connect 16 0 30 0;
#X connect 18 0 19 0;
#X connect 19 0 50 0;
#X connect 19 0 51 0;
#X connect 19 0 57 0;
#X connect 20 0 55 0;
#X connect 21 0 26 1;
#X connect 22 0 54 0;
#X connect 23 0 54 0;
#X connect 24 0 54 0;
#X connect 25 0 48 0;
#X connect 26 0 48 0;
#X connect 27 0 49 0;
#X connect 28 0 25 1;
#X connect 29 0 15 0;
#X connect 30 0 29 0;
#X connect 31 0 11 0;
#X connect 32 0 33 0;
#X connect 32 0 37 0;
#X connect 32 0 42 0;
#X connect 32 0 61 0;
#X connect 33 0 47 0;
#X connect 34 0 36 0;
#X connect 35 0 36 1;
#X connect 36 0 41 0;
#X connect 37 0 58 0;
#X connect 38 0 34 0;
#X connect 39 0 35 0;
#X connect 40 0 41 1;
#X connect 41 0 66 0;
#X connect 42 0 59 0;
#X connect 43 0 40 0;
#X connect 44 0 43 0;
#X connect 45 0 39 0;
#X connect 46 0 33 1;
#X connect 46 0 58 0;
#X connect 47 0 38 0;
#X connect 48 0 52 0;
#X connect 49 0 53 0;
#X connect 52 0 60 0;
#X connect 53 0 52 1;
#X connect 54 0 26 0;
#X connect 55 0 25 0;
#X connect 56 0 18 0;
#X connect 57 0 55 0;
#X connect 58 0 45 0;
#X connect 59 0 44 0;
#X connect 61 0 62 0;
#X connect 62 0 63 0;
#X connect 63 0 64 0;
#X connect 64 0 66 1;
#X connect 65 0 64 1;
#X connect 66 0 53 1;
#X restore 144 81 pd synth;
#X obj 165 10 notein;
#X floatatom 165 44 5 0 0 0 - - -;
#X obj 318 78 tgl 15 0 empty empty empty 17 7 0 10 -262144 -1 -1 60
60;
#X obj 272 78 tgl 15 0 empty empty empty 17 7 0 10 -262144 -1 -1 49
49;
#X obj 273 60 moses 60;
#X floatatom 237 37 5 0 0 0 - - -;
#X floatatom 201 37 5 0 0 0 - - -;
#X obj 144 104 *~ 0.2;
#X obj 98 146 dac~ 1 2;
#X floatatom 410 101 5 0 0 0 - - -;
#X floatatom 516 101 5 0 0 0 - - -;
#X floatatom 481 101 5 0 0 0 - - -;
#X floatatom 445 102 5 0 0 0 - - -;
#X floatatom 551 101 5 0 0 0 - - -;
#X obj 589 117 tgl 15 0 empty empty empty 17 7 0 10 -262144 -1 -1 0
1;
#X floatatom 608 117 5 0 0 0 - - -;
#X floatatom 653 116 5 0 0 0 - - -;
#X floatatom 760 116 5 0 0 0 - - -;
#X floatatom 723 116 5 0 0 0 - - -;
#X floatatom 688 116 5 0 0 0 - - -;
#X floatatom 796 116 5 0 0 0 - - -;
#N canvas 346 28 979 545 vector 0;
#X obj 36 122 part_color;
#X obj 36 87 part_head 200;
#X msg 140 59 0 0 \$1;
#X msg 193 59 1 1 \$1;
#X msg 134 88 0 \$1 0;
#X msg 204 88 1 \$1 1;
#X obj 286 71 r lb;
#X obj 37 241 part_size;
#X obj 37 308 part_render;
#X obj 37 273 part_killold 20;
#X msg 223 429 draw line;
#X msg 299 430 draw point;
#X msg 149 429 draw fill;
#X obj 36 446 sphere;
#X obj 33 476 cube;
#X obj 36 527 triangle;
#X obj 36 555 rectangle;
#X obj 36 499 cylinder;
#X obj 37 364 translate;
#X floatatom 158 525 5 0 0 0 - - -;
#X floatatom 192 542 5 0 0 0 - - -;
#X floatatom 196 486 5 0 0 0 - - -;
#X floatatom 160 468 5 0 0 0 - - -;
#X floatatom 113 509 5 0 0 0 - - -;
#X obj 145 271 hsl 128 15 0 20 0 0 empty empty empty -2 -8 0 10 -262144
-1 -1 2540 1;
#X obj 174 294 hsl 128 15 0 20 0 0 empty empty empty -2 -8 0 10 -262144
-1 -1 2540 1;
#X obj 221 313 hsl 128 15 0 20 0 0 empty empty empty -2 -8 0 10 -262144
-1 -1 2540 1;
#X floatatom 116 388 5 0 0 0 - - -;
#X floatatom 78 388 5 0 20 0 - - -;
#X msg 102 334 \$1 0 0;
#X msg 157 334 0 \$1 0;
#X msg 218 333 0 0 \$1;
#X msg 52 58 speed \$1;
#X obj 37 175 part_source 4 point;
#X obj 361 32 metro 200;
#X obj 361 77 counter;
#X obj 361 55 bng 15 250 50 0 empty empty empty 17 7 0 10 -262144 -1
-1;
#X obj 361 99 mod 3;
#X obj 361 122 sel 0 1 2;
#X msg 303 146 0 -3 0 4;
#X msg 361 146 0 -3 0 0;
#X msg 423 146 0 -2 -3 0;
#X obj 299 505 counter;
#X obj 299 480 bng 15 250 50 0 empty empty empty 17 7 0 10 -262144
-1 -1;
#X obj 299 454 metro 3000;
#X obj 299 532 mod 10;
#X floatatom 298 574 5 0 0 0 - - -;
#X obj 301 556 hsl 128 15 0 20 0 0 empty empty empty -2 -8 0 10 -262144
-1 -1 5715 1;
#X msg 182 201 -0.2 0.3 0.2 0.3;
#X msg 182 221 0 0.3 0 0.3;
#X msg 183 241 0.2 0.3 0.2 0.3;
#X obj 37 215 part_velocity;
#X obj 374 353 rotateXYZ;
#X floatatom 431 327 5 0 0 0 - - -;
#X floatatom 469 326 5 0 0 0 - - -;
#X floatatom 393 327 5 0 0 0 - - -;
#X obj 411 230 mod 361;
#X floatatom 56 335 5 0 0 0 - - -;
#X obj 546 127 part_color;
#X obj 546 92 part_head 200;
#X msg 655 65 0 0 \$1;
#X msg 707 64 1 1 \$1;
#X msg 644 93 0 \$1 0;
#X msg 700 94 1 \$1 1;
#X obj 775 76 r lb;
#X obj 547 246 part_size;
#X obj 547 313 part_render;
#X obj 547 278 part_killold 20;
#X msg 733 434 draw line;
#X msg 809 435 draw point;
#X msg 659 434 draw fill;
#X obj 546 451 sphere;
#X obj 543 481 cube;
#X obj 546 532 triangle;
#X obj 546 560 rectangle;
#X obj 546 504 cylinder;
#X obj 547 369 translate;
#X floatatom 668 530 5 0 0 0 - - -;
#X floatatom 702 547 5 0 0 0 - - -;
#X floatatom 706 491 5 0 0 0 - - -;
#X floatatom 670 473 5 0 0 0 - - -;
#X floatatom 623 514 5 0 0 0 - - -;
#X obj 655 276 hsl 128 15 0 20 0 0 empty empty empty -2 -8 0 10 -262144
-1 -1 2540 1;
#X obj 684 299 hsl 128 15 0 20 0 0 empty empty empty -2 -8 0 10 -262144
-1 -1 2540 1;
#X obj 731 318 hsl 128 15 0 20 0 0 empty empty empty -2 -8 0 10 -262144
-1 -1 2540 1;
#X floatatom 626 393 5 0 0 0 - - -;
#X floatatom 588 393 5 0 20 0 - - -;
#X msg 612 339 \$1 0 0;
#X msg 667 339 0 \$1 0;
#X msg 728 338 0 0 \$1;
#X msg 562 63 speed \$1;
#X obj 547 180 part_source 4 point;
#X obj 809 510 counter;
#X obj 809 485 bng 15 250 50 0 empty empty empty 17 7 0 10 -262144
-1 -1;
#X obj 809 459 metro 3000;
#X obj 809 535 mod 10;
#X floatatom 808 579 5 0 0 0 - - -;
#X obj 811 561 hsl 128 15 0 20 0 0 empty empty empty -2 -8 0 10 -262144
-1 -1 5715 1;
#X msg 692 206 -0.2 0.3 0.2 0.3;
#X msg 692 226 0 0.3 0 0.3;
#X msg 691 247 0.2 0.3 0.2 0.3;
#X obj 547 220 part_velocity;
#X obj 382 501 rotateXYZ;
#X floatatom 439 475 5 0 0 0 - - -;
#X floatatom 477 474 5 0 0 0 - - -;
#X floatatom 401 475 5 0 0 0 - - -;
#X obj 428 422 mod 361;
#X floatatom 566 340 5 0 0 0 - - -;
#X obj 302 244 mod 20;
#X obj 36 30 gemhead;
#X obj 546 37 gemhead;
#X obj 36 6 inlet;
#X obj 607 8 inlet;
#X obj 100 7 inlet;
#X obj 140 8 inlet;
#X obj 193 9 inlet;
#X obj 361 9 inlet;
#X obj 546 8 inlet;
#X obj 707 9 inlet;
#X obj 655 9 inlet;
#X obj 238 9 inlet;
#X obj 279 10 inlet;
#X obj 817 9 inlet;
#X obj 765 8 inlet;
#X obj 412 10 inlet;
#X connect 0 0 33 0;
#X connect 0 0 52 0;
#X connect 1 0 0 0;
#X connect 2 0 0 1;
#X connect 3 0 0 2;
#X connect 4 0 0 1;
#X connect 5 0 0 2;
#X connect 6 0 4 0;
#X connect 6 0 5 0;
#X connect 7 0 9 0;
#X connect 8 0 18 0;
#X connect 9 0 8 0;
#X connect 10 0 13 0;
#X connect 11 0 13 0;
#X connect 12 0 13 0;
#X connect 12 0 14 0;
#X connect 12 0 17 0;
#X connect 12 0 15 0;
#X connect 12 0 16 0;
#X connect 18 0 13 0;
#X connect 18 0 14 0;
#X connect 18 0 17 0;
#X connect 18 0 15 0;
#X connect 18 0 16 0;
#X connect 19 0 16 1;
#X connect 20 0 16 2;
#X connect 21 0 17 2;
#X connect 22 0 17 1;
#X connect 23 0 15 1;
#X connect 24 0 29 0;
#X connect 25 0 30 0;
#X connect 26 0 31 0;
#X connect 27 0 13 1;
#X connect 27 0 7 1;
#X connect 28 0 13 2;
#X connect 29 0 18 2;
#X connect 30 0 18 2;
#X connect 31 0 18 2;
#X connect 32 0 1 0;
#X connect 33 0 51 0;
#X connect 34 0 36 0;
#X connect 35 0 37 0;
#X connect 35 0 56 0;
#X connect 35 0 106 0;
#X connect 35 0 108 0;
#X connect 35 0 12 0;
#X connect 35 0 68 0;
#X connect 35 0 44 0;
#X connect 35 0 94 0;
#X connect 36 0 35 0;
#X connect 37 0 38 0;
#X connect 38 0 39 0;
#X connect 38 0 48 0;
#X connect 38 0 98 0;
#X connect 38 1 40 0;
#X connect 38 1 49 0;
#X connect 38 1 99 0;
#X connect 38 2 41 0;
#X connect 38 2 50 0;
#X connect 38 2 100 0;
#X connect 39 0 33 3;
#X connect 39 0 91 3;
#X connect 40 0 33 3;
#X connect 41 0 33 3;
#X connect 41 0 91 3;
#X connect 42 0 45 0;
#X connect 43 0 42 0;
#X connect 44 0 43 0;
#X connect 45 0 47 0;
#X connect 45 0 22 0;
#X connect 45 0 20 0;
#X connect 45 0 19 0;
#X connect 45 0 23 0;
#X connect 45 0 27 0;
#X connect 45 0 28 0;
#X connect 46 0 21 0;
#X connect 46 0 14 1;
#X connect 47 0 46 0;
#X connect 48 0 51 2;
#X connect 49 0 51 2;
#X connect 50 0 51 2;
#X connect 51 0 7 0;
#X connect 52 0 13 0;
#X connect 53 0 52 2;
#X connect 54 0 52 3;
#X connect 55 0 52 1;
#X connect 56 0 54 0;
#X connect 56 0 55 0;
#X connect 56 0 53 0;
#X connect 57 0 18 1;
#X connect 58 0 91 0;
#X connect 58 0 102 0;
#X connect 59 0 58 0;
#X connect 60 0 58 1;
#X connect 61 0 58 2;
#X connect 62 0 58 1;
#X connect 63 0 58 2;
#X connect 64 0 62 0;
#X connect 64 0 63 0;
#X connect 65 0 67 0;
#X connect 66 0 76 0;
#X connect 67 0 66 0;
#X connect 68 0 71 0;
#X connect 69 0 71 0;
#X connect 70 0 71 0;
#X connect 70 0 72 0;
#X connect 70 0 75 0;
#X connect 70 0 73 0;
#X connect 70 0 74 0;
#X connect 76 0 71 0;
#X connect 76 0 72 0;
#X connect 76 0 75 0;
#X connect 76 0 73 0;
#X connect 76 0 74 0;
#X connect 77 0 74 1;
#X connect 78 0 74 2;
#X connect 79 0 75 2;
#X connect 80 0 75 1;
#X connect 81 0 73 1;
#X connect 82 0 87 0;
#X connect 83 0 88 0;
#X connect 84 0 89 0;
#X connect 85 0 71 1;
#X connect 85 0 65 1;
#X connect 86 0 71 2;
#X connect 87 0 76 2;
#X connect 88 0 76 2;
#X connect 89 0 76 2;
#X connect 90 0 59 0;
#X connect 91 0 101 0;
#X connect 92 0 95 0;
#X connect 93 0 92 0;
#X connect 94 0 93 0;
#X connect 95 0 97 0;
#X connect 95 0 81 0;
#X connect 95 0 77 0;
#X connect 95 0 78 0;
#X connect 95 0 80 0;
#X connect 95 0 86 0;
#X connect 95 0 85 0;
#X connect 96 0 79 0;
#X connect 96 0 72 1;
#X connect 97 0 96 0;
#X connect 98 0 101 2;
#X connect 99 0 101 2;
#X connect 100 0 101 2;
#X connect 101 0 65 0;
#X connect 102 0 71 0;
#X connect 103 0 102 2;
#X connect 104 0 102 3;
#X connect 105 0 102 1;
#X connect 106 0 104 0;
#X connect 106 0 105 0;
#X connect 106 0 103 0;
#X connect 107 0 76 1;
#X connect 108 0 24 0;
#X connect 108 0 25 0;
#X connect 108 0 26 0;
#X connect 108 0 57 0;
#X connect 108 0 107 0;
#X connect 108 0 82 0;
#X connect 108 0 83 0;
#X connect 108 0 84 0;
#X connect 109 0 1 0;
#X connect 110 0 59 0;
#X connect 111 0 109 0;
#X connect 112 0 90 0;
#X connect 113 0 32 0;
#X connect 114 0 2 0;
#X connect 115 0 3 0;
#X connect 116 0 34 0;
#X connect 117 0 110 0;
#X connect 118 0 61 0;
#X connect 119 0 60 0;
#X connect 120 0 4 0;
#X connect 121 0 5 0;
#X connect 122 0 63 0;
#X connect 123 0 62 0;
#X connect 124 0 34 1;
#X restore 570 171 pd vector;
#X obj 382 92 bng 15 250 50 0 empty empty empty 17 7 0 10 -262144 -1
-1;
#X obj 645 93 bng 15 250 50 0 empty empty empty 17 7 0 10 -262144 -1
-1;
#X obj 316 122 tgl 15 0 empty empty empty 17 7 0 10 -262144 -1 -1 69
69;
#X obj 270 122 tgl 15 0 empty empty empty 17 7 0 10 -262144 -1 -1 0
44;
#X obj 271 104 moses 60;
#X obj 205 84 vsl 15 128 0 127 0 0 empty empty empty 0 -9 0 10 -262144
-1 -1 3000 1;
#N canvas 519 55 805 526 ant_vactor 0;
#X obj 47 150 part_color;
#X obj 47 115 part_head 200;
#X obj 47 251 part_size;
#X obj 47 318 part_render;
#X obj 47 283 part_killold 20;
#X obj 49 394 sphere;
#X obj 49 430 cube;
#X obj 52 481 triangle;
#X obj 52 453 cylinder;
#X obj 47 355 translate;
#X msg 101 59 speed \$1;
#X obj 47 185 part_source 4 point;
#X obj 47 225 part_velocity;
#X obj 47 61 gemhead;
#X obj 47 20 inlet;
#X obj 276 25 inlet;
#X obj 319 25 inlet;
#X obj 277 84 bng 15 250 50 0 empty empty empty 17 7 0 10 -262144 -1
-1;
#X obj 276 105 counter;
#X obj 276 132 mod 361;
#X obj 278 162 sel 0 1 2 3;
#X obj 101 22 inlet;
#X obj 175 26 inlet;
#X obj 216 25 inlet;
#X msg 197 195 0 -2 0 4;
#X msg 259 197 0 -1 0 3;
#X msg 317 196 1 0 -1 -3;
#X floatatom 104 380 5 0 0 0 - - -;
#X floatatom 97 412 5 0 0 0 - - -;
#X obj 226 133 mod 3;
#X obj 276 53 metro 200;
#X floatatom 116 439 5 0 0 0 - - -;
#X floatatom 119 474 5 0 0 0 - - -;
#X obj 454 164 part_color;
#X obj 454 129 part_head 200;
#X obj 454 265 part_size;
#X obj 454 332 part_render;
#X obj 454 297 part_killold 20;
#X obj 456 408 sphere;
#X obj 456 444 cube;
#X obj 459 495 triangle;
#X obj 459 467 cylinder;
#X obj 454 369 translate;
#X msg 508 73 speed \$1;
#X obj 454 199 part_source 4 point;
#X obj 454 239 part_velocity;
#X obj 454 75 gemhead;
#X obj 446 20 inlet;
#X obj 500 22 inlet;
#X obj 574 26 inlet;
#X obj 615 25 inlet;
#X floatatom 387 397 5 0 0 0 - - -;
#X floatatom 393 428 5 0 0 0 - - -;
#X floatatom 402 464 5 0 0 0 - - -;
#X floatatom 402 491 5 0 0 0 - - -;
#X floatatom 129 247 5 0 0 0 - - -;
#X floatatom 531 265 5 0 0 0 - - -;
#X connect 0 0 11 0;
#X connect 1 0 0 0;
#X connect 2 0 4 0;
#X connect 3 0 9 0;
#X connect 4 0 3 0;
#X connect 9 0 5 0;
#X connect 9 0 6 0;
#X connect 9 0 8 0;
#X connect 9 0 7 0;
#X connect 10 0 1 0;
#X connect 11 0 12 0;
#X connect 12 0 2 0;
#X connect 13 0 1 0;
#X connect 14 0 13 0;
#X connect 15 0 30 0;
#X connect 16 0 30 1;
#X connect 17 0 18 0;
#X connect 18 0 19 0;
#X connect 18 0 29 0;
#X connect 19 0 20 0;
#X connect 20 0 24 0;
#X connect 20 1 25 0;
#X connect 20 2 26 0;
#X connect 21 0 10 0;
#X connect 22 0 0 1;
#X connect 23 0 0 2;
#X connect 24 0 12 2;
#X connect 24 0 11 3;
#X connect 24 0 9 2;
#X connect 24 0 45 0;
#X connect 25 0 12 2;
#X connect 25 0 11 3;
#X connect 25 0 9 2;
#X connect 25 0 45 0;
#X connect 26 0 11 3;
#X connect 26 0 12 2;
#X connect 26 0 9 2;
#X connect 26 0 45 0;
#X connect 26 0 42 2;
#X connect 27 0 5 2;
#X connect 28 0 6 1;
#X connect 29 0 27 0;
#X connect 29 0 28 0;
#X connect 29 0 31 0;
#X connect 29 0 32 0;
#X connect 29 0 54 0;
#X connect 29 0 53 0;
#X connect 29 0 52 0;
#X connect 29 0 51 0;
#X connect 29 0 55 0;
#X connect 29 0 56 0;
#X connect 30 0 17 0;
#X connect 31 0 8 2;
#X connect 32 0 7 1;
#X connect 33 0 44 0;
#X connect 34 0 33 0;
#X connect 35 0 37 0;
#X connect 36 0 42 0;
#X connect 37 0 36 0;
#X connect 42 0 38 0;
#X connect 42 0 39 0;
#X connect 42 0 41 0;
#X connect 42 0 40 0;
#X connect 43 0 34 0;
#X connect 44 0 45 0;
#X connect 45 0 35 0;
#X connect 46 0 34 0;
#X connect 47 0 46 0;
#X connect 48 0 43 0;
#X connect 49 0 33 1;
#X connect 50 0 33 2;
#X connect 51 0 38 2;
#X connect 52 0 39 1;
#X connect 53 0 41 2;
#X connect 54 0 40 1;
#X connect 55 0 2 1;
#X connect 56 0 35 1;
#X restore 351 168 pd ant_vactor;
#X obj 272 143 bng 15 250 50 0 empty empty empty 17 7 0 10 -262144
-1 -1;
#X obj 317 145 bng 15 250 50 0 empty empty empty 17 7 0 10 -262144
-1 -1;
#X connect 0 0 6 0;
#X connect 1 0 5 0;
#X connect 2 0 5 0;
#X connect 3 0 5 0;
#X connect 4 0 5 0;
#X connect 7 0 1 0;
#X connect 8 0 16 0;
#X connect 9 0 10 0;
#X connect 9 1 15 0;
#X connect 9 2 14 0;
#X connect 10 0 8 0;
#X connect 10 0 13 0;
#X connect 11 0 32 0;
#X connect 12 0 31 0;
#X connect 13 0 12 0;
#X connect 13 1 11 0;
#X connect 14 0 8 2;
#X connect 15 0 8 1;
#X connect 15 0 35 0;
#X connect 16 0 17 0;
#X connect 16 0 17 1;
#X connect 18 0 30 1;
#X connect 18 0 37 1;
#X connect 19 0 30 4;
#X connect 19 0 37 3;
#X connect 20 0 30 3;
#X connect 20 0 37 2;
#X connect 21 0 30 2;
#X connect 22 0 30 5;
#X connect 23 0 30 6;
#X connect 23 0 37 4;
#X connect 24 0 30 7;
#X connect 24 0 37 5;
#X connect 25 0 30 9;
#X connect 26 0 30 12;
#X connect 27 0 30 11;
#X connect 28 0 30 10;
#X connect 29 0 30 13;
#X connect 31 0 30 0;
#X connect 32 0 30 8;
#X connect 33 0 39 0;
#X connect 34 0 38 0;
#X connect 35 0 34 0;
#X connect 35 1 33 0;
#X connect 36 0 16 1;
#X connect 38 0 37 0;
