#N canvas 331 17 1022 611 10;
#X obj 220 69 vsl 15 128 0 1 0 0 empty empty empty 0 -9 0 10 -262144
-1 -1 0 1;
#X floatatom 241 233 5 0 0 0 - - -;
#X floatatom 277 233 5 0 0 0 - - -;
#X obj 87 108 tgl 15 0 empty empty empty 17 7 0 10 -262144 -1 -1 0
1;
#X msg 87 143 lighting \$1;
#X floatatom 314 233 5 0 0 0 - - -;
#X obj 305 71 vsl 15 128 0 10 0 0 empty empty empty 0 -9 0 10 -262144
-1 -1 0 1;
#X obj 325 71 vsl 15 128 0 -10 0 0 empty empty empty 0 -9 0 10 -262144
-1 -1 0 1;
#X obj 695 166 loadbang;
#X obj 579 237 multi_counter;
#X obj 665 198 bng 15 250 50 0 empty empty empty 17 7 0 10 -262144
-1 -1;
#X floatatom 617 273 5 0 0 0 - - -;
#X msg 695 196 20;
#X obj 631 139 tgl 15 0 empty empty empty 17 7 0 10 -262144 -1 -1 0
1;
#X obj 631 166 metro 240;
#X msg 521 166 up;
#X msg 550 166 down;
#X msg 585 166 updown;
#X floatatom 682 137 5 0 0 0 - - -;
#X obj 513 321 hsl 128 15 0 6 0 0 empty empty empty -2 -8 0 10 -262144
-1 -1 800 1;
#X floatatom 461 265 5 0 0 0 - - -;
#X floatatom 497 266 5 0 0 0 - - -;
#X floatatom 533 266 5 0 0 0 - - -;
#X floatatom 438 350 5 0 0 0 - - -;
#X obj 461 292 pack f f f;
#X obj 353 67 hsl 128 15 0 1 0 0 empty empty empty -2 -8 0 10 -258113
-1 -1 7800 1;
#X floatatom 444 100 5 0 0 0 - - -;
#X obj 491 66 hsl 128 15 0 1 0 0 empty empty empty -2 -8 0 10 -4034
-1 -1 9300 1;
#X obj 632 66 hsl 128 15 0 1 0 0 empty empty empty -2 -8 0 10 -4160
-1 -1 12700 1;
#X obj 402 169 pack f f f;
#X obj 488 99 trigger b f;
#X obj 629 100 trigger b f;
#X msg 484 169 360;
#X obj 476 236 multi_counter;
#X msg 597 190 360;
#X obj 10 162 tgl 15 0 empty empty empty 17 7 0 10 -262144 -1 -1 0
1;
#X obj 10 239 gemwin;
#X floatatom 190 234 5 0 0 0 - - -;
#X msg 30 162 create;
#X msg 29 204 destroy;
#X floatatom 213 431 5 0 0 0 - - -;
#X floatatom 250 431 5 0 0 0 - - -;
#X floatatom 287 431 5 0 0 0 - - -;
#X obj 365 300 vsl 15 128 0 10 0 0 empty empty empty 0 -9 0 10 -262144
-1 -1 0 1;
#X obj 385 300 vsl 15 128 0 -10 0 0 empty empty empty 0 -9 0 10 -262144
-1 -1 0 1;
#X obj 147 549 cube_buss_interface;
#X obj 182 361 vsl 15 128 0 1 0 0 empty empty empty 0 -9 0 10 -262144
-1 -1 0 1;
#X floatatom 143 428 5 0 0 0 - - -;
#X floatatom 455 480 5 0 0 0 - - -;
#X floatatom 492 480 5 0 0 0 - - -;
#X floatatom 529 480 5 0 0 0 - - -;
#X obj 607 349 vsl 15 128 0 10 0 0 empty empty empty 0 -9 0 10 -262144
-1 -1 0 1;
#X obj 627 349 vsl 15 128 0 -10 0 0 empty empty empty 0 -9 0 10 -262144
-1 -1 0 1;
#X obj 432 375 vsl 15 128 0 1 0 0 empty empty empty 0 -9 0 10 -262144
-1 -1 0 1;
#X floatatom 389 443 5 0 0 0 - - -;
#X floatatom 783 447 5 0 0 0 - - -;
#X floatatom 820 447 5 0 0 0 - - -;
#X floatatom 857 447 5 0 0 0 - - -;
#X obj 935 316 vsl 15 128 0 10 0 0 empty empty empty 0 -9 0 10 -262144
-1 -1 0 1;
#X obj 955 316 vsl 15 128 0 -10 0 0 empty empty empty 0 -9 0 10 -262144
-1 -1 0 1;
#X obj 751 339 vsl 15 128 0 1 0 0 empty empty empty 0 -9 0 10 -262144
-1 -1 0 1;
#X floatatom 715 386 5 0 0 0 - - -;
#X obj 213 282 cube_buss_interface;
#X obj 441 552 cube_buss_interface;
#X obj 720 552 cube_buss_interface;
#X obj 704 311 sphere_buss_interface;
#X floatatom 793 243 5 0 0 0 - - -;
#X floatatom 830 243 5 0 0 0 - - -;
#X floatatom 867 243 5 0 0 0 - - -;
#X obj 945 112 vsl 15 128 0 10 0 0 empty empty empty 0 -9 0 10 -262144
-1 -1 3000 1;
#X obj 976 111 vsl 15 128 0 -10 0 0 empty empty empty 0 -9 0 10 -262144
-1 -1 0 1;
#X obj 891 286 hsl 100 15 0 10 0 0 empty empty empty -2 -8 0 10 -262144
-1 -1 9900 1;
#X obj 759 132 vsl 15 128 0 1 0 0 empty empty empty 0 -9 0 10 -262144
-1 -1 8700 1;
#X floatatom 718 245 5 0 0 0 - - -;
#X connect 0 0 62 3;
#X connect 1 0 62 4;
#X connect 2 0 62 5;
#X connect 3 0 4 0;
#X connect 4 0 45 1;
#X connect 4 0 62 1;
#X connect 4 0 63 1;
#X connect 4 0 64 1;
#X connect 4 0 65 1;
#X connect 5 0 62 6;
#X connect 6 0 5 0;
#X connect 7 0 5 0;
#X connect 8 0 12 0;
#X connect 9 0 11 0;
#X connect 9 0 45 7;
#X connect 9 0 62 7;
#X connect 9 0 63 7;
#X connect 9 0 64 7;
#X connect 9 0 65 7;
#X connect 10 0 9 1;
#X connect 10 0 33 1;
#X connect 12 0 9 2;
#X connect 13 0 14 0;
#X connect 14 0 10 0;
#X connect 15 0 9 0;
#X connect 15 0 33 0;
#X connect 16 0 9 0;
#X connect 16 0 33 0;
#X connect 17 0 9 0;
#X connect 17 0 33 0;
#X connect 18 0 14 1;
#X connect 19 0 23 0;
#X connect 19 0 45 10;
#X connect 19 0 62 10;
#X connect 19 0 63 10;
#X connect 19 0 64 10;
#X connect 19 0 65 10;
#X connect 20 0 24 0;
#X connect 21 0 24 1;
#X connect 22 0 24 2;
#X connect 24 0 62 9;
#X connect 24 0 45 9;
#X connect 24 0 63 9;
#X connect 24 0 64 9;
#X connect 24 0 65 9;
#X connect 25 0 26 0;
#X connect 25 0 29 0;
#X connect 27 0 30 0;
#X connect 28 0 31 0;
#X connect 29 0 62 8;
#X connect 29 0 45 8;
#X connect 29 0 63 8;
#X connect 29 0 64 8;
#X connect 29 0 65 8;
#X connect 30 0 29 0;
#X connect 30 1 29 1;
#X connect 31 0 29 0;
#X connect 31 1 29 2;
#X connect 32 0 33 2;
#X connect 33 0 20 0;
#X connect 33 0 21 0;
#X connect 33 0 22 0;
#X connect 34 0 33 2;
#X connect 35 0 36 0;
#X connect 36 0 45 0;
#X connect 36 0 62 0;
#X connect 36 0 63 0;
#X connect 36 0 64 0;
#X connect 37 0 62 2;
#X connect 38 0 36 0;
#X connect 38 0 65 0;
#X connect 39 0 36 0;
#X connect 40 0 45 4;
#X connect 41 0 45 5;
#X connect 42 0 45 6;
#X connect 43 0 42 0;
#X connect 44 0 42 0;
#X connect 45 0 38 0;
#X connect 46 0 45 3;
#X connect 47 0 45 2;
#X connect 48 0 63 4;
#X connect 49 0 63 5;
#X connect 50 0 63 6;
#X connect 51 0 50 0;
#X connect 52 0 50 0;
#X connect 53 0 63 3;
#X connect 54 0 63 2;
#X connect 55 0 64 4;
#X connect 56 0 64 5;
#X connect 57 0 64 6;
#X connect 58 0 57 0;
#X connect 59 0 57 0;
#X connect 60 0 64 3;
#X connect 61 0 64 2;
#X connect 62 0 38 0;
#X connect 63 0 38 0;
#X connect 64 0 38 0;
#X connect 65 0 38 0;
#X connect 66 0 65 4;
#X connect 67 0 65 5;
#X connect 68 0 65 6;
#X connect 69 0 68 0;
#X connect 70 0 68 0;
#X connect 71 0 65 11;
#X connect 72 0 65 3;
#X connect 73 0 65 2;
