#N canvas 457 12 808 576 10;
#X obj 707 193 loadbang;
#X obj 628 304 multi_counter;
#X obj 669 226 bng 15 250 50 0 empty empty empty 17 7 0 10 -262144
-1 -1;
#X floatatom 628 331 5 0 0 0 - - -;
#X msg 707 223 20;
#X obj 635 167 tgl 15 0 empty empty empty 17 7 0 10 -262144 -1 -1 0
1;
#X obj 635 194 metro 240;
#X msg 525 194 up;
#X msg 554 194 down;
#X msg 589 194 updown;
#X floatatom 686 165 5 0 0 0 - - -;
#X obj 570 391 hsl 128 15 0 6 0 0 empty empty empty -2 -8 0 10 -262144
-1 -1 700 1;
#X floatatom 406 228 5 0 0 0 - - -;
#X floatatom 442 229 5 0 0 0 - - -;
#X floatatom 478 229 5 0 0 0 - - -;
#X floatatom 567 432 5 0 0 0 - - -;
#X obj 407 251 pack f f f;
#X obj 12 55 vsl 15 128 0 1 0 0 empty empty empty 0 -9 0 10 -262144
-1 -1 9400 1;
#X obj 357 95 hsl 128 15 0 1 0 0 empty empty empty -2 -8 0 10 -258113
-1 -1 10800 1;
#X floatatom 448 128 5 0 0 0 - - -;
#X obj 495 94 hsl 128 15 0 1 0 0 empty empty empty -2 -8 0 10 -4034
-1 -1 12700 1;
#X obj 636 94 hsl 128 15 0 1 0 0 empty empty empty -2 -8 0 10 -4160
-1 -1 10000 1;
#X obj 429 500 pack f f f;
#X obj 492 127 trigger b f;
#X obj 633 128 trigger b f;
#X floatatom 71 60 5 0 0 0 - - -;
#X floatatom 107 56 5 0 0 0 - - -;
#X floatatom -35 160 5 0 0 0 - - -;
#X obj -65 337 gemhead;
#X obj -88 51 tgl 15 0 empty empty empty 17 7 0 10 -262144 -1 -1 1
1;
#X msg -65 55 destroy;
#X msg -56 79 destroy;
#X obj -89 100 gemwin;
#X msg 488 197 360;
#X obj 511 276 multi_counter;
#X obj -50 361 gemhead;
#X obj -47 385 gemhead;
#X obj -26 406 gemhead;
#X obj 113 82 + 1;
#X floatatom 139 82 5 0 0 0 - - -;
#X obj 142 105 + 1;
#X floatatom 173 103 5 0 0 0 - - -;
#X obj 170 127 + 1;
#X floatatom 198 127 5 0 0 0 - - -;
#X msg 621 224 360;
#X obj -17 429 gemhead;
#X obj -5 452 gemhead;
#X obj 8 473 gemhead;
#X obj 23 496 gemhead;
#X obj 36 523 gemhead;
#X obj 180 152 + 1;
#X floatatom 209 148 5 0 0 0 - - -;
#X obj 205 172 + 1;
#X floatatom 233 172 5 0 0 0 - - -;
#X obj 216 195 + 1;
#X floatatom 244 195 5 0 0 0 - - -;
#X obj 237 217 + 1;
#X floatatom 265 217 5 0 0 0 - - -;
#X obj 257 239 + 1;
#X floatatom 285 239 5 0 0 0 - - -;
#N canvas 844 273 450 369 gemwin 0;
#X obj 142 146 gemwin;
#X obj 77 99 outlet;
#X obj 77 20 inlet;
#X obj 77 51 route create;
#X msg 77 80 set destroy;
#X msg 152 78 set create;
#X msg 266 122 destroy;
#X obj 332 55 inlet;
#X msg 142 122 create \, 1;
#X obj 73 170 gemhead;
#X obj 82 204 rotateXYZ 0 -120 0;
#X floatatom 164 179 5 0 0 0 - - -;
#X obj 80 303 light;
#X obj 88 255 tgl 15 0 empty empty empty 17 7 0 10 -262144 -1 -1 0
1;
#X msg 130 269 1 1 1;
#X floatatom 127 179 5 0 0 0 - - -;
#X msg 181 273 1 1 0;
#X floatatom 201 179 5 0 0 0 - - -;
#X floatatom 217 210 5 0 0 0 - - -;
#X obj 121 237 translateXYZ 1 0 0;
#X connect 2 0 3 0;
#X connect 3 0 4 0;
#X connect 3 0 8 0;
#X connect 3 1 5 0;
#X connect 3 1 6 0;
#X connect 4 0 1 0;
#X connect 5 0 1 0;
#X connect 6 0 0 0;
#X connect 7 0 0 0;
#X connect 8 0 0 0;
#X connect 9 0 10 0;
#X connect 10 0 19 0;
#X connect 11 0 10 2;
#X connect 13 0 12 0;
#X connect 14 0 12 1;
#X connect 15 0 10 1;
#X connect 16 0 12 1;
#X connect 17 0 10 3;
#X connect 18 0 19 1;
#X connect 19 0 12 0;
#X restore -88 126 pd gemwin;
#X obj 3 3 tgl 15 0 empty empty empty 17 7 0 10 -262144 -1 -1 0 1;
#X msg 3 28 lighting \$1;
#X obj 122 539 cube_patternII_set;
#X floatatom 146 54 5 0 0 0 - - -;
#X floatatom 176 79 5 0 0 0 - - -;
#X floatatom 211 102 5 0 0 0 - - -;
#X floatatom 238 125 5 0 0 0 - - -;
#X floatatom 255 147 5 0 0 0 - - -;
#X floatatom 275 172 5 0 0 0 - - -;
#X floatatom 283 195 5 0 0 0 - - -;
#X floatatom 302 220 5 0 0 0 - - -;
#X floatatom 322 241 5 0 0 0 - - -;
#X obj 7 355 cube_patternII_set;
#X obj 12 378 cube_patternII_set;
#X obj 25 402 cube_patternII_set;
#X obj 49 424 cube_patternII_set;
#X obj 61 445 cube_patternII_set;
#X obj 74 468 cube_patternII_set;
#X obj 94 489 cube_patternII_set;
#X obj 113 514 cube_patternII_set;
#X obj 284 3 vsl 15 128 0 10 0 0 empty empty empty 0 -9 0 10 -262144
-1 -1 0 1;
#X obj 313 36 vsl 15 128 0 -10 0 0 empty empty empty 0 -9 0 10 -262144
-1 -1 0 1;
#X connect 0 0 4 0;
#X connect 1 0 3 0;
#X connect 1 0 63 6;
#X connect 1 0 73 6;
#X connect 1 0 74 6;
#X connect 1 0 75 6;
#X connect 1 0 76 6;
#X connect 1 0 77 6;
#X connect 1 0 78 6;
#X connect 1 0 79 6;
#X connect 1 0 80 6;
#X connect 2 0 1 1;
#X connect 2 0 34 1;
#X connect 4 0 1 2;
#X connect 5 0 6 0;
#X connect 6 0 2 0;
#X connect 7 0 1 0;
#X connect 7 0 34 0;
#X connect 8 0 1 0;
#X connect 8 0 34 0;
#X connect 9 0 1 0;
#X connect 9 0 34 0;
#X connect 10 0 6 1;
#X connect 11 0 15 0;
#X connect 11 0 63 9;
#X connect 11 0 73 9;
#X connect 11 0 74 9;
#X connect 11 0 75 9;
#X connect 11 0 76 9;
#X connect 11 0 77 9;
#X connect 11 0 78 9;
#X connect 11 0 79 9;
#X connect 11 0 80 9;
#X connect 12 0 16 0;
#X connect 13 0 16 1;
#X connect 14 0 16 2;
#X connect 16 0 63 8;
#X connect 16 0 73 8;
#X connect 16 0 74 8;
#X connect 16 0 75 8;
#X connect 16 0 76 8;
#X connect 16 0 77 8;
#X connect 16 0 78 8;
#X connect 16 0 79 8;
#X connect 16 0 80 8;
#X connect 17 0 63 2;
#X connect 17 0 73 2;
#X connect 17 0 74 2;
#X connect 17 0 75 2;
#X connect 17 0 76 2;
#X connect 17 0 77 2;
#X connect 17 0 78 2;
#X connect 17 0 79 2;
#X connect 17 0 80 2;
#X connect 18 0 19 0;
#X connect 18 0 22 0;
#X connect 20 0 23 0;
#X connect 21 0 24 0;
#X connect 22 0 63 7;
#X connect 22 0 73 7;
#X connect 22 0 74 7;
#X connect 22 0 75 7;
#X connect 22 0 76 7;
#X connect 22 0 77 7;
#X connect 22 0 78 7;
#X connect 22 0 79 7;
#X connect 22 0 80 7;
#X connect 23 0 22 0;
#X connect 23 1 22 1;
#X connect 24 0 22 0;
#X connect 24 1 22 2;
#X connect 25 0 38 0;
#X connect 25 0 73 3;
#X connect 26 0 73 4;
#X connect 27 0 63 1;
#X connect 27 0 73 1;
#X connect 27 0 74 1;
#X connect 27 0 75 1;
#X connect 27 0 76 1;
#X connect 27 0 77 1;
#X connect 27 0 78 1;
#X connect 27 0 79 1;
#X connect 27 0 80 1;
#X connect 28 0 73 0;
#X connect 29 0 32 0;
#X connect 30 0 32 0;
#X connect 30 0 60 0;
#X connect 31 0 32 0;
#X connect 33 0 34 2;
#X connect 34 0 12 0;
#X connect 34 0 13 0;
#X connect 34 0 14 0;
#X connect 35 0 74 0;
#X connect 36 0 75 0;
#X connect 37 0 76 0;
#X connect 38 0 40 0;
#X connect 38 0 74 3;
#X connect 39 0 74 4;
#X connect 40 0 42 0;
#X connect 40 0 75 3;
#X connect 41 0 75 4;
#X connect 42 0 50 0;
#X connect 42 0 76 3;
#X connect 43 0 76 4;
#X connect 44 0 34 2;
#X connect 45 0 77 0;
#X connect 46 0 78 0;
#X connect 47 0 79 0;
#X connect 48 0 80 0;
#X connect 49 0 63 0;
#X connect 50 0 52 0;
#X connect 50 0 77 3;
#X connect 51 0 77 4;
#X connect 52 0 54 0;
#X connect 52 0 78 3;
#X connect 53 0 78 4;
#X connect 54 0 56 0;
#X connect 54 0 79 3;
#X connect 55 0 79 4;
#X connect 56 0 58 0;
#X connect 56 0 80 3;
#X connect 57 0 80 4;
#X connect 58 0 63 3;
#X connect 59 0 63 4;
#X connect 60 0 30 0;
#X connect 61 0 62 0;
#X connect 62 0 60 1;
#X connect 64 0 73 5;
#X connect 65 0 74 5;
#X connect 66 0 75 5;
#X connect 67 0 76 5;
#X connect 68 0 77 5;
#X connect 69 0 78 5;
#X connect 70 0 79 5;
#X connect 71 0 80 5;
#X connect 72 0 63 5;
#X connect 81 0 64 0;
#X connect 81 0 65 0;
#X connect 81 0 66 0;
#X connect 81 0 67 0;
#X connect 81 0 68 0;
#X connect 81 0 69 0;
#X connect 81 0 70 0;
#X connect 81 0 71 0;
#X connect 81 0 72 0;
#X connect 82 0 64 0;
#X connect 82 0 65 0;
#X connect 82 0 66 0;
#X connect 82 0 67 0;
#X connect 82 0 68 0;
#X connect 82 0 69 0;
#X connect 82 0 70 0;
#X connect 82 0 71 0;
#X connect 82 0 72 0;
