#N canvas 654 80 680 461 10;
#X obj 134 47 vsl 15 128 0 1 0 0 empty empty empty 0 -9 0 10 -262144
-1 -1 12700 1;
#X obj 614 156 loadbang;
#X obj 43 217 gemhead;
#X floatatom 38 178 5 0 0 0 - - -;
#X floatatom 164 107 5 0 0 0 - - -;
#X floatatom 200 103 5 0 0 0 - - -;
#X floatatom 76 108 5 0 0 0 - - -;
#X obj 234 36 hsl 128 15 0 1 0 0 empty empty empty -2 -8 0 10 -258113
-1 -1 7600 1;
#X floatatom 231 69 5 0 0 0 - - -;
#X obj 372 35 hsl 128 15 0 1 0 0 empty empty empty -2 -8 0 10 -4034
-1 -1 7800 1;
#X obj 513 35 hsl 128 15 0 1 0 0 empty empty empty -2 -8 0 10 -4160
-1 -1 12700 1;
#X obj 384 111 pack f f f;
#X obj 369 68 trigger b f;
#X obj 510 69 trigger b f;
#X obj 539 280 multi_counter;
#X obj 576 189 bng 15 250 50 0 empty empty empty 17 7 0 10 -262144
-1 -1;
#X floatatom 539 309 5 0 0 0 - - -;
#X msg 614 186 20;
#X obj 18 21 tgl 15 0 empty empty empty 17 7 0 10 -262144 -1 -1 0 1
;
#X msg 41 25 create;
#X msg 50 49 destroy;
#X obj 17 70 gemwin;
#X obj 542 130 tgl 15 0 empty empty empty 17 7 0 10 -262144 -1 -1 1
1;
#X obj 542 157 metro 240;
#X msg 432 157 up;
#X msg 461 157 down;
#X msg 496 157 updown;
#X floatatom 593 128 5 0 0 0 - - -;
#X obj 495 361 hsl 128 15 0 6 0 0 empty empty empty -2 -8 0 10 -262144
-1 -1 8100 1;
#X obj 48 241 gemhead;
#X obj 207 123 + 1;
#X floatatom 237 120 5 0 0 0 - - -;
#X obj 52 266 gemhead;
#X obj 244 140 + 1;
#X floatatom 270 137 5 0 0 0 - - -;
#X obj 273 157 + 1;
#X floatatom 301 152 5 0 0 0 - - -;
#X obj 68 288 gemhead;
#X obj 83 309 gemhead;
#X obj 93 331 gemhead;
#X obj 111 352 gemhead;
#X obj 304 175 + 1;
#X obj 335 193 + 1;
#X floatatom 333 171 5 0 0 0 - - -;
#X floatatom 366 190 5 0 0 0 - - -;
#X obj 364 212 + 1;
#X floatatom 391 208 5 0 0 0 - - -;
#X obj 259 436 square_pattern_set;
#X obj 125 375 gemhead;
#X obj 130 397 gemhead;
#X obj 140 419 gemhead;
#X obj 397 229 + 1;
#X floatatom 424 225 5 0 0 0 - - -;
#X obj 429 246 + 1;
#X floatatom 456 242 5 0 0 0 - - -;
#X obj 464 263 + 1;
#X floatatom 491 259 5 0 0 0 - - -;
#X floatatom 492 387 5 0 0 0 - - -;
#X obj 105 233 square_pattern_set;
#X obj 129 258 square_pattern_set;
#X obj 145 283 square_pattern_set;
#X obj 165 305 square_pattern_set;
#X obj 182 326 square_pattern_set;
#X obj 196 348 square_pattern_set;
#X obj 210 369 square_pattern_set;
#X obj 228 391 square_pattern_set;
#X obj 246 414 square_pattern_set;
#X connect 0 0 3 0;
#X connect 0 0 47 2;
#X connect 0 0 58 2;
#X connect 0 0 59 2;
#X connect 0 0 60 2;
#X connect 0 0 61 2;
#X connect 0 0 62 2;
#X connect 0 0 63 2;
#X connect 0 0 64 2;
#X connect 0 0 65 2;
#X connect 0 0 66 2;
#X connect 1 0 17 0;
#X connect 2 0 58 0;
#X connect 4 0 30 0;
#X connect 4 0 58 3;
#X connect 5 0 58 4;
#X connect 6 0 47 1;
#X connect 6 0 58 1;
#X connect 6 0 59 1;
#X connect 6 0 60 1;
#X connect 6 0 61 1;
#X connect 6 0 62 1;
#X connect 6 0 63 1;
#X connect 6 0 64 1;
#X connect 6 0 65 1;
#X connect 6 0 66 1;
#X connect 7 0 8 0;
#X connect 7 0 11 0;
#X connect 9 0 12 0;
#X connect 10 0 13 0;
#X connect 11 0 47 6;
#X connect 11 0 58 6;
#X connect 11 0 59 6;
#X connect 11 0 60 6;
#X connect 11 0 61 6;
#X connect 11 0 62 6;
#X connect 11 0 63 6;
#X connect 11 0 64 6;
#X connect 11 0 65 6;
#X connect 11 0 66 6;
#X connect 12 0 11 0;
#X connect 12 1 11 1;
#X connect 13 0 11 0;
#X connect 13 1 11 2;
#X connect 14 0 16 0;
#X connect 14 0 47 5;
#X connect 14 0 58 5;
#X connect 14 0 59 5;
#X connect 14 0 60 5;
#X connect 14 0 61 5;
#X connect 14 0 62 5;
#X connect 14 0 63 5;
#X connect 14 0 64 5;
#X connect 14 0 65 5;
#X connect 14 0 66 5;
#X connect 15 0 14 1;
#X connect 17 0 14 2;
#X connect 18 0 21 0;
#X connect 19 0 21 0;
#X connect 20 0 21 0;
#X connect 22 0 23 0;
#X connect 23 0 15 0;
#X connect 24 0 14 0;
#X connect 25 0 14 0;
#X connect 26 0 14 0;
#X connect 27 0 23 1;
#X connect 28 0 47 7;
#X connect 28 0 57 0;
#X connect 28 0 58 7;
#X connect 28 0 59 7;
#X connect 28 0 60 7;
#X connect 28 0 61 7;
#X connect 28 0 62 7;
#X connect 28 0 63 7;
#X connect 28 0 64 7;
#X connect 28 0 65 7;
#X connect 28 0 66 7;
#X connect 29 0 59 0;
#X connect 30 0 33 0;
#X connect 30 0 59 3;
#X connect 31 0 59 4;
#X connect 32 0 60 0;
#X connect 33 0 35 0;
#X connect 33 0 60 3;
#X connect 34 0 60 4;
#X connect 35 0 61 3;
#X connect 35 0 41 0;
#X connect 36 0 61 4;
#X connect 37 0 61 0;
#X connect 38 0 62 0;
#X connect 39 0 63 0;
#X connect 40 0 64 0;
#X connect 41 0 62 3;
#X connect 41 0 42 0;
#X connect 42 0 63 3;
#X connect 42 0 45 0;
#X connect 43 0 62 4;
#X connect 44 0 63 4;
#X connect 45 0 64 3;
#X connect 45 0 51 0;
#X connect 46 0 64 4;
#X connect 48 0 65 0;
#X connect 49 0 66 0;
#X connect 50 0 47 0;
#X connect 51 0 65 3;
#X connect 51 0 53 0;
#X connect 52 0 65 4;
#X connect 53 0 66 3;
#X connect 53 0 55 0;
#X connect 54 0 66 4;
#X connect 55 0 47 3;
#X connect 56 0 47 4;
