#N canvas 324 0 1027 672 10;
#X obj 229 106 f;
#X obj 267 106 + 1;
#X obj 53 178 f;
#X obj 53 211 - 1;
#X floatatom 116 228 5 0 0 0 - - -;
#X obj 54 297 tgl 15 0 empty empty empty 17 7 0 10 -262144 -1 -1 0
1;
#X obj 53 261 expr $f1 >= 0;
#X floatatom 100 329 5 0 0 0 - - -;
#X floatatom 142 334 5 0 0 0 - - -;
#X obj 142 299 expr $f1 == 0;
#X obj 141 358 expr $f1 == 1;
#X obj 142 391 tgl 15 0 empty empty empty 17 7 0 10 -262144 -1 -1 0
1;
#X obj 229 57 tgl 15 0 empty empty empty 17 7 0 10 -262144 -1 -1 0
1;
#X obj 24 136 tgl 15 0 empty empty empty 17 7 0 10 -262144 -1 -1 0
1;
#X obj 24 154 metro 200;
#X obj 299 152 hradio 15 1 0 4 empty empty empty 0 -8 0 10 -262144
-1 -1 1;
#X floatatom 61 68 5 0 0 0 - - -;
#X obj 27 14 f;
#X obj 65 12 + 1;
#X obj 97 29 % 7;
#X floatatom 131 112 5 0 0 0 - - -;
#X obj 97 113 tgl 15 0 empty empty empty 17 7 0 10 -262144 -1 -1 0
1;
#X floatatom 40 -21 5 0 0 0 - - -;
#X obj 27 -42 metro 200;
#X obj 27 -69 tgl 15 0 empty empty empty 17 7 0 10 -262144 -1 -1 0
1;
#X obj 97 70 expr $f1 != 6;
#X obj 265 302 f;
#X obj 265 335 - 1;
#X floatatom 312 352 5 0 0 0 - - -;
#X obj 235 234 tgl 15 0 empty empty empty 17 7 0 10 -262144 -1 -1 1
1;
#X obj 317 219 bng 15 250 50 0 empty empty empty 17 7 0 10 -262144
-1 -1;
#X obj 265 363 vradio 15 1 0 4 empty empty empty 0 -8 0 10 -262144
-1 -1 2;
#X msg 561 224 \$1;
#X obj 603 209 hsl 128 15 0 20 0 0 empty empty empty -2 -8 0 10 -262144
-1 -1 0 1;
#X obj 561 263 gemhead;
#X obj 561 326 rotateXYZ;
#X obj 560 403 translateXYZ;
#X floatatom 569 356 5 0 0 0 - - -;
#X floatatom 658 354 5 0 0 0 - - -;
#X obj 654 404 translateXYZ;
#X floatatom 602 241 5 0 0 0 - - -;
#X floatatom 604 356 5 0 0 0 - - -;
#X obj 650 323 rotateXYZ;
#X obj 653 463 square;
#X obj 560 467 square;
#X obj 560 437 color;
#X obj 654 435 color;
#X msg 350 577 1 1 1 0;
#X obj 95 -67 tgl 15 0 empty empty empty 17 7 0 10 -262144 -1 -1 1
1;
#X msg 118 -63 create;
#X msg 127 -39 destroy;
#X obj 94 -18 gemwin;
#X floatatom 695 354 5 0 0 0 - - -;
#X obj 295 123 % 4;
#X msg 317 285 4;
#X obj 211 -30 f;
#X obj 249 -30 + 1;
#X obj 176 -70 tgl 15 0 empty empty empty 17 7 0 10 -262144 -1 -1 1
1;
#X obj 281 16 hradio 15 1 0 4 empty empty empty 0 -8 0 10 -262144 -1
-1 0;
#X obj 326 82 bng 15 250 50 0 empty empty empty 17 7 0 10 -262144 -1
-1;
#X obj 277 -13 % 4;
#X obj 281 50 sel 0 1 2 3;
#X obj 299 186 sel 0 1 2 3;
#X obj 264 434 sel 0 1 2 3;
#X msg 118 159 4;
#X obj 11 367 sel -3 -2 -1 0 1 2 3;
#X obj 40 392 bng 15 250 50 0 empty empty empty 17 7 0 10 -262144 -1
-1;
#X obj 92 390 bng 15 250 50 0 empty empty empty 17 7 0 10 -262144 -1
-1;
#X obj 432 -4 f;
#X obj 432 29 - 1;
#X floatatom 389 46 5 0 0 0 - - -;
#X obj 403 -46 tgl 15 0 empty empty empty 17 7 0 10 -262144 -1 -1 1
1;
#X obj 497 -61 bng 15 250 50 0 empty empty empty 17 7 0 10 -262144
-1 -1;
#X obj 740 102 sel -3 -2 -1 0 1 2 3;
#X obj 501 13 sel 3 2 1 0 -1 -2 -3;
#X obj 651 80 bng 15 250 50 0 empty empty empty 17 7 0 10 -262144 -1
-1;
#X obj 211 -55 metro 100;
#X obj 236 265 metro 100;
#X obj 227 80 metro 100;
#X obj 403 -28 metro 100;
#X obj 444 138 f;
#X obj 439 158 - 1;
#X obj 415 96 tgl 15 0 empty empty empty 17 7 0 10 -262144 -1 -1 1
1;
#X obj 415 114 metro 100;
#X floatatom 428 219 5 0 0 0 - - -;
#X msg 497 -24 4;
#X msg 509 121 4;
#X msg 466 577 1 1 1 0;
#X floatatom 747 355 5 0 0 0 - - -;
#X obj 743 405 translateXYZ;
#X obj 739 324 rotateXYZ;
#X obj 742 464 square;
#X obj 743 436 color;
#X floatatom 784 355 5 0 0 0 - - -;
#X floatatom 843 350 5 0 0 0 - - -;
#X obj 839 400 translateXYZ;
#X obj 835 319 rotateXYZ;
#X obj 838 459 square;
#X obj 839 431 color;
#X floatatom 880 350 5 0 0 0 - - -;
#X msg 405 574 0 1 2 0;
#X msg 578 577 1 1 1 0;
#X msg 522 577 1 0 0 0;
#X msg 634 578 1 1 0 0;
#X connect 0 0 1 0;
#X connect 1 0 0 1;
#X connect 1 0 53 0;
#X connect 2 0 3 0;
#X connect 3 0 2 1;
#X connect 3 0 4 0;
#X connect 3 0 6 0;
#X connect 3 0 65 0;
#X connect 5 0 9 0;
#X connect 6 0 5 0;
#X connect 6 0 7 0;
#X connect 8 0 10 0;
#X connect 9 0 8 0;
#X connect 10 0 11 0;
#X connect 12 0 78 0;
#X connect 13 0 14 0;
#X connect 14 0 2 0;
#X connect 15 0 38 0;
#X connect 15 0 62 0;
#X connect 15 0 88 0;
#X connect 15 0 94 0;
#X connect 17 0 18 0;
#X connect 18 0 17 1;
#X connect 18 0 19 0;
#X connect 19 0 16 0;
#X connect 19 0 25 0;
#X connect 22 0 17 0;
#X connect 23 0 17 0;
#X connect 24 0 23 0;
#X connect 25 0 21 0;
#X connect 25 0 20 0;
#X connect 26 0 27 0;
#X connect 27 0 26 1;
#X connect 27 0 28 0;
#X connect 27 0 31 0;
#X connect 29 0 77 0;
#X connect 29 0 12 0;
#X connect 30 0 29 0;
#X connect 30 0 54 0;
#X connect 31 0 52 0;
#X connect 31 0 63 0;
#X connect 31 0 93 0;
#X connect 31 0 99 0;
#X connect 32 0 34 0;
#X connect 32 0 40 0;
#X connect 33 0 32 0;
#X connect 34 0 35 0;
#X connect 34 0 42 0;
#X connect 34 0 90 0;
#X connect 34 0 96 0;
#X connect 35 0 36 0;
#X connect 36 0 45 0;
#X connect 37 0 36 1;
#X connect 38 0 39 1;
#X connect 39 0 46 0;
#X connect 41 0 36 2;
#X connect 42 0 39 0;
#X connect 45 0 44 0;
#X connect 46 0 43 0;
#X connect 47 0 45 1;
#X connect 47 0 46 1;
#X connect 48 0 51 0;
#X connect 49 0 51 0;
#X connect 50 0 51 0;
#X connect 52 0 39 2;
#X connect 53 0 15 0;
#X connect 54 0 26 1;
#X connect 55 0 56 0;
#X connect 56 0 55 1;
#X connect 56 0 60 0;
#X connect 57 0 76 0;
#X connect 58 0 61 0;
#X connect 59 0 12 0;
#X connect 60 0 58 0;
#X connect 61 3 59 0;
#X connect 62 0 47 0;
#X connect 62 0 87 0;
#X connect 62 0 101 0;
#X connect 62 1 100 0;
#X connect 62 1 102 0;
#X connect 62 1 103 0;
#X connect 62 2 47 0;
#X connect 62 2 87 0;
#X connect 62 2 101 0;
#X connect 62 3 30 0;
#X connect 62 3 100 0;
#X connect 62 3 102 0;
#X connect 62 3 103 0;
#X connect 63 0 47 0;
#X connect 63 0 87 0;
#X connect 63 0 101 0;
#X connect 63 1 100 0;
#X connect 63 1 102 0;
#X connect 63 1 103 0;
#X connect 63 2 47 0;
#X connect 63 2 87 0;
#X connect 63 2 101 0;
#X connect 63 3 72 0;
#X connect 63 3 100 0;
#X connect 63 3 103 0;
#X connect 63 4 102 0;
#X connect 64 0 2 1;
#X connect 65 2 66 0;
#X connect 65 5 67 0;
#X connect 68 0 69 0;
#X connect 69 0 68 1;
#X connect 69 0 70 0;
#X connect 69 0 74 0;
#X connect 71 0 79 0;
#X connect 72 0 85 0;
#X connect 72 0 71 0;
#X connect 73 0 47 0;
#X connect 73 0 52 0;
#X connect 73 0 93 0;
#X connect 73 0 99 0;
#X connect 73 0 87 0;
#X connect 73 0 101 0;
#X connect 73 1 100 0;
#X connect 73 1 52 0;
#X connect 73 1 93 0;
#X connect 73 1 99 0;
#X connect 73 1 102 0;
#X connect 73 1 103 0;
#X connect 73 2 47 0;
#X connect 73 2 52 0;
#X connect 73 2 93 0;
#X connect 73 2 99 0;
#X connect 73 2 87 0;
#X connect 73 2 101 0;
#X connect 73 3 100 0;
#X connect 73 3 52 0;
#X connect 73 3 93 0;
#X connect 73 3 99 0;
#X connect 73 3 102 0;
#X connect 73 3 103 0;
#X connect 73 4 47 0;
#X connect 73 4 52 0;
#X connect 73 4 93 0;
#X connect 73 4 99 0;
#X connect 73 4 87 0;
#X connect 73 4 101 0;
#X connect 73 5 100 0;
#X connect 73 5 52 0;
#X connect 73 5 93 0;
#X connect 73 5 99 0;
#X connect 73 5 102 0;
#X connect 73 5 103 0;
#X connect 73 6 47 0;
#X connect 73 6 52 0;
#X connect 73 6 93 0;
#X connect 73 6 99 0;
#X connect 73 6 87 0;
#X connect 73 6 101 0;
#X connect 73 7 100 0;
#X connect 73 7 52 0;
#X connect 73 7 93 0;
#X connect 73 7 99 0;
#X connect 73 7 102 0;
#X connect 74 0 47 0;
#X connect 74 0 38 0;
#X connect 74 0 88 0;
#X connect 74 0 94 0;
#X connect 74 0 87 0;
#X connect 74 0 101 0;
#X connect 74 1 100 0;
#X connect 74 1 38 0;
#X connect 74 1 88 0;
#X connect 74 1 94 0;
#X connect 74 1 102 0;
#X connect 74 1 103 0;
#X connect 74 2 47 0;
#X connect 74 2 38 0;
#X connect 74 2 88 0;
#X connect 74 2 94 0;
#X connect 74 2 87 0;
#X connect 74 2 101 0;
#X connect 74 3 100 0;
#X connect 74 3 38 0;
#X connect 74 3 88 0;
#X connect 74 3 94 0;
#X connect 74 3 102 0;
#X connect 74 3 103 0;
#X connect 74 4 47 0;
#X connect 74 4 38 0;
#X connect 74 4 88 0;
#X connect 74 4 94 0;
#X connect 74 4 87 0;
#X connect 74 4 101 0;
#X connect 74 5 100 0;
#X connect 74 5 38 0;
#X connect 74 5 88 0;
#X connect 74 5 94 0;
#X connect 74 5 102 0;
#X connect 74 5 103 0;
#X connect 74 6 47 0;
#X connect 74 6 38 0;
#X connect 74 6 75 0;
#X connect 74 6 88 0;
#X connect 74 6 94 0;
#X connect 74 6 87 0;
#X connect 74 6 101 0;
#X connect 74 7 100 0;
#X connect 74 7 38 0;
#X connect 74 7 88 0;
#X connect 74 7 94 0;
#X connect 74 7 102 0;
#X connect 74 7 103 0;
#X connect 75 0 86 0;
#X connect 75 0 82 0;
#X connect 76 0 55 0;
#X connect 77 0 26 0;
#X connect 78 0 0 0;
#X connect 79 0 68 0;
#X connect 80 0 81 0;
#X connect 81 0 80 1;
#X connect 81 0 73 0;
#X connect 81 0 84 0;
#X connect 82 0 83 0;
#X connect 83 0 80 0;
#X connect 85 0 68 1;
#X connect 86 0 80 1;
#X connect 87 0 92 1;
#X connect 88 0 89 1;
#X connect 89 0 92 0;
#X connect 90 0 89 0;
#X connect 92 0 91 0;
#X connect 93 0 89 2;
#X connect 94 0 95 1;
#X connect 95 0 98 0;
#X connect 96 0 95 0;
#X connect 98 0 97 0;
#X connect 99 0 95 2;
#X connect 100 0 45 1;
#X connect 100 0 46 1;
#X connect 101 0 98 1;
#X connect 102 0 92 1;
#X connect 103 0 98 1;
