#N canvas 324 0 1027 672 10;
#X obj -18 12 f;
#X obj 20 12 + 1;
#X obj -18 -37 tgl 15 0 empty empty empty 17 7 0 10 -262144 -1 -1 1
1;
#X obj 52 58 hradio 15 1 0 4 empty empty empty 0 -8 0 10 -262144 -1
-1 2;
#X obj 18 208 f;
#X obj 18 241 - 1;
#X floatatom 65 258 5 0 0 0 - - -;
#X obj -12 140 tgl 15 0 empty empty empty 17 7 0 10 -262144 -1 -1 0
1;
#X obj 70 125 bng 15 250 50 0 empty empty empty 17 7 0 10 -262144 -1
-1;
#X obj 18 269 vradio 15 1 0 4 empty empty empty 0 -8 0 10 -262144 -1
-1 0;
#X msg 314 130 \$1;
#X obj 356 115 hsl 128 15 0 20 0 0 empty empty empty -2 -8 0 10 -262144
-1 -1 6500 1;
#X obj 314 169 gemhead;
#X obj 314 232 rotateXYZ;
#X obj 313 309 translateXYZ;
#X floatatom 322 262 5 0 0 0 - - -;
#X floatatom 411 260 5 0 0 0 - - -;
#X obj 407 310 translateXYZ;
#X floatatom 355 147 5 0 0 0 - - -;
#X floatatom 357 262 5 0 0 0 - - -;
#X obj 403 229 rotateXYZ;
#X obj 406 369 square;
#X obj 313 373 square;
#X obj 313 343 color;
#X obj 407 341 color;
#X msg 103 483 1 1 1 0;
#X floatatom 448 260 5 0 0 0 - - -;
#X obj 48 29 % 4;
#X msg 70 191 4;
#X obj -36 -124 f;
#X obj 2 -124 + 1;
#X obj -71 -164 tgl 15 0 empty empty empty 17 7 0 10 -262144 -1 -1
1 1;
#X obj 34 -78 hradio 15 1 0 4 empty empty empty 0 -8 0 10 -262144 -1
-1 1;
#X obj 79 -12 bng 15 250 50 0 empty empty empty 17 7 0 10 -262144 -1
-1;
#X obj 30 -107 % 4;
#X obj 34 -44 sel 0 1 2 3;
#X obj 52 92 sel 0 1 2 3;
#X obj 17 340 sel 0 1 2 3;
#X obj 185 -98 f;
#X obj 185 -65 - 1;
#X floatatom 142 -48 5 0 0 0 - - -;
#X obj 156 -140 tgl 15 0 empty empty empty 17 7 0 10 -262144 -1 -1
1 1;
#X obj 250 -155 bng 15 250 50 0 empty empty empty 17 7 0 10 -262144
-1 -1;
#X obj 637 -55 sel -3 -2 -1 0 1 2 3;
#X obj 276 -69 sel 3 2 1 0 -1 -2 -3;
#X obj 404 -14 bng 15 250 50 0 empty empty empty 17 7 0 10 -262144
-1 -1;
#X obj -36 -149 metro 100;
#X obj -11 171 metro 100;
#X obj -20 -14 metro 100;
#X obj 156 -122 metro 100;
#X obj 197 44 f;
#X obj 192 64 - 1;
#X obj 168 2 tgl 15 0 empty empty empty 17 7 0 10 -262144 -1 -1 0 1
;
#X obj 168 20 metro 100;
#X floatatom 181 125 5 0 0 0 - - -;
#X msg 250 -118 4;
#X msg 262 27 4;
#X msg 219 483 1 1 1 0;
#X floatatom 500 261 5 0 0 0 - - -;
#X obj 496 311 translateXYZ;
#X obj 492 230 rotateXYZ;
#X obj 495 370 square;
#X obj 496 342 color;
#X floatatom 537 261 5 0 0 0 - - -;
#X floatatom 596 256 5 0 0 0 - - -;
#X obj 592 306 translateXYZ;
#X obj 588 225 rotateXYZ;
#X obj 592 337 color;
#X floatatom 633 256 5 0 0 0 - - -;
#X msg 158 480 0 1 2 0;
#X msg 331 483 1 1 1 0;
#X msg 275 483 1 0 0 0;
#X msg 387 484 1 1 0 0;
#X floatatom 679 258 5 0 0 0 - - -;
#X obj 675 308 translateXYZ;
#X obj 671 227 rotateXYZ;
#X floatatom 716 258 5 0 0 0 - - -;
#X floatatom 768 259 5 0 0 0 - - -;
#X obj 764 309 translateXYZ;
#X obj 760 228 rotateXYZ;
#X floatatom 805 259 5 0 0 0 - - -;
#X floatatom 864 254 5 0 0 0 - - -;
#X obj 860 304 translateXYZ;
#X obj 856 223 rotateXYZ;
#X obj 859 363 square;
#X obj 860 335 color;
#X floatatom 901 254 5 0 0 0 - - -;
#X msg 447 483 1 1 1 0;
#X obj 665 -146 tgl 15 0 empty empty empty 17 7 0 10 -262144 -1 -1
1 1;
#X msg 688 -142 create;
#X msg 617 -110 destroy;
#X obj 664 -97 gemwin;
#X msg 558 483 1 1 1 0;
#X obj 759 363 square;
#X obj 760 335 color;
#X obj 676 362 square;
#X obj 677 334 color;
#X obj 591 367 square;
#X msg 503 484 1 0 1 0;
#X msg 676 481 1 1 1 0;
#X msg 614 484 1 2 0 0;
#X msg 732 482 2 -1 2 0;
#X floatatom 72 -135 5 0 0 0 - - -;
#X connect 0 0 1 0;
#X connect 1 0 0 1;
#X connect 1 0 27 0;
#X connect 2 0 48 0;
#X connect 3 0 16 0;
#X connect 3 0 36 0;
#X connect 3 0 58 0;
#X connect 3 0 64 0;
#X connect 3 0 73 0;
#X connect 3 0 77 0;
#X connect 3 0 81 0;
#X connect 4 0 5 0;
#X connect 5 0 4 1;
#X connect 5 0 6 0;
#X connect 5 0 9 0;
#X connect 7 0 47 0;
#X connect 7 0 2 0;
#X connect 8 0 7 0;
#X connect 8 0 28 0;
#X connect 9 0 26 0;
#X connect 9 0 37 0;
#X connect 9 0 63 0;
#X connect 9 0 68 0;
#X connect 9 0 76 0;
#X connect 9 0 80 0;
#X connect 9 0 86 0;
#X connect 10 0 12 0;
#X connect 10 0 18 0;
#X connect 11 0 10 0;
#X connect 12 0 13 0;
#X connect 12 0 20 0;
#X connect 12 0 60 0;
#X connect 12 0 66 0;
#X connect 12 0 75 0;
#X connect 12 0 79 0;
#X connect 12 0 83 0;
#X connect 13 0 14 0;
#X connect 14 0 23 0;
#X connect 15 0 14 1;
#X connect 16 0 17 1;
#X connect 17 0 24 0;
#X connect 19 0 14 2;
#X connect 20 0 17 0;
#X connect 23 0 22 0;
#X connect 24 0 21 0;
#X connect 25 0 23 1;
#X connect 25 0 24 1;
#X connect 26 0 17 2;
#X connect 27 0 3 0;
#X connect 28 0 4 1;
#X connect 29 0 30 0;
#X connect 30 0 29 1;
#X connect 30 0 34 0;
#X connect 31 0 46 0;
#X connect 32 0 35 0;
#X connect 33 0 2 0;
#X connect 34 0 32 0;
#X connect 35 3 33 0;
#X connect 36 0 25 0;
#X connect 36 0 57 0;
#X connect 36 0 70 0;
#X connect 36 0 87 0;
#X connect 36 0 92 0;
#X connect 36 0 99 0;
#X connect 36 1 69 0;
#X connect 36 1 71 0;
#X connect 36 1 72 0;
#X connect 36 1 98 0;
#X connect 36 1 100 0;
#X connect 36 1 101 0;
#X connect 36 2 25 0;
#X connect 36 2 57 0;
#X connect 36 2 70 0;
#X connect 36 2 87 0;
#X connect 36 2 92 0;
#X connect 36 2 99 0;
#X connect 36 3 8 0;
#X connect 36 3 69 0;
#X connect 36 3 71 0;
#X connect 36 3 72 0;
#X connect 36 3 98 0;
#X connect 36 3 100 0;
#X connect 36 3 101 0;
#X connect 37 0 25 0;
#X connect 37 0 57 0;
#X connect 37 0 70 0;
#X connect 37 0 87 0;
#X connect 37 0 92 0;
#X connect 37 0 99 0;
#X connect 37 1 69 0;
#X connect 37 1 71 0;
#X connect 37 1 72 0;
#X connect 37 1 98 0;
#X connect 37 1 100 0;
#X connect 37 1 101 0;
#X connect 37 2 25 0;
#X connect 37 2 57 0;
#X connect 37 2 70 0;
#X connect 37 2 87 0;
#X connect 37 2 92 0;
#X connect 37 2 99 0;
#X connect 37 3 42 0;
#X connect 37 3 69 0;
#X connect 37 3 72 0;
#X connect 37 3 98 0;
#X connect 37 3 100 0;
#X connect 37 3 101 0;
#X connect 37 4 71 0;
#X connect 38 0 39 0;
#X connect 39 0 38 1;
#X connect 39 0 40 0;
#X connect 39 0 44 0;
#X connect 41 0 49 0;
#X connect 42 0 55 0;
#X connect 42 0 41 0;
#X connect 43 0 25 0;
#X connect 43 0 26 0;
#X connect 43 0 63 0;
#X connect 43 0 68 0;
#X connect 43 0 57 0;
#X connect 43 0 70 0;
#X connect 43 0 76 0;
#X connect 43 0 80 0;
#X connect 43 0 86 0;
#X connect 43 0 87 0;
#X connect 43 1 69 0;
#X connect 43 1 26 0;
#X connect 43 1 63 0;
#X connect 43 1 68 0;
#X connect 43 1 71 0;
#X connect 43 1 72 0;
#X connect 43 1 76 0;
#X connect 43 1 80 0;
#X connect 43 1 86 0;
#X connect 43 1 98 0;
#X connect 43 2 25 0;
#X connect 43 2 26 0;
#X connect 43 2 63 0;
#X connect 43 2 68 0;
#X connect 43 2 57 0;
#X connect 43 2 70 0;
#X connect 43 2 76 0;
#X connect 43 2 80 0;
#X connect 43 2 86 0;
#X connect 43 2 87 0;
#X connect 43 3 69 0;
#X connect 43 3 26 0;
#X connect 43 3 63 0;
#X connect 43 3 68 0;
#X connect 43 3 71 0;
#X connect 43 3 72 0;
#X connect 43 3 76 0;
#X connect 43 3 80 0;
#X connect 43 3 86 0;
#X connect 43 3 98 0;
#X connect 43 4 25 0;
#X connect 43 4 26 0;
#X connect 43 4 63 0;
#X connect 43 4 68 0;
#X connect 43 4 57 0;
#X connect 43 4 70 0;
#X connect 43 4 76 0;
#X connect 43 4 80 0;
#X connect 43 4 86 0;
#X connect 43 4 87 0;
#X connect 43 5 69 0;
#X connect 43 5 26 0;
#X connect 43 5 63 0;
#X connect 43 5 68 0;
#X connect 43 5 71 0;
#X connect 43 5 72 0;
#X connect 43 5 76 0;
#X connect 43 5 80 0;
#X connect 43 5 86 0;
#X connect 43 5 98 0;
#X connect 43 6 25 0;
#X connect 43 6 26 0;
#X connect 43 6 63 0;
#X connect 43 6 68 0;
#X connect 43 6 57 0;
#X connect 43 6 70 0;
#X connect 43 6 76 0;
#X connect 43 6 80 0;
#X connect 43 6 86 0;
#X connect 43 6 87 0;
#X connect 43 7 69 0;
#X connect 43 7 26 0;
#X connect 43 7 63 0;
#X connect 43 7 68 0;
#X connect 43 7 71 0;
#X connect 43 7 76 0;
#X connect 43 7 80 0;
#X connect 43 7 86 0;
#X connect 43 7 98 0;
#X connect 44 0 25 0;
#X connect 44 0 16 0;
#X connect 44 0 58 0;
#X connect 44 0 64 0;
#X connect 44 0 57 0;
#X connect 44 0 70 0;
#X connect 44 0 73 0;
#X connect 44 0 77 0;
#X connect 44 0 81 0;
#X connect 44 0 87 0;
#X connect 44 0 92 0;
#X connect 44 0 99 0;
#X connect 44 1 69 0;
#X connect 44 1 16 0;
#X connect 44 1 58 0;
#X connect 44 1 64 0;
#X connect 44 1 71 0;
#X connect 44 1 72 0;
#X connect 44 1 73 0;
#X connect 44 1 77 0;
#X connect 44 1 81 0;
#X connect 44 1 98 0;
#X connect 44 2 25 0;
#X connect 44 2 16 0;
#X connect 44 2 58 0;
#X connect 44 2 64 0;
#X connect 44 2 57 0;
#X connect 44 2 70 0;
#X connect 44 2 73 0;
#X connect 44 2 77 0;
#X connect 44 2 81 0;
#X connect 44 2 87 0;
#X connect 44 3 69 0;
#X connect 44 3 16 0;
#X connect 44 3 58 0;
#X connect 44 3 64 0;
#X connect 44 3 71 0;
#X connect 44 3 72 0;
#X connect 44 3 73 0;
#X connect 44 3 77 0;
#X connect 44 3 81 0;
#X connect 44 3 98 0;
#X connect 44 4 25 0;
#X connect 44 4 16 0;
#X connect 44 4 58 0;
#X connect 44 4 64 0;
#X connect 44 4 57 0;
#X connect 44 4 70 0;
#X connect 44 4 73 0;
#X connect 44 4 77 0;
#X connect 44 4 81 0;
#X connect 44 4 87 0;
#X connect 44 5 69 0;
#X connect 44 5 16 0;
#X connect 44 5 58 0;
#X connect 44 5 64 0;
#X connect 44 5 71 0;
#X connect 44 5 72 0;
#X connect 44 5 73 0;
#X connect 44 5 77 0;
#X connect 44 5 81 0;
#X connect 44 5 98 0;
#X connect 44 6 25 0;
#X connect 44 6 16 0;
#X connect 44 6 45 0;
#X connect 44 6 58 0;
#X connect 44 6 64 0;
#X connect 44 6 57 0;
#X connect 44 6 70 0;
#X connect 44 6 73 0;
#X connect 44 6 77 0;
#X connect 44 6 81 0;
#X connect 44 6 87 0;
#X connect 44 7 69 0;
#X connect 44 7 16 0;
#X connect 44 7 58 0;
#X connect 44 7 64 0;
#X connect 44 7 71 0;
#X connect 44 7 72 0;
#X connect 44 7 73 0;
#X connect 44 7 77 0;
#X connect 44 7 81 0;
#X connect 44 7 98 0;
#X connect 45 0 56 0;
#X connect 45 0 52 0;
#X connect 46 0 29 0;
#X connect 47 0 4 0;
#X connect 48 0 0 0;
#X connect 49 0 38 0;
#X connect 50 0 51 0;
#X connect 51 0 50 1;
#X connect 51 0 43 0;
#X connect 51 0 54 0;
#X connect 52 0 53 0;
#X connect 53 0 50 0;
#X connect 55 0 38 1;
#X connect 56 0 50 1;
#X connect 57 0 62 1;
#X connect 58 0 59 1;
#X connect 59 0 62 0;
#X connect 60 0 59 0;
#X connect 62 0 61 0;
#X connect 63 0 59 2;
#X connect 64 0 65 1;
#X connect 65 0 67 0;
#X connect 66 0 65 0;
#X connect 67 0 97 0;
#X connect 68 0 65 2;
#X connect 69 0 23 1;
#X connect 69 0 24 1;
#X connect 70 0 67 1;
#X connect 71 0 62 1;
#X connect 72 0 67 1;
#X connect 73 0 74 1;
#X connect 75 0 74 0;
#X connect 76 0 74 2;
#X connect 77 0 78 1;
#X connect 79 0 78 0;
#X connect 80 0 78 2;
#X connect 81 0 82 1;
#X connect 82 0 85 0;
#X connect 83 0 82 0;
#X connect 85 0 84 0;
#X connect 86 0 82 2;
#X connect 87 0 96 1;
#X connect 88 0 91 0;
#X connect 89 0 91 0;
#X connect 90 0 91 0;
#X connect 92 0 94 1;
#X connect 94 0 93 0;
#X connect 96 0 95 0;
#X connect 98 0 96 1;
#X connect 99 0 85 1;
#X connect 100 0 94 1;
#X connect 101 0 85 1;
#X connect 102 0 46 1;
#X connect 102 0 49 1;
#X connect 102 0 48 1;
#X connect 102 0 53 1;
#X connect 102 0 47 1;
