#N canvas 614 0 699 669 10;
#X obj 216 59 f;
#X obj 254 59 + 1;
#X obj 216 10 tgl 15 0 empty empty empty 17 7 0 10 -262144 -1 -1 0
1;
#X obj 286 105 hradio 15 1 0 4 empty empty empty 0 -8 0 10 -262144
-1 -1 3;
#X obj 279 254 f;
#X obj 279 287 - 1;
#X floatatom 326 304 5 0 0 0 - - -;
#X obj 249 186 tgl 15 0 empty empty empty 17 7 0 10 -262144 -1 -1 0
1;
#X obj 331 171 bng 15 250 50 0 empty empty empty 17 7 0 10 -262144
-1 -1;
#X obj 279 315 vradio 15 1 0 4 empty empty empty 0 -8 0 10 -262144
-1 -1 0;
#X obj 282 76 % 4;
#X msg 331 237 4;
#X obj 198 -77 f;
#X obj 236 -77 + 1;
#X obj 117 -117 tgl 15 0 empty empty empty 17 7 0 10 -262144 -1 -1
0 1;
#X obj 268 -31 hradio 15 1 0 4 empty empty empty 0 -8 0 10 -262144
-1 -1 3;
#X obj 313 35 bng 15 250 50 0 empty empty empty 17 7 0 10 -262144 -1
-1;
#X obj 264 -60 % 4;
#X obj 268 3 sel 0 1 2 3;
#X obj 286 139 sel 0 1 2 3;
#X obj 279 410 sel 0 1 2 3;
#X obj 198 -102 metro 100;
#X obj 250 217 metro 100;
#X obj 214 33 metro 100;
#X obj 30 -110 tgl 15 0 empty empty empty 17 7 0 10 -262144 -1 -1 0
1;
#X msg 53 -106 create;
#X msg 62 -82 destroy;
#X obj 29 -61 gemwin;
#X msg 477 84 \$1;
#X obj 519 69 hsl 128 15 0 20 0 0 empty empty empty -2 -8 0 10 -262144
-1 -1 0 1;
#X obj 477 123 gemhead;
#X obj 477 186 rotateXYZ;
#X obj 476 263 translateXYZ;
#X floatatom 485 216 5 0 0 0 - - -;
#X floatatom 574 214 5 0 0 0 - - -;
#X obj 570 264 translateXYZ;
#X floatatom 518 101 5 0 0 0 - - -;
#X floatatom 520 216 5 0 0 0 - - -;
#X obj 566 183 rotateXYZ;
#X obj 569 323 square;
#X obj 476 327 square;
#X obj 476 297 color;
#X obj 570 295 color;
#X floatatom 611 214 5 0 0 0 - - -;
#X msg 366 504 1 1 1 0;
#X msg 434 503 0 0 0 0;
#X connect 0 0 1 0;
#X connect 1 0 0 1;
#X connect 1 0 10 0;
#X connect 2 0 23 0;
#X connect 3 0 19 0;
#X connect 3 0 34 0;
#X connect 4 0 5 0;
#X connect 5 0 4 1;
#X connect 5 0 6 0;
#X connect 5 0 9 0;
#X connect 7 0 2 0;
#X connect 7 0 22 0;
#X connect 8 0 7 0;
#X connect 8 0 11 0;
#X connect 9 0 20 0;
#X connect 9 0 43 0;
#X connect 10 0 3 0;
#X connect 11 0 4 1;
#X connect 12 0 13 0;
#X connect 13 0 12 1;
#X connect 13 0 17 0;
#X connect 14 0 21 0;
#X connect 15 0 18 0;
#X connect 16 0 2 0;
#X connect 17 0 15 0;
#X connect 18 3 16 0;
#X connect 19 0 44 0;
#X connect 19 1 45 0;
#X connect 19 2 44 0;
#X connect 19 3 8 0;
#X connect 19 3 45 0;
#X connect 20 0 14 0;
#X connect 20 0 44 0;
#X connect 20 1 45 0;
#X connect 20 2 44 0;
#X connect 20 3 45 0;
#X connect 21 0 12 0;
#X connect 22 0 4 0;
#X connect 23 0 0 0;
#X connect 24 0 27 0;
#X connect 25 0 27 0;
#X connect 26 0 27 0;
#X connect 28 0 30 0;
#X connect 28 0 36 0;
#X connect 29 0 28 0;
#X connect 30 0 31 0;
#X connect 30 0 38 0;
#X connect 31 0 32 0;
#X connect 32 0 41 0;
#X connect 33 0 32 1;
#X connect 34 0 35 1;
#X connect 35 0 42 0;
#X connect 37 0 32 2;
#X connect 38 0 35 0;
#X connect 41 0 40 0;
#X connect 42 0 39 0;
#X connect 43 0 35 2;
#X connect 44 0 41 1;
#X connect 44 0 42 1;
#X connect 45 0 41 1;
#X connect 45 0 42 1;
