#N canvas 473 149 560 373 10;
#X obj 126 47 notein;
#X obj 100 84 stripnote;
#X floatatom 143 207 5 0 0 0 - - -;
#X floatatom 131 234 5 0 0 0 - - -;
#X floatatom 114 259 5 0 0 0 - - -;
#X floatatom 151 183 5 0 0 0 - - -;
#X floatatom 99 283 5 0 0 0 - - -;
#X floatatom 216 82 5 0 0 0 - - -;
#X floatatom 256 81 5 0 0 0 - - -;
#X floatatom 180 83 5 0 0 0 - - -;
#X obj 188 142 poly 4 1;
#X obj 190 182 pack 0 0 0;
#X obj 190 225 print;
#X obj 269 289 *~;
#X obj 262 333 dac~;
#X obj 268 142 mtof;
#X msg 365 90 \; pd dsp 1;
#X msg 364 49 \; pd dsp 0;
#X obj 322 239 hsl 128 15 0 1 0 0 empty empty empty -2 -8 0 10 -262144
-1 -1 0 1;
#X obj 319 273 line~;
#X obj 102 155 pitch;
#X obj 268 251 osc~;
#X obj 240 239 tgl 15 0 empty empty empty 17 7 0 10 -262144 -1 -1 0
1;
#X text 87 11 This is look at usb midi input types and their values
;
#X floatatom 109 109 5 0 0 0 - - -;
#X floatatom 52 108 5 0 0 0 - - -;
#X floatatom 338 176 5 0 0 0 - - -;
#X connect 0 0 1 0;
#X connect 0 0 9 0;
#X connect 0 1 7 0;
#X connect 0 2 1 1;
#X connect 0 2 8 0;
#X connect 1 0 20 0;
#X connect 1 0 25 0;
#X connect 1 1 20 1;
#X connect 1 1 24 0;
#X connect 7 0 10 0;
#X connect 9 0 10 0;
#X connect 9 0 15 0;
#X connect 10 0 11 0;
#X connect 10 1 11 1;
#X connect 10 1 26 0;
#X connect 10 2 11 2;
#X connect 11 0 12 0;
#X connect 13 0 14 0;
#X connect 13 0 14 1;
#X connect 15 0 21 0;
#X connect 18 0 19 0;
#X connect 19 0 13 1;
#X connect 20 0 6 0;
#X connect 20 1 4 0;
#X connect 20 2 3 0;
#X connect 20 3 2 0;
#X connect 20 4 5 0;
#X connect 21 0 13 0;
#X connect 22 0 21 0;
