#N canvas 420 135 826 526 10;
#X obj 43 86 repeat 20;
#X obj 43 117 t a b;
#X obj 71 146 f;
#X obj 43 171 separator;
#X obj 85 211 *;
#X obj 44 288 translateXYZ;
#X obj 44 395 color;
#X obj 112 144 + 1;
#X obj 148 144 % 20;
#X floatatom 428 196 5 0 0 0 - - -;
#X obj 413 229 /;
#X obj 413 378 hsv2rgb;
#X obj 180 143 inlet mslider;
#X obj 428 144 inlet loadbng;
#X obj 272 143 inlet X;
#X obj 325 143 inlet Y;
#X obj 43 48 inlet GEMh;
#X obj 115 49 inlet limit;
#X obj 516 145 inlet col;
#X floatatom 228 447 5 0 0 0 - - -;
#X obj 126 256 - 3;
#X obj 85 253 - 3;
#X obj 667 147 inlet geosize;
#X obj 553 262 unpack f f f;
#X obj 413 338 pack f f f f;
#X floatatom 421 423 5 0 0 0 - - -;
#X obj 227 228 expr if($f1<=0.41 \, 1 \, $f1);
#X obj 277 307 rotateXYZ;
#X obj 582 146 inlet rXYZ;
#X obj 438 229 unpack f f f;
#X obj 44 488 cube;
#X obj 44 463 pix_texture;
#X obj 44 429 alpha;
#X obj 44 344 separator;
#X obj 376 144 inlet Z;
#X obj 168 256 - 3;
#X obj 44 207 pix_image Grid11.jpg;
#X obj 137 421 tgl 15 0 empty empty empty 17 7 0 10 -262144 -1 -1 0
1;
#X msg 136 399 auto \$1;
#X obj 136 375 tgl 15 0 empty empty empty 17 7 0 10 -262144 -1 -1 0
1;
#X connect 0 0 1 0;
#X connect 1 0 3 0;
#X connect 1 1 2 0;
#X connect 2 0 7 0;
#X connect 3 0 36 0;
#X connect 4 0 20 0;
#X connect 4 0 21 0;
#X connect 4 0 26 0;
#X connect 4 0 35 0;
#X connect 5 0 27 0;
#X connect 5 0 33 0;
#X connect 6 0 32 0;
#X connect 7 0 8 0;
#X connect 8 0 2 1;
#X connect 8 0 4 0;
#X connect 8 0 20 0;
#X connect 9 0 10 1;
#X connect 10 0 24 0;
#X connect 11 0 6 1;
#X connect 11 0 25 0;
#X connect 12 0 4 1;
#X connect 13 0 9 0;
#X connect 14 0 21 1;
#X connect 15 0 20 1;
#X connect 16 0 0 0;
#X connect 17 0 0 1;
#X connect 17 0 8 1;
#X connect 18 0 23 0;
#X connect 20 0 5 2;
#X connect 21 0 5 1;
#X connect 22 0 30 1;
#X connect 23 0 24 1;
#X connect 23 1 24 2;
#X connect 23 2 24 3;
#X connect 24 0 11 0;
#X connect 26 0 19 0;
#X connect 26 0 10 0;
#X connect 27 0 6 0;
#X connect 28 0 29 0;
#X connect 29 2 27 2;
#X connect 31 0 30 0;
#X connect 32 0 31 0;
#X connect 33 0 6 0;
#X connect 34 0 5 3;
#X connect 36 0 5 0;
#X connect 37 0 32 1;
#X connect 38 0 32 0;
#X connect 39 0 38 0;
