#N canvas 134 169 796 433 10;
#X obj 677 13 inlet geosize;
#X obj 463 13 inlet rev;
#X obj 411 13 inlet Z;
#X obj 360 14 inlet Y;
#X obj 309 15 inlet X;
#X obj 233 14 inlet xslid;
#X obj 161 18 inlet limit;
#X obj 13 407 outlet create;
#X obj 309 68 + 1;
#X obj 340 69 + 1;
#X obj 372 69 + 1;
#X obj 403 70 + 1;
#X obj 434 69 + 1;
#X obj 465 70 + 1;
#X obj 497 70 + 1;
#N canvas 210 251 403 334 gemwin 0;
#X obj 123 143 gemwin;
#X obj 58 96 outlet;
#X obj 58 17 inlet;
#X obj 58 48 route create;
#X msg 58 77 set destroy;
#X msg 133 75 set create;
#X msg 247 119 destroy;
#X obj 313 52 inlet;
#X msg 123 119 create \, 1;
#X obj 54 167 gemhead;
#X obj 63 201 rotateXYZ 0 -120 0;
#X floatatom 145 176 5 0 0 0 - - -;
#X obj 61 300 light;
#X obj 69 252 tgl 15 0 empty empty empty 17 7 0 10 -262144 -1 -1 0
1;
#X msg 111 266 1 1 1;
#X floatatom 108 176 5 0 0 0 - - -;
#X msg 162 270 1 1 0;
#X floatatom 182 176 5 0 0 0 - - -;
#X floatatom 198 207 5 0 0 0 - - -;
#X obj 102 234 translateXYZ 1 0 0;
#X connect 2 0 3 0;
#X connect 3 0 4 0;
#X connect 3 0 8 0;
#X connect 3 1 5 0;
#X connect 3 1 6 0;
#X connect 4 0 1 0;
#X connect 5 0 1 0;
#X connect 6 0 0 0;
#X connect 7 0 0 0;
#X connect 8 0 0 0;
#X connect 9 0 10 0;
#X connect 10 0 19 0;
#X connect 11 0 10 2;
#X connect 13 0 12 0;
#X connect 14 0 12 1;
#X connect 15 0 10 1;
#X connect 16 0 12 1;
#X connect 17 0 10 3;
#X connect 18 0 19 1;
#X connect 19 0 12 0;
#X restore 14 153 pd gemwin;
#X obj 14 16 inlet gsig;
#X obj 83 16 inlet light;
#X obj 127 121 gemhead;
#X obj 536 176 cube_patternII_set;
#X obj 534 206 cube_patternII_set;
#X obj 535 234 cube_patternII_set;
#X obj 534 262 cube_patternII_set;
#X obj 539 307 cube_patternII_set;
#X obj 538 335 cube_patternII_set;
#X obj 539 363 cube_patternII_set;
#X obj 537 393 cube_patternII_set;
#X obj 533 13 inlet col;
#X obj 603 13 inlet rXYZ;
#X connect 0 0 19 9;
#X connect 0 0 20 9;
#X connect 0 0 21 9;
#X connect 0 0 22 9;
#X connect 0 0 23 9;
#X connect 0 0 24 9;
#X connect 0 0 25 9;
#X connect 0 0 26 9;
#X connect 1 0 19 6;
#X connect 1 0 20 6;
#X connect 1 0 21 6;
#X connect 1 0 22 6;
#X connect 1 0 23 6;
#X connect 1 0 24 6;
#X connect 1 0 25 6;
#X connect 1 0 26 6;
#X connect 2 0 19 5;
#X connect 2 0 20 5;
#X connect 2 0 21 5;
#X connect 2 0 22 5;
#X connect 2 0 23 5;
#X connect 2 0 24 5;
#X connect 2 0 25 5;
#X connect 2 0 26 5;
#X connect 3 0 19 4;
#X connect 3 0 20 4;
#X connect 3 0 21 4;
#X connect 3 0 22 4;
#X connect 3 0 23 4;
#X connect 3 0 24 4;
#X connect 3 0 25 4;
#X connect 3 0 26 4;
#X connect 4 0 8 0;
#X connect 4 0 19 3;
#X connect 5 0 19 2;
#X connect 5 0 20 2;
#X connect 5 0 21 2;
#X connect 5 0 22 2;
#X connect 5 0 23 2;
#X connect 5 0 24 2;
#X connect 5 0 25 2;
#X connect 5 0 26 2;
#X connect 6 0 19 1;
#X connect 6 0 20 1;
#X connect 6 0 21 1;
#X connect 6 0 22 1;
#X connect 6 0 23 1;
#X connect 6 0 24 1;
#X connect 6 0 25 1;
#X connect 6 0 26 1;
#X connect 8 0 9 0;
#X connect 8 0 20 3;
#X connect 9 0 10 0;
#X connect 9 0 21 3;
#X connect 10 0 11 0;
#X connect 10 0 22 3;
#X connect 11 0 12 0;
#X connect 11 0 23 3;
#X connect 12 0 13 0;
#X connect 12 0 24 3;
#X connect 13 0 14 0;
#X connect 13 0 25 3;
#X connect 14 0 26 3;
#X connect 15 0 7 0;
#X connect 16 0 15 0;
#X connect 17 0 15 1;
#X connect 18 0 19 0;
#X connect 18 0 20 0;
#X connect 18 0 21 0;
#X connect 18 0 22 0;
#X connect 18 0 23 0;
#X connect 18 0 24 0;
#X connect 18 0 25 0;
#X connect 18 0 26 0;
#X connect 27 0 19 7;
#X connect 27 0 20 7;
#X connect 27 0 21 7;
#X connect 27 0 22 7;
#X connect 27 0 23 7;
#X connect 27 0 24 7;
#X connect 27 0 25 7;
#X connect 27 0 26 7;
#X connect 28 0 19 8;
#X connect 28 0 20 8;
#X connect 28 0 21 8;
#X connect 28 0 22 8;
#X connect 28 0 23 8;
#X connect 28 0 24 8;
#X connect 28 0 25 8;
#X connect 28 0 26 8;
