#N canvas 553 46 450 300 10;
#X obj 150 197 plus_counter;
#X obj 232 196 minus_counter;
#X obj 19 28 tgl 15 0 empty empty empty 17 7 0 10 -262144 -1 -1 1 1
;
#X msg 42 32 create;
#X msg 51 56 destroy;
#X obj 18 77 gemwin;
#X obj 133 247 GEMSquare;
#X obj 147 25 tgl 15 0 empty empty empty 17 7 0 10 -262144 -1 -1 1
1;
#X floatatom 219 158 5 0 0 0 - - -;
#X obj 147 55 metro 240;
#X floatatom 307 155 5 0 0 0 - - -;
#X msg 365 196 1 1 1 0;
#X obj 147 90 plus_counter;
#X msg 216 53 8;
#X obj 148 114 sel 0 1 2 3 4 5 6 7;
#X obj 149 155 bng 15 250 50 0 empty empty empty 17 7 0 10 -262144
-1 -1;
#X obj 263 151 bng 15 250 50 0 empty empty empty 17 7 0 10 -262144
-1 -1;
#X floatatom 269 244 5 0 0 0 - - -;
#X floatatom 223 244 5 0 0 0 - - -;
#X obj 61 230 gemhead 10;
#X connect 0 0 6 1;
#X connect 0 0 18 0;
#X connect 1 0 6 2;
#X connect 1 0 17 0;
#X connect 2 0 5 0;
#X connect 3 0 5 0;
#X connect 4 0 5 0;
#X connect 7 0 9 0;
#X connect 8 0 0 1;
#X connect 9 0 12 0;
#X connect 10 0 1 1;
#X connect 11 0 6 3;
#X connect 12 0 14 0;
#X connect 13 0 12 1;
#X connect 14 0 15 0;
#X connect 14 1 15 0;
#X connect 14 2 15 0;
#X connect 14 3 15 0;
#X connect 14 4 16 0;
#X connect 14 5 16 0;
#X connect 14 6 16 0;
#X connect 14 7 16 0;
#X connect 15 0 0 0;
#X connect 16 0 1 0;
#X connect 19 0 6 0;
