#N canvas 626 199 662 418 10;
#X obj 282 258 part_render;
#X obj 282 294 rotateXYZ;
#X obj 288 323 translateXYZ;
#X obj 46 280 cube;
#X obj 46 326 triangle;
#X obj 48 258 sphere;
#X obj 46 303 cylinder;
#X obj 53 233 world_light;
#X obj 91 260 light;
#X obj 280 32 bng 15 250 50 0 empty empty empty 17 7 0 10 -262144 -1
-1;
#X obj 30 44 tgl 15 0 empty empty empty 17 7 0 10 -262144 -1 -1 0 1
;
#X msg 62 42 create;
#X msg 76 66 destroy;
#X obj 61 125 gemwin;
#X msg 334 85 speed 200;
#X obj 281 108 part_head 10;
#X obj 282 226 part_killold 20;
#X obj 494 65 metro;
#X obj 494 34 tgl 15 0 empty empty empty 17 7 0 10 -262144 -1 -1 0
1;
#X floatatom 521 35 5 0 0 0 - - -;
#X obj 494 94 counter;
#X obj 494 124 mod 360;
#X obj 284 361 rectangle 3 1;
#X msg 378 329 draw line;
#X floatatom 494 167 5 0 0 0 - - -;
#X obj 282 168 part_color 0 1 0 1;
#X obj 282 136 part_source 20;
#X obj 282 195 part_velocity 4 point;
#X obj 281 64 gemhead 20;
#X connect 0 0 1 0;
#X connect 1 0 2 0;
#X connect 2 0 22 0;
#X connect 9 0 28 0;
#X connect 10 0 13 0;
#X connect 11 0 13 0;
#X connect 12 0 13 0;
#X connect 14 0 15 0;
#X connect 15 0 26 0;
#X connect 16 0 0 0;
#X connect 17 0 20 0;
#X connect 18 0 17 0;
#X connect 19 0 17 1;
#X connect 20 0 21 0;
#X connect 21 0 24 0;
#X connect 23 0 22 0;
#X connect 25 0 27 0;
#X connect 26 0 25 0;
#X connect 27 0 16 0;
#X connect 28 0 15 0;
