#N canvas 528 86 775 562 10;
#X msg 27 24 create;
#X msg 34 50 destroy;
#X obj 57 73 tgl 15 0 empty empty empty 17 7 0 10 -262144 -1 -1 1 1
;
#X obj 27 103 gemwin;
#X obj 151 123 hradio 15 1 0 8 empty empty empty 0 -8 0 10 -262144
-1 -1 3;
#X obj 113 49 metro 200;
#X obj 114 27 tgl 15 0 empty empty empty 17 7 0 10 -262144 -1 -1 0
1;
#X obj 114 72 counter;
#X floatatom 172 24 5 0 0 0 - - -;
#X obj 90 124 mod 361;
#X obj 114 99 mod 8;
#X obj 47 241 tgl 15 0 empty empty empty 17 7 0 10 -262144 -1 -1 0
1;
#X obj 85 240 tgl 15 0 empty empty empty 17 7 0 10 -262144 -1 -1 0
1;
#X msg 55 196 0;
#X msg 91 196 0;
#X obj 47 169 sel 0;
#X obj 84 169 sel 1;
#X obj 121 242 tgl 15 0 empty empty empty 17 7 0 10 -262144 -1 -1 0
1;
#X obj 157 241 tgl 15 0 empty empty empty 17 7 0 10 -262144 -1 -1 1
1;
#X msg 126 196 0;
#X msg 165 196 0;
#X obj 120 169 sel 2;
#X obj 157 169 sel 3;
#X obj 195 240 tgl 15 0 empty empty empty 17 7 0 10 -262144 -1 -1 0
1;
#X obj 233 240 tgl 15 0 empty empty empty 17 7 0 10 -262144 -1 -1 0
1;
#X msg 203 196 0;
#X msg 239 196 0;
#X obj 269 242 tgl 15 0 empty empty empty 17 7 0 10 -262144 -1 -1 0
1;
#X obj 305 241 tgl 15 0 empty empty empty 17 7 0 10 -262144 -1 -1 1
1;
#X msg 274 196 0;
#X msg 313 196 0;
#X obj 195 169 sel 4;
#X obj 232 169 sel 5;
#X obj 268 169 sel 6;
#X obj 305 169 sel 7;
#X obj 44 285 gemhead;
#X obj 201 286 gemhead;
#X obj 44 395 rotateXYZ;
#X obj 201 396 rotateXYZ;
#X obj 201 450 cube 0.5;
#X obj 44 450 cube 0.5;
#X obj 202 339 color 1 1 1 0;
#X obj 42 339 color 1 1 1 0;
#X msg 277 299 1 0 0 1;
#X obj 47 423 translateXYZ 0 0 0;
#X obj 198 423 translateXYZ 0 0 0;
#X obj 277 275 loadbang;
#X connect 0 0 3 0;
#X connect 1 0 3 0;
#X connect 2 0 3 0;
#X connect 4 0 15 0;
#X connect 4 0 16 0;
#X connect 4 0 21 0;
#X connect 4 0 22 0;
#X connect 4 0 31 0;
#X connect 4 0 32 0;
#X connect 4 0 33 0;
#X connect 4 0 34 0;
#X connect 5 0 7 0;
#X connect 6 0 5 0;
#X connect 7 0 9 0;
#X connect 7 0 10 0;
#X connect 8 0 5 1;
#X connect 9 0 37 1;
#X connect 9 0 38 1;
#X connect 9 0 37 2;
#X connect 9 0 37 3;
#X connect 9 0 38 2;
#X connect 9 0 38 3;
#X connect 10 0 4 0;
#X connect 11 0 35 0;
#X connect 12 0 36 0;
#X connect 13 0 12 0;
#X connect 14 0 11 0;
#X connect 14 0 17 0;
#X connect 15 0 11 0;
#X connect 15 0 13 0;
#X connect 16 0 12 0;
#X connect 16 0 14 0;
#X connect 17 0 35 0;
#X connect 18 0 36 0;
#X connect 19 0 18 0;
#X connect 19 0 12 0;
#X connect 20 0 17 0;
#X connect 20 0 23 0;
#X connect 21 0 17 0;
#X connect 21 0 19 0;
#X connect 22 0 18 0;
#X connect 22 0 20 0;
#X connect 23 0 35 0;
#X connect 24 0 36 0;
#X connect 25 0 24 0;
#X connect 25 0 18 0;
#X connect 26 0 23 0;
#X connect 26 0 27 0;
#X connect 27 0 35 0;
#X connect 28 0 36 0;
#X connect 29 0 28 0;
#X connect 29 0 24 0;
#X connect 30 0 27 0;
#X connect 31 0 23 0;
#X connect 31 0 25 0;
#X connect 32 0 24 0;
#X connect 32 0 26 0;
#X connect 33 0 27 0;
#X connect 33 0 29 0;
#X connect 34 0 28 0;
#X connect 34 0 30 0;
#X connect 35 0 42 0;
#X connect 36 0 41 0;
#X connect 37 0 44 0;
#X connect 38 0 45 0;
#X connect 41 0 38 0;
#X connect 42 0 37 0;
#X connect 43 0 41 1;
#X connect 43 0 42 1;
#X connect 44 0 40 0;
#X connect 45 0 39 0;
#X connect 46 0 43 0;
