#N canvas 455 64 804 545 10;
#X obj 61 69 gemwin;
#X obj 212 21 gemhead;
#X obj 34 28 tgl 15 0 empty empty empty 17 7 0 10 -262144 -1 -1 0 1
;
#X msg 104 32 destroy \, 0;
#X msg 61 8 reset \, create \, 1;
#X obj 213 59 repeat 20;
#X obj 239 83 print repetition;
#X obj 213 109 t a b;
#X obj 297 174 f;
#X obj 297 201 counter;
#X floatatom 306 280 5 0 0 0 - - -;
#X obj 164 137 separator;
#X obj 165 330 translateXYZ;
#X obj 166 391 rotateXYZ;
#X obj 166 432 alpha;
#X obj 166 460 color;
#X msg 223 488 draw line;
#X msg 223 469 draw fill;
#X obj 404 155 timer;
#X obj 421 214 cos;
#X obj 427 252 *;
#X obj 403 288 +;
#X floatatom 446 305 5 0 0 0 - - -;
#X obj 498 110 tgl 15 0 empty empty empty 17 7 0 10 -262144 -1 -1 82
82;
#X obj 344 127 bng 15 250 50 0 empty empty empty 17 7 0 10 -262144
-1 -1;
#X obj 297 225 % 360;
#X obj 195 413 tgl 15 0 empty empty empty 17 7 0 10 -262144 -1 -1 1
1;
#X obj 222 413 loadbang;
#X obj 406 184 / 5000;
#X obj 347 330 tan;
#X obj 348 383 * 0.5;
#X obj 421 411 pack 0 1 1;
#X obj 421 443 hsv2rgb;
#X obj 374 81 knob 32 32 0 360 0 0 empty empty empty 0 -8 0 8 -262144
-1 -1 1300 1;
#X obj 165 522 cube 0.75;
#X obj 672 70 vsl 15 128 0 6 0 0 empty empty empty 0 -9 0 10 -262144
-1 -1 900 1;
#X obj 537 161 loadbang;
#X obj 497 189 t b a;
#X obj 499 236 pix_snap2tex;
#X obj 539 187 t b b;
#X msg 587 210 500 500;
#X obj 501 275 alpha;
#X floatatom 627 258 5 0 0 0 - - -;
#X obj 506 423 square 4;
#X obj 504 392 colorRGB 1 0 1 0.888;
#X obj 390 330 sin;
#X obj 429 331 cos;
#X obj 347 353 *;
#X obj 392 385 * 0.5;
#X obj 391 355 *;
#X obj 432 383 * 0.5;
#X obj 431 353 *;
#X obj 325 417 * 30;
#X obj 362 416 * 90;
#X obj 378 437 * 45;
#X msg 538 210 0 1;
#X obj 280 311 / 1200;
#X floatatom 532 347 5 0 0 0 - - -;
#X floatatom 559 315 5 0 0 0 - - -;
#X floatatom 583 308 5 0 0 0 - - -;
#X connect 1 0 5 0;
#X connect 1 0 37 0;
#X connect 2 0 0 0;
#X connect 3 0 0 0;
#X connect 4 0 0 0;
#X connect 5 0 6 0;
#X connect 5 0 7 0;
#X connect 7 0 11 0;
#X connect 7 1 8 0;
#X connect 7 1 18 0;
#X connect 7 1 24 0;
#X connect 8 0 9 0;
#X connect 9 0 25 0;
#X connect 10 0 8 1;
#X connect 10 0 20 0;
#X connect 10 0 28 1;
#X connect 10 0 56 0;
#X connect 10 0 23 0;
#X connect 11 0 12 0;
#X connect 12 0 13 0;
#X connect 13 0 14 0;
#X connect 14 0 15 0;
#X connect 15 0 34 0;
#X connect 16 0 34 0;
#X connect 17 0 34 0;
#X connect 18 0 28 0;
#X connect 19 0 20 1;
#X connect 20 0 21 1;
#X connect 21 0 29 0;
#X connect 21 0 22 0;
#X connect 21 0 45 0;
#X connect 21 0 46 0;
#X connect 23 0 55 0;
#X connect 24 0 8 0;
#X connect 25 0 10 0;
#X connect 26 0 14 1;
#X connect 27 0 26 0;
#X connect 28 0 19 0;
#X connect 28 0 21 0;
#X connect 29 0 47 0;
#X connect 30 0 31 0;
#X connect 30 0 12 1;
#X connect 30 0 52 0;
#X connect 31 0 32 0;
#X connect 32 0 15 1;
#X connect 33 0 25 1;
#X connect 35 0 42 0;
#X connect 36 0 39 0;
#X connect 37 0 38 0;
#X connect 37 1 38 0;
#X connect 38 0 41 0;
#X connect 39 0 55 0;
#X connect 39 1 40 0;
#X connect 40 0 38 2;
#X connect 41 0 44 0;
#X connect 42 0 44 4;
#X connect 44 0 43 0;
#X connect 45 0 49 0;
#X connect 46 0 51 0;
#X connect 47 0 30 0;
#X connect 48 0 12 2;
#X connect 48 0 53 0;
#X connect 49 0 48 0;
#X connect 50 0 12 3;
#X connect 50 0 54 0;
#X connect 50 0 31 2;
#X connect 51 0 50 0;
#X connect 52 0 13 1;
#X connect 53 0 13 2;
#X connect 54 0 13 3;
#X connect 55 0 38 1;
#X connect 56 0 13 1;
#X connect 56 0 13 3;
#X connect 57 0 44 1;
#X connect 58 0 44 2;
#X connect 59 0 44 3;
