#N canvas 673 98 637 553 10;
#X msg 108 29 reset \, create \, 1;
#X obj 108 61 gemwin;
#X obj 252 32 gemhead;
#X obj 252 65 repeat 20;
#X obj 253 96 t a b;
#X obj 280 125 f;
#X obj 257 161 separator;
#X obj 294 190 *;
#X obj 257 248 translateXYZ;
#X obj 263 346 color;
#X obj 263 425 cube 0.5;
#X obj 321 123 + 1;
#X obj 357 123 % 20;
#X obj 407 29 vsl 15 128 0 6 0 0 empty empty empty 0 -9 0 10 -262144
-1 -1 400 1;
#X obj 293 215 - 3;
#X obj 328 216 - 3;
#X obj 394 212 loadbang;
#X msg 394 242 6;
#X floatatom 396 270 5 0 0 0 - - -;
#X msg 300 376 draw fill;
#X msg 303 399 draw line;
#X obj 383 303 /;
#X obj 383 335 pack 0 1 1;
#X obj 383 365 hsv2rgb;
#X connect 0 0 1 0;
#X connect 2 0 3 0;
#X connect 3 0 4 0;
#X connect 4 0 6 0;
#X connect 4 1 5 0;
#X connect 5 0 11 0;
#X connect 6 0 8 0;
#X connect 7 0 21 0;
#X connect 7 0 14 0;
#X connect 7 0 15 0;
#X connect 8 0 9 0;
#X connect 9 0 10 0;
#X connect 11 0 12 0;
#X connect 12 0 5 1;
#X connect 12 0 15 0;
#X connect 12 0 7 0;
#X connect 13 0 7 1;
#X connect 14 0 8 1;
#X connect 15 0 8 2;
#X connect 16 0 17 0;
#X connect 17 0 18 0;
#X connect 18 0 21 1;
#X connect 19 0 10 0;
#X connect 20 0 10 0;
#X connect 21 0 22 0;
#X connect 22 0 23 0;
#X connect 23 0 9 1;
