#N canvas 295 14 1041 618 10;
#X obj 49 143 loadbang;
#X msg 48 51 dimen 400 300;
#X obj 25 77 tgl 15 0 empty empty empty 17 7 0 10 -262144 -1 -1 0 1
;
#X msg 57 77 create;
#X msg 103 77 destroy;
#X obj 48 113 gemwin;
#X obj 49 168 s lb;
#X obj 48 27 r lb;
#X obj 181 23 notein;
#X floatatom 218 57 5 0 0 0 - - -;
#X floatatom 254 58 5 0 0 0 - - -;
#X floatatom 181 57 5 0 0 0 - - -;
#X obj 181 83 mtof;
#X floatatom 181 110 5 0 0 0 - - -;
#X obj 257 162 phasor~;
#X obj 184 275 clip~ 0 1;
#X obj 256 274 clip~ 0 1;
#X obj 240 128 * -1;
#X obj 183 238 -~ -1;
#X obj 256 239 -~ -1;
#X obj 183 202 *~ -2;
#X obj 257 200 *~ -2;
#X msg 282 126 0;
#X obj 319 111 bng 15 250 50 0 empty empty empty 17 7 0 10 -262144
-1 -1;
#X obj 325 274 *~ 0.2;
#X obj 312 162 osc~;
#X obj 172 358 osc~;
#X obj 105 325 + 1;
#X obj 138 324 + 1;
#X obj 91 358 osc~;
#X obj 16 358 * 2;
#X obj 203 358 osc~;
#X obj 234 358 phasor~;
#X obj 41 358 phasor~;
#X obj 167 452 lop~;
#X obj 121 453 hip~;
#X obj 241 321 *~;
#X obj 246 587 dac~ 1 2;
#X floatatom 254 424 5 0 0 0 - - -;
#X obj 311 238 lop~ 250;
#X obj 312 204 *~ 0.4;
#X obj 182 164 osc~;
#X floatatom 381 106 5 0 0 0 - - -;
#X obj 381 163 phasor~;
#X text 452 82 Phase Synchronisation;
#X obj 379 272 clip~ 0 1;
#X obj 455 273 clip~ 0 1;
#X obj 436 306 +~;
#X obj 412 132 * -1;
#X obj 382 237 -~ -1;
#X obj 455 238 -~ -1;
#X obj 522 273 clip~ 0 1;
#X obj 508 345 +~;
#X obj 499 137 * -2;
#X obj 522 238 -~ -1;
#X obj 523 199 *~ -1;
#X obj 456 199 *~ -1;
#X msg 456 102 1;
#X obj 382 201 *~ -1;
#X obj 201 488 -~ 0.2;
#X obj 298 358 +~;
#X obj 172 324 - 1;
#X obj 207 325 - 1;
#X obj 249 528 *~;
#X obj 376 410 +~;
#X obj 144 426 *~ 0.2;
#X obj 190 425 *~ 0.2;
#X obj 74 325 - 1;
#X obj 133 358 osc~;
#X obj 415 421 vsl 15 128 0 1 0 0 empty empty empty 0 -9 0 10 -262144
-1 -1 2400 1;
#X obj 249 553 *~ 0.2;
#X obj 456 161 osc~;
#X obj 523 161 osc~;
#X obj 659 31 gemhead;
#X obj 661 119 part_color;
#X obj 661 159 part_source 5 point;
#X obj 661 199 part_velocity;
#X obj 661 240 part_size;
#X obj 662 308 part_render;
#X obj 662 275 part_killold 20;
#X obj 661 84 part_head 200;
#X msg 856 429 draw line;
#X msg 932 430 draw point;
#X msg 782 429 draw fill;
#X obj 661 446 sphere;
#X obj 661 473 cube;
#X obj 661 527 triangle;
#X obj 661 555 rectangle;
#X obj 661 499 cylinder;
#X obj 662 364 translate;
#X floatatom 624 158 5 0 0 0 - - -;
#X floatatom 783 525 5 0 0 0 - - -;
#X floatatom 817 542 5 0 0 0 - - -;
#X floatatom 821 486 5 0 0 0 - - -;
#X floatatom 785 468 5 0 0 0 - - -;
#X obj 560 126 / 10;
#X floatatom 738 509 5 0 0 0 - - -;
#X obj 1009 102 vsl 15 128 -45 20 0 0 empty empty empty 0 -9 0 10 -262144
-1 -1 7600 1;
#X msg 944 144 0 0 \$1 0;
#X msg 943 214 0 1 0 0;
#X msg 943 190 1 0 0 0;
#X msg 944 167 0 0 1 0;
#X floatatom 944 121 5 0 0 0 - - -;
#X floatatom 862 43 5 0 0 0 - - -;
#X msg 878 119 0 \$1 1;
#X floatatom 917 44 5 0 0 0 - - -;
#X msg 760 82 0 0 \$1;
#X msg 824 136 0 1 \$1;
#X msg 872 71 \$1 1 1;
#X msg 917 93 \$1 1 0;
#X floatatom 808 40 5 0 0 0 - - -;
#X obj 770 271 hsl 128 15 0 360 0 0 empty empty empty -2 -8 0 10 -262144
-1 -1 4100 1;
#X obj 799 294 hsl 128 15 0 360 0 0 empty empty empty -2 -8 0 10 -262144
-1 -1 12700 1;
#X obj 846 313 hsl 128 15 0 360 0 0 empty empty empty -2 -8 0 10 -262144
-1 -1 11400 1;
#X obj 743 388 rotateXYZ;
#X floatatom 565 401 5 0 0 0 - - -;
#X floatatom 607 401 5 0 0 0 - - -;
#X msg 681 56 speed \$0;
#X floatatom 739 28 5 0 0 0 - - -;
#X msg 747 56 0 \$1 0;
#X msg 727 334 \$1 0 0;
#X msg 782 334 0 \$1 0;
#X msg 843 333 0 0 \$1;
#X connect 0 0 6 0;
#X connect 1 0 5 0;
#X connect 2 0 5 0;
#X connect 3 0 5 0;
#X connect 4 0 5 0;
#X connect 7 0 1 0;
#X connect 8 0 11 0;
#X connect 8 1 9 0;
#X connect 8 2 10 0;
#X connect 9 0 57 0;
#X connect 11 0 12 0;
#X connect 11 0 23 0;
#X connect 12 0 13 0;
#X connect 13 0 17 0;
#X connect 13 0 30 0;
#X connect 13 0 33 0;
#X connect 13 0 25 0;
#X connect 13 0 41 0;
#X connect 13 0 42 0;
#X connect 13 0 67 0;
#X connect 13 0 29 0;
#X connect 13 0 26 0;
#X connect 13 0 31 0;
#X connect 13 0 32 0;
#X connect 13 0 95 0;
#X connect 14 0 21 0;
#X connect 15 0 36 0;
#X connect 16 0 36 1;
#X connect 17 0 14 0;
#X connect 18 0 15 0;
#X connect 19 0 16 0;
#X connect 20 0 18 0;
#X connect 21 0 19 0;
#X connect 22 0 14 0;
#X connect 22 0 41 1;
#X connect 23 0 22 0;
#X connect 24 0 60 1;
#X connect 25 0 40 0;
#X connect 27 0 28 0;
#X connect 28 0 61 0;
#X connect 28 0 62 0;
#X connect 28 0 68 0;
#X connect 29 0 66 0;
#X connect 30 0 35 1;
#X connect 31 0 65 0;
#X connect 32 0 65 0;
#X connect 33 0 65 0;
#X connect 34 0 59 0;
#X connect 35 0 59 0;
#X connect 36 0 60 0;
#X connect 38 0 34 1;
#X connect 39 0 24 0;
#X connect 40 0 39 0;
#X connect 41 0 20 0;
#X connect 42 0 43 0;
#X connect 42 0 48 0;
#X connect 42 0 53 0;
#X connect 43 0 58 0;
#X connect 45 0 47 0;
#X connect 46 0 47 1;
#X connect 47 0 52 0;
#X connect 48 0 71 0;
#X connect 49 0 45 0;
#X connect 50 0 46 0;
#X connect 51 0 52 1;
#X connect 52 0 64 1;
#X connect 53 0 72 0;
#X connect 54 0 51 0;
#X connect 55 0 54 0;
#X connect 56 0 50 0;
#X connect 57 0 43 1;
#X connect 57 0 71 0;
#X connect 58 0 49 0;
#X connect 59 0 63 0;
#X connect 60 0 64 0;
#X connect 63 0 70 0;
#X connect 64 0 63 1;
#X connect 65 0 35 0;
#X connect 66 0 34 0;
#X connect 67 0 27 0;
#X connect 68 0 66 0;
#X connect 69 0 70 1;
#X connect 70 0 37 0;
#X connect 70 0 37 1;
#X connect 71 0 56 0;
#X connect 72 0 55 0;
#X connect 73 0 80 0;
#X connect 73 0 114 0;
#X connect 74 0 75 0;
#X connect 75 0 76 0;
#X connect 76 0 77 0;
#X connect 77 0 79 0;
#X connect 78 0 89 0;
#X connect 79 0 78 0;
#X connect 80 0 74 0;
#X connect 81 0 84 0;
#X connect 82 0 84 0;
#X connect 83 0 84 0;
#X connect 83 0 85 0;
#X connect 83 0 88 0;
#X connect 83 0 86 0;
#X connect 83 0 87 0;
#X connect 89 0 84 0;
#X connect 89 0 85 0;
#X connect 89 0 88 0;
#X connect 89 0 86 0;
#X connect 89 0 87 0;
#X connect 91 0 87 1;
#X connect 92 0 87 2;
#X connect 93 0 88 2;
#X connect 94 0 88 1;
#X connect 95 0 90 0;
#X connect 95 0 89 1;
#X connect 95 0 77 1;
#X connect 96 0 86 1;
#X connect 97 0 102 0;
#X connect 98 0 76 2;
#X connect 98 0 75 3;
#X connect 99 0 76 2;
#X connect 99 0 75 3;
#X connect 100 0 75 3;
#X connect 100 0 76 2;
#X connect 101 0 76 2;
#X connect 101 0 75 3;
#X connect 102 0 98 0;
#X connect 103 0 106 0;
#X connect 103 0 107 0;
#X connect 104 0 74 2;
#X connect 105 0 108 0;
#X connect 105 0 109 0;
#X connect 106 0 74 1;
#X connect 107 0 74 2;
#X connect 108 0 74 1;
#X connect 109 0 74 2;
#X connect 110 0 119 0;
#X connect 110 0 104 0;
#X connect 111 0 120 0;
#X connect 112 0 121 0;
#X connect 113 0 122 0;
#X connect 114 0 84 0;
#X connect 114 0 85 0;
#X connect 114 0 88 0;
#X connect 114 0 86 0;
#X connect 115 0 84 1;
#X connect 116 0 84 2;
#X connect 117 0 80 0;
#X connect 118 0 117 0;
#X connect 119 0 74 1;
#X connect 120 0 89 2;
#X connect 120 0 114 1;
#X connect 121 0 89 2;
#X connect 121 0 114 2;
#X connect 122 0 89 2;
#X connect 122 0 114 3;
