#N canvas 436 15 823 618 10;
#X obj 39 133 loadbang;
#X msg 38 41 dimen 400 300;
#X obj 15 67 tgl 15 0 empty empty empty 17 7 0 10 -262144 -1 -1 0 1
;
#X msg 47 67 create;
#X msg 93 67 destroy;
#X obj 38 103 gemwin;
#X obj 39 158 s lb;
#X obj 38 17 r lb;
#X obj 269 25 notein;
#X floatatom 306 59 5 0 0 0 - - -;
#X floatatom 342 60 5 0 0 0 - - -;
#X floatatom 269 59 5 0 0 0 - - -;
#X obj 170 152 mtof;
#X floatatom 170 179 5 0 0 0 - - -;
#X obj 330 162 < 55;
#X obj 364 162 > 55;
#X obj 457 15 gemhead;
#X obj 457 80 part_color;
#X obj 457 120 part_source 5 point;
#X obj 457 160 part_velocity;
#X obj 457 201 part_size;
#X obj 458 269 part_render;
#X obj 458 236 part_killold 20;
#X obj 457 45 part_head 200;
#X msg 651 342 draw line;
#X msg 727 342 draw point;
#X msg 577 342 draw fill;
#X obj 457 359 sphere;
#X obj 458 385 cube;
#X obj 458 439 triangle;
#X obj 458 467 rectangle;
#X obj 458 411 cylinder;
#X obj 458 325 translate;
#X floatatom 540 325 5 0 0 0 - - -;
#X msg 523 295 0.1 0 0;
#X floatatom 582 434 5 0 0 0 - - -;
#X floatatom 616 451 5 0 0 0 - - -;
#X floatatom 620 395 5 0 0 0 - - -;
#X floatatom 584 377 5 0 0 0 - - -;
#X obj 483 295 / 10;
#X msg 578 295 0 0.1 0;
#X floatatom 537 418 5 0 0 0 - - -;
#X obj 330 189 tgl 15 0 empty empty empty 17 7 0 10 -262144 -1 -1 0
1;
#X obj 364 189 tgl 15 0 empty empty empty 17 7 0 10 -262144 -1 -1 0
1;
#X msg 634 295 0 0 0.1;
#X obj 400 162 == 55;
#X obj 400 190 tgl 15 0 empty empty empty 17 7 0 10 -262144 -1 -1 0
1;
#X obj 383 325 rotateXYZ;
#X obj 171 233 phasor~;
#X obj 246 231 phasor~;
#X obj 173 344 clip~ 0 1;
#X obj 245 343 clip~ 0 1;
#X obj 285 387 +~;
#X obj 237 195 * -1;
#X obj 172 307 -~ -1;
#X obj 245 308 -~ -1;
#X obj 172 271 *~ -2;
#X obj 246 269 *~ -2;
#X msg 271 195 0;
#X obj 308 180 bng 15 250 50 0 empty empty empty 17 7 0 10 -262144
-1 -1;
#X obj 783 162 vsl 15 128 -45 20 0 0 empty empty empty 0 -9 0 10 -262144
-1 -1 0 1;
#X msg 718 204 0 0 \$1 0;
#X msg 717 274 0 1 0 0;
#X msg 717 250 1 0 0 0;
#X msg 718 227 0 0 1 0;
#X floatatom 718 181 5 0 0 0 - - -;
#X obj 301 273 *~;
#X obj 314 343 *~ 0.2;
#X obj 300 307 lop~ 200;
#X obj 301 231 osc~;
#X obj 173 434 osc~;
#X obj 112 387 + 1;
#X obj 143 387 + 1;
#X obj 176 386 + 1;
#X obj 210 386 - 50;
#X obj 245 387 - 25;
#X obj 93 434 osc~;
#X obj 124 434 phasor~;
#X obj 17 434 * 2;
#X obj 204 434 osc~;
#X obj 235 434 phasor~;
#X obj 43 434 phasor~;
#X obj 146 479 *~ 0.2;
#X obj 192 479 *~ 0.2;
#X obj 211 507 lop~;
#X obj 165 508 hip~;
#X obj 187 540 *~ 0.2;
#X obj 323 426 *~;
#X obj 309 556 *~;
#X obj 295 585 dac~ 1 2;
#X msg 543 17 0 \$1 0;
#X floatatom 658 4 5 0 0 0 - - -;
#X msg 674 80 0 \$1 1;
#X floatatom 713 5 5 0 0 0 - - -;
#X msg 556 43 0 0 \$1;
#X msg 620 97 0 1 \$1;
#X msg 668 32 \$1 1 1;
#X msg 713 54 \$1 1 0;
#X floatatom 604 1 5 0 0 0 - - -;
#X floatatom 241 478 5 0 0 0 - - -;
#X connect 0 0 6 0;
#X connect 1 0 5 0;
#X connect 2 0 5 0;
#X connect 3 0 5 0;
#X connect 4 0 5 0;
#X connect 7 0 1 0;
#X connect 8 0 11 0;
#X connect 8 1 9 0;
#X connect 8 2 10 0;
#X connect 9 0 14 1;
#X connect 9 0 15 1;
#X connect 9 0 45 1;
#X connect 11 0 12 0;
#X connect 11 0 14 0;
#X connect 11 0 15 0;
#X connect 11 0 45 0;
#X connect 12 0 13 0;
#X connect 13 0 48 0;
#X connect 13 0 53 0;
#X connect 13 0 71 0;
#X connect 13 0 78 0;
#X connect 13 0 81 0;
#X connect 13 0 69 0;
#X connect 14 0 42 0;
#X connect 14 0 47 3;
#X connect 14 0 39 0;
#X connect 15 0 43 0;
#X connect 15 0 47 2;
#X connect 16 0 23 0;
#X connect 17 0 18 0;
#X connect 18 0 19 0;
#X connect 19 0 20 0;
#X connect 20 0 22 0;
#X connect 21 0 32 0;
#X connect 21 0 47 0;
#X connect 22 0 21 0;
#X connect 23 0 17 0;
#X connect 24 0 27 0;
#X connect 25 0 27 0;
#X connect 26 0 27 0;
#X connect 26 0 28 0;
#X connect 26 0 31 0;
#X connect 26 0 29 0;
#X connect 26 0 30 0;
#X connect 32 0 27 0;
#X connect 32 0 28 0;
#X connect 32 0 31 0;
#X connect 32 0 29 0;
#X connect 32 0 30 0;
#X connect 34 0 32 2;
#X connect 35 0 30 1;
#X connect 36 0 30 2;
#X connect 37 0 31 2;
#X connect 38 0 31 1;
#X connect 39 0 33 0;
#X connect 39 0 32 1;
#X connect 39 0 20 1;
#X connect 40 0 32 2;
#X connect 41 0 29 1;
#X connect 42 0 34 0;
#X connect 42 0 59 0;
#X connect 43 0 40 0;
#X connect 44 0 32 2;
#X connect 45 0 46 0;
#X connect 45 0 47 1;
#X connect 46 0 44 0;
#X connect 47 0 27 0;
#X connect 47 0 28 0;
#X connect 47 0 31 0;
#X connect 47 0 29 0;
#X connect 48 0 56 0;
#X connect 49 0 57 0;
#X connect 50 0 52 0;
#X connect 51 0 52 1;
#X connect 52 0 87 0;
#X connect 53 0 49 0;
#X connect 54 0 50 0;
#X connect 55 0 51 0;
#X connect 56 0 54 0;
#X connect 57 0 55 0;
#X connect 58 0 48 1;
#X connect 58 0 49 0;
#X connect 59 0 58 0;
#X connect 60 0 65 0;
#X connect 61 0 19 2;
#X connect 61 0 18 3;
#X connect 62 0 19 2;
#X connect 62 0 18 3;
#X connect 63 0 18 3;
#X connect 63 0 19 2;
#X connect 64 0 19 2;
#X connect 64 0 18 3;
#X connect 65 0 61 0;
#X connect 66 0 68 0;
#X connect 67 0 87 1;
#X connect 68 0 67 0;
#X connect 69 0 66 0;
#X connect 71 0 72 0;
#X connect 71 0 76 0;
#X connect 72 0 73 0;
#X connect 72 0 77 0;
#X connect 73 0 70 0;
#X connect 73 0 74 0;
#X connect 73 0 75 0;
#X connect 74 0 79 0;
#X connect 75 0 80 0;
#X connect 76 0 83 0;
#X connect 77 0 83 0;
#X connect 78 0 85 1;
#X connect 79 0 82 0;
#X connect 80 0 82 0;
#X connect 81 0 82 0;
#X connect 82 0 85 0;
#X connect 83 0 84 0;
#X connect 84 0 86 0;
#X connect 85 0 86 0;
#X connect 86 0 89 0;
#X connect 86 0 89 1;
#X connect 87 0 89 0;
#X connect 87 0 89 1;
#X connect 90 0 17 1;
#X connect 91 0 94 0;
#X connect 91 0 95 0;
#X connect 92 0 17 2;
#X connect 93 0 96 0;
#X connect 93 0 97 0;
#X connect 94 0 17 1;
#X connect 95 0 17 2;
#X connect 96 0 17 1;
#X connect 97 0 17 2;
#X connect 98 0 90 0;
#X connect 98 0 92 0;
#X connect 99 0 84 1;
