#N canvas 498 86 828 500 10;
#X obj 116 188 notein;
#X floatatom 131 225 5 0 0 0 - - -;
#X floatatom 178 223 5 0 0 0 - - -;
#X floatatom 87 223 5 0 0 0 - - -;
#X obj 87 253 mtof;
#X floatatom 87 284 5 0 0 0 - - -;
#X obj 87 335 osc~;
#X obj 88 436 dac~ 1 2;
#X obj 88 396 *~ 0.1;
#X obj 160 396 *~ 0.1;
#X text 197 324 comment;
#X obj 252 227 vsl 15 128 0 0.2 0 0 empty empty empty 0 -9 0 10 -262144
-1 -1 0 1;
#X obj 123 336 square~;
#X obj 180 337 triangle~;
#X obj 615 115 gemhead;
#X obj 615 188 part_color;
#X obj 615 226 part_source 5 point;
#X obj 615 266 part_velocity;
#X obj 615 307 part_size;
#X obj 615 383 part_render;
#X obj 616 342 part_killold 20;
#X msg 435 181 draw line;
#X msg 437 153 draw point;
#X msg 434 208 draw fill;
#X obj 292 225 sphere;
#X obj 292 261 cube;
#X obj 292 341 triangle;
#X obj 290 379 rectangle;
#X obj 290 304 cylinder;
#X obj 478 255 translate;
#X floatatom 440 120 5 0 0 0 - - -;
#X msg 529 38 0.1 0 0;
#X floatatom 464 333 5 0 0 0 - - -;
#X floatatom 464 357 5 0 0 0 - - -;
#X floatatom 466 308 5 0 0 0 - - -;
#X msg 704 71 0 \$1 0;
#X floatatom 675 32 5 0 0 0 - - -;
#X msg 758 69 0 \$1 1;
#X msg 765 176 0 0 \$1 0;
#X msg 769 249 0 1 0 0;
#X msg 767 226 1 0 0 0;
#X msg 767 199 0 0 1 0;
#X floatatom 765 158 5 0 0 0 - - -;
#X obj 615 153 part_head 200;
#X floatatom 748 6 5 0 0 0 - - -;
#X obj 67 138 loadbang;
#X msg 66 46 dimen 400 300;
#X obj 43 72 tgl 15 0 empty empty empty 17 7 0 10 -262144 -1 -1 1 1
;
#X msg 75 72 create;
#X msg 121 72 destroy;
#X obj 66 108 gemwin;
#X obj 67 163 s lb;
#X obj 66 22 r lb;
#X floatatom 469 286 5 0 0 0 - - -;
#X msg 705 94 0 0 \$1;
#X msg 756 93 0 1 \$1;
#X obj 501 77 / 10;
#X msg 587 38 0 0.1 0;
#X floatatom 341 146 5 0 0 0 - - -;
#X obj 138 258 < 55;
#X obj 228 246 tgl 15 0 empty empty empty 17 7 0 10 -262144 -1 -1 0
1;
#X obj 179 259 > 55;
#X obj 204 291 tgl 15 0 empty empty empty 17 7 0 10 -262144 -1 -1 1
1;
#X obj 744 282 vsl 15 128 -45 20 0 0 empty empty empty 0 -9 0 10 -262144
-1 -1 4400 1;
#X msg 709 41 \$1 1 1;
#X msg 760 42 \$1 1 0;
#X connect 0 0 3 0;
#X connect 0 1 1 0;
#X connect 0 2 2 0;
#X connect 1 0 35 0;
#X connect 1 0 37 0;
#X connect 1 0 59 1;
#X connect 1 0 61 1;
#X connect 3 0 4 0;
#X connect 3 0 56 0;
#X connect 3 0 59 0;
#X connect 3 0 61 0;
#X connect 4 0 5 0;
#X connect 5 0 6 0;
#X connect 5 0 12 0;
#X connect 5 0 13 0;
#X connect 6 0 8 0;
#X connect 8 0 7 0;
#X connect 8 0 7 1;
#X connect 9 0 7 0;
#X connect 9 0 7 1;
#X connect 11 0 8 1;
#X connect 11 0 9 1;
#X connect 12 0 9 0;
#X connect 13 0 9 0;
#X connect 14 0 43 0;
#X connect 15 0 16 0;
#X connect 16 0 17 0;
#X connect 17 0 18 0;
#X connect 18 0 20 0;
#X connect 19 0 29 0;
#X connect 20 0 19 0;
#X connect 21 0 24 0;
#X connect 22 0 24 0;
#X connect 23 0 24 0;
#X connect 23 0 25 0;
#X connect 23 0 28 0;
#X connect 23 0 26 0;
#X connect 23 0 27 0;
#X connect 29 0 24 0;
#X connect 29 0 25 0;
#X connect 29 0 28 0;
#X connect 29 0 26 0;
#X connect 29 0 27 0;
#X connect 31 0 29 2;
#X connect 32 0 27 1;
#X connect 33 0 27 2;
#X connect 34 0 28 2;
#X connect 35 0 15 1;
#X connect 36 0 54 0;
#X connect 36 0 55 0;
#X connect 37 0 15 2;
#X connect 38 0 16 3;
#X connect 39 0 16 3;
#X connect 39 0 17 2;
#X connect 40 0 16 3;
#X connect 40 0 17 2;
#X connect 41 0 16 3;
#X connect 41 0 17 2;
#X connect 42 0 38 0;
#X connect 43 0 15 0;
#X connect 44 0 64 0;
#X connect 44 0 65 0;
#X connect 45 0 51 0;
#X connect 46 0 50 0;
#X connect 47 0 50 0;
#X connect 48 0 50 0;
#X connect 49 0 50 0;
#X connect 52 0 46 0;
#X connect 53 0 28 1;
#X connect 54 0 15 1;
#X connect 55 0 15 2;
#X connect 56 0 30 0;
#X connect 56 0 29 1;
#X connect 56 0 18 1;
#X connect 57 0 29 2;
#X connect 58 0 60 0;
#X connect 59 0 58 0;
#X connect 60 0 31 0;
#X connect 61 0 62 0;
#X connect 62 0 57 0;
#X connect 63 0 42 0;
#X connect 64 0 15 1;
#X connect 65 0 15 2;
