#N canvas 540 246 450 300 10;
#X obj 74 23 notein;
#X floatatom 89 57 5 0 0 0 - - -;
#X floatatom 136 58 5 0 0 0 - - -;
#X floatatom 45 58 5 0 0 0 - - -;
#X obj 45 88 mtof;
#X floatatom 45 119 5 0 0 0 - - -;
#X obj 45 170 osc~;
#X obj 46 271 dac~ 1 2;
#X obj 46 231 *~ 0.1;
#X obj 118 231 *~ 0.1;
#X text 155 159;
#X obj 210 62 vsl 15 128 0 0.2 0 0 empty empty empty 0 -9 0 10 -262144
-1 -1 0 1;
#X obj 81 171 square~;
#X obj 138 172 triangle~;
#X connect 0 0 3 0;
#X connect 0 1 1 0;
#X connect 0 2 2 0;
#X connect 3 0 4 0;
#X connect 4 0 5 0;
#X connect 5 0 6 0;
#X connect 5 0 12 0;
#X connect 5 0 13 0;
#X connect 6 0 8 0;
#X connect 8 0 7 0;
#X connect 8 0 7 1;
#X connect 9 0 7 0;
#X connect 9 0 7 1;
#X connect 11 0 8 1;
#X connect 11 0 9 1;
#X connect 12 0 9 0;
#X connect 13 0 9 0;
