#N canvas 500 7 752 659 10;
#X obj 106 276 tgl 15 0 empty empty empty 17 7 0 10 -262144 -1 -1 0
1;
#X obj 106 303 metro 100;
#X obj 71 395 bang;
#X msg 106 356 1;
#X obj 106 396 +;
#X obj 106 438 moses 100;
#X obj 105 471 t b;
#X obj 106 329 bng 15 250 50 0 empty empty empty 17 7 0 10 -262144
-1 -1;
#X floatatom 134 396 5 0 0 0 - - -;
#X msg 137 342 0;
#X obj 181 318 tgl 15 0 empty empty empty 17 7 0 10 -262144 -1 -1 96
96;
#X floatatom 157 476 5 0 0 0 - - -;
#X obj 160 274 hsl 128 15 0 120 0 0 empty empty empty -2 -8 0 10 -262144
-1 -1 10160 1;
#X obj 40 130 loadbang;
#X obj 16 64 tgl 15 0 empty empty empty 17 7 0 10 -262144 -1 -1 1 1
;
#X msg 48 64 create;
#X msg 94 64 destroy;
#X obj 39 100 gemwin;
#X obj 40 155 s lb;
#X obj 39 14 r lb;
#X msg 39 38 dimen 800 600;
#X obj 434 96 gemhead;
#X obj 434 161 part_color;
#X obj 434 201 part_source 5 point;
#X obj 434 241 part_velocity;
#X obj 434 282 part_size;
#X obj 435 350 part_render;
#X obj 435 317 part_killold 20;
#X msg 743 426 draw line;
#X msg 819 426 draw point;
#X msg 669 426 draw fill;
#X obj 449 457 translate;
#X floatatom 518 457 5 0 0 0 - - -;
#X msg 499 424 0.1 0 0;
#X floatatom 652 601 5 0 0 0 - - -;
#X floatatom 686 618 5 0 0 0 - - -;
#X floatatom 690 562 5 0 0 0 - - -;
#X floatatom 654 544 5 0 0 0 - - -;
#X obj 459 424 / 10;
#X msg 554 424 0 0.1 0;
#X floatatom 607 585 5 0 0 0 - - -;
#X msg 611 424 0 0 0.1;
#X obj 760 243 vsl 15 128 -2 4 0 0 empty empty empty 0 -9 0 10 -262144
-1 -1 6350 1;
#X msg 695 285 0 0 \$1 0;
#X msg 694 355 0 1 0 0;
#X msg 694 331 1 0 0 0;
#X msg 695 308 0 0 1 0;
#X floatatom 728 215 5 0 0 0 - - -;
#X msg 569 97 0 \$1 0;
#X floatatom 684 84 5 0 0 0 - - -;
#X msg 700 160 0 \$1 1;
#X floatatom 739 85 5 0 0 0 - - -;
#X msg 582 123 0 0 \$1;
#X msg 646 177 0 1 \$1;
#X msg 694 112 \$1 1 1;
#X msg 739 134 \$1 1 0;
#X floatatom 630 81 5 0 0 0 - - -;
#X floatatom 222 359 5 0 0 0 - - -;
#X obj 222 317 / 20;
#X obj 197 475 sel 0 1 2 3 4 5 6;
#X msg 91 513 -2;
#X msg 152 513 0;
#X msg 121 513 - 1;
#X msg 180 513 1;
#X msg 210 513 2;
#X msg 241 514 3;
#X msg 273 514 4;
#X obj 227 440 random 5;
#X msg 234 413 seed 123;
#X obj 161 212 f;
#X obj 161 241 % 120;
#X obj 194 213 + 1;
#X floatatom 202 557 5 0 0 0 - - -;
#X msg 226 382 bang;
#X floatatom 296 413 5 0 0 0 - - -;
#X obj 339 442 random 5;
#X msg 334 382 bang;
#X msg 343 412 seed 456;
#X obj 792 263 vsl 15 128 0 6 0 0 empty empty empty 0 -9 0 10 -262144
-1 -1 10160 1;
#X floatatom 651 205 5 0 0 0 - - -;
#X obj 168 14 hsl 128 15 0 1 0 0 empty empty empty -2 -8 0 10 -258113
-1 -1 10160 1;
#X floatatom 201 54 5 0 0 0 - - -;
#X obj 306 13 hsl 128 15 0 1 0 0 empty empty empty -2 -8 0 10 -4034
-1 -1 10160 1;
#X obj 447 13 hsl 128 15 0 1 0 0 empty empty empty -2 -8 0 10 -4160
-1 -1 10160 1;
#X obj 232 106 pack f f f;
#X obj 303 55 trigger b f;
#X obj 444 56 trigger b f;
#X obj 305 289 / 120;
#X floatatom 886 561 5 0 0 0 - - -;
#X obj 527 526 sphere;
#X obj 528 552 cube;
#X obj 528 578 cylinder;
#X obj 528 606 triangle;
#X obj 528 633 rectangle;
#X obj 435 375 rotateXYZ;
#X obj 355 232 % 360;
#X obj 434 126 part_head 150;
#X connect 0 0 1 0;
#X connect 0 0 9 0;
#X connect 1 0 7 0;
#X connect 1 0 69 0;
#X connect 2 0 3 0;
#X connect 3 0 4 0;
#X connect 4 0 5 0;
#X connect 4 0 8 0;
#X connect 5 0 6 0;
#X connect 5 1 10 0;
#X connect 5 1 11 0;
#X connect 6 0 2 0;
#X connect 7 0 3 0;
#X connect 7 0 68 0;
#X connect 7 0 73 0;
#X connect 7 0 76 0;
#X connect 7 0 77 0;
#X connect 8 0 4 1;
#X connect 9 0 4 1;
#X connect 10 0 9 0;
#X connect 12 0 1 1;
#X connect 12 0 10 0;
#X connect 12 0 58 0;
#X connect 12 0 87 0;
#X connect 13 0 18 0;
#X connect 14 0 17 0;
#X connect 15 0 17 0;
#X connect 16 0 17 0;
#X connect 19 0 20 0;
#X connect 20 0 17 0;
#X connect 21 0 96 0;
#X connect 22 0 23 0;
#X connect 23 0 24 0;
#X connect 24 0 25 0;
#X connect 25 0 27 0;
#X connect 26 0 94 0;
#X connect 27 0 26 0;
#X connect 28 0 89 0;
#X connect 28 0 90 0;
#X connect 28 0 91 0;
#X connect 28 0 92 0;
#X connect 28 0 93 0;
#X connect 29 0 89 0;
#X connect 29 0 90 0;
#X connect 29 0 91 0;
#X connect 29 0 92 0;
#X connect 29 0 93 0;
#X connect 30 0 89 0;
#X connect 30 0 90 0;
#X connect 30 0 91 0;
#X connect 30 0 92 0;
#X connect 30 0 93 0;
#X connect 31 0 89 0;
#X connect 31 0 90 0;
#X connect 33 0 31 2;
#X connect 34 0 93 1;
#X connect 35 0 93 2;
#X connect 36 0 91 2;
#X connect 37 0 91 1;
#X connect 38 0 32 0;
#X connect 38 0 31 1;
#X connect 38 0 25 1;
#X connect 39 0 31 2;
#X connect 40 0 92 1;
#X connect 41 0 31 2;
#X connect 42 0 47 0;
#X connect 42 0 36 0;
#X connect 42 0 40 0;
#X connect 43 0 24 2;
#X connect 43 0 23 3;
#X connect 44 0 24 2;
#X connect 44 0 23 3;
#X connect 45 0 23 3;
#X connect 45 0 24 2;
#X connect 46 0 24 2;
#X connect 46 0 23 3;
#X connect 47 0 43 0;
#X connect 47 0 46 0;
#X connect 47 0 45 0;
#X connect 48 0 22 1;
#X connect 49 0 52 0;
#X connect 49 0 53 0;
#X connect 50 0 22 2;
#X connect 51 0 54 0;
#X connect 51 0 55 0;
#X connect 52 0 22 1;
#X connect 53 0 22 2;
#X connect 54 0 22 1;
#X connect 55 0 22 2;
#X connect 56 0 48 0;
#X connect 56 0 50 0;
#X connect 57 0 59 0;
#X connect 57 0 78 0;
#X connect 58 0 57 0;
#X connect 58 0 74 0;
#X connect 59 0 60 0;
#X connect 59 1 62 0;
#X connect 59 2 61 0;
#X connect 59 3 63 0;
#X connect 59 4 64 0;
#X connect 59 5 65 0;
#X connect 59 6 66 0;
#X connect 61 0 42 0;
#X connect 63 0 42 0;
#X connect 64 0 42 0;
#X connect 65 0 42 0;
#X connect 66 0 42 0;
#X connect 67 0 51 0;
#X connect 67 0 37 0;
#X connect 67 0 36 0;
#X connect 67 0 40 0;
#X connect 67 0 34 0;
#X connect 67 0 35 0;
#X connect 67 0 72 0;
#X connect 67 0 56 0;
#X connect 68 0 67 0;
#X connect 69 0 71 0;
#X connect 69 0 70 0;
#X connect 69 0 95 0;
#X connect 70 0 12 0;
#X connect 71 0 69 1;
#X connect 73 0 67 0;
#X connect 74 0 67 1;
#X connect 74 0 75 1;
#X connect 75 0 49 0;
#X connect 76 0 75 0;
#X connect 77 0 75 0;
#X connect 78 0 88 0;
#X connect 78 0 79 0;
#X connect 78 0 37 0;
#X connect 78 0 35 0;
#X connect 78 0 34 0;
#X connect 79 0 44 0;
#X connect 79 0 43 0;
#X connect 79 0 46 0;
#X connect 80 0 81 0;
#X connect 80 0 84 0;
#X connect 82 0 85 0;
#X connect 83 0 86 0;
#X connect 84 0 22 2;
#X connect 85 0 84 0;
#X connect 85 1 84 1;
#X connect 86 0 84 0;
#X connect 86 1 84 2;
#X connect 87 0 80 0;
#X connect 87 0 82 0;
#X connect 87 0 83 0;
#X connect 94 0 31 0;
#X connect 95 0 94 1;
#X connect 95 0 94 2;
#X connect 96 0 22 0;
