#N canvas 521 95 824 526 10;
#X obj 108 86 repeat 20;
#X obj 108 117 t a b;
#X obj 136 146 f;
#X obj 108 171 separator;
#X obj 150 211 *;
#X obj 108 270 translateXYZ;
#X obj 109 338 color;
#X obj 177 144 + 1;
#X obj 213 144 % 20;
#X floatatom 442 195 5 0 0 0 - - -;
#X obj 427 228 /;
#X obj 428 321 hsv2rgb;
#X obj 245 143 inlet mslider;
#X obj 442 145 inlet loadbng;
#X obj 337 143 inlet X;
#X obj 390 143 inlet Y;
#X obj 108 48 inlet GEMh;
#X obj 180 49 inlet limit;
#X obj 530 145 inlet col;
#X floatatom 245 396 5 0 0 0 - - -;
#X obj 184 238 - 3;
#X obj 149 235 - 3;
#X obj 594 146 inlet geosize;
#X obj 605 202 unpack f f f;
#X obj 427 291 pack f f f f;
#X obj 481 342 print;
#X floatatom 428 369 5 0 0 0 - - -;
#X obj 245 228 expr if($f1<=0.41 \, 1 \, $f1);
#X floatatom 270 251 5 0 0 0 - - -;
#X obj 108 419 sphere;
#X obj 680 147 inlet segmnts;
#X connect 0 0 1 0;
#X connect 1 0 3 0;
#X connect 1 1 2 0;
#X connect 2 0 7 0;
#X connect 3 0 5 0;
#X connect 4 0 20 0;
#X connect 4 0 21 0;
#X connect 4 0 27 0;
#X connect 5 0 6 0;
#X connect 6 0 29 0;
#X connect 7 0 8 0;
#X connect 8 0 2 1;
#X connect 8 0 4 0;
#X connect 8 0 20 0;
#X connect 9 0 10 1;
#X connect 10 0 24 0;
#X connect 11 0 6 1;
#X connect 11 0 26 0;
#X connect 12 0 4 1;
#X connect 13 0 9 0;
#X connect 14 0 21 1;
#X connect 15 0 20 1;
#X connect 16 0 0 0;
#X connect 17 0 0 1;
#X connect 17 0 8 1;
#X connect 18 0 23 0;
#X connect 20 0 5 2;
#X connect 21 0 5 1;
#X connect 22 0 29 1;
#X connect 23 0 24 1;
#X connect 23 1 24 2;
#X connect 23 2 24 3;
#X connect 24 0 11 0;
#X connect 27 0 19 0;
#X connect 27 0 10 0;
#X connect 28 0 5 3;
#X connect 30 0 29 2;
