#N canvas 286 19 1042 630 10;
#X obj 432 52 gemhead;
#X obj 433 146 part_color;
#X obj 433 111 part_head 200;
#X msg 542 84 0 0 \$1;
#X msg 594 83 1 1 \$1;
#X msg 531 112 0 \$1 0;
#X msg 601 112 1 \$1 1;
#X obj 683 95 r lb;
#X floatatom 487 53 5 0 0 0 - - -;
#X floatatom 629 52 5 0 0 0 - - -;
#X floatatom 583 52 5 0 0 0 - - -;
#X floatatom 536 52 5 0 0 0 - - -;
#X floatatom 674 51 5 0 0 0 - - -;
#X obj 434 265 part_size;
#X obj 434 332 part_render;
#X obj 434 297 part_killold 20;
#X msg 620 453 draw line;
#X msg 696 454 draw point;
#X msg 546 453 draw fill;
#X obj 433 470 sphere;
#X obj 430 500 cube;
#X obj 433 551 triangle;
#X obj 433 579 rectangle;
#X obj 433 523 cylinder;
#X obj 434 388 translate;
#X floatatom 555 549 5 0 0 0 - - -;
#X floatatom 589 566 5 0 0 0 - - -;
#X floatatom 593 510 5 0 0 0 - - -;
#X floatatom 557 492 5 0 0 0 - - -;
#X floatatom 510 533 5 0 0 0 - - -;
#X obj 542 295 hsl 128 15 0 20 0 0 empty empty empty -2 -8 0 10 -262144
-1 -1 5600 1;
#X obj 571 318 hsl 128 15 0 20 0 0 empty empty empty -2 -8 0 10 -262144
-1 -1 1500 1;
#X obj 618 337 hsl 128 15 0 20 0 0 empty empty empty -2 -8 0 10 -262144
-1 -1 4200 1;
#X floatatom 513 412 5 0 0 0 - - -;
#X floatatom 475 412 5 0 20 0 - - -;
#X msg 499 358 \$1 0 0;
#X msg 554 358 0 \$1 0;
#X msg 615 357 0 0 \$1;
#X obj -8 141 loadbang;
#X msg -9 50 dimen 400 300;
#X obj -32 75 tgl 15 0 empty empty empty 17 7 0 10 -262144 -1 -1 0
1;
#X msg 0 75 create;
#X msg 46 75 destroy;
#X obj -9 111 gemwin;
#X obj -8 166 s lb;
#X obj -9 25 r lb;
#X obj 102 24 notein;
#X floatatom 139 58 5 0 0 0 - - -;
#X floatatom 175 59 5 0 0 0 - - -;
#X floatatom 102 58 5 0 0 0 - - -;
#X obj 102 92 mtof;
#X floatatom 78 121 5 0 0 0 - - -;
#X obj 150 172 phasor~;
#X obj 81 286 clip~ 0 1;
#X obj 149 284 clip~ 0 1;
#X obj 150 137 * -1;
#X obj 80 249 -~ -1;
#X obj 149 249 -~ -1;
#X obj 80 213 *~ -2;
#X obj 150 210 *~ -2;
#X msg 221 134 0;
#X obj 253 119 bng 15 250 50 0 empty empty empty 17 7 0 10 -262144
-1 -1;
#X obj 213 284 *~ 0.2;
#X obj 202 171 osc~;
#X obj 122 368 osc~;
#X obj 5 330 + 1;
#X obj 38 329 + 1;
#X obj 41 368 osc~;
#X obj -34 368 * 2;
#X obj 153 368 osc~;
#X obj 184 368 phasor~;
#X obj -9 368 phasor~;
#X obj 117 462 lop~;
#X obj 71 463 hip~;
#X obj 135 330 *~;
#X obj 196 597 dac~ 1 2;
#X floatatom 204 434 5 0 0 0 - - -;
#X obj 201 251 lop~ 250;
#X obj 201 210 *~ 0.4;
#X obj 79 175 osc~;
#X floatatom 280 119 5 0 0 0 - - -;
#X obj 257 176 phasor~;
#X text 221 63 Phase Synchronisation;
#X obj 258 283 clip~ 0 1;
#X obj 322 283 clip~ 0 1;
#X obj 259 323 +~;
#X obj 339 153 * -1;
#X obj 258 250 -~ -1;
#X obj 326 249 -~ -1;
#X obj 343 331 clip~ 0 1;
#X obj 306 357 +~;
#X obj 381 135 * -2;
#X obj 382 301 -~ -1;
#X obj 382 210 *~ -1;
#X obj 325 213 *~ -1;
#X msg 325 117 1;
#X obj 258 214 *~ -1;
#X obj 151 498 -~ 0.2;
#X obj 236 367 +~;
#X obj 72 329 - 1;
#X obj 107 330 - 1;
#X obj 199 538 *~;
#X obj 290 418 +~;
#X obj 94 436 *~ 0.2;
#X obj 140 435 *~ 0.2;
#X obj -26 330 - 1;
#X obj 83 368 osc~;
#X obj 358 432 vsl 15 128 0 1 0 0 empty empty empty 0 -9 0 10 -262144
-1 -1 0 1;
#X obj 199 563 *~ 0.2;
#X obj 325 186 osc~;
#X obj 381 167 osc~;
#X msg 449 82 speed \$1;
#X obj 434 199 part_source 4 point;
#X obj 777 46 metro 200;
#X obj 777 91 counter;
#X obj 777 70 bng 15 250 50 0 empty empty empty 17 7 0 10 -262144 -1
-1;
#X obj 777 113 mod 3;
#X obj 777 136 sel 0 1 2;
#X obj 776 21 tgl 15 0 empty empty empty 17 7 0 10 -262144 -1 -1 0
1;
#X floatatom 828 19 5 0 0 0 - - -;
#X msg 719 160 0 -3 0 4;
#X msg 777 160 0 -3 0 0;
#X msg 839 160 0 -2 -3 0;
#X obj 696 529 counter;
#X obj 696 504 bng 15 250 50 0 empty empty empty 17 7 0 10 -262144
-1 -1;
#X obj 696 478 metro 3000;
#X obj 696 556 mod 10;
#X floatatom 695 598 5 0 0 0 - - -;
#X obj 698 580 hsl 128 15 0 20 0 0 empty empty empty -2 -8 0 10 -262144
-1 -1 0 1;
#X msg 579 225 -0.2 0.3 0.2 0.3;
#X msg 579 245 0 0.3 0 0.3;
#X msg 578 266 0.2 0.3 0.2 0.3;
#X obj 434 239 part_velocity;
#X obj 771 377 rotateXYZ;
#X floatatom 828 351 5 0 0 0 - - -;
#X floatatom 866 350 5 0 0 0 - - -;
#X floatatom 790 351 5 0 0 0 - - -;
#X obj 808 254 mod 361;
#X floatatom 453 359 5 0 0 0 - - -;
#X connect 0 0 2 0;
#X connect 1 0 112 0;
#X connect 1 0 133 0;
#X connect 2 0 1 0;
#X connect 3 0 1 1;
#X connect 4 0 1 2;
#X connect 5 0 1 1;
#X connect 6 0 1 2;
#X connect 7 0 5 0;
#X connect 7 0 6 0;
#X connect 8 0 111 0;
#X connect 9 0 4 0;
#X connect 10 0 3 0;
#X connect 11 0 5 0;
#X connect 12 0 6 0;
#X connect 13 0 15 0;
#X connect 14 0 24 0;
#X connect 15 0 14 0;
#X connect 16 0 19 0;
#X connect 17 0 19 0;
#X connect 18 0 19 0;
#X connect 18 0 20 0;
#X connect 18 0 23 0;
#X connect 18 0 21 0;
#X connect 18 0 22 0;
#X connect 24 0 19 0;
#X connect 24 0 20 0;
#X connect 24 0 23 0;
#X connect 24 0 21 0;
#X connect 24 0 22 0;
#X connect 25 0 22 1;
#X connect 26 0 22 2;
#X connect 27 0 23 2;
#X connect 28 0 23 1;
#X connect 29 0 21 1;
#X connect 30 0 35 0;
#X connect 31 0 36 0;
#X connect 32 0 37 0;
#X connect 33 0 19 1;
#X connect 33 0 13 1;
#X connect 34 0 19 2;
#X connect 35 0 24 2;
#X connect 36 0 24 2;
#X connect 37 0 24 2;
#X connect 38 0 44 0;
#X connect 39 0 43 0;
#X connect 40 0 43 0;
#X connect 41 0 43 0;
#X connect 42 0 43 0;
#X connect 45 0 39 0;
#X connect 46 0 49 0;
#X connect 46 1 47 0;
#X connect 46 2 48 0;
#X connect 47 0 95 0;
#X connect 49 0 50 0;
#X connect 49 0 61 0;
#X connect 50 0 51 0;
#X connect 51 0 55 0;
#X connect 51 0 68 0;
#X connect 51 0 71 0;
#X connect 51 0 63 0;
#X connect 51 0 79 0;
#X connect 51 0 80 0;
#X connect 51 0 105 0;
#X connect 51 0 67 0;
#X connect 51 0 64 0;
#X connect 51 0 69 0;
#X connect 51 0 70 0;
#X connect 52 0 59 0;
#X connect 53 0 74 0;
#X connect 54 0 74 1;
#X connect 55 0 52 0;
#X connect 56 0 53 0;
#X connect 57 0 54 0;
#X connect 58 0 56 0;
#X connect 59 0 57 0;
#X connect 60 0 52 0;
#X connect 60 0 79 1;
#X connect 61 0 60 0;
#X connect 61 0 16 0;
#X connect 62 0 98 1;
#X connect 63 0 78 0;
#X connect 65 0 66 0;
#X connect 66 0 99 0;
#X connect 66 0 100 0;
#X connect 66 0 106 0;
#X connect 67 0 104 0;
#X connect 68 0 73 1;
#X connect 69 0 103 0;
#X connect 70 0 103 0;
#X connect 71 0 103 0;
#X connect 72 0 97 0;
#X connect 73 0 97 0;
#X connect 74 0 98 0;
#X connect 76 0 72 1;
#X connect 77 0 62 0;
#X connect 78 0 77 0;
#X connect 79 0 58 0;
#X connect 80 0 81 0;
#X connect 80 0 86 0;
#X connect 80 0 91 0;
#X connect 81 0 96 0;
#X connect 83 0 85 0;
#X connect 84 0 85 1;
#X connect 85 0 90 0;
#X connect 86 0 109 0;
#X connect 87 0 83 0;
#X connect 88 0 84 0;
#X connect 89 0 90 1;
#X connect 90 0 102 1;
#X connect 91 0 110 0;
#X connect 92 0 89 0;
#X connect 93 0 92 0;
#X connect 94 0 88 0;
#X connect 95 0 81 1;
#X connect 95 0 109 0;
#X connect 96 0 87 0;
#X connect 97 0 101 0;
#X connect 98 0 102 0;
#X connect 101 0 108 0;
#X connect 102 0 101 1;
#X connect 103 0 73 0;
#X connect 104 0 72 0;
#X connect 105 0 65 0;
#X connect 106 0 104 0;
#X connect 107 0 108 1;
#X connect 108 0 75 0;
#X connect 108 0 75 1;
#X connect 109 0 94 0;
#X connect 110 0 93 0;
#X connect 111 0 2 0;
#X connect 112 0 132 0;
#X connect 113 0 115 0;
#X connect 114 0 116 0;
#X connect 114 0 137 0;
#X connect 115 0 114 0;
#X connect 116 0 117 0;
#X connect 117 0 120 0;
#X connect 117 0 129 0;
#X connect 117 1 121 0;
#X connect 117 1 130 0;
#X connect 117 2 122 0;
#X connect 117 2 131 0;
#X connect 118 0 113 0;
#X connect 118 0 125 0;
#X connect 119 0 113 1;
#X connect 120 0 112 3;
#X connect 121 0 112 3;
#X connect 122 0 112 3;
#X connect 123 0 126 0;
#X connect 124 0 123 0;
#X connect 125 0 124 0;
#X connect 126 0 128 0;
#X connect 127 0 27 0;
#X connect 127 0 20 1;
#X connect 128 0 127 0;
#X connect 129 0 132 2;
#X connect 130 0 132 2;
#X connect 131 0 132 2;
#X connect 132 0 13 0;
#X connect 133 0 19 0;
#X connect 134 0 133 2;
#X connect 135 0 133 3;
#X connect 136 0 133 1;
#X connect 137 0 135 0;
#X connect 137 0 136 0;
#X connect 137 0 134 0;
#X connect 138 0 24 1;
