#N canvas 466 22 826 630 10;
#X obj 432 52 gemhead;
#X obj 484 143 part_color;
#X obj 433 111 part_head 200;
#X msg 542 84 0 0 \$1;
#X msg 594 83 1 1 \$1;
#X msg 531 112 0 \$1 0;
#X msg 601 112 1 \$1 1;
#X obj 683 95 r lb;
#X floatatom 487 53 5 0 0 0 - - -;
#X floatatom 629 52 5 0 0 0 - - -;
#X floatatom 583 52 5 0 0 0 - - -;
#X floatatom 536 52 5 0 0 0 - - -;
#X floatatom 674 51 5 0 0 0 - - -;
#X obj 434 239 part_velocity;
#X obj 722 30 vsl 15 128 -3 4 0 0 empty empty empty 0 -9 0 10 -262144
-1 -1 4000 1;
#X floatatom 654 160 5 0 0 0 - - -;
#X obj 434 265 part_size;
#X obj 434 332 part_render;
#X obj 434 299 part_killold 20;
#X msg 628 453 draw line;
#X msg 704 454 draw point;
#X msg 554 453 draw fill;
#X obj 433 470 sphere;
#X obj 433 497 cube;
#X obj 433 551 triangle;
#X obj 433 579 rectangle;
#X obj 433 523 cylinder;
#X obj 434 388 translate;
#X floatatom 555 549 5 0 0 0 - - -;
#X floatatom 589 566 5 0 0 0 - - -;
#X floatatom 593 510 5 0 0 0 - - -;
#X floatatom 557 492 5 0 0 0 - - -;
#X floatatom 510 533 5 0 0 0 - - -;
#X obj 542 295 hsl 128 15 -1 1 0 0 empty empty empty -2 -8 0 10 -262144
-1 -1 2900 1;
#X obj 571 318 hsl 128 15 -1 1 0 0 empty empty empty -2 -8 0 10 -262144
-1 -1 3400 1;
#X obj 618 337 hsl 128 15 -1 1 0 0 empty empty empty -2 -8 0 10 -262144
-1 -1 1900 1;
#X obj 515 412 rotateXYZ;
#X floatatom 440 412 5 0 0 0 - - -;
#X floatatom 475 412 5 0 0 0 - - -;
#X msg 499 358 \$1 0 0;
#X msg 554 358 0 \$1 0;
#X msg 615 357 0 0 \$1;
#X obj -8 141 loadbang;
#X msg -9 50 dimen 400 300;
#X obj -32 75 tgl 15 0 empty empty empty 17 7 0 10 -262144 -1 -1 1
1;
#X msg 0 75 create;
#X msg 46 75 destroy;
#X obj -9 111 gemwin;
#X obj -8 166 s lb;
#X obj -9 25 r lb;
#X obj 102 24 notein;
#X floatatom 139 58 5 0 0 0 - - -;
#X floatatom 175 59 5 0 0 0 - - -;
#X floatatom 102 58 5 0 0 0 - - -;
#X obj 102 92 mtof;
#X floatatom 78 121 5 0 0 0 - - -;
#X obj 150 172 phasor~;
#X obj 81 286 clip~ 0 1;
#X obj 149 284 clip~ 0 1;
#X obj 150 137 * -1;
#X obj 80 249 -~ -1;
#X obj 149 249 -~ -1;
#X obj 80 213 *~ -2;
#X obj 150 210 *~ -2;
#X msg 221 134 0;
#X obj 253 119 bng 15 250 50 0 empty empty empty 17 7 0 10 -262144
-1 -1;
#X obj 213 284 *~ 0.2;
#X obj 202 171 osc~;
#X obj 122 368 osc~;
#X obj 5 330 + 1;
#X obj 38 329 + 1;
#X obj 41 368 osc~;
#X obj -34 368 * 2;
#X obj 153 368 osc~;
#X obj 184 368 phasor~;
#X obj -9 368 phasor~;
#X obj 117 462 lop~;
#X obj 71 463 hip~;
#X obj 135 330 *~;
#X obj 196 597 dac~ 1 2;
#X floatatom 204 434 5 0 0 0 - - -;
#X obj 201 251 lop~ 250;
#X obj 201 210 *~ 0.4;
#X obj 79 175 osc~;
#X floatatom 280 119 5 0 0 0 - - -;
#X obj 257 176 phasor~;
#X text 221 63 Phase Synchronisation;
#X obj 258 283 clip~ 0 1;
#X obj 322 283 clip~ 0 1;
#X obj 259 323 +~;
#X obj 339 153 * -1;
#X obj 258 250 -~ -1;
#X obj 326 249 -~ -1;
#X obj 343 331 clip~ 0 1;
#X obj 306 357 +~;
#X obj 381 135 * -2;
#X obj 382 301 -~ -1;
#X obj 382 210 *~ -1;
#X obj 325 213 *~ -1;
#X msg 325 117 1;
#X obj 258 214 *~ -1;
#X obj 151 498 -~ 0.2;
#X obj 236 367 +~;
#X obj 72 329 - 1;
#X obj 107 330 - 1;
#X obj 199 538 *~;
#X obj 290 418 +~;
#X obj 94 436 *~ 0.2;
#X obj 140 435 *~ 0.2;
#X obj -26 330 - 1;
#X obj 83 368 osc~;
#X obj 358 432 vsl 15 128 0 1 0 0 empty empty empty 0 -9 0 10 -262144
-1 -1 0 1;
#X obj 199 563 *~ 0.2;
#X obj 325 186 osc~;
#X obj 381 167 osc~;
#X floatatom 395 110 5 0 0 0 - - -;
#X obj 354 93 / 10;
#X msg 449 82 speed \$1;
#X obj 434 199 part_source 4 point;
#X msg 657 184 0.2 0.3 \$1 0.3;
#X msg 658 212 0.2 0.3 0.2 \$1;
#X msg 655 230 0.3 0.2 0.3 0.2;
#X msg 658 254 0.3 \$1 0.3 0.2;
#X connect 0 0 2 0;
#X connect 1 0 118 0;
#X connect 2 0 1 0;
#X connect 3 0 1 1;
#X connect 4 0 1 2;
#X connect 5 0 1 1;
#X connect 6 0 1 2;
#X connect 7 0 5 0;
#X connect 7 0 6 0;
#X connect 8 0 117 0;
#X connect 9 0 4 0;
#X connect 10 0 3 0;
#X connect 11 0 5 0;
#X connect 12 0 6 0;
#X connect 13 0 16 0;
#X connect 14 0 15 0;
#X connect 15 0 119 0;
#X connect 15 0 121 0;
#X connect 15 0 122 0;
#X connect 15 0 120 0;
#X connect 16 0 18 0;
#X connect 17 0 27 0;
#X connect 17 0 36 0;
#X connect 18 0 17 0;
#X connect 19 0 22 0;
#X connect 20 0 22 0;
#X connect 21 0 22 0;
#X connect 21 0 23 0;
#X connect 21 0 26 0;
#X connect 21 0 24 0;
#X connect 21 0 25 0;
#X connect 27 0 22 0;
#X connect 27 0 23 0;
#X connect 27 0 26 0;
#X connect 27 0 24 0;
#X connect 27 0 25 0;
#X connect 28 0 25 1;
#X connect 29 0 25 2;
#X connect 30 0 26 2;
#X connect 31 0 26 1;
#X connect 32 0 24 1;
#X connect 33 0 39 0;
#X connect 34 0 40 0;
#X connect 35 0 41 0;
#X connect 36 0 22 0;
#X connect 36 0 23 0;
#X connect 36 0 26 0;
#X connect 36 0 24 0;
#X connect 36 0 25 0;
#X connect 37 0 22 1;
#X connect 38 0 22 2;
#X connect 39 0 27 2;
#X connect 39 0 36 1;
#X connect 40 0 27 2;
#X connect 40 0 36 2;
#X connect 41 0 27 2;
#X connect 41 0 36 3;
#X connect 42 0 48 0;
#X connect 43 0 47 0;
#X connect 44 0 47 0;
#X connect 45 0 47 0;
#X connect 46 0 47 0;
#X connect 49 0 43 0;
#X connect 50 0 53 0;
#X connect 50 1 51 0;
#X connect 50 2 52 0;
#X connect 51 0 99 0;
#X connect 53 0 54 0;
#X connect 53 0 65 0;
#X connect 54 0 55 0;
#X connect 55 0 59 0;
#X connect 55 0 72 0;
#X connect 55 0 75 0;
#X connect 55 0 67 0;
#X connect 55 0 83 0;
#X connect 55 0 84 0;
#X connect 55 0 109 0;
#X connect 55 0 71 0;
#X connect 55 0 68 0;
#X connect 55 0 73 0;
#X connect 55 0 74 0;
#X connect 55 0 116 0;
#X connect 56 0 63 0;
#X connect 57 0 78 0;
#X connect 58 0 78 1;
#X connect 59 0 56 0;
#X connect 60 0 57 0;
#X connect 61 0 58 0;
#X connect 62 0 60 0;
#X connect 63 0 61 0;
#X connect 64 0 56 0;
#X connect 64 0 83 1;
#X connect 65 0 64 0;
#X connect 66 0 102 1;
#X connect 67 0 82 0;
#X connect 69 0 70 0;
#X connect 70 0 103 0;
#X connect 70 0 104 0;
#X connect 70 0 110 0;
#X connect 71 0 108 0;
#X connect 72 0 77 1;
#X connect 73 0 107 0;
#X connect 74 0 107 0;
#X connect 75 0 107 0;
#X connect 76 0 101 0;
#X connect 77 0 101 0;
#X connect 78 0 102 0;
#X connect 80 0 76 1;
#X connect 81 0 66 0;
#X connect 82 0 81 0;
#X connect 83 0 62 0;
#X connect 84 0 85 0;
#X connect 84 0 90 0;
#X connect 84 0 95 0;
#X connect 85 0 100 0;
#X connect 87 0 89 0;
#X connect 88 0 89 1;
#X connect 89 0 94 0;
#X connect 90 0 113 0;
#X connect 91 0 87 0;
#X connect 92 0 88 0;
#X connect 93 0 94 1;
#X connect 94 0 106 1;
#X connect 95 0 114 0;
#X connect 96 0 93 0;
#X connect 97 0 96 0;
#X connect 98 0 92 0;
#X connect 99 0 85 1;
#X connect 99 0 113 0;
#X connect 100 0 91 0;
#X connect 101 0 105 0;
#X connect 102 0 106 0;
#X connect 105 0 112 0;
#X connect 106 0 105 1;
#X connect 107 0 77 0;
#X connect 108 0 76 0;
#X connect 109 0 69 0;
#X connect 110 0 108 0;
#X connect 111 0 112 1;
#X connect 112 0 79 0;
#X connect 112 0 79 1;
#X connect 113 0 98 0;
#X connect 114 0 97 0;
#X connect 116 0 115 0;
#X connect 116 0 27 1;
#X connect 116 0 16 1;
#X connect 117 0 2 0;
#X connect 118 0 13 0;
#X connect 119 0 13 2;
#X connect 119 0 118 3;
#X connect 120 0 13 2;
#X connect 120 0 118 3;
#X connect 121 0 13 2;
#X connect 121 0 118 3;
#X connect 122 0 13 2;
#X connect 122 0 118 3;
