#N canvas 521 75 652 638 10;
#X obj 38 190 pix_video;
#X obj 38 220 pix_blob 4;
#X obj 38 247 pix_film;
#X obj 103 248 f;
#X obj 38 274 pix_contrast;
#X obj 239 50 vsl 15 40 0 10 0 0 empty empty empty 0 -9 0 10 -262144
-1 -1 0 1;
#X obj 260 50 vsl 15 40 0 10 0 0 empty empty empty 0 -9 0 10 -262144
-1 -1 0 1;
#X obj 335 202 render_trigger;
#X msg 430 236 snap;
#X obj 38 379 translateXYZ;
#X obj 38 509 rotateXYZ;
#X obj 291 77 hsl 40 15 0 1 0 0 empty empty empty -2 -8 0 10 -262144
-1 -1 0 1;
#X obj 335 270 pix_snap 0 0 512 512;
#X obj 335 309 pix_texture;
#X obj 335 365 translateXYZ;
#X obj 335 407 rotateXYZ;
#X obj 335 493 rectangle 4 3;
#X obj 373 472 * 4;
#X obj 409 471 * 3;
#X obj 343 62 hsl 40 15 0 127 0 0 empty empty empty -2 -8 0 10 -262144
-1 -1 0 1;
#X obj 426 63 hsl 40 15 0 1 0 0 empty empty empty -2 -8 0 10 -262144
-1 -1 0 1;
#X obj 335 528 spigot;
#X obj 453 81 tgl 15 0 empty empty empty 17 7 0 10 -262144 -1 -1 0
1;
#X obj 287 59 tgl 15 0 empty empty empty 17 7 0 10 -262144 -1 -1 0
1;
#X obj 57 459 metro 10;
#X obj 59 482 f;
#X obj 88 482 + 1;
#X obj 187 167 metro;
#X floatatom 388 80 5 0 0 0 - - -;
#X obj 369 81 tgl 15 0 empty empty empty 17 7 0 10 -262144 -1 -1 0
1;
#X obj 189 189 f;
#X obj 191 220 counter;
#X obj 191 247 % 360;
#N canvas 626 401 549 300 colorCh 0;
#X obj 45 11 inlet;
#X obj 109 58 hsl 128 15 0 1 0 0 empty empty empty -2 -8 0 10 -258113
-1 -1 0 1;
#X floatatom 106 110 5 0 0 0 - - -;
#X obj 247 57 hsl 128 15 0 1 0 0 empty empty empty -2 -8 0 10 -4034
-1 -1 0 1;
#X obj 388 57 hsl 128 15 0 1 0 0 empty empty empty -2 -8 0 10 -4160
-1 -1 0 1;
#X obj 47 171 color;
#X obj 225 154 pack f f f;
#X obj 244 106 trigger b f;
#X obj 385 107 trigger b f;
#X obj 47 228 outlet;
#X obj 103 13 inlet;
#X obj 145 30 / 20;
#X obj 243 12 inlet;
#X obj 385 29 / 20;
#X obj 185 11 inlet;
#X obj 219 30 / 20;
#X connect 0 0 5 0;
#X connect 1 0 2 0;
#X connect 1 0 6 0;
#X connect 3 0 7 0;
#X connect 4 0 8 0;
#X connect 5 0 9 0;
#X connect 6 0 5 1;
#X connect 7 0 6 0;
#X connect 7 1 6 1;
#X connect 8 0 6 0;
#X connect 8 1 6 2;
#X connect 10 0 11 0;
#X connect 11 0 1 0;
#X connect 12 0 13 0;
#X connect 13 0 4 0;
#X connect 14 0 15 0;
#X connect 15 0 3 0;
#X restore 38 321 pd colorCh;
#X obj 191 275 % 20;
#X obj 37 350 pix_texture;
#X obj 38 552 cube 0.34;
#X msg 159 465 draw line;
#X msg 160 488 draw fill;
#X obj 411 584 hsl 128 15 0 30 0 0 empty empty empty -2 -8 0 10 -262144
-1 -1 0 1;
#X msg 360 584 set \$1;
#X floatatom 543 584 5 0 0 0 - - -;
#X obj 339 42 hsl 128 15 0 50 0 0 empty empty empty -2 -8 0 10 -262144
-1 -1 0 1;
#X msg 439 205 set \$1;
#X obj 363 235 gemhead;
#X obj 38 118 gemhead 5;
#X obj 334 553 cube 5;
#X floatatom 471 42 5 0 0 0 - - -;
#X floatatom 471 61 5 0 0 0 - - -;
#X floatatom 389 61 5 0 0 0 - - -;
#X obj 39 140 repeat 20;
#X obj 39 166 t a b;
#X obj 77 166 f;
#X obj 104 165 + 1;
#X obj 131 166 % 20;
#X obj 132 52 knob 20 20 0 20 0 0 empty empty empty 0 -8 0 8 -262144
-1 -1 0 1;
#X obj 157 51 knob 20 20 0 20 0 0 empty empty empty 0 -8 0 8 -262144
-1 -1 0 1;
#X obj 181 51 knob 20 20 0 20 0 0 empty empty empty 0 -8 0 8 -262144
-1 -1 0 1;
#X obj 205 51 knob 20 20 0 20 0 0 empty empty empty 0 -8 0 8 -262144
-1 -1 0 1;
#X obj 28 63 hradio 15 1 0 2 empty empty empty 0 -8 0 10 -262144 -1
-1 0;
#N canvas 192 291 450 300 setGEM 0;
#X obj 116 30 inlet load;
#X obj 194 94 gemwin;
#X obj 28 30 inlet set/del;
#X obj 194 129 outlet;
#X obj 194 31 r lb;
#X obj 196 155 loadbang;
#X obj 196 180 s lb;
#X obj 28 60 sel 0 1;
#X msg 67 84 create;
#X msg 65 109 destroy;
#X msg 194 55 dimen 500 300;
#X connect 0 0 1 0;
#X connect 1 0 3 0;
#X connect 2 0 7 0;
#X connect 4 0 10 0;
#X connect 5 0 6 0;
#X connect 7 0 9 0;
#X connect 7 1 8 0;
#X connect 8 0 1 0;
#X connect 9 0 1 0;
#X connect 10 0 1 0;
#X restore 28 79 pd setGEM;
#X obj 71 63 tgl 15 0 empty empty empty 17 7 0 10 -262144 -1 -1 0 1
;
#X text 26 47 GEM SET;
#X obj 87 63 tgl 15 0 empty empty empty 17 7 0 10 -262144 -1 -1 0 1
;
#X msg 87 79 lighting \$1;
#X obj 335 173 gemhead 15;
#X obj 132 1 inlet;
#X floatatom 131 184 5 0 0 0 - - -;
#X connect 0 0 1 0;
#X connect 1 0 2 0;
#X connect 2 0 4 0;
#X connect 2 2 3 0;
#X connect 3 0 2 1;
#X connect 4 0 33 0;
#X connect 5 0 4 1;
#X connect 6 0 4 2;
#X connect 7 0 12 0;
#X connect 7 2 8 0;
#X connect 8 0 12 0;
#X connect 9 0 10 0;
#X connect 10 0 36 0;
#X connect 11 0 36 1;
#X connect 12 0 13 0;
#X connect 13 0 14 0;
#X connect 14 0 15 0;
#X connect 15 0 16 0;
#X connect 16 0 21 0;
#X connect 17 0 16 1;
#X connect 18 0 16 2;
#X connect 19 0 15 3;
#X connect 19 0 49 0;
#X connect 20 0 17 0;
#X connect 20 0 18 0;
#X connect 20 0 48 0;
#X connect 21 0 46 0;
#X connect 22 0 21 1;
#X connect 23 0 24 0;
#X connect 24 0 25 0;
#X connect 25 0 26 0;
#X connect 25 0 10 1;
#X connect 25 0 10 2;
#X connect 26 0 25 1;
#X connect 27 0 30 0;
#X connect 28 0 27 1;
#X connect 29 0 27 0;
#X connect 30 0 31 0;
#X connect 31 0 32 0;
#X connect 31 0 34 0;
#X connect 32 0 15 1;
#X connect 32 0 15 2;
#X connect 32 0 10 3;
#X connect 33 0 35 0;
#X connect 34 0 33 1;
#X connect 34 0 33 2;
#X connect 35 0 9 0;
#X connect 37 0 36 0;
#X connect 37 0 46 0;
#X connect 38 0 36 0;
#X connect 38 0 46 0;
#X connect 39 0 40 0;
#X connect 39 0 41 0;
#X connect 42 0 43 0;
#X connect 42 0 47 0;
#X connect 43 0 44 0;
#X connect 44 0 12 0;
#X connect 45 0 50 0;
#X connect 50 0 51 0;
#X connect 51 0 0 0;
#X connect 51 1 52 0;
#X connect 52 0 53 0;
#X connect 53 0 52 1;
#X connect 53 0 54 0;
#X connect 54 0 67 0;
#X connect 55 0 50 1;
#X connect 55 0 54 1;
#X connect 59 0 60 0;
#X connect 61 0 60 1;
#X connect 63 0 64 0;
#X connect 64 0 60 1;
#X connect 65 0 7 0;
#X connect 66 0 55 0;
#X coords 0 -1 1 1 500 80 1 20 20;
