#N canvas 603 85 262 316 10;
#X obj 168 32 hsl 10 14 0 1 0 0 empty empty empty -2 -8 0 10 -258113
-1 -1 0 1;
#X obj 185 32 hsl 10 14 0 1 0 0 empty empty empty -2 -8 0 10 -4034
-1 -1 0 1;
#X obj 203 32 hsl 10 14 0 1 0 0 empty empty empty -2 -8 0 10 -4032
-1 -1 0 1;
#X obj 147 78 t b f;
#X obj 186 79 t b f;
#X obj 134 115 pack f f f;
#X obj 24 85 f;
#X obj 51 77 + 1;
#X obj 78 78 % 20;
#X obj 79 147 expr if($f1<=0.41 \, 1 \, $f1);
#X obj 79 173 /;
#X obj 79 211 pack f f f f;
#X obj 79 246 hsv2rgb;
#X obj 135 173 unpack f f f;
#X obj 79 115 *;
#X obj 102 32 bng 15 250 50 0 empty empty empty 17 7 0 10 -262144 -1
-1;
#X floatatom 123 31 5 0 0 0 - - -;
#X obj 24 -1 inlet metrob;
#X obj 123 -1 inlet divisor;
#X obj 79 275 outlet;
#X obj 70 25 knob 20 20 0 127 0 0 empty empty empty 0 -8 0 8 -262144
-1 -1 0 1;
#X connect 0 0 5 0;
#X connect 1 0 3 0;
#X connect 2 0 4 0;
#X connect 3 0 5 0;
#X connect 3 1 5 1;
#X connect 4 0 5 0;
#X connect 4 1 5 2;
#X connect 5 0 13 0;
#X connect 6 0 7 0;
#X connect 7 0 6 1;
#X connect 7 0 8 0;
#X connect 8 0 14 0;
#X connect 9 0 10 0;
#X connect 10 0 11 0;
#X connect 11 0 12 0;
#X connect 12 0 19 0;
#X connect 13 0 11 1;
#X connect 13 1 11 2;
#X connect 13 2 11 3;
#X connect 14 0 9 0;
#X connect 15 0 16 0;
#X connect 16 0 10 1;
#X connect 17 0 6 0;
#X connect 18 0 16 0;
#X connect 20 0 14 1;
#X coords 0 -1 1 1 200 30 1 20 20;
