#N canvas 438 100 591 508 10;
#X msg 16 17 reset \, create \, 1;
#X obj 14 44 gemwin;
#X obj 25 123 gemhead;
#X obj 103 100 tgl 15 0 empty empty empty 17 7 0 10 -262144 -1 -1 1
1;
#X obj 103 124 metro 800;
#X obj 25 159 separator;
#X obj 140 163 separator;
#X obj 277 164 separator;
#X obj 27 203 color 1 0 0 0.25;
#X obj 145 201 color 0 1 0 0.25;
#X obj 280 203 color 0 0 1 0.25;
#X obj 27 240 alpha;
#X obj 145 240 alpha;
#X obj 280 241 alpha;
#X obj 27 435 translateXYZ;
#X obj 146 435 rotateXYZ;
#X obj 279 443 scaleXYZ;
#X obj 26 505 cube;
#X obj 146 488 cube;
#X obj 279 495 cube;
#X obj 56 318 line;
#X obj 174 327 line;
#X obj 175 266 random 360;
#X obj 312 268 random 2000;
#X obj 314 294 / 1000;
#X obj 314 324 pack 0 1000;
#X obj 314 350 line;
#X obj 57 293 pack 0 1000;
#X obj 173 295 pack 0 1000;
#X floatatom 312 409 5 0 0 0 - - -;
#X msg 300 464 draw line;
#X msg 169 458 draw line;
#X msg 51 461 draw line;
#X msg 58 482 width 10;
#X floatatom 176 407 5 0 0 0 - - -;
#X floatatom 64 409 5 0 0 0 - - -;
#X obj 56 344 / 1000;
#X obj 60 376 - 2;
#X floatatom 150 97 5 0 0 0 - - -;
#X obj 57 265 random 2000;
#X connect 0 0 1 0;
#X connect 2 0 5 0;
#X connect 2 0 6 0;
#X connect 2 0 7 0;
#X connect 3 0 4 0;
#X connect 4 0 22 0;
#X connect 4 0 23 0;
#X connect 4 0 39 0;
#X connect 5 0 8 0;
#X connect 6 0 9 0;
#X connect 7 0 10 0;
#X connect 8 0 11 0;
#X connect 9 0 12 0;
#X connect 10 0 13 0;
#X connect 11 0 14 0;
#X connect 12 0 15 0;
#X connect 13 0 16 0;
#X connect 14 0 17 0;
#X connect 15 0 18 0;
#X connect 16 0 19 0;
#X connect 20 0 36 0;
#X connect 21 0 34 0;
#X connect 22 0 28 0;
#X connect 23 0 24 0;
#X connect 24 0 25 0;
#X connect 25 0 26 0;
#X connect 26 0 29 0;
#X connect 27 0 20 0;
#X connect 28 0 21 0;
#X connect 29 0 16 1;
#X connect 29 0 16 2;
#X connect 29 0 16 3;
#X connect 30 0 19 0;
#X connect 31 0 18 0;
#X connect 32 0 17 0;
#X connect 33 0 17 0;
#X connect 34 0 15 1;
#X connect 34 0 15 2;
#X connect 34 0 15 3;
#X connect 35 0 14 1;
#X connect 35 0 14 2;
#X connect 35 0 14 3;
#X connect 36 0 37 0;
#X connect 37 0 35 0;
#X connect 38 0 4 1;
#X connect 39 0 27 0;
