#N canvas 642 14 591 537 10;
#X msg 16 17 reset \, create \, 1;
#X obj 14 44 gemwin;
#X obj 106 51 tgl 15 0 empty empty empty 17 7 0 10 -262144 -1 -1 0
1;
#X obj 106 75 metro 800;
#X obj 25 159 separator;
#X obj 175 171 separator;
#X obj 312 172 separator;
#X obj 27 240 alpha;
#X obj 180 248 alpha;
#X obj 315 249 alpha;
#X obj 27 435 translateXYZ;
#X obj 181 443 rotateXYZ;
#X obj 314 451 scaleXYZ;
#X obj 56 318 line;
#X obj 209 335 line;
#X obj 210 274 random 360;
#X obj 347 276 random 2000;
#X obj 349 302 / 1000;
#X obj 349 332 pack 0 1000;
#X obj 349 358 line;
#X obj 57 293 pack 0 1000;
#X obj 208 303 pack 0 1000;
#X floatatom 347 417 5 0 0 0 - - -;
#X msg 376 473 draw line;
#X msg 242 469 draw line;
#X msg 112 460 draw line;
#X floatatom 211 415 5 0 0 0 - - -;
#X floatatom 64 409 5 0 0 0 - - -;
#X obj 56 344 / 1000;
#X obj 60 376 - 2;
#X floatatom 153 48 5 0 0 0 - - -;
#X obj 57 265 random 2000;
#X obj 27 201 color 1 0 0 0.15;
#X obj 313 210 color 1 0 1 0.35;
#X obj 180 209 color 1 1 1 0.25;
#X msg 117 482 width 5;
#X obj 26 505 cube 0.25;
#X obj 312 502 cube 0.85;
#X obj 181 496 cube 0.95;
#X msg 114 439 draw fill;
#X msg 376 450 draw fill;
#X msg 245 446 draw fill;
#X obj 261 84 hsl 128 15 0 10 0 0 empty empty empty -2 -8 0 10 -262144
-1 -1 12700 1;
#X msg 205 99 set \$1;
#X obj 26 116 gemhead;
#X floatatom 296 120 5 0 0 0 - - -;
#X connect 0 0 1 0;
#X connect 2 0 3 0;
#X connect 3 0 15 0;
#X connect 3 0 16 0;
#X connect 3 0 31 0;
#X connect 4 0 32 0;
#X connect 5 0 34 0;
#X connect 6 0 33 0;
#X connect 7 0 10 0;
#X connect 8 0 11 0;
#X connect 9 0 12 0;
#X connect 10 0 36 0;
#X connect 11 0 38 0;
#X connect 12 0 37 0;
#X connect 13 0 28 0;
#X connect 14 0 26 0;
#X connect 15 0 21 0;
#X connect 16 0 17 0;
#X connect 17 0 18 0;
#X connect 18 0 19 0;
#X connect 19 0 22 0;
#X connect 20 0 13 0;
#X connect 21 0 14 0;
#X connect 22 0 12 1;
#X connect 22 0 12 2;
#X connect 22 0 12 3;
#X connect 23 0 37 0;
#X connect 24 0 38 0;
#X connect 25 0 36 0;
#X connect 26 0 11 1;
#X connect 26 0 11 2;
#X connect 26 0 11 3;
#X connect 27 0 10 1;
#X connect 27 0 10 2;
#X connect 27 0 10 3;
#X connect 28 0 29 0;
#X connect 29 0 27 0;
#X connect 30 0 3 1;
#X connect 31 0 20 0;
#X connect 32 0 7 0;
#X connect 33 0 9 0;
#X connect 34 0 8 0;
#X connect 35 0 36 0;
#X connect 39 0 36 0;
#X connect 40 0 37 0;
#X connect 41 0 38 0;
#X connect 42 0 43 0;
#X connect 43 0 44 0;
#X connect 43 0 45 0;
#X connect 44 0 4 0;
#X connect 44 0 5 0;
#X connect 44 0 6 0;
