#N canvas 590 221 497 220 10;
#X floatatom 60 27 5 0 0 0 - - -;
#X obj 33 122 metro;
#X obj 5 28 bng 15 250 50 0 empty empty empty 17 7 0 10 -262144 -1
-1;
#X obj 60 97 expr 60000 / $f1;
#X obj 60 67 120 / $f1;
#X text 59 9 BPM Input;
#X obj 24 28 tgl 15 0 empty empty empty 17 7 0 10 -262144 -1 -1 0 1
;
#X text 70 117 Beat Interval (ms);
#X obj 33 158 outlet;
#X text 3 10 On/Off;
#X obj 60 -23 inlet;
#X obj 24 -23 inlet;
#X connect 0 0 4 0;
#X connect 1 0 2 0;
#X connect 1 0 8 0;
#X connect 3 0 1 1;
#X connect 4 0 3 0;
#X connect 6 0 1 0;
#X connect 10 0 0 0;
#X connect 11 0 6 0;
#X coords 0 -1 1 1 120 50 1 1 1;
