#N canvas 565 280 298 289 10;
#X obj 25 26 inlet;
#X obj 25 74 phasor~;
#X obj 54 100 osc~;
#X obj 90 29 knob 30 30 0 200 0 0 empty empty empty 0 -8 0 8 -262144
-1 -1 0 1;
#X obj 134 27 knob 30 30 100 300 0 0 empty empty empty 0 -8 0 8 -262144
-1 -1 0 1;
#X obj 87 110 triangle~;
#X obj 26 125 *~;
#X obj 26 179 +~;
#X obj 178 28 knob 30 30 0 400 0 0 empty empty empty 0 -8 0 8 -262144
-1 -1 0 1;
#X obj 25 237 outlet~;
#X obj 26 208 lop~;
#X connect 0 0 1 0;
#X connect 1 0 6 0;
#X connect 2 0 6 1;
#X connect 3 0 2 0;
#X connect 4 0 5 0;
#X connect 5 0 7 1;
#X connect 6 0 7 0;
#X connect 7 0 10 0;
#X connect 8 0 10 1;
#X connect 10 0 9 0;
#X coords 0 -1 1 1 150 60 1 60 10;
