#N canvas 283 320 450 300 10;
#X obj 43 24 knob 30 30 0 300 0 0 empty empty empty 0 -8 0 8 -262144
-1 -1 1700 1;
#X obj 81 24 knob 30 30 0 300 0 0 empty empty empty 0 -8 0 8 -262144
-1 -1 1300 1;
#X obj 119 25 knob 30 30 0 300 0 0 empty empty empty 0 -8 0 8 -262144
-1 -1 1900 1;
#X obj 156 24 knob 30 30 0 300 0 0 empty empty empty 0 -8 0 8 -262144
-1 -1 2900 1;
#X obj 217 28 inlet;
#X obj 218 51 bng 15 250 50 0 empty empty empty 17 7 0 10 -262144 -1
-1;
#X obj 256 28 inlet;
#X obj 257 51 bng 15 250 50 0 empty empty empty 17 7 0 10 -262144 -1
-1;
#X obj 295 27 inlet;
#X obj 296 50 bng 15 250 50 0 empty empty empty 17 7 0 10 -262144 -1
-1;
#X obj 334 27 inlet;
#X obj 335 50 bng 15 250 50 0 empty empty empty 17 7 0 10 -262144 -1
-1;
#X obj 218 124 osc~;
#X obj 218 158 cos~;
#X obj 257 157 phasor~;
#X obj 219 253 outlet~;
#X obj 308 156 tri_wave;
#X obj 367 157 phasor~;
#X obj 218 90 \$1;
#X obj 257 90 \$1;
#X obj 294 90 \$1;
#X obj 332 90 \$1;
#X obj 309 205 +~;
#X obj 218 188 +~;
#X obj 218 221 +~;
#X connect 0 0 18 0;
#X connect 1 0 19 0;
#X connect 2 0 20 0;
#X connect 3 0 21 0;
#X connect 4 0 5 0;
#X connect 5 0 18 0;
#X connect 6 0 7 0;
#X connect 7 0 19 0;
#X connect 8 0 9 0;
#X connect 9 0 20 0;
#X connect 10 0 11 0;
#X connect 11 0 21 0;
#X connect 12 0 13 0;
#X connect 13 0 23 0;
#X connect 14 0 23 1;
#X connect 16 0 22 0;
#X connect 17 0 22 1;
#X connect 18 0 12 0;
#X connect 19 0 14 0;
#X connect 20 0 16 0;
#X connect 21 0 17 0;
#X connect 22 0 24 1;
#X connect 23 0 24 0;
#X connect 24 0 15 0;
#X coords 0 -1 1 1 180 60 1 10 2;
