#N canvas -8 -8 1280 718 10;
#X obj 17 101 s s1;
#X obj 47 101 s s1;
#X obj 77 101 s s1;
#X obj 107 102 s s1;
#X obj 137 102 s s1;
#X obj 168 102 s s1;
#X obj 199 102 s s1;
#X obj 230 102 s s1;
#X obj 509 -48 r s1;
#X obj 17 221 s s2;
#X obj 47 221 s s2;
#X obj 77 221 s s2;
#X obj 107 222 s s2;
#X obj 137 222 s s2;
#X obj 168 222 s s2;
#X obj 199 222 s s2;
#X obj 230 222 s s2;
#X obj 17 341 s s3;
#X obj 47 341 s s3;
#X obj 77 341 s s3;
#X obj 107 341 s s3;
#X obj 137 341 s s3;
#X obj 168 341 s s3;
#X obj 199 341 s s3;
#X obj 230 340 s s3;
#X obj 15 459 s s4;
#X obj 45 459 s s4;
#X obj 75 459 s s4;
#X obj 105 460 s s4;
#X obj 135 460 s s4;
#X obj 166 460 s s4;
#X obj 197 460 s s4;
#X obj 228 459 s s4;
#X obj 17 2 seqSetIII;
#X obj 17 120 seqSetIII;
#X obj 17 240 seqSetIII;
#X obj 15 359 seqSetIII;
#X obj 9 -47 hradio 15 1 0 2 empty empty empty 0 -8 0 10 -262144 -1
-1 0;
#N canvas 569 284 266 81 sndONOFF 0;
#X text 28 6 OFF;
#X text 103 5 ON;
#X obj 22 -73 inlet;
#X obj 22 -39 sel 0 1;
#X msg 22 23 \; pd dsp 0;
#X msg 97 22 \; pd dsp 1;
#X connect 2 0 3 0;
#X connect 3 0 4 0;
#X connect 3 1 5 0;
#X restore 9 -31 pd sndONOFF;
#X text 27 -63 On;
#X text 6 -63 Off;
#X obj 88 -47 hradio 15 1 0 2 empty empty empty 0 -8 0 10 -262144 -1
-1 0;
#N canvas 192 291 450 300 setGEM 0;
#X obj 116 30 inlet load;
#X obj 194 94 gemwin;
#X obj 28 30 inlet set/del;
#X obj 194 129 outlet;
#X msg 194 55 dimen 400 300;
#X obj 194 31 r lb;
#X obj 196 155 loadbang;
#X obj 196 180 s lb;
#X obj 28 60 sel 0 1;
#X msg 67 84 create;
#X msg 65 109 destroy;
#X connect 0 0 1 0;
#X connect 1 0 3 0;
#X connect 2 0 8 0;
#X connect 4 0 1 0;
#X connect 5 0 4 0;
#X connect 6 0 7 0;
#X connect 8 0 10 0;
#X connect 8 1 9 0;
#X connect 9 0 1 0;
#X connect 10 0 1 0;
#X restore 88 -31 pd setGEM;
#X obj 139 -47 tgl 15 0 empty empty empty 17 7 0 10 -262144 -1 -1 0
1;
#X text 85 -63 GEM SET;
#X obj 509 -31 circuitA;
#X obj 520 496 dac~;
#X obj 677 -30 circuitB;
#X obj 266 2 seqSetIII;
#X obj 266 120 seqSetIII;
#X obj 266 240 seqSetIII;
#X obj 264 359 seqSetIII;
#X obj 266 101 s s5;
#X obj 266 220 s s6;
#X obj 266 341 s s7;
#X obj 264 459 s s8;
#X obj 294 459 s s8;
#X obj 324 459 s s8;
#X obj 354 460 s s8;
#X obj 384 460 s s8;
#X obj 415 460 s s8;
#X obj 446 460 s s8;
#X obj 477 459 s s8;
#X obj 296 341 s s7;
#X obj 326 341 s s7;
#X obj 356 341 s s7;
#X obj 386 341 s s7;
#X obj 417 341 s s7;
#X obj 448 341 s s7;
#X obj 479 340 s s7;
#X obj 479 222 s s6;
#X obj 448 222 s s6;
#X obj 417 222 s s6;
#X obj 386 222 s s6;
#X obj 356 222 s s6;
#X obj 326 221 s s6;
#X obj 296 221 s s6;
#X obj 479 102 s s5;
#X obj 448 102 s s5;
#X obj 417 102 s s5;
#X obj 386 102 s s5;
#X obj 356 102 s s5;
#X obj 326 101 s s5;
#X obj 296 101 s s5;
#X obj 532 331 snareS;
#X obj 532 309 r s5;
#X obj 547 377 snareS;
#X obj 547 352 r s2;
#X obj 519 450 *~;
#X obj 554 433 knob 32 32 0 1 0 0 empty empty empty 0 -8 0 8 -262144
-1 -1 3100 1;
#X obj 690 308 circuitC;
#X obj 691 290 r s3;
#X msg 725 290 240;
#X obj 644 124 r s1;
#X obj 517 284 +~;
#X obj 517 116 +~;
#X obj 717 451 +~;
#X obj 820 141 circuitD;
#X obj 634 200 *~;
#X obj 634 141 circuitD;
#X obj 662 224 circuitD;
#X obj 852 309 circuitC;
#X obj 853 291 r s4;
#X msg 887 291 80;
#X obj 517 361 *~;
#X obj 518 393 +~;
#X obj 519 421 *~;
#X obj 691 368 +~;
#X obj 716 390 circuitC;
#X msg 751 372 240;
#X obj 878 391 circuitC;
#X msg 913 373 80;
#X obj 717 372 r s1;
#X obj 879 373 r s2;
#X obj 691 405 *~;
#X obj 694 124 r s1;
#X obj 737 124 r s1;
#X obj 776 124 r s1;
#X obj 830 124 r s2;
#X obj 880 124 r s2;
#X obj 922 124 r s2;
#X obj 962 124 r s2;
#X obj 559 -48 r s1;
#X obj 602 -48 r s1;
#X obj 641 -49 r s1;
#X obj 677 -48 r s3;
#X obj 727 -48 r s3;
#X obj 770 -48 r s3;
#X obj 809 -48 r s3;
#X obj 844 -31 circuitA;
#X obj 1012 -30 circuitB;
#X obj 844 -47 r s5;
#X obj 894 -48 r s5;
#X obj 937 -48 r s5;
#X obj 976 -49 r s5;
#X obj 1012 -48 r s7;
#X obj 1062 -48 r s7;
#X obj 1105 -48 r s7;
#X obj 1144 -48 r s7;
#X obj 662 206 r s3;
#X obj 712 206 r s3;
#X obj 755 206 r s3;
#X obj 794 206 r s3;
#X obj 647 100 +~;
#X obj 983 100 +~;
#X obj 848 224 circuitD;
#X obj 848 206 r s4;
#X obj 898 206 r s4;
#X obj 941 206 r s4;
#X obj 980 206 r s4;
#X obj 662 283 *~;
#X obj 633 235 +~;
#X obj 634 405 +~;
#X obj 517 218 +~;
#X obj 533 263 snareS;
#X obj 533 239 r s7;
#X connect 8 0 45 0;
#X connect 33 0 0 0;
#X connect 33 1 1 0;
#X connect 33 2 2 0;
#X connect 33 3 3 0;
#X connect 33 4 4 0;
#X connect 33 5 5 0;
#X connect 33 6 6 0;
#X connect 33 7 7 0;
#X connect 34 0 9 0;
#X connect 34 1 10 0;
#X connect 34 2 11 0;
#X connect 34 3 12 0;
#X connect 34 4 13 0;
#X connect 34 5 14 0;
#X connect 34 6 15 0;
#X connect 34 7 16 0;
#X connect 35 0 17 0;
#X connect 35 1 18 0;
#X connect 35 2 19 0;
#X connect 35 3 20 0;
#X connect 35 4 21 0;
#X connect 35 5 22 0;
#X connect 35 6 23 0;
#X connect 35 7 24 0;
#X connect 36 0 25 0;
#X connect 36 1 26 0;
#X connect 36 2 27 0;
#X connect 36 3 28 0;
#X connect 36 4 29 0;
#X connect 36 5 30 0;
#X connect 36 6 31 0;
#X connect 36 7 32 0;
#X connect 37 0 38 0;
#X connect 41 0 42 0;
#X connect 43 0 42 1;
#X connect 45 0 143 0;
#X connect 47 0 143 1;
#X connect 48 0 52 0;
#X connect 48 1 83 0;
#X connect 48 2 82 0;
#X connect 48 3 81 0;
#X connect 48 4 80 0;
#X connect 48 5 79 0;
#X connect 48 6 78 0;
#X connect 48 7 77 0;
#X connect 49 0 53 0;
#X connect 49 1 76 0;
#X connect 49 2 75 0;
#X connect 49 3 74 0;
#X connect 49 4 73 0;
#X connect 49 5 72 0;
#X connect 49 6 71 0;
#X connect 49 7 70 0;
#X connect 50 0 54 0;
#X connect 50 1 63 0;
#X connect 50 2 64 0;
#X connect 50 3 65 0;
#X connect 50 4 66 0;
#X connect 50 5 67 0;
#X connect 50 6 68 0;
#X connect 50 7 69 0;
#X connect 51 0 55 0;
#X connect 51 1 56 0;
#X connect 51 2 57 0;
#X connect 51 3 58 0;
#X connect 51 4 59 0;
#X connect 51 5 60 0;
#X connect 51 6 61 0;
#X connect 51 7 62 0;
#X connect 84 0 104 1;
#X connect 85 0 84 0;
#X connect 86 0 105 1;
#X connect 87 0 86 0;
#X connect 88 0 46 0;
#X connect 88 0 46 1;
#X connect 89 0 88 1;
#X connect 90 0 107 0;
#X connect 91 0 92 0;
#X connect 92 0 90 0;
#X connect 93 0 99 0;
#X connect 94 0 104 0;
#X connect 95 0 153 0;
#X connect 96 0 114 1;
#X connect 97 0 98 1;
#X connect 98 0 153 1;
#X connect 99 0 98 0;
#X connect 100 0 150 0;
#X connect 101 0 107 1;
#X connect 102 0 103 0;
#X connect 103 0 101 0;
#X connect 104 0 105 0;
#X connect 105 0 106 0;
#X connect 106 0 88 0;
#X connect 107 0 114 0;
#X connect 108 0 96 0;
#X connect 109 0 108 0;
#X connect 110 0 96 1;
#X connect 111 0 110 0;
#X connect 112 0 109 0;
#X connect 113 0 111 0;
#X connect 114 0 152 1;
#X connect 115 0 99 1;
#X connect 116 0 99 2;
#X connect 117 0 99 3;
#X connect 118 0 97 0;
#X connect 119 0 97 1;
#X connect 120 0 97 2;
#X connect 121 0 97 3;
#X connect 122 0 45 1;
#X connect 123 0 45 2;
#X connect 124 0 45 3;
#X connect 125 0 47 0;
#X connect 126 0 47 1;
#X connect 127 0 47 2;
#X connect 128 0 47 3;
#X connect 129 0 144 0;
#X connect 130 0 144 1;
#X connect 131 0 129 0;
#X connect 132 0 129 1;
#X connect 133 0 129 2;
#X connect 134 0 129 3;
#X connect 135 0 130 0;
#X connect 136 0 130 1;
#X connect 137 0 130 2;
#X connect 138 0 130 3;
#X connect 139 0 100 0;
#X connect 140 0 100 1;
#X connect 141 0 100 2;
#X connect 142 0 100 3;
#X connect 143 0 95 0;
#X connect 144 0 95 1;
#X connect 145 0 150 1;
#X connect 146 0 145 0;
#X connect 147 0 145 1;
#X connect 148 0 145 2;
#X connect 149 0 145 3;
#X connect 150 0 151 1;
#X connect 151 0 152 0;
#X connect 152 0 106 1;
#X connect 153 0 151 0;
#X connect 153 0 94 0;
#X connect 154 0 94 1;
#X connect 155 0 154 0;
