#N canvas 624 246 543 333 10;
#X obj 42 18 seqSetII;
#X obj 42 79 s s1;
#X obj 72 79 s s1;
#X obj 102 79 s s1;
#X obj 132 80 s s1;
#X obj 162 80 s s1;
#X obj 193 80 s s1;
#X obj 224 80 s s1;
#X obj 255 80 s s1;
#X obj 410 15 r s1;
#X obj 410 48 bng 15 250 50 0 empty empty empty 17 7 0 10 -262144 -1
-1;
#X obj 42 103 seqSetII;
#X obj 42 164 s s2;
#X obj 72 164 s s2;
#X obj 102 164 s s2;
#X obj 132 165 s s2;
#X obj 162 165 s s2;
#X obj 193 165 s s2;
#X obj 224 165 s s2;
#X obj 255 165 s s2;
#X obj 409 149 bng 15 250 50 0 empty empty empty 17 7 0 10 -262144
-1 -1;
#X obj 409 116 r s2;
#X obj 42 187 seqSetII;
#X obj 410 217 bng 15 250 50 0 empty empty empty 17 7 0 10 -262144
-1 -1;
#X obj 42 272 seqSetII;
#X obj 409 318 bng 15 250 50 0 empty empty empty 17 7 0 10 -262144
-1 -1;
#X obj 42 248 s s3;
#X obj 72 248 s s3;
#X obj 102 248 s s3;
#X obj 132 249 s s3;
#X obj 162 249 s s3;
#X obj 193 249 s s3;
#X obj 224 249 s s3;
#X obj 255 249 s s3;
#X obj 410 184 r s3;
#X obj 409 285 r s4;
#X obj 42 333 s s4;
#X obj 72 333 s s4;
#X obj 102 333 s s4;
#X obj 132 334 s s4;
#X obj 162 334 s s4;
#X obj 193 334 s s4;
#X obj 224 334 s s4;
#X obj 255 334 s s4;
#X connect 0 0 1 0;
#X connect 0 1 2 0;
#X connect 0 2 3 0;
#X connect 0 3 4 0;
#X connect 0 4 5 0;
#X connect 0 5 6 0;
#X connect 0 6 7 0;
#X connect 0 7 8 0;
#X connect 9 0 10 0;
#X connect 11 0 12 0;
#X connect 11 1 13 0;
#X connect 11 2 14 0;
#X connect 11 3 15 0;
#X connect 11 4 16 0;
#X connect 11 5 17 0;
#X connect 11 6 18 0;
#X connect 11 7 19 0;
#X connect 21 0 20 0;
#X connect 22 0 26 0;
#X connect 22 1 27 0;
#X connect 22 2 28 0;
#X connect 22 3 29 0;
#X connect 22 4 30 0;
#X connect 22 5 31 0;
#X connect 22 6 32 0;
#X connect 22 7 33 0;
#X connect 24 0 36 0;
#X connect 24 1 37 0;
#X connect 24 2 38 0;
#X connect 24 3 39 0;
#X connect 24 4 40 0;
#X connect 24 5 41 0;
#X connect 24 6 42 0;
#X connect 24 7 43 0;
#X connect 34 0 23 0;
#X connect 35 0 25 0;
