#N canvas 568 171 661 522 10;
#X obj 124 44 s s1;
#X obj 154 44 s s1;
#X obj 184 44 s s1;
#X obj 214 45 s s1;
#X obj 244 45 s s1;
#X obj 275 45 s s1;
#X obj 306 45 s s1;
#X obj 337 45 s s1;
#X obj 340 -53 r s1;
#X obj 340 -20 bng 15 250 50 0 empty empty empty 17 7 0 10 -262144
-1 -1;
#X obj 124 164 s s2;
#X obj 154 164 s s2;
#X obj 184 164 s s2;
#X obj 214 165 s s2;
#X obj 244 165 s s2;
#X obj 275 165 s s2;
#X obj 306 165 s s2;
#X obj 337 165 s s2;
#X obj 390 -19 bng 15 250 50 0 empty empty empty 17 7 0 10 -262144
-1 -1;
#X obj 390 -52 r s2;
#X obj 442 -22 bng 15 250 50 0 empty empty empty 17 7 0 10 -262144
-1 -1;
#X obj 495 -18 bng 15 250 50 0 empty empty empty 17 7 0 10 -262144
-1 -1;
#X obj 124 284 s s3;
#X obj 154 284 s s3;
#X obj 184 284 s s3;
#X obj 214 284 s s3;
#X obj 244 284 s s3;
#X obj 275 284 s s3;
#X obj 306 284 s s3;
#X obj 337 283 s s3;
#X obj 442 -51 r s3;
#X obj 495 -51 r s4;
#X obj 122 402 s s4;
#X obj 152 402 s s4;
#X obj 182 402 s s4;
#X obj 212 403 s s4;
#X obj 242 403 s s4;
#X obj 273 403 s s4;
#X obj 304 403 s s4;
#X obj 335 402 s s4;
#X obj 124 -55 seqSetIII;
#X obj 124 63 seqSetIII;
#X obj 124 183 seqSetIII;
#X obj 122 302 seqSetIII;
#X obj 14 -44 hradio 15 1 0 2 empty empty empty 0 -8 0 10 -262144 -1
-1 0;
#N canvas 569 284 266 100 sndONOFF 0;
#X text 28 6 OFF;
#X text 103 5 ON;
#X obj 22 -73 inlet;
#X obj 22 -39 sel 0 1;
#X msg 22 23 \; pd dsp 0;
#X msg 97 22 \; pd dsp 1;
#X connect 2 0 3 0;
#X connect 3 0 4 0;
#X connect 3 1 5 0;
#X restore 14 -28 pd sndONOFF;
#X text 32 -60 On;
#X text 11 -60 Off;
#X obj 14 9 hradio 15 1 0 2 empty empty empty 0 -8 0 10 -262144 -1
-1 0;
#N canvas 192 291 450 300 setGEM 0;
#X obj 116 30 inlet load;
#X obj 194 94 gemwin;
#X obj 28 30 inlet set/del;
#X obj 194 129 outlet;
#X msg 194 55 dimen 400 300;
#X obj 194 31 r lb;
#X obj 196 155 loadbang;
#X obj 196 180 s lb;
#X obj 28 60 sel 0 1;
#X msg 67 84 create;
#X msg 65 109 destroy;
#X connect 0 0 1 0;
#X connect 1 0 3 0;
#X connect 2 0 8 0;
#X connect 4 0 1 0;
#X connect 5 0 4 0;
#X connect 6 0 7 0;
#X connect 8 0 10 0;
#X connect 8 1 9 0;
#X connect 9 0 1 0;
#X connect 10 0 1 0;
#X restore 14 25 pd setGEM;
#X obj 65 9 tgl 15 0 empty empty empty 17 7 0 10 -262144 -1 -1 0 1
;
#X text 11 -8 GEM SET;
#X obj 417 395 dac~;
#X msg 465 -21 80;
#X msg 518 -18 100;
#X msg 412 -20 60;
#X msg 362 -20 40;
#X obj 429 8 osc~;
#X obj 415 362 *~;
#X obj 449 362 sig~;
#X obj 447 322 knob 32 32 0 1 0 0 empty empty empty 0 -8 0 8 -262144
-1 -1 0 1;
#X obj 336 67 r s1;
#X obj 336 100 bng 15 250 50 0 empty empty empty 17 7 0 10 -262144
-1 -1;
#X obj 386 101 bng 15 250 50 0 empty empty empty 17 7 0 10 -262144
-1 -1;
#X obj 386 68 r s2;
#X obj 438 98 bng 15 250 50 0 empty empty empty 17 7 0 10 -262144 -1
-1;
#X obj 491 102 bng 15 250 50 0 empty empty empty 17 7 0 10 -262144
-1 -1;
#X obj 438 69 r s3;
#X obj 491 69 r s4;
#X msg 461 99 80;
#X msg 514 102 100;
#X msg 408 100 60;
#X msg 358 100 40;
#X obj 357 141 triangle~;
#X obj 414 173 +~;
#X obj 566 134 sig~;
#X obj 564 94 knob 32 32 0 1 0 0 empty empty empty 0 -8 0 8 -262144
-1 -1 0 1;
#X obj 413 305 +~;
#X obj 330 187 r s1;
#X obj 330 220 bng 15 250 50 0 empty empty empty 17 7 0 10 -262144
-1 -1;
#X obj 380 221 bng 15 250 50 0 empty empty empty 17 7 0 10 -262144
-1 -1;
#X obj 380 188 r s2;
#X obj 432 218 bng 15 250 50 0 empty empty empty 17 7 0 10 -262144
-1 -1;
#X obj 485 222 bng 15 250 50 0 empty empty empty 17 7 0 10 -262144
-1 -1;
#X obj 432 189 r s3;
#X obj 485 189 r s4;
#X msg 455 219 80;
#X msg 508 222 100;
#X msg 402 220 60;
#X msg 352 220 40;
#X obj 558 214 knob 32 32 0 1 0 0 empty empty empty 0 -8 0 8 -262144
-1 -1 500 1;
#X obj 351 261 phasor~;
#X connect 8 0 9 0;
#X connect 9 0 56 0;
#X connect 18 0 55 0;
#X connect 19 0 18 0;
#X connect 20 0 53 0;
#X connect 21 0 54 0;
#X connect 30 0 20 0;
#X connect 31 0 21 0;
#X connect 40 0 0 0;
#X connect 40 1 1 0;
#X connect 40 2 2 0;
#X connect 40 3 3 0;
#X connect 40 4 4 0;
#X connect 40 5 5 0;
#X connect 40 6 6 0;
#X connect 40 7 7 0;
#X connect 41 0 10 0;
#X connect 41 1 11 0;
#X connect 41 2 12 0;
#X connect 41 3 13 0;
#X connect 41 4 14 0;
#X connect 41 5 15 0;
#X connect 41 6 16 0;
#X connect 41 7 17 0;
#X connect 42 0 22 0;
#X connect 42 1 23 0;
#X connect 42 2 24 0;
#X connect 42 3 25 0;
#X connect 42 4 26 0;
#X connect 42 5 27 0;
#X connect 42 6 28 0;
#X connect 42 7 29 0;
#X connect 43 0 32 0;
#X connect 43 1 33 0;
#X connect 43 2 34 0;
#X connect 43 3 35 0;
#X connect 43 4 36 0;
#X connect 43 5 37 0;
#X connect 43 6 38 0;
#X connect 43 7 39 0;
#X connect 44 0 45 0;
#X connect 48 0 49 0;
#X connect 50 0 49 1;
#X connect 53 0 57 0;
#X connect 54 0 57 0;
#X connect 55 0 57 0;
#X connect 56 0 57 0;
#X connect 57 0 74 1;
#X connect 58 0 52 0;
#X connect 58 0 52 1;
#X connect 59 0 58 1;
#X connect 60 0 59 0;
#X connect 61 0 62 0;
#X connect 62 0 72 0;
#X connect 63 0 71 0;
#X connect 64 0 63 0;
#X connect 65 0 69 0;
#X connect 66 0 70 0;
#X connect 67 0 65 0;
#X connect 68 0 66 0;
#X connect 69 0 73 0;
#X connect 70 0 73 0;
#X connect 71 0 73 0;
#X connect 72 0 73 0;
#X connect 73 0 74 0;
#X connect 74 0 77 1;
#X connect 75 0 73 1;
#X connect 76 0 75 0;
#X connect 77 0 58 0;
#X connect 78 0 79 0;
#X connect 79 0 89 0;
#X connect 80 0 88 0;
#X connect 81 0 80 0;
#X connect 82 0 86 0;
#X connect 83 0 87 0;
#X connect 84 0 82 0;
#X connect 85 0 83 0;
#X connect 86 0 91 0;
#X connect 87 0 91 0;
#X connect 88 0 91 0;
#X connect 89 0 91 0;
#X connect 90 0 91 1;
#X connect 91 0 77 0;
