#N canvas 72 53 870 635 10;
#X obj 23 142 s s1;
#X obj 53 142 s s1;
#X obj 83 142 s s1;
#X obj 113 143 s s1;
#X obj 143 143 s s1;
#X obj 174 143 s s1;
#X obj 205 143 s s1;
#X obj 236 143 s s1;
#X obj 23 262 s s2;
#X obj 53 262 s s2;
#X obj 83 262 s s2;
#X obj 113 263 s s2;
#X obj 143 263 s s2;
#X obj 174 263 s s2;
#X obj 205 263 s s2;
#X obj 236 263 s s2;
#X obj 23 382 s s3;
#X obj 53 382 s s3;
#X obj 83 382 s s3;
#X obj 113 382 s s3;
#X obj 143 382 s s3;
#X obj 174 382 s s3;
#X obj 205 382 s s3;
#X obj 236 381 s s3;
#X obj 21 500 s s4;
#X obj 51 500 s s4;
#X obj 81 500 s s4;
#X obj 111 501 s s4;
#X obj 141 501 s s4;
#X obj 172 501 s s4;
#X obj 203 501 s s4;
#X obj 234 500 s s4;
#X obj 23 43 seqSetIII;
#X obj 23 161 seqSetIII;
#X obj 23 281 seqSetIII;
#X obj 21 400 seqSetIII;
#X obj 24 -2 hradio 15 1 0 2 empty empty empty 0 -8 0 10 -262144 -1
-1 0;
#N canvas 569 284 266 81 sndONOFF 0;
#X text 28 6 OFF;
#X text 103 5 ON;
#X obj 22 -73 inlet;
#X obj 22 -39 sel 0 1;
#X msg 22 23 \; pd dsp 0;
#X msg 97 22 \; pd dsp 1;
#X connect 2 0 3 0;
#X connect 3 0 4 0;
#X connect 3 1 5 0;
#X restore 24 14 pd sndONOFF;
#X text 42 -18 On;
#X text 21 -18 Off;
#X obj 103 -2 hradio 15 1 0 2 empty empty empty 0 -8 0 10 -262144 -1
-1 0;
#N canvas 192 291 450 300 setGEM 0;
#X obj 116 30 inlet load;
#X obj 194 94 gemwin;
#X obj 28 30 inlet set/del;
#X obj 194 129 outlet;
#X msg 194 55 dimen 400 300;
#X obj 194 31 r lb;
#X obj 196 155 loadbang;
#X obj 196 180 s lb;
#X obj 28 60 sel 0 1;
#X msg 67 84 create;
#X msg 65 109 destroy;
#X connect 0 0 1 0;
#X connect 1 0 3 0;
#X connect 2 0 8 0;
#X connect 4 0 1 0;
#X connect 5 0 4 0;
#X connect 6 0 7 0;
#X connect 8 0 10 0;
#X connect 8 1 9 0;
#X connect 9 0 1 0;
#X connect 10 0 1 0;
#X restore 103 14 pd setGEM;
#X obj 154 -2 tgl 15 0 empty empty empty 17 7 0 10 -262144 -1 -1 0
1;
#X text 100 -18 GEM SET;
#X obj 302 363 dac~;
#X obj 301 329 *~;
#X obj 360 330 knob 32 32 0 1 0 0 empty empty empty 0 -8 0 8 -262144
-1 -1 0 1;
#X obj 302 -16 r s1;
#X obj 302 1 circuitA;
#X obj 649 151 circuitC;
#X msg 683 133 240;
#X obj 649 133 r s1;
#X obj 626 311 circuitC;
#X msg 660 293 140;
#X obj 626 293 r s2;
#X obj 620 211 *~;
#X obj 617 252 *~;
#X obj 600 -20 r s4;
#X obj 352 -16 r s2;
#X obj 395 -16 r s3;
#X obj 434 -17 r s4;
#X obj 468 -19 r s1;
#X obj 519 -19 r s2;
#X obj 562 -19 r s3;
#X obj 467 6 circuitB;
#X obj 301 147 *~;
#X obj 340 238 shpr_b;
#X obj 300 299 *~;
#X obj 430 377 matrix;
#X obj 430 566 s m1;
#X obj 330 213 saw_alt_wave;
#X obj 423 213 r m1;
#X floatatom 332 186 5 0 0 0 - - -;
#X connect 32 0 0 0;
#X connect 32 1 1 0;
#X connect 32 2 2 0;
#X connect 32 3 3 0;
#X connect 32 4 4 0;
#X connect 32 5 5 0;
#X connect 32 6 6 0;
#X connect 32 7 7 0;
#X connect 33 0 8 0;
#X connect 33 1 9 0;
#X connect 33 2 10 0;
#X connect 33 3 11 0;
#X connect 33 4 12 0;
#X connect 33 5 13 0;
#X connect 33 6 14 0;
#X connect 33 7 15 0;
#X connect 34 0 16 0;
#X connect 34 1 17 0;
#X connect 34 2 18 0;
#X connect 34 3 19 0;
#X connect 34 4 20 0;
#X connect 34 5 21 0;
#X connect 34 6 22 0;
#X connect 34 7 23 0;
#X connect 35 0 24 0;
#X connect 35 1 25 0;
#X connect 35 2 26 0;
#X connect 35 3 27 0;
#X connect 35 4 28 0;
#X connect 35 5 29 0;
#X connect 35 6 30 0;
#X connect 35 7 31 0;
#X connect 36 0 37 0;
#X connect 40 0 41 0;
#X connect 42 0 41 1;
#X connect 45 0 44 0;
#X connect 45 0 44 1;
#X connect 46 0 45 1;
#X connect 47 0 48 0;
#X connect 48 0 65 0;
#X connect 49 0 55 1;
#X connect 50 0 49 0;
#X connect 51 0 50 0;
#X connect 53 0 52 0;
#X connect 54 0 53 0;
#X connect 57 0 64 3;
#X connect 58 0 48 1;
#X connect 59 0 48 2;
#X connect 60 0 48 3;
#X connect 61 0 64 0;
#X connect 62 0 64 1;
#X connect 63 0 64 2;
#X connect 64 0 65 1;
#X connect 65 0 67 0;
#X connect 67 0 45 0;
#X connect 68 0 69 0;
#X connect 70 0 67 1;
#X connect 71 0 70 1;
#X connect 72 0 70 0;
