#N canvas 415 140 733 539 10;
#X obj 174 64 tgl 15 0 empty empty empty 17 7 0 10 -262144 -1 -1 1
1;
#X obj 192 64 tgl 15 0 empty empty empty 17 7 0 10 -262144 -1 -1 1
1;
#X obj 209 64 tgl 15 0 empty empty empty 17 7 0 10 -262144 -1 -1 1
1;
#X obj 227 64 tgl 15 0 empty empty empty 17 7 0 10 -262144 -1 -1 1
1;
#X obj 245 64 tgl 15 0 empty empty empty 17 7 0 10 -262144 -1 -1 1
1;
#X obj 263 64 tgl 15 0 empty empty empty 17 7 0 10 -262144 -1 -1 1
1;
#X obj 281 64 tgl 15 0 empty empty empty 17 7 0 10 -262144 -1 -1 1
1;
#X obj 299 64 tgl 15 0 empty empty empty 17 7 0 10 -262144 -1 -1 1
1;
#X obj 175 84 tgl 15 0 empty empty empty 17 7 0 10 -262144 -1 -1 1
1;
#X obj 193 84 tgl 15 0 empty empty empty 17 7 0 10 -262144 -1 -1 0
1;
#X obj 210 84 tgl 15 0 empty empty empty 17 7 0 10 -262144 -1 -1 1
1;
#X obj 228 84 tgl 15 0 empty empty empty 17 7 0 10 -262144 -1 -1 0
1;
#X obj 246 84 tgl 15 0 empty empty empty 17 7 0 10 -262144 -1 -1 1
1;
#X obj 264 84 tgl 15 0 empty empty empty 17 7 0 10 -262144 -1 -1 0
1;
#X obj 282 84 tgl 15 0 empty empty empty 17 7 0 10 -262144 -1 -1 1
1;
#X obj 300 84 tgl 15 0 empty empty empty 17 7 0 10 -262144 -1 -1 0
1;
#X obj 175 105 tgl 15 0 empty empty empty 17 7 0 10 -262144 -1 -1 1
1;
#X obj 193 105 tgl 15 0 empty empty empty 17 7 0 10 -262144 -1 -1 1
1;
#X obj 210 105 tgl 15 0 empty empty empty 17 7 0 10 -262144 -1 -1 1
1;
#X obj 228 105 tgl 15 0 empty empty empty 17 7 0 10 -262144 -1 -1 1
1;
#X obj 246 105 tgl 15 0 empty empty empty 17 7 0 10 -262144 -1 -1 1
1;
#X obj 264 105 tgl 15 0 empty empty empty 17 7 0 10 -262144 -1 -1 1
1;
#X obj 282 105 tgl 15 0 empty empty empty 17 7 0 10 -262144 -1 -1 1
1;
#X obj 300 105 tgl 15 0 empty empty empty 17 7 0 10 -262144 -1 -1 1
1;
#X obj 175 127 tgl 15 0 empty empty empty 17 7 0 10 -262144 -1 -1 1
1;
#X obj 193 127 tgl 15 0 empty empty empty 17 7 0 10 -262144 -1 -1 0
1;
#X obj 210 127 tgl 15 0 empty empty empty 17 7 0 10 -262144 -1 -1 1
1;
#X obj 228 127 tgl 15 0 empty empty empty 17 7 0 10 -262144 -1 -1 0
1;
#X obj 246 127 tgl 15 0 empty empty empty 17 7 0 10 -262144 -1 -1 1
1;
#X obj 264 127 tgl 15 0 empty empty empty 17 7 0 10 -262144 -1 -1 0
1;
#X obj 282 127 tgl 15 0 empty empty empty 17 7 0 10 -262144 -1 -1 1
1;
#X obj 300 127 tgl 15 0 empty empty empty 17 7 0 10 -262144 -1 -1 0
1;
#X obj 175 148 tgl 15 0 empty empty empty 17 7 0 10 -262144 -1 -1 1
1;
#X obj 193 148 tgl 15 0 empty empty empty 17 7 0 10 -262144 -1 -1 1
1;
#X obj 210 148 tgl 15 0 empty empty empty 17 7 0 10 -262144 -1 -1 1
1;
#X obj 228 148 tgl 15 0 empty empty empty 17 7 0 10 -262144 -1 -1 1
1;
#X obj 246 148 tgl 15 0 empty empty empty 17 7 0 10 -262144 -1 -1 1
1;
#X obj 264 148 tgl 15 0 empty empty empty 17 7 0 10 -262144 -1 -1 1
1;
#X obj 282 148 tgl 15 0 empty empty empty 17 7 0 10 -262144 -1 -1 1
1;
#X obj 300 148 tgl 15 0 empty empty empty 17 7 0 10 -262144 -1 -1 1
1;
#X obj 175 169 tgl 15 0 empty empty empty 17 7 0 10 -262144 -1 -1 1
1;
#X obj 193 169 tgl 15 0 empty empty empty 17 7 0 10 -262144 -1 -1 0
1;
#X obj 210 169 tgl 15 0 empty empty empty 17 7 0 10 -262144 -1 -1 1
1;
#X obj 228 169 tgl 15 0 empty empty empty 17 7 0 10 -262144 -1 -1 0
1;
#X obj 246 169 tgl 15 0 empty empty empty 17 7 0 10 -262144 -1 -1 1
1;
#X obj 264 169 tgl 15 0 empty empty empty 17 7 0 10 -262144 -1 -1 0
1;
#X obj 282 169 tgl 15 0 empty empty empty 17 7 0 10 -262144 -1 -1 1
1;
#X obj 300 169 tgl 15 0 empty empty empty 17 7 0 10 -262144 -1 -1 0
1;
#X obj 195 9 bpm_sync;
#X obj 55 58 f;
#X obj 84 58 + 1;
#X text 152 166 48;
#X obj 109 58 % 48;
#X obj -13 267 spigot;
#X obj 31 268 spigot;
#X obj 76 268 spigot;
#X obj 120 269 spigot;
#X obj 165 268 spigot;
#X obj 209 269 spigot;
#X obj 254 269 spigot;
#X obj 298 269 spigot;
#X obj 59 314 spigot;
#X obj 103 314 spigot;
#X obj 148 315 spigot;
#X obj 192 316 spigot;
#X obj 237 315 spigot;
#X obj 281 316 spigot;
#X obj 326 316 spigot;
#X obj 370 316 spigot;
#X obj 126 354 spigot;
#X obj 170 355 spigot;
#X obj 215 355 spigot;
#X obj 259 356 spigot;
#X obj 304 355 spigot;
#X obj 348 356 spigot;
#X obj 393 356 spigot;
#X obj 437 356 spigot;
#X obj 183 394 spigot;
#X obj 227 395 spigot;
#X obj 272 395 spigot;
#X obj 316 396 spigot;
#X obj 361 395 spigot;
#X obj 405 396 spigot;
#X obj 450 396 spigot;
#X obj 494 396 spigot;
#X obj 244 435 spigot;
#X obj 288 436 spigot;
#X obj 333 436 spigot;
#X obj 377 437 spigot;
#X obj 422 436 spigot;
#X obj 466 437 spigot;
#X obj 511 437 spigot;
#X obj 555 437 spigot;
#X obj 293 478 spigot;
#X obj 337 479 spigot;
#X obj 382 479 spigot;
#X obj 426 480 spigot;
#X obj 471 479 spigot;
#X obj 515 480 spigot;
#X obj 560 480 spigot;
#X obj 604 480 spigot;
#X obj 111 192 select 0 1 2 3 4 5 6 7 8 9 10 11 12 13 14 15 16 17 18
19 20 21 22 23 24 25 26 27 28 29 30 31 32 33 34 35 36 37 38 39 40 41
42 43 44 45 46 47;
#X obj -13 288 s nt1;
#X obj 31 288 s nt1;
#X obj 74 290 s nt1;
#X obj 121 290 s nt1;
#X obj 164 291 s nt1;
#X obj 208 290 s nt1;
#X obj 253 291 s nt1;
#X obj 295 291 s nt1;
#X obj 59 333 s nt1;
#X obj 103 333 s nt1;
#X obj 146 335 s nt1;
#X obj 193 335 s nt1;
#X obj 236 336 s nt1;
#X obj 280 335 s nt1;
#X obj 325 336 s nt1;
#X obj 367 336 s nt1;
#X obj 423 98 r nt1;
#X obj 424 123 bng 15 250 50 0 empty empty empty 17 7 0 10 -262144
-1 -1;
#X obj 424 163 outlet;
#X obj 126 374 s nt1;
#X obj 170 374 s nt1;
#X obj 213 375 s nt1;
#X obj 260 375 s nt1;
#X obj 303 376 s nt1;
#X obj 347 375 s nt1;
#X obj 392 376 s nt1;
#X obj 434 376 s nt1;
#X obj 183 414 s nt1;
#X obj 227 414 s nt1;
#X obj 270 415 s nt1;
#X obj 317 415 s nt1;
#X obj 360 416 s nt1;
#X obj 404 415 s nt1;
#X obj 449 416 s nt1;
#X obj 491 416 s nt1;
#X obj 244 455 s nt1;
#X obj 288 455 s nt1;
#X obj 331 457 s nt1;
#X obj 378 457 s nt1;
#X obj 421 458 s nt1;
#X obj 465 457 s nt1;
#X obj 510 458 s nt1;
#X obj 552 458 s nt1;
#X obj 294 501 s nt1;
#X obj 338 501 s nt1;
#X obj 381 503 s nt1;
#X obj 428 503 s nt1;
#X obj 471 504 s nt1;
#X obj 515 503 s nt1;
#X obj 560 504 s nt1;
#X obj 602 504 s nt1;
#X connect 0 0 53 1;
#X connect 1 0 54 1;
#X connect 2 0 55 1;
#X connect 3 0 56 1;
#X connect 4 0 57 1;
#X connect 5 0 58 1;
#X connect 6 0 59 1;
#X connect 7 0 60 1;
#X connect 8 0 61 1;
#X connect 9 0 62 1;
#X connect 10 0 63 1;
#X connect 11 0 64 1;
#X connect 12 0 65 1;
#X connect 13 0 66 1;
#X connect 14 0 67 1;
#X connect 15 0 68 1;
#X connect 16 0 69 1;
#X connect 17 0 70 1;
#X connect 18 0 71 1;
#X connect 19 0 72 1;
#X connect 20 0 73 1;
#X connect 21 0 74 1;
#X connect 22 0 75 1;
#X connect 23 0 76 1;
#X connect 24 0 77 1;
#X connect 25 0 78 1;
#X connect 26 0 79 1;
#X connect 27 0 80 1;
#X connect 28 0 81 1;
#X connect 29 0 82 1;
#X connect 30 0 83 1;
#X connect 31 0 84 1;
#X connect 32 0 85 1;
#X connect 33 0 86 1;
#X connect 34 0 87 1;
#X connect 35 0 88 1;
#X connect 36 0 89 1;
#X connect 37 0 90 1;
#X connect 38 0 91 1;
#X connect 39 0 92 1;
#X connect 40 0 93 1;
#X connect 41 0 94 1;
#X connect 42 0 95 1;
#X connect 43 0 96 1;
#X connect 44 0 97 1;
#X connect 45 0 98 1;
#X connect 46 0 99 1;
#X connect 47 0 100 1;
#X connect 48 0 49 0;
#X connect 49 0 50 0;
#X connect 50 0 49 1;
#X connect 50 0 52 0;
#X connect 52 0 101 0;
#X connect 53 0 102 0;
#X connect 54 0 103 0;
#X connect 55 0 104 0;
#X connect 56 0 105 0;
#X connect 57 0 106 0;
#X connect 58 0 107 0;
#X connect 59 0 108 0;
#X connect 60 0 109 0;
#X connect 61 0 110 0;
#X connect 62 0 111 0;
#X connect 63 0 112 0;
#X connect 64 0 113 0;
#X connect 65 0 114 0;
#X connect 66 0 115 0;
#X connect 67 0 116 0;
#X connect 68 0 117 0;
#X connect 69 0 121 0;
#X connect 70 0 122 0;
#X connect 71 0 123 0;
#X connect 72 0 124 0;
#X connect 73 0 125 0;
#X connect 74 0 126 0;
#X connect 75 0 127 0;
#X connect 76 0 128 0;
#X connect 77 0 129 0;
#X connect 78 0 130 0;
#X connect 79 0 131 0;
#X connect 80 0 132 0;
#X connect 81 0 133 0;
#X connect 82 0 134 0;
#X connect 83 0 135 0;
#X connect 84 0 136 0;
#X connect 85 0 137 0;
#X connect 86 0 138 0;
#X connect 87 0 139 0;
#X connect 88 0 140 0;
#X connect 89 0 141 0;
#X connect 90 0 142 0;
#X connect 91 0 143 0;
#X connect 92 0 144 0;
#X connect 93 0 145 0;
#X connect 94 0 146 0;
#X connect 95 0 147 0;
#X connect 96 0 148 0;
#X connect 97 0 149 0;
#X connect 98 0 150 0;
#X connect 99 0 151 0;
#X connect 100 0 152 0;
#X connect 101 0 53 0;
#X connect 101 1 54 0;
#X connect 101 2 55 0;
#X connect 101 3 56 0;
#X connect 101 4 57 0;
#X connect 101 5 58 0;
#X connect 101 6 59 0;
#X connect 101 7 60 0;
#X connect 101 8 61 0;
#X connect 101 9 62 0;
#X connect 101 10 63 0;
#X connect 101 11 64 0;
#X connect 101 12 65 0;
#X connect 101 13 66 0;
#X connect 101 14 67 0;
#X connect 101 15 68 0;
#X connect 101 16 69 0;
#X connect 101 17 70 0;
#X connect 101 18 71 0;
#X connect 101 19 72 0;
#X connect 101 20 73 0;
#X connect 101 21 74 0;
#X connect 101 22 75 0;
#X connect 101 23 76 0;
#X connect 101 24 77 0;
#X connect 101 25 78 0;
#X connect 101 26 79 0;
#X connect 101 27 80 0;
#X connect 101 28 81 0;
#X connect 101 29 82 0;
#X connect 101 30 83 0;
#X connect 101 31 84 0;
#X connect 101 32 85 0;
#X connect 101 33 86 0;
#X connect 101 34 87 0;
#X connect 101 35 88 0;
#X connect 101 36 89 0;
#X connect 101 37 90 0;
#X connect 101 38 91 0;
#X connect 101 39 92 0;
#X connect 101 40 93 0;
#X connect 101 41 94 0;
#X connect 101 42 95 0;
#X connect 101 43 96 0;
#X connect 101 44 97 0;
#X connect 101 45 98 0;
#X connect 101 46 99 0;
#X connect 101 47 100 0;
#X connect 118 0 119 0;
#X connect 119 0 120 0;
#X coords 0 -1 1 1 180 180 1 140 6;
