#N canvas 89 110 525 369 10;
#X obj 260 11 matrix;
#X obj 27 305 dac~;
#X obj 26 271 *~;
#X obj 60 251 knob 32 32 0 1 0 0 empty empty empty 0 -8 0 8 -262144
-1 -1 2500 1;
#X obj 27 107 saw_alt_wave;
#X obj 96 58 r m2;
#X obj 230 175 s m2;
#X obj 20 21 hradio 15 1 0 2 empty empty empty 0 -8 0 10 -262144 -1
-1 1;
#N canvas 569 284 266 81 sndONOFF 0;
#X text 28 6 OFF;
#X text 103 5 ON;
#X obj 22 -73 inlet;
#X obj 22 -39 sel 0 1;
#X msg 22 23 \; pd dsp 0;
#X msg 97 22 \; pd dsp 1;
#X connect 2 0 3 0;
#X connect 3 0 4 0;
#X connect 3 1 5 0;
#X restore 20 37 pd sndONOFF;
#X text 38 5 On;
#X text 17 5 Off;
#X obj 99 21 hradio 15 1 0 2 empty empty empty 0 -8 0 10 -262144 -1
-1 0;
#N canvas 192 291 450 300 setGEM 0;
#X obj 116 30 inlet load;
#X obj 194 94 gemwin;
#X obj 28 30 inlet set/del;
#X obj 194 129 outlet;
#X msg 194 55 dimen 400 300;
#X obj 194 31 r lb;
#X obj 196 155 loadbang;
#X obj 196 180 s lb;
#X obj 28 60 sel 0 1;
#X msg 67 84 create;
#X msg 65 109 destroy;
#X connect 0 0 1 0;
#X connect 1 0 3 0;
#X connect 2 0 8 0;
#X connect 4 0 1 0;
#X connect 5 0 4 0;
#X connect 6 0 7 0;
#X connect 8 0 10 0;
#X connect 8 1 9 0;
#X connect 9 0 1 0;
#X connect 10 0 1 0;
#X restore 99 37 pd setGEM;
#X obj 150 21 tgl 15 0 empty empty empty 17 7 0 10 -262144 -1 -1 0
1;
#X text 96 5 GEM SET;
#X msg 27 75 110;
#X obj 71 128 tri_waveII;
#X obj 26 189 *~;
#X obj 26 158 *~ 0.2;
#X obj 152 111 tri_waveIII;
#X obj 136 144 *~;
#X obj 135 173 *~ 0.2;
#X obj 231 194 kd808A;
#X obj 27 228 +~;
#X obj 175 212 *~ 0.9;
#X obj 367 195 kd808A;
#X obj 241 300 +~;
#X connect 0 0 6 0;
#X connect 2 0 1 0;
#X connect 2 0 1 1;
#X connect 3 0 2 1;
#X connect 4 0 18 0;
#X connect 5 0 16 1;
#X connect 5 0 15 0;
#X connect 5 0 4 1;
#X connect 5 0 19 1;
#X connect 7 0 8 0;
#X connect 11 0 12 0;
#X connect 13 0 12 1;
#X connect 15 0 16 0;
#X connect 15 0 4 0;
#X connect 15 0 19 0;
#X connect 16 0 20 0;
#X connect 17 0 23 0;
#X connect 18 0 17 0;
#X connect 19 0 20 1;
#X connect 20 0 21 0;
#X connect 21 0 17 1;
#X connect 22 0 26 0;
#X connect 23 0 2 0;
#X connect 24 0 23 1;
#X connect 25 0 26 1;
#X connect 26 0 24 0;
