#N canvas 389 145 317 385 10;
#X obj 117 112 inlet;
#N canvas 0 0 450 300 (subpatch) 0;
#X array melo2 16 float 3;
#A 0 -0.0250008 0.175 0.500001 -0.125001 -0.375002 0.15 -0.0250008
-0.350002 -0.175001 0.225 0.0249994 -0.400002 0.25 -6.55651e-007 0.0249994
0.450001;
#X coords 0 1 16 -1 140 80 1 0 0;
#X restore 59 25 graph;
#X obj 204 54 knob 30 30 100 300 0 0 empty empty empty 0 -8 0 8 -262144
-1 -1 1300 1;
#X floatatom 204 88 5 0 0 0 - - -;
#X obj 246 53 knob 30 30 0 0.5 0 0 empty empty empty 0 -8 0 8 -262144
-1 -1 0 1;
#X floatatom 246 88 5 0 0 0 - - -;
#X obj 159 129 metro 210;
#X obj 159 155 f;
#X obj 216 154 % 16;
#X floatatom 248 153 5 0 0 0 - - -;
#X obj 189 154 + 1;
#X obj 217 203 + 1;
#X obj 217 226 * 60;
#X obj 217 249 mtof;
#X obj 217 274 osc~;
#X obj 253 224 * 60;
#X obj 253 247 mtof;
#X obj 253 273 square~;
#X obj 216 322 *~;
#X obj 247 324 sig~;
#X obj 216 298 *~;
#X obj 216 350 outlet~;
#X obj 217 176 tabread melo2;
#X connect 0 0 6 0;
#X connect 2 0 3 0;
#X connect 3 0 6 0;
#X connect 4 0 5 0;
#X connect 5 0 19 0;
#X connect 6 0 7 0;
#X connect 7 0 10 0;
#X connect 8 0 9 0;
#X connect 9 0 22 0;
#X connect 10 0 7 1;
#X connect 10 0 8 0;
#X connect 11 0 12 0;
#X connect 12 0 13 0;
#X connect 13 0 14 0;
#X connect 14 0 20 0;
#X connect 15 0 16 0;
#X connect 16 0 17 0;
#X connect 17 0 20 1;
#X connect 18 0 21 0;
#X connect 19 0 18 1;
#X connect 20 0 18 0;
#X connect 22 0 11 0;
#X connect 22 0 15 0;
#X coords 0 -1 1 1 265 100 1 20 8;
