#N canvas 576 372 408 278 10;
#X obj -40 121 spigot;
#X obj 4 122 spigot;
#X obj -40 54 select 0 1 2 3 4 5 6 7;
#X obj 49 122 spigot;
#X obj 93 123 spigot;
#X obj 138 122 spigot;
#X obj 182 123 spigot;
#X obj 227 123 spigot;
#X obj 271 123 spigot;
#X obj 133 51 unpack f f f f f f f f;
#X obj 133 15 inlet;
#X obj -40 15 inlet;
#X obj 72 216 outlet;
#X obj 72 176 pack f f f f f f f f;
#X connect 0 0 13 0;
#X connect 1 0 13 1;
#X connect 2 0 0 0;
#X connect 2 1 1 0;
#X connect 2 2 3 0;
#X connect 2 3 4 0;
#X connect 2 4 5 0;
#X connect 2 5 6 0;
#X connect 2 6 7 0;
#X connect 2 7 8 0;
#X connect 3 0 13 2;
#X connect 4 0 13 3;
#X connect 5 0 13 4;
#X connect 6 0 13 5;
#X connect 7 0 13 6;
#X connect 8 0 13 7;
#X connect 9 0 0 1;
#X connect 9 1 1 1;
#X connect 9 2 3 1;
#X connect 9 3 4 1;
#X connect 9 4 5 1;
#X connect 9 5 6 1;
#X connect 9 6 7 1;
#X connect 9 7 8 1;
#X connect 10 0 9 0;
#X connect 11 0 2 0;
#X connect 13 0 12 0;
