#N canvas 73 281 450 269 10;
#X obj 24 38 f;
#X obj 54 39 + 1;
#X obj 23 56 % 8;
#X obj 24 19 metro 440;
#X obj 121 92 tgl 15 0 empty empty empty 17 7 0 10 -262144 -1 -1 0
1;
#X obj 139 92 tgl 15 0 empty empty empty 17 7 0 10 -262144 -1 -1 0
1;
#X obj 156 92 tgl 15 0 empty empty empty 17 7 0 10 -262144 -1 -1 0
1;
#X obj 174 92 tgl 15 0 empty empty empty 17 7 0 10 -262144 -1 -1 0
1;
#X obj 192 92 tgl 15 0 empty empty empty 17 7 0 10 -262144 -1 -1 0
1;
#X obj 210 92 tgl 15 0 empty empty empty 17 7 0 10 -262144 -1 -1 0
1;
#X obj 228 92 tgl 15 0 empty empty empty 17 7 0 10 -262144 -1 -1 0
1;
#X obj 246 92 tgl 15 0 empty empty empty 17 7 0 10 -262144 -1 -1 0
1;
#X obj 140 73 hradio 15 1 0 8 empty empty empty 0 -8 0 10 -262144 -1
-1 0;
#X obj 23 164 spigot;
#X obj 67 165 spigot;
#X obj 112 165 spigot;
#X obj 156 166 spigot;
#X obj 201 165 spigot;
#X obj 245 166 spigot;
#X obj 290 166 spigot;
#X obj 334 166 spigot;
#X obj 121 122 select 0 1 2 3 4 5 6 7;
#X obj 121 54 tgl 15 0 empty empty empty 17 7 0 10 -262144 -1 -1 0
1;
#X floatatom 144 54 5 0 0 0 - - -;
#X obj 23 190 outlet;
#X obj 201 191 outlet;
#X obj 246 191 outlet;
#X obj 292 191 outlet;
#X obj 336 191 outlet;
#X obj 67 190 outlet;
#X obj 111 191 outlet;
#X obj 156 191 outlet;
#X connect 0 0 1 0;
#X connect 1 0 0 1;
#X connect 1 0 2 0;
#X connect 2 0 12 0;
#X connect 2 0 21 0;
#X connect 3 0 0 0;
#X connect 4 0 13 1;
#X connect 5 0 14 1;
#X connect 6 0 15 1;
#X connect 7 0 16 1;
#X connect 8 0 17 1;
#X connect 9 0 18 1;
#X connect 10 0 19 1;
#X connect 11 0 20 1;
#X connect 13 0 24 0;
#X connect 14 0 29 0;
#X connect 15 0 30 0;
#X connect 16 0 31 0;
#X connect 17 0 25 0;
#X connect 18 0 26 0;
#X connect 19 0 27 0;
#X connect 20 0 28 0;
#X connect 21 0 13 0;
#X connect 21 1 14 0;
#X connect 21 2 15 0;
#X connect 21 3 16 0;
#X connect 21 4 17 0;
#X connect 21 5 18 0;
#X connect 21 6 19 0;
#X connect 21 7 20 0;
#X connect 22 0 3 0;
#X connect 23 0 3 1;
#X coords 0 -1 1 1 190 60 1 80 50;
