#N canvas 682 407 352 244 10;
#X obj 90 71 tgl 15 0 empty empty empty 17 7 0 10 -262144 -1 -1 0 1
;
#X obj 108 71 tgl 15 0 empty empty empty 17 7 0 10 -262144 -1 -1 1
1;
#X obj 125 71 tgl 15 0 empty empty empty 17 7 0 10 -262144 -1 -1 0
1;
#X obj 143 71 tgl 15 0 empty empty empty 17 7 0 10 -262144 -1 -1 1
1;
#X obj 161 71 tgl 15 0 empty empty empty 17 7 0 10 -262144 -1 -1 0
1;
#X obj 179 71 tgl 15 0 empty empty empty 17 7 0 10 -262144 -1 -1 1
1;
#X obj 197 71 tgl 15 0 empty empty empty 17 7 0 10 -262144 -1 -1 0
1;
#X obj 215 71 tgl 15 0 empty empty empty 17 7 0 10 -262144 -1 -1 0
1;
#X obj 79 52 hradio 15 1 0 8 empty empty empty 0 -8 0 10 -262144 -1
-1 5;
#X obj 90 102 pack f f f f f f f f;
#X msg 104 128 \$1 \$2 \$3 \$4 \$5 \$6 \$7 \$8;
#X obj 13 119 print \$2;
#X obj 79 12 inlet;
#X obj 127 162 outlet;
#X obj 80 161 outlet;
#X obj 41 12 inlet;
#X connect 0 0 9 0;
#X connect 1 0 9 1;
#X connect 2 0 9 2;
#X connect 3 0 9 3;
#X connect 4 0 9 4;
#X connect 5 0 9 5;
#X connect 6 0 9 6;
#X connect 7 0 9 7;
#X connect 9 0 10 0;
#X connect 9 0 11 0;
#X connect 10 0 13 0;
#X connect 12 0 8 0;
#X connect 12 0 14 0;
#X connect 15 0 9 0;
#X coords 0 -1 1 1 185 60 1 50 35;
