#N canvas 0 0 324 335 10;
#X obj 188 103 line~;
#X obj 134 154 *~;
#X obj 188 3 inlet;
#X obj 232 20 bng 15 250 50 0 empty empty empty 17 7 0 10 -262144 -1
-1;
#X msg 188 64 1 \, 0 190;
#X obj 133 240 *~ 0.2;
#X obj 134 202 lop~ 200;
#X obj 60 29 sel 0 1 2 3;
#X msg 60 65 120;
#X msg 89 65 220;
#X msg 119 65 320;
#X msg 148 65 420;
#X obj 99 112 osc~;
#X obj 133 273 outlet~;
#X obj 60 1 inlet;
#X connect 0 0 1 1;
#X connect 1 0 6 0;
#X connect 2 0 3 0;
#X connect 2 0 4 0;
#X connect 4 0 0 0;
#X connect 5 0 13 0;
#X connect 6 0 5 0;
#X connect 7 0 8 0;
#X connect 7 1 9 0;
#X connect 7 2 10 0;
#X connect 7 3 11 0;
#X connect 8 0 12 0;
#X connect 9 0 12 0;
#X connect 10 0 12 0;
#X connect 11 0 12 0;
#X connect 12 0 1 0;
#X connect 14 0 7 0;
