#N canvas 707 269 318 300 10;
#X obj 39 13 inlet;
#X obj 39 38 bng 15 250 50 0 empty empty empty 17 7 0 10 -262144 -1
-1;
#X obj 39 66 f;
#X obj 68 66 + 1;
#X obj 97 66 % 4;
#X obj 49 84 sel 0 1 2 3;
#X msg 32 113 120;
#X msg 65 113 240;
#X msg 98 114 320;
#X msg 130 114 420;
#X obj 32 145 osc~;
#X msg 163 53 1 \, 0 100;
#X obj 163 145 line~;
#X obj 94 163 *~;
#X obj 94 188 lop~ 200;
#X obj 94 238 outlet~;
#X obj 94 212 *~ 0.8;
#X connect 0 0 1 0;
#X connect 1 0 2 0;
#X connect 1 0 11 0;
#X connect 2 0 3 0;
#X connect 3 0 2 1;
#X connect 3 0 4 0;
#X connect 4 0 5 0;
#X connect 5 0 6 0;
#X connect 5 1 7 0;
#X connect 5 2 8 0;
#X connect 5 3 9 0;
#X connect 6 0 10 0;
#X connect 7 0 10 0;
#X connect 8 0 10 0;
#X connect 9 0 10 0;
#X connect 10 0 13 0;
#X connect 11 0 12 0;
#X connect 12 0 13 1;
#X connect 13 0 14 0;
#X connect 14 0 16 0;
#X connect 16 0 15 0;
