#N canvas 368 125 543 380 10;
#X floatatom 48 67 5 0 0 0 - - -;
#X obj 48 124 phasor~;
#X obj 123 122 phasor~;
#X text 152 62 Phase Synchronisation;
#X obj 46 233 clip~ 0 1;
#X obj 122 234 clip~ 0 1;
#X obj 103 267 +~;
#X obj 79 93 * -1;
#X obj 49 198 -~ -1;
#X obj 122 199 -~ -1;
#X obj 198 236 clip~ 0 1;
#X obj 184 308 +~;
#X obj 166 98 * -2;
#X obj 199 124 osc~;
#X obj 198 201 -~ -1;
#X obj 199 162 *~ -1;
#X obj 123 160 *~ -1;
#X obj 183 351 outlet~;
#X obj 48 24 inlet;
#X obj 123 24 inlet;
#X msg 123 63 1;
#X obj 172 41 bng 15 250 50 0 empty empty empty 17 7 0 10 -262144 -1
-1;
#X obj 49 162 *~ -1;
#X connect 0 0 1 0;
#X connect 0 0 7 0;
#X connect 0 0 12 0;
#X connect 1 0 22 0;
#X connect 2 0 16 0;
#X connect 4 0 6 0;
#X connect 5 0 6 1;
#X connect 6 0 11 0;
#X connect 7 0 2 0;
#X connect 8 0 4 0;
#X connect 9 0 5 0;
#X connect 10 0 11 1;
#X connect 11 0 17 0;
#X connect 12 0 13 0;
#X connect 13 0 15 0;
#X connect 14 0 10 0;
#X connect 15 0 14 0;
#X connect 16 0 9 0;
#X connect 18 0 0 0;
#X connect 19 0 20 0;
#X connect 19 0 21 0;
#X connect 20 0 1 1;
#X connect 20 0 2 0;
#X connect 21 0 20 0;
#X connect 22 0 8 0;
