#N canvas 0 0 1017 380 10;
#X obj -61 138 *~;
#X msg -61 100 bang;
#N canvas 0 22 450 300 (subpatch) 0;
#X array sample1 38160 float 2;
#X coords 0 1 38160 -1 80 50 1;
#X restore -143 130 graph;
#X obj -209 108 soundfiler;
#X obj -209 70 openpanel;
#X floatatom -209 127 8 0 0 0 - - -;
#X obj -209 145 / 44.1;
#X floatatom -209 164 8 0 0 0 - - -;
#X msg -209 -138 \; pd dsp \$1;
#X obj -209 -172 tgl 30 0 empty empty Audio:On/Off 33 26 0 10 -259648
-1 -1 1 1;
#X obj -22 -69 metro;
#X obj 5 -88 /;
#X obj -22 -86 tgl 15 0 empty empty empty 17 7 0 10 -262144 -1 -1 0
1;
#X obj -22 -14 select 0 1 2 3;
#X msg -209 89 read -resize \$1 sample1;
#X obj -61 119 tabplay~ sample1;
#X obj 191 136 *~;
#X msg 191 98 bang;
#N canvas 0 22 450 300 (subpatch) 0;
#X array sample2 15308 float 2;
#X coords 0 1 15308 -1 80 50 1;
#X restore 109 128 graph;
#X obj 43 106 soundfiler;
#X obj 43 68 openpanel;
#X floatatom 43 125 8 0 0 0 - - -;
#X obj 45 143 / 44.1;
#X floatatom 43 162 8 0 0 0 - - -;
#X msg 43 87 read -resize \$1 sample2;
#X obj 191 117 tabplay~ sample2;
#X obj 444 136 *~;
#X msg 444 98 bang;
#N canvas 0 22 450 300 (subpatch) 0;
#X array sample3 9285 float 2;
#X coords 0 1 9285 -1 80 50 1;
#X restore 362 128 graph;
#X obj 296 106 soundfiler;
#X obj 296 68 openpanel;
#X floatatom 296 125 8 0 0 0 - - -;
#X obj 296 143 / 44.1;
#X floatatom 296 162 8 0 0 0 - - -;
#X msg 296 87 read -resize \$1 sample3;
#X obj 444 117 tabplay~ sample3;
#X obj 697 137 *~;
#X msg 697 99 bang;
#N canvas 0 22 450 300 (subpatch) 0;
#X array sample4 4088 float 2;
#X coords 0 1 4088 -1 80 50 1;
#X restore 615 129 graph;
#X obj 549 107 soundfiler;
#X obj 549 69 openpanel;
#X floatatom 549 126 8 0 0 0 - - -;
#X obj 549 144 / 44.1;
#X floatatom 549 163 8 0 0 0 - - -;
#X msg 549 88 read -resize \$1 sample4;
#X obj 697 118 tabplay~ sample4;
#X floatatom 225 -68 6 0 0 0 - - -;
#X msg 225 -50 \$1 50;
#X obj 225 -31 line~;
#X obj 225 -12 s~ VOL;
#X obj -45 136 r~ VOL;
#X obj 215 136 r~ VOL;
#X obj 468 136 r~ VOL;
#X obj 721 137 r~ VOL;
#X obj -49 5 s SB1;
#X obj -61 81 r SB1;
#X obj 191 79 r SB2;
#X obj 444 79 r SB3;
#X obj -13 5 s SB2;
#X obj 697 80 r SB4;
#X obj 59 5 s SB4;
#X obj 23 5 s SB3;
#X obj -211 53 bng 15 250 50 0 empty empty empty 17 7 0 10 -262144
-1 -1;
#X text -211 36 Load Sample;
#X msg -190 51 symbol /samples;
#X obj 45 51 bng 15 250 50 0 empty empty empty 17 7 0 10 -262144 -1
-1;
#X text 41 34 Load Sample;
#X msg 62 49 symbol /samples;
#X obj 291 51 bng 15 250 50 0 empty empty empty 17 7 0 10 -262144 -1
-1;
#X text 294 34 Load Sample;
#X msg 315 49 symbol /samples;
#X obj 549 52 bng 15 250 50 0 empty empty empty 17 7 0 10 -262144 -1
-1;
#X text 547 35 Load Sample;
#X msg 568 50 symbol /samples;
#X obj -22 -31 hradio 15 1 0 4 empty empty empty 0 -8 0 10 -262144
-1 -1 0;
#X obj 497 -171 cnv 15 265 20 empty empty SampleShufflerSS4:DimitriPaile2011
15 10 0 12 -259648 -66577 0;
#X obj 225 -105 knob 32 32 0 1 0 0 empty empty MASTERvol -67 30 0 12
-258113 -1 -1 0 1;
#X obj -22 -155 bng 25 250 50 0 empty empty Start/Stop 0 -5 0 10 -162280
-1 -1;
#X text 326 -120 1 Load 4 audio samples by clicking the bang below
"Load Sample";
#X text 326 -130 INSTRUCTIONS:;
#X text 326 -65 5 Turn up MASTERvol knob;
#X text 496 -151 Version 1;
#X obj -22 -50 shuffle 4;
#X obj -61 163 s~ S1out;
#X obj 191 161 s~ S2out;
#X obj 697 162 s~ S4out;
#X obj 444 161 s~ S3out;
#X text 326 -95 2 Adjust desired BPM with the slider;
#X text 326 -85 3 Click Audio:On;
#X text 326 -75 4 Click Start;
#X text 326 -54 6 To record \, click the three message boxes below
'Record output'. Rename file in the "open SS4..." message box if you
want.;
#X obj 44 -128 i;
#X obj 85 -162 knob 31 31 177 50 0 0 tK8X empty empty 0 -8 0 8 -262144
-1 -1 2500 1;
#X msg 5 -108 60000;
#X floatatom 47 -104 5 0 0 0 - - -;
#X obj 5 -128 t b b;
#X connect 0 0 83 0;
#X connect 1 0 15 0;
#X connect 3 0 5 0;
#X connect 4 0 14 0;
#X connect 5 0 6 0;
#X connect 6 0 7 0;
#X connect 9 0 8 0;
#X connect 10 0 82 0;
#X connect 11 0 10 1;
#X connect 12 0 10 0;
#X connect 13 0 54 0;
#X connect 13 1 58 0;
#X connect 13 2 61 0;
#X connect 13 3 60 0;
#X connect 14 0 3 0;
#X connect 15 0 0 0;
#X connect 16 0 84 0;
#X connect 17 0 25 0;
#X connect 19 0 21 0;
#X connect 20 0 24 0;
#X connect 21 0 22 0;
#X connect 22 0 23 0;
#X connect 24 0 19 0;
#X connect 25 0 16 0;
#X connect 26 0 86 0;
#X connect 27 0 35 0;
#X connect 29 0 31 0;
#X connect 30 0 34 0;
#X connect 31 0 32 0;
#X connect 32 0 33 0;
#X connect 34 0 29 0;
#X connect 35 0 26 0;
#X connect 36 0 85 0;
#X connect 37 0 45 0;
#X connect 39 0 41 0;
#X connect 40 0 44 0;
#X connect 41 0 42 0;
#X connect 42 0 43 0;
#X connect 44 0 39 0;
#X connect 45 0 36 0;
#X connect 46 0 47 0;
#X connect 47 0 48 0;
#X connect 48 0 49 0;
#X connect 50 0 0 1;
#X connect 51 0 16 1;
#X connect 52 0 26 1;
#X connect 53 0 36 1;
#X connect 55 0 1 0;
#X connect 56 0 17 0;
#X connect 57 0 27 0;
#X connect 59 0 37 0;
#X connect 62 0 4 0;
#X connect 64 0 4 0;
#X connect 65 0 20 0;
#X connect 67 0 20 0;
#X connect 68 0 30 0;
#X connect 70 0 30 0;
#X connect 71 0 40 0;
#X connect 73 0 40 0;
#X connect 74 0 13 0;
#X connect 74 0 95 0;
#X connect 76 0 46 0;
#X connect 77 0 12 0;
#X connect 82 0 74 0;
#X connect 91 0 94 0;
#X connect 92 0 91 0;
#X connect 93 0 11 0;
#X connect 94 0 11 1;
#X connect 95 0 93 0;
#X connect 95 1 94 0;
